<?xml version="1.0" encoding="UTF-8" standalone="no"?>
<!DOCTYPE svg PUBLIC "-//W3C//DTD SVG 1.1//EN" "http://www.w3.org/Graphics/SVG/1.1/DTD/svg11.dtd">
<svg width="100%" height="100%" viewBox="0 0 500 256" version="1.1" xmlns="http://www.w3.org/2000/svg" xmlns:xlink="http://www.w3.org/1999/xlink" xml:space="preserve" xmlns:serif="http://www.serif.com/" style="fill-rule:evenodd;clip-rule:evenodd;stroke-linejoin:round;stroke-miterlimit:2;"><script xmlns="" id="custom-useragent-string-page-script"/>
    <g transform="matrix(1,0,0,1,-616.171,-603.241)">
        <g transform="matrix(0.384329,0,0,0.384329,578.052,442.438)">
            <path d="M1053.4,835.9C1046.8,846 1036,849 1026.3,853.9C1017.9,858.1 1010,863.3 1001.7,867.7C996,870.7 990.1,873.5 984.1,876C964,884.1 943.7,891.6 923.8,899.9C901,909.4 878.3,919.2 855.8,929.4C837.5,937.7 819.8,947.1 801.6,955.6C784.1,963.7 766.2,971.1 748.6,979.1C733.1,986.2 717.8,993.9 702.4,1001.3C688.2,1008.1 674,1014.8 659.9,1021.7C633.5,1034.7 607.3,1047.8 580.9,1060.7C576.5,1062.8 571.4,1063.4 567,1065.5C560.4,1068.5 554.1,1072.3 547.5,1075.6C542.8,1077.9 538.1,1080.5 533.1,1081.9C531.1,1082.5 527.4,1080.9 525.9,1079.1C515.4,1066.5 511.6,1051 508,1035.5C506.3,1028.1 504.7,1020.5 503.6,1013C503.2,1010.1 504.1,1006.9 504.9,1004C505,1003.5 508.3,1003 508.8,1003.5C511.6,1006.8 515.2,1010 516.3,1013.9C518.6,1021.7 519.3,1029.9 521.1,1037.9C522.5,1044.2 524.4,1050.4 526.2,1056.6C527.1,1059.8 529.4,1059.4 531.7,1058.3C543.2,1052.7 554.7,1047.1 566.3,1041.6C580.4,1034.9 594.6,1028.5 608.7,1021.8C623.9,1014.6 639,1007.1 654.3,1000C673.3,991.1 692.5,982.4 711.5,973.6C729,965.5 746.5,957.5 763.9,949.3C787.5,938.2 811,926.8 834.6,915.9C845.8,910.7 857.3,906.5 868.6,901.6C886.3,894 903.8,886 921.6,878.6C935.2,872.9 949.1,867.8 962.9,862.7C968.6,860.6 974.4,858.5 980.3,857.4C989.9,855.6 999.6,854.8 1008.8,850.8C1014.6,848.3 1021.2,847.5 1027.4,845.6C1032.2,844.1 1036.8,842 1041.5,840.2C1045.6,838.7 1049.5,837.3 1053.4,835.9ZM960.172,814.053C966.783,811.569 973.398,809.103 980.1,806.9C1000.3,800.2 1020.7,794.2 1041,787.8C1053,784 1064.9,779.9 1076.9,776.2C1095,770.6 1113.1,765.1 1131.3,759.8C1148.5,754.8 1165.7,750 1183,745.3C1201.3,740.4 1219.7,735.9 1238,731.1C1252.1,727.4 1266.1,723.6 1280.2,719.9C1290,717.3 1299.6,713.9 1309.6,712.3C1317.1,711.1 1325,711.7 1332.2,708.8C1333.2,708.4 1333.9,707 1334.9,706.4C1336.3,705.5 1337.9,704.7 1339.5,704.4C1339.9,704.3 1340.7,706.1 1341.2,706.9C1351.2,706.8 1359.4,702.2 1367.3,696.2C1371.5,693 1376.7,691.2 1381.2,688.4C1383.1,687.3 1384.5,685.3 1386.1,683.8C1384.4,682.3 1383,680.2 1381.1,679.4C1362.1,672 1343.2,664.1 1323.8,657.8C1299.8,649.9 1275.4,643.4 1251.1,636.3C1231.8,630.7 1212.5,625 1193.2,619.5C1159.6,609.9 1126,600.5 1092.5,590.9C1079.6,587.2 1066.7,583.4 1053.8,580C1028.6,573.5 1003.3,567.1 978,560.9C950.6,554.2 923,547.9 895.5,541.5C873.2,536.3 850.9,531.2 828.6,526C807.7,521.1 786.9,515.9 766,510.9C748.4,506.7 730.7,502.8 713.1,498.4C702.3,495.7 691.7,492.2 681,489.4C673.5,487.4 665.9,485.7 658.3,484.1C645,481.2 631.7,478.4 618.4,475.7C603.6,472.8 588.6,470.5 573.9,467.1C560.8,464.1 548,459.8 534.9,456.4C526.2,454.1 517.4,452.5 508.6,450.4C494.7,447 480.9,443.3 467,439.8C465.1,439.3 463.2,438.9 460.8,439.3C464,442.6 467.1,446 470.3,449.2C485.6,464.6 500.8,480.2 516.4,495.4C526.2,505 536.4,514.1 546.8,523.1C555.1,530.3 563.9,536.8 572.4,543.7C583.4,552.7 593.8,562.6 605.5,570.7C618.7,579.9 633.1,587.3 646.7,595.8C653.6,600.1 658.6,606.5 659.6,614.8C660.2,620.4 656.9,622.5 652,619.8C637.1,611.6 621.8,603.9 607.9,594.2C593.5,584.2 580.5,572.2 567.1,560.8C555,550.6 542.9,540.5 531.2,529.9C516.2,516.2 500.8,502.8 487,488C472.7,472.8 459.9,456.1 446.9,439.8C444.5,436.7 443.8,432.3 442.5,428.9C444.2,425.8 445.7,423 447.3,420.1C447.1,419.5 447,419 446.8,418.4C452.5,419 458.3,419 463.8,420.4C501.4,429.8 538.9,439.8 576.5,448.9C598.3,454.1 620.6,457.3 642.4,462.3C667.4,468 692,475 717,481.1C749.6,489 782.3,496.5 815,504.1C842.8,510.6 870.7,517 898.5,523.5C927.3,530.3 956.2,536.8 984.9,543.9C1018.3,552.2 1051.6,560.8 1084.8,569.9C1140.6,585.2 1196.3,601 1252,616.7C1280.6,624.8 1309.3,632.9 1337.7,641.8C1353,646.6 1367.9,653.2 1382.8,659.1C1402.7,667 1405.6,687.3 1390.9,702.2C1383.4,709.8 1374,713.5 1363.5,715.7C1351.2,718.3 1339.3,722.6 1327.2,726.1C1313.1,730.2 1299,734.4 1284.8,738.4C1271.2,742.2 1257.6,745.7 1243.9,749.3C1231.4,752.6 1218.9,755.8 1206.4,759.3C1193.4,762.9 1180.5,766.5 1167.6,770.3C1153.1,774.6 1138.6,778.9 1124.2,783.5C1116.5,786 1109,789.3 1101.3,791.9C1096.9,793.4 1092.3,794.1 1087.9,795.3C1075.7,798.7 1063.5,802 1051.4,805.8C1042.2,808.7 1033.3,812.4 1024.2,815.7C1021.2,816.8 1018.3,817.8 1015.2,818.6C1011.3,819.5 1007.2,819.7 1003.5,821.1C995.5,823.9 987.8,827.5 979.8,830.4C972.7,832.9 965.3,834.8 958.1,837C940.4,842.6 922.8,848.3 905,853.8C867.8,865.2 830.4,876.2 793.3,888C759.1,898.9 725.2,910.9 691.1,922.2C673.4,928.1 655.6,933.4 637.9,939.2C628.931,942.175 619.963,945.207 610.994,948.247L603.306,950.853C594.338,953.893 585.369,956.925 576.4,959.9C557.2,966.3 537.8,972.5 518.6,979C505.1,983.6 491.8,989.1 478.2,993.4C453.8,1001 429.2,1008 404.6,1015.3C402.9,1015.8 400.5,1016 399.6,1017.3C393.8,1025.1 385.6,1023.2 378.5,1021.7C358.6,1017.6 338.8,1013.3 319.3,1007.6C303.6,1003 288.5,996.6 273.4,990.3C267.5,987.8 263,983 259.5,977C257.8,974 260.1,973.3 260.5,973.2C264,973.1 263.8,970.1 265.1,968.1C269,962.3 273.1,956.7 277.3,951.2C289.7,934.7 301.9,918.1 314.7,901.9C327,886.2 340,871 352.5,855.5C376.2,825.9 399.8,796.3 423.4,766.6C432.1,755.7 440.7,744.6 449.3,733.6C449.8,733 450.6,732.3 450.7,731.6C451.2,721.6 459.5,724.7 464.8,721.7C464.8,721.5 464.6,720.8 464.7,721C467.8,721.5 470.9,722.6 473.9,722.3C497.2,720.4 520.6,718.2 543.9,716.1C564.9,714.2 585.9,712.3 606.9,710.4C622.6,709 638.3,707.5 654,706.2C676.2,704.4 698.5,702.4 720.8,701C732.2,700.3 743.7,700.5 755.2,700.6C766.3,700.7 777.4,701.8 788.4,701.2C808,700.2 827.5,698 847,696.9C855.1,696.4 863.3,697.7 871.4,697.9C876,698 880.6,697.6 885.1,697.8C887.4,697.9 889.7,698.9 891.9,699.5C891.9,700 891.9,700.5 891.8,701C890.2,701.4 888.6,702 886.9,702.2C868.8,704.9 850.7,707.8 832.5,710C823,711.2 813.3,711 803.6,711.6C790,712.4 776.3,713.5 762.7,714.2C748.3,714.9 733.8,714.9 719.5,715.8C695.6,717.4 671.8,719.2 648,721.5C610.4,725.2 572.9,729.5 535.3,733.4C526.813,734.275 518.325,735.016 509.837,735.74L502.563,736.36C494.075,737.084 485.588,737.825 477.1,738.7C474.5,739 471.2,740.5 469.6,742.6C460.7,754 452.2,765.6 443.7,777.3C433.2,791.7 423.4,806.6 412.2,820.5C386.4,852.7 359.9,884.2 334.1,916.3C324,928.8 315,942.2 305.4,955.1C299.5,963 293.2,970.7 286.8,978.9C295.6,981.5 303.9,984.5 312.4,986.4C336.1,991.5 360,996.3 383.8,1000.8C386.9,1001.4 390.6,1000.3 393.8,999.3C415.6,992.5 437.4,985.7 459.1,978.5C474.2,973.5 488.9,967.6 503.9,962.4C517.1,957.7 530.3,953.3 543.6,948.8C556.5,944.5 569.4,940.3 582.3,936C590.5,933.2 598.6,929.9 606.9,927.2C615.4,924.4 624.1,922.2 632.6,919.6C650.3,914.1 668.1,908.7 685.7,902.8C710.9,894.4 735.9,885.3 761.1,876.9C779,870.9 797.1,865.5 815.1,860C835.6,853.7 856.1,847.7 876.6,841.4C897,835.1 917.4,828.9 937.6,822.2C944.302,819.997 950.917,817.531 957.528,815.047L960.172,814.053ZM628.1,731.7C630.5,734.6 633.3,736.9 634.6,739.9C636.8,745 635.4,749.6 631.3,753.9C599.4,786.4 567.5,818.9 535.9,851.8C514,874.7 492.7,898.1 471.1,921.3C462.7,930.4 454.5,939.7 445.7,948.4C435.1,959 424,969.2 412.9,979.3C411.1,981 408.4,981.6 406.1,982.7C405.6,982.1 405.1,981.4 404.6,980.8C410.8,973.1 416.9,965.4 423.1,957.7C430.9,948.1 439.8,939.3 445.9,928.3C447.5,925.5 450.9,923.7 453.2,921.2C455.6,918.6 457.7,915.6 460,912.9C469.3,901.9 478.7,891 488.1,880.1C497.9,868.8 507.6,857.5 517.6,846.3C525.6,837.3 533.7,828.3 542,819.5C546.1,815.1 551,811.3 555,806.8C560.5,800.8 565.4,794.3 570.8,788.2C572.5,786.3 574.7,784.9 576.7,783.3C577.2,782.9 577.9,782.6 578.3,782.1C583.5,776.2 588.6,770.2 593.8,764.3C595.1,762.8 596.6,761.6 598,760.2C605.9,752.4 613.7,744.6 621.7,736.9C623.2,735.1 625.2,733.9 628.1,731.7ZM186.3,888.4C177,887.6 167.6,887 158.3,886C153.9,885.5 149.6,884.3 145.2,883.5C139.9,882.5 136.5,878.9 135.5,874.1C134.7,870.5 136.7,868.9 139.1,867.9C149,863.8 159,860.3 170.2,861.8C179.1,863 188.2,862.8 197.2,863.6C206.9,864.4 216.5,865.5 226.1,866.7C227,866.8 228.5,869.7 228.1,870.5C227,872.8 225.4,875.7 223.3,876.5C212.6,880.4 201.6,883.8 190.7,887.3C189.3,887.7 187.7,887.5 186.2,887.6C186.3,887.8 186.3,888.1 186.3,888.4ZM346.8,475.6C349.3,478.9 351.4,481.6 353.5,484.4C367.3,502.9 381.2,521.3 394.6,540.1C403.8,552.9 412.6,566.1 420.8,579.6C432.1,598 442.9,616.6 453.6,635.4C458.8,644.5 463.2,654 467.8,663.3C470.3,668.4 477.8,671 485.7,670C495.8,668.7 505.8,667.7 515.9,666.9C528.3,666 540.8,665.4 553.3,664.8C565.6,664.2 577.9,663.9 590.2,663.3C606.3,662.5 622.4,661.5 638.5,660.7C668.6,659.1 698.6,657.1 728.7,656.1C742.5,655.7 756.3,657.5 770.1,658C788,658.6 806,658.8 823.9,659.3C840.3,659.8 856.8,660.5 873.2,660.9C885.7,661.1 898.2,660.6 910.6,660.8C929.7,661 948.8,661.6 968,661.9C981.9,662.1 995.9,661.9 1009.8,662C1023.5,662.1 1037.3,662 1051,662.8C1056.6,663.1 1062,662 1067.6,662.7C1073.7,663.5 1079.9,663.1 1086,663.5C1092.1,663.8 1098.3,664.4 1104.4,664.9C1110.5,665.4 1116.6,666.3 1122.8,666.7C1134,667.3 1145.2,667.6 1156.4,668.2C1162.9,668.6 1169.4,669.3 1176.2,670.6C1174.6,671.3 1172.9,672 1170.9,672.9C1172,673.6 1173.1,674.3 1174.2,675C1174,675.2 1173.9,675.6 1173.7,675.7C1157.5,682.7 1140.8,680.3 1123.9,678.9C1108.4,677.6 1092.9,677.1 1077.4,676.9C1053.5,676.6 1029.5,677 1005.6,676.8C976.5,676.6 947.4,675.9 918.3,675.6C894.5,675.4 870.7,675.8 846.9,675.3C815,674.6 783.1,672.9 751.2,672.5C730.1,672.2 709,673.5 688,674.2C672.2,674.7 656.4,675.2 640.6,676C628.2,676.6 615.7,677.9 603.3,678.6C587.4,679.5 571.4,680 555.5,680.9C531.6,682.2 507.8,683.6 483.6,684.9C485.6,693.9 487.6,702 489.3,710.2C489.7,712 489.5,714.3 488.7,715.9C487.5,718.1 486,719.2 482.7,717.4C475.1,713 471.5,706.5 470,698.3C469.4,694.7 468.7,691.1 467.8,687.6C467.1,684.5 466.4,681.3 462,681.3C461.1,681.3 460,679.7 459.3,678.7C452.1,667.9 444.9,657.1 437.9,646.2C421,619.8 404.6,593 387.2,566.9C373.8,546.8 359.3,527.5 345,508.1C338.5,499.3 331.5,491 324.7,482.4C324.2,481.8 324.2,480.7 324.2,479.9C324.1,475.8 322.6,470.9 324.3,467.8C326.7,463.6 331,459.7 335.4,457.6C350.3,450.4 365.7,444.1 380.9,437.3C393.3,431.7 405.6,425.7 418.1,420.3C426.1,416.8 431.3,419.8 433.2,427.7C434.3,432.3 432.2,435.2 428.6,437.1C423.3,439.8 417.6,441.9 412.3,444.5C397.5,451.9 382.9,459.7 368.1,467C361.4,470 354.2,472.5 346.8,475.6ZM357.2,670.1C355.1,677 349.3,678.7 339.6,676.8C340.4,678.1 341,679 341.3,679.6C336.9,681.8 332.9,684.7 328.3,686.1C321.9,688 315.3,689.1 308.7,690C286.9,693 265.3,690.1 243.5,688.9C223.3,687.8 203.1,686.6 182.8,685.9C164.2,685.2 145.6,686.1 127.1,684.5C116.3,683.6 105.6,679.6 100.2,668.4C99.5,667 99.1,665.3 99.2,663.7C99.2,663.1 100.9,662 101.7,662C105.1,662.4 108.5,663.7 111.8,663.6C129.5,663.1 147.2,661.8 164.9,661.6C180.2,661.4 195.5,661.9 210.8,662.6C235.2,663.6 259.6,665.3 284.1,666C299.3,666.4 314.6,665 329.9,665.6C338.9,665.8 347.7,668.4 357.2,670.1ZM504.7,526.6C504.7,526.6 503.8,525.4 502.7,523.9C512.4,528.1 516.8,537 522.9,544.2C531.9,554.9 540.2,566.2 549.8,576.2C566.2,593.3 584.8,607.9 604.7,620.8C607.2,622.4 609.8,623.8 612.3,625.5C612.9,625.9 613.1,626.9 613.3,627.1C609.9,634 605.8,631.7 600.9,629.3C584.7,621.5 570.9,610.2 557.9,598.1C545.7,586.7 534.9,573.8 523.2,561.8C514.7,553 507.9,543.2 504.1,531.5C503.7,530.4 504.3,529 504.7,526.6ZM312.4,587.9C313.5,590.1 314.3,591.8 315.2,593.7C311.7,598.9 305.7,601.2 299.7,602C290.2,603.3 280.6,603.6 271,603.5C255.6,603.2 240.1,602.9 224.8,601.2C210.5,599.6 196.3,597.1 182.4,593.3C174.2,591.1 166.8,585.6 158.1,581.2C164.1,575.7 169.5,573 176.5,573.5C193.8,574.8 211.2,575.8 228.6,576.9C237.3,577.4 246,578.2 254.7,578.4C263.4,578.5 272.1,578.1 280.8,577.8C288.5,577.5 296.3,577 304,576.8C307.5,576.7 311,577.2 314.4,577.8C317.6,578.4 321.1,579.6 320.6,583.6C320.1,587.2 317,588.3 312.4,587.9Z" style="fill-rule:nonzero;"/>
        </g>
    </g>
</svg>