<?xml version="1.0" encoding="UTF-8"?>
<svg width="273px" height="209px" viewBox="0 0 273 209" version="1.1" xmlns="http://www.w3.org/2000/svg" xmlns:xlink="http://www.w3.org/1999/xlink">
    <title>reproducible-research</title>
    <g id="Page-1" stroke="none" stroke-width="1" fill="none" fill-rule="evenodd">
        <g id="reproducible-research" transform="translate(0.334876, 0.194887)" fill="#000000" fill-rule="nonzero">
            <path d="M20.7331046,186.686346 C18.0113144,183.964555 15.2895243,181.327162 12.6732298,178.626471 C9.23406863,175.060715 6.74436909,170.819786 4.2757687,166.557758 C0.203633022,159.552841 -0.577035477,152.020445 0.351327062,144.171561 C0.731111737,140.943391 1.21639216,137.694123 2.52453937,134.655845 C3.89598403,131.512072 5.35182528,128.389398 7.54613674,125.688707 C8.30570609,124.739245 8.72768906,123.473296 9.6138533,122.713727 C12.0613545,120.561614 14.6565498,118.578294 17.2306459,116.594974 C18.1801076,115.856504 19.1928668,115.223529 20.2267251,114.611654 C20.8807987,114.231869 21.7247646,114.105274 22.3155408,113.662192 C23.0751101,113.092515 23.8768778,112.839326 24.7419429,112.543937 C25.9656935,112.121954 27.0839483,111.341286 28.2444015,110.75051 C29.0883675,110.328527 29.9112343,109.864346 30.7973985,109.590057 C34.8273359,108.281909 38.8783724,106.973762 42.929409,105.771111 C44.3641511,105.349128 45.8621906,105.201434 47.4868251,104.884947 C47.2969327,104.378567 47.191437,103.998782 47.0226438,103.640097 C45.1870179,99.8633492 43.3302928,96.1077007 41.4735677,92.3309531 C40.8827915,91.1283016 40.2287179,89.9678485 39.7434375,88.7229987 C39.5957435,88.3221149 39.9333298,87.7524378 40.0599247,87.1616617 C40.0388256,87.1405625 39.8700324,87.0350668 39.6168426,86.8662736 C40.3975111,86.1278034 41.0515847,85.2416392 41.9166498,84.7563587 C43.0982021,84.1022851 44.4696468,83.7857979 45.7144966,83.2583192 C46.9804455,82.7308405 46.8749497,82.7308405 46.4318676,81.4015941 C45.9887855,80.0934469 45.7144966,78.7431014 45.4613068,77.3716567 C45.4191085,77.118467 45.6933974,76.6331865 45.9465872,76.5065916 C48.7738731,75.0718495 51.6222582,73.6371074 54.5128415,72.3289602 C56.5172607,71.4005977 58.5638781,70.5355326 60.6526938,69.8603598 C62.5516172,69.2484845 64.7459286,70.2823428 65.7586877,71.9913738 C66.3705631,73.0463313 67.2567273,74.0379913 66.7292486,75.4516342 C67.7631069,75.3883368 68.7336677,75.282841 69.7042285,75.282841 C71.2444664,75.2617419 72.6792085,75.6837248 73.6286702,76.9707729 C74.451537,78.1101269 75.1478089,79.3549767 75.7807833,80.6209256 C77.2366246,83.4904098 78.6713667,86.3809932 80.0428114,89.3137748 C80.9078764,91.1494008 81.6041483,93.0483242 82.4481143,94.9050492 C83.7773607,97.7745334 85.1910036,100.58072 86.52025,103.450204 C87.51191,105.581218 88.3980742,107.733332 89.368635,109.864346 C89.5585274,110.286329 90.0016095,110.602816 90.212601,111.024799 C91.499649,113.767688 92.7023005,116.552776 93.9893486,119.295665 C94.5168273,120.435019 95.0865043,121.574373 95.7827762,122.62933 C96.4368498,123.64209 96.3102549,125.920798 95.3607932,126.722565 C94.7489179,127.250044 94.1370426,127.777523 93.4618699,128.220605 C92.7866971,128.642588 92.0482269,128.959075 91.2675584,129.33886 C91.7317397,129.929636 91.6473431,130.984593 92.8499946,130.689205 C92.8710937,132.714724 91.351955,133.53759 90.0227086,134.381556 C88.8200572,135.141126 87.4486125,135.647505 86.1404653,136.238281 C83.967253,137.208842 81.7729415,138.158304 79.5786301,139.065567 C78.6502675,139.445352 77.6586076,139.74074 76.6669476,139.972831 C75.590891,140.22602 74.6414293,140.036128 74.1561489,138.854576 C73.9451574,138.369295 73.6708685,137.926213 73.4387778,137.525329 C71.4554579,138.031709 69.493237,138.601386 67.5099171,139.00227 C66.4338605,139.213261 65.2734073,139.192162 64.1762516,139.086666 C63.6909712,139.023369 63.0790959,138.559188 62.8259061,138.095006 C60.3784049,133.600888 57.9731019,129.08567 55.6521956,124.507155 C55.1669151,123.557693 54.7027339,123.304503 53.7110739,123.515495 C50.4407059,124.211767 47.4024285,125.477716 44.5329442,127.186747 C42.6762192,128.305001 40.6507009,129.148967 38.7939758,130.267222 C34.7218401,132.672525 31.0505883,135.563109 27.9490134,139.171063 C26.2821807,141.133284 25.3116199,143.45419 24.9529343,145.817295 C24.2355633,150.606802 23.4337956,155.459606 24.8052403,160.270212 C25.6703054,163.266291 26.5986679,166.241271 27.7591211,169.131854 C30.2488206,175.250607 34.5741461,179.808023 40.3553128,182.930697 C42.1276413,183.901258 43.7733749,184.977315 45.1870179,186.454255 C45.5668025,186.83404 46.2208761,187.087229 46.769454,187.129428 C51.3690684,187.382618 55.9475836,187.361518 60.547198,187.150527 C65.5265971,186.918436 70.5059962,186.981734 75.4853953,186.918436 C75.7174859,186.918436 75.9706757,186.876238 76.2660638,186.855139 C76.2660638,185.293802 76.2660638,183.774663 76.2660638,182.150029 C75.8018825,182.10783 75.3588004,182.044533 74.9157182,182.002335 C71.9618374,181.643649 68.9868575,181.348261 66.0329767,180.926278 C64.0285576,180.63089 62.8681044,179.449338 62.7415095,177.803604 C62.6149146,176.242267 63.7120703,174.301145 65.1468124,173.647072 C67.2567273,172.69761 69.4510388,172.170131 71.7930442,172.296726 C72.0673332,172.317825 72.3627213,172.254528 72.6370102,172.317825 C73.2910838,172.507718 74.2405455,172.592114 74.4937353,173.056296 C74.7258259,173.499378 74.177248,174.322245 73.5653727,174.702029 C73.2277864,174.913021 72.7847042,174.976318 72.3838204,175.081814 C70.4215996,175.588194 68.4593788,176.094573 66.5182571,176.622052 C66.3072656,176.685349 66.1384724,176.938539 65.9485801,177.107332 C66.1806707,177.233927 66.4127614,177.40272 66.6659511,177.466018 C70.6958885,178.288885 74.7891233,178.288885 78.8823582,178.246686 C81.5830492,178.204488 84.2837402,178.499876 87.0055304,178.499876 C92.0904252,178.499876 97.1542209,178.457678 102.239116,178.331083 C104.581121,178.267785 106.902028,177.888001 109.244033,177.719208 C110.087999,177.65591 110.55218,177.233927 110.953064,176.579853 C111.206254,176.157871 111.522741,175.799185 111.965823,175.166211 C111.079659,174.997417 110.32009,174.702029 109.56052,174.702029 C105.382889,174.68093 101.205257,174.702029 97.027626,174.744228 C94.1159435,174.786426 91.204261,174.955219 88.2925785,174.93412 C86.4147542,174.913021 84.5158309,174.638732 82.6380066,174.448839 C81.6463466,174.343344 80.5913892,174.343344 79.705225,173.963559 C78.9456556,173.647072 78.3970778,172.866403 77.7641033,172.296726 C77.7852025,172.191231 77.8274007,172.064636 77.8484999,171.95914 C79.3465394,171.748148 80.844579,171.431661 82.3637177,171.368364 C87.237621,171.199571 92.1115244,171.136273 96.9854277,171.009678 C99.6861187,170.946381 102.38681,170.735389 105.087501,170.777588 C107.429506,170.819786 109.771512,170.819786 112.05022,171.600454 C114.223432,172.360024 115.76367,173.984658 115.805868,176.284465 C115.826967,177.14953 115.151795,178.056794 114.666514,178.879661 C114.26563,179.533734 113.674854,180.061213 113.168475,180.63089 C112.345608,181.538153 111.206254,181.010675 110.235693,181.200567 C109.666016,181.306063 109.054141,181.179468 108.463365,181.221666 C106.754333,181.327162 105.045302,181.474856 103.336271,181.601451 C103.505065,182.846301 103.61056,183.985655 103.821552,185.10391 C103.86375,185.357099 104.243535,185.736884 104.517824,185.757983 C108.146877,186.179966 111.818129,186.285462 115.383885,186.981734 C121.397143,188.121088 126.967318,190.2943 131.398139,194.809518 C133.803442,197.257019 135.533572,200.042107 136.229844,203.43907 C136.398637,204.304135 136.82062,205.127002 137.031612,205.992067 C137.116008,206.329653 137.052711,206.751636 136.883918,207.047024 C136.799521,207.194718 136.293142,207.258016 136.061051,207.173619 C134.09883,206.456248 132.242105,205.633381 131.672428,203.291376 C131.355941,201.962129 130.87066,200.69618 130.490876,199.366934 C129.752405,196.72954 128.001176,195.083807 125.553675,193.965552 C122.325505,192.509711 118.99184,191.475852 115.489381,191.159365 C110.826469,190.758481 106.142458,190.610787 101.458447,190.399796 C99.6228213,190.315399 97.7871953,190.357598 95.9515694,190.441994 C94.9177111,190.484192 93.8838528,190.737382 92.8499946,190.779581 C89.5796265,190.927275 86.2881593,190.990572 83.0177913,191.159365 C81.6041483,191.222663 80.2116045,191.53915 78.7979616,191.623546 C77.5531118,191.707943 76.2871629,191.602447 75.0423131,191.602447 C73.459877,191.602447 71.8774408,191.665745 70.2739055,191.686844 C67.362223,191.707943 64.4505405,191.707943 61.538858,191.750141 C59.4500423,191.77124 57.3612266,191.918935 55.2724109,191.855637 C51.9176463,191.750141 48.5628816,191.433654 45.208117,191.349258 C43.224797,191.28596 41.2203779,191.53915 39.2159588,191.560249 C34.5108487,191.581348 29.8268377,191.623546 25.1428267,190.927275 C22.9063169,190.589688 20.5854106,190.948374 18.4543966,191.855637 C17.9691161,192.066629 17.5682323,192.509711 17.1462494,192.868396 C15.1840285,194.493031 13.2851052,196.180963 11.8081648,198.269778 C10.6266124,199.95771 9.46615926,201.666741 8.30570609,203.396871 C7.71492993,204.283036 6.82876568,204.515126 5.77380825,204.008747 C4.69775168,203.502367 4.21247126,202.595104 4.71885082,201.645642 C5.33072613,200.46409 6.13249378,199.409132 6.82876568,198.269778 C7.22964951,197.594606 7.58833503,196.898334 7.96811971,196.202062 C8.70658991,194.893914 9.27626692,193.438073 10.2679269,192.340917 C11.6604707,190.758481 13.2007086,189.176045 14.9941362,188.121088 C16.38668,187.298221 18.2434051,187.277122 19.8891387,186.918436 C20.1423285,186.728544 20.4799148,186.707445 20.7331046,186.686346 Z M43.1193013,87.4992481 C43.2036979,87.625843 43.2669953,87.7524378 43.3513919,87.8579336 C44.9127289,90.0944433 46.7483549,92.1832591 47.9721055,94.588562 C49.9554254,98.5130036 51.5800599,102.648437 53.2890909,106.699473 C54.3229492,109.146975 55.1036177,111.678872 56.1796743,114.084175 C57.8043087,117.671031 59.5766372,121.194588 61.3700648,124.718146 C63.1634925,128.241704 65.0413167,131.723064 66.8558435,135.246621 C67.1723307,135.879596 67.6154128,136.153885 68.3116847,135.942893 C69.8097243,135.478712 71.3921604,135.162225 72.8058034,134.487052 C76.9834348,132.54593 81.0555705,130.436015 85.2121028,128.473795 C87.1743236,127.545432 89.1998418,126.806962 91.351955,125.920798 C90.8033771,124.697047 90.2758984,123.515495 89.7695189,122.333942 C89.8539155,122.270645 89.9594112,122.228447 90.0438078,122.165149 C90.2758984,122.460537 90.5079891,122.777025 90.8244763,123.177908 C90.7400797,122.671529 90.7611788,122.249546 90.5923857,121.933059 C89.5163291,119.612152 88.4613716,117.291246 87.3220176,115.012538 C85.5918874,111.615575 83.6929641,108.324108 82.0683296,104.884947 C80.1905054,100.960505 78.565871,96.9305675 76.7513442,92.9850267 C74.7258259,88.5542055 72.6370102,84.1444834 70.5270953,79.7558605 C70.3161038,79.3127784 69.7886251,78.9329937 69.3244439,78.7009031 C67.8475035,77.9624329 66.3072656,78.4899116 64.8092261,78.6798039 C62.2351299,79.0173903 59.8087278,79.8613563 57.424524,80.9374128 C55.7365922,81.6969822 53.9853628,82.3088575 52.2974309,83.0684269 C50.4829042,83.8701945 48.7105757,84.7774579 46.917148,85.642523 C45.6722983,86.3176957 44.4063494,86.9084719 43.1193013,87.4992481 Z M53.4789833,119.654351 C52.9093062,118.367302 52.2552326,117.080254 51.7277539,115.751008 C50.8626888,113.641093 50.0820203,111.48898 49.2380544,109.379065 C49.1114595,109.083677 48.7316748,108.682793 48.5206833,108.703892 C47.3180319,108.851586 46.0731821,108.978181 44.9338281,109.400164 C43.1825987,110.033139 41.515766,110.961501 39.7645367,111.657773 C38.4563894,112.164153 37.0638456,112.459541 35.7556984,112.923722 C30.8395968,114.71715 25.9445943,116.489478 21.8513595,119.949739 C19.1506685,122.228447 16.1334902,124.169568 13.5804932,126.59597 C10.9220005,129.127868 9.25516777,132.419335 7.77822737,135.795199 C7.58833503,136.196083 7.3562444,136.596967 7.25074866,137.040049 C6.93426143,138.2427 6.6177742,139.445352 6.38568356,140.669103 C5.98479974,142.694621 5.45732103,144.720139 5.33072613,146.766757 C5.18303209,149.425249 5.41512273,152.104841 5.41512273,154.763334 C5.43622188,159.004263 6.63887335,162.992002 8.39010268,166.768749 C9.55055586,169.279548 11.132992,171.663752 12.7576264,173.921361 C15.8381021,178.204488 19.509354,181.960136 23.623688,185.293802 C24.6786454,186.158867 25.6281071,187.192725 27.3371381,187.087229 C30.3121181,186.918436 33.287098,187.171626 36.2831771,187.150527 C37.823415,187.150527 39.3636528,186.939535 41.1781796,186.812941 C39.3636528,185.546992 37.8445141,184.34434 36.1987805,183.373779 C33.2659989,181.643649 30.8817951,179.259445 28.7296819,176.727548 C25.6070079,173.056296 23.0962093,168.98416 21.5770706,164.300149 C19.4671557,157.738314 18.2434051,151.197578 19.931337,144.319255 C20.7753029,140.880094 21.9146569,137.588627 24.2777616,134.972332 C26.2610816,132.79912 28.5397896,130.857998 30.8817951,129.08567 C32.6963219,127.735324 34.8695342,126.84916 36.8528542,125.688707 C40.2287179,123.726486 43.8155732,122.249546 47.5501225,121.131291 C49.4490459,120.603812 51.4112667,120.181829 53.4789833,119.654351 Z M99.876011,181.917938 C93.060986,181.917938 86.3514568,181.917938 79.7263241,181.917938 C79.7896216,183.331581 79.852919,184.470935 79.8951173,185.631388 C79.9162165,186.306561 80.1061088,186.686346 80.9078764,186.58085 C81.5619501,186.475354 82.2371228,186.496453 82.8911964,186.454255 C88.2714793,186.158867 93.6728614,185.863479 99.0531442,185.546992 C99.3274332,185.525892 99.8127136,185.209405 99.8338127,184.998414 C99.9182093,184.006754 99.876011,183.036193 99.876011,181.917938 Z M50.7782922,80.4521324 C54.576139,78.9329937 58.3528866,77.4349542 62.1296342,75.9369146 C61.960841,75.7259231 61.7287504,75.4938325 61.5599572,75.2406427 C61.3700648,74.9663538 61.1590733,74.6709657 61.0957759,74.3544785 C60.8636853,73.3417194 59.829827,72.7509432 58.9014644,73.1729262 C56.2429717,74.3333793 53.584479,75.5149317 50.9259863,76.696484 C50.5462016,76.8652772 50.1664169,77.118467 49.9132271,77.413855 C49.744434,77.6248465 49.6600374,78.0468295 49.744434,78.2789201 C50.039822,79.0595886 50.461805,79.7980588 50.7782922,80.4521324 Z M77.9750948,136.997851 C78.5447718,136.76576 79.0300522,136.575868 79.5153326,136.343777 C81.6885449,135.28882 83.819559,134.149466 86.0138704,133.136707 C87.5752074,132.419335 87.6174057,132.503732 87.1743236,130.625908 C83.7984598,132.166146 80.4647943,133.685284 77.0678314,135.246621 C77.4054178,135.942893 77.6586076,136.407075 77.9750948,136.997851 Z" id="Shape"></path>
            <path d="M9.90924138,205.992067 C10.4578192,204.346333 11.7659665,204.937109 12.8209239,204.852713 C16.808663,204.536225 20.7964021,204.156441 24.7841411,203.966548 C28.2865998,203.797755 31.7890585,203.797755 35.270418,203.818854 C39.806735,203.818854 44.3641511,203.92435 48.900468,203.966548 C56.0530794,204.050945 63.2056908,204.093143 70.3583021,204.219738 C75.6752876,204.325234 81.0133722,204.599523 86.3303576,204.683919 C89.4108333,204.726118 92.491309,204.536225 95.5717847,204.451829 C98.5045664,204.388531 101.458447,204.346333 104.391229,204.283036 C107.197416,204.219738 110.003602,204.198639 112.809789,204.114242 C116.966321,203.966548 121.122854,203.797755 125.258287,203.586764 C126.67193,203.523466 127.832383,203.903251 128.528655,205.190299 C129.224927,206.456248 128.486457,207.6378 127.030615,207.679999 C121.94572,207.764395 116.860826,207.827693 111.775931,207.933188 C107.535002,208.017585 103.294073,208.101982 99.0320451,208.186378 C95.8249745,208.249676 92.5968048,208.312973 89.3897342,208.355171 C87.2165219,208.37627 85.0644087,208.39737 82.8911964,208.355171 C80.422596,208.312973 77.9750948,208.14418 75.5275936,208.080882 C71.0756732,207.975387 66.6026537,207.954287 62.1507333,207.848792 C56.1585751,207.701098 50.1664169,207.490106 44.1742587,207.363511 C40.8827915,207.300214 37.5702252,207.426809 34.2576589,207.321313 C28.2444015,207.131421 22.2733425,207.595602 16.2811843,208.14418 C15.3106234,208.228576 14.3189634,208.123081 13.3484026,208.186378 C11.6182724,208.270775 10.6266124,207.279115 9.90924138,205.992067 Z" id="Path"></path>
            <path d="M95.7194788,150.944388 C95.8671728,152.168139 95.9726686,153.096501 96.0781643,153.919368 C98.2091783,154.953226 100.340192,155.965985 102.471206,156.999844 C103.061982,157.295232 103.547263,157.358529 104.180237,156.873249 C104.665518,156.514563 105.509484,156.409067 106.142458,156.472365 C107.471705,156.620059 108.758753,158.096999 108.990843,159.510642 C109.244033,161.05088 108.442265,162.949803 107.239614,163.603877 C105.889268,164.342347 103.969246,163.751571 103.294073,162.380126 C103.167478,162.126937 102.956487,161.894846 102.956487,161.641656 C102.935388,160.080319 101.753835,159.827129 100.63558,159.426246 C99.9182093,159.173056 99.2219374,158.81437 98.5256655,158.455685 C97.8715919,158.118098 97.1964192,157.780512 96.605643,157.358529 C96.0570651,156.957645 95.5928839,156.430167 95.1498018,156.008184 C94.1159435,156.620059 93.1031843,157.231934 92.0060286,157.886008 C93.4618699,158.983164 92.8921929,160.692195 93.2930767,162.126937 C93.4407707,162.654415 93.5884648,163.245192 93.904952,163.688274 C95.2341984,165.460602 94.4324307,168.224591 92.343615,168.878664 C90.8877737,169.342846 89.4741308,168.667673 88.6723631,167.127435 C87.807298,165.481701 88.1870827,163.920364 89.6218248,162.802109 C89.8328163,162.633316 90.0438078,162.274631 90.0227086,162.021441 C89.8961138,160.839889 89.6851223,159.658336 89.5163291,158.476784 C88.4613716,158.096999 87.3431168,157.696115 86.3725559,157.358529 C84.9800121,158.202495 83.5874683,159.109758 82.1527262,159.890427 C81.6252475,160.185815 80.9500747,160.270212 80.3381994,160.291311 C80.1483071,160.291311 79.9373156,159.784931 79.6630267,159.405147 C79.7474233,159.362948 79.5575309,159.447345 79.283242,159.57394 C79.7896216,158.265792 80.9289756,157.82271 81.8995364,157.231934 C82.8911964,156.641158 83.9461538,156.155878 84.958913,155.628399 C84.6424257,154.425747 84.3470377,153.244195 84.0305504,151.978246 C82.4270151,153.033204 80.7390833,152.780014 78.9878539,152.421328 C77.299922,152.083742 75.590891,151.978246 73.9029591,151.682858 C73.037894,151.535164 71.89854,151.64066 71.9618374,150.037125 C71.6031519,150.290314 71.3710613,150.416909 71.2233672,150.606802 C71.0123757,150.88109 70.8857809,151.218677 70.6536902,151.492966 C69.2611464,153.244195 68.2905856,153.750575 66.3072656,152.168139 C65.653192,151.64066 65.0413167,151.218677 64.8514244,150.269215 C64.5982346,149.045465 65.1890107,148.264796 65.9485801,147.631822 C67.0035375,146.766757 68.2272881,146.154881 69.7042285,146.576864 C71.328863,147.041045 71.5398545,148.328094 71.5398545,149.762836 C71.7086477,149.783935 71.89854,149.868331 71.9618374,149.805034 C73.459877,148.454688 75.2533046,149.066564 76.8990382,149.15096 C78.8190607,149.256456 80.7179841,149.594042 82.5958083,149.994926 C83.123287,150.121521 83.54527,150.817793 84.0094513,151.260875 C84.1360462,151.38747 84.2626411,151.514065 84.5158309,151.788354 C84.4103351,149.762836 86.0560687,148.1593 87.9549921,147.42083 C89.9172129,146.661261 91.4785499,147.484128 92.9976886,148.475788 C93.7783571,148.982167 94.2636375,148.876671 94.9177111,148.328094 C96.7322379,146.787856 98.7155579,145.521907 101.036464,144.783437 C102.407909,144.340354 103.399569,143.390893 103.842651,141.935051 C104.180237,140.858995 104.834311,140.141624 105.994764,139.888434 C107.893688,139.466451 109.834809,140.24712 110.678775,141.871754 C111.332849,143.116604 110.742073,145.142122 109.412826,146.302575 C107.956985,147.568524 107.007523,147.631822 105.319591,146.661261 C105.024203,146.492468 104.496725,146.450269 104.201337,146.597963 C101.289654,148.032705 98.4412689,149.530745 95.7194788,150.944388 Z M92.343615,152.505725 C92.3647141,151.661759 90.7400797,149.931629 89.8961138,149.931629 C89.0521478,149.91053 87.0688278,151.767255 87.0688278,152.590122 C87.0477287,153.729476 88.3136776,154.889929 89.6007257,154.932127 C90.4868899,154.953226 92.3225158,153.328592 92.343615,152.505725 Z" id="Shape"></path>
            <path d="M230.184353,59.9648591 C230.458642,61.083114 230.711832,62.0958731 230.965021,63.1086323 C231.281509,64.3323829 230.775129,65.2818446 229.825667,65.8937199 C228.665214,66.6321901 227.378166,67.2229663 226.070019,67.9192382 C225.964523,67.3495611 225.985622,66.906479 225.816829,66.5688926 C225.31045,65.5983318 225.183855,64.8176633 226.492002,64.3956803 C226.660795,64.353482 226.78739,63.9525982 226.78739,63.7205076 C226.78739,63.2352272 226.702993,62.7499467 226.660795,62.2646663 C226.492002,60.93542 226.28101,60.7666268 224.888467,60.8088251 C224.360988,59.7327685 225.331549,58.5723153 226.470903,58.0237375 C227.504761,57.5173579 228.601917,57.1586724 229.699072,56.7366894 C229.699072,56.5889954 229.720172,56.4624005 229.699072,56.3780039 C228.26433,53.0232392 226.829588,49.6473755 225.373747,46.2926108 C225.05726,45.5541406 225.28935,45.0899594 225.859027,44.5624807 C227.061679,43.4442258 228.158835,43.5286224 228.939503,45.0055628 C229.973361,46.9466844 231.028319,48.8878061 231.893384,50.9133244 C232.420863,52.0948767 232.589656,53.4241231 232.96944,54.6689728 C233.117134,55.1542533 233.370324,55.5973354 233.644613,56.0193183 C234.172092,56.7999868 233.750109,58.0026383 232.610755,58.6778111 C231.787888,59.1630915 230.965021,59.5639753 230.184353,59.9648591 Z" id="Path"></path>
            <path d="M191.678407,52.8755452 C191.762803,52.8122478 191.931596,52.706752 192.142588,52.559058 C192.015993,52.4746614 191.931596,52.4113639 191.910497,52.4113639 C188.450237,53.698412 184.968877,54.9854601 181.529716,56.3147064 C180.348164,56.7577885 178.997818,56.1670124 178.744629,54.9854601 C178.70243,54.7533694 178.807926,54.415783 178.976719,54.2469899 C179.778487,53.3819248 180.559155,52.5801571 181.846203,52.3058682 C183.238747,52.0315793 184.546894,51.3986048 185.89724,51.0188201 C187.331982,50.6179363 188.808922,50.3647465 190.243665,49.9849618 C190.665648,49.8794661 191.193126,49.7950695 191.003234,49.014401 C190.834441,48.2548317 191.10873,47.5585598 191.973795,47.2631717 C192.796662,46.9888827 193.32414,47.3897666 193.767222,47.9805427 C194.948775,49.4996814 195.834939,51.1243159 196.320219,53.0654375 C196.826599,55.0909558 198.092548,56.9265817 198.999811,58.8466043 C199.717182,60.3868421 199.253001,61.3996012 197.607267,61.8848817 C196.636707,62.1802697 195.81384,61.8848817 195.328559,60.9776183 C194.632287,59.6694711 193.640627,58.3613238 193.450735,56.96878 C193.303041,55.9560209 193.028752,55.1753524 192.564571,54.3524856 C192.269183,53.8672052 191.973795,53.3819248 191.678407,52.8755452 Z" id="Path"></path>
            <path d="M201.531709,6.85830209 C201.827097,6.6895089 201.974791,6.58401316 202.016989,6.56291401 C201.426213,5.63455147 200.814338,4.72728808 200.223562,3.79892554 C199.843777,3.18705023 199.590587,2.59627407 198.662225,2.42748088 C198.113647,2.32198514 197.649466,1.54131664 197.206384,1.01383792 C197.143086,0.92944133 197.29078,0.507458358 197.459573,0.423061763 C197.839358,0.212070277 198.261341,0.0854753856 198.683324,0.00107879119 C198.78882,-0.0200203574 198.957613,0.275367723 199.084208,0.275367723 C201.341817,0.31756602 202.24908,2.06879535 203.261839,3.6512315 C203.641624,4.24200766 203.937012,4.4319 204.696581,4.05211532 C206.342315,3.22924853 208.072445,3.96771873 209.106303,5.69784892 C209.781476,6.81610379 210.541045,7.87106122 211.216218,8.9893161 C211.385011,9.26360503 211.448309,9.62229056 211.532705,9.95987693 C212.039085,12.386279 213.537125,14.3906981 214.465487,16.6272079 C214.803074,17.4289755 215.035164,18.0830491 214.486586,18.9903125 C213.220637,21.1424257 212.629861,20.6571453 211.511606,18.8637176 C210.414451,17.1335875 209.464989,15.3190607 208.621023,13.4412365 C207.798156,11.6478088 206.511108,10.0864718 205.413952,8.41963909 C205.308457,8.2508459 205.139663,8.06095356 204.949771,7.99765611 C203.831516,7.61787144 202.734361,7.28028506 201.531709,6.85830209 Z" id="Path"></path>
            <path d="M243.666709,112.269649 C243.814403,113.514498 243.940998,114.485059 244.025394,115.45562 C244.067593,116.109694 244.341882,116.362883 245.017054,116.383983 C246.768284,116.405082 248.519513,116.489478 250.270742,116.573875 C251.55779,116.637172 252.908136,116.616073 253.731003,117.903121 C254.258481,118.725988 254.53277,119.569954 253.963093,120.371722 C252.823739,120.477217 251.789881,120.582713 250.756023,120.688209 C250.502833,120.709308 250.249643,120.751506 250.017553,120.688209 C247.253564,119.780945 244.38408,119.67545 241.514596,119.717648 C240.818324,119.738747 240.058754,119.485557 239.42578,119.147971 C238.68731,118.747087 238.729508,118.493897 239.130392,117.649931 C239.193689,117.502237 238.982698,117.227948 238.835004,116.827065 C239.552375,116.616073 240.269746,116.405082 241.029315,116.19409 C241.029315,115.244628 241.071514,114.168572 240.987117,113.113614 C240.966018,112.902623 240.41744,112.628334 240.100953,112.586136 C239.024896,112.48064 238.117633,111.299088 238.560715,110.328527 C238.729508,109.99094 239.235888,109.632255 239.636771,109.590057 C241.451298,109.442363 243.265825,109.315768 245.080352,109.336867 C245.839921,109.336867 246.59949,109.716652 247.337961,109.969841 C247.485655,110.01204 247.717745,110.307428 247.675547,110.412923 C247.443456,111.109195 247.253564,111.868765 246.831581,112.459541 C246.641689,112.712731 245.966516,112.73383 245.544533,112.712731 C244.974856,112.649433 244.38408,112.438442 243.666709,112.269649 Z" id="Path"></path>
            <path d="M213.790314,70.9364164 C214.992966,70.2612437 216.111221,69.5860709 217.292773,69.0163939 C217.588161,68.8686998 218.200036,68.9319973 218.389929,69.1429888 C218.811912,69.5860709 219.086201,70.1768471 219.33939,70.7465241 C219.402688,70.9153173 219.233895,71.3373002 219.065102,71.4005977 C217.714756,71.9491755 216.364411,72.4555551 214.992966,72.9408355 C214.803074,73.004133 214.423289,72.9408355 214.338892,72.7931415 C213.769215,71.8225807 212.946348,72.2445636 212.186779,72.3500594 C210.646541,72.5610509 209.92917,71.9069772 209.992468,70.3456402 C210.055765,68.5522126 209.69708,68.2990228 207.94585,68.4467169 C206.764298,68.5311135 205.667142,68.6999067 204.527788,69.0796913 C202.797658,69.6704675 200.329058,67.9825356 199.738281,65.9570173 C199.590587,65.4717369 199.379596,64.8598616 199.548389,64.4589778 C199.759381,63.9736974 200.329058,63.2985246 200.751041,63.3196238 C201.341817,63.3407229 201.932593,63.8471025 202.50227,64.205788 C203.641624,64.9442582 204.73878,65.7249267 205.899233,66.4422978 C206.046927,66.5266944 206.384513,66.2946037 206.637703,66.189108 C207.650462,65.8093233 208.621023,65.2607454 209.654881,65.1130514 C210.18236,65.0286548 210.836434,65.6405301 211.385011,66.0203148 C211.490507,66.1047114 211.279516,66.6110909 211.258417,66.7165867 C211.975788,67.3495611 212.819754,67.7926433 213.220637,68.4889152 C213.600422,69.1640879 214.296694,69.9447564 213.790314,70.9364164 Z" id="Path"></path>
            <path d="M230.184353,81.528189 C230.184353,81.3593958 230.184353,81.1695035 230.184353,80.810818 C231.133815,81.6125856 232.399763,81.950172 232.188772,83.4693107 C232.188772,83.5326081 232.209871,83.6170047 232.252069,83.659203 C233.623514,85.1572426 232.73735,86.7607779 232.463061,88.343214 C232.378664,88.7440978 232.125475,89.2715765 231.787888,89.4614689 C229.952262,90.5797238 227.947843,91.2759957 225.859027,90.3476331 C224.213294,89.6302621 222.841849,87.9001319 222.905147,85.4526307 C222.968444,82.7941379 224.656376,81.4859907 226.555299,80.3677358 C227.335968,79.9035546 228.559718,79.9879512 229.361486,80.8741154 C229.572478,81.106206 229.741271,81.380495 229.931163,81.6336848 C229.994461,81.6125856 230.099956,81.5703873 230.184353,81.528189 Z M230.226551,85.7480187 C230.24765,84.6297639 229.002801,83.1317243 228.03224,83.1106252 C226.935084,83.089526 225.28935,84.798557 225.247152,85.9801094 C225.204954,86.9717694 226.027821,87.7946361 227.04058,87.7946361 C228.939503,87.773537 230.184353,86.9717694 230.226551,85.7480187 Z" id="Shape"></path>
            <path d="M205.329556,108.851586 C206.679901,108.76719 207.777057,108.640595 208.853114,108.619496 C211.216218,108.577298 213.600422,108.577298 215.963527,108.577298 C217.250575,108.577298 218.326631,110.49732 217.503765,111.48898 C217.187277,111.868765 216.343311,111.97426 215.752535,111.910963 C215.098462,111.847666 214.88747,112.058657 214.676479,112.586136 C214.317793,113.430102 213.916909,114.231869 213.516025,115.054736 C213.009646,115.012538 212.482167,114.94924 211.849193,114.885943 C211.849193,115.962 211.849193,116.95366 211.849193,117.966419 C211.849193,118.071914 211.849193,118.17741 211.828094,118.261807 C211.511606,119.16907 210.709839,119.316764 209.92917,119.443359 C209.169601,119.569954 208.346734,119.759846 208.009148,118.810385 C207.861454,118.388402 207.988049,117.860923 207.988049,117.291246 C209.802575,117.249048 210.519946,115.877603 211.068524,114.653852 C211.068524,113.535597 211.068524,112.607235 211.068524,111.552277 C208.874213,111.636674 206.152423,112.565037 205.329556,108.851586 Z" id="Path"></path>
            <path d="M225.943424,108.408504 C229.171594,108.408504 231.830086,108.387405 234.488579,108.429603 C234.910562,108.429603 235.606834,108.724992 235.691231,109.02038 C235.881123,109.801048 235.627933,110.581717 234.910562,111.130295 C233.750109,111.99536 232.399763,112.121954 231.028319,111.99536 C228.665214,111.784368 226.28101,111.446782 223.917906,112.037558 C223.664716,112.100855 223.30603,112.121954 223.095039,112.016459 C222.483164,111.678872 221.639198,111.362385 221.428206,110.834906 C221.111719,110.096436 221.934586,109.442363 222.56756,109.231371 C223.81241,108.788289 225.162755,108.577298 225.943424,108.408504 Z" id="Path"></path>
            <path d="M216.744195,25.6998418 C218.748614,25.868635 219.887968,27.0712865 220.731934,28.8014166 C221.596999,30.6159434 222.588659,32.3882719 223.601418,34.1395012 C224.213294,35.2155578 223.538121,35.9118297 222.947345,36.6081016 C222.229974,37.4942659 221.238314,37.0722829 220.457645,36.8190931 C220.035662,36.6713991 219.782473,35.8907306 219.529283,35.3632519 C218.516524,33.1478413 217.524864,30.9113315 216.533204,28.6748217 C216.069022,27.6620626 216.153419,26.438312 216.744195,25.6998418 Z" id="Path"></path>
            <path d="M165.304471,65.5139352 C165.57876,62.9820374 167.097899,61.5683944 169.060119,60.4501396 C169.693094,60.0703549 170.220573,59.4584796 170.705853,58.8677034 C171.803009,57.5595562 173.891824,56.9054826 175.432062,57.538457 C175.664153,57.6439528 175.959541,58.0448366 175.917343,58.2347289 C175.769649,58.9521 175.685252,59.8804625 175.199972,60.2813464 C173.448742,61.7793859 171.549819,63.066434 169.714193,64.4589778 C169.29221,64.775465 168.912425,65.1552497 168.595938,65.5772327 C167.414386,67.1385697 166.908006,67.1596688 165.557661,65.7249267 C165.473264,65.619431 165.346669,65.5561335 165.304471,65.5139352 Z" id="Path"></path>
            <path d="M164.692596,120.751506 C163.447746,120.878101 162.160698,121.131291 160.852551,121.110192 C159.924188,121.110192 159.016925,120.730407 159.038024,119.485557 C159.038024,119.380062 158.995825,119.274566 158.953627,119.190169 C158.932528,119.147971 158.848131,119.126872 158.679338,119.042475 C158.63714,119.253467 158.594942,119.443359 158.468347,119.949739 C157.772075,119.380062 157.096902,118.979178 156.65382,118.409501 C155.40897,116.805965 154.227418,115.139133 153.088064,113.451201 C152.518387,112.628334 152.855973,111.678872 153.699939,111.151394 C153.826534,111.066997 153.826534,110.792708 153.953129,110.391824 C154.396211,110.75051 154.818194,111.024799 155.134681,111.383484 C156.295134,112.754929 157.476687,114.105274 158.531644,115.540017 C158.995825,116.172991 159.354511,117.016957 159.460007,117.797625 C159.544403,118.514997 159.607701,118.641591 160.303973,118.367302 C161.443327,117.94532 162.60378,117.713229 163.82753,118.367302 C164.713695,118.873682 164.861389,119.548855 164.692596,120.751506 Z" id="Path"></path>
            <path d="M179.335405,113.261309 C180.981138,113.915382 182.605773,114.421762 184.040515,115.244628 C184.610192,115.582215 184.842282,116.594974 185.095472,117.354543 C185.137671,117.481138 184.504696,117.966419 184.124911,118.029716 C183.365342,118.156311 182.795665,118.261807 182.816764,119.232368 C182.816764,119.443359 182.310385,119.823144 182.014997,119.823144 C180.369263,119.90754 178.723529,119.928639 177.077796,119.90754 C176.086136,119.886441 175.094476,119.717648 173.99732,119.591053 C174.187212,119.000277 174.292708,118.662691 174.419303,118.261807 C174.271609,118.219608 174.102816,118.17741 173.828527,118.114113 C175.832946,116.552776 178.259348,117.481138 180.664651,116.784866 C179.145512,116.067495 179.061116,114.885943 179.335405,113.261309 Z" id="Path"></path>
            <path d="M160.936947,88.1533217 C162.83587,89.7146587 163.257853,92.1199616 164.207315,94.2087773 C164.903587,95.727916 165.431066,97.3314513 166.042941,98.8927883 C166.169536,99.2092755 166.275032,99.5468619 166.31723,99.8633492 C166.380527,100.306431 166.675916,100.791712 165.937445,101.066001 C165.304471,101.298091 164.861389,101.382488 164.228414,100.981604 C162.160698,99.6312585 161.886409,97.3314513 161.084641,95.3270322 C160.662658,94.2931739 160.451667,93.174919 160.156279,92.0988625 C159.713196,90.6641204 159.818692,89.3137748 160.936947,88.1533217 Z" id="Path"></path>
            <path d="M161.401128,81.7602796 C161.169038,81.8024779 160.894749,81.8446762 160.62046,81.9290728 C159.502205,82.2455601 158.38395,81.5703873 158.362851,80.4099341 C158.341752,79.2705801 158.38395,78.0679286 158.721537,77.0129712 C159.227916,75.4094359 159.987485,73.9113964 160.662658,72.3711585 C160.87365,71.8858781 162.371689,71.4849943 162.899168,71.6959858 C163.34225,71.8858781 163.954125,73.3628185 163.785332,73.8902972 C163.152358,75.704824 162.477185,77.4982516 161.886409,79.3338776 C161.675417,80.0723478 161.591021,80.8741154 161.401128,81.7602796 Z" id="Path"></path>
            <path d="M143.53015,82.3932541 C143.403555,83.5959056 143.298059,84.5664664 143.213662,85.5581264 C143.087067,87.0350668 143.108167,88.4909081 143.720042,89.904551 C143.973232,90.4953272 143.994331,91.2126982 144.01543,91.8667718 C144.01543,92.1410608 143.804438,92.5419446 143.572348,92.6685395 C143.340257,92.7951344 142.897175,92.7107378 142.665084,92.5630437 C140.913855,91.4447889 140.238682,89.6724604 140.133187,87.7524378 C140.027691,85.7691179 140.175385,83.7646988 140.323079,81.7602796 C140.428575,80.3466367 141.145946,80.1356452 142.348597,80.9374128 C142.981572,81.3593958 143.846637,81.5492882 143.53015,82.3932541 Z" id="Path"></path>
            <path d="M215.414949,119.042475 C215.921328,118.91588 216.406609,118.725988 216.912988,118.704889 C221.82909,118.451699 226.745192,118.240708 231.640194,118.029716 C231.97778,118.008617 232.420863,117.987518 232.674052,118.156311 C233.011639,118.409501 233.328126,118.831484 233.391423,119.232368 C233.412523,119.42226 232.863945,119.865342 232.526358,119.90754 C231.387004,120.034135 230.226551,120.013036 229.087197,120.076334 C226.576398,120.202928 224.044501,120.435019 221.533702,120.477217 C219.909067,120.498316 218.284433,120.329523 216.659799,120.139631 C216.195617,120.076334 215.773634,119.633251 215.330552,119.380062 C215.351651,119.253467 215.39385,119.147971 215.414949,119.042475 Z" id="Path"></path>
            <path d="M180.643552,27.7675584 C181.002237,27.7675584 181.318725,27.851955 181.403121,27.7464592 C182.41588,26.290618 183.892821,26.3117171 184.800084,27.8941533 C185.770645,29.6031843 186.699008,31.3333145 187.479676,33.1267421 C187.669568,33.5909234 187.395279,34.5614842 186.994396,34.8990706 C186.551314,35.2999544 185.939438,35.806334 185.032175,35.3632519 C182.66907,34.2238978 182.310385,31.8607932 181.529716,29.7930766 C181.339824,29.3077962 181.529716,28.6959209 180.854543,28.4427311 C180.706849,28.4427311 180.727949,28.0629464 180.643552,27.7675584 Z" id="Path"></path>
            <path d="M171.127836,43.1699368 C174.777989,40.0472628 179.483099,40.4692458 183.702928,39.3087926 C183.787325,39.4353875 183.850623,39.5619824 183.935019,39.6674782 C183.365342,40.3637501 182.858963,41.1655177 182.18379,41.7140956 C181.508617,42.2415743 180.664651,42.5369624 179.841784,42.8323505 C178.111654,43.4864241 176.318226,43.9928036 174.651394,44.752373 C172.393785,45.7651321 171.950703,45.6596364 171.127836,43.1699368 Z" id="Path"></path>
            <path d="M158.616041,53.3397265 C157.455588,51.1243159 157.561083,50.1326559 159.417808,48.9089053 C161.021344,47.8539478 162.772573,47.031081 164.523802,46.2504125 C165.198975,45.9339253 166.021842,45.7651321 166.760312,46.461404 C167.709774,47.3264691 167.688675,48.5080214 166.528221,49.1198967 C164.882488,49.9849618 163.194556,50.7656303 161.527723,51.5884971 C161.253434,51.7361912 161.000245,51.9260835 160.725956,52.0948767 C160.029684,52.4957605 159.333412,52.9177435 158.616041,53.3397265 Z" id="Path"></path>
            <path d="M145.344676,66.7376858 C145.365775,65.7038276 144.226421,65.4295386 144.627305,64.4800769 C144.796098,64.058094 144.690603,63.488417 144.901594,63.1297314 C146.336336,60.7877259 148.087566,58.6778111 150.408472,57.1586724 C150.914852,56.8421851 151.864313,56.6311937 152.286296,56.8843834 C152.94037,57.3063664 152.898171,58.2558281 152.539486,58.9731991 C152.286296,59.4795787 151.864313,59.94376 151.44233,60.3235447 C149.648903,61.9059808 148.003169,63.5939127 146.884914,65.767125 C146.673923,66.189108 145.99875,66.336802 145.344676,66.7376858 Z" id="Path"></path>
            <path d="M266.538186,122.186248 C266.728078,122.228447 266.917971,122.249546 267.19226,122.312843 C267.17116,122.101852 267.150061,121.933059 267.086764,121.447778 C268.099523,122.333942 269.175579,122.945818 269.703058,123.853081 C270.631421,125.477716 271.348792,127.250044 271.89737,129.043472 C272.150559,129.908537 271.87627,130.942395 271.707477,131.891857 C271.64418,132.250542 271.158899,132.841318 270.969007,132.79912 C270.378231,132.693624 269.745256,132.419335 269.281075,132.039551 C269.006786,131.80746 268.880191,131.216684 268.901291,130.794701 C268.92239,128.980174 268.247217,127.418837 267.42435,125.836401 C266.854673,124.781444 266.580384,123.557693 266.1795,122.418339 C266.284996,122.333942 266.411591,122.249546 266.538186,122.186248 Z" id="Path"></path>
            <path d="M180.474759,14.3063015 C181.614113,13.6100296 182.647971,12.9770552 183.66073,12.3440807 C183.027756,10.8460412 181.846203,9.39019992 183.006657,7.21698761 C183.766226,7.97655696 184.3992,8.48293653 184.842282,9.11591099 C185.285365,9.7699846 185.559654,10.5506531 185.770645,11.0148344 C186.804503,11.1203301 187.648469,11.099231 188.429138,11.3313216 C189.294203,11.5845114 189.399699,12.1541884 188.724526,12.7871628 C188.197047,13.2935424 187.564073,13.7155254 186.931098,14.0531118 C185.812843,14.6227888 184.65239,15.1502675 183.470838,15.5722505 C182.014997,16.0997292 181.67741,15.930936 180.474759,14.3063015 Z" id="Path"></path>
            <path d="M182.036096,136.301579 C180.45366,136.596967 178.997818,136.786859 177.584175,137.145545 C175.389864,137.694123 173.575337,136.702463 172.963462,134.550349 C172.879065,134.254961 172.668074,134.001772 172.435983,133.600888 C173.701932,133.495392 174.883484,133.326599 176.086136,133.3055 C177.626374,133.263301 179.166612,133.284401 180.68575,133.389896 C182.036096,133.495392 182.605773,134.444854 182.247087,135.753001 C182.162691,135.985092 182.057195,136.238281 182.036096,136.301579 Z" id="Path"></path>
            <path d="M166.57042,136.343777 C164.312811,136.343777 162.013004,136.385975 159.692097,136.322678 C159.038024,136.301579 158.299554,136.196083 157.793174,135.837398 C157.265695,135.478712 156.674919,134.761341 156.696018,134.254961 C156.738217,133.79078 157.539984,133.010112 158.046364,132.989012 C160.282874,132.862418 162.540482,132.820219 164.776992,133.010112 C166.31723,133.136707 166.929105,134.381556 166.57042,136.343777 Z" id="Path"></path>
            <path d="M200.793239,133.727483 C201.51061,135.563109 200.223562,136.892355 198.493432,136.913454 C196.868797,136.934553 195.223064,137.082247 193.598429,136.913454 C193.028752,136.850157 192.395778,136.132786 192.037092,135.563109 C191.826101,135.225522 192.121489,134.571449 192.205885,133.980672 C192.248084,133.980672 192.07929,133.959573 191.910497,133.938474 C191.910497,133.854078 191.910497,133.79078 191.910497,133.706384 C194.864378,133.727483 197.839358,133.727483 200.793239,133.727483 Z" id="Path"></path>
            <path d="M76.3293612,158.265792 C77.5531118,158.286892 79.430936,159.426246 79.3254403,161.599458 C79.2621429,162.759911 77.7641033,164.405645 76.6247493,164.426744 C75.443197,164.447843 73.1222906,162.675515 73.1644889,161.768251 C73.2488855,160.017022 74.8313216,158.265792 76.3293612,158.265792 Z" id="Path"></path>
            <path d="M150.134183,105.602318 C150.21858,106.235292 150.113084,106.593978 149.416812,106.804969 C148.699441,107.015961 148.045367,107.26915 147.602285,106.425184 C146.631724,104.568459 145.597866,102.732833 144.817198,100.791712 C144.564008,100.179836 144.964892,99.2514738 145.26028,98.5341028 C145.323577,98.3864087 146.230841,98.3864087 146.610625,98.5763011 C146.99041,98.7872926 147.2436,99.2936721 147.47569,99.7367543 C148.256359,101.213695 149.037027,102.711734 149.775498,104.209774 C149.944291,104.652856 150.007588,105.138136 150.134183,105.602318 Z" id="Path"></path>
            <path d="M207.734859,101.720074 C209.44389,101.82557 211.152921,101.909967 212.861952,102.057661 C213.832513,102.142057 214.212297,102.753933 214.106802,103.724493 C213.980207,104.80055 213.516025,105.201434 212.608762,105.370227 C210.604343,105.771111 208.789816,105.011541 206.975289,104.505162 C206.426712,104.357468 205.941431,103.576799 205.688241,102.964924 C205.498349,102.521842 206.975289,101.57238 207.734859,101.720074 Z" id="Path"></path>
            <path d="M141.631226,77.0340704 C141.356937,74.8608581 141.420235,72.7720423 142.348597,70.7676232 C142.707283,70.0080539 143.108167,69.2062862 144.036529,69.2695837 C145.070387,69.3539803 145.513469,70.2612437 145.49237,71.168507 C145.450172,72.3711585 145.196982,73.5527108 144.985991,74.7553623 C144.922693,75.1773453 144.690603,75.5993283 144.627305,76.0213112 C144.437413,77.2239627 143.340257,77.7514414 142.2853,77.1395661 C142.095407,77.0551695 141.842218,77.0551695 141.631226,77.0340704 Z" id="Path"></path>
            <path d="M200.054769,7.00599613 C199.253001,7.66006974 198.53563,8.39853994 197.670565,8.9049195 C196.467913,9.60119141 195.117568,10.0864718 193.872718,10.7194463 C192.733364,11.3102224 191.699506,10.9515369 190.707846,10.4451574 C190.560152,10.3818599 190.581251,9.58009226 190.771143,9.36910077 C191.214225,8.9049195 191.805002,8.58843227 192.374679,8.27194505 C193.514033,7.66006974 194.674486,7.09039272 195.834939,6.49961656 C197.248582,5.82444381 198.598927,5.50795658 200.054769,7.00599613 Z" id="Path"></path>
            <path d="M222.905147,60.7455276 C222.862948,62.0958731 222.145577,62.8554425 220.900727,63.3196238 C219.508184,63.8471025 218.178937,64.5855727 216.744195,65.0075557 C215.414949,65.3873403 214.465487,65.1130514 214.254496,63.9525982 C214.212297,63.6994084 214.254496,63.3407229 214.423289,63.1930289 C214.760875,62.8554425 215.182858,62.5600544 215.604841,62.3701621 C217.208376,61.7160885 218.875209,61.1464115 220.457645,60.4501396 C221.386008,60.0281566 222.145577,60.2180489 222.905147,60.7455276 Z" id="Path"></path>
            <path d="M260.166243,118.367302 C261.600985,118.704889 263.035727,118.958079 264.44937,119.380062 C265.44103,119.67545 265.926311,121.300084 265.398832,122.165149 C265.293336,122.333942 265.103444,122.523835 264.95575,122.566033 C264.238379,122.65043 263.45771,122.903619 262.782537,122.713727 C261.558787,122.376141 260.335036,121.869761 259.23788,121.215688 C258.794798,120.941399 258.330617,119.991937 258.478311,119.591053 C258.710402,119.021376 259.174583,118.156311 260.166243,118.367302 Z" id="Path"></path>
            <path d="M176.676912,18.483933 C176.993399,18.3995364 177.246589,18.3995364 177.309886,18.2940406 C178.132753,17.0280917 179.293206,16.7749019 180.094974,17.8931568 C181.044436,19.2435023 182.394781,20.5727487 181.867303,22.4716721 C181.719608,22.9780516 181.086634,23.4211337 180.580254,23.6954227 C180.305966,23.8431167 179.757388,23.6532244 179.419801,23.463332 C178.681331,23.0413491 178.322646,22.3450772 178.069456,21.5222104 C177.752969,20.4883521 177.183292,19.5599896 176.676912,18.483933 Z" id="Path"></path>
            <path d="M173.25885,110.602816 C172.583677,110.159734 171.866306,109.801048 171.27553,109.273569 C170.347167,108.429603 169.503201,107.480142 168.617037,106.572878 C168.406046,106.340788 168.110658,106.087598 168.068459,105.813309 C168.005162,105.306929 167.878567,104.526261 168.131757,104.29417 C168.764731,103.745592 169.650895,103.682295 170.347167,104.31527 C171.549819,105.433524 172.710272,106.615077 173.849626,107.817728 C174.145014,108.134215 174.313807,108.598397 174.461501,109.02038 C174.799088,110.033139 174.461501,110.455122 173.25885,110.602816 Z" id="Path"></path>
            <path d="M186.846702,116.95366 C189.378599,116.320685 191.741704,115.877603 194.168106,116.679371 C194.927676,116.93256 195.412956,118.451699 194.948775,119.126872 C194.82218,119.316764 194.484593,119.42226 194.252503,119.443359 C192.881058,119.506657 191.530713,119.569954 190.159268,119.569954 C188.914418,119.569954 187.901659,118.768186 187.521874,117.628832 C187.437478,117.417841 187.184288,117.270147 186.846702,116.95366 Z" id="Path"></path>
            <path d="M209.000808,134.930134 C209.44389,134.655845 209.781476,134.423755 210.224558,134.149466 C209.865873,134.149466 209.612683,134.149466 209.338394,134.149466 C209.148502,133.727483 211.131822,133.495392 213.072943,133.600888 C214.359991,133.685284 215.668139,133.621987 217.060682,133.621987 C216.934088,134.233862 216.87079,134.740242 216.701997,135.204423 C216.216716,136.639165 214.929668,136.829058 213.748116,136.807958 C212.503266,136.786859 211.152921,137.229941 210.034666,136.196083 C209.654881,135.858497 209.085204,135.710803 209.528286,135.056729 C209.380592,135.03563 209.253997,134.993432 209.000808,134.930134 Z" id="Path"></path>
            <path d="M222.31437,105.750012 C221.976784,105.623417 221.238314,105.560119 220.795232,105.180335 C220.373249,104.821649 219.930167,103.935485 220.09896,103.597898 C220.394348,103.007122 221.153917,102.353049 221.765793,102.31085 C223.32713,102.163156 224.909566,102.31085 226.470903,102.374148 C226.618597,102.374148 226.78739,102.479644 226.892886,102.606238 C227.504761,103.218114 227.061679,103.851088 226.850687,104.420765 C226.702993,104.821649 226.302109,105.328029 225.943424,105.391326 C224.888467,105.602318 223.749113,105.623417 222.31437,105.750012 Z" id="Path"></path>
            <path d="M198.641126,117.92422 C198.957613,117.776526 199.189704,117.69213 199.590587,117.502237 C199.168604,117.417841 198.915415,117.375642 198.704423,117.333444 C200.77214,116.552776 202.903154,116.257388 205.118564,116.848164 C206.236819,117.143552 206.701,118.451699 205.941431,119.316764 C205.835935,119.42226 205.70934,119.569954 205.582746,119.591053 C204.675482,119.780945 203.74712,119.970838 202.839856,120.118532 C201.384015,120.350622 199.801579,119.548855 199.126406,118.282906 C199.063109,118.156311 198.852117,118.071914 198.641126,117.92422 Z" id="Path"></path>
            <path d="M115.594877,161.958144 C115.805868,161.620557 116.01686,161.261872 116.24895,160.945384 C116.50214,160.628897 116.797528,160.291311 117.114015,160.038121 C117.704792,159.57394 118.401064,158.751073 119.097335,159.299651 C119.73031,159.784931 120.257789,160.734393 120.342185,161.536161 C120.489879,162.970903 119.645913,164.131356 118.590956,165.059718 C118.00018,165.566098 116.206752,164.848727 115.974661,163.793769 C115.848067,163.224092 115.826967,162.633316 115.76367,162.063639 C115.700372,162.021441 115.658174,162.000342 115.594877,161.958144 Z" id="Path"></path>
            <path d="M233.707911,103.154816 C233.602415,102.901627 233.518018,102.732833 233.391423,102.437445 C235.037157,102.353049 236.577395,102.226454 238.096534,102.184255 C238.370823,102.184255 238.792805,102.458544 238.9194,102.711734 C239.531276,104.104278 238.771706,105.349128 237.273667,105.560119 C236.556296,105.665615 235.817826,105.707813 235.079355,105.79221 C234.150993,105.897706 233.560217,105.412425 233.074936,104.716153 C232.526358,103.872187 232.674052,103.450204 233.707911,103.154816 Z" id="Path"></path>
            <path d="M106.817631,130.921296 C106.606639,132.039551 106.058062,132.714724 105.214096,132.925715 C104.327931,133.157806 103.399569,133.453194 102.64,132.334939 C101.964827,131.343279 102.196917,130.33052 102.196917,129.359959 C102.196917,128.980174 103.294073,128.452696 103.948147,128.326101 C104.391229,128.241704 105.045302,127.60873 105.488385,128.410497 C105.952566,129.233364 106.374549,130.098429 106.817631,130.921296 Z" id="Path"></path>
            <path d="M188.766724,37.8740505 C189.3575,38.4015293 189.927177,38.6969173 190.222565,39.1821978 C190.644548,39.8784697 191.003234,40.7013365 191.150928,41.5031041 C191.214225,41.8406905 190.792242,42.3892683 190.454656,42.6635573 C188.935517,43.8873079 187.732866,43.4864241 187.14209,41.6507981 C187.057693,41.3765092 186.952197,41.1233194 186.8889,40.8490305 C186.762305,40.3215518 186.403619,39.5197841 186.614611,39.2665943 C187.120991,38.6969173 187.922758,38.3804301 188.766724,37.8740505 Z" id="Path"></path>
            <path d="M145.977651,129.613149 C145.914353,129.655347 145.787758,129.781942 145.534569,129.992933 C145.513469,129.760843 145.471271,129.655347 145.513469,129.59205 C146.167543,128.410497 146.716121,127.123449 147.560087,126.068492 C148.382954,125.013534 149.079226,125.034633 150.134183,125.836401 C150.619463,126.216186 150.767157,126.701466 150.345175,127.292242 C149.859894,127.967415 149.522308,128.790282 148.952631,129.381058 C148.446251,129.908537 147.749979,130.309421 147.053707,130.56261 C146.863815,130.625908 146.399634,129.992933 145.977651,129.613149 Z" id="Path"></path>
            <path d="M202.523369,104.737252 C202.797658,106.150895 203.135244,107.606737 203.346236,109.083677 C203.409533,109.526759 203.367335,110.096436 202.671063,110.328527 C201.784899,110.623915 201.130825,110.159734 200.77214,109.611156 C199.864876,108.26081 199.168604,106.78387 200.371256,105.243632 C200.582247,104.969343 201.109726,104.927145 201.489511,104.842748 C201.742701,104.737252 201.99589,104.758352 202.523369,104.737252 Z" id="Path"></path>
            <path d="M151.927611,136.111686 C150.851554,136.048389 149.627803,136.048389 148.425152,135.879596 C147.560087,135.753001 146.884914,135.204423 146.863815,134.191664 C146.842716,132.841318 148.150863,132.145047 149.627803,132.693624 C149.923192,132.79912 150.21858,132.904616 150.513968,132.946814 C151.632223,133.094508 152.222999,133.959573 152.012007,135.056729 C151.969809,135.331018 151.969809,135.626406 151.927611,136.111686 Z" id="Path"></path>
            <path d="M227.188274,134.107267 C228.834007,134.001772 230.50084,133.917375 232.167673,133.811879 C232.674052,135.014531 232.399763,136.681363 231.429203,137.061148 C230.775129,137.314338 229.888965,137.25104 229.171594,137.061148 C228.51752,136.892355 227.800149,136.491471 227.378166,135.963992 C227.061679,135.626406 227.230472,134.887936 227.188274,134.107267 Z" id="Path"></path>
            <path d="M246.937077,105.855507 C246.304102,105.602318 245.37574,105.349128 244.573972,104.906046 C243.561213,104.357468 243.793304,104.019881 244.13089,102.922726 C244.405179,102.015462 244.953757,102.226454 245.37574,102.226454 C246.62059,102.184255 247.823241,102.416346 248.730504,103.386907 C249.701065,104.441864 249.363479,105.433524 247.949836,105.750012 C247.696646,105.813309 247.464556,105.79221 246.937077,105.855507 Z" id="Path"></path>
            <path d="M263.056826,133.959573 C263.542107,133.811879 263.816396,133.706384 264.132883,133.621987 C264.027387,133.410995 263.942991,133.242202 263.731999,132.841318 C265.462129,132.778021 267.044565,132.609228 268.605902,132.693624 C269.555364,132.735823 269.40767,133.79078 269.470968,134.423755 C269.534265,134.972332 269.238877,135.647505 268.437109,135.563109 C267.150061,135.436514 265.863013,135.331018 264.597064,135.056729 C264.090685,134.930134 263.647603,134.402655 263.056826,133.959573 Z" id="Path"></path>
            <path d="M242.337462,75.282841 C241.556794,77.4982516 239.826664,78.405515 238.370823,79.5870673 C237.653451,80.1778435 237.020477,80.958512 235.94442,80.7475205 C235.649032,80.6842231 235.353644,80.5154299 235.058256,80.4099341 C235.20595,80.0723478 235.248149,79.6503648 235.480239,79.4393733 C236.93608,78.2156227 238.391922,76.9918721 239.953259,75.9158155 C240.544035,75.5149317 241.430199,75.5149317 242.337462,75.282841 Z" id="Path"></path>
            <path d="M221.639198,49.3308882 C221.639198,49.3941857 221.618099,49.4785823 221.618099,49.5418797 C221.533702,50.153755 219.233895,51.6939929 218.284433,51.4408031 C217.588161,51.2720099 217.018484,50.4702423 216.469906,49.8794661 C216.38551,49.7950695 216.680898,49.1409959 216.934088,48.9933019 C217.820252,48.5080214 218.727515,48.0649393 219.698076,47.7484521 C220.942926,47.3897666 221.681396,48.0016419 221.639198,49.3308882 Z" id="Path"></path>
            <path d="M204.000309,53.4241231 C204.401193,53.7617094 204.949771,54.0148992 204.949771,54.2469899 C204.928672,54.9432618 205.519448,55.8083269 204.633284,56.3358056 C203.852615,56.7999868 203.050848,57.2219698 202.206882,57.5595562 C201.637205,57.7916468 200.582247,57.0109783 200.223562,56.1459132 C199.928174,55.4707405 200.329058,55.112055 200.898735,54.837766 C201.911494,54.3735848 202.903154,53.9094035 204.000309,53.4241231 Z" id="Path"></path>
            <path d="M218.389929,84.9673502 C216.912988,84.9040528 215.583742,84.8829536 214.296694,84.7352596 C213.853612,84.6719622 213.473827,84.2499792 213.072943,83.9756902 C213.473827,83.659203 213.874711,83.0684269 214.296694,83.0473277 C216.111221,82.9840303 217.946847,83.0473277 219.761373,83.1317243 C219.972365,83.1317243 220.35215,83.5748064 220.35215,83.8068971 C220.33105,84.1233843 220.09896,84.5664664 219.824671,84.6930613 C219.36049,84.8829536 218.769713,84.9040528 218.389929,84.9673502 Z" id="Path"></path>
            <path d="M242.485156,134.930134 C242.88604,134.78244 243.244726,134.634746 243.582312,134.508151 C243.582312,134.444854 243.582312,134.381556 243.582312,134.318259 C243.118131,134.276061 242.632851,134.233862 242.168669,134.191664 C242.168669,134.086168 242.14757,133.980672 242.14757,133.854078 C244.151989,133.706384 246.135309,133.579789 248.139728,133.432095 C248.160827,133.495392 248.181927,133.558689 248.203026,133.621987 C248.013133,133.79078 247.802142,133.938474 247.61225,134.107267 C247.696646,134.128366 247.781043,134.149466 247.865439,134.170565 C247.781043,134.487052 247.781043,134.866837 247.61225,135.120026 C246.515094,136.76576 245.460136,137.208842 244.194188,136.449273 C243.561213,136.090587 243.054833,135.457613 242.485156,134.930134 Z" id="Path"></path>
            <path d="M150.682761,122.566033 C151.94871,121.65877 153.19356,120.772605 154.438409,119.886441 C155.809854,121.131291 156.105242,122.523835 155.092483,123.325602 C154.501707,123.810883 153.552245,124.12737 152.792676,124.085172 C152.096404,124.042973 151.421231,123.409999 150.746058,123.030214 C150.724959,122.88252 150.70386,122.734826 150.682761,122.566033 Z" id="Path"></path>
            <path d="M213.072943,50.4069448 C213.178439,50.6179363 213.473827,50.8922252 213.473827,51.1665142 C213.431629,52.137075 213.115142,53.0232392 212.207878,53.5296188 C211.806994,53.7617094 211.406111,53.9516018 210.984128,54.1414941 C210.034666,54.6267745 209.549386,54.4790805 209.043006,53.550718 C208.325635,52.2425707 208.431131,51.9471827 209.823674,51.3564065 C210.625442,51.0188201 211.469408,50.7867295 212.313374,50.5124406 C212.461068,50.4702423 212.65096,50.4702423 213.072943,50.4069448 Z" id="Path"></path>
            <path d="M187.015495,4.60069319 C188.492435,6.11983189 188.197047,7.25918591 187.37418,7.91325952 C186.129331,8.92601865 185.200968,8.63063057 183.808424,6.7317072 C183.956118,6.56291401 184.124911,6.37302167 184.357002,6.14093104 C184.124911,6.05653444 183.935019,5.97213785 183.66073,5.8666421 C184.800084,5.44465913 185.876141,5.04377531 187.015495,4.60069319 Z" id="Path"></path>
            <path d="M251.642187,110.877105 C251.494493,110.877105 251.452295,110.898204 251.431195,110.877105 C249.384578,110.391824 248.625009,108.851586 249.532272,106.910465 C249.933156,106.024301 251.009213,105.876607 251.536691,106.699473 C252.380657,108.049819 252.443955,109.421263 251.642187,110.877105 Z" id="Path"></path>
            <path d="M237.526857,87.8157353 C238.560715,88.4698089 239.67897,89.0605851 240.67063,89.8412536 C240.923819,90.0311459 240.755026,90.7696161 240.776125,91.2759957 C240.333043,91.2759957 239.847763,91.4025906 239.446879,91.2759957 C238.729508,91.043905 238.054335,90.6852195 237.379163,90.3476331 C237.125973,90.2210382 236.830585,90.0944433 236.725089,89.8623527 C236.492998,89.4403697 236.260908,88.9339902 236.282007,88.4909081 C236.303106,88.2799166 236.93608,88.1322225 237.526857,87.8157353 Z" id="Path"></path>
            <path d="M114.434424,147.716218 C115.341687,147.294235 116.291149,146.513567 117.177313,146.597963 C117.936882,146.661261 118.443262,147.779516 118.211171,148.813374 C118.042378,149.615142 117.156214,150.332513 116.101256,150.248116 C114.856407,150.14262 115.193993,148.707878 114.434424,148.1593 C114.413324,148.011606 114.413324,147.863912 114.434424,147.716218 Z" id="Path"></path>
            <path d="M59.3656457,159.974824 C59.3656457,159.32075 60.1463142,158.729974 60.969181,158.729974 C61.7287504,158.751073 62.6571129,160.080319 62.6149146,161.114178 C62.5727163,162.04254 61.8975436,162.675515 60.9902802,162.675515 C60.1885125,162.654415 59.3445466,161.240772 59.3656457,159.974824 Z" id="Path"></path>
            <path d="M221.723594,70.1346488 C221.280512,69.2273854 220.774133,68.467816 220.58424,67.6027509 C220.478744,67.180768 222.377668,65.9570173 222.736353,66.1680088 C223.284931,66.5055952 224.0656,67.0119748 224.128897,67.5183543 C224.234393,68.9108981 223.010642,69.3750794 221.723594,70.1346488 Z" id="Path"></path>
            <path d="M259.132385,134.001772 C258.182923,134.592548 257.254561,135.246621 256.262901,135.731902 C255.229042,136.238281 253.963093,135.584208 254.174085,134.655845 C254.279581,134.212763 254.870357,133.896276 255.29234,133.495392 C255.229042,133.474293 255.060249,133.389896 254.828158,133.284401 C255.376736,133.200004 255.883116,133.115607 256.389495,133.05231 C256.76928,133.010112 257.212362,132.756922 257.360056,133.432095 C257.381155,133.53759 257.782039,133.558689 258.01413,133.579789 C258.372815,133.621987 258.731501,133.664185 259.090186,133.706384 C259.111286,133.811879 259.132385,133.896276 259.132385,134.001772 Z" id="Path"></path>
            <path d="M192.712265,3.03935619 C193.07095,2.00549791 194.590089,0.845044735 195.455154,0.950540479 C195.708344,0.992738776 196.088129,1.26702771 196.130327,1.49911834 C196.214724,2.04769621 196.341318,2.74396811 196.088129,3.18705023 C195.391857,4.41080085 194.273602,4.4319 193.281942,3.39804172 C193.155347,3.25034768 192.944356,3.16595108 192.712265,3.03935619 Z" id="Path"></path>
            <path d="M191.973795,4.3897017 C191.931596,5.25476679 191.214225,6.09873274 190.433557,5.84554296 C189.779483,5.63455147 189.188707,4.98047786 188.787823,4.36860255 C188.555733,4.00991703 190.222565,2.74396811 190.918837,2.84946385 C191.762803,2.9549596 192.07929,3.58793405 191.973795,4.3897017 Z" id="Path"></path>
            <path d="M234.340885,73.9324955 C234.319786,75.3672376 233.686812,76.3166993 233.053837,76.1057078 C232.674052,75.9791129 232.273169,75.4094359 232.188772,74.9663538 C232.041078,74.2489827 233.074936,72.8986372 233.518018,73.1096287 C233.918902,73.2995211 234.21429,73.7848015 234.340885,73.9324955 Z" id="Path"></path>
            <path d="M221.069521,94.0399841 C221.069521,93.3859105 221.470404,92.7740352 222.187776,92.8373327 C222.609758,92.879531 223.348229,93.6391003 223.284931,93.9133892 C223.179436,94.440868 222.630858,95.0949416 222.145577,95.2426356 C221.702495,95.3692305 220.964025,94.9894458 221.069521,94.0399841 Z" id="Path"></path>
            <path d="M60.8636853,117.43894 C62.4039231,115.329025 64.661532,114.337365 66.8980418,113.324606 C70.5692936,111.657773 74.3038429,110.117535 77.9961939,108.514 C78.7979616,108.155315 79.5153326,107.627836 80.2960011,107.26915 C80.5280918,107.163655 81.0344713,107.26915 81.2032645,107.459043 C81.7729415,108.134215 81.6041483,109.442363 80.9711739,110.054238 C78.8401599,112.185252 75.9706757,112.881524 73.3754804,114.126374 C70.2528064,115.645512 67.1723307,117.206849 64.091855,118.789285 C63.1845916,119.253467 61.9397418,118.979178 61.2223708,118.008617 C61.1168751,117.839824 61.0113793,117.649931 60.8636853,117.43894 Z" id="Path"></path>
            <path d="M83.6718649,124.211767 C82.258222,124.190667 81.7518424,123.346702 81.2032645,122.523835 C80.1694062,120.920299 79.283242,119.253467 79.2410437,117.312345 C79.2199446,116.848164 79.5786301,116.19409 79.9584148,115.9409 C80.5069926,115.582215 81.1610662,115.772107 81.5830492,116.383983 C82.1105279,117.206849 82.6591058,118.008617 83.1654853,118.831484 C83.6929641,119.696549 84.2204428,120.582713 84.684624,121.468877 C84.9378138,121.975257 85.380896,122.671529 85.2121028,123.009115 C84.9378138,123.536594 84.1993436,123.810883 83.6718649,124.211767 Z" id="Path"></path>
            <path d="M76.9412365,126.743664 C76.308262,126.36388 75.6330893,126.195087 75.3798995,125.773104 C74.3038429,124.000775 73.3332821,122.14405 72.4260187,120.287325 C72.2994238,120.013036 72.5948119,119.253467 72.9112991,119.063574 C73.5442736,118.68379 74.3671404,118.599393 74.9157182,119.253467 C75.6752876,120.16073 76.3504603,121.15239 77.0256331,122.122951 C77.4265169,122.692628 77.8063016,123.283404 78.143888,123.895279 C78.4181769,124.422758 78.9034573,125.182327 78.713565,125.498815 C78.3970778,126.047393 77.6164093,126.300582 76.9412365,126.743664 Z" id="Path"></path>
            <path d="M66.0118775,123.262305 C66.1595716,123.262305 66.3494639,123.325602 66.4338605,123.262305 C67.6998094,122.249546 67.8475035,122.228447 68.8180643,123.473296 C69.9996166,125.013534 71.0967723,126.59597 72.2150272,128.157307 C72.7214068,128.853579 72.7847042,129.507653 72.0251349,130.056231 C71.328863,130.56261 70.3794013,130.457115 69.8730217,129.803041 C69.4299396,129.233364 69.0712541,128.57929 68.6703703,127.967415 C67.6998094,126.490475 66.7503477,125.013534 65.7797869,123.536594 C65.8641835,123.431098 65.9485801,123.346702 66.0118775,123.262305 Z" id="Path"></path>
            <path d="M15.0363345,166.325667 C14.5510541,166.51556 14.1712694,166.810948 13.9602779,166.726551 C13.264006,166.388965 12.2934452,166.051378 12.0613545,165.439503 C11.1118929,163.139696 10.1835303,160.79769 9.6982499,158.392387 C9.21296948,155.944886 9.19187033,153.391889 9.06527544,150.88109 C8.98087884,149.256456 9.06527544,147.610722 9.10747373,145.964989 C9.12857288,145.310915 9.19187033,144.635742 9.31846522,144.002768 C9.55055586,142.821216 10.141332,141.787357 10.0780346,140.437012 C10.0147371,139.00227 10.8798022,137.525329 11.3439835,136.090587 C11.4705784,135.689703 11.5971733,135.246621 11.8503631,134.951233 C12.6521307,134.022871 13.5171958,133.136707 14.5932524,132.862418 C14.0235754,134.29716 13.6015924,135.858497 12.8209239,137.187743 C11.7448673,139.023369 11.5760741,141.069986 11.0696946,143.032207 C10.7532073,144.319255 11.1118929,145.753997 10.985298,147.083244 C10.6477116,150.311413 11.8503631,153.307493 12.2512469,156.409067 C12.4411392,157.801611 12.9897171,159.151957 13.4327992,160.502302 C13.9391788,162.021441 14.5299549,163.51948 15.0152353,165.059718 C15.1418302,165.5028 15.0363345,166.00918 15.0363345,166.325667 Z" id="Path"></path>
        </g>
    </g>
</svg>