<?xml version="1.0" encoding="UTF-8"?>
<svg width="422px" height="414px" viewBox="0 0 422 414" version="1.1" xmlns="http://www.w3.org/2000/svg" xmlns:xlink="http://www.w3.org/1999/xlink">
    <title>Group</title>
    <g id="Page-1" stroke="none" stroke-width="1" fill="none" fill-rule="evenodd">
        <g id="Group" transform="translate(0.598415, 0.500000)" fill="#000000" fill-rule="nonzero">
            <path d="M73.7512218,89.7357621 C77.6204903,91.4945205 79.4964993,96.5362946 78.6757453,101.030899 C77.8549914,105.486421 77.1514881,109.981025 75.8226484,114.319296 C74.6501428,118.188565 72.7741338,121.823332 71.0935424,125.536266 C69.9601204,128.037612 68.7094477,130.538957 67.3415245,132.923052 C65.3091815,136.479652 63.1986714,139.997169 61.0881613,143.514686 C58.2741479,148.165625 55.6164685,152.894731 52.6070374,157.389335 C49.3631053,162.274775 45.6110874,166.76938 42.4844058,171.693904 C37.4426317,179.666942 32.0491059,187.522729 29.9385958,196.941858 C29.1569254,200.420291 28.8442572,204.015975 28.1407539,207.494408 C27.1636659,212.262597 26.0302438,216.95262 24.9359052,221.681726 C24.2324019,224.691157 23.6070656,227.739671 22.7863116,230.710019 C21.5747225,235.126457 20.4413004,239.621062 18.8779596,243.920249 C16.4156979,250.681698 13.6016844,257.325896 11.0221721,264.048262 C9.61516538,267.722112 8.24724217,271.47413 7.11382009,275.226148 C6.37123321,277.649327 6.09764857,280.228839 5.62864633,282.847435 C8.24724217,282.534767 9.6542489,281.401344 10.5531699,279.212667 C12.7027635,273.858225 15.0477747,268.542866 17.3537023,263.266591 C17.7445375,262.406754 18.3698739,261.625083 18.9952102,260.608912 C18.1744563,260.13991 17.1973683,259.749074 16.4156979,259.162822 C15.9857791,258.850153 15.6340275,258.14665 15.5949439,257.599481 C15.5949439,257.36498 16.4156979,256.856894 16.8847001,256.81781 C19.581463,256.505142 21.613806,258.107567 23.489815,259.631824 C24.1542348,260.178993 24.5841536,261.625083 23.2943974,262.484921 C23.0989798,262.641255 22.8253952,262.797589 22.7472281,262.993007 C20.480384,267.878447 18.2526233,272.763887 15.9076121,277.922911 C20.4022169,275.851485 23.567982,272.607552 26.5383296,269.207286 C29.4695936,265.846104 32.6744422,262.602171 35.1757875,258.889237 C37.5989657,255.332637 39.5140582,251.346118 41.2337331,247.359599 C43.7350784,241.653405 45.9237555,235.82996 48.1515162,230.006516 C49.0113536,227.817838 49.5976064,225.511911 50.3401933,223.28415 C51.0046131,221.329974 52.4116198,220.235636 54.5221299,220.313803 C58.5477325,220.470137 62.5733351,220.860972 66.5598541,221.05639 C70.4291226,221.251807 74.3374746,221.447225 78.2458266,221.408141 C84.6555239,221.369058 91.0652212,221.251807 97.4749185,220.978222 C100.718851,220.860972 103.923699,220.313803 107.167631,220.040218 C107.753884,220.001134 108.340137,220.470137 108.965473,220.665554 C108.535555,221.408141 108.183803,222.228895 107.675717,222.932398 C107.4803,223.205983 106.776796,223.205983 106.698629,223.401401 C106.073293,225.629161 104.080033,225.433744 102.477609,225.824579 C93.2538983,227.974173 83.912937,228.599509 74.4938087,228.130507 C71.8361293,228.013256 71.1717095,228.599509 69.9210368,231.022687 C68.9048653,232.93778 67.1070234,234.540204 66.2862695,236.533463 C64.9183463,239.855563 63.9021747,243.373079 63.0032538,246.851513 C60.5019085,256.544226 58.0787303,266.236939 55.6946355,275.968735 C53.9358771,283.081936 52.4116198,290.273304 50.6137779,297.386504 C49.3631053,302.428278 47.7997645,307.391885 46.3927578,312.394576 C43.031575,324.354133 39.5922253,336.274607 36.3873766,348.234164 C34.1986995,356.363536 35.9183744,363.906655 40.4129792,370.941689 C42.2499046,373.833869 46.783593,374.341955 50.3011098,372.075111 C54.8738816,369.104764 57.1798093,364.571075 58.8994842,359.646552 C60.462825,355.112863 61.8698317,350.501008 63.2377549,345.889153 C65.1919309,339.401288 66.9506893,332.87434 68.9439488,326.42556 C70.6245402,321.071117 72.3051316,315.677592 74.4156416,310.479483 C77.3859892,303.131782 79.4183322,295.510495 80.9425895,287.771958 C81.4506753,285.309696 82.2323457,282.847435 83.1703501,280.502424 C83.4439348,279.838004 85.1245261,279.01725 85.5153613,279.251751 C86.4142823,279.838004 88.4466254,279.369001 88.0557902,281.479512 C87.0396186,287.224789 86.0234471,292.970066 85.2026932,298.754427 C84.1083546,306.375714 83.2876007,314.036084 82.2714292,321.65737 C81.8024269,325.253054 81.0207565,328.770571 80.5517543,332.366255 C79.6528333,339.635789 78.8711629,346.905324 78.050409,354.174859 C77.3469057,360.310972 76.7606529,366.447084 75.9789825,372.544113 C74.9237274,380.751653 75.3927296,388.802858 79.1056641,396.306893 C80.004585,398.143819 81.6851764,399.746243 83.3266842,401.035999 C84.4601063,401.93492 86.0625306,401.895837 87.5086209,400.918749 C90.7134695,398.808239 92.9021466,395.916058 94.8172391,392.71121 C100.328015,383.331165 103.102945,373.013116 105.48704,362.538732 C106.972214,356.089951 108.26197,349.602087 109.668977,343.153306 C111.544986,334.515848 113.538245,325.87839 115.336087,317.201849 C116.821261,310.088648 118.071934,302.936364 119.36169,295.744996 C119.791608,293.321818 119.908859,290.820473 120.338778,288.358211 C120.534195,287.185705 121.198615,286.091367 121.511283,284.918861 C121.863035,283.550938 122.91829,283.863606 123.69996,284.098107 C124.36438,284.293525 125.302385,284.918861 125.380552,285.466031 C125.732303,287.771958 125.927721,290.116969 126.005888,292.422897 C126.240389,299.731515 126.318556,307.040134 126.592141,314.348752 C126.787559,318.921524 127.13931,323.494296 127.569229,328.067067 C127.999148,332.87434 128.546317,337.64253 129.093486,342.449803 C129.757906,348.351414 130.539576,354.292109 131.203996,360.193721 C131.672999,364.336574 131.829333,368.557594 132.611003,372.661364 C134.096177,380.204483 134.721513,387.94302 137.496443,395.173471 C139.059784,399.199074 141.13121,402.912008 145.430398,404.827101 C148.439829,406.195024 153.950605,403.810929 155.67028,400.332496 C157.937124,395.720641 158.484293,390.71795 158.836045,385.754343 C159.187797,380.751653 159.031463,375.748962 159.031463,370.746271 C159.031463,363.359486 158.953296,356.011784 158.914212,348.624999 C158.836045,336.821776 158.679711,324.979469 158.679711,313.176246 C158.679711,304.030703 158.875129,294.885159 158.992379,285.739615 C158.992379,285.270613 159.22688,284.528026 159.500465,284.449859 C160.321219,284.176274 161.22014,284.176274 162.197228,284.059024 C162.197228,283.941773 162.197228,283.590022 162.197228,283.160103 C162.470812,283.277353 162.66623,283.35552 162.744397,283.472771 C163.33065,284.176274 163.799652,285.192446 164.542239,285.622365 C166.300997,286.638536 166.340081,288.397295 166.652749,289.960635 C167.668921,295.588662 168.606925,301.216689 169.466762,306.844716 C170.053015,310.870319 170.287516,314.935005 170.873769,318.960607 C171.616356,323.806964 172.554361,328.65332 173.414198,333.499677 C175.094789,343.348724 176.697214,353.158687 178.377805,363.007734 C179.198559,367.893174 180.488315,372.661364 183.497746,376.72605 C184.396667,377.937639 185.412839,378.83656 187.210681,378.328474 C188.617687,377.937639 190.181028,378.093973 191.548951,377.624971 C194.910134,376.491549 195.222802,373.2867 195.769971,370.472687 C198.349484,357.926877 198.427651,345.185649 198.466734,332.444422 C198.466734,327.949817 198.583985,323.455212 198.818486,318.999691 C198.85757,317.788102 199.052987,316.224761 199.834658,315.560341 C200.616328,314.856838 202.179669,314.817754 203.352174,314.935005 C204.446513,315.052255 205.540851,315.755759 205.540851,317.240932 C205.423601,328.496986 205.658102,339.75304 205.150016,351.009094 C204.837348,357.457875 203.469425,363.867572 202.218752,370.238186 C201.671583,372.974032 200.459994,375.670795 199.170238,378.17214 C197.606897,381.220655 194.480215,382.314993 191.431701,383.252998 C187.406098,384.464587 183.341412,384.464587 179.941146,381.885075 C177.830636,380.243567 176.110961,377.898556 174.664871,375.592628 C171.733607,370.863522 170.795602,365.50908 170.170266,360.07647 C169.740347,356.246285 169.115011,352.455184 168.606925,348.624999 C168.372424,346.827157 168.255173,345.029315 168.098839,343.19239 C167.903422,343.19239 167.708004,343.19239 167.512586,343.19239 C167.395336,345.498317 167.278085,347.765162 167.199918,350.071089 C166.926334,357.457875 166.379164,364.84466 166.457331,372.231445 C166.496415,379.461896 166.027413,386.614181 164.854907,393.727381 C163.955986,399.238157 162.040894,404.5926 157.624456,408.344618 C153.794271,411.627633 149.416917,412.91739 144.140641,410.963214 C137.848195,408.618202 134.330678,403.92818 131.790249,398.261069 C127.960064,389.740862 126.592141,380.634402 125.771387,371.410691 C125.302385,366.251667 124.208046,361.131725 123.739044,355.972701 C123.035541,348.234164 122.527455,340.456543 122.097536,332.718006 C121.863035,328.262485 122.019369,323.76788 121.941202,319.273275 C121.941202,319.038774 121.784868,318.804273 121.511283,318.022603 C121.198615,319.859528 120.925031,321.149284 120.729613,322.478124 C119.830692,328.965988 119.088105,335.453853 118.03285,341.902634 C117.016679,347.921496 115.14067,353.823107 114.554417,359.881053 C113.694579,368.40126 110.646065,376.374298 108.92639,384.660005 C108.26197,387.82577 106.112376,390.639783 104.978954,393.727381 C103.142029,398.847322 99.7808462,402.912008 96.2633294,406.82036 C93.9183182,409.438956 88.6029594,410.14246 85.2808602,409.165372 C76.2134836,406.468609 72.9304679,399.199074 70.4291226,391.186952 C68.2404455,384.191002 68.0059444,376.999635 69.0221159,369.808267 C70.155538,361.600728 71.6407117,353.432272 72.9695514,345.224733 C73.0086349,344.872981 72.9695514,344.521229 72.5787162,344.052227 C72.109714,345.537401 71.6407117,347.022575 71.1717095,348.507748 C70.1946215,351.439012 69.17845,354.370276 68.201362,357.262457 C67.6541927,358.903965 66.9116058,360.545473 66.5598541,362.265148 C65.3091815,367.697757 62.417001,372.036028 58.0005632,375.358127 C56.0463872,376.804217 54.0140442,378.602059 51.7862835,379.071061 C48.9331866,379.696397 45.806505,379.305562 42.8361574,378.992894 C38.5760537,378.562975 36.3092096,375.162709 34.2768665,372.075111 C31.1892685,367.385089 28.375255,362.421482 27.4372505,356.676204 C26.5383296,351.243595 26.8119142,345.96732 28.7660902,340.808295 C29.1960089,339.674873 29.1960089,338.385117 29.5477606,337.212611 C33.3388621,324.549551 37.2862976,311.88649 40.9601485,299.184346 C42.3671552,294.377073 43.1488256,289.413466 44.2822477,284.56711 C45.9237555,277.68841 47.5652634,270.809711 49.3631053,263.931011 C51.6299494,255.137219 54.0922112,246.421594 56.3590554,237.666886 C56.9843917,235.16554 57.2579763,232.586028 57.7660621,229.537513 C56.9453082,230.983604 56.2027213,232.077942 55.6164685,233.289531 C51.5908659,241.887906 47.838848,250.603531 43.4614938,259.045571 C40.1784781,265.377101 35.8011238,271.122379 30.251264,275.734234 C26.7728307,278.626415 23.1380633,281.440428 19.2297113,283.629105 C15.9076121,285.505114 12.1165107,286.873037 8.40357625,287.732875 C5.78498041,288.319128 2.77554936,287.928292 0.8995404,285.231529 C0.625955759,284.840694 0.352371119,284.293525 0.352371119,283.824523 C0.196037039,279.212667 -0.194798162,274.600812 0.117869999,270.02804 C0.313287599,267.25311 1.4857932,264.517264 2.4628812,261.859584 C4.84697593,255.37172 7.50465529,248.962023 9.77149946,242.395991 C11.3739238,237.82322 12.5855129,233.133197 13.797102,228.443175 C15.1259417,223.362317 16.3375308,218.242376 17.3927859,213.122435 C18.2917068,208.62783 18.9952102,204.094142 19.6205465,199.560453 C20.4022169,193.815176 21.1057203,188.069899 23.8806502,182.87179 C24.9749888,180.839447 26.4601625,179.002522 27.7108352,177.048346 C29.3132595,174.507917 31.0329344,171.967488 32.4008576,169.270725 C35.6447897,162.861028 40.2175616,157.428419 44.1649971,151.487724 C47.3307622,146.719534 50.3401933,141.795011 53.1151232,136.79232 C56.5153895,130.695291 59.8374887,124.481011 62.8860032,118.188565 C64.8792628,114.045712 66.3644365,109.668357 68.1622784,105.212836 C65.8563508,105.056502 63.8630912,105.095585 61.9479987,104.70475 C56.5153895,103.610412 52.4897869,100.210145 48.3860173,96.6926286 C45.7283379,94.4257845 44.829417,91.9244392 44.907584,88.7586741 C44.985751,85.0848232 45.1811686,81.4500558 45.2593357,77.7762049 C45.2984192,74.4931892 45.1811686,71.2101736 45.2593357,67.9662414 C45.2984192,65.6603137 45.6110874,63.354386 45.7283379,61.0484583 C45.8455885,58.1953614 45.5329203,55.2250139 46.0019226,52.4500839 C46.4709248,49.675154 45.962839,46.9002241 46.4709248,44.1252942 C47.0180941,41.1940302 47.1744282,38.2236826 47.4480128,35.2533351 C48.1124326,28.5700532 48.737769,21.8867712 49.4021888,15.2034893 C49.7539405,11.8813901 50.1056922,8.52020737 50.5356109,5.19810817 C50.6137779,4.65093889 51.0436966,4.18193665 51.3172813,3.71293441 C54.7957146,4.18193665 58.2350643,8.12937217 58.586816,12.1158912 C58.8604007,15.0471552 58.9776512,18.0175028 58.9776512,20.9878503 C58.9385677,28.1401344 58.8604007,35.2533351 58.7040666,42.4056193 C58.508649,50.7694926 58.0396467,59.1333659 57.9614797,67.4972392 C57.8833127,73.2425166 58.2350643,79.0268776 58.3913984,85.1239067 C61.0490778,84.3813198 63.394089,83.795067 65.7391002,83.1306472 C70.7808743,81.6454734 76.018066,81.7236405 81.1770906,81.4500558 C86.3361153,81.1764712 91.4951399,80.8247195 96.6541646,80.5902184 C107.558467,80.1212161 118.423685,79.4567963 129.327987,79.3004622 C139.646037,79.1441281 150.003169,79.4958798 160.321219,79.7303809 C167.708004,79.9257985 175.133873,80.3166337 182.520658,80.7074689 C184.865669,80.8247195 187.171597,81.2546382 189.477525,81.6845569 C190.728197,81.9190581 191.236283,81.7236405 191.392617,80.3557173 C192.174288,74.6886068 193.190459,69.06058 193.933046,63.3934696 C194.480215,59.3287835 194.362965,55.1468468 195.261886,51.1994113 C195.769971,48.9716506 195.027385,47.0565582 195.300969,44.9460481 C195.53547,42.7964545 195.496387,40.6077774 195.457303,38.4191002 C195.261886,29.8988929 195.066468,21.3786855 194.831967,12.8193946 C194.7538,9.88813058 196.317141,8.01212161 198.623068,6.33153025 C201.124414,8.63745794 203.039506,11.2951373 203.703926,14.4999859 C205.30635,22.1212724 206.517939,29.8207258 206.361605,37.6765133 C206.205271,45.8058855 206.244355,53.9352577 205.697186,62.0255463 C205.345434,67.0673204 204.172928,72.070011 203.234924,77.1117851 C202.922256,78.7923765 202.336003,80.3948008 201.945168,81.8799745 C200.928996,81.9972251 200.030075,82.1144757 199.092071,82.2317262 C199.443822,82.8961461 199.756491,83.4823989 200.069159,84.0686517 C199.873741,84.1859022 199.717407,84.2640693 199.521989,84.3813198 C202.492337,86.1400782 204.915515,88.4069224 205.267267,91.9635227 C205.423601,93.7222811 204.876432,95.5592066 204.485596,97.317965 C204.329262,98.0605519 203.74301,98.6858882 203.352174,99.350308 C202.41417,100.991816 200.616328,101.578069 198.544901,101.773486 C197.372396,101.890737 196.317141,103.102326 195.222802,103.844913 C194.206631,104.548416 193.30771,105.408254 192.252455,105.994506 C190.806364,106.81526 189.751109,106.385342 189.672942,104.70475 C189.594775,102.633324 189.907443,100.561897 189.98561,98.4904706 C190.024694,97.5915496 189.829276,96.6926286 189.751109,95.7937077 C189.672942,94.2303669 189.555692,92.7061096 189.594775,91.1427688 C189.633859,89.8139291 189.282107,89.1104258 187.836017,89.0322587 C181.504487,88.6414235 175.172956,88.0942542 168.802343,87.7815861 C163.799652,87.547085 158.796961,87.547085 153.794271,87.4689179 C146.720154,87.3516674 139.606953,87.2344168 132.532836,87.1562498 C127.217477,87.0780827 121.863035,86.8435816 116.58676,87.1171662 C109.551726,87.5080014 102.516693,88.524173 95.481659,88.9150082 C90.2444673,89.2276763 84.9681921,88.9931752 79.7310004,89.0713422 C78.0113255,89.3840104 76.1353165,89.579428 73.7512218,89.7357621 Z M56.9843917,94.0740328 C56.9453082,94.386701 56.9453082,94.7384526 56.9062247,95.0511208 C57.9223962,95.4810395 58.9385677,96.1454594 59.9938227,96.2627099 C63.2768384,96.6535451 66.5989376,96.8880462 69.9210368,97.1225474 C70.1946215,97.1616309 70.6636237,97.0052968 70.7417908,96.8098792 C71.5625447,94.6993691 73.086802,92.7451931 72.3051316,90.2047643 C67.1461069,91.533604 62.0652493,92.7842766 56.9843917,94.0740328 Z" id="Shape"></path>
            <path d="M234.345406,108.417685 C231.765893,107.323346 229.342715,106.619843 227.271289,105.330087 C222.07318,102.047071 219.337334,97.0834638 218.203912,91.1427688 C216.523321,82.5053109 216.835989,73.8678529 218.086661,65.1913115 C218.868332,59.5632846 219.298251,53.8961742 220.079921,48.2681473 C221.096092,41.0376961 222.385849,33.8854119 223.40202,26.6940442 C223.988273,22.7075252 224.379108,18.7210061 224.691776,14.7344871 C224.887194,12.5458099 225.121695,10.5525504 226.880453,8.91104258 C227.857541,8.01212161 228.521961,6.76144897 229.303632,5.66711041 C229.538133,5.70619393 229.73355,5.74527745 229.968052,5.74527745 C230.593388,7.26953473 231.414142,8.71562498 231.84406,10.3180493 C232.782065,13.7183155 233.915487,17.1576653 234.189072,20.6751821 C234.579907,25.2870375 234.50174,30.0161434 234.149988,34.6670823 C233.563735,42.6401204 232.625731,50.574075 231.84406,58.5080295 C231.140557,65.5039796 230.28072,72.4608462 229.850801,79.4567963 C229.6163,83.3651483 230.046219,87.3125838 230.202553,91.2600194 C243.412782,87.1953333 256.583929,85.5147419 269.911409,84.7330715 C278.197115,84.2640693 286.521905,83.5605659 294.807611,83.4042318 C305.321078,83.2088142 315.873629,83.5996494 326.308928,85.2411573 C335.76714,86.726331 345.147185,88.4460059 354.214562,91.611771 C357.614828,92.8233602 360.897844,94.464868 364.493528,96.0672923 C364.180859,93.0969448 363.985442,90.2438478 363.555523,87.4689179 C362.30485,79.6131304 360.74151,71.7964264 359.647171,63.9015553 C358.943668,58.8988647 358.826417,53.8570907 358.435582,48.8153166 C358.240164,46.2358042 358.005663,43.6562919 357.849329,41.1158631 C357.692995,38.4581837 357.653912,35.8005044 357.536661,33.142825 C357.380327,29.3126401 357.458494,25.4433716 356.911325,21.6522701 C356.129654,16.4150784 354.878982,11.2169703 353.784643,6.01886209 C353.393808,4.10376961 352.963889,2.22776064 352.573054,0.351751681 C352.807555,0.23450112 353.042056,0.11725056 353.276557,0 C353.784643,0.390835201 354.449063,0.664419841 354.800815,1.1725056 C356.911325,4.14285313 358.943668,7.11320065 360.936927,10.1226317 C365.548783,17.0013312 368.128295,24.5053671 368.40188,32.9083239 C368.675464,40.7641114 369.339884,48.5808154 370.043387,56.3975195 C370.51239,61.5565441 371.254977,66.7155688 372.114814,71.7964264 C373.560904,80.2384667 375.280579,88.6414235 376.804836,97.0834638 C377.312922,100.053811 377.469256,103.063242 375.319663,105.603671 C374.967911,106.03359 374.498909,106.385342 374.029906,106.737093 C373.28732,107.323346 372.349315,107.714181 371.841229,108.417685 C369.613469,111.622533 366.213202,112.404204 362.734769,112.795039 C360.819677,113.02954 358.826417,112.716872 356.872241,112.599621 C356.481406,112.560538 356.129654,112.24787 356.246905,112.326037 C353.315641,112.521454 350.697045,112.677788 348.078449,112.834122 C348.078449,109.629274 353.042056,105.095585 355.660652,105.330087 C356.63774,104.196665 357.614828,103.102326 358.670083,101.890737 C352.924806,98.5295541 346.788693,96.6535451 340.261745,95.2074549 C342.841257,100.48373 343.740178,105.838172 344.678183,111.270782 C345.616187,116.507973 346.86686,121.862416 349.016454,126.708772 C351.517799,132.258632 355.738819,136.79232 360.116173,141.130591 C363.242855,144.218189 366.213202,147.501205 369.339884,150.627886 C371.997563,153.285566 374.85066,155.747827 377.50834,158.405507 C382.784615,163.642699 387.005635,169.54431 389.50698,176.657511 C391.617491,182.637289 394.040669,188.538901 395.994845,194.557763 C397.558186,199.325952 398.691608,204.289559 400.020447,209.135916 C401.114786,213.083351 402.170041,217.030787 403.420714,220.900055 C404.749553,224.886574 406.351978,228.794926 407.719901,232.742362 C409.478659,237.705969 411.120167,242.747743 412.918009,247.71135 C414.833101,253.065792 416.904528,258.381151 418.858704,263.735593 C419.523124,265.611602 420.070293,267.526695 420.461128,269.441787 C420.695629,270.536126 420.343878,271.435047 419.015038,272.060383 C417.608031,272.68572 416.435526,273.936392 415.106686,274.79623 C411.081084,277.414825 406.703729,278.548248 402.013707,277.453909 C398.183522,276.554988 394.353337,275.538816 390.71857,274.092726 C386.536633,272.412135 382.51103,270.301625 379.697017,265.611602 C379.462516,266.940442 379.149848,267.722112 379.228015,268.425616 C380.205103,276.007819 381.299441,283.550938 382.315613,291.133141 C383.0582,296.722084 383.800787,302.311028 384.543373,307.939055 C384.62154,308.408057 384.426123,308.877059 384.387039,308.99431 C384.816958,310.010481 385.325044,310.753068 385.481378,311.573822 C386.458466,316.459262 387.474637,321.305618 388.334475,326.230142 C388.608059,327.87165 388.412642,329.552241 388.647143,331.193749 C388.920728,333.226092 389.50698,335.180268 389.819649,337.212611 C390.249567,339.909374 390.874904,342.606137 390.757653,345.263816 C390.679486,347.41341 391.265739,349.406669 391.382989,351.517179 C391.734741,357.731459 389.975983,363.39857 387.318303,368.987513 C384.269789,375.39721 379.384349,379.540063 372.701067,381.416072 C368.362796,382.666745 364.493528,381.142488 361.249595,378.133057 C356.754991,373.95112 354.878982,368.440344 353.315641,362.695066 C351.791384,357.18429 349.798124,351.829848 348.117533,346.397238 C346.827777,342.176218 345.733438,337.916115 344.482765,333.695094 C343.701095,330.959248 342.880341,328.262485 342.098671,325.565722 C342.098671,328.379736 342.098671,331.232833 342.098671,334.046846 C342.098671,336.743609 342.176838,339.440372 342.176838,342.137135 C342.176838,347.882412 342.294088,353.62769 342.059587,359.372967 C341.825086,365.782664 341.942337,372.192362 340.574413,378.523892 C339.831826,381.963242 339.675492,385.558925 339.245574,389.115526 C338.463903,395.876975 336.978729,402.443006 333.070377,408.1492 C331.389786,410.611462 328.614856,411.744884 325.839926,412.487471 C320.290066,414.011728 315.56096,411.901218 310.753687,409.243539 C306.884419,407.093945 305.555579,403.302844 303.56232,400.410663 C300.865557,402.443006 298.364212,404.827101 295.432948,406.468609 C292.306266,408.227367 288.866916,409.673457 285.075815,409.048121 C279.096036,408.03195 273.350759,406.273191 268.660736,402.169421 C266.081224,399.902577 265.221387,396.541395 264.517883,393.336546 C262.915459,385.676176 261.391202,378.015806 260.023278,370.316353 C259.515193,367.541423 259.59336,364.649242 259.358859,361.796145 C259.280692,360.858141 259.085274,359.881053 258.733522,358.943048 C258.26452,361.170809 257.834601,363.359486 257.326516,365.587247 C257.209265,366.095332 256.779346,366.564335 256.544846,367.07242 C256.349428,367.502339 256.193093,367.971341 256.075843,368.40126 C255.997676,368.753012 256.075843,369.182931 255.919509,369.495599 C253.066412,375.905296 249.392561,381.650573 242.631112,384.581837 C241.145938,385.246257 239.38718,385.480758 237.745672,385.637093 C236.885835,385.71526 235.986914,385.16809 235.127076,384.894506 C235.087993,384.699088 235.087993,384.50367 235.048909,384.269169 C236.377749,383.409332 237.706588,382.588578 238.996345,381.650573 C239.856182,381.025237 240.83327,380.399901 241.458606,379.579147 C244.624372,375.358127 247.086633,370.863522 248.923559,365.821748 C251.854823,357.84871 252.910078,349.563003 253.926249,341.277297 C254.434335,337.095361 254.199834,332.87434 254.434335,328.65332 C254.786087,322.204539 255.020588,315.716675 255.645924,309.267894 C256.036759,305.320459 255.606841,301.529357 255.137838,297.660089 C254.864254,295.393245 255.645924,293.00915 256.114926,290.664139 C256.193093,290.23422 257.013847,289.921552 257.521933,289.530717 C257.795518,289.296216 258.069102,289.061714 258.381771,288.749046 C262.759125,289.218049 262.172872,292.930983 262.36829,296.057665 C262.837292,304.265204 263.14996,312.472743 263.658046,320.680282 C263.892547,324.705885 264.517883,328.731487 264.830551,332.796173 C265.182303,337.329862 265.26047,341.86355 265.612222,346.358155 C266.120308,352.767852 266.628393,359.216633 267.37098,365.62633 C268.0354,371.17619 269.051572,376.72605 269.911409,382.236826 C270.732163,387.591269 272.412754,392.71121 275.813021,396.893146 C278.548867,400.215245 282.535386,401.700419 286.951824,402.130338 C290.938343,402.521173 295.432948,400.058911 297.817042,395.837891 C299.810302,392.281291 299.653968,388.802858 299.497634,385.05084 C299.184966,377.546804 299.145882,370.003684 298.911381,362.499649 C298.755047,357.692376 298.520546,352.885103 298.286045,348.116913 C297.777959,338.854119 297.269873,329.552241 296.644537,320.289447 C296.214618,313.801583 295.745616,307.313718 295.042112,300.864937 C294.612194,296.878418 293.596022,292.970066 293.087936,289.022631 C292.931602,287.732875 293.556939,286.325868 293.79144,284.997028 C294.104108,283.394604 295.472031,282.964685 296.56637,283.433688 C297.817042,283.980857 299.263133,284.68436 299.263133,286.599453 C299.302216,288.90538 299.536717,291.211308 299.810302,293.517236 C300.435638,299.457931 301.256392,305.398626 301.803561,311.339321 C302.11623,314.739587 301.998979,318.178937 302.155313,321.579203 C302.272564,324.041465 302.624315,326.464643 302.858816,328.926905 C303.210568,333.069758 303.523236,337.212611 303.953155,341.316381 C304.617575,347.843329 305.399245,354.40936 306.024582,360.936308 C306.571751,367.07242 306.884419,373.208533 307.470672,379.344646 C307.822423,383.05758 308.604094,386.692348 308.955846,390.405282 C309.463931,395.916058 311.613525,400.801498 314.66204,405.335187 C316.381714,407.914699 319.273895,408.071033 321.931574,408.1492 C324.901922,408.266451 327.051515,406.82036 328.458522,404.123598 C331.272536,398.690988 333.265795,392.945711 333.578463,386.848682 C334.047465,377.703138 334.047465,368.518511 334.086549,359.372967 C334.086549,355.699116 333.461213,352.025265 333.383046,348.351414 C333.226712,342.215302 333.304879,336.079189 333.265795,329.98216 C333.226712,326.581894 333.226712,323.142544 333.148544,319.742278 C332.99221,310.518567 332.835876,301.255773 332.601375,292.032062 C332.523208,289.100798 331.976039,286.208617 331.936955,283.277353 C331.897872,281.284094 332.366874,279.290834 332.562292,277.258491 C332.601375,277.02399 332.288707,276.750406 331.819705,275.968735 C333.773881,275.734234 335.493556,275.343399 337.174147,275.421566 C337.721316,275.460649 338.502987,276.672239 338.659321,277.453909 C339.08924,279.642586 339.011073,281.948514 339.597325,284.098107 C342.137754,293.908071 344.834517,303.718034 347.453113,313.527998 C349.64179,321.696454 351.713217,329.903993 354.019144,338.072449 C356.754991,347.686995 359.686255,357.262457 362.539352,366.837919 C362.96927,368.244926 363.438273,369.651933 364.024525,371.019856 C364.180859,371.410691 364.688945,371.645192 365.001613,371.95786 C365.939618,372.817698 367.033956,373.599368 367.85471,374.537373 C370.082471,377.155969 371.95848,377.468637 374.420742,375.084542 C378.133676,371.488858 380.244186,366.95517 381.260358,361.991563 C382.237446,357.30154 382.432863,352.572435 381.533942,347.726078 C380.361437,341.472715 380.009685,335.023934 379.228015,328.692404 C378.563595,323.416129 377.781924,318.139853 377.000254,312.902662 C376.296751,308.056305 375.632331,303.209949 374.811577,298.402676 C374.029906,293.79082 372.974651,289.178965 372.153898,284.56711 C371.880313,283.003769 371.997563,281.362261 371.802146,279.759837 C370.864141,272.881137 369.926137,266.002438 368.792715,259.162822 C367.268458,249.978194 366.135035,240.7154 363.125604,231.843441 C362.070349,228.716759 361.015094,225.590078 359.881672,222.463396 C359.686255,221.916227 359.021835,221.290891 358.474666,221.212724 C354.52723,220.548304 350.540711,219.883884 346.593275,219.414882 C341.317,218.750462 336.001641,218.555044 330.76445,217.61704 C326.504346,216.874453 322.400576,215.389279 318.257723,214.138606 C316.147213,213.51327 314.11487,212.653433 312.082527,211.793595 C311.457191,211.520011 310.949105,210.933758 310.401936,210.503839 C310.441019,210.308421 310.519186,210.113004 310.55827,209.95667 C311.535358,209.800336 312.512446,209.526751 313.528617,209.526751 C319.078477,209.526751 324.628337,209.214083 330.10003,209.722169 C336.470644,210.308421 342.76309,211.754512 349.094621,212.575266 C351.556882,212.887934 354.136395,212.536182 356.63774,212.418932 C359.842589,212.301681 362.617519,213.552354 364.767112,215.62378 C366.056868,216.835369 366.604038,218.984963 367.229374,220.782805 C369.027216,225.863662 370.51239,231.061771 372.466566,236.064461 C373.678155,239.191143 375.436913,242.16149 377.117505,245.092754 C379.657933,249.548276 382.354696,253.886546 384.934209,258.342068 C388.139057,263.931011 393.337165,266.745024 399.199693,268.660117 C402.326375,269.676288 405.37489,271.161462 408.696989,270.418875 C406.703729,267.526695 404.749553,264.439097 402.639043,261.507833 C400.411283,258.498402 400.48945,255.176303 400.880285,251.502452 C405.648474,257.013228 407.133648,264.869016 414.5986,268.034781 C413.856013,265.963354 413.347928,263.774677 412.37084,261.781417 C407.211815,251.307034 404.358718,239.972813 400.098614,229.185762 C397.362768,222.189812 394.744172,215.115694 392.203743,208.041577 C390.366818,202.999803 388.764394,197.840779 386.966552,192.799004 C386.536633,191.509248 385.794046,190.336743 385.246877,189.08607 C383.331784,184.904133 381.182191,180.800364 379.540683,176.501177 C377.117505,170.169646 373.013735,165.206039 368.050128,160.789602 C365.001613,158.092839 361.835848,155.55241 358.904584,152.699313 C355.738819,149.650798 352.729388,146.406866 349.876291,143.12385 C346.905944,139.723584 344.052847,136.206067 341.356084,132.5713 C337.564982,127.451359 335.64989,121.549747 334.907303,115.257301 C334.2038,109.277522 333.53938,103.297744 332.835876,97.2788814 C332.445041,93.8395317 332.405958,93.7613646 328.966608,93.1751118 C316.420798,91.0255182 303.796821,90.4001819 291.094677,91.0255182 C285.505734,91.2991029 279.91679,91.3381864 274.36693,91.6508546 C268.81707,92.0026062 263.267211,92.588859 257.717351,93.0969448 C256.15401,93.2532789 254.590669,93.6050306 253.066412,93.4486965 C250.955902,93.2532789 249.783396,94.6212021 248.376389,95.6373736 C248.180972,95.7937077 248.102805,96.1845429 248.063721,96.4581275 C247.907387,98.6468047 247.907387,100.874565 247.594719,103.024159 C247.399301,104.274832 246.773965,105.447337 246.226796,106.619843 C242.787446,114.202046 239.426263,121.862416 235.83058,129.366451 C234.306322,132.532217 232.50848,135.737065 229.538133,137.886659 C228.795546,138.394745 227.779374,138.746496 226.880453,138.746496 C224.769943,138.746496 224.340025,138.082076 225.043528,136.088817 C227.075871,130.343539 229.303632,124.637345 231.257808,118.852985 C232.50848,115.179134 233.407401,111.544366 234.345406,108.417685 Z M236.104164,101.734403 C237.003085,99.7802267 237.823839,97.9823848 238.683676,96.1454594 C238.566426,95.9500418 238.449175,95.7546242 238.331925,95.5592066 C236.260498,96.2236264 234.228155,96.9271298 232.156729,97.5915496 C232.821148,100.444647 233.798236,101.421735 236.104164,101.734403 Z" id="Shape"></path>
            <path d="M152.270014,151.761308 C160.55572,159.695263 168.763259,167.511967 177.166216,175.563172 C178.534139,174.781502 180.09748,173.843497 181.738988,172.98366 C187.445182,170.091479 193.30771,167.551051 199.717407,166.495795 C201.945168,166.144044 201.74975,166.144044 201.163497,163.8772 C200.459994,161.141353 200.069159,158.32734 199.756491,155.513326 C199.482906,152.933814 199.561073,150.354302 199.326572,147.774789 C199.287488,147.22762 198.583985,146.524117 198.036816,146.328699 C196.08264,145.547029 194.011213,145.038943 192.096121,144.218189 C190.337362,143.514686 189.477525,141.990428 189.20394,140.153503 C188.148685,133.35297 193.268626,128.037612 200.147326,127.177774 C208.902034,126.083436 213.201221,137.261322 210.035456,142.615765 C208.589366,145.078026 206.088021,146.875868 203.703926,149.33813 C204.133845,152.152144 204.641931,155.747827 205.228183,159.304428 C205.501768,160.906852 205.931687,162.470193 206.283438,164.033534 C206.557023,165.206039 207.260526,165.596875 208.511199,165.753209 C215.07723,166.534879 221.682345,167.160215 227.779374,170.130563 C229.6163,171.029484 231.414142,172.084739 233.446485,173.179077 C233.446485,168.801723 237.472087,167.121132 239.621681,164.189868 C240.286101,163.251863 241.185022,162.470193 241.849442,161.571272 C243.842701,158.913593 245.796877,156.177746 247.751053,153.480983 C248.532724,152.386645 249.314394,151.33139 249.783396,150.706053 C248.298222,148.947295 246.852132,147.305787 245.484209,145.625196 C242.709279,142.22493 241.966692,138.316578 242.670196,134.095557 C242.787446,133.509305 243.139198,132.883968 243.569117,132.414966 C244.702539,131.164293 245.796877,129.874537 247.125717,128.858366 C247.82922,128.311196 248.923559,128.115779 249.861563,128.115779 C250.760484,128.115779 251.112236,128.272113 251.424904,127.02144 C251.659405,126.005269 253.261829,125.184515 254.356168,124.559178 C260.25778,121.080745 267.91815,125.106348 271.201165,129.757287 C274.445097,134.369142 274.953183,139.293666 273.350759,144.530857 C272.842673,146.133282 271.904669,147.696622 270.81033,148.947295 C267.957233,152.230311 264.244299,154.22357 259.906028,154.770739 C257.990935,155.005241 256.544845,154.22357 255.880425,152.11306 C252.284741,157.506586 248.884475,162.743778 245.288791,167.785552 C243.451866,170.365064 241.263189,172.710075 239.074512,174.976919 C238.097424,176.032174 238.136507,176.579344 239.191762,177.439181 C242.474778,180.057777 244.897956,183.379876 246.773965,187.092811 C247.477469,188.499817 248.415473,188.890652 250.056981,188.265316 C253.926249,186.858309 257.951852,185.763971 261.860204,184.435131 C263.892547,183.731628 265.768556,182.637289 267.800899,182.011953 C271.982836,180.722197 276.242939,179.666942 280.229458,178.572603 C280.229458,175.87584 280.190375,173.139994 280.229458,170.365064 C280.346709,164.033534 283.434307,159.069927 288.593332,155.943245 C293.322438,153.129232 298.520546,150.862387 304.422157,151.565891 C307.353421,151.917643 310.441019,151.292306 313.3332,151.761308 C324.237502,153.55915 331.038034,162.392026 330.8817,173.413579 C330.686283,185.724887 321.306238,194.596846 310.67552,196.472855 C308.486843,196.863691 306.33725,197.371776 304.148573,197.489027 C302.8979,197.567194 301.178225,197.293609 300.474722,196.472855 C299.224049,195.065849 297.621625,194.75318 296.097367,194.284178 C291.13376,192.720837 286.91274,190.141325 283.825142,185.842138 C283.551558,185.451303 282.730804,185.138635 282.300885,185.255885 C275.03135,187.327312 267.722732,189.398738 260.492281,191.704666 C256.896597,192.877172 253.457247,194.557763 250.056981,196.003853 C251.034069,207.96341 247.1648,220.157469 240.16885,226.801667 C240.989604,227.50517 241.810358,228.208674 242.592029,228.873094 C245.796877,231.687107 249.079893,234.422953 252.128407,237.354217 C255.255089,240.363648 258.108186,243.568497 261.117617,246.695179 C262.016538,247.633183 262.798208,249.196524 263.81438,249.313775 C264.752384,249.431025 265.807639,247.867684 266.941062,247.359599 C270.771246,245.561757 274.796849,245.014587 279.056953,245.210005 C287.45991,245.60084 292.267183,251.697869 294.143191,258.420235 C295.706532,263.931011 295.472031,269.402704 292.267183,274.170893 C290.664758,276.554988 288.124329,278.509164 285.583901,279.955254 C275.852104,285.661448 262.993626,281.284094 257.678267,272.373051 C255.997676,269.559038 255.528674,266.315106 255.958592,262.953923 C256.271261,260.374411 256.075843,257.716731 258.342687,255.957973 C252.441076,251.502452 248.923559,245.288172 244.077202,240.285481 C243.451866,239.660145 242.670196,239.191143 242.005776,238.643974 C239.543514,236.650714 237.081252,234.657454 234.775324,232.820529 C231.883144,234.266619 229.147298,235.556375 226.450535,237.002466 C225.39528,237.549635 224.535442,238.487639 223.519271,239.112976 C222.659433,239.621062 221.721429,240.090064 220.744341,240.324565 C217.930327,240.988985 215.038147,241.497071 212.497718,242.005156 C212.96672,247.867684 213.357555,253.92563 214.021975,259.983575 C214.178309,261.429666 215.116314,262.797589 215.74165,264.243679 C217.18774,264.36093 218.672914,264.439097 220.158088,264.634514 C229.73355,265.846104 237.628421,272.333968 238.879094,281.870347 C240.16885,291.68031 237.39392,302.350111 226.137867,307.391885 C223.519271,308.564391 220.783424,309.580562 218.008494,310.401316 C216.718738,310.792152 215.194481,310.635818 213.826558,310.4404 C210.934377,310.049565 207.846779,310.010481 205.228183,308.877059 C202.453253,307.704553 200.108242,305.515876 197.567813,303.757118 C192.408789,300.161434 190.337362,294.689741 189.243024,288.944464 C188.656771,285.817782 188.734938,282.378432 190.884531,279.408085 C191.705285,278.313746 192.174288,276.828573 192.408789,275.460649 C193.229543,270.731544 196.395308,267.214027 201.08533,266.119688 C203.391258,265.611602 205.736269,265.220767 208.120364,264.751765 C207.182359,262.914839 205.97077,261.273332 205.462684,259.397323 C204.837348,256.856894 204.759181,254.160131 204.485596,251.541535 C204.172928,248.336687 203.938427,245.092754 203.703926,242.513242 C197.802315,241.223486 192.291538,240.363648 187.015263,238.722141 C180.410148,236.689798 174.782121,232.859613 170.092099,227.778755 C169.740347,227.38792 168.567841,227.192502 168.177006,227.466087 C163.135232,230.905437 158.171625,234.422953 153.051684,238.018637 C154.810442,241.575238 156.764618,245.288172 156.842785,249.548276 C156.960036,257.560397 154.654108,264.634514 148.557079,270.145291 C145.274064,273.115638 141.67838,275.538816 137.183775,276.125069 C129.093486,277.219408 121.354949,275.773318 114.398083,271.552297 C110.450647,269.168203 107.519383,265.533435 105.096205,261.546916 C102.829361,257.833982 101.735022,253.847463 101.774106,249.548276 C101.813189,245.131838 103.611031,241.301653 106.542295,238.214055 C108.027469,236.650714 110.37248,236.338046 112.522074,235.869044 C114.007247,235.556375 115.570588,234.540204 116.58676,233.367698 C122.292954,226.567166 131.008579,225.355577 138.942533,228.365008 C140.935793,229.146678 142.889969,230.045599 144.765978,231.100854 C145.977567,231.765274 146.954655,231.882525 148.205328,231.257188 C151.371093,229.654764 154.615025,228.208674 157.077287,225.511911 C159.070546,223.323234 161.650058,222.033478 164.77674,221.525392 C160.086718,214.881193 159.031463,207.611659 160.282135,199.52137 C149.846835,198.583365 139.411536,197.606277 128.819902,196.629189 C128.507233,197.059108 127.999148,197.449943 127.842814,197.958029 C126.044972,202.999803 121.628534,203.976891 117.212096,204.328643 C109.864394,204.875812 102.59486,200.30304 100.054431,193.424341 C98.8819252,190.297659 99.390011,187.600896 101.226936,184.825966 C103.102945,182.011953 105.48704,181.113032 108.691889,180.995781 C110.450647,180.956698 112.248489,180.018693 113.92908,179.237023 C116.156841,178.220852 120.80778,179.002522 123.152791,180.956698 C125.732303,183.145375 127.608312,186.272057 128.350899,189.633239 C139.68512,189.828657 150.823923,191.626499 161.610975,194.401429 C164.190487,190.375826 166.77,186.31114 169.388595,182.168287 C167.864338,180.604946 166.027413,178.728937 164.268654,176.813845 C160.125801,172.31924 156.061115,167.824635 151.957345,163.290947 C149.885919,160.985019 147.814492,158.640008 145.664899,156.412247 C145.352231,156.099579 144.45331,155.943245 144.023391,156.138663 C139.841454,158.053755 135.698601,158.522757 131.008579,157.780171 C126.904809,157.115751 123.074624,156.060496 119.518024,154.184487 C116.664927,152.699313 114.202665,150.510636 111.623153,148.55646 C110.098895,147.423038 110.216146,145.742446 110.25523,144.022771 C110.294313,142.654848 109.825311,141.247842 109.278142,139.958085 C108.105636,137.144072 107.675717,134.290975 108.340137,131.281544 C108.730972,129.522786 108.92639,127.724944 109.278142,125.927102 C109.864394,122.839504 111.584069,120.455409 113.538245,118.032231 C117.016679,113.69396 121.823951,112.521454 126.826642,111.348949 C135.034181,109.394773 142.46005,111.544366 149.33875,115.569969 C155.279445,119.048402 159.656799,124.207427 160.907472,131.24246 C161.571891,134.877228 160.985639,138.551079 159.344131,141.990428 C157.468122,145.664279 155.396695,149.103629 152.270014,151.761308 Z M171.499105,209.917586 C171.499105,215.076611 173.414198,218.867712 176.65813,222.267979 C182.676992,228.521342 190.415529,230.983604 198.505818,232.820529 C201.827917,233.602199 205.1891,234.305703 208.511199,235.009206 C209.371036,235.204624 210.426291,235.71271 211.129795,235.400041 C213.709307,234.305703 216.327903,233.133197 218.711998,231.648023 C221.995013,229.61568 225.082612,227.270669 228.365627,225.160159 C231.375058,223.205983 233.251067,220.352886 235.478828,217.656123 C239.699848,212.458015 241.458606,206.751821 242.005776,200.146706 C242.787446,190.610327 237.081252,184.317881 230.437054,180.487696 C225.668864,177.712766 220.431673,176.149425 215.038147,175.289588 C212.028716,174.781502 208.784784,174.3125 205.736269,176.071258 C204.563763,176.735678 202.922256,176.54026 201.515249,176.813845 C199.209321,177.243764 196.786143,177.439181 194.597466,178.220852 C193.073209,178.728937 191.861619,180.09686 190.415529,180.956698 C185.725507,183.653461 181.621737,187.131894 178.143304,191.235664 C176.267295,193.424341 174.938455,196.199271 173.844117,198.896034 C172.319859,202.491717 171.147354,206.321902 171.499105,209.917586 Z M149.299666,251.81512 C148.908831,247.867684 147.775409,244.193833 144.805061,241.262569 C142.46005,238.956642 139.646037,237.27605 136.558439,236.455296 C131.555748,235.126457 127.13931,237.510551 123.348209,240.168231 C119.596191,242.82591 116.039591,245.913508 113.733663,250.173612 C112.170322,253.026709 111.623153,255.449887 113.499162,258.381151 C115.062503,260.804329 116.70401,262.953923 118.970855,264.829932 C122.058453,267.331277 125.536886,268.386532 129.367071,268.660117 C131.125829,268.777368 133.040922,268.855535 134.721513,268.347449 C137.848195,267.409444 140.740375,265.963354 143.280804,263.657426 C146.759237,260.413494 148.947914,256.70056 149.299666,251.81512 Z M117.446597,135.737065 C117.798349,137.495824 118.345518,139.645417 118.658186,141.834094 C119.127189,144.765358 120.729613,146.993119 122.957374,148.751877 C123.817211,149.416297 124.950633,149.924383 126.044972,150.158884 C127.68648,150.510636 129.406154,150.393385 131.047662,150.706053 C133.040922,151.057805 134.916931,151.096889 136.871107,150.276135 C138.825283,149.455381 141.01396,149.259963 143.007219,148.478293 C146.368402,147.11037 149.143332,144.960776 150.941174,141.638677 C153.598853,136.714153 154.34144,131.750546 150.511255,127.412275 C145.23498,121.432497 138.629865,118.852985 130.344159,120.181824 C121.784868,121.510664 118.462769,128.311196 117.446597,135.737065 Z M309.89385,160.711435 C304.109489,160.242432 298.911381,163.056446 293.947774,166.925714 C288.671499,171.068567 288.827833,179.041605 291.954514,183.301709 C295.198447,187.63998 299.693051,189.86774 305.594663,189.398738 C310.519186,189.007903 314.505705,187.249145 318.062306,184.161547 C323.025913,179.862359 325.175506,174.664251 322.713245,168.176387 C320.99357,163.642699 317.397886,160.594184 309.89385,160.711435 Z M213.201221,303.44445 C216.327903,303.678951 216.757822,303.678951 220.236255,301.45119 C225.747031,297.972757 230.046219,293.67357 230.906056,286.638536 C231.453225,282.222098 228.404711,276.24232 224.222774,274.522645 C221.916846,273.545557 219.610919,273.58464 217.18774,273.936392 C213.123054,274.522645 209.136535,275.147981 205.97077,278.157412 C204.485596,279.603503 202.922256,281.049593 201.163497,282.104848 C197.64598,284.215358 197.489646,287.654708 197.567813,290.937723 C197.64598,295.080577 200.342743,297.972757 203.430341,300.474102 C206.322522,302.78003 209.644621,303.366283 213.201221,303.44445 Z M279.369621,253.417544 C277.493612,253.808379 275.500352,253.964713 273.741594,254.629133 C271.47475,255.449887 269.207906,256.466059 269.325156,259.709991 C269.36424,260.726162 268.504402,261.820501 267.91815,262.836672 C267.37098,263.774677 266.58931,264.595431 266.003057,265.533435 C264.713301,267.565778 264.791468,271.943133 266.472059,272.959304 C269.286073,274.639896 272.061003,276.867656 275.656686,276.24232 C277.14186,275.968735 278.548867,275.226148 279.955874,274.600812 C284.411395,272.568469 287.498993,269.480871 288.124329,264.36093 C288.671499,259.827241 285.544817,253.339377 279.369621,253.417544 Z M249.861563,140.114419 C250.056981,141.052424 250.135148,141.599593 250.291482,142.068595 C251.307653,145.038943 253.261829,146.993119 256.388511,147.696622 C257.404683,147.931123 258.342687,148.517376 259.476109,147.540288 C261.508452,145.78153 263.853463,144.374523 265.885806,142.615765 C267.761815,140.974257 268.191734,137.026821 266.745644,134.994478 C265.963974,133.90014 264.752384,133.118469 263.775296,132.180465 C262.641874,131.164293 261.313035,130.773458 260.023278,131.516045 C257.092014,133.196636 254.16075,134.838144 251.463988,136.831404 C250.525983,137.573991 250.291482,139.215498 249.861563,140.114419 Z M111.70132,197.254526 C117.837432,196.590106 121.784868,194.987682 119.947943,188.734318 C119.947943,188.656151 119.908859,188.617068 119.908859,188.538901 C119.830692,186.31114 119.36169,186.076639 117.094846,186.272057 C113.264661,186.623808 110.646065,189.125154 107.910218,191.313831 C106.894047,192.095501 106.346878,193.619758 107.441216,195.144016 C108.535555,196.707357 109.825311,197.449943 111.70132,197.254526 Z M201.984251,133.35297 C201.046247,133.665639 199.482906,134.095557 198.036816,134.759977 C195.574554,135.932483 195.340053,136.635986 196.278057,138.941914 C196.707976,139.997169 200.42091,142.264013 201.515249,142.107679 C201.74975,142.068595 202.101502,141.990428 202.218752,141.834094 C203.313091,140.388004 204.602847,139.059164 205.384517,137.45674 C206.400689,135.502564 204.837348,133.392054 201.984251,133.35297 Z" id="Shape"></path>
            <path d="M227.310372,313.997 C227.857541,315.130422 228.404711,316.146594 228.795546,317.201849 C228.990964,317.709935 229.069131,318.530689 228.795546,318.88244 C227.935708,320.094029 228.756462,321.227451 228.795546,322.360874 C228.834629,323.65063 228.990964,324.979469 228.95188,326.269226 C228.912796,328.184318 228.639212,330.138494 228.639212,332.053586 C228.639212,335.688354 228.717379,339.362205 228.795546,342.996972 C228.95188,354.174859 228.717379,365.391829 231.140557,376.413382 C231.453225,377.820388 232.195812,379.110145 232.703898,380.399901 C231.179641,380.82982 228.443794,379.305562 227.662124,376.999635 C226.645952,374.029287 225.668864,370.980772 225.199862,367.893174 C224.574526,363.51582 224.300941,359.060299 224.105524,354.604778 C223.753772,345.459234 223.519271,336.31369 223.323853,327.168146 C223.245686,323.689713 223.206603,320.21128 223.480187,316.77193 C223.558354,315.912093 224.809027,315.091339 225.629781,314.387835 C226.020616,314.114251 226.724119,314.153334 227.310372,313.997 Z" id="Path"></path>
            <path d="M103.298363,159.578012 C103.337446,163.33003 100.914268,167.003881 97.6312526,167.629218 C95.8334106,167.980969 93.8401511,167.277466 91.9250586,167.199299 C87.5867879,167.003881 84.9291085,164.268035 82.7404314,161.063186 C81.3334247,158.99176 81.8415105,156.646748 83.2876007,154.653489 C84.4991898,153.011981 85.867113,151.487724 87.3132033,150.041634 C87.7822055,149.572631 88.7592935,149.299047 89.4627969,149.33813 C93.527483,149.689882 97.3576679,150.588803 100.523433,153.480983 C102.438526,155.278825 103.102945,157.467502 103.298363,159.578012 Z M93.2148148,154.848907 C92.8630631,155.044324 91.9250586,155.396076 91.2606388,155.982329 C90.4789684,156.685832 89.9708826,157.66292 89.2673793,158.483674 C88.3684583,159.538929 88.0557902,160.5551 89.4237134,161.336771 C90.7916366,162.118441 92.2768103,162.861028 93.8010676,163.21278 C96.5759975,163.8772 99.1164263,160.985019 98.412923,158.131922 C97.9439207,155.982329 96.6541646,155.083408 93.2148148,154.848907 Z" id="Shape"></path>
            <path d="M320.172816,257.286813 C317.866888,256.661476 314.77929,256.856894 312.317028,254.550966 C310.206518,252.59679 309.542098,250.525364 309.972017,247.789517 C310.55827,243.842082 313.098699,241.457987 316.459881,240.090064 C317.984139,239.464727 320.172816,239.621062 321.736157,240.246398 C323.963917,241.106235 326.035344,242.435075 327.364184,244.780086 C328.536689,246.851513 328.732107,248.727522 328.067687,250.877115 C326.738847,255.098135 324.393836,257.247729 320.172816,257.286813 Z M318.023222,252.909458 C318.687642,252.792208 319.66473,252.909458 319.938315,252.518623 C320.915403,251.1507 321.814324,249.70461 322.43966,248.141269 C323.10408,246.382511 322.244242,245.327255 320.368233,245.522673 C319.234811,245.639924 317.905972,245.835341 317.085218,246.499761 C315.990879,247.320515 314.740207,248.571188 314.505705,249.782777 C314.232121,251.463368 316.10813,252.753124 318.023222,252.909458 Z" id="Shape"></path>
            <path d="M308.408676,135.385314 C308.096008,135.776149 307.587922,136.635986 306.884419,137.33949 C306.33725,137.886659 305.594663,138.160243 304.930243,138.590162 C302.350731,140.348921 300.90464,140.583422 297.035372,137.691241 C294.377693,135.737065 293.439688,132.610384 294.534027,129.952704 C295.198447,128.35028 296.097367,126.943273 298.129711,126.865106 C298.246961,126.865106 298.403295,126.826023 298.481462,126.747856 C301.139142,125.106348 303.56232,126.083436 305.555579,127.803111 C307.548839,129.600953 308.330509,132.063214 308.408676,135.385314 Z" id="Path"></path>
            <path d="M170.756519,263.188424 C171.147354,262.133169 171.264604,260.569828 172.046275,260.178993 C173.844117,259.162822 175.681042,258.537485 177.947886,260.218077 C180.527399,262.133169 181.230902,264.321846 180.840067,267.214027 C180.527399,269.519954 178.534139,269.715372 177.009882,270.02804 C173.961367,270.653376 171.460022,268.542866 171.225521,265.455268 C171.186437,264.751765 171.147354,264.009178 171.10827,263.305675 C170.99102,263.305675 170.873769,263.227508 170.756519,263.188424 Z" id="Path"></path>
            <path d="M295.081196,231.648023 C295.159363,229.224845 296.410036,227.427003 298.364212,227.036168 C300.513805,226.606249 302.23348,227.50517 303.210568,229.967432 C303.914071,231.72619 304.148573,233.641283 304.500324,235.517292 C304.578491,235.869044 304.304907,236.533463 303.992239,236.650714 C301.998979,237.510551 300.083887,238.643974 297.738875,237.393301 C295.511115,236.181712 294.963945,234.305703 295.042112,232.038859 C295.042112,231.921608 295.081196,231.804358 295.081196,231.648023 Z" id="Path"></path>
            <path d="M76.7606529,175.797673 C77.1124045,177.048346 77.7377409,178.416269 77.8549914,179.784192 C78.0113255,181.699285 75.119145,184.708716 73.2822196,184.435131 C72.0315469,184.239714 70.8981248,183.262626 69.7256192,182.598206 C69.2175335,182.324621 68.4358631,181.933786 68.4358631,181.542951 C68.357696,180.292278 68.357696,179.002522 68.7094477,177.830016 C69.1393664,176.383926 72.1487975,175.055086 73.5167207,175.367755 C74.3765581,175.563172 75.3536461,175.602256 76.7606529,175.797673 Z" id="Path"></path>
            <path d="M346.319691,184.239714 C349.250955,184.161547 351.556882,186.623808 351.635049,190.024075 C351.674133,191.548332 349.211871,193.776092 347.414029,193.893343 C345.772521,194.010594 342.684923,191.118413 342.606756,189.398738 C342.450422,186.780142 344.248264,184.317881 346.319691,184.239714 Z" id="Path"></path>
            <path d="M171.460022,123.972926 C171.616356,121.315246 173.844117,118.892068 176.110961,119.009319 C177.478884,119.048402 180.566482,122.839504 180.488315,124.363761 C180.410148,125.536266 177.009882,128.46753 175.798293,128.428447 C173.453282,128.233029 171.342771,126.083436 171.460022,123.972926 Z" id="Path"></path>
            <path d="M282.222718,212.223514 C282.183634,214.334024 280.307625,216.366367 278.4707,216.2882 C277.180944,216.249117 274.36693,213.669604 274.36693,212.575266 C274.36693,209.722169 276.047522,207.650742 278.236199,207.728909 C280.815711,207.807076 282.261801,209.487668 282.222718,212.223514 Z" id="Path"></path>
            <path d="M87.3913703,196.980941 C87.4304538,199.404119 85.8280295,200.498458 83.8738535,200.615709 C82.4668468,200.693876 80.3563367,198.544282 80.3954202,197.176359 C80.4345037,195.808436 82.8185985,192.994422 83.9520205,193.072589 C86.2970317,193.18984 87.4304538,194.440512 87.3913703,196.980941 Z" id="Path"></path>
            <path d="M93.8010676,257.716731 C93.7619841,259.162822 91.8468916,261.116998 90.5180519,261.077914 C88.5638759,261.038831 87.0005351,259.162822 87.1177857,256.935061 C87.1959527,255.215386 88.8765441,253.808379 90.7916366,253.92563 C92.6676455,254.04288 93.8792346,255.528054 93.8010676,257.716731 Z" id="Path"></path>
        </g>
    </g>
</svg>