<?xml version="1.0" encoding="UTF-8"?>
<svg width="191px" height="247px" viewBox="0 0 191 247" version="1.1" xmlns="http://www.w3.org/2000/svg" xmlns:xlink="http://www.w3.org/1999/xlink">
    <title>collaboration</title>
    <g id="Page-1" stroke="none" stroke-width="1" fill="none" fill-rule="evenodd">
        <g id="collaboration" transform="translate(0.691437, 0.305330)" fill="#000000" fill-rule="nonzero">
            <path d="M85.0143502,109.285539 C84.831841,110.179834 84.8683428,110.928121 84.5398263,111.457398 C83.5177747,113.063479 82.3497158,114.596556 80.6888821,115.618608 C78.8820409,116.731914 77.2942109,118.137235 75.8341372,119.688563 C75.7611336,119.761567 75.7428826,119.907574 75.6333771,120.199589 C76.7649342,120.564607 77.8964912,120.893124 78.9732955,121.312895 C79.7398342,121.60491 80.5246238,121.951677 81.2181588,122.40795 C82.075952,122.99198 82.0577011,123.941028 81.9846974,124.871825 C81.9481956,125.346349 81.856941,125.839123 81.7839373,126.404902 C83.1710072,126.642164 84.5215754,126.879426 85.9268962,127.116688 C85.3976195,128.722769 83.7002839,129.106038 81.3094134,128.193492 C81.6926827,128.978282 81.9116937,129.598813 82.2767121,130.109839 C83.2987637,131.606414 84.6493318,132.628466 86.4014202,133.322001 C88.2082613,134.033787 90.0333533,134.435307 91.8949472,134.745573 C93.8112939,135.074089 95.5633822,134.325801 97.2972197,133.723521 C99.4873301,132.975233 101.622688,132.044436 103.940555,131.13189 C101.586186,128.467256 99.980105,125.309847 96.8226957,123.484755 C98.1550129,122.918976 99.3230718,123.210991 100.491131,123.630762 C103.028009,124.506806 104.853101,126.258895 106.459182,128.3395 C107.736746,130.018584 109.050812,131.679418 110.529137,133.194244 C113.485786,136.223897 117.008214,137.957735 121.388435,137.519713 C122.136722,137.446709 122.921512,137.592716 123.688051,137.629218 C123.706301,137.756974 123.724552,137.86648 123.724552,137.994236 C123.542043,138.103742 123.359534,138.286251 123.158774,138.341004 C121.169424,138.888532 119.234826,139.764576 117.117719,139.509063 C114.94586,139.235299 112.828753,138.687771 110.912406,137.556214 C108.704045,136.242148 106.787698,134.581314 105.163366,132.610215 C104.962606,132.372953 104.853101,132.080938 104.652341,131.734171 C101.038658,135.055838 97.3519724,137.519713 92.4789767,137.629218 C92.862246,139.928834 92.5337294,141.918184 90.6356337,143.341756 C91.6394343,144.436811 92.6432349,145.221601 94.0303049,145.513616 C94.7968436,145.677874 95.4356258,146.38966 96.2021644,146.626922 C98.1550129,147.247453 100.107861,148.032243 102.097212,148.214752 C104.743595,148.452014 107.389979,148.050494 109.762598,146.645173 C110.456133,146.225402 111.259174,145.98814 111.952709,145.550117 C113.485786,144.60107 114.982362,143.579018 116.497188,142.593468 C116.643195,142.502214 116.807454,142.392708 116.93521,142.264952 C117.756501,141.44366 118.012014,141.480162 118.742051,142.410959 C119.472088,143.341756 119.435586,144.382059 119.271328,145.440612 C119.070568,146.754678 118.7238,148.068745 118.596044,149.382811 C118.468287,150.696877 118.52304,152.029194 118.504789,153.361511 C118.504789,153.836035 118.504789,154.310559 118.504789,154.876338 C118.942811,154.839836 119.326081,154.858087 119.691099,154.766832 C122.446988,154.073297 125.221128,153.416264 127.958766,152.667976 C130.112375,152.083947 132.320736,151.572921 134.364839,150.696877 C136.390691,149.820833 138.234034,148.543268 140.13213,147.39346 C141.5192,146.553918 142.924521,145.732627 144.202085,144.765328 C145.789915,143.542516 147.26824,142.173697 148.783066,140.859631 C149.25759,140.43986 149.622608,139.892332 150.097132,139.472561 C150.918424,138.742524 151.739715,138.158495 152.962527,138.158495 C153.929826,138.158495 154.878874,137.683971 155.846172,137.537963 C157.360999,137.300701 158.894076,137.191196 160.390652,136.917432 C161.047685,136.789676 161.686467,136.442908 162.288747,136.114392 C162.526009,135.986635 162.617264,135.603366 162.818024,135.366104 C163.055286,135.09234 163.32905,134.800325 163.621064,134.599565 C163.949581,134.362303 164.351101,134.216296 164.71612,134.033787 C164.697869,133.90603 164.679618,133.796525 164.679618,133.668768 C164.33285,133.668768 163.876577,133.50451 163.657566,133.668768 C162.14274,134.745573 160.481906,134.782074 158.76632,134.526562 C158.492556,134.49006 158.237043,134.216296 157.963279,134.070289 C158.18229,133.760023 158.328298,133.340252 158.620312,133.175993 C159.423353,132.737971 160.299397,132.482458 161.102437,132.044436 C162.252245,131.423905 163.347301,130.693868 164.460607,130.018584 C164.387603,129.890828 164.33285,129.763071 164.259847,129.635315 C163.493308,129.909079 162.708518,130.164592 161.960231,130.474857 C160.080386,131.259647 158.237043,132.080938 156.357198,132.865728 C155.882674,133.066488 155.389899,133.358503 154.915375,133.340252 C154.367848,133.322001 153.838571,133.029986 153.309294,132.847477 C153.510055,132.445957 153.729066,132.044436 153.911575,131.642916 C154.039331,131.350901 154.094084,131.022385 154.185339,130.712119 C153.875073,130.748621 153.583058,130.785123 153.272793,130.821625 C152.561007,130.93113 151.83097,131.040636 151.119184,131.168392 C150.681162,131.241396 150.224889,131.33265 149.805118,131.478658 C148.947324,131.770673 148.07128,132.044436 147.26824,132.445957 C146.264439,132.920481 145.315391,133.486259 144.366343,134.070289 C142.997524,134.909831 141.683458,135.840628 140.296388,136.625417 C138.617303,137.592716 136.792211,137.610967 134.967119,137.118192 C134.310086,136.935683 133.835562,136.862679 133.470544,137.592716 C133.288035,137.957735 132.941267,138.268 132.5945,138.505262 C131.627201,139.180546 131.371688,139.381306 130.094124,138.760775 C129.218079,138.341004 128.159526,138.322753 127.009718,138.103742 C127.356486,137.702222 127.776257,137.172945 128.269032,136.716672 C129.199829,135.858879 130.203629,135.074089 131.097924,134.179794 C131.754957,133.522761 131.773208,132.756222 131.152677,131.971433 C130.787659,131.51516 130.495644,131.022385 130.22188,130.511359 C129.510094,129.197293 129.583098,127.901477 130.386138,126.623913 C131.043172,125.583611 131.736706,124.543308 132.320736,123.448253 C132.868264,122.40795 132.375489,121.20339 131.243932,120.929626 C128.780057,120.327345 126.279681,119.779818 123.779305,119.323545 C120.567143,118.757766 117.847756,117.279442 115.475136,115.107582 C113.522288,113.318992 111.660694,111.402645 109.671344,109.650557 C108.99606,109.048277 108.101765,108.610255 107.22572,108.299989 C105.765647,107.788963 104.25082,107.186683 102.735994,107.058926 C100.363374,106.894668 97.9725037,106.985923 95.5998841,107.186683 C94.3405705,107.296188 93.1177589,107.934971 91.8401944,108.153982 C90.1611098,108.427745 88.4455232,108.555502 86.7481876,108.665007 C86.4561729,108.683258 86.1276564,108.263487 85.8173907,108.044476 C86.0729036,107.861967 86.3284165,107.642956 86.6204312,107.478697 C87.8797447,106.803413 89.1025564,106.055126 90.4166227,105.525849 C93.3367699,104.35779 96.4394264,104.248285 99.5238319,104.029274 C103.484282,103.75551 107.134466,104.832314 110.602141,106.547901 C111.478185,106.985923 112.226473,107.642956 113.084266,108.208734 C113.17552,106.474897 113.193771,104.814063 113.35803,103.17148 C113.723048,99.6308017 114.617343,96.2361305 116.588443,93.2064777 C118.577793,90.158574 120.6949,87.183674 122.538243,84.0627666 C124.144324,81.3616304 125.45839,78.4779849 126.863711,75.6673432 C127.593748,74.2072696 128.360286,72.7471959 128.926065,71.2141186 C129.765607,68.9327536 130.714655,66.6513885 131.134426,64.2787689 C131.535946,61.942651 131.353437,59.5152786 131.389939,57.1244081 C131.444692,53.1639583 130.094124,49.4772724 129.272832,45.681081 C128.305533,41.1548527 125.914663,37.4499158 123.377785,33.7997318 C120.786154,30.076544 117.573992,26.9373857 113.850804,24.345755 C110.656893,22.1373936 107.353477,20.1297924 103.575536,19.0529881 C100.837898,18.2681985 98.0637583,17.6659181 95.1983638,17.5929144 C92.6797368,17.5381617 90.1611098,17.4469071 87.6607337,17.6476672 C85.3611177,17.8301764 83.0615017,18.3047003 80.7801367,18.7974752 C75.7246317,19.9107813 71.1436507,22.1738955 66.7269279,24.802028 C61.9816886,27.6126697 58.3497555,31.4818649 55.8858812,36.3913625 C54.790826,38.5814729 53.6227671,40.7533324 52.7467229,43.0346975 C51.3231511,46.6666307 50.5383615,50.481073 49.972583,54.3685191 C49.279048,59.0042529 49.7170701,63.5852339 50.1733431,68.1844658 C50.3193505,69.5715358 50.6113652,70.8856021 51.1588928,72.1996683 C51.6334168,73.3312254 51.7611732,74.6087898 52.1626935,75.7585978 C53.1482432,78.5144868 54.6813205,80.996612 56.4699107,83.277977 C58.7695266,86.1981243 61.1238954,89.1000206 63.496515,91.9654151 C67.9862415,97.4041894 70.7238795,103.591251 71.3809127,110.617856 C71.5999237,113.026977 71.4721673,115.45435 71.4174145,117.881722 C71.3991636,118.392748 71.0888979,118.922025 70.9063887,119.43305 C70.6691268,120.090084 70.4683666,120.765368 70.1398501,121.367648 C69.8843372,121.842172 69.5740715,122.225441 69.701828,122.827722 C69.7200789,122.918976 69.3003077,123.101485 69.2820568,123.356998 C68.8622856,124.032282 68.4607654,124.725817 67.9862415,125.3646 C67.9314887,125.437603 67.3474592,125.309847 67.2927065,125.163839 C67.0736954,124.652814 66.8911862,124.087035 66.8364335,123.521257 C66.6721752,121.531906 66.6174224,119.542556 66.3984114,117.571456 C65.9968911,114.085531 65.5953709,110.581354 65.0478433,107.113679 C64.5003157,103.646004 63.3505077,100.324337 61.5801684,97.3129348 C60.4303604,95.3600863 59.0797923,93.5167434 57.6379696,91.764655 C54.0790401,87.420936 50.4471069,83.1502206 47.9284799,78.0947156 C46.9794321,76.2148708 46.6144136,74.0247604 46.085137,71.9441554 C45.7931222,70.8308493 45.7018676,69.6627904 45.5558603,68.5129824 C45.15434,65.173064 44.5885615,61.8696474 45.0448345,58.4384743 C45.4828566,55.1898105 45.7201185,51.9411467 46.6144136,48.7472356 C47.8007235,44.531273 49.3520517,40.4795686 51.4326566,36.6468753 C54.334553,31.3358575 58.3132536,26.9373857 63.4417623,23.6339691 C69.1725513,19.9290322 75.2683587,17.1548923 81.9846974,15.7495715 C86.7481876,14.7457708 91.5299288,14.6727672 96.3481718,14.8552764 C101.841699,15.0742874 107.006709,16.552612 111.934458,18.833977 C114.234074,19.8925304 116.296428,21.4621096 118.395284,22.8856813 C121.917711,25.258301 124.983866,28.1601974 127.666751,31.445363 C130.82416,35.2963072 133.452293,39.4940189 135.076625,44.2027564 C136.281186,47.6886822 137.211983,51.2658626 137.394492,55.0073013 C137.540499,58.1282087 137.613503,61.2308652 137.15723,64.3152707 C136.938219,65.8848499 136.354189,67.4179272 135.934418,68.9692554 C135.77016,69.5897867 135.624153,70.210318 135.386891,70.7943475 C134.437843,73.1487162 133.507046,75.5030849 132.484994,77.8027009 C132.01047,78.8612543 131.335186,79.846804 130.714655,80.8506046 C128.761806,84.0445157 126.772456,87.2019249 124.837859,90.395836 C123.359534,92.8597102 121.808206,95.3053336 120.548892,97.8787134 C119.545092,99.9410674 118.942811,102.185931 118.888059,104.540299 C118.833306,107.296188 118.650797,110.052077 118.577793,112.807966 C118.577793,113.154734 118.778553,113.611007 119.052317,113.86652 C120.749652,115.417848 122.830257,116.147885 125.038619,116.604158 C128.123024,117.24294 131.243932,117.826969 133.98157,119.542556 C135.5694,120.546357 136.865215,121.80567 137.138979,123.868024 C137.376241,125.674865 136.007422,127.390452 134.58385,128.138739 C133.963319,128.467256 133.379289,128.94178 132.904765,129.471057 C132.375489,130.036835 132.685754,130.967632 133.434042,131.807174 C134.310086,132.810975 135.18613,133.833027 134.98537,135.274849 C136.810462,134.782074 138.635554,134.380554 140.387643,133.778274 C142.267488,133.139492 144.056078,132.190444 145.954173,131.569912 C147.341243,131.113639 148.45455,130.292348 149.65911,129.54406 C151.210439,128.576762 152.907774,128.175241 154.659863,128.960031 C155.170888,129.197293 155.590659,129.708319 155.973929,130.164592 C156.448453,130.73037 157.233242,130.803374 157.671264,130.182842 C158.054534,129.653566 158.38305,129.069536 158.638563,128.686267 C157.98153,128.449005 157.17849,128.376001 156.649213,127.95623 C155.335147,126.95243 155.262143,125.090836 156.466704,123.922777 C157.525257,122.900725 158.711567,121.969928 159.824873,121.00263 C159.97088,120.874873 160.135139,120.728866 160.281146,120.601109 C159.879626,120.309095 159.514607,120.053582 159.16784,119.779818 C158.602061,119.341796 158.437803,118.976777 158.912327,118.210239 C160.043884,116.385147 161.175441,114.523553 161.923729,112.515952 C163.310799,108.829266 164.53361,105.069576 165.646917,101.291635 C166.413455,98.7182557 166.90623,96.0536213 167.435507,93.4072379 C167.581514,92.6589501 167.472009,91.8376587 167.508511,91.07112 C167.526761,90.8156072 167.599765,90.4688397 167.782274,90.3593341 C167.928282,90.2680795 168.2933,90.3775851 168.49406,90.5053415 C170.209647,91.6916513 171.049189,93.4072379 170.720673,95.43309 C170.227898,98.6087502 169.607366,101.766159 168.87733,104.887067 C168.402806,106.858166 167.727522,108.792764 166.960983,110.654358 C166.449957,111.89542 165.665168,113.008726 164.953382,114.158534 C164.040836,115.618608 163.091788,117.078682 162.124489,118.575257 C162.854526,118.757766 163.602814,118.976777 164.387603,119.177537 C167.654518,119.980578 170.684171,121.312895 173.567816,123.010231 C174.206598,123.3935 174.735875,123.430002 175.192148,122.718216 C176.670473,120.436851 178.258303,118.22849 179.608871,115.874121 C180.57617,114.176785 181.324457,112.315191 182.017992,110.471848 C183.021793,107.770712 184.025593,105.051325 184.810383,102.277185 C185.978442,98.0977244 186.471217,93.7905072 186.598973,89.465039 C186.635475,88.1144709 186.069697,86.6543973 185.503918,85.3768329 C184.35411,82.7852022 183.149549,80.1935715 181.707727,77.7479481 C180.758679,76.1601181 179.353358,74.8460518 178.148797,73.42248 C178.130546,73.4042291 178.094044,73.3859782 178.075793,73.3677272 C177.254502,72.5281849 176.049941,71.816399 177.01724,70.3745763 C177.61952,70.429329 178.240052,70.4658309 178.878834,70.5388346 C179.043092,70.5570855 179.243852,70.6118382 179.371609,70.7213438 C181.634723,72.6376904 183.916088,74.5540371 185.631674,76.9996604 C186.72673,78.5692396 187.402014,80.3578298 187.91304,82.2011727 C188.278058,83.5334899 188.807335,84.8293053 189.099349,86.1798734 C189.738132,89.008766 190.340412,91.8376587 189.774633,94.7760569 C189.172353,97.9334661 188.789084,101.145628 187.986043,104.248285 C187.365512,106.675657 186.233955,108.993524 185.33966,111.366144 C185.1389,111.89542 184.992892,112.442948 184.75563,112.953974 C184.646125,113.191236 184.35411,113.337243 184.116848,113.556254 C184.281106,114.030778 183.861335,114.943324 183.277306,115.290091 C183.094797,115.399597 182.948789,115.65511 182.875786,115.874121 C182.693276,116.476401 182.547269,117.078682 182.383011,117.680962 C182.36476,117.753966 182.255254,117.808718 182.145749,117.899973 C181.871985,117.772217 181.598221,117.626209 181.287955,117.480202 C181.616472,119.43305 181.616472,119.43305 180.010391,119.980578 C180.284155,120.144836 180.521417,120.290844 180.758679,120.436851 C180.649173,120.473353 180.521417,120.509855 180.411911,120.564607 C180.357158,120.783618 180.357158,121.02088 180.247653,121.20339 C179.973889,121.641412 179.700125,122.097685 179.335107,122.444452 C178.714576,123.028482 178.00279,123.521257 177.364008,124.087035 C177.218,124.214792 177.071993,124.433803 177.071993,124.616312 C177.144996,125.656614 176.360207,125.656614 175.684923,125.784371 C175.465912,125.820873 175.173897,125.839123 175.046141,125.96688 C172.874281,128.595012 170.757174,131.277898 168.567064,133.887779 C167.837027,134.763824 166.887979,135.457359 166.048437,136.223897 C165.701669,136.552414 165.354902,136.88093 165.062887,137.227698 C163.566312,139.071041 161.394452,139.417808 159.277345,139.928834 C157.141988,140.43986 154.970128,140.877882 152.871272,141.534915 C152.03173,141.790428 151.24694,142.447461 150.589907,143.086243 C149.002077,144.655822 147.596756,146.407911 145.935923,147.886235 C144.69486,149.017792 143.216535,149.930338 141.774713,150.806383 C139.785362,152.010943 137.777761,153.215504 135.660654,154.164552 C134.109326,154.858087 132.39374,155.204854 130.714655,155.551622 C128.889563,155.934891 127.027969,156.190404 125.184626,156.464168 C123.140523,156.774434 121.078169,157.029946 118.942811,157.321961 C119.618095,158.69078 120.421136,160.004846 120.950413,161.428418 C122.355733,165.242861 124.600597,168.619281 126.772456,171.995701 C128.652301,174.934099 130.6234,177.890748 133.470544,180.062608 C134.456094,180.810896 135.551149,181.394925 136.554949,182.124962 C137.011222,182.453479 137.339739,182.946253 137.723008,183.366025 C137.230234,183.694541 136.75571,184.023058 136.153429,184.442829 C136.408942,184.990357 136.828713,185.720393 137.065975,186.505183 C137.193732,186.906703 137.102477,187.43598 136.974721,187.874002 C136.627953,189.060312 136.262935,190.228371 135.824913,191.378179 C135.5694,192.071714 135.149629,192.710496 134.675105,193.604791 C135.660654,194.243573 136.682706,194.900606 137.723008,195.521138 C137.887267,195.630643 138.234034,195.594141 138.416543,195.502887 C141.865967,193.677795 145.333642,191.889204 148.710062,189.954607 C150.754166,188.786548 152.944276,188.129515 155.189139,187.673242 C156.357198,187.43598 157.58001,187.289972 158.76632,187.308223 C160.15339,187.326474 161.211943,188.03826 161.905478,189.297574 C163.073537,191.432931 163.785323,193.696046 164.077337,196.086916 C164.13209,196.579691 163.949581,197.090717 163.949581,197.583492 C163.93133,198.204023 163.986083,198.842805 164.004334,199.463336 C164.004334,199.554591 164.095588,199.700598 164.059087,199.718849 C163.493308,200.102119 163.657566,200.576643 163.712319,201.142421 C163.767072,201.726451 163.475057,202.365233 163.274297,202.949262 C163.110039,203.387284 162.836275,203.770554 162.617264,204.190325 C162.361751,204.664849 162.033234,204.829107 161.412703,204.847358 C160.901677,204.865609 160.281146,205.376635 159.916128,205.832908 C159.058334,206.891461 158.419552,207.037468 157.287995,206.343933 C155.973929,205.540893 155.20739,204.445838 155.061383,202.894509 C155.024881,202.547742 154.878874,202.200974 154.769368,201.799454 C154.60511,201.872458 154.495604,201.890709 154.422601,201.963713 C153.272793,203.040517 152.177737,204.172074 150.973177,205.194125 C149.677361,206.289181 148.363295,207.384236 146.921472,208.242029 C145.406646,209.154575 143.727561,209.811608 142.103229,210.523394 C138.471296,212.111224 134.711607,212.092973 130.988419,210.997918 C128.196028,210.176627 125.476641,209.081571 122.720752,208.077771 C121.643947,207.676251 120.585394,207.256479 119.581593,206.690701 C118.231025,205.924162 116.953461,205.029867 115.584642,204.135572 C114.069816,205.340133 112.591491,206.690701 110.930657,207.749254 C109.470584,208.680051 107.846252,209.483092 106.203669,209.994117 C103.228769,210.924914 100.180865,210.505143 97.1877141,209.939365 C95.0158546,209.519594 92.8804969,208.953815 90.7451392,208.442789 C90.6356337,208.424538 90.5078773,208.442789 90.5991319,208.442789 C90.4531245,209.592597 90.3618699,210.687652 90.1793607,211.764457 C89.8143423,213.991069 88.5367778,215.743157 87.0767042,217.38574 C85.1603576,219.539349 83.6455312,221.984972 82.2767121,224.540101 C80.6523802,227.551503 78.7907863,230.416897 76.4729195,232.972026 C76.0348974,233.464801 75.669879,234.048831 75.3596133,234.63286 C74.1915544,236.841221 72.2022041,238.283044 70.5048685,239.998631 C69.701828,240.801671 68.9170384,241.677715 68.2965071,242.626763 C67.2014519,244.269346 65.5953709,245.054136 63.7885298,245.382652 C60.5033641,245.984933 57.1634456,246.13094 53.8417781,245.802423 C52.2539481,245.638165 50.7026198,244.999383 49.1877934,244.433604 C48.2022437,244.068586 47.3079486,243.484556 46.3954026,242.95528 C45.1725909,242.243494 45.0630854,241.18494 46.1033879,240.235893 C48.0744873,238.447302 50.3376014,237.260993 52.965734,236.749967 C53.9695346,236.549207 54.8090769,236.074683 55.6851211,235.435901 C58.9885377,233.008528 60.7223751,229.449599 62.6204709,226.036677 C64.1352972,223.299038 65.2486034,220.36064 66.5809206,217.513497 C68.2600053,213.918065 70.0120936,210.359136 71.6911783,206.763705 C72.0926986,205.924162 72.4029642,205.029867 72.7132298,204.135572 C72.8227354,203.807055 72.8227354,203.442037 72.8957391,202.839757 C71.6181746,202.91276 70.4501157,202.91276 69.3185586,203.058768 C68.4060126,203.168273 67.3109574,202.365233 67.2927065,201.434436 C67.2927065,201.32493 67.3292083,201.160672 67.402212,201.105919 C68.8075329,200.175122 69.3003077,198.605543 69.8113335,197.181971 C71.0888979,193.568289 72.220455,189.881603 73.2607575,186.176666 C73.8995397,183.931803 74.3375618,181.632187 74.7025802,179.332571 C74.9580931,177.744741 74.9033403,176.102158 74.9945949,174.496077 C75.1406023,171.995701 75.2866096,169.495325 75.432617,166.994949 C75.5238716,165.571377 75.3778642,165.370617 73.9177906,165.261112 C71.5634219,165.078602 69.2090531,164.969097 66.8729353,164.750086 C63.5512678,164.43982 60.3391058,163.563776 57.1451947,162.596477 C54.3893057,161.756935 51.9071806,160.369865 49.735321,158.49002 C48.6585167,157.559223 47.5452106,157.084699 46.1033879,157.30371 C44.5155578,157.559223 42.8182222,157.68698 41.3946504,156.920441 C40.1535878,156.245157 38.967278,156.610175 37.7627172,156.518921 C34.5323043,156.263408 32.1231828,154.675578 30.4075963,151.956191 C29.4037957,150.36836 28.3087405,148.853534 27.1954343,147.338708 C26.5018993,146.38966 25.6076042,146.243652 24.4942981,146.645173 C21.1543797,147.831483 17.7597085,148.57977 14.2190299,147.521217 C11.5543955,146.718176 9.07227034,145.477114 6.93691265,143.688524 C5.22132613,142.246701 3.68824882,140.604118 2.04566598,139.107543 C1.18787272,138.322753 -0.034938948,137.811727 0.000764359311,136.424657 C0.0198138132,135.183595 0.0198138132,133.90603 0.33007946,132.71972 C0.932359834,130.420104 1.69889849,128.175241 2.48368807,125.930378 C2.8669574,124.835323 3.48748869,123.831522 3.87075802,122.736467 C4.30878011,121.477153 4.61904576,120.163087 4.96581325,118.867272 C5.89661019,115.436099 6.80915621,112.023177 7.73995315,108.592004 C8.30573168,106.547901 8.88976114,104.522048 9.49204151,102.496196 C9.58329611,102.222432 9.838809,101.802661 10.0395691,101.802661 C10.295082,101.802661 10.6783513,102.076425 10.8061078,102.331938 C11.4083882,103.536499 11.6273992,104.814063 11.3353845,106.182882 C10.8061078,108.683258 10.4045875,111.220136 9.89356176,113.738763 C9.76580532,114.395796 9.38253599,115.016328 9.25477955,115.691612 C8.78025561,118.173737 8.28748076,120.655862 7.97721512,123.156238 C7.72170223,125.255094 6.59014516,127.007182 5.93311203,128.94178 C5.44033718,130.365352 4.63729668,131.679418 4.03501631,133.066488 C3.87075802,133.431506 3.90725986,133.869528 3.87075802,134.2893 C3.79775434,135.256598 3.72475066,136.205646 3.68824882,137.172945 C3.68824882,137.428458 3.74300158,137.793476 3.90725986,137.921233 C6.84565805,140.074841 9.69280164,142.392708 13.1239747,143.743276 C14.7848084,144.40031 16.5551477,144.893084 18.3072361,145.258103 C19.5665496,145.513616 23.2167337,144.327306 24.1110288,143.652022 C22.9247189,141.662671 21.7384091,139.709823 20.5703502,137.720473 C19.5848005,136.023137 18.6540036,134.2893 17.6137011,132.628466 C17.3764391,132.245197 16.8471624,132.044436 16.4091404,131.825425 C15.8251109,131.51516 15.2045796,131.277898 14.6022992,131.004134 C12.813709,130.219344 12.9597164,128.485507 12.5764471,127.007182 C12.1931777,125.510607 11.8281593,123.99578 11.4266391,122.517456 C11.225879,121.750917 10.9156133,121.02088 10.0395691,120.747117 C9.89356176,120.692364 9.80230716,120.509855 9.63804887,120.327345 C10.6783513,119.579058 11.7004029,119.798069 12.6677017,120.21784 C14.5292955,121.00263 15.6060999,122.480954 16.1536275,124.37905 C16.5368968,125.693116 17.0114207,126.970681 17.412941,128.266496 C17.5589483,128.759271 17.8144612,128.905278 18.2707342,128.777522 C19.7490588,128.35775 21.300387,128.083987 22.7057079,127.481706 C24.8410656,126.56916 26.8851687,125.437603 28.9475227,124.397301 C29.4585485,124.141788 29.5133012,123.722017 29.5498031,123.137987 C29.6775595,120.4186 29.9148215,117.680962 30.0973307,114.961575 C30.1703343,113.976025 30.1520834,112.990475 30.2068362,112.023177 C30.3163417,110.398845 30.4440982,108.774513 30.5901055,107.150181 C30.6813601,106.109878 30.8273675,105.069576 31.0098767,104.029274 C31.0646294,103.682506 31.2653896,103.353989 31.4478988,102.915967 C32.761965,103.719008 32.8897215,105.033074 33.2182381,106.255886 C33.4737509,106.274137 33.7292638,106.274137 33.9665258,106.292388 C34.6600608,110.453598 35.0250792,114.614807 34.8973227,118.83077 C34.8608209,120.254342 34.9703264,121.750917 35.4083485,123.101485 C36.0471307,125.090836 34.8243191,127.134939 33.0904816,127.700717 C33.4007473,128.558511 33.6745111,129.452806 34.0395295,130.292348 C35.1528356,132.810975 36.2478908,135.329602 37.4342007,137.811727 C38.6205105,140.275601 40.810621,141.407159 43.3474989,142.064192 C44.8988271,142.465712 46.4319044,142.885483 47.6182143,144.126546 C48.1657419,144.692324 49.0782879,144.911335 50.0090848,145.385859 C50.1185904,144.747077 50.3193505,144.090044 50.3558523,143.41476 C50.4836088,141.169897 49.1877934,139.490812 48.0744873,137.738724 C47.1254394,136.242148 46.1763916,134.763824 45.2638455,133.267248 C45.1360891,133.048237 45.0995873,132.756222 45.0630854,132.664968 C42.7817204,133.668768 40.5186062,134.654318 38.273743,135.639868 C38.2372412,135.603366 38.1824884,135.548613 38.1459866,135.512111 C39.0037798,134.672569 39.8433222,133.833027 40.7011154,132.993484 C41.8144216,131.898429 42.8364731,130.766872 43.329248,129.215544 C43.6577645,128.15699 43.5300081,127.280946 42.9094768,126.331898 C41.6136615,124.287795 40.3543479,122.20719 39.8615731,119.779818 C39.1680381,116.385147 39.2957946,112.953974 39.6790639,109.541052 C40.0075805,106.675657 40.4091007,103.828513 40.8653737,100.98137 C41.2121412,98.8095103 41.6684142,96.6376508 42.1429381,94.4840422 C42.4714547,92.9874667 43.0737351,92.45819 44.6250633,92.2391789 C44.8988271,93.4984925 45.1360891,94.7943078 45.4463547,96.0718722 C45.8843768,97.8604624 45.6288639,99.6308017 45.4463547,101.401141 C45.1178382,104.540299 44.8805762,107.697709 44.3878014,110.800365 C44.004532,113.209487 43.9132774,115.600357 43.9862811,118.027729 C44.0592848,120.747117 45.15434,123.137987 46.3406498,125.492356 C46.8151738,126.441404 47.1984431,127.408703 46.2493952,128.394252 C45.9573805,128.686267 45.9938824,129.288547 46.1033879,129.617064 C47.4174541,130.858127 48.8045241,132.007935 50.0090848,133.358503 C51.6516677,135.220097 52.8197266,137.428458 53.9330327,139.65507 C54.4623094,140.731875 55.1193426,141.753926 55.6121174,142.848981 C56.1048923,143.925786 55.7581248,144.60107 54.6448186,145.075594 C54.2980511,145.221601 53.87828,145.385859 53.6957708,145.677874 C53.0204867,146.754678 53.641018,147.594221 55.1193426,147.667224 C58.3497555,147.831483 61.5801684,148.050494 64.8105813,148.068745 C66.5261678,148.086995 68.2235034,147.77673 69.9938427,147.411711 C69.5558206,147.156198 69.1177985,146.882435 68.6615255,146.626922 C67.5664703,145.98814 66.945939,145.148597 67.2014519,143.798029 C67.3657102,142.885483 67.4204629,141.936435 67.5117175,141.005638 C67.5299684,140.713624 67.5847212,140.385107 67.4934666,140.093092 C66.7999316,137.86648 67.2379537,135.621617 67.3657102,133.395004 C67.402212,132.756222 67.4934666,132.11744 67.4204629,131.496909 C67.3657102,131.058887 67.0554445,130.657366 66.8911862,130.237595 C66.7634298,129.92733 66.5809206,129.562311 66.6539243,129.288547 C66.708677,129.106038 67.2014519,128.923529 67.4752157,128.960031 C68.9717912,129.160791 70.4501157,129.416304 71.9284403,129.671817 C73.4980194,129.945581 75.0858495,130.219344 76.6554287,130.511359 C76.9291925,130.566112 77.2029563,130.620865 77.4402182,130.73037 C78.2067569,131.095389 78.2980115,131.825425 77.5314728,132.099189 C76.4364176,132.482458 75.2683587,132.683219 74.1185507,132.810975 C73.2790084,132.90223 72.4029642,132.737971 71.5634219,132.683219 C71.5634219,133.760023 71.5451709,134.782074 71.5816728,135.785875 C71.5816728,135.986635 71.7824329,136.223897 71.9466912,136.333403 C73.3337611,137.300701 74.9033403,137.610967 76.582425,137.483211 C77.5132219,137.410207 78.4440189,137.446709 79.3748158,137.428458 C80.1231035,137.428458 80.7801367,137.939484 80.8348894,138.596517 C80.9078931,139.417808 80.2873618,139.673321 79.6850814,139.746325 C76.9474434,140.05659 74.2098053,140.275601 71.4539163,139.271801 C71.4174145,139.509063 71.3261599,139.746325 71.3809127,139.947085 C71.5634219,140.950886 71.6364255,142.009439 72.0379458,142.921985 C72.6219752,144.272553 74.0272961,144.491564 75.3048605,144.692324 C76.1991556,144.838332 77.0751998,145.00259 77.7504839,145.714376 C77.6227274,145.860383 77.5314728,145.98814 77.3672146,146.170649 C77.5314728,146.170649 77.6227274,146.1889 77.713982,146.170649 C79.2288084,145.769129 80.7983876,145.477114 82.2584612,144.893084 C83.3535165,144.455062 84.3025643,143.633771 85.3246159,142.976738 C85.6531324,142.757727 85.981649,142.538716 86.3284165,142.356206 C86.8394423,142.064192 87.5329772,141.936435 87.8614938,141.516664 C88.7010361,140.403358 89.3945711,139.198797 89.4675748,137.738724 C89.4858257,137.2642 89.3580693,137.026938 88.8287926,136.844428 C86.9124459,136.205646 84.9778484,135.585115 83.1527563,134.727322 C81.400668,133.90603 80.3238637,132.299949 79.5208232,130.584363 C78.5535244,128.467256 78.0607495,126.295396 78.86379,123.97753 C78.9915465,123.59426 78.9185428,123.356998 78.407517,123.210991 C77.5132219,122.973729 76.6371777,122.608711 75.7793845,122.261943 C73.7535323,121.40415 73.4980194,118.867272 74.4835691,117.571456 C75.432617,116.312143 76.5641741,115.144084 77.7687348,114.158534 C79.3748158,112.844468 81.1451551,111.69466 82.8789925,110.526601 C83.3535165,110.088579 84.0835533,109.778313 85.0143502,109.285539 Z M76.7284323,165.297613 C77.1482035,166.41092 77.6957311,167.305215 77.7869857,168.217761 C77.9877458,170.170609 78.0059968,172.141709 77.9877458,174.094557 C77.9694949,175.9379 77.9147422,177.781243 77.6957311,179.624586 C77.494971,181.267169 76.9291925,182.854999 76.7649342,184.479331 C76.582425,186.486932 75.6333771,188.202519 74.9215912,190.00936 C74.7938348,190.337876 74.50182,190.593389 74.3193108,190.903655 C74.0090452,191.39643 73.6987795,191.907455 73.4067648,192.436732 C73.2060047,192.80175 73.0234955,193.166769 72.7679826,193.677795 C73.1877538,194.626843 73.133001,194.900606 72.220455,195.77665 C72.1109495,195.886156 71.9284403,195.995662 71.9284403,196.105167 C71.9649421,197.200222 71.307909,198.003263 70.7603814,198.861056 C70.3406102,199.518089 70.0485955,200.248126 69.7383298,200.959912 C69.701828,201.051166 69.7748317,201.178923 69.8113335,201.32493 C70.1215991,201.270178 70.377112,201.197174 70.6508758,201.160672 C72.7497317,200.905159 74.8668385,200.284628 76.9474434,200.850406 C79.9953471,201.653447 83.006749,202.638997 86.0181508,203.588044 C88.3177668,204.318081 90.5443791,205.28538 92.8804969,205.851159 C95.6911387,206.544694 98.5747841,206.909712 101.440179,207.420738 C102.66299,207.639749 103.831049,207.511992 104.999108,207.055719 C107.335226,206.143173 109.251573,204.591845 110.930657,202.803255 C114.507838,198.970562 118.833306,196.56144 123.943563,195.448134 C126.097172,194.97361 128.196028,194.298326 129.6196,192.454983 C130.258382,191.615441 130.80591,190.721146 131.389939,189.82685 C132.5945,187.983507 133.488795,185.994157 133.98157,183.840549 C134.018072,183.639788 133.79906,183.293021 133.5983,183.165264 C132.977769,182.745493 132.265983,182.435228 131.645452,182.015456 C126.535194,178.51128 123.341283,173.437524 120.384634,168.181259 C119.472088,166.538676 118.833306,164.750086 117.902509,163.125754 C116.095668,159.968345 114.690347,156.756183 115.091867,152.996493 C115.237874,151.718929 115.183122,150.404862 115.329129,149.127298 C115.493387,147.685475 115.785402,146.261903 116.004413,144.820081 C115.913158,144.783579 115.821904,144.728826 115.7489,144.692324 C115.402133,145.349357 115.091867,146.006391 114.726849,146.645173 C114.599092,146.864184 114.398332,147.046693 114.215823,147.229202 C114.069816,147.37521 113.75955,147.539468 113.777801,147.630722 C113.96031,148.342508 113.431033,148.616272 112.993011,148.853534 C112.098716,149.346309 111.204421,149.839084 110.255373,150.240604 C106.039411,152.029194 101.750444,151.390412 97.5162307,150.386611 C95.5268804,149.930338 93.6287846,149.127298 91.6759362,148.488516 C91.9131981,150.623873 92.168711,152.832235 92.3877221,155.040596 C92.7162386,158.362264 92.2417147,161.629178 91.475176,164.859591 C91.3291687,165.480123 90.9641503,166.064152 90.799892,166.684683 C90.6721355,167.140956 90.8363938,167.724986 90.6173828,168.126506 C90.0333533,169.20331 89.431073,170.316617 88.6097815,171.210912 C87.9892502,171.904447 87.0402024,172.743989 86.2736637,172.725738 C84.9960993,172.689236 84.138306,173.236764 83.2440109,173.875546 C82.4227195,174.459575 81.619679,175.080107 80.8713913,175.73714 C80.0683508,176.430675 79.8493397,176.430675 79.3930667,175.426874 C79.3018121,175.207863 79.2105575,174.970601 79.2105575,174.733339 C79.2470594,173.127258 79.2835612,171.539428 79.3565649,169.933347 C79.4295686,168.327266 79.5208232,166.702934 79.6303287,164.987348 C78.5717753,165.078602 77.6774802,165.188108 76.7284323,165.297613 Z M40.2630933,148.233003 C40.573359,148.817032 40.810621,149.127298 40.9018756,149.474065 C41.1026357,150.313608 41.5589087,150.587372 42.4349529,150.623873 C43.0737351,150.642124 43.7490191,151.043645 44.3330486,151.408663 C44.6068124,151.591172 44.6798161,152.065696 44.8440744,152.412464 C44.5155578,152.558471 44.1687903,152.832235 43.8402737,152.832235 C43.1649897,152.813984 42.5079566,152.649726 41.8691743,152.558471 C41.7961707,153.452766 41.723167,154.310559 41.6684142,155.186603 C41.8874253,155.241356 42.1246872,155.369113 42.3619492,155.350862 C43.2197424,155.296109 44.0775357,155.168353 44.935329,155.095349 C46.0121333,154.985843 47.1071885,155.004094 48.147491,154.785083 C49.0235351,154.602574 49.6988192,154.52957 50.4106051,155.296109 C51.3231511,156.281659 52.272199,157.413216 53.4402579,157.960743 C55.6121174,158.982795 57.9299843,159.67633 60.2113494,160.442869 C62.7664782,161.318913 65.4493635,161.537924 68.1322488,161.738684 C69.9573409,161.86644 71.8371857,162.103702 73.6257759,161.848189 C76.3634139,161.46492 79.0462992,160.734883 81.7474355,160.059599 C83.1710072,159.694581 83.0432508,159.858839 83.682033,161.008647 C84.5398263,162.541724 84.0835533,163.545525 82.4044686,164.147805 C82.1854575,164.220809 81.9846974,164.330315 81.8204391,164.385067 C81.9664465,165.388868 82.075952,166.319665 82.2219594,167.250462 C82.5139741,169.258063 82.5687269,171.229163 81.4371698,173.036004 C81.0904023,173.583531 80.7801367,174.14931 80.469871,174.715088 C80.5611256,174.769841 80.6706311,174.842845 80.7618858,174.897598 C81.2364097,174.277066 81.7109336,173.638284 82.1854575,173.036004 C83.2987637,171.594181 84.4850735,170.225362 85.5071251,168.728786 C87.824992,165.352366 88.2082613,161.391916 88.5915306,157.486219 C88.8287926,155.150102 88.7740398,152.795733 88.8105417,150.441364 C88.8287926,149.346309 88.8470435,148.269505 88.7922907,147.174449 C88.737538,146.042892 88.5732797,146.006391 87.4964754,146.353158 C84.9048447,147.1927 82.3497158,148.123497 79.7215833,148.817032 C77.1847053,149.492316 74.5748237,150.039844 71.983193,150.36836 C69.7383298,150.660375 67.4387138,150.55087 65.1755997,150.605622 C64.3360574,150.623873 63.4782641,150.459615 62.6569727,150.569121 C58.9702868,151.007143 55.4113573,150.423113 51.9619333,149.1638 C50.4106051,148.598021 48.9687824,147.740228 47.5999633,147.083195 C47.1619413,147.411711 46.7786719,147.758479 46.3589008,147.995741 C45.2638455,148.616272 44.0592848,148.598021 42.8364731,148.488516 C42.0151817,148.360759 41.248643,148.306006 40.2630933,148.233003 Z M75.3413624,203.442037 C75.2136059,204.737852 75.3231115,205.88766 74.9580931,206.854959 C74.045547,209.282332 72.91399,211.6367 71.8736875,214.027571 C70.614374,216.947718 69.4098132,219.886116 68.0592451,222.769762 C66.8729353,225.30664 65.6318727,227.825267 64.2630537,230.27089 C63.0219911,232.461001 61.671423,234.596358 60.2113494,236.62221 C59.0250395,238.283044 57.6379696,239.816121 55.247099,239.651863 C54.8820806,239.633612 54.5170622,239.889125 54.1520438,239.962129 C53.8417781,240.016882 53.3490033,240.144638 53.2394978,239.998631 C52.728472,239.305096 52.272199,239.651863 51.7611732,239.943878 C51.2136456,240.254144 50.6296161,240.491406 50.0638376,240.801671 C49.6440664,241.038933 49.2425462,241.312697 48.822775,241.56821 C49.9543321,241.896726 50.9946345,242.006232 52.0166861,242.17049 C53.6227671,242.426003 55.0828407,243.247295 56.7801763,243.119538 C58.6600211,242.973531 60.5946187,243.083036 62.4197107,242.736269 C63.7520279,242.480756 65.0843451,241.805472 66.1794003,241.002431 C67.1101973,240.327147 67.7489795,239.213841 68.4425145,238.264793 C69.701828,236.530956 70.9428906,234.760617 72.1657022,232.990277 C73.7170305,230.781916 75.3048605,228.591805 76.7466833,226.328691 C78.3710152,223.737061 79.7580851,220.999423 81.4371698,218.444294 C83.0432508,215.99867 84.8865938,213.699054 86.675184,211.344686 C87.4052208,210.377387 87.824992,209.136324 89.0478036,208.552295 C89.2120619,208.479291 89.3398183,208.315033 89.5223276,208.150775 C88.500276,207.804007 87.5512281,207.493741 86.6204312,207.183476 C83.6637821,206.161424 80.707133,205.102871 77.7504839,204.080819 C76.9291925,203.825306 76.0896501,203.642797 75.3413624,203.442037 Z M158.145788,204.48234 C158.328298,204.391085 158.437803,204.354583 158.547309,204.29983 C158.638563,204.245078 158.76632,204.172074 158.821072,204.080819 C159.733618,202.602495 160.408902,200.996414 160.536659,199.280827 C160.646164,197.875506 160.664415,196.415433 160.445404,195.028363 C160.189891,193.367529 159.642364,191.761448 159.204342,190.118865 C159.058334,189.607839 158.711567,189.443581 158.145788,189.607839 C157.160239,189.881603 156.101685,189.954607 155.134386,190.283123 C153.765567,190.757647 152.414999,191.305175 151.137435,191.962208 C148.673561,193.258023 146.227937,194.57209 143.891819,196.050414 C142.395244,196.999462 141.11768,198.258776 139.73061,199.390333 C138.763311,200.175122 137.942019,200.284628 137.084226,199.7371 C135.715407,198.842805 134.364839,197.94851 133.014271,197.054215 C131.992219,196.397182 130.988419,195.849654 129.783858,196.743949 C129.41884,197.017713 128.871312,197.072466 128.415039,197.200222 C126.170176,197.839004 123.888811,198.368281 121.6987,199.13482 C119.326081,199.974362 117.519239,201.689949 115.840155,203.624546 C116.296428,203.734052 116.679697,203.825306 117.044716,203.880059 C118.194524,204.062568 119.399084,204.09907 120.475889,204.445838 C122.428737,205.08462 124.290331,205.942413 126.224929,206.635948 C127.922264,207.256479 129.656102,207.785756 131.389939,208.351535 C134.748108,209.428339 137.832514,208.424538 140.880418,207.146974 C145.406646,205.267129 148.618808,201.653447 152.141236,198.477787 C153.199789,197.528739 154.112335,196.415433 155.097885,195.356879 C155.79142,196.105167 155.919176,196.798702 155.736667,197.510488 C155.645412,197.857255 155.590659,198.35003 155.754918,198.605543 C156.740467,200.083868 157.452253,201.653447 157.853774,203.387284 C157.945028,203.752303 158.054534,204.09907 158.145788,204.48234 Z M44.698067,146.079394 C44.8440744,145.166848 44.5703106,144.455062 43.7307682,144.126546 C43.1102369,143.889284 42.4714547,143.706775 41.8144216,143.542516 C39.4600528,142.958487 37.3429461,141.954686 35.7733669,140.03834 C33.2182381,136.899181 32.0501792,133.139492 31.0828804,129.306798 C30.9003712,128.595012 30.6266074,128.394252 29.9513233,128.722769 C29.4037957,128.996533 28.9110208,129.361551 28.3452423,129.562311 C26.4653975,130.219344 24.5855527,130.839876 22.687457,131.460407 C21.7201582,131.788923 21.300387,132.537211 21.7384091,133.285499 C23.14373,135.69462 24.4760472,138.158495 26.0638773,140.421609 C27.7429619,142.83073 29.7505632,145.00259 31.4661497,147.37521 C32.2144374,148.397261 32.761965,149.620073 33.1452344,150.842884 C33.5285037,152.102198 33.8022675,153.288508 35.2440902,153.744781 C35.517854,153.836035 35.7368651,154.091548 36.0106289,154.219305 C37.2881933,154.785083 38.5657577,155.332611 40.0623332,155.989644 C39.9163259,155.405615 39.8615731,155.131851 39.7885694,154.876338 C38.9855289,152.448965 38.4014995,150.003342 38.8942743,147.411711 C39.0950344,146.353158 39.3870492,146.061143 40.5003553,146.061143 C41.942178,146.079394 43.3474989,146.079394 44.698067,146.079394 Z M161.686467,120.509855 C161.649965,120.601109 161.613463,120.674113 161.55871,120.765368 C162.051485,121.093884 162.54426,121.440652 163.164791,121.860423 C161.047685,123.703766 157.945028,124.196541 156.649213,127.226193 C157.214991,127.116688 157.598261,127.116688 157.926777,126.970681 C158.930578,126.532658 159.897877,126.021633 160.901677,125.601861 C161.248445,125.455854 161.668216,125.474105 162.051485,125.419352 C161.960231,125.802622 161.94198,126.240644 161.759471,126.587411 C161.248445,127.536459 160.646164,128.449005 160.043884,129.452806 C160.317648,129.379802 160.500157,129.325049 160.682666,129.270296 C161.94198,128.960031 163.201293,128.558511 164.478858,128.3395 C165.628666,128.15699 166.449957,129.014784 166.212695,130.146341 C166.030186,131.022385 165.628666,131.843676 165.300149,132.756222 C166.157942,133.322001 166.176193,133.340252 166.942732,132.3182 C167.764023,131.223145 168.585315,130.12809 169.370104,129.014784 C170.209647,127.846725 171.012687,126.660415 171.979986,125.273345 C168.512311,123.667264 165.099389,122.097685 161.686467,120.509855 Z" id="Shape"></path>
            <path d="M143.636307,62.636186 C144.001325,63.548732 144.457598,64.4247762 144.731362,65.3555732 C145.461399,67.7646947 146.264439,70.1373143 147.742764,72.2179192 C148.217288,72.8749524 148.326793,73.8057493 148.710062,74.5540371 C149.914623,76.9084058 151.520704,78.916007 153.674313,80.4855862 C154.933626,81.3981322 156.138187,82.2924273 157.744268,82.5479402 C160.043884,82.9129586 162.087987,82.3471801 163.967832,81.1061175 C166.285699,79.5730402 168.348053,77.7296972 169.899381,75.4118303 C170.300901,74.8095499 170.592916,74.0430113 170.66592,73.3312254 C170.793676,71.9259045 171.249949,70.6848419 171.998237,69.516783 C172.564015,68.6407388 172.965536,67.7099419 172.874281,66.6148867 C172.764776,65.392075 172.217248,65.0088057 171.085691,65.5928351 C170.28265,66.0126063 169.552614,66.5601339 168.87733,67.1441634 C168.329802,67.6186873 167.855278,67.4909309 167.417256,67.1259124 C166.942732,66.7061413 166.997485,66.2316173 167.362503,65.6658388 C168.056038,64.5890345 168.932082,63.9685032 170.264399,63.8042449 C171.195196,63.6764885 172.016488,62.9464517 173.075041,63.1654627 C173.166296,63.1837136 173.385307,62.8916989 173.403558,62.7274406 C173.494812,62.2346658 173.567816,61.7053891 173.531314,61.2126142 C173.421809,59.0407547 173.184547,56.8688952 172.198997,54.8612939 C171.487211,53.3829694 170.246149,52.5069252 168.859079,51.7951393 C168.69482,51.7038847 168.311551,51.8863939 168.09254,52.0141503 C167.49026,52.4156706 166.942732,52.8719436 166.340452,53.2734638 C164.314599,54.624032 163.073537,56.5586295 162.380002,58.8399946 C162.3435,58.9860019 162.453006,59.2232639 162.580762,59.3510203 C162.836275,59.6065332 163.12829,59.8255443 163.420304,60.0445553 C164.953382,61.2308652 165.190644,61.9791529 164.53361,63.9320014 C163.694068,63.3114701 162.854526,62.7821934 162.160991,62.1069093 C160.335899,60.3730719 158.164039,59.880297 155.754918,60.0080535 C155.097885,60.0445553 154.422601,60.1358099 153.765567,60.0628062 C153.400549,60.0263044 153.072032,59.7342897 152.725265,59.5700314 C152.889523,59.2780167 153.072032,58.9860019 153.327545,58.4932271 C152.962527,56.8688952 153.747317,55.2810651 154.678113,53.8027405 C155.681914,52.1966595 156.886475,50.7365859 158.127537,49.0757522 C157.251493,49.2400104 156.357198,49.349516 155.517656,49.6050288 C154.258342,49.9882982 152.980778,50.4263203 151.776217,50.9920988 C151.119184,51.3023644 150.516904,51.8316411 150.024129,52.3791687 C148.819568,53.7297369 147.432498,54.9890504 146.976225,56.8323933 C146.720712,57.8726958 146.720712,58.9860019 146.574705,60.0445553 C146.538203,60.3000682 146.373945,60.5373302 146.246188,60.7745921 C145.990675,60.5920829 145.643908,60.4825774 145.4979,60.2270645 C144.056078,57.7996921 144.147332,55.3905706 145.662159,53.0362019 C146.647708,51.4848736 147.651509,49.9152945 149.513103,49.1670068 C149.494852,49.0940031 149.494852,49.0209994 149.476601,48.9479957 C147.724513,48.4004681 145.990675,47.8164386 144.238587,47.3419147 C143.472048,47.1229037 142.632506,47.1229037 141.829465,47.0316491 C140.679657,46.9221435 139.365591,45.3708153 139.584602,44.2757601 C139.621104,44.075 140.004373,43.7647343 140.205134,43.7829852 C143.490299,43.9472435 146.811967,43.9472435 149.987627,44.9510441 C150.608158,45.1518043 151.137435,45.6263282 151.739715,45.8818411 C152.652261,46.2651104 153.601309,46.6118779 154.568608,46.8491399 C155.134386,46.9951472 155.773169,46.8673908 156.466704,46.8673908 C155.827921,45.681081 155.170888,44.7685349 154.80587,43.7282325 C154.002829,41.4651183 154.769368,39.6400263 156.667464,38.2347054 C159.058334,36.4643661 161.832474,35.8438348 164.734371,35.6065729 C167.088739,35.4058128 169.388355,35.6065729 171.541964,36.6651263 C174.279602,38.0156944 176.524465,39.9502919 178.185299,42.5236717 C179.280354,44.2210073 179.20735,46.0278484 178.568568,47.8346896 C178.057543,49.2947632 177.528266,50.7365859 176.980738,52.1784086 C176.907735,52.3974197 176.779978,52.7076853 176.61572,52.7624381 C175.593668,53.1274565 175.867432,53.6567332 176.360207,54.2590136 C176.487963,54.4232718 176.61572,54.624032 176.633971,54.8247921 C176.871233,56.8688952 177.108495,58.9129983 177.309255,60.9571013 C177.437011,62.2529167 176.524465,63.1654627 176.03169,64.2240161 C175.867432,64.5890345 175.684923,65.0818094 175.794428,65.4103259 C176.396709,67.3449235 175.484163,68.8597499 174.589868,70.429329 C174.078842,71.3053732 173.586067,72.2179192 173.275801,73.1669671 C172.381506,75.9958598 171.231698,78.6057414 169.023337,80.7045972 C166.70547,82.8947077 164.13209,84.5555414 160.992932,85.1578218 C157.634763,85.796604 154.586859,85.1578218 152.03173,82.7304494 C150.954926,81.7083979 149.65911,80.8141028 148.874321,79.609542 C147.615007,77.6384426 146.501701,75.5395868 145.698661,73.3494763 C144.676609,70.5935873 144.019576,67.691691 143.271288,64.8445474 C143.088779,64.1692633 143.253037,63.4209756 143.253037,62.7091897 C143.399045,62.7091897 143.50855,62.6726879 143.636307,62.636186 Z M166.048437,50.4445712 C163.657566,49.4042687 161.55871,49.6232798 159.587611,51.0468516 C157.762519,52.3609178 156.302445,54.0035007 155.371648,56.0658547 C155.024881,56.8323933 154.787619,57.6536847 154.513855,58.4202234 C156.703966,58.4202234 158.711567,58.4202234 160.773921,58.4202234 C161.412703,55.1168068 163.347301,52.6164307 166.048437,50.4445712 Z M172.564015,50.6453313 C172.691772,50.3350657 172.746525,50.0978037 172.85603,49.8970436 C173.2393,49.1305049 173.05679,48.7654865 172.198997,48.4004681 C170.319152,47.6521804 168.840828,46.2833613 167.928282,44.4765202 C167.070488,42.7974355 166.468208,40.9905944 165.738171,39.256757 C165.573913,39.3480116 165.263647,39.5670226 164.898629,39.71303 C163.037035,40.4978196 162.398253,42.1404024 163.292548,43.9107417 C163.456806,44.2392582 163.548061,44.6225276 163.785323,44.8780405 C164.460607,45.6445791 165.081138,46.7943871 165.90243,46.9951472 C168.183795,47.5426748 170.173145,48.4004681 171.760975,50.1343055 C171.979986,50.3350657 172.272001,50.4628221 172.564015,50.6453313 Z M162.982282,46.6483797 C163.018784,46.5571251 163.055286,46.4841215 163.091788,46.3928669 C161.284947,43.9654944 160.116888,41.5016202 162.799773,38.7457312 C162.051485,38.782233 161.55871,38.8187349 161.084187,38.8187349 C158.802821,38.8369858 156.758718,40.9540926 156.959479,43.1624539 C157.068984,44.3670147 157.817272,45.4255681 158.839323,45.8270883 C160.116888,46.3381141 161.576961,46.3928669 162.982282,46.6483797 Z M169.716872,39.0742478 C168.87733,41.1366018 171.888731,46.3016122 173.932834,46.6666307 C173.987587,45.9183429 174.133595,45.1700552 174.078842,44.4217674 C174.024089,43.7099815 173.987587,42.8156864 173.549565,42.3776644 C172.418008,41.1913545 171.06744,40.2058048 169.716872,39.0742478 Z" id="Shape"></path>
            <path d="M4.96581325,166.629931 C7.94071328,166.337916 10.7331041,166.137156 13.507244,165.753886 C16.0441219,165.407119 18.5809999,164.932595 21.081376,164.348566 C21.6289036,164.220809 22.1764312,163.527274 22.4866969,162.961496 C23.3992429,161.227658 23.362741,159.27481 23.5635012,157.376714 C23.6912576,156.208655 23.837265,155.040596 24.0197742,153.890788 C24.0927778,153.361511 24.9323202,153.051246 25.3520914,153.361511 C25.6806079,153.598773 26.0091245,153.836035 26.3011392,154.091548 C26.4288957,154.201054 26.5384012,154.365312 26.5384012,154.511319 C26.6296558,156.427666 26.6661576,158.362264 26.7756631,160.27861 C26.812165,160.826138 27.1406816,161.373665 27.1406816,161.939444 C27.1589325,162.924994 27.1041797,163.947045 26.9216705,164.914344 C26.6661576,166.264912 25.5163496,166.976698 24.3847926,167.268713 C22.5962024,167.724986 21.993922,168.582779 22.1216784,170.462624 C22.2859367,172.76224 22.0851766,175.116609 21.9574202,177.434475 C21.7931619,180.518881 21.5924017,183.603287 21.2821361,186.669441 C21.081376,188.567537 20.6433539,190.429131 20.2965864,192.327227 C23.380992,193.604791 24.6768073,196.086916 25.5893533,198.970562 C25.9178699,199.992613 25.662357,200.813905 25.4615969,201.726451 C25.2425858,202.730251 24.5307999,203.09527 23.6730067,203.277779 C21.774911,203.661048 19.9863208,203.09527 18.2524833,202.474738 C15.8798637,201.616945 13.507244,200.667897 11.225879,199.591093 C10.0213182,199.025314 8.81675746,198.240525 7.92246236,197.254975 C7.30193106,196.56144 6.99166541,195.411632 6.90041081,194.444333 C6.5353924,190.885404 6.27987952,187.326474 6.07911939,183.749294 C5.93311203,180.993405 5.96961387,178.237516 5.84185743,175.481627 C5.75060283,173.638284 5.53159178,171.813192 5.33083166,169.969849 C5.23957705,169.039052 4.34528195,169.112056 3.7612525,168.820041 C2.8669574,168.382019 1.95441138,167.962248 1.06011628,167.524226 C1.0783672,167.432971 1.11486904,167.323466 1.13311996,167.232211 C1.40688377,167.086204 1.68064757,166.940196 1.89965862,166.81244 C1.71714941,165.443621 1.44338561,164.093053 1.38863284,162.760735 C1.31562916,160.826138 1.40688377,158.873289 1.40688377,156.920441 C1.40688377,155.71588 1.38863284,154.511319 1.33388008,153.288508 C1.20612364,150.861135 1.09661812,148.452014 0.895857993,146.042892 C0.841105232,145.40411 0.494337744,144.80183 0.275326699,144.163048 C-0.162695391,142.903734 -0.0896917093,141.662671 0.585592346,140.512863 C0.914108914,139.947085 1.53464021,139.983587 2.04566598,140.43986 C3.14072121,141.44366 3.01296476,142.848981 3.34148133,144.090044 C3.72475066,145.531867 4.21752551,146.955438 4.43653655,148.433763 C4.71030036,150.185851 4.85630772,151.974441 4.87455864,153.763032 C4.87455864,157.358463 4.72855128,160.935643 4.67379852,164.531075 C4.69204944,165.297613 4.89280957,166.045901 4.96581325,166.629931 Z M22.7969625,201.233676 C22.8152134,199.627595 22.4136932,198.423034 21.5193981,197.419233 C20.9718705,196.816953 20.3330882,196.287676 19.7308079,195.740149 C19.0920257,195.17437 18.3802398,194.681595 17.7962103,194.042813 C17.4494428,193.659544 17.1574281,193.093765 17.1391772,192.60099 C17.1209262,191.834452 17.412941,191.067913 17.4676937,190.301374 C17.7779594,186.815449 18.088225,183.347774 18.3437379,179.861848 C18.5809999,176.576682 18.7270072,173.273266 18.9095164,169.969849 C18.9642692,169.075554 18.8182618,169.00255 17.9422177,169.130307 C15.4418416,169.458823 12.9232146,169.750838 10.4045875,170.024602 C9.71105256,170.097605 8.98101574,170.042853 8.03196788,170.042853 C8.34223352,171.594181 8.56124457,173.036004 8.90801206,174.423074 C9.40078691,176.321169 9.80230716,178.201014 9.72930348,180.208615 C9.63804887,182.854999 9.76580532,185.519633 9.80230716,188.166017 C9.82055808,188.896053 9.87531084,189.607839 9.96656544,190.337876 C10.1673256,191.925706 10.3680857,193.531787 10.6418495,195.101366 C10.8061078,196.032163 11.3353845,196.616193 12.357436,196.926458 C13.8540115,197.364481 15.2958342,198.021514 16.7559078,198.642045 C18.7270072,199.426835 20.6616048,200.302879 22.7969625,201.233676 Z" id="Shape"></path>
            <path d="M163.12829,139.235299 C164.168592,141.188148 164.040836,143.195749 164.13209,145.221601 C164.314599,149.255054 163.712319,153.197253 162.94578,157.121201 C162.526009,159.220057 161.814223,161.26416 161.15719,163.308263 C160.901677,164.111304 161.065936,164.64058 161.595212,165.279362 C162.763271,166.684683 164.33285,167.487724 166.048437,167.487724 C167.782274,167.487724 169.534363,166.976698 171.2682,166.61168 C171.815728,166.502174 172.308503,166.118905 172.85603,165.954647 C173.969336,165.644381 174.407358,164.768337 174.735875,163.801038 C175.42941,161.793437 176.141196,159.785835 176.706974,157.741732 C177.090244,156.318161 177.163247,154.785083 177.491764,153.343261 C178.240052,150.131099 179.00659,146.937187 179.864384,143.743276 C181.324457,138.286251 182.583771,132.774473 183.532819,127.207942 C183.989092,124.488555 184.609623,121.80567 184.591372,119.03153 C184.591372,118.04598 184.682627,117.023929 184.865136,116.05663 C184.93814,115.618608 185.33966,115.235339 185.595173,114.815568 C185.722929,114.852069 185.850686,114.888571 185.960191,114.925073 C186.1427,115.764615 186.489468,116.604158 186.507719,117.4437 C186.562471,119.852822 186.544221,122.261943 186.434715,124.652814 C186.306959,127.226193 186.106198,129.817824 185.850686,132.391204 C185.467416,136.114392 184.773881,139.764576 183.55107,143.305254 C182.875786,145.239852 182.310007,147.229202 181.561719,149.145549 C181.196701,150.058095 180.959439,151.207903 179.864384,151.390412 C179.499365,152.1387 179.20735,152.777482 178.933587,153.343261 C178.970089,153.708279 179.152598,154.12805 179.024841,154.420065 C178.459063,155.679378 178.586819,156.865688 178.80583,158.198005 C179.043092,159.512072 178.878834,161.008647 178.477314,162.304462 C177.948037,164.074802 177.126746,165.790388 176.268952,167.432971 C175.776177,168.345517 174.954886,169.093805 174.261351,169.878594 C173.84158,170.353118 173.64082,170.77289 174.297853,171.229163 C174.425609,171.320417 174.498613,171.794941 174.407358,171.904447 C173.859831,172.451974 173.2393,172.926498 172.691772,173.474026 C172.272001,173.875546 171.833979,174.295317 171.578466,174.806343 C171.286451,175.390372 170.957934,175.645885 170.519912,175.499878 C170.319152,175.846645 170.209647,176.102158 170.027138,176.321169 C169.461359,177.014704 168.840828,177.671737 168.311551,178.401774 C167.198245,179.880099 165.756422,180.920401 164.168592,181.796445 C163.511559,182.161464 162.836275,182.508231 162.14274,182.781995 C161.15719,183.165264 159.551109,182.836748 159.113087,181.924202 C158.547309,180.756143 157.872025,179.642837 157.360999,178.474778 C157.032482,177.72649 157.306246,176.613184 157.561759,175.73714 C158.145788,173.674786 158.894076,171.648934 159.587611,169.604831 C159.751869,169.112056 160.007382,168.765288 159.313847,168.345517 C158.656814,167.925746 158.18229,167.177458 157.671264,166.556927 C157.068984,165.808639 156.886475,164.932595 157.123737,163.983547 C158.072785,160.223858 159.094836,156.464168 159.989131,152.686227 C160.317648,151.317408 160.408902,149.875586 160.500157,148.452014 C160.646164,146.316656 160.773921,144.181298 160.792172,142.064192 C160.792172,140.677122 161.576961,140.020089 162.653766,139.509063 C162.799773,139.417808 162.982282,139.308303 163.12829,139.235299 Z M163.475057,170.298366 C163.347301,170.499126 163.183042,170.699886 163.073537,170.955399 C162.288747,172.981251 161.467456,175.007103 160.773921,177.069457 C160.463655,177.982003 160.299397,178.949302 160.244644,179.916601 C160.189891,181.10291 160.700917,181.413176 161.777721,180.938652 C162.215744,180.737892 162.653766,180.50063 163.037035,180.226866 C164.205094,179.405575 165.391404,178.602534 166.486459,177.72649 C167.271249,177.087708 168.019536,176.375922 168.676569,175.627634 C169.443108,174.733339 170.118392,173.76604 170.811927,172.798742 C171.304702,172.105207 171.724473,171.37517 172.25375,170.535628 C169.169344,171.137908 166.358703,170.681635 163.475057,170.298366 Z" id="Shape"></path>
            <path d="M87.6242318,73.5319855 C89.3945711,70.9951076 91.8949472,69.9365542 94.8333454,70.1920671 C98.0820092,70.4840818 99.2318172,73.0209597 100.107861,75.9046052 C100.746644,75.2293211 101.257669,74.6452917 101.823448,74.116015 C103.155765,72.8384505 104.597588,71.7981481 106.513934,71.5243843 C109.452333,71.1046131 111.38693,73.42248 111.642443,75.8498524 C112.007462,79.2445236 111.715447,82.6209439 111.131417,85.9608623 C110.839403,87.6764488 110.456133,89.4467881 109.561838,90.9981164 C109.39758,91.2718802 109.123816,91.4908912 108.886554,91.7281532 C108.81355,91.6734004 108.740547,91.6186477 108.667543,91.545644 C108.7953,91.3448838 108.904805,91.1258728 109.032561,90.9251127 C108.941307,90.8703599 108.831801,90.8156072 108.740547,90.7608544 C108.576288,91.0346182 108.357277,91.2901311 108.284274,91.5821458 C108.21127,91.8559096 108.320776,92.1844262 108.339027,92.5129428 C108.065263,92.3851863 107.80975,92.2939317 107.627241,92.2026771 C107.335226,93.2064777 107.043211,94.1920274 106.751196,95.1775771 C106.203669,95.3965882 105.656141,95.5973483 105.053861,95.8346103 C105.272872,96.1448759 105.802149,96.5463962 105.802149,96.9844183 C105.820399,97.4406913 105.418879,98.0064698 105.03561,98.3349864 C104.725344,98.5904993 104.159566,98.5539974 103.593787,98.6817539 C103.703293,98.7365066 103.995307,98.8642631 104.469831,99.0832741 C103.794547,99.2840342 103.411278,99.4117907 102.790747,99.5942999 C103.265271,99.7768091 103.520784,99.8863146 103.794547,99.9958201 C104.013558,101.38289 103.8493,101.802661 101.567935,101.163879 C102.535234,99.5212962 103.228769,97.7874588 104.45158,96.363887 C104.45158,96.126625 104.360326,95.8346103 104.469831,95.6521011 C105.856901,93.2429796 106.678193,90.5783452 107.535986,87.9684636 C108.01051,86.5448918 108.083514,84.9388108 108.138266,83.4057335 C108.21127,81.2886267 108.247772,79.153269 108.047012,77.0361622 C107.955757,75.9776089 107.353477,74.9373064 106.915455,73.9335058 C106.714695,73.4589818 106.331425,73.4954837 105.856901,73.7144947 C103.922304,74.572288 102.425728,75.9593579 101.221168,77.6566935 C100.910902,78.1129665 100.819647,78.8795052 100.929153,79.4270328 C101.47668,81.9821617 101.421928,84.5555414 101.093411,87.1106703 C100.965655,88.09622 100.162614,88.9905151 99.6515884,89.9030611 C99.505581,90.1768249 99.2135663,90.4140869 99.1770645,90.7061016 C99.1040608,91.3448838 98.8485479,91.9836661 98.2280166,91.9471642 C97.680489,91.9106624 97.0599577,91.4908912 96.6949393,91.0528691 C95.6728877,89.8118065 95.5998841,88.2422274 95.5998841,86.7456519 C95.5998841,84.4642868 96.3481718,82.3289292 97.3884743,80.2848261 C97.6439871,79.7738003 97.7899945,79.0802653 97.6622381,78.5509886 C97.205965,76.8354021 96.7131902,75.1015647 96.0014043,73.4772328 C95.2166147,71.7068935 93.9207994,71.0498603 92.3877221,71.4148787 C90.6173828,71.8346499 89.6683349,73.2399708 88.7740398,74.6817935 C88.6827852,74.8460518 88.7192871,75.1745684 88.8287926,75.3753285 C90.5443791,78.916007 91.2196632,82.6756966 90.9824012,86.5631427 C90.9093975,87.639947 91.0006521,89.0635188 89.8143423,89.9030611 C89.6683349,89.9943157 89.6683349,90.2863305 89.5953312,90.4688397 C89.2850656,91.3813857 88.737538,91.6003967 87.9344975,91.0163673 C85.5618778,89.3372826 84.594579,86.8551574 84.3208152,84.0992684 C84.1018042,81.8544052 84.9048447,79.7372985 85.5436269,77.6201917 C85.8903944,76.4886346 85.3611177,75.1015647 84.2660625,74.4627825 C83.3352655,73.9152548 82.2219594,74.1525168 81.3094134,75.0103101 C79.5755759,76.6711438 78.9002919,78.8430034 78.7360336,81.0878666 C78.5170225,83.971512 78.644779,86.8916593 78.6630299,89.7935556 C78.6630299,90.395836 78.8272882,90.9981164 79.0097974,91.5821458 C79.8128379,94.4110385 80.6888821,97.2034293 82.1672066,99.7585582 C82.4774723,100.306086 82.6417306,101.017872 82.6052287,101.620152 C82.5869778,101.98517 82.0577011,102.423193 81.6561809,102.605702 C81.4919226,102.678705 80.9626459,102.295436 80.7618858,102.003421 C79.0828011,99.6490526 77.6409784,97.1486765 76.8379379,94.3562857 C76.3269121,92.6041974 76.0348974,90.7426035 75.9436428,88.9175114 C75.7976354,86.3441316 75.651628,83.7159991 75.9618937,81.1608703 C76.1809047,79.3540291 76.9839452,77.5654389 77.8234876,75.9228561 C78.6630299,74.2985242 80.013598,72.966207 81.8021882,72.3639266 C83.6455312,71.7433953 85.4523723,72.1814174 87.0949551,73.1669671 C87.2409625,73.2399708 87.350468,73.3312254 87.6242318,73.5319855 Z M87.1679588,79.9198077 C87.0949551,79.9198077 87.0219515,79.9198077 86.9306969,79.9198077 C86.8759441,80.0110623 86.7846895,80.1023169 86.7481876,80.2118224 C85.9998999,82.1829218 86.2371619,84.1175194 86.8576932,86.0521169 C86.9854496,86.4353863 87.0037005,86.8734083 86.9671987,87.2749286 C86.9124459,87.9137108 86.9671987,88.4247366 87.9162466,88.4064857 C88.7557889,85.4680875 87.7154864,82.7121985 87.1679588,79.9198077 Z M98.3192712,83.6247445 C98.136762,83.6064936 97.9542528,83.5882427 97.7717436,83.5699917 C97.5892344,85.5045893 97.4067252,87.4391869 97.224216,89.3737844 C97.3519724,89.3920354 97.4797289,89.4102863 97.6257362,89.4102863 C97.8629982,87.4939396 98.0820092,85.5593421 98.3192712,83.6247445 Z" id="Shape"></path>
            <path d="M103.958806,48.5464755 C103.04626,47.9259442 102.206717,47.3601656 101.385426,46.7578853 C100.454629,46.0643503 100.053109,45.0422987 99.7610939,43.9837454 C99.4325773,42.7791846 100.180865,42.1221515 101.403677,42.3411625 C102.973256,42.6331772 104.597588,42.7061809 106.167167,43.0346975 C108.558038,43.5092214 110.930657,44.1480036 113.321528,44.6407785 C113.96031,44.7685349 114.653845,44.7137822 115.310878,44.6955313 C117.701749,44.6407785 120.092619,44.5677748 122.48349,44.531273 C123.432538,44.513022 124.381586,44.6042766 125.330633,44.6955313 C125.677401,44.7320331 126.042419,44.8962914 126.334434,45.0970515 C126.553445,45.2613098 126.827209,45.66283 126.772456,45.8270883 C126.6447,46.119103 126.316183,46.4841215 126.024168,46.5206233 C124.436338,46.7943871 124.436338,46.9768963 124.618848,48.5464755 C124.801357,50.2073092 124.691851,51.9228957 124.545844,53.6019804 C124.454589,54.6787847 124.418087,54.8247921 125.513143,54.9890504 C126.26143,55.0985559 127.009718,55.2080614 127.758006,55.3540688 C129.400589,55.6460835 130.130625,56.686386 129.729105,58.4384743 C128.269032,58.0734559 126.808958,57.7266884 125.348884,57.36167 C124.965615,57.2704154 124.600597,57.1061571 124.217327,57.0331535 C123.432538,56.8688952 123.049268,57.1974117 122.921512,58.0004522 C122.812006,58.6939872 122.611246,59.3692713 122.428737,60.0628062 C122.319232,60.0628062 122.227977,60.0628062 122.118471,60.0445553 C121.990715,59.2232639 121.808206,58.4202234 121.753453,57.598932 C121.716951,56.9966516 121.424936,56.8506443 120.913911,56.7958915 C118.52304,56.4856258 116.33293,56.9236479 114.197572,58.0917068 C112.500236,59.0225038 110.675144,59.8072934 108.831801,60.4278247 C107.42648,60.9205995 105.911654,61.1031087 104.415079,61.3221198 C104.086562,61.3768725 103.703293,60.9388504 103.338274,60.7380903 C103.630289,60.5190793 103.885802,60.2453154 104.214318,60.0810572 C105.546636,59.424024 106.897204,58.8034927 108.247772,58.1829614 C109.963358,57.36167 111.660694,56.4856258 113.412782,55.7373381 C115.858406,54.6787847 118.468287,54.5875301 121.078169,54.5145264 C121.187674,54.5145264 121.315431,54.5145264 121.625697,54.5145264 C121.625697,52.1054049 121.625697,49.7327853 121.625697,47.3784166 C119.453837,47.0316491 117.172472,46.6848816 114.872856,46.3016122 C114.471336,46.2286086 114.069816,46.1008521 113.668295,45.9913466 C113.55879,45.9548448 113.412782,45.8270883 113.339779,45.8635902 C111.678945,46.6848816 110.182369,45.5715754 108.594539,45.443819 C107.42648,45.3525644 106.258422,45.206557 105.090363,45.0605497 C104.05006,44.9327932 103.028009,44.7685349 101.969455,44.6042766 C102.224968,44.8962914 102.498732,45.3343135 102.882001,45.5898264 C104.177817,46.4476196 105.382377,47.5974276 107.170968,47.268911 C108.302525,47.0681509 109.19682,47.6886822 109.890355,48.4004681 C110.912406,49.4225196 111.7702,50.6088295 112.043963,52.087154 C112.116967,52.4339215 112.080465,52.9631982 111.861454,53.1457074 C111.642443,53.3464675 111.113166,53.3099657 110.766399,53.2187111 C109.543587,52.8901945 108.7953,51.9411467 108.120015,50.9920988 C107.718495,50.4263203 107.298724,50.3350657 106.659942,50.4993239 C105.254621,50.8460914 103.831049,51.1563571 102.389226,51.3571172 C101.148164,51.5396264 100.126112,52.1236559 99.049308,52.6894344 C98.4835295,52.9814491 97.8812491,53.2004602 97.2607178,53.474224 C98.0272565,53.9122461 98.8485479,54.0582534 99.742843,53.8209915 C101.951204,53.2552129 104.141315,52.6346816 106.349676,52.1054049 C106.951957,51.9593976 107.681993,51.5213755 108.302525,52.4339215 C105.820399,53.5837295 103.429529,54.7882902 100.947404,55.8285927 C99.3230718,56.5038768 97.3519724,55.6095817 96.8044448,54.0035007 C96.5854338,53.3647185 96.6584374,52.4704234 96.9504522,51.8498921 C97.224216,51.2658626 97.8995,50.7365859 98.5382822,50.481073 C100.290371,49.7692871 102.097212,49.1852577 103.958806,48.5464755 Z" id="Path"></path>
            <path d="M15.8981146,94.5022931 C15.8981146,95.3053336 15.9528673,96.126625 15.8981146,96.9296655 C15.6973545,99.6308017 13.6167495,100.433842 11.5178937,100.908366 C10.1125728,101.218632 8.57949549,101.072624 7.11942186,101.036123 C5.87835927,101.017872 5.18482429,99.9593183 4.38178379,99.2475324 C1.68064757,96.8384109 0.384832222,93.7357544 0.129319336,90.1768249 C0.111068415,89.8118065 0.0928174949,89.4285372 0.184072097,89.1000206 C0.76810155,86.9281611 1.44338561,84.7563016 1.9726623,82.584442 C2.2464261,81.5076377 2.35593163,80.3760807 2.41068439,79.2627745 C2.61144451,75.3935794 4.69204944,72.4186794 6.99166541,69.5715358 C7.72170223,68.6772407 8.48824089,67.8194474 9.30953231,66.998156 C9.60154703,66.7061413 10.1308237,66.6696394 10.4410894,66.3958756 C12.9232146,64.0780087 16.1901293,63.5122302 19.2015312,62.3806731 C19.5117968,62.2711676 19.8950662,62.1981639 20.16883,62.2894185 C20.4243428,62.3806731 20.7893613,62.8551971 20.7346085,62.9647026 C20.4243428,63.5852339 20.1140772,64.3517725 19.5665496,64.69854 C18.3619888,65.4833296 17.0296716,66.08561 15.7338563,66.6878904 C13.4159894,67.7829456 11.225879,69.0787609 9.56504519,71.0316094 C8.59774641,72.1631665 8.01371696,73.6232401 7.19242554,74.8825536 C5.89661019,76.9266567 5.40383534,79.1897708 5.58634454,81.5441396 C5.76885375,83.8255046 4.92931141,85.7783531 4.21752551,87.8407071 C3.50573961,89.9213121 3.0494666,92.0566697 4.16277275,94.3197839 C4.8380568,95.7068538 5.65934822,96.8019091 6.84565805,97.732706 C8.12322248,98.7365066 10.076071,98.7365066 11.5908974,97.6049495 C12.6494507,96.82016 13.6532514,95.9441158 14.6935538,95.1045735 C15.0038195,94.8673115 15.2958342,94.6300495 15.6060999,94.3745366 C15.6791035,94.4475403 15.7886091,94.4657912 15.8981146,94.5022931 Z" id="Path"></path>
            <path d="M56.396907,74.7730481 C55.7398739,74.0430113 55.2105972,73.4407309 54.5718149,72.728945 C55.5026119,72.053661 56.4151579,71.4513806 57.2912021,70.7760965 C60.1018438,68.604237 62.8759837,66.4141266 65.6866255,64.242267 C67.3292083,62.9829535 69.008293,61.7966437 71.070647,61.2856179 C72.0196949,61.0483559 72.91399,61.2308652 73.7717832,61.72364 C75.5603734,62.7639425 77.4037164,63.7312412 79.1740557,64.7897946 C79.9223434,65.2278167 80.5246238,64.9540529 81.1451551,64.6255364 C81.6926827,64.3152707 81.400668,63.9320014 81.0721514,63.6764885 C80.0683508,62.9099498 79.0462992,62.1616621 78.0059968,61.4498762 C77.3307127,60.9753523 76.582425,60.6285848 76.7101814,59.5882823 C76.8196869,58.7122381 77.0569489,58.0734559 78.1155023,58.0917068 C79.0828011,58.1099578 80.0500999,58.0369541 80.9991477,58.0369541 C83.8280404,58.0369541 86.5109257,57.4529246 88.9382981,55.9380982 C88.9747999,55.9198473 88.9747999,55.8285927 89.0478036,55.6825853 C86.9854496,55.3175669 84.9595974,56.5038768 82.6964833,55.7373381 C83.9557968,55.1533087 85.0326011,54.7152866 86.0364018,54.1677589 C86.9854496,53.6567332 87.8432429,53.0362019 88.7740398,52.5069252 C88.9382981,52.4156706 89.3215674,52.4886743 89.4858257,52.6164307 C91.3474196,54.0582534 91.6394343,56.6498841 89.2668147,58.1099578 C88.1170067,58.8217437 86.675184,59.0407547 85.3611177,59.4787768 C84.5033244,59.7707915 83.6455312,60.1540608 82.769487,60.3000682 C81.8934428,60.4460756 80.9626459,60.3365701 80.013598,60.5190793 C80.3786164,60.7928431 80.7618858,61.030105 81.0904023,61.3586216 C81.8934428,62.1616621 82.6964833,62.9647026 83.4265201,63.8407468 C84.0835533,64.6437873 83.2622618,65.2095658 82.9337453,65.8300971 C82.6234796,66.3958756 82.1489557,66.4323775 81.6014281,66.2316173 C81.4919226,66.1951155 81.3641661,66.1586137 81.2546606,66.1586137 C78.5900262,66.5053812 76.5094213,64.9723038 74.2463072,63.9867541 C73.6440268,63.7312412 72.9869937,63.548732 72.3482114,63.4027247 C72.1292004,63.3662228 71.8736875,63.566983 71.6364255,63.6582376 C69.1725513,64.6072854 67.6029721,66.6878904 65.6866255,68.3487241 C64.1170463,69.6992922 62.346707,70.8491002 60.6858733,72.0719119 C60.302604,72.3639266 59.9193346,72.6741923 59.4995635,72.9297051 C58.459261,73.5684874 57.4554604,74.1525168 56.396907,74.7730481 Z" id="Path"></path>
            <path d="M39.642562,69.0057573 C42.1795594,70.7395947 42.635713,73.4589818 41.0661338,76.0871144 C40.5368571,76.9996604 40.1718387,78.0947156 40.0805841,79.153269 C40.0075805,79.846804 40.573359,80.5950917 40.8288719,81.3251285 C41.266894,82.5661911 41.9786799,83.7159991 41.8144216,85.12132 C41.7779197,85.4133347 41.8326725,85.7236004 41.9239271,86.0156151 C42.6539639,88.5707439 41.485905,90.3775851 39.5878093,91.8924115 C38.8395215,92.4946918 38.1642375,93.151725 37.3794479,93.6992526 C36.9414258,94.0277691 36.3573964,94.1555256 35.8828724,94.4475403 C34.9703264,95.0133188 34.0760313,95.6155992 33.0539798,96.1448759 C33.5832565,95.5608465 34.0760313,94.9403152 34.6418098,94.3745366 C35.5908577,93.4437397 36.667662,92.6224483 37.5072044,91.6003967 C38.5840087,90.3045814 39.1680381,88.7715041 39.0402817,87.0376666 C38.9855289,86.1981243 38.8395215,85.3585819 38.7482669,84.6102942 C37.81747,84.9023089 36.9414258,85.2125746 36.0288798,85.4498365 C35.755116,85.5228402 35.4083485,85.3220801 35.0980829,85.2490764 C35.2623411,84.9935635 35.3900976,84.6832979 35.6091086,84.4825378 C35.992378,84.1540212 36.4851528,83.9532611 36.8684221,83.6247445 C37.9269755,82.7487003 38.1824884,81.9821617 37.6714626,80.7410991 C36.6129093,78.1859702 37.5254553,75.941107 38.6752633,73.7327456 C39.2410418,72.6376904 39.0767835,71.5243843 38.0912338,71.0498603 C37.4524516,70.7395947 36.7041639,70.5570855 35.974127,70.4840818 C33.5650055,70.2468198 31.3383933,69.4255284 29.2212865,68.3122223 C28.5642534,67.9654548 27.8342165,67.7281928 27.1954343,67.3449235 C26.9034196,67.1624143 26.7939141,66.7426431 26.5931539,66.4141266 C26.9399214,66.2863701 27.3049398,66.0308572 27.6152055,66.08561 C28.8562681,66.304621 30.0973307,66.6148867 31.3201423,66.8886505 C32.4882012,67.1624143 33.6562601,67.6004364 34.8243191,67.6369382 C35.3718467,67.6551891 35.974127,66.9799051 36.5034037,66.541883 C37.9634774,65.3738241 39.3870492,64.1327615 40.8836246,63.0194554 C41.5406578,62.5266805 41.9604289,62.8186952 42.0516835,63.6582376 C42.0699345,63.8407468 42.0699345,64.023256 42.1064363,64.2057652 C42.3802001,65.7388425 41.8874253,66.9434032 40.5916099,67.8559493 C40.2448424,68.147964 39.9710786,68.6224879 39.642562,69.0057573 Z" id="Path"></path>
            <path d="M16.9931698,99.5030453 C17.7962103,99.0285213 18.4897453,98.5904993 19.2197821,98.188979 C21.6836564,96.7836581 23.14373,94.6665514 23.8737668,91.9654151 C24.1292797,90.9981164 23.8920177,90.1403231 23.2897373,89.4285372 C21.6654054,87.4756887 20.5886011,85.340331 20.8806159,82.6939476 C21.0266232,81.3251285 20.9536195,79.9015567 21.3368889,78.6057414 C21.7931619,77.0179113 21.0631251,75.9228561 20.1870809,74.9373064 C19.4570441,74.116015 18.3619888,73.5867383 17.4676937,72.8932033 C17.2121808,72.6924432 17.0661735,72.3639266 16.8654134,72.0901628 C17.1939299,71.9076536 17.5041956,71.6156389 17.8327121,71.597388 C20.0958263,71.4148787 21.8296637,72.5464358 23.1802318,74.1342659 C24.1475306,75.265823 24.8775674,76.6163911 25.5346006,77.9487083 C25.8266153,78.5509886 25.7718625,79.37228 25.6988588,80.065815 C25.6076042,80.9053574 25.3155895,81.7083979 25.1148294,82.5296893 C24.5490509,84.7380507 24.9505711,86.7091501 26.4836484,88.4247366 C27.6517073,89.7388028 28.4547478,91.2353783 28.6920098,93.0057176 C28.7102607,93.1152231 28.7650135,93.2612305 28.7285116,93.3524851 C28.1627331,94.6665514 27.7977147,96.1083741 26.5566521,97.039171 C26.3923938,97.1669275 26.2281355,97.3129348 26.1551319,97.495444 C25.4980987,99.0285213 24.4212944,99.4300416 22.8517153,99.1745287 C21.9026674,99.0102704 20.8623649,99.3752888 19.8768152,99.5030453 C19.0372729,99.6125508 18.2159815,99.7038054 17.3764391,99.7768091 C17.2121808,99.79506 17.0844244,99.576049 16.9931698,99.5030453 Z" id="Path"></path>
            <path d="M46.1946425,158.599526 C47.3809523,159.238308 47.8007235,160.004846 47.3992032,161.026898 C46.5049081,163.271761 45.5193584,165.480123 44.5703106,167.706735 C44.2782958,168.382019 43.9862811,169.039052 43.6942664,169.714336 C43.2379934,170.77289 44.1687903,171.904447 45.2273437,172.670985 C45.9756314,173.218513 46.8151738,173.76604 47.3261995,174.514328 C48.5307603,176.266417 48.1839928,176.886948 46.6874173,177.635236 C46.7421701,178.456527 46.3954026,178.876298 45.5011075,179.077058 C43.5300081,179.533331 41.8326725,178.71204 40.2083406,177.908999 C38.3284958,176.978202 36.4851528,175.883147 34.8243191,174.605583 C33.3459945,173.492277 32.0684301,172.086956 31.4844006,170.207111 C31.174135,169.20331 31.2836405,168.217761 31.7034117,167.286964 C32.7072123,165.005599 33.7292638,162.742485 34.7148135,160.461119 C34.9885773,159.804086 35.1893375,159.128802 35.4265994,158.453518 C36.1931381,158.909791 36.6311602,160.150854 36.2661418,161.191156 C35.6821123,162.906743 34.9885773,164.567577 34.386297,166.264912 C34.0577804,167.177458 33.7292638,168.090004 33.4920019,169.039052 C33.3459945,169.623082 33.5285037,170.115856 34.1672859,170.499126 C36.6129093,171.959199 38.9855289,173.510528 41.4129013,174.988852 C41.7596688,175.189612 42.2706946,175.244365 42.6904658,175.171361 C43.2197424,175.080107 43.7125173,174.806343 44.4243032,174.532579 C43.8585247,173.966801 43.4205026,173.437524 42.9094768,172.999502 C41.0478829,171.448174 40.7011154,169.40407 41.8144216,167.341716 C43.0189823,165.078602 44.0775357,162.724234 45.2090928,160.424618 C45.5193584,159.785835 45.8661259,159.201806 46.1946425,158.599526 Z" id="Path"></path>
            <path d="M152.086483,95.0680716 C151.721464,95.3235845 151.24694,95.5060937 150.991428,95.8528612 C150.261391,96.8384109 149.604358,97.8604624 148.983826,98.9190158 C148.691812,99.4117907 148.618808,100.050573 148.308542,100.543348 C147.341243,102.076425 146.337443,103.591251 145.29714,105.087827 C144.950373,105.580602 144.567104,106.128129 144.056078,106.383642 C143.599805,106.620904 142.979273,106.474897 142.32224,106.511399 C142.030226,107.168432 140.460646,107.73421 139.219584,107.350941 C139.73061,106.474897 140.205134,105.617104 140.752661,104.795812 C142.340491,102.404942 143.946572,100.014071 145.552653,97.6414514 C146.008926,96.9661673 146.48345,96.2908833 146.957974,95.6338501 C147.341243,95.0863225 147.377745,94.6300495 146.921472,94.0095182 C145.260639,91.7464041 144.29334,89.1730243 143.745812,86.4171353 C143.271288,83.9897629 143.234786,81.5806414 143.490299,79.1350181 C143.545052,78.6787451 143.526801,78.1677193 143.727561,77.7661991 C143.928321,77.3464279 144.348092,77.0179113 144.658358,76.634642 C144.804366,76.6711438 144.950373,76.7258966 145.114631,76.7623984 C145.224137,77.4741843 145.333642,78.1859702 145.461399,78.8795052 C145.625657,79.8650549 145.698661,80.8688555 145.935923,81.8179034 C146.428697,83.8255046 146.903221,85.8513568 147.615007,87.8042053 C148.034778,88.9722642 148.85607,89.9943157 149.531354,91.0528691 C150.316143,92.3669354 151.173937,93.6627507 152.086483,95.0680716 Z" id="Path"></path>
            <path d="M53.3125014,61.3586216 C52.8927303,59.5517805 53.3307524,58.292467 54.7360732,57.5806811 C57.6744714,56.0658547 60.6493714,54.6422829 63.6242715,53.2004602 C70.5413703,49.8240399 77.9147422,48.199708 85.5618778,47.7981877 C86.7116858,47.743435 87.9162466,48.1814571 89.0660545,48.4917227 C89.8143423,48.6924828 90.2158625,49.331265 90.1246079,50.1160546 C90.0333533,50.9008442 90.1976116,51.8133902 89.0478036,52.1601577 C87.8797447,52.5069252 86.8394423,53.1274565 85.4888741,52.8171908 C84.7405864,52.6529326 83.8462913,53.0727037 83.0432508,53.3099657 C82.3679667,53.5107258 81.8204391,53.5654786 81.382417,52.9266964 C83.3352655,52.0506522 85.288114,51.174608 87.2409625,50.2985638 C87.2227116,50.1890583 87.1862097,50.0795528 87.1679588,49.9700473 C85.1603576,50.2073092 83.1162545,50.3168147 81.1451551,50.7000841 C78.8272882,51.1381062 76.5641741,51.8316411 74.282809,52.3974197 C71.9649421,52.9814491 69.6470752,53.5289767 67.3474592,54.1860099 C66.5991715,54.38677 65.9238874,54.843043 65.2121016,55.1715596 C62.7299764,56.3578694 60.2296003,57.5076774 57.7839769,58.74874 C56.2691505,59.5152786 54.8638297,60.4460756 53.3125014,61.3586216 Z" id="Path"></path>
            <path d="M149.896372,0.0720308248 C149.567856,0.473551074 149.367096,0.72906396 149.148085,0.966325925 C148.527553,1.64160998 147.907022,2.33514496 147.231738,2.95567625 C146.903221,3.2659419 146.446948,3.4484511 145.972424,3.74046583 C146.008926,3.83172043 146.100181,4.0689824 146.154934,4.19673884 C145.88117,4.43400081 145.607406,4.63476093 145.406646,4.89027382 C145.114631,5.31004499 144.877369,5.766318 144.621856,6.20434009 C144.530602,6.16783825 144.439347,6.14958732 144.348092,6.11308548 C144.457598,6.33209653 144.567104,6.55110757 144.731362,6.91612598 C143.91007,6.49635481 143.654558,6.78836954 143.672808,7.50015544 C143.672808,7.66441372 143.618056,7.88342476 143.50855,8.01118121 C142.70551,8.88722539 141.938971,9.83627325 141.044676,10.6210628 C138.416543,12.9206788 135.715407,15.1290402 133.105526,17.4469071 C131.389939,18.9617335 129.546596,19.3085009 127.484242,18.3959549 C126.918463,18.140442 126.46219,17.6659181 126.005917,17.2096451 C125.896412,17.1001396 126.115423,16.4978592 126.133674,16.4978592 C127.84926,16.6438666 128.707054,15.2567966 129.82036,14.3807524 C131.900965,12.7381696 133.963319,11.0590849 136.007422,9.36174932 C137.230234,8.33969778 138.361791,7.22639163 139.602853,6.22259101 C140.716159,5.32829591 141.92072,4.50700449 143.088779,3.68571307 C144.402845,2.77316705 145.716912,1.84237011 147.06748,0.984576846 C147.66976,0.601307517 148.345044,0.30929279 149.020328,0.0172780636 C149.239339,-0.0374746977 149.494852,0.0537799044 149.896372,0.0720308248 Z" id="Path"></path>
            <path d="M97.3884743,115.45435 C98.9033006,114.66956 100.545883,114.286291 102.206717,114.395796 C104.031809,114.505302 105.929905,114.706062 107.645492,115.290091 C111.751949,116.65891 114.854605,119.414799 117.190723,123.046733 C118.12152,124.506806 118.979313,126.003382 119.928361,127.463455 C120.183874,127.864976 120.585394,128.15699 120.89566,128.485507 C119.855357,128.649765 118.52304,128.065736 117.482738,126.934179 C115.767151,125.090836 114.088066,123.210991 112.335978,121.422401 C110.748148,119.798069 108.81355,118.648261 106.696444,117.84522 C105.181617,117.279442 103.630289,116.768416 102.06071,116.421649 C100.947404,116.166136 99.7793448,116.275641 98.6295368,116.147885 C98.1915148,116.111383 97.7534927,115.892372 97.3337215,115.764615 C97.3519724,115.636859 97.3702233,115.545604 97.3884743,115.45435 Z" id="Path"></path>
            <path d="M23.3992429,30.9708391 C24.8228147,30.0035403 26.2281355,29.6020201 27.7612129,29.4377618 C30.6813601,29.0909943 33.3277436,30.1312968 36.0106289,30.9343373 C37.3976988,31.3541084 38.7482669,31.919887 40.117086,32.4126618 C40.2083406,32.4491636 40.2813443,32.4856655 40.3725989,32.5221673 C41.0478829,32.9419385 41.9786799,33.4529643 41.6866651,34.2560048 C41.4676541,34.8582851 40.5003553,35.1868017 39.8433222,35.6065729 C39.7338166,35.6795766 39.5148056,35.588322 39.4053001,35.6613256 C38.054732,36.3913625 36.8501712,35.7708312 35.6273596,35.2963072 C33.6745111,34.5297686 31.7034117,33.7997318 29.7140613,33.0879459 C27.6699582,32.3944109 25.6441061,31.7373778 23.3992429,30.9708391 Z" id="Path"></path>
            <path d="M35.536105,13.6324647 C37.2516915,13.9974831 39.0037798,14.2164942 40.6646136,14.7275199 C43.6395136,15.6583169 45.5923621,17.921431 47.3444505,20.3670543 C47.8007235,21.0058365 48.2752474,21.6446188 48.6402658,22.3381537 C49.0965388,23.195947 48.7315204,23.7982274 47.7642216,23.9259838 C46.085137,24.1449949 44.6433142,23.889482 43.4935063,22.4111574 C42.0881854,20.6043163 40.5551081,18.8704789 38.9855289,17.2096451 C37.8904737,16.0415862 36.6494111,15.0377856 35.4813522,13.9609813 C35.4996031,13.8514757 35.517854,13.7419702 35.536105,13.6324647 Z" id="Path"></path>
            <path d="M141.701709,108.884018 C142.267488,109.103029 142.888019,109.212535 143.362543,109.541052 C144.165583,110.070328 144.89562,110.70911 145.625657,111.366144 C147.231738,112.826217 149.111583,113.811767 151.082682,114.66956 C152.980778,115.490852 154.80587,116.476401 156.649213,117.407198 C156.79522,117.480202 156.849973,117.699213 156.941228,117.84522 C157.050733,118.04598 157.233242,118.264991 157.233242,118.465752 C157.233242,118.703014 157.123737,119.03153 156.959479,119.177537 C156.667464,119.414799 156.247693,119.506054 155.937427,119.725065 C155.280394,120.21784 154.313095,120.21784 153.564807,119.834571 C152.871272,119.469552 152.068232,119.341796 151.392948,118.940276 C149.695612,117.954726 147.943524,117.005678 146.428697,115.782866 C145.424897,114.979826 144.786115,113.720512 144.019576,112.643708 C143.271288,111.621656 142.559502,110.563103 141.847716,109.522801 C141.756462,109.376793 141.683458,109.230786 141.592204,109.066528 C141.628705,109.030026 141.665207,108.957022 141.701709,108.884018 Z" id="Path"></path>
            <path d="M152.798269,20.5678145 C152.615759,20.7685746 152.43325,20.9510838 152.268992,21.1700948 C151.958726,21.5716151 151.684963,22.0278881 151.319944,22.3929065 C150.973177,22.739674 150.516904,22.976936 150.115383,23.2689507 C150.024129,23.3419544 149.951125,23.414958 149.85987,23.5062126 C147.633258,25.6050685 145.059878,27.1563967 142.12148,27.9411863 C140.13213,28.470463 138.215783,27.9229354 136.627953,26.4993636 C136.554949,26.4446108 136.518448,26.3533562 136.463695,26.2803525 C136.427193,26.2073489 136.408942,26.1160943 136.354189,25.951836 C136.500197,25.9153341 136.627953,25.8605814 136.773961,25.8605814 C139.584602,25.8240795 141.902469,24.345755 144.402845,23.3602053 C145.351893,22.976936 146.300941,22.5571648 147.249989,22.1738955 C148.673561,21.589866 150.097132,20.9875856 151.538955,20.440058 C151.885723,20.3123016 152.287243,20.2940507 152.670512,20.2392979 C152.707014,20.3488034 152.743516,20.4583089 152.798269,20.5678145 Z" id="Path"></path>
            <path d="M111.459934,54.4780246 C111.058414,54.7517884 110.711646,54.9707994 110.38313,55.2080614 C107.992259,56.9236479 105.400628,58.292467 102.681241,59.3692713 C101.07516,60.0080535 99.7245921,59.5335296 98.5565332,58.3472197 C98.3922749,58.1829614 98.3922749,57.8726958 98.3010203,57.6354338 C98.5382822,57.6171829 98.7755442,57.5806811 99.0128062,57.5624301 C99.5968356,57.4894265 100.235618,57.5441792 100.783145,57.3434191 C103.812798,56.2848657 106.8242,55.1715596 109.853853,54.0582534 C110.419631,53.8574933 110.948908,53.7479878 111.459934,54.4780246 Z" id="Path"></path>
            <path d="M157.105486,77.5289371 C155.20739,77.6201917 153.364047,76.1236162 153.838571,73.641491 C154.185339,71.8711518 154.240091,70.0460597 154.440851,68.2392186 C154.477353,67.9654548 154.641612,67.7281928 154.751117,67.4726799 C155.00663,67.6004364 155.335147,67.6734401 155.517656,67.8742002 C156.722217,69.1700155 156.630962,70.7395947 156.284194,72.2909229 C156.083434,73.1487162 155.754918,73.9700076 155.535907,74.8095499 C155.389899,75.3935794 155.426401,75.9228561 156.247693,75.9046052 C156.79522,75.8863542 157.342748,75.941107 157.872025,75.8681033 C158.474305,75.7768487 159.094836,75.8133506 159.240844,76.4156309 C159.405102,77.1091659 158.76632,77.2916751 158.18229,77.3829297 C157.835523,77.4376825 157.470504,77.4741843 157.105486,77.5289371 Z" id="Path"></path>
            <path d="M19.3292876,70.7760965 C19.4387931,70.6300892 19.475295,70.5570855 19.5117968,70.5570855 C22.4136932,70.44758 23.2897373,67.9654548 24.6403055,66.0673591 C25.1513312,65.3373222 25.5346006,64.4977799 26.0821282,63.7312412 C26.4106447,64.7532928 26.5201503,65.7935953 26.1551319,66.8156468 C25.8266153,67.7464437 25.443346,68.6954916 24.9323202,69.5350339 C23.7460104,71.5426352 21.7201582,72.1266646 19.6395533,71.1046131 C19.5300477,71.0681113 19.4570441,70.9221039 19.3292876,70.7760965 Z" id="Path"></path>
            <path d="M88.4820251,118.83077 C86.7481876,118.776017 85.981649,117.571456 86.656933,116.202637 C86.9124459,115.673361 87.3139662,115.198837 87.7337374,114.779066 C88.263014,114.249789 88.9382981,114.432298 89.412822,114.833818 C89.869095,115.25359 90.5991319,115.65511 89.9786006,116.549405 C89.5953312,117.096933 89.4493239,117.808718 89.1208073,118.392748 C88.956549,118.666512 88.5915306,118.757766 88.4820251,118.83077 Z" id="Path"></path>
            <path d="M163.639315,69.8270487 C163.183042,70.4110781 162.909279,71.0498603 162.416504,71.3418751 C161.832474,71.6886426 160.883426,71.1593659 160.536659,70.4840818 C160.35415,70.1373143 160.208142,69.7722959 160.062135,69.4072775 C159.806622,68.7867462 159.843124,68.2209677 160.463655,67.8194474 C161.102437,67.3996763 161.814223,67.2536689 162.361751,67.8376983 C162.836275,68.3304732 163.146541,69.0422591 163.639315,69.8270487 Z" id="Path"></path>
            <path d="M150.316143,67.4909309 C150.64466,67.8194474 151.100933,68.0932112 151.301693,68.5129824 C151.557206,69.0057573 151.648461,69.6080376 151.757966,70.1555652 C151.885723,70.7760965 151.356446,71.3783769 150.735915,71.360126 C149.786867,71.3236241 149.312343,70.6483401 148.947324,69.9000524 C148.582306,69.0970119 148.910823,68.4217278 149.421848,67.8194474 C149.586107,67.6734401 149.85987,67.6551891 150.316143,67.4909309 Z" id="Path"></path>
            <path d="M28.6737589,73.2034689 C28.7467626,72.4369303 29.111781,72.0901628 29.7505632,72.1084137 C30.7726147,72.1266646 31.5574043,72.6376904 32.1414338,73.4042291 C32.5977068,74.0065094 32.3969466,74.6452917 31.8859209,75.028561 C31.6121571,75.2293211 30.9916258,75.1745684 30.6448583,75.0103101 C30.0425779,74.7182953 29.5133012,74.2620223 29.0022754,73.8240002 C28.8197662,73.659742 28.7467626,73.3494763 28.6737589,73.2034689 Z" id="Path"></path>
            <path d="M162.54426,77.6749445 C161.266696,80.3760807 158.912327,80.996612 156.484955,80.2848261 C156.320696,80.2300733 156.065183,79.9745604 156.101685,79.8833058 C156.156438,79.7007966 156.357198,79.5182874 156.521456,79.390531 C156.59446,79.3357782 156.758718,79.3175273 156.868224,79.3540291 C158.748069,79.8103021 160.262895,78.916007 161.759471,77.9852101 C161.94198,77.8574537 162.179242,77.8027009 162.54426,77.6749445 Z" id="Path"></path>
        </g>
    </g>
</svg>