<?xml version="1.0" encoding="UTF-8"?>
<svg width="531px" height="362px" viewBox="0 0 531 362" version="1.1" xmlns="http://www.w3.org/2000/svg" xmlns:xlink="http://www.w3.org/1999/xlink">
    <title>global-mov</title>
    <g id="Page-1" stroke="none" stroke-width="1" fill="none" fill-rule="evenodd">
        <g id="global-mov" transform="translate(0.695963, 0.566551)" fill="#000000" fill-rule="nonzero">
            <path d="M498.536314,298.507962 C498.242084,298.140175 497.947855,297.809167 497.653626,297.478159 C497.727183,297.367823 497.80074,297.18393 497.837519,297.18393 C499.602895,297.514938 499.933903,295.602447 501.184378,295.013989 C502.618746,294.315194 503.832442,293.138277 505.082916,292.108474 C506.406948,291.041893 507.767759,289.975311 508.981455,288.798394 C511.188175,286.665231 513.615567,284.679183 515.344164,282.251791 C516.741754,280.302522 516.741754,277.691236 516.30041,275.227066 C515.564836,271.071076 514.829263,266.878308 514.09369,262.722319 C513.652346,260.258148 513.211002,257.793978 512.806436,255.329807 C512.14442,251.284154 511.629519,247.2385 510.820388,243.229626 C509.68025,237.455375 508.356218,231.717903 507.032186,226.01721 C505.81849,220.794639 504.568015,215.608847 503.207204,210.423055 C501.625722,204.464911 499.823567,198.543545 498.131748,192.62218 C496.99161,188.613305 496.035364,184.604431 494.821668,180.632335 C493.056292,174.747748 491.107023,168.89994 489.304868,163.052132 C488.606074,160.808633 488.127951,158.491577 487.429156,156.2113 C486.693583,153.857465 485.737338,151.540409 484.964986,149.186575 C481.912356,139.918351 478.896506,130.650127 475.880655,121.381902 C473.894607,115.313422 471.835002,109.244942 469.95929,103.139684 C468.157135,97.3286544 466.612431,91.4808463 464.847055,85.669817 C463.192015,80.153017 461.279524,74.7097743 459.624484,69.1929743 C458.668239,66.0300089 458.116559,62.7199289 457.123535,59.5569635 C455.836282,55.4009742 454.254799,51.3185422 452.857209,47.1625528 C450.35626,39.7332621 448.002425,32.3039714 445.464697,24.9114594 C444.177444,21.1600354 442.559183,17.555726 441.124815,13.8778593 C440.389241,12.0021473 439.800783,10.0896567 439.028431,7.80937932 C436.637817,9.390862 434.283983,10.6781153 432.224377,12.2963767 C424.537636,18.4016354 417.034788,24.8011234 409.237711,30.7960461 C400.668281,37.3794274 391.914959,43.7789155 383.088079,50.0312888 C379.18954,52.7896888 374.996772,55.0699662 369.958094,55.1803022 C366.464121,55.2538595 363.337934,54.0769422 360.43242,52.3851235 C356.313209,49.9945102 352.377892,47.3096675 348.332238,44.7719395 C343.771684,41.9399821 339.100793,39.2183608 334.613796,36.3128461 C327.515513,31.7155128 320.454009,27.1181794 313.502841,22.3369527 C307.103353,17.9602914 300.814201,13.362958 293.715918,10.0896567 C291.251747,8.949518 288.677241,7.95649399 286.029177,7.25769932 C284.705145,6.92669132 283.050105,7.14736332 281.79963,7.66226466 C273.083086,11.1930167 265.359566,16.4891447 257.488931,21.4910434 C251.751459,25.1321314 245.94043,28.6261047 240.239737,32.2671928 C234.35515,36.0553954 228.617678,40.1378275 222.659534,43.8524728 C218.724217,46.2798648 214.568227,48.3762488 210.33868,50.3255182 C207.138936,51.7966648 203.792078,52.9000248 200.445219,54.0401635 C198.164942,54.8492942 195.884664,54.7021795 193.714723,53.5252622 C187.572686,50.2519608 181.504206,46.8315448 175.288611,43.7421368 C170.249934,41.2411875 165.064142,39.0712461 159.951907,36.7174114 C154.287992,34.1429048 148.624078,31.5316194 142.996942,28.9203341 C135.530872,25.4263607 128.101581,21.9323874 120.635512,18.438414 C119.86316,18.0706274 119.237923,17.99707 118.428792,18.8429794 C115.118712,22.3369527 112.985549,26.5664994 110.815608,30.7592674 C108.82956,34.5106914 106.917069,38.3724515 105.593037,42.3813261 C102.172621,52.4954595 99.0832133,62.7199289 95.920248,72.9076196 C93.3457413,81.1828196 91.0286853,89.531577 88.307064,97.7699984 C85.2544346,107.038222 81.9075759,116.269668 78.6342746,125.464334 C75.2138586,135.137124 71.7934425,144.773135 68.2259119,154.409145 C66.5340932,159.006479 64.4377092,163.456697 62.6723332,168.017252 C59.8771545,175.152313 57.2290905,182.397711 54.3971331,189.532772 C51.6387331,196.594276 48.7332185,203.582223 45.9012611,210.606948 C43.1060824,217.558116 40.4212398,224.546063 37.5525037,231.460452 C35.4928984,236.388794 33.2126211,241.206799 31.116237,246.13514 C29.681869,249.518778 28.4313944,252.975972 27.033805,256.35961 C25.2316504,260.736271 23.282381,264.965818 21.4434477,269.195364 C19.3838423,274.01337 17.434573,278.794596 16.220877,283.94361 C14.565837,290.894778 12.248781,297.698831 10.1891756,304.539663 C10.1156183,304.760335 10.1156183,305.017786 10.042061,305.679802 C14.0509356,306.819941 18.0598103,308.033637 22.1054637,309.026661 C26.592461,310.130021 31.116237,310.939151 35.6032344,312.07929 C44.2094424,314.249231 52.7420931,316.603066 61.3115225,318.809786 C72.3451226,321.641743 83.2683866,324.657594 93.8974213,328.850362 C103.533432,332.675343 113.316557,336.169317 122.915789,340.141413 C129.021048,342.642362 134.905635,345.694991 140.827,348.563727 C141.783246,349.04185 142.739491,349.777423 143.364728,350.623333 C143.842851,351.24857 144.210638,352.756495 143.87963,353.050725 C142.886606,353.933413 141.599352,354.816101 140.348878,354.926437 C136.781347,355.257445 133.802275,353.234618 130.712867,351.910586 C123.246797,348.674063 115.891064,345.216869 108.351437,342.201018 C101.032483,339.295503 93.5664133,336.794554 86.1371226,334.14649 C81.4294533,332.49145 76.6850052,330.83641 71.9037786,329.365263 C66.9386585,327.857338 61.8999812,326.606863 56.8613038,325.31961 C49.8365785,323.517455 42.7750744,321.752079 35.7135704,320.023482 C31.0794584,318.920122 26.4085677,318.000655 21.7744557,316.823738 C19.5677357,316.272058 17.4713517,315.242255 15.3014103,314.506682 C13.6463703,313.955002 11.9913303,313.366543 10.2995116,313.072314 C6.91587427,312.483855 4.70915427,310.277135 2.64954892,307.812965 C2.06109025,307.11417 1.65652492,306.268261 1.14162358,305.532687 C-0.108851088,303.80409 -0.255965755,302.001935 0.332492914,299.979109 C2.02431159,294.462309 3.56901559,288.945509 5.26083427,283.428708 C6.73198094,278.610703 8.20312761,273.829476 9.82138895,269.085028 C10.593741,266.84153 11.8442156,264.745146 12.7269036,262.501647 C13.4992556,260.515599 13.8670423,258.308879 14.7129516,256.35961 C16.4047703,252.534628 18.317261,248.856762 20.082637,245.068559 C20.413645,244.332986 20.3768663,243.450298 20.7814317,242.751503 C21.2227757,241.979151 21.958349,241.353914 22.5468077,240.61834 C21.296333,239.404644 23.2456023,235.322212 26.0775597,233.924623 C25.930445,234.402746 25.7833304,234.807311 25.6362157,235.248655 C25.709773,235.285434 25.7833304,235.358991 25.8568877,235.39577 C26.2246744,234.954426 26.592461,234.513082 27.3280344,233.667172 C26.2982317,233.409722 25.5258797,233.225828 24.5328557,233.005156 C24.937421,232.232804 25.2316504,230.98233 26.040781,230.320314 C26.813133,229.658298 28.137165,229.621519 29.3876397,229.253732 C28.7624024,228.885946 28.1003864,228.738831 27.7693784,228.297487 C27.4383704,227.892922 27.364813,227.230906 27.1809197,226.642447 C27.916493,226.384996 28.4313944,226.201103 29.4979757,225.796538 C28.6520664,225.649423 28.357837,225.575866 27.8797144,225.502308 C28.1003864,225.060964 28.2842797,224.61962 28.5417304,224.251834 C29.1669677,223.332367 29.8657624,222.560015 30.012877,221.272762 C30.1967704,219.433828 31.8518104,219.39705 33.5804077,219.6545 C32.7344984,218.735034 32.0724824,217.962682 31.336909,217.153551 C31.888589,215.903076 31.888589,215.903076 34.8308824,216.417978 C34.7941037,215.682404 34.7573251,214.910052 34.6837677,213.806692 C33.8010797,214.321594 33.1022851,214.726159 32.3667117,215.167503 C32.2563757,215.130724 32.1828184,215.093946 32.0724824,215.057167 C32.4034904,214.542266 32.6609411,214.027364 33.0655064,213.58602 C33.4332931,213.144676 33.9481944,212.850447 34.3159811,212.519439 C34.9044397,212.48266 35.5296771,212.445882 36.4859224,212.372324 C35.3457837,211.710308 34.6102104,211.268964 33.8378584,210.82762 C33.8378584,210.643727 33.8010797,210.459834 33.8010797,210.27594 C34.7205464,210.092047 35.6767917,209.908154 36.8904877,209.687482 C36.5962584,208.878351 36.2284717,207.81177 35.7135704,206.377401 C36.7065944,206.745188 37.4789464,207.002639 38.2512984,207.296868 C38.3248557,207.186532 38.3984131,207.039418 38.4719704,206.929082 C37.8099544,206.524516 37.1111597,206.083172 36.4859224,205.678607 C37.0743811,204.795919 37.6996184,203.876452 38.2880771,202.920207 C38.3984131,202.736313 38.3616344,202.368527 38.2512984,202.147855 C37.6996184,201.044495 37.6628397,200.272143 39.1339864,199.977913 C39.6488877,199.867577 40.0902317,199.536569 40.5683544,199.315897 C40.3844611,199.132004 40.2373464,198.948111 40.0534531,198.764217 C39.6121091,198.69066 39.2075437,198.617103 38.6190851,198.506767 C39.9798957,196.263268 41.3039278,194.166884 42.5544024,192.144057 C42.6647384,192.144057 42.2601731,192.107279 42.0027224,192.0705 C42.2969518,189.679887 43.4370904,187.988068 45.9380398,187.436388 C45.2760238,187.583503 44.6140078,187.693839 43.9519918,187.840953 C42.9589678,184.420537 47.1885144,183.684964 47.3356291,180.779449 C46.9678424,180.779449 46.5632771,180.779449 46.0851544,180.779449 C47.0781784,178.609508 47.9976451,176.586681 49.1010051,174.122511 C48.8435545,173.276601 49.3584558,172.062905 50.2411438,170.885988 C50.6457091,170.371087 50.9031598,169.709071 51.1238318,169.083833 C51.6755118,167.502351 52.1168558,165.884089 52.7420931,164.339385 C53.4041091,162.647567 54.1396825,161.029305 54.9120345,159.374265 C54.9855918,159.227151 55.5740505,159.300708 56.1257305,159.227151 C54.9488131,157.130767 56.5302958,155.65962 57.2658692,153.967801 C58.2956718,151.540409 59.2151385,149.076239 60.1346052,146.612068 C61.5321945,142.860644 62.8562265,139.035663 64.2905945,135.321017 C64.5480452,134.69578 65.1732825,134.180879 65.6146265,133.665977 C65.5410692,133.298191 65.2836185,132.820068 65.3939545,132.452281 C66.9754372,128.002062 68.6304772,123.551844 70.2119599,119.101625 C71.2785412,116.159332 72.1980079,113.143481 73.3013679,110.237966 C73.5955972,109.465614 74.4047279,108.840377 74.9564079,108.178361 C73.5955972,107.773796 74.6253999,106.376206 74.8828506,105.530297 C75.7655386,102.551225 76.9056772,99.6457104 77.9354799,96.6666384 C80.2525359,89.862585 82.5695919,83.021753 84.8130906,76.2176996 C86.7623599,70.3331129 88.5645146,64.4485262 90.513784,58.5639395 C91.5803653,55.3641955 92.9043973,52.2380088 94.0813146,49.0750435 C94.8904453,46.9051022 95.5524613,44.6248248 96.4351493,42.4916621 C97.9798533,38.8137955 99.671672,35.2094861 101.253155,31.5683981 C102.246179,29.2145634 103.055309,26.8239501 104.048333,24.4701154 C105.188472,21.7852727 106.402168,19.10043 107.652643,16.452366 C108.866339,13.9514167 111.404067,13.362958 113.684344,12.4067127 C117.546104,10.82523 121.297528,11.818254 124.865059,13.2894007 C131.190989,15.8639074 137.369805,18.7326434 143.5854,21.527822 C150.941134,24.8379021 158.186531,28.2950967 165.579043,31.4948408 C175.619619,35.8715021 185.549859,40.4320568 194.965198,46.0224142 C196.767352,47.0889955 198.275278,47.0154382 200.114211,46.2798648 C206.697592,43.5950221 212.729294,39.9539341 218.577102,35.9082808 C223.358329,32.5614221 228.507342,29.6926861 233.435683,26.5664994 C237.334222,24.0655501 241.122425,21.3807074 245.057742,18.9533154 C253.222606,13.914638 261.019683,8.36105933 269.699449,4.13151264 C272.715299,2.66036597 275.657593,1.48344863 278.967673,0.968547295 C284.337358,0.122637958 289.228921,1.70412063 294.083705,3.65338997 C304.234617,7.66226466 313.171833,13.7307447 321.961934,20.093454 C327.736185,24.2862221 333.878222,28.0376461 339.909924,31.8626274 C347.817337,36.8645261 355.835086,41.7193101 363.705721,46.7212088 C365.94922,48.1555768 367.972046,48.1923555 370.06843,46.6844302 C375.585231,42.7491128 381.065252,38.8137955 386.545273,34.8416994 C391.510393,31.2373901 396.585849,27.7434167 401.403855,23.9184354 C407.435556,19.1372087 413.136249,13.9881953 419.167951,9.24374733 C423.029711,6.22789665 427.148921,3.54305397 431.268132,0.858211294 C433.548409,-0.612935379 436.196473,0.159416625 438.623865,0.600760627 C442.228175,1.22599796 445.096911,3.13848864 446.678393,6.55890465 C449.731023,13.1790647 453.041103,19.762446 455.689167,26.5297207 C458.778575,34.3635768 461.500196,42.3813261 464.001146,50.4358542 C468.01002,63.3451662 471.577551,76.3648143 475.47609,89.310905 C478.896506,100.712292 482.464036,112.113678 486.105124,123.441508 C488.054394,129.546767 490.518564,135.468132 492.504612,141.536612 C495.299791,150.069263 497.947855,158.638692 500.55914,167.2449 C504.273786,179.455417 507.914874,191.702713 511.482404,203.986788 C512.475428,207.443983 513.137444,210.974735 514.020132,214.468708 C514.866042,217.778788 515.822287,221.015311 516.668196,224.325391 C518.029007,229.768634 519.31626,235.248655 520.640292,240.691898 C522.552783,248.452196 524.502052,256.175716 526.340986,263.972794 C527.59146,269.3057 528.915492,274.638607 529.761402,280.08185 C530.607311,285.451535 529.320058,287.143354 524.02393,288.982287 C522.037882,289.681082 520.566735,290.747663 519.463375,292.439482 C519.353039,292.623375 519.132367,292.77049 518.911695,292.880826 C516.263631,294.131301 514.866042,296.852922 512.401871,298.360847 C510.268708,299.684879 508.135546,300.935354 506.039162,302.296165 C505.303588,302.774287 504.751908,303.583418 504.016335,304.061541 C503.501434,304.429327 502.729082,304.392549 502.177402,304.723557 C501.368271,305.201679 500.669476,305.826917 499.897124,306.378597 C498.867322,307.11417 497.874298,307.886522 496.844495,308.585317 C496.035364,309.100218 495.226234,309.615119 494.343546,309.982906 C493.68153,310.240357 492.872399,310.277135 492.136826,310.387471 C492.210383,311.858618 484.670756,317.191525 482.90538,317.007631 C480.919332,319.729253 478.013818,320.832613 475.586426,322.634767 C475.145082,322.377317 474.703738,322.119866 474.262394,321.899194 C474.152058,322.00953 474.0785,322.083087 474.041722,322.193423 C473.931386,322.597989 473.968164,323.186447 473.710714,323.407119 C472.71769,324.21625 471.651108,324.988602 470.51097,325.650618 C470.143183,325.87129 469.554724,325.687397 468.745594,325.687397 C467.642234,328.887141 464.295375,328.923919 461.353082,329.696271 C460.948516,329.806607 460.360058,330.100837 460.323279,330.395066 C460.02905,332.822458 457.564879,332.748901 456.240847,333.999375 C455.505274,334.69817 454.21802,334.808506 453.261775,335.286629 C451.900964,335.985423 450.429817,336.610661 449.2529,337.566906 C447.671417,338.890938 446.053156,339.773626 443.919993,339.626511 C443.625764,339.589733 443.221199,340.693093 442.706297,340.987322 C442.117839,341.428666 441.602937,341.980346 440.9777,342.311354 C440.499577,342.532026 439.87434,342.458469 439.285881,342.495247 C439.359439,342.642362 439.432996,342.789477 439.506553,342.936591 C438.991652,343.230821 438.476751,343.561829 437.925071,343.782501 C437.226276,344.07673 436.233252,344.039951 435.755129,344.518074 C434.35754,345.915663 432.886393,346.908687 430.900345,347.202917 C430.348665,347.276474 429.870543,348.012047 429.318863,348.269498 C428.141945,348.784399 426.854692,349.078629 425.714553,349.703866 C424.353743,350.439439 423.176825,351.506021 421.852793,352.278373 C420.124196,353.308175 418.395599,354.485093 416.483108,355.11033 C411.775439,356.655034 406.957433,357.942287 402.212985,359.339877 C400.778617,359.744442 399.381028,360.62713 397.983439,360.591466 C395.997391,360.516794 393.864228,360.149007 392.098852,359.303098 C389.634681,358.162959 387.391183,356.471141 385.074127,355.036773 C380.954916,352.499045 376.835705,349.998095 372.716494,347.497146 C363.154041,341.649338 353.554809,335.911866 344.065913,329.953722 C332.958756,323.002554 321.998713,315.830714 310.891556,308.879546 C303.572601,304.282213 295.885859,300.383674 287.794553,297.404602 C283.896014,295.970234 279.850361,296.485135 275.841486,297.073594 C267.198499,298.397626 259.033635,301.450255 251.126222,305.017786 C244.800291,307.849743 238.584697,311.012709 232.405881,314.138895 C222.733091,319.067237 213.09708,324.032357 203.497848,329.071034 C194.450296,333.815482 185.549859,338.780602 176.42875,343.341157 C170.470606,346.320229 164.29179,348.784399 158.076195,351.285349 C155.207459,352.425487 152.15483,351.910586 149.286094,350.917562 C147.962062,350.439439 146.564472,349.961317 145.424334,349.188965 C144.357752,348.453391 144.651982,347.681039 145.939235,347.350031 C146.3438,347.239695 146.785144,347.019023 147.18971,347.055802 C152.375502,347.38681 156.641827,344.775525 160.98171,342.642362 C167.454755,339.479397 173.633571,335.80153 179.99628,332.417893 C187.388792,328.519354 194.854862,324.76793 202.210595,320.869391 C208.242296,317.669647 214.163662,314.28601 220.158585,311.049487 C225.086926,308.364645 229.978489,305.606245 235.017166,303.178853 C241.343097,300.163002 247.669027,297.18393 254.21563,294.756538 C259.143971,292.954383 264.403321,291.703909 269.589113,290.857999 C274.186446,290.122426 278.930894,289.938533 283.638563,290.048869 C288.934691,290.159205 293.789475,292.21881 298.497145,294.499087 C303.719716,297.000037 309.052622,299.427429 313.944185,302.443279 C326.265038,310.056463 338.328441,318.074213 350.612516,325.760954 C360.616313,331.976549 370.840782,337.861135 380.918137,343.966394 C386.618831,347.423589 392.209188,351.064677 397.873103,354.55865 C398.277668,354.816101 399.05002,354.889658 399.491364,354.705765 C405.633401,352.020922 411.73866,349.299301 417.80714,346.467343 C419.572516,345.658213 421.153999,344.481295 422.882596,343.52505 C427.222479,341.134437 431.562361,338.780602 435.939023,336.463546 C438.918095,334.882063 441.970724,333.447695 444.913017,331.829434 C447.377188,330.468623 449.731023,328.960698 452.305529,327.415994 C452.489423,327.52633 452.893988,327.747002 453.298554,327.967674 C453.739898,325.760954 455.652388,325.466725 457.160314,324.694373 C458.557903,323.958799 459.918714,323.186447 461.426639,322.671546 C462.125434,321.347514 462.934564,320.133818 464.589604,321.237178 C464.957391,320.501605 465.067727,319.655695 465.54585,319.324687 C466.833103,318.478778 468.30425,317.816762 469.701839,317.154746 C470.694863,316.676623 471.761444,316.272058 472.71769,315.610042 C472.460239,315.646821 472.202788,315.683599 471.798223,315.720378 C472.202788,315.131919 472.570575,314.617018 473.011919,314.028559 C473.453263,314.359567 473.82105,314.617018 474.299172,315.021583 C475.071524,314.102117 475.843876,313.256207 476.763343,312.189626 C477.167908,312.189626 477.866703,312.189626 478.565498,312.189626 C478.565498,312.07929 478.602276,311.932175 478.602276,311.821839 C478.160932,311.674725 477.68281,311.564389 476.800122,311.306938 C477.756367,310.902373 478.271268,310.608143 478.822948,310.42425 C480.14698,309.982906 481.25034,309.688677 482.280143,308.291087 C483.493839,306.672826 485.847674,305.863695 487.686607,304.649999 C488.017615,304.429327 488.275066,304.135098 488.532516,303.840869 C488.826746,303.473082 489.047418,302.994959 489.415204,302.737509 C491.47481,301.339919 493.497636,299.94233 495.630799,298.691855 C496.550266,298.434405 497.54329,298.618298 498.536314,298.507962 Z" id="Path"></path>
            <path d="M284.410915,161.029305 C285.771726,161.654543 285.918841,162.794681 284.852259,164.008377 C283.822457,165.148516 283.822457,165.148516 284.889038,166.067983 C284.741923,167.171343 284.741923,168.201145 284.484473,169.157391 C284.227022,170.0033 283.712121,170.775652 283.270777,171.584783 C283.013326,171.548004 282.755875,171.511225 282.535203,171.474447 C282.388089,170.591759 282.093859,169.709071 282.057081,168.826383 C281.946745,165.258852 281.836409,161.691321 281.79963,158.123791 C281.79963,156.579087 281.100835,156.064185 279.629689,156.284857 C276.797731,156.726201 273.965774,157.057209 271.133817,157.535332 C269.699449,157.756004 269.11099,158.675471 269.258105,160.183396 C269.515555,162.978575 268.338638,164.560057 265.911246,165.810532 C261.203577,168.237924 256.164899,170.260751 253.075491,174.858084 C251.825017,176.733796 250.868771,178.977295 250.280313,181.147236 C249.25051,184.89866 251.972131,187.252495 254.178851,189.716665 C254.693753,190.305124 255.613219,190.599353 255.981006,191.224591 C256.495907,192.107279 256.716579,193.17386 257.047587,194.166884 C255.981006,194.424335 254.620195,195.196687 253.921401,194.792121 C252.045689,193.688761 250.059641,192.401508 248.809166,190.672911 C247.154126,188.392633 246.050766,185.671012 244.984185,183.059727 C244.579619,182.066703 244.763513,180.742671 244.984185,179.676089 C246.602446,171.842233 250.611321,165.773753 257.930275,161.985551 C261.130019,160.367289 264.329763,158.675471 266.35259,155.402169 C266.90427,154.482703 268.117966,153.967801 268.706425,153.526457 C270.655694,153.232228 272.310734,153.011556 274.002553,152.717327 C276.025379,152.386319 278.084985,152.092089 280.071033,151.577188 C280.733049,151.393295 281.762851,150.547385 281.726073,150.069263 C281.505401,145.067364 281.064057,140.065465 280.659491,134.438329 C278.563107,135.909476 276.797731,136.939279 275.216249,138.226532 C270.949923,141.646948 266.426147,142.897423 261.240355,140.470031 C259.989881,139.881572 258.518734,139.624121 257.378595,138.888548 C253.847843,136.571492 253.149049,132.967183 253.296163,129.068644 C253.369721,127.009038 253.700729,124.912654 253.958179,122.853049 C254.546638,118.807396 257.488931,116.416782 260.431225,114.136505 C262.049486,112.88603 263.851641,111.856228 265.837689,110.532196 C261.350691,106.449764 262.049486,102.293774 264.513657,97.696441 C266.867491,93.3197797 269.515555,89.310905 273.597987,86.442169 C274.223225,86.000825 275.142691,86.0376037 275.915043,85.8537103 C276.062158,86.7363983 276.393166,87.6190863 276.246051,88.428217 C276.135715,89.1637903 275.657593,89.9361423 275.105913,90.4510437 C270.913145,94.165689 268.779982,98.9469157 267.639843,104.279822 C267.235278,106.229092 268.00763,107.516345 269.331662,108.803598 C270.324686,109.759844 271.133817,110.899982 271.906169,112.0769 C272.457849,112.922809 272.237177,113.584825 271.170595,114.062948 C268.522531,115.276644 265.837689,116.527118 263.336739,117.961486 C260.504782,119.579748 258.849742,122.043918 258.445177,125.427556 C258.187726,127.560718 257.341817,129.620324 256.863694,131.716708 C256.753358,132.268388 256.900473,133.04074 257.231481,133.518863 C259.327865,136.939279 266.426147,139.366671 270.030457,136.497935 C272.457849,134.548665 275.032355,133.003961 276.613838,130.172004 C277.606862,128.369849 277.901091,126.714809 277.459747,124.691982 C277.275854,123.809294 278.084985,122.595598 278.710222,121.71291 C279.335459,120.793444 279.666467,118.917732 279.372238,117.740814 C279.114787,116.711012 279.078009,115.570873 279.078009,114.467513 C279.078009,107.222116 279.04123,100.013497 279.114787,92.7680997 C279.151566,86.442169 279.298681,80.0794596 279.445795,73.7535289 C279.482574,71.8042596 279.59291,69.8549903 279.813582,67.9057209 C280.034254,66.1403449 281.100835,65.8093369 282.498425,66.8759182 C283.013326,67.2804836 283.565006,67.6114916 283.932793,67.8689422 C284.227022,69.3033103 284.337358,70.7376783 284.852259,71.9881529 C286.507299,75.9234703 285.992398,80.042681 286.029177,84.125113 C286.102734,94.2392464 286.102734,104.390158 286.176291,114.504292 C286.21307,117.005241 286.360185,119.50619 286.691193,122.00714 C287.022201,124.397753 289.302478,124.728761 290.994297,125.427556 C291.840206,125.758564 293.053902,125.537892 294.010147,125.31722 C298.09258,124.287417 301.512996,126.052793 301.770446,130.098447 C301.807225,130.576569 302.064676,131.017913 302.21179,131.459257 C304.528846,131.753487 307.066574,130.319119 309.273294,132.820068 C308.317049,133.371748 307.544697,133.996985 306.62523,134.291215 C303.204814,135.468132 299.821177,135.725583 296.731769,133.261412 C296.511097,133.077519 296.14331,132.967183 295.996196,132.709732 C294.377934,129.620324 291.141411,130.28234 288.566905,129.473209 C287.353209,129.105423 287.206094,130.135225 287.206094,131.017913 C287.279651,132.967183 287.426766,134.916452 287.426766,136.828943 C287.463545,141.389497 287.426766,145.986831 287.426766,150.915172 C289.890937,151.319737 292.575779,151.834639 295.260622,152.128868 C301.917561,152.864441 308.5745,153.526457 315.231438,154.262031 C315.599225,154.298809 316.00379,154.55626 316.187684,154.850489 C316.29802,154.997604 316.040569,155.475727 315.819897,155.733177 C313.870628,158.013455 311.443236,158.381241 308.5745,157.903119 C305.227641,157.31466 301.844004,157.093988 298.497145,156.652644 C295.187065,156.248079 291.840206,155.880292 288.566905,155.328612 C286.801529,155.034383 285.918841,156.174521 284.925817,157.167545 C284.852259,157.241103 284.815481,157.424996 284.852259,157.461775 C286.507299,158.859364 284.705145,159.778831 284.410915,161.029305 Z" id="Path"></path>
            <path d="M113.537229,108.619705 C113.684344,109.355278 113.79468,110.090852 113.978573,110.789646 C114.567032,112.922809 115.44972,113.069924 117.398989,112.224014 C120.635512,110.826425 123.908813,109.392057 127.329229,108.693262 C131.301325,107.92091 135.788323,109.649508 137.700813,113.805497 C139.245518,117.152356 140.643107,120.572772 142.22459,123.91963 C142.886606,125.280441 142.334926,125.942457 141.194787,126.236686 C138.326051,127.009038 136.340003,128.958308 134.353955,130.944356 C133.029923,132.268388 131.558776,133.518863 130.014072,134.585444 C127.182115,136.571492 126.372984,139.844793 124.754723,142.603193 C124.239821,143.449103 123.835256,144.442127 123.614584,145.435151 C122.952568,148.451001 124.975395,150.473828 126.409763,152.717327 C126.667213,153.121892 126.961443,153.526457 127.329229,153.857465 C130.639309,156.836537 130.823203,160.62474 130.271523,164.670393 C129.425613,170.885988 129.094605,177.064804 131.963341,182.949391 C132.698915,184.457316 131.816227,184.935439 130.676088,185.266447 C129.977293,185.45034 129.204941,185.45034 128.506147,185.45034 C125.894861,185.376783 125.416739,185.008996 124.717944,182.471268 C123.761699,179.124409 122.805453,175.740772 121.849208,172.393913 C121.775651,172.173241 121.849208,171.915791 121.849208,171.695119 C121.812429,169.194169 121.775651,166.656441 121.775651,164.155492 C121.775651,162.353337 122.253773,160.477625 121.922765,158.749028 C121.628536,157.093988 120.782627,155.402169 119.716045,154.114916 C117.65644,151.540409 116.0014,148.708452 116.258851,145.471929 C116.589859,141.352719 118.20812,137.490959 121.187192,134.475108 C123.945592,131.679929 126.998221,129.17898 129.646285,126.310244 C130.712867,125.170105 132.662136,124.544868 132.625357,122.485262 C132.625357,122.00714 132.698915,121.418681 132.478243,121.014116 C131.338104,119.138404 130.161187,117.262692 128.947491,115.460537 C128.616483,114.982414 128.13836,114.357177 127.660237,114.28362 C125.416739,113.952612 123.246797,113.43771 121.040077,115.019193 C117.729997,117.373028 113.463672,116.637454 110.778829,113.658382 C108.866339,111.488441 109.160568,108.178361 111.514403,106.486542 C114.971597,103.985593 118.392013,101.447865 121.885987,99.0572517 C126.005197,96.2252944 130.087629,93.3565584 134.317176,90.745273 C137.664035,88.6856677 141.452238,88.2811023 145.424334,88.428217 C150.536568,88.6121103 154.471886,91.0027237 158.076195,94.276025 C160.1358,96.151737 160.062243,95.931065 162.305742,94.3495824 C170.728056,88.317881 179.959502,85.5962597 190.294307,88.1707663 C191.691896,88.538553 191.912568,88.1339877 192.206798,86.9570703 C194.045731,79.7484516 195.995,72.5766116 197.870712,65.4047716 C198.422392,63.2348302 198.937294,61.0648889 199.525752,58.8949475 C199.672867,58.3432675 200.114211,57.9019235 200.518776,57.2766862 C202.026702,58.4903822 201.916366,59.7776355 201.732472,61.3958969 C201.107235,66.7655822 200.886563,72.2088249 200.261326,77.5785103 C199.930318,80.3001316 199.010851,82.9481956 198.348835,85.6330383 C197.686819,88.3914383 197.135139,91.1498383 196.399566,93.9082384 C195.44332,97.5125477 194.119288,101.0433 193.346936,104.647609 C192.905592,106.707214 191.839011,106.964665 189.742627,106.633657 C189.816184,105.272846 189.816184,103.912036 189.963299,102.514446 C190.22075,100.013497 190.4782,97.475769 190.845987,94.9748197 C190.993102,93.9817957 190.588536,93.724345 189.705848,93.5404517 C187.535907,93.0991077 185.25563,92.9887717 183.416696,91.3337317 C182.865016,90.8188303 181.540984,91.0027237 180.584739,91.1130597 C174.369144,91.848633 169.183352,94.5702544 165.174478,99.4250384 C162.232184,102.95579 158.922104,103.654585 154.692558,101.411086 C152.743288,100.381284 151.125027,98.689465 149.322872,97.3286544 C147.152931,95.710393 145.130104,93.724345 142.003918,94.276025 C138.142157,94.938041 134.905635,96.8505317 131.705891,99.0572517 C126.961443,102.293774 122.06988,105.272846 117.141539,108.21514 C116.148515,108.619705 114.750925,108.435812 113.537229,108.619705 Z" id="Path"></path>
            <path d="M281.946745,271.622756 C283.417891,272.652559 282.866211,273.645583 282.093859,274.528271 C281.027278,275.705188 282.167417,277.102778 281.652515,278.279695 C281.321507,279.015268 280.880163,279.714063 280.475598,280.449636 C280.034254,279.78762 279.225123,279.162383 279.188345,278.500367 C279.04123,276.072975 278.967673,273.608804 279.225123,271.218191 C279.445795,269.232143 278.636665,267.908111 277.202297,266.84153 C273.266979,263.862458 270.471801,259.963919 268.338638,255.587258 C266.793934,252.424292 265.469902,249.18777 265.065337,245.620239 C264.771107,243.082511 263.667747,240.61834 263.483854,238.080612 C263.152846,233.4465 263.336739,228.812388 264.69755,224.288612 C265.24923,222.486458 265.690574,220.647524 265.984803,218.771812 C266.720377,214.468708 264.292985,209.613924 260.431225,207.443983 C259.916323,207.149754 259.622094,206.450959 259.18075,205.936057 C259.73243,205.8625 260.320889,205.715385 260.872569,205.788943 C267.345614,206.598073 273.855438,215.424954 271.648718,223.038138 C270.324686,227.598692 269.66267,232.527034 269.736227,237.271482 C269.809785,241.353914 271.133817,245.436346 272.310734,249.408442 C273.818659,254.520676 275.951822,258.639887 281.24795,262.538426 C281.24795,261.692516 281.137614,261.067279 281.284729,260.47882 C281.395065,260.000698 281.762851,259.559354 282.093859,258.970895 C281.358286,258.124986 280.69627,257.058404 281.946745,255.660815 C281.284729,255.25625 280.69627,254.888463 280.14459,254.520676 C279.923918,253.123087 281.652515,251.799055 280.181369,250.438244 C280.181369,250.438244 280.659491,249.886564 280.916942,249.592335 C279.409017,248.89354 280.034254,247.643066 280.181369,246.502927 C280.254926,246.13514 280.622713,245.693796 280.475598,245.436346 C279.482574,243.339962 279.813582,241.133242 279.850361,238.926522 C279.887139,236.609466 279.519353,234.218852 280.622713,232.012132 C280.916942,231.460452 281.358286,230.98233 281.762851,230.467428 C282.204195,230.871994 282.90299,231.203002 283.086883,231.681124 C284.190243,234.807311 285.293603,237.970276 286.102734,241.206799 C286.654414,243.413519 286.875086,245.767354 286.948643,248.047631 C287.058979,250.54858 286.838307,253.086308 286.727971,255.624036 C286.654414,257.389412 286.580857,259.191567 286.323406,260.956943 C286.176291,261.949967 285.551054,262.869434 285.367161,263.862458 C285.220046,264.561252 285.146489,265.517498 285.514275,266.032399 C286.323406,267.135759 287.573881,267.65066 288.824355,266.657636 C289.559929,266.105956 290.111609,265.370383 290.736846,264.671588 C293.421689,261.655738 296.768548,259.632911 300.188964,257.536527 C304.381732,254.96202 308.390606,252.056506 312.252366,248.967098 C313.907406,247.643066 314.863652,245.473124 316.114126,243.707748 C316.923257,242.530831 317.805945,241.390692 318.541518,240.140218 C318.982862,239.367866 319.203534,238.448399 319.460985,237.60249 C319.755214,236.683023 319.718436,235.689999 321.005689,235.211876 C321.410254,235.064762 321.373476,233.520058 321.410254,232.600591 C321.594148,229.842191 321.741262,227.047012 321.851598,224.251834 C322.035492,219.691279 323.837646,216.160527 327.405177,213.107898 C330.862372,210.128826 334.062116,206.745188 336.71018,203.030543 C338.034212,201.191609 338.034212,198.359652 338.36522,195.93226 C338.585892,194.27722 338.401998,192.585401 338.401998,190.672911 C340.976505,190.41546 343.440676,189.716665 345.941625,190.599353 C346.677198,190.856804 347.375993,191.629156 347.74378,192.327951 C348.405796,193.541647 348.994254,194.8289 349.251705,196.152932 C349.472377,197.219513 349.362041,198.506767 348.957476,199.536569 C346.051961,207.076196 339.983481,211.894202 333.804665,216.528314 C332.00251,217.889124 330.862372,219.360271 330.89915,221.824442 C330.935929,224.546063 330.237134,227.304463 330.384249,230.026084 C330.568142,233.924623 328.545316,236.977252 327.184505,240.324111 C326.77994,241.353914 326.265038,242.310159 325.897252,243.37674 C323.911204,249.408442 318.76219,252.240399 313.833849,255.25625 C309.457188,257.941092 305.043748,260.589156 300.887758,263.568228 C298.791374,265.076154 297.209892,267.282874 295.444515,269.195364 C293.568803,271.25497 291.398862,272.027322 288.566905,272.137658 C286.433742,272.35833 284.300579,272.652559 281.946745,271.622756 Z" id="Path"></path>
            <path d="M255.944227,39.2183608 C261.534585,39.0712461 266.830713,40.3584995 272.016505,42.3813261 C278.195321,44.8087181 283.417891,48.7440355 288.272675,53.1206968 C288.97147,53.7459342 289.339257,54.7389582 289.780601,55.5848675 C291.17819,58.2697102 292.686115,60.9177742 293.826254,63.6761742 C294.635385,65.6622222 294.819278,67.9057209 295.407737,70.0388836 C295.959417,71.9881529 296.768548,73.8270863 297.209892,75.7763556 C297.688014,77.7991823 298.055801,79.8955663 298.239694,81.9919503 C298.386809,83.8676623 298.09258,85.780153 298.202916,87.6926437 C298.313252,89.4580197 297.173113,89.9361423 295.885859,90.1568143 C294.598606,90.414265 293.568803,89.7890277 293.237795,88.4649957 C292.575779,86.0376037 292.134435,83.573433 291.362083,81.1828196 C289.376035,75.0775609 287.647438,68.8619662 285.036153,63.0509369 C282.792654,58.1225955 278.563107,54.5550649 274.07611,51.4288782 C270.177571,48.7072568 265.948025,46.4269795 261.277134,45.7649635 C257.452153,45.2132835 253.443278,45.2500621 249.618297,45.7281848 C244.211833,46.4269795 239.099598,48.3026915 234.980387,52.2380088 C228.28667,58.6742755 222.438862,65.8093369 217.915086,73.9374223 C215.3038,78.608313 212.398286,83.242425 210.522574,88.2443237 C206.991822,97.6228837 203.902414,107.148558 202.247374,117.115577 C201.585358,121.050894 200.592334,124.986212 198.275278,128.406628 C198.017827,128.811193 197.686819,129.289316 197.282254,129.436431 C196.509902,129.73066 195.700771,129.840996 194.89164,130.061668 C194.781304,129.326095 194.487075,128.553743 194.560632,127.818169 C195.18587,120.499214 196.178894,113.253817 198.238499,106.192313 C199.783203,100.859406 201.070456,95.4529424 202.872611,90.2303717 C205.778126,81.7712783 209.566328,73.7535289 214.49467,66.2139022 C218.577102,59.9615289 223.174435,54.2608355 228.728014,49.2589368 C235.679182,43.0065635 243.954382,39.9171555 253.222606,39.4022541 C254.105294,39.3286968 255.024761,39.2551395 255.944227,39.2183608 Z" id="Path"></path>
            <path d="M128.800376,201.154831 C130.933539,204.281017 131.043875,207.186532 130.050851,210.202383 C129.940515,210.496612 129.830179,210.790842 129.646285,211.011514 C126.998221,214.248036 126.777549,218.183354 127.218893,221.934778 C127.513123,224.546063 128.873933,227.12057 130.124408,229.511183 C132.036899,233.115492 134.133283,236.646244 137.700813,239.000079 C142.555598,242.199823 147.336824,245.509903 152.228387,248.599311 C155.244238,250.511802 158.186531,252.644964 158.333646,256.35961 C158.517539,261.287951 159.510563,266.363407 156.936056,271.181412 C155.391352,274.086927 153.956984,277.249892 153.51564,280.449636 C152.927182,284.863076 151.382478,289.202959 152.191608,293.837071 C152.485838,295.565669 151.787043,297.441381 151.787043,299.243535 C151.823822,301.119247 152.007715,302.994959 152.41228,304.833893 C153.147854,308.033637 153.773091,311.343717 155.097123,314.28601 C155.832696,315.904271 157.818744,317.117967 159.473784,318.14777 C160.466808,318.773007 161.79084,317.301861 161.165603,316.272058 C159.620899,313.623994 160.577144,311.159823 161.202382,308.585317 C161.827619,305.974031 162.121848,303.25241 162.783864,300.641125 C163.629774,297.367823 164.475683,294.020965 165.836494,290.931557 C167.197304,287.80537 169.918926,285.672207 172.861219,283.906831 C175.950627,282.067898 179.150371,280.3393 180.915747,276.918884 C181.209976,276.367204 181.357091,275.705188 181.357091,275.079951 C181.283534,272.726116 181.94555,271.990543 184.336163,271.585978 C185.51308,271.402084 186.579662,270.776847 187.756579,270.519396 C189.742627,270.041274 190.809208,271.107855 190.367864,273.093903 C189.338062,277.838351 186.689998,281.516218 182.791459,284.348175 C181.65132,285.157306 180.474403,286.003215 179.18715,286.518117 C173.302563,288.798394 170.580942,293.653178 168.742008,299.206757 C167.785763,302.075493 166.939854,305.017786 166.20428,307.923301 C166.020387,308.658874 166.314616,309.541562 166.49851,310.313914 C166.903075,312.042511 167.896099,313.771109 167.712206,315.38937 C167.454755,317.632869 164.990584,317.963877 163.225208,318.552335 C160.43003,319.508581 157.450958,319.692474 154.876451,318.000655 C152.780067,316.603066 150.75724,315.095141 149.249315,312.814863 C146.196686,308.180751 145.24044,303.031738 144.615203,297.772389 C144.320974,295.124325 144.725539,292.439482 144.835875,289.754639 C144.909432,288.283493 144.909432,286.812346 145.166883,285.377978 C145.718563,282.141455 146.380579,278.904932 147.079374,275.705188 C147.410382,274.160484 147.99884,272.652559 148.366627,271.107855 C148.991864,268.312676 149.617102,265.480719 150.058446,262.648762 C150.279118,261.287951 150.242339,259.853583 150.132003,258.455994 C149.911331,254.667791 148.476963,251.762276 144.725539,250.107236 C142.298147,249.040655 140.128206,247.348836 137.958264,245.804132 C135.530872,244.075535 133.066701,242.346938 130.933539,240.287332 C125.012173,234.54986 121.076856,227.819364 121.003299,219.213156 C121.003299,216.63865 121.481421,214.248036 122.62156,212.041316 C124.497272,208.437007 126.593656,204.943033 128.800376,201.154831 Z" id="Path"></path>
            <path d="M475.770319,267.908111 C474.37273,267.282874 473.747492,265.44394 474.041722,263.126884 C474.483066,259.559354 474.777295,255.955044 475.034746,252.350735 C475.218639,249.886564 474.299172,247.679844 472.644132,245.840911 C471.393658,244.443322 469.996068,243.11929 468.672036,241.795258 C466.575652,239.735652 463.927588,239.404644 461.353082,240.287332 C457.601658,241.611364 453.739898,241.648143 449.878137,241.7217 C449.289679,241.7217 448.664441,241.46425 448.14954,241.17002 C447.818532,240.986127 447.377188,240.471226 447.450745,240.213775 C447.561081,239.80921 447.965647,239.294308 448.370212,239.183972 C451.827407,238.227727 455.247823,237.161146 458.741796,236.535908 C465.435514,235.358991 471.172986,237.676047 475.954212,242.310159 C479.153956,245.399567 481.949135,248.89354 482.537594,253.454095 C483.126052,257.867535 483.309946,262.354532 482.169807,266.731194 C481.838799,267.981668 481.103226,269.158586 480.661882,270.40906 C480.477988,270.923962 480.661882,271.585978 480.477988,272.100879 C480.294095,272.579002 479.852751,272.946788 479.779194,273.057124 C479.705636,274.086927 479.852751,274.969615 479.558522,275.594852 C477.829924,278.97849 476.174884,282.435684 474.115279,285.635429 C473.232591,286.996239 471.467215,288.173157 469.885732,288.614501 C464.663162,290.048869 459.367034,291.777466 454.034127,292.182031 C447.59786,292.660154 441.455823,290.857999 436.527481,286.15033 C435.828687,285.488314 435.019556,284.936634 433.916196,283.980388 C433.695524,284.936634 433.621967,285.635429 433.364516,286.260666 C432.408271,288.393829 431.488804,290.526991 430.385444,292.549818 C428.914297,295.271439 427.148921,297.845946 425.714553,300.604346 C424.243407,303.399525 421.926351,304.171877 419.167951,302.663951 C415.784313,300.788239 413.94538,297.772389 412.989135,294.204858 C411.260537,287.842149 409.605497,281.479439 408.097572,275.079951 C407.435556,272.284772 406.699983,269.342479 407.067769,266.584079 C407.582671,262.354532 409.642276,258.676666 413.761487,256.61706 C417.733583,254.631012 421.852793,252.7553 425.015759,249.518778 C426.119119,248.378639 427.001807,247.017828 428.105167,245.620239 C430.164772,246.245476 431.415247,250.54858 429.502756,252.461071 C426.854692,255.072356 424.022735,257.499748 420.160975,258.124986 C419.866745,258.161764 419.535737,258.235322 419.315065,258.455994 C417.292239,260.22137 414.570617,261.655738 413.540815,263.862458 C412.400676,266.253071 412.584569,269.416036 412.731684,272.211215 C412.84202,274.050148 413.94538,275.852303 414.533839,277.691236 C416.299215,283.281594 418.027812,288.835173 419.756409,294.42553 C419.977081,295.087546 420.308089,295.749562 420.56554,296.374799 C420.749433,296.448357 420.970105,296.485135 421.153999,296.558693 C423.765284,291.924581 426.339791,287.25369 429.024633,282.656356 C429.465977,281.920783 430.311887,281.258767 431.121017,280.89098 C434.725327,279.383055 437.741177,280.817423 440.536356,282.987364 C443.405092,285.194084 446.457721,286.885903 450.209145,286.775567 C451.900964,286.70201 453.592783,286.371002 455.284602,286.076773 C457.748772,285.672207 460.176164,285.120527 462.640335,284.75274 C464.626383,284.458511 466.391759,283.722938 467.531898,282.178234 C469.95929,278.904932 472.239567,275.521295 474.519844,272.137658 C475.328975,270.997519 476.358778,269.820602 475.770319,267.908111 Z" id="Path"></path>
            <path d="M399.932708,77.4681743 C412.29034,77.4313956 422.294137,81.8448356 428.877519,92.7680997 C430.753231,95.8575077 432.628943,98.910137 434.504655,101.962766 C434.688548,102.293774 434.90922,102.588004 435.056335,102.919012 C435.828687,104.647609 435.534457,106.229092 434.35754,106.854329 C433.25418,107.479566 431.378468,106.780772 430.385444,105.45674 C429.907321,104.831502 429.282084,104.316601 428.767183,103.728142 C425.273209,99.6089317 421.705679,95.489721 418.322041,91.296953 C414.680953,86.773177 410.377849,83.904441 404.382927,83.2056463 C392.98154,81.808057 384.117881,86.331833 376.835705,94.496697 C372.348708,99.4985957 367.824932,104.537273 364.110286,110.090852 C359.954297,116.232889 356.239652,122.742713 353.113465,129.473209 C348.920697,138.520761 345.463502,147.899321 341.712078,157.167545 C341.38107,158.013455 341.050062,158.896143 340.498382,159.594937 C340.167374,160.036281 339.358244,160.440847 338.843342,160.330511 C338.36522,160.256953 337.703204,159.447823 337.739982,159.006479 C337.887097,156.652644 337.960654,154.225252 338.585892,151.981753 C340.351268,145.692601 342.079865,139.403449 344.360142,133.298191 C346.34619,127.965284 348.883918,122.779492 351.495204,117.704036 C355.945422,108.987492 361.682894,101.116857 368.339833,93.9817957 C373.415289,88.538553 378.858532,83.573433 385.846479,80.6311396 C390.370255,78.6818703 395.004367,77.3578383 399.932708,77.4681743 Z" id="Path"></path>
            <path d="M392.797647,313.623994 C393.238991,311.968954 393.643556,310.461029 394.011343,308.916325 C394.0849,308.585317 393.974564,307.960079 393.864228,307.923301 C391.620729,307.445178 392.724089,305.716581 392.613753,304.502885 C392.540196,303.656975 392.613753,302.811066 392.613753,301.928378 C392.393081,301.854821 392.135631,301.781263 391.914959,301.707706 C392.42986,301.413477 392.944761,301.082469 393.459663,300.788239 C391.694287,298.949306 391.547172,297.147151 392.907983,295.418554 C392.282745,294.572645 390.627705,293.837071 392.687311,292.733711 C392.907983,292.623375 392.907983,291.372901 392.760868,291.336122 C390.186361,290.416655 391.510393,288.393829 391.436836,286.775567 C391.400057,286.113551 391.436836,285.414757 391.436836,284.605626 C391.400057,284.605626 391.731065,284.605626 392.172409,284.642404 C391.841401,283.539044 391.547172,282.509242 391.179385,281.221988 C391.216164,281.221988 390.811599,281.148431 390.186361,281.038095 C390.921935,280.118628 391.510393,279.383055 392.098852,278.610703 C391.988516,278.500367 391.841401,278.390031 391.731065,278.279695 C391.436836,278.537146 391.142607,278.757818 390.77482,279.052047 C390.590927,278.757818 390.370255,278.463588 390.186361,278.169359 C391.767844,277.139556 392.503417,276.146532 390.186361,275.006394 C390.811599,274.381156 391.473615,273.792698 392.356303,272.946788 C391.3265,272.873231 390.590927,272.836452 389.634681,272.799674 C390.259919,271.916986 390.77482,271.181412 391.252943,270.445839 C391.179385,270.335503 391.105828,270.188388 390.995492,270.078052 C390.517369,270.261946 390.039247,270.445839 389.524345,270.629732 C389.414009,270.041274 389.303673,269.452815 389.266895,269.085028 C390.002468,268.275898 390.590927,267.613882 391.510393,266.584079 C390.554148,266.694415 389.928911,266.731194 388.935887,266.84153 C389.487567,265.885284 389.965689,265.002596 390.407033,264.230244 C390.039247,263.310778 389.67146,262.097082 389.083001,260.993722 C388.01642,259.044452 390.076025,258.934116 391.069049,257.793978 C390.076025,257.830756 389.377231,257.867535 388.420985,257.904314 C388.788772,257.499748 389.046223,257.279076 389.193337,257.058404 C389.450788,256.653839 390.039247,255.991823 388.825551,256.469946 C388.751993,256.506724 388.347428,255.955044 388.420985,255.80793 C389.009444,254.631012 388.420985,253.490874 388.384207,252.313956 C388.347428,251.909391 388.126756,248.967098 387.942863,248.599311 C387.354404,247.385615 387.795748,244.737551 388.862329,244.038756 C386.876281,243.008954 387.501519,241.133242 387.427961,239.51498 C387.317625,237.712826 387.46474,235.94745 387.354404,234.145295 C387.244068,232.232804 386.91306,230.320314 386.802724,228.371044 C386.692388,226.789562 386.765945,225.208079 386.692388,223.663375 C386.545273,222.670351 386.324601,221.677327 386.287823,220.684303 C386.103929,217.411002 386.030372,214.1377 385.8097,210.901178 C385.699364,209.46681 385.478692,207.995663 385.147684,206.598073 C384.816676,205.200484 384.448889,203.876452 386.030372,202.809871 C388.01642,206.450959 389.524345,210.386276 390.259919,214.579044 C391.400057,221.235983 392.687311,227.856143 393.717113,234.513082 C394.342351,238.558735 394.526244,242.677946 394.967588,246.760378 C395.18826,248.930319 395.556047,251.063482 395.73994,253.233423 C395.960612,255.881487 395.960612,258.56633 396.29162,261.214394 C396.769743,265.223268 397.505316,269.158586 397.983439,273.16746 C398.424783,276.882106 398.608676,280.596751 398.939684,284.348175 C399.197135,287.25369 399.528143,290.122426 399.712036,293.027941 C399.932708,295.970234 399.932708,298.949306 400.226937,301.891599 C400.521167,304.981007 401.036068,307.996858 401.367076,311.086266 C401.698084,314.396346 401.771641,317.706426 402.176207,321.016506 C402.691108,325.429946 403.500239,329.806607 404.01514,334.256826 C404.125476,335.360186 404.235812,336.610661 402.948559,337.493349 C401.771641,338.302479 400.925732,339.589733 399.748815,340.472421 C399.160356,340.913765 397.94666,341.281551 397.468537,340.987322 C396.8433,340.582757 396.512292,339.516175 396.29162,338.670266 C395.923833,337.272677 395.592825,335.838309 395.519268,334.403941 C395.335375,331.93977 394.710137,329.549157 395.114703,326.97465 C395.408932,325.062159 394.379129,322.965775 394.121679,320.90617 C394.048121,320.170597 394.379129,319.324687 394.710137,318.589114 C395.298596,316.934074 394.673359,314.83769 392.797647,313.623994 Z" id="Path"></path>
            <path d="M341.12362,179.786425 C343.183225,178.940516 345.206052,177.616484 347.339214,177.359033 C353.297358,176.733796 359.32906,176.255673 365.323982,176.292452 C369.296078,176.329231 373.341732,177.138361 377.240271,177.984271 C382.609956,179.124409 387.758969,180.926564 392.613753,183.648185 C403.169231,189.495993 411.996111,197.256292 418.873721,207.112975 C425.567439,216.748986 432.040484,226.532111 438.366415,236.388794 C440.830585,240.213775 442.743076,244.443322 444.83946,248.525754 C445.280804,249.371663 445.501476,250.364687 445.611812,251.284154 C445.758927,252.313956 445.685369,253.564431 444.361337,253.748324 C443.331535,253.895439 441.970724,253.895439 441.235151,253.343759 C438.329636,251.173818 436.233252,248.378639 434.578212,245.03178 C432.003705,239.845988 429.318863,234.660196 426.119119,229.842191 C420.639097,221.60377 415.122297,213.32857 408.943481,205.641828 C403.757689,199.205561 397.542095,193.651983 390.296697,189.385657 C385.552249,186.590479 380.366457,185.192889 375.107108,183.832079 C369.112185,182.287375 363.006926,182.728719 356.938446,182.397711 C352.267556,182.14026 347.633444,181.404687 342.999332,180.816228 C342.374094,180.742671 341.785636,180.411663 341.197177,180.227769 C341.12362,180.080655 341.12362,179.93354 341.12362,179.786425 Z" id="Path"></path>
            <path d="M375.658788,157.351439 C375.070329,159.52138 374.334756,161.691321 373.93019,163.898041 C373.268174,167.355236 371.392462,169.083833 367.898489,169.304505 C363.926393,169.561956 360.43242,168.311481 357.159118,166.251876 C355.136292,164.964623 353.113465,164.081935 350.649294,164.560057 C350.097614,164.670393 349.39882,164.118713 348.810361,163.861263 C349.288484,163.309583 349.65627,162.537231 350.281508,162.27978 C354.400718,160.440847 358.336036,161.360313 361.977124,163.640591 C366.243449,166.325433 366.684793,164.927844 367.641038,160.955748 C368.229497,158.454799 369.185742,156.064185 369.884537,153.563236 C370.141988,152.643769 370.141988,151.650745 369.884537,150.216377 C371.576356,149.701476 373.268174,149.076239 375.033551,148.671673 C375.511673,148.561337 376.320804,148.855567 376.688591,149.260132 C378.63786,151.24618 380.807801,153.121892 382.315727,155.438948 C384.890233,159.447823 387.096953,163.677369 389.303673,167.906916 C390.627705,170.481423 392.687311,172.026127 395.18826,173.166265 C395.556047,173.31338 396.144505,173.276601 396.512292,173.092708 C401.072847,170.55498 401.624527,169.230948 401.771641,163.640591 C401.881977,160.220175 402.065871,156.76298 402.249764,153.342564 C402.323321,151.981753 402.691108,150.620943 402.507215,149.296911 C402.3601,148.119993 402.91178,147.825764 403.720911,147.38442 C406.258639,146.023609 408.722809,145.72938 411.591545,146.795961 C414.202831,147.752207 416.924452,146.979855 419.204729,145.214479 C421.006884,143.816889 423.103268,143.890447 425.162873,144.147897 C425.972004,144.258233 426.63402,145.214479 427.406372,145.802937 C426.854692,146.501732 426.413348,147.310863 425.751332,147.825764 C420.749433,151.650745 415.195855,152.275983 409.274489,150.473828 C409.090596,150.437049 408.906703,150.400271 408.318244,150.253156 C407.8769,152.128868 407.178105,153.931023 407.030991,155.806735 C406.77354,159.006479 406.589647,162.243001 406.920655,165.405967 C407.251663,168.532153 406.626425,170.959545 404.199033,173.019151 C403.058895,173.975396 402.212985,175.299428 401.036068,176.292452 C397.94666,178.940516 394.563023,178.131385 391.400057,176.586681 C386.103929,174.048953 382.131833,170.150415 379.888335,164.596836 C378.895311,162.095887 377.5345,159.705273 376.357583,157.241103 C376.063353,157.241103 375.842681,157.277881 375.658788,157.351439 Z" id="Path"></path>
            <path d="M306.956238,97.4022117 C307.029796,95.048377 308.02282,93.1358864 309.714638,91.848633 C312.656932,89.531577 315.967012,87.8397583 319.828772,87.766201 C323.72731,87.655865 326.559268,89.6786917 328.913102,92.510649 C334.797689,99.6089317 337.335417,108.068025 337.923876,117.04202 C338.328441,122.926606 338.254884,128.884751 337.923876,134.806116 C337.739982,138.116196 336.71018,141.389497 335.827492,144.589241 C334.319566,150.216377 332.627748,155.806735 330.972708,161.433871 C330.825593,161.948772 330.604921,162.426895 330.384249,163.088911 C328.655652,161.948772 327.736185,160.735076 327.846521,158.601913 C328.361422,148.782009 328.913102,138.925327 328.98666,129.105423 C329.060217,120.756665 329.317668,112.33435 326.338596,104.316601 C325.088121,100.969742 323.543417,97.6596624 321.741262,94.5702544 C319.939108,91.4808463 317.511716,91.4440677 314.90043,94.0185744 C312.620153,96.2252944 309.493966,97.6596624 306.956238,97.4022117 Z" id="Path"></path>
            <path d="M259.107193,74.9304463 C257.562489,75.1878969 256.643022,75.3350116 255.760334,75.5189049 C255.833891,74.4891023 255.649998,73.3489636 256.017785,72.3927183 C257.121145,69.4872036 258.408398,66.6552462 259.585315,63.7497316 C259.879545,62.9773796 260.026659,62.0946916 260.026659,61.2855609 C260.100217,59.1156195 259.73243,58.7478329 257.599267,58.5271609 C251.273337,57.8651449 245.094521,58.7846115 238.290467,60.6971022 C238.842147,59.3730702 239.026041,58.3432675 239.614499,57.6076942 C241.012089,55.8790969 242.924579,55.0699662 245.168078,54.7757369 C250.795214,53.9666062 256.385571,53.8194915 261.93915,55.2538595 C263.447075,55.6584249 264.955001,56.2836622 266.315811,57.0560142 C268.963875,58.5639395 269.478777,60.9545529 268.191523,63.7865102 C267.124942,66.1035662 266.462926,68.6412942 265.175673,70.7744569 C264.035534,72.6133903 263.373518,74.3419876 263.814862,76.4751503 C264.366542,79.1967716 262.637945,80.8885903 260.982905,82.6171876 C258.886521,84.8239077 256.716579,86.993849 254.840867,89.3844623 C253.66395,90.8923877 253.11227,92.841657 252.119246,94.4599184 C250.427427,97.2183184 247.779363,98.689465 244.689955,98.8365797 C241.637326,98.9836944 238.437582,98.8365797 235.45851,98.1010064 C232.295545,97.2918757 229.721038,94.7909264 229.500366,91.5544037 C229.132579,86.2950543 226.741966,82.8746383 222.144633,80.704697 C220.121806,79.7484516 220.01147,77.2475023 221.372281,76.1809209 C221.703289,75.9234703 222.549198,75.8131343 222.843427,76.0705849 C225.013369,77.9095183 227.072974,79.8587876 229.206137,81.7344996 C231.486414,83.794105 232.626553,86.442169 233.288569,89.3476837 C234.35515,94.2024677 240.901753,96.4459664 244.506062,93.0255504 C246.786339,90.8923877 248.662051,88.3914383 250.758435,86.0743823 C252.045689,84.6032356 253.443278,83.2056463 254.620195,81.6609423 C256.091342,79.491001 257.452153,77.3210596 259.107193,74.9304463 Z" id="Path"></path>
            <path d="M211.99372,96.6298597 C215.156686,97.5125477 218.503545,97.9906704 221.372281,99.3882597 C226.999417,102.183438 229.279694,109.833401 225.270819,115.203086 C222.181411,119.359076 223.836451,125.905678 227.109753,129.031865 C228.911907,130.760463 230.566947,132.672953 232.111651,134.622223 C233.950585,136.939279 233.619577,138.778212 231.523193,140.874596 C229.647481,142.750308 227.587875,143.632996 224.829475,143.485881 C219.937913,143.191652 220.01147,143.375545 217.988643,147.752207 C216.922062,150.032484 215.708366,152.275983 214.20044,154.262031 C211.920163,157.241103 205.66779,158.41802 202.320931,155.769956 C201.732472,155.291833 201.548579,153.967801 201.658915,153.121892 C201.732472,152.643769 202.835832,151.871417 203.387512,151.944975 C206.660814,152.423097 208.499747,150.326713 210.118008,148.119993 C211.809827,145.766159 213.060302,143.081316 214.678563,140.690703 C215.193464,139.918351 216.296824,139.403449 217.216291,139.145999 C218.393209,138.814991 219.643683,138.962105 220.857379,138.778212 C221.592953,138.667876 222.843427,138.373647 222.916985,138.00586 C223.211214,136.681828 223.468665,135.063567 222.990542,133.886649 C222.438862,132.48906 221.078051,131.3857 220.085027,130.135225 C216.333603,125.501113 214.936014,120.388878 216.811726,114.614628 C217.289848,113.18026 217.988643,111.78267 218.90811,110.605753 C220.379257,108.656484 220.01147,106.596878 219.349454,104.647609 C218.724217,102.845454 217.436963,101.411086 215.267022,101.116857 C214.605006,101.0433 213.94299,100.859406 213.317752,100.712292 C210.63291,99.9767184 210.63291,99.9399397 211.99372,96.6298597 Z" id="Path"></path>
            <path d="M143.916408,159.447823 C144.210638,164.449721 144.68876,169.966521 144.799096,175.5201 C144.835875,177.984271 144.284195,180.448441 143.806072,182.875833 C143.658958,183.537849 142.813048,184.236644 142.114254,184.530873 C140.937336,185.008996 140.01787,184.714767 139.944312,183.096505 C139.797198,179.197967 139.539747,175.299428 139.429411,171.437668 C139.282296,165.58986 138.877731,159.742052 139.282296,153.894244 C140.091427,141.463055 145.019768,130.870799 155.244238,123.478286 C158.039416,121.45546 161.827619,120.60955 165.284814,119.726862 C170.728056,118.292494 175.288611,121.014116 179.812387,123.588622 C181.798435,124.728761 183.637368,125.979236 184.483278,128.259513 C184.851064,129.252537 185.402744,130.208783 184.262606,131.054692 C183.159246,131.863823 182.350115,131.128249 181.504206,130.466233 C178.561912,128.185956 175.58284,126.052793 171.941752,124.912654 C169.330467,124.066745 166.75596,124.397753 164.144675,125.02299 C161.23916,125.721785 158.149752,126.199908 156.090147,128.553743 C153.51564,131.532815 151.05147,134.622223 148.955086,137.932303 C146.123128,142.382521 144.872654,147.421199 144.725539,152.717327 C144.725539,154.740153 144.284195,156.799759 143.916408,159.447823 Z" id="Path"></path>
            <path d="M263.520633,195.785145 C265.212451,195.969039 266.941049,196.116153 268.596089,196.410383 C269.184547,196.520719 269.846563,196.925284 270.251129,197.403407 C271.133817,198.433209 270.839587,199.021668 269.478777,199.279119 C265.065337,200.161807 260.615118,200.89738 256.238457,201.963961 C247.926478,204.023567 240.901753,208.473786 234.35515,213.806692 C226.190286,220.463631 219.864355,228.591716 214.678563,237.749604 C212.913187,240.875791 210.596131,243.597412 207.433166,245.546682 C205.92524,246.466148 205.37356,245.546682 205.189667,244.627215 C204.968995,243.744527 205.189667,242.56761 205.631011,241.7217 C209.603107,233.887844 214.641784,226.752783 220.01147,219.838394 C223.395107,215.498511 227.477539,211.857423 231.964537,208.584122 C236.782542,205.090148 241.674105,201.816847 247.190905,199.573348 C252.413475,197.476964 257.819939,196.079375 263.520633,195.785145 Z" id="Path"></path>
            <path d="M352.341113,152.459876 C352.745678,151.724303 352.892793,151.319737 353.150244,151.025508 C355.393742,148.377444 357.526905,145.655823 359.917518,143.154873 C363.080484,139.844793 366.133113,136.314041 369.81098,133.665977 C375.033551,129.877775 380.587129,126.457358 386.324601,123.551844 C393.386105,119.947534 401.109625,118.95451 408.98026,120.3521 C411.628324,120.830222 414.129273,121.749689 415.747535,124.287417 C415.04874,125.57467 413.982159,126.236686 412.437455,125.905678 C405.964409,124.544868 399.491364,124.802318 393.275769,126.751588 C389.303673,128.002062 385.589028,130.172004 381.874383,132.084495 C375.401337,135.394575 370.06843,140.249359 364.84586,145.251257 C361.79323,148.193551 358.446372,150.951951 354.253604,152.239204 C353.738702,152.423097 353.187022,152.386319 352.341113,152.459876 Z" id="Path"></path>
            <path d="M306.91946,79.5645583 C310.376654,77.725625 313.870628,77.1371663 317.364601,76.6590436 C324.205433,75.7395769 331.119822,75.2614543 337.960654,76.5119289 C340.461604,76.953273 342.888996,78.166969 345.206052,79.380665 C347.302436,80.484025 348.074788,82.7275236 348.84714,84.8606863 C349.619492,86.993849 350.465401,89.1270117 351.274532,91.3337317 C353.81226,90.0096997 355.908644,88.7224463 358.152142,87.8029797 C359.991076,87.0306277 362.013902,86.6260623 363.963172,86.1847183 C364.330958,86.111161 365.029753,86.2950543 365.140089,86.552505 C365.287204,86.883513 365.029753,87.4719717 364.809081,87.8029797 C364.441294,88.2811023 363.926393,88.648889 363.485049,89.0534543 C360.763428,91.3705103 358.041806,93.6507877 355.356964,95.9678437 C353.959374,97.1815397 352.341113,97.1079824 350.869966,96.6666384 C346.382969,95.379385 342.852217,92.8784357 341.197177,88.2811023 C340.792612,87.1409637 340.314489,86.000825 339.873145,84.8606863 C338.549113,81.256377 337.556089,80.5575823 333.694329,80.5208036 C328.177529,80.4472463 322.734286,80.594361 317.254265,81.366713 C314.201636,81.808057 310.965113,80.8885903 307.838926,80.5575823 C307.544697,80.4472463 307.324025,80.0059023 306.91946,79.5645583 Z" id="Path"></path>
            <path d="M347.44955,247.863738 C346.272633,249.960122 345.389945,252.20362 343.955577,254.005775 C342.079865,256.322831 339.799588,258.308879 337.666425,260.405263 C335.275812,262.759098 332.00251,262.280975 329.575118,259.963919 C326.191481,256.727396 327.772964,253.637988 329.464782,250.695695 C331.892174,246.42937 334.76091,242.383716 337.408974,238.227727 C338.07099,237.197924 338.806564,237.124367 340.02026,237.381818 C342.263758,237.896719 344.065913,238.595514 344.838265,241.022906 C345.500281,243.229626 346.456526,245.362788 347.44955,247.863738 Z M340.608718,242.530831 C340.314489,242.530831 340.02026,242.530831 339.72603,242.530831 C336.1585,246.723599 333.547214,251.39449 332.627748,257.426191 C337.041188,254.667791 340.167374,251.468047 341.233956,246.797156 C341.564964,245.509903 340.866169,243.965199 340.608718,242.530831 Z" id="Shape"></path>
            <path d="M446.935844,131.569593 C446.200271,133.482084 445.795705,135.173903 444.949796,136.571492 C442.743076,140.21258 442.154617,144.184676 441.933945,148.303887 C441.933945,148.524559 442.007503,148.782009 442.08106,149.002681 C442.154617,149.223353 442.301732,149.444025 442.63274,150.032484 C443.956772,148.929124 445.39114,148.083215 446.347385,146.869519 C450.172367,141.904399 453.850234,136.792164 457.564879,131.716708 C458.226895,130.797241 458.741796,129.840996 458.888911,128.553743 C459.18314,125.905678 461.904762,124.544868 464.405711,125.685006 C464.920612,125.905678 465.214842,127.487161 464.99417,128.259513 C464.14826,131.091471 462.566778,133.629199 460.396836,135.615247 C455.983396,139.734457 452.930767,144.773135 449.731023,149.738255 C448.002425,152.423097 445.207247,153.232228 442.301732,153.379343 C439.87434,153.489679 437.66762,150.510607 437.998628,148.046436 C438.623865,143.669775 439.543332,139.366671 441.676495,135.431353 C442.63274,133.813092 444.655567,132.121273 446.935844,131.569593 Z" id="Path"></path>
            <path d="M463.449466,265.333604 C464.405711,267.797775 463.081679,270.225167 461.353082,272.468666 C460.801402,273.16746 459.881935,273.755919 459.036026,273.976591 C456.939642,274.491492 454.953594,275.300623 452.636537,274.785722 C446.825508,273.535247 444.949796,265.664612 448.039204,262.023524 C449.289679,260.552378 451.45962,259.66969 453.40889,259.081231 C455.578831,258.419215 457.932666,258.308879 460.176164,259.412239 C462.015098,260.331706 463.59658,262.648762 463.449466,265.333604 Z" id="Path"></path>
            <path d="M153.662755,185.818127 C154.030542,185.671012 154.36155,185.487119 154.692558,185.413561 C159.069219,184.641209 163.556216,184.34698 167.712206,182.949391 C171.537187,181.662137 173.560014,183.942415 175.87707,185.744569 C176.722979,186.406585 176.796536,188.135183 177.164323,189.385657 C177.495331,190.599353 177.642446,191.923385 178.047011,193.100303 C178.230904,193.651983 178.782584,194.424335 179.260707,194.497892 C181.430648,194.865679 183.60059,195.012793 185.80731,195.307023 C186.763555,195.417359 187.7198,195.638031 188.639267,195.858703 C189.963299,196.152932 190.441422,196.851727 190.036856,198.249316 C189.852963,198.874553 190.073635,199.646905 190.183971,200.3457 C190.331086,201.559396 190.073635,202.221412 188.602488,201.890404 C186.322211,201.375503 183.968376,200.934159 181.65132,200.492815 C179.18715,200.014692 176.722979,199.610127 174.258808,199.168783 C173.964579,199.132004 173.596792,198.984889 173.486456,198.764217 C172.125646,196.189711 169.992483,194.056548 169.882147,190.783247 C169.698254,185.781348 169.51436,185.818127 164.696355,186.847929 C159.547342,188.024847 157.818744,187.877732 153.662755,185.818127 Z" id="Path"></path>
            <path d="M148.991864,176.329231 C150.49979,173.717945 151.8606,171.474447 153.074296,169.120612 C157.193507,161.213199 163.776888,156.726201 172.419875,155.328612 C175.87707,154.776932 179.4446,154.850489 182.975352,154.740153 C183.60059,154.703375 184.299384,154.960825 184.924622,155.218276 C186.35899,155.806735 186.542883,157.130767 185.402744,158.234127 C183.527032,159.999503 181.173198,159.742052 178.856142,159.962724 C175.067939,160.330511 171.206179,160.735076 167.565091,161.801657 C165.836494,162.316559 164.402126,164.229049 163.041315,165.700196 C160.834595,168.090809 158.958883,170.812431 156.56827,172.982372 C154.91323,174.490297 152.669731,175.372985 150.610126,176.402788 C150.20556,176.62346 149.469987,176.366009 148.991864,176.329231 Z" id="Path"></path>
            <path d="M338.659449,173.092708 C338.254884,175.740772 338.659449,178.315279 336.746958,180.374884 C336.452729,180.669113 336.232057,181.147236 335.901049,181.257572 C334.098894,181.772473 332.29674,182.397711 330.457806,182.618383 C327.221284,183.022948 323.653753,180.007097 322.403278,176.402788 C320.858574,171.952569 324.168654,168.054031 329.280889,167.392015 C332.149625,167.024228 335.128697,166.913892 337.041188,169.672292 C337.739982,170.628537 338.107769,171.915791 338.659449,173.092708 Z" id="Path"></path>
            <path d="M144.762318,190.121231 C146.08635,190.194788 147.410382,190.194788 148.734414,190.305124 C151.272142,190.489017 152.927182,192.180836 153.80987,194.608228 C155.060344,198.065423 150.610126,204.354575 147.667832,205.126927 C144.173859,206.083172 139.686862,201.927183 138.840952,199.315897 C137.958264,196.631055 137.811149,194.130105 140.01787,191.665935 C141.525795,190.084452 142.996942,190.047673 144.762318,190.121231 Z" id="Path"></path>
            <path d="M195.075534,146.170724 C190.257528,146.060388 187.903694,143.816889 186.211875,139.587343 C185.844088,138.704655 186.506104,137.233508 186.984227,136.166927 C188.308259,133.114297 192.574584,131.017913 195.958222,131.569593 C199.30508,132.158052 202.210595,135.210681 202.284152,138.851769 C202.320931,143.228431 200.077432,145.876495 195.075534,146.170724 Z" id="Path"></path>
            <path d="M283.896014,200.970937 C278.967673,200.713487 275.289806,197.476964 275.473699,193.615204 C275.694371,188.76042 278.783779,185.818127 283.233998,185.854905 C286.948643,185.891684 291.141411,189.974116 290.810403,194.093327 C290.589731,197.072399 286.617635,201.118052 283.896014,200.970937 Z" id="Path"></path>
            <path d="M444.398116,124.912654 C441.161593,124.728761 438.145743,120.90378 438.292857,117.189134 C438.439972,113.768718 442.706297,109.796622 446.053156,109.980516 C449.878137,110.164409 453.776676,114.136505 453.66634,117.409806 C453.445668,122.338148 448.774777,125.390777 444.398116,124.912654 Z" id="Path"></path>
            <path d="M425.420324,139.844793 C422.330916,139.808015 417.660025,136.681828 417.071567,134.033764 C416.777337,132.746511 417.108345,131.054692 417.733583,129.877775 C420.381647,124.839097 426.155897,124.360974 430.238329,127.52394 C432.187599,129.031865 432.812836,131.348921 432.849615,133.665977 C432.886393,134.475108 432.187599,135.504911 431.488804,136.093369 C429.649871,137.748409 428.215503,140.286137 425.420324,139.844793 Z" id="Path"></path>
            <path d="M304.933412,101.59498 C304.859854,104.794724 303.168036,106.854329 301.145209,107.92091 C298.239694,109.502393 295.187065,108.546148 292.759673,106.302649 C291.72987,105.383182 290.883961,104.206265 290.111609,103.066126 C289.081806,101.521422 289.780601,99.9767184 290.516174,98.579129 C291.950542,95.7839504 295.885859,93.7979024 299.012046,94.386361 C301.476217,94.827705 303.020921,96.6298597 304.050724,98.7630224 C304.565625,99.7560464 304.749518,100.932964 304.933412,101.59498 Z" id="Path"></path>
            <path d="M286.580857,181.220793 C287.206094,178.021049 288.566905,175.593657 290.258723,173.350159 C294.120483,168.311481 299.45339,166.178319 305.558649,165.994425 C310.155982,165.847311 314.385529,167.502351 318.50474,169.488399 C318.835748,169.635513 319.240313,170.371087 319.129977,170.518201 C318.76219,171.143439 318.21051,172.062905 317.65883,172.136463 C316.261241,172.283577 314.679758,172.320356 313.392505,171.879012 C310.155982,170.775652 306.772345,170.260751 303.572601,170.959545 C300.887758,171.548004 298.423588,173.276601 296.032974,174.784527 C293.38491,176.476345 290.920739,178.462393 288.346233,180.301327 C287.904889,180.669113 287.353209,180.853007 286.580857,181.220793 Z" id="Path"></path>
            <path d="M196.215672,247.606287 C197.502926,248.378639 198.826958,249.114212 200.077432,249.923343 C200.849784,250.438244 201.732472,250.953146 202.247374,251.688719 C203.608184,253.711546 202.872611,255.697594 201.916366,257.646863 C200.665891,260.258148 198.459171,261.435066 195.73755,261.251172 C192.905592,261.067279 190.588536,259.706468 189.411619,256.948068 C187.388792,252.240399 190.662094,247.79018 195.921443,248.047631 C196.031779,247.937295 196.105336,247.753402 196.215672,247.606287 Z" id="Path"></path>
            <path d="M430.348665,211.967759 C432.996729,212.556218 435.571236,213.255012 438.182521,213.659578 C441.676495,214.211258 444.692345,213.255012 446.935844,210.312719 C447.965647,208.951908 447.892089,207.848548 446.347385,207.26009 C444.28778,206.524516 442.154617,205.8625 440.021455,205.678607 C436.159695,205.31082 432.224377,205.31082 428.325839,205.090148 C427.774159,205.053369 427.259257,204.722361 426.744356,204.501689 C426.744356,204.317796 426.781135,204.097124 426.781135,203.913231 C428.987855,203.619001 431.194575,203.251215 433.401295,203.1041 C438.734201,202.736313 444.030329,202.699535 448.885113,205.531492 C451.45962,207.039418 452.599759,209.981711 451.349284,212.703332 C451.018276,213.438906 450.209145,214.100922 449.473572,214.468708 C447.708196,215.314618 445.906041,216.123748 444.030329,216.601871 C442.743076,216.932879 441.271929,216.822543 439.911119,216.785764 C437.336612,216.712207 434.725327,216.601871 432.15082,216.381199 C430.826788,216.270863 430.532559,215.057167 430.348665,213.953807 C430.275108,213.402127 430.348665,212.813668 430.348665,211.967759 Z" id="Path"></path>
            <path d="M423.728505,79.4174436 C426.08234,79.4174436 427.994831,79.270329 429.870543,79.4542223 C432.481828,79.6748943 435.093113,79.9691236 437.630841,80.5208036 C440.131791,81.0724836 441.823609,82.7643023 442.338511,85.338809 C443.18442,89.2741263 443.919993,93.2094437 444.655567,97.144761 C444.83946,98.0642277 444.545231,98.579129 443.368313,98.468793 C440.095012,98.248121 439.285881,95.7839504 438.329636,93.393337 C437.373391,91.0395023 436.490703,88.6121103 435.166671,86.5157263 C434.504655,85.449145 432.996729,84.7135716 431.709476,84.235449 C428.987855,83.1688676 426.119119,82.4332943 423.728505,79.4174436 Z" id="Path"></path>
            <path d="M422.22058,188.907535 C422.22058,190.599353 422.183801,192.327951 422.22058,194.019769 C422.330916,196.851727 420.639097,198.13898 418.064591,196.962063 C417.25546,196.594276 416.70378,195.638031 416.041764,194.939236 C415.894649,194.755343 415.784313,194.534671 415.563641,194.424335 C412.989135,193.063524 411.812217,190.599353 410.892751,188.098404 C410.267513,186.369807 408.649252,184.935439 409.274489,182.839055 C409.421604,182.324153 409.679055,181.625359 410.08362,181.478244 C414.092495,179.93354 418.469156,181.184015 420.970105,184.751545 C421.816015,185.928463 422.183801,187.436388 422.77226,188.797199 C422.588367,188.797199 422.404473,188.833977 422.22058,188.907535 Z M416.556665,193.615204 C416.814116,193.541647 417.034788,193.468089 417.292239,193.357753 C417.181903,191.665935 417.181903,189.974116 416.961231,188.282297 C416.409551,184.163087 414.901625,183.133284 410.598521,184.015972 C413.982159,186.333028 416.115321,189.422436 416.556665,193.615204 Z" id="Shape"></path>
            <path d="M158.333646,61.3591182 C162.820643,60.8809955 166.424952,62.8302649 169.955704,64.8898702 C171.610744,65.8828942 172.530211,67.5379342 172.309539,69.5975396 C172.162424,71.0319076 171.353294,72.1720463 169.992483,72.2088249 C169.036238,72.2088249 167.748984,71.5835876 167.123747,70.8112356 C165.321592,68.6045156 163.556216,66.2874596 160.650702,65.6990009 C158.22331,65.2208782 155.72236,65.3312142 153.221411,65.2208782 C152.081272,65.1473209 150.941134,65.2208782 149.800995,65.0737636 C149.359651,65.0002062 148.771192,64.4853049 148.734414,64.0807396 C148.697635,63.7129529 149.175758,62.9773796 149.543544,62.9038222 C152.265166,62.3153636 154.986787,61.8372409 157.745187,61.3591182 C157.965859,61.2855609 158.22331,61.3591182 158.333646,61.3591182 Z" id="Path"></path>
            <path d="M282.571982,19.0636514 C283.160441,20.20379 284.153465,21.2703714 284.263801,22.4472887 C284.815481,28.7364407 285.183267,35.0623714 285.587833,41.3515235 C285.698169,42.8594488 284.631587,44.1467021 283.344334,44.0731448 C281.946745,43.9995875 280.769827,43.3007928 280.806606,41.7193101 C280.990499,34.5106914 281.284729,27.3388514 281.542179,20.1302327 C281.542179,19.8360034 281.762851,19.5785527 281.909966,19.2843234 C282.130638,19.210766 282.35131,19.1372087 282.571982,19.0636514 Z" id="Path"></path>
            <path d="M145.019768,65.5886649 C147.116152,67.1701476 149.322872,68.6412942 151.30892,70.3698916 C153.184632,71.9881529 155.060344,73.5696356 157.524515,74.0109796 C158.407203,74.1580943 159.473784,73.5696356 160.393251,73.2018489 C161.23916,72.8708409 161.754062,71.2893583 162.967758,72.3927183 C163.813667,73.1650703 163.335544,75.4821263 162.34252,76.3648143 C160.209358,78.2405263 157.561294,78.497977 155.097123,77.7624036 C149.94811,76.2544783 145.718563,73.4960783 144.541646,67.6850489 C144.43131,67.1333689 144.43131,66.5816889 144.357752,66.0300089 C144.578424,65.8828942 144.799096,65.7357796 145.019768,65.5886649 Z" id="Path"></path>
            <path d="M144.100302,342.201018 C142.592376,339.994298 143.180835,337.897914 143.475064,335.948645 C143.87963,332.969573 144.541646,329.990501 145.166883,327.011429 C145.497891,325.429946 146.3438,324.326586 148.366627,324.694373 C148.697635,322.855439 149.028643,321.053285 149.359651,319.067237 C148.918307,319.067237 148.329848,319.067237 147.18971,319.067237 C148.366627,318.662671 149.028643,318.441999 149.911331,318.14777 C150.021667,318.883343 150.132003,319.545359 150.20556,320.133818 C150.463011,320.90617 150.794019,321.568186 150.867576,322.266981 C150.941134,323.186447 150.867576,324.142693 150.683683,325.062159 C150.279118,327.489551 150.242339,329.953722 148.734414,332.123663 C148.145955,332.969573 148.587299,334.440719 148.219512,335.544079 C147.483939,338.00825 145.939235,340.031077 144.100302,342.201018 Z" id="Path"></path>
            <path d="M455.61561,220.242959 C457.711994,217.852346 459.771599,215.461732 461.867983,213.107898 C461.720868,212.924004 461.610532,212.77689 461.463418,212.592996 C462.529999,212.592996 463.633359,212.48266 464.69994,212.629775 C466.171087,212.813668 467.20089,213.659578 467.311226,215.24106 C467.495119,218.109796 466.64921,220.721082 464.920612,222.927802 C463.817252,224.325391 462.198991,224.36217 460.727844,223.553039 C459.036026,222.633572 457.454543,221.456655 455.61561,220.242959 Z" id="Path"></path>
            <path d="M366.721572,59.9983075 C370.215545,60.8074382 372.128036,63.7497316 372.27515,67.8689422 C372.348708,70.1492196 372.863609,72.4294969 373.194617,74.7097743 C373.452068,76.4015929 373.783076,78.0934116 373.893412,79.822009 C373.93019,80.4472463 373.452068,81.1092623 373.047502,82.249401 C371.980921,81.366713 371.061454,80.815033 370.399438,80.042681 C370.105209,79.711673 369.332857,78.9760996 370.472996,78.4611983 C370.546553,78.4244196 370.399438,77.1003876 370.06843,76.953273 C368.670841,76.2912569 369.148964,75.1511183 369.112185,74.1213156 C369.112185,73.9006436 369.332857,73.6064143 369.2593,73.4225209 C368.744398,71.6571449 368.082382,69.8917689 367.714596,68.0896142 C367.236473,65.6990009 366.979022,63.2716089 366.648014,60.8442169 C366.611236,60.5867662 366.684793,60.2925369 366.721572,59.9983075 Z" id="Path"></path>
            <path d="M180.364067,79.6748943 C180.106616,82.690745 177.936675,85.3020303 174.847267,86.111161 C172.897998,86.6260623 170.985507,86.6996197 169.661475,84.4193423 C171.868195,83.4263183 174.074915,82.5068516 174.810488,79.822009 C175.178275,78.5715343 175.803512,77.3578383 176.465528,76.2176996 C176.6862,75.8499129 177.421774,75.8131343 178.047011,75.8131343 C178.561912,74.9672249 178.745806,73.8270863 180.474403,74.1948729 C182.901795,74.7465529 184.630392,75.7763556 184.446499,77.063609 C184.225827,79.4174436 182.203,79.4174436 180.364067,79.6748943 Z" id="Path"></path>
            <path d="M203.203619,204.464911 C204.01275,204.391353 204.454094,204.20746 204.82188,204.317796 C209.419214,205.568271 213.979768,208.731236 215.377358,213.990586 C215.745144,215.388175 215.671587,216.528314 213.906211,216.8961 C213.611982,216.969658 213.39131,217.19033 213.09708,217.337444 C209.603107,219.029263 208.830755,218.587919 208.573304,214.615823 C208.352632,211.342522 207.359608,208.400228 205.042552,206.009615 C204.601208,205.531492 204.049528,205.163705 203.203619,204.464911 Z" id="Path"></path>
            <path d="M323.138852,124.839097 C323.212409,128.002062 322.07227,129.362873 319.203534,130.208783 C318.173732,130.503012 317.291044,131.201807 316.334798,131.753487 C315.967012,131.974159 315.636004,132.341945 315.268217,132.415503 C314.495865,132.525839 313.686734,132.452281 312.914382,132.452281 C313.208612,131.679929 313.282169,130.650127 313.833849,130.135225 C315.783118,128.296292 317.916281,126.67803 319.939108,124.912654 C320.343673,124.544868 320.343673,123.809294 320.637902,123.331172 C320.96891,122.81627 321.483812,122.374926 321.925156,121.933582 C322.256164,122.448484 322.697508,122.926606 322.91818,123.515065 C323.138852,123.91963 323.102073,124.508089 323.138852,124.839097 Z" id="Path"></path>
            <path d="M475.402532,213.218234 C478.013818,213.659578 480.882554,216.160527 481.213562,218.661476 C481.323898,219.39705 480.845775,220.50041 480.257316,220.978532 C479.742415,221.419876 478.639055,221.456655 477.94026,221.235983 C476.505892,220.831418 475.145082,220.169402 473.82105,219.507386 C473.453263,219.323492 473.048698,218.587919 473.159034,218.183354 C473.379706,217.263887 473.857828,216.381199 474.262394,215.498511 C474.666959,214.799716 475.034746,214.027364 475.402532,213.218234 Z" id="Path"></path>
            <path d="M135.714765,75.6292409 C136.560675,75.7027983 137.553699,75.4821263 138.215715,75.8499129 C139.245518,76.4383716 140.643107,77.3578383 140.753443,78.277305 C140.863779,79.159993 139.613304,80.3369103 138.730616,81.146041 C137.958264,81.8448356 136.854904,82.249401 135.825101,82.580409 C135.457315,82.690745 134.648184,82.3965156 134.464291,82.028729 C133.65516,80.5575823 132.882808,79.0128783 132.367907,77.4313956 C132.257571,77.063609 132.993144,76.1073636 133.544824,75.8499129 C134.133283,75.5556836 134.979192,75.7763556 135.714765,75.7763556 C135.714765,75.7027983 135.714765,75.6660196 135.714765,75.6292409 Z" id="Path"></path>
            <path d="M468.85593,204.75914 C466.023972,205.899279 462.566778,204.795919 459.440591,200.419257 C460.360058,200.235364 461.095631,200.014692 461.867983,199.941135 C462.456442,199.867577 463.081679,200.014692 463.706916,199.977913 C467.237668,199.646905 468.819151,201.118052 468.85593,204.75914 Z" id="Path"></path>
            <path d="M404.01514,229.03306 C402.91178,228.407823 401.146404,227.67225 399.748815,226.495332 C399.307471,226.127546 399.528143,224.435727 400.006265,223.736932 C400.447609,223.038138 401.330297,221.714106 402.617551,222.854244 C403.904804,223.957604 405.375951,224.950628 406.405753,226.311439 C407.472335,227.709028 406.479311,229.143396 404.01514,229.03306 Z" id="Path"></path>
            <path d="M179.334264,168.090809 C178.856142,169.083833 178.378019,170.076857 177.899896,171.069881 C177.679224,170.959545 177.458552,170.885988 177.274659,170.775652 C177.679224,169.745849 178.08379,168.716047 178.488355,167.686244 C178.745806,167.79658 179.040035,167.943695 179.334264,168.090809 Z" id="Path"></path>
        </g>
    </g>
</svg>