<svg width="16" height="16" viewBox="0 0 16 16" fill="none" xmlns="http://www.w3.org/2000/svg">
<path d="M14.2185 0H1.59384C0.712768 0 0 0.716447 0 1.59936V14.4006C0 15.2845 0.713688 16 1.59384 16H14.2185C15.0996 16 15.8124 15.2836 15.8124 14.4006V1.59936C15.8124 0.715527 15.0987 0 14.2185 0ZM5.07398 12.6597H2.94672V5.81526H5.07398V12.6597ZM3.99609 4.97557C3.32471 4.97557 2.89061 4.49917 2.89061 3.91148C2.89061 3.32379 3.33851 2.84739 4.0246 2.84739C4.7107 2.84739 5.13008 3.30908 5.14387 3.91148C5.14387 4.49917 4.70978 4.97557 3.99609 4.97557ZM12.8418 12.6597H10.7145V8.86682C10.7145 7.98483 10.4064 7.38334 9.63661 7.38334C9.04892 7.38334 8.69943 7.78893 8.54492 8.18072C8.48882 8.32052 8.47503 8.51641 8.47503 8.71231V12.6587H6.34776V7.9977C6.34776 7.14422 6.32017 6.43053 6.29166 5.81434H8.13933L8.23774 6.76622H8.28005C8.55964 6.31833 9.24573 5.66074 10.3935 5.66074C11.7933 5.66074 12.8427 6.59884 12.8427 8.6139V12.6587L12.8418 12.6597Z" fill="black"/>
</svg>
