<svg width="20" height="16" viewBox="0 0 20 16" fill="none" xmlns="http://www.w3.org/2000/svg">
<path d="M20.0003 2.64452V13.356C20.0003 13.8284 19.907 14.2721 19.7434 14.6565L12.7285 7.7354L19.5639 0.992188C19.8367 1.4448 20.0003 2.0198 20.0003 2.64452V2.64452Z" fill="black"/>
<path d="M19.046 15.6148C18.7455 15.8602 18.3919 16.0005 18.0144 16.0005H1.98471C1.60719 16.0005 1.2536 15.8602 0.953125 15.6148L8.10529 8.55859L8.90672 9.34906C9.21294 9.65123 9.60672 9.80167 9.99955 9.80167C10.3924 9.80167 10.7861 9.65123 11.0924 9.34906L11.8938 8.55859L19.046 15.6148Z" fill="black"/>
<path d="M7.27178 7.73604L0.256938 14.6565C0.0933015 14.2721 0 13.8284 0 13.356V2.64452C0 2.0198 0.163637 1.44543 0.436364 0.992188L7.27178 7.73604Z" fill="black"/>
<path d="M18.7237 0.174668L11.8931 6.91279L11.0596 7.73577L10.5022 8.28591C10.2386 8.54536 9.76104 8.54536 9.49741 8.28591L8.93999 7.73577L8.1065 6.91279L1.27539 0.174668C1.49597 0.0611977 1.7352 0 1.98496 0H18.0146C18.2639 0 18.5036 0.0611977 18.7237 0.174668Z" fill="black"/>
</svg>
