<svg width="17" height="16" viewBox="0 0 17 16" fill="none" xmlns="http://www.w3.org/2000/svg">
<path d="M16.32 0H0.68C0.303875 0 0 0.286 0 0.64V15.36C0 15.714 0.303875 16 0.68 16H16.32C16.6961 16 17 15.714 17 15.36V0.64C17 0.286 16.6961 0 16.32 0ZM14.3565 4.67H12.9986C11.934 4.67 11.7279 5.146 11.7279 5.846V7.388H14.2694L13.9379 9.802H11.7279V16H9.078V9.804H6.86162V7.388H9.078V5.608C9.078 3.542 10.4189 2.416 12.3781 2.416C13.3174 2.416 14.1228 2.482 14.3586 2.512V4.67H14.3565Z" fill="black"/>
</svg>
