<?xml version="1.0" encoding="UTF-8"?>
<svg width="255px" height="220px" viewBox="0 0 255 220" version="1.1" xmlns="http://www.w3.org/2000/svg" xmlns:xlink="http://www.w3.org/1999/xlink">
    <title>funders</title>
    <g id="Page-1" stroke="none" stroke-width="1" fill="none" fill-rule="evenodd">
        <g id="funders" transform="translate(0.784063, 0.800000)" fill="#000000" fill-rule="nonzero">
            <path d="M66.9429225,143.100378 C64.112317,141.353364 63.91329,138.36796 63.3383233,135.603697 C62.4316449,131.225104 62.5422154,126.758054 62.4095308,122.313119 C62.3210744,118.81909 62.2989603,115.325062 62.3210744,111.831033 C62.3653026,107.297641 62.6970142,102.786364 63.1392963,98.2750861 C63.3162091,96.4838435 63.5152361,94.714715 64.0017464,92.9898148 C64.9084248,89.7611553 66.7438955,87.5276307 70.2379243,86.6651805 C73.953094,85.7363881 77.6240356,85.1393072 81.4497759,85.4931329 C81.9141721,85.5373611 82.3785683,85.4046765 82.8429646,85.3383342 C82.931421,85.2056496 82.9977633,85.095079 83.0862197,84.9623944 C82.511253,84.4758841 81.892058,84.033602 81.3392054,83.5249775 C76.1202764,78.9031294 71.3215154,73.8611133 66.9208084,68.4652715 C64.8641966,65.9442634 63.1392963,63.135772 61.3259396,60.4378511 C59.2693278,57.3418763 57.3232865,54.157445 55.2224464,51.0835843 C54.7580502,50.3980471 53.8956001,50.0221073 53.2100628,49.4913687 C53.1879487,49.2923418 53.254291,48.8279456 53.0994923,48.7394891 C52.214928,48.2087506 51.3303638,47.5453274 50.3573432,47.3684146 C48.5882147,47.0588171 46.774858,47.0809312 44.9836155,46.9261325 C43.9000243,46.8155619 42.8164331,46.6386491 41.7328419,46.4617362 C41.0030764,46.3511657 40.6050225,46.417508 40.9588482,47.3020723 C41.0694187,47.5674415 40.9588482,47.9433813 40.8482777,48.2529788 C40.2290827,49.8894226 39.5656595,51.4816382 38.9685787,53.1180821 C38.0176721,55.6390901 37.1331079,58.2043264 36.1379731,60.7253345 C35.2976371,62.8925168 34.3467306,64.9933569 33.594851,66.7845994 C33.8823344,67.6691637 34.1477036,68.2441304 34.2582742,68.8412113 C34.4130729,69.6815473 33.7938779,70.0132589 33.1525689,70.3891987 C31.1844135,71.5391322 28.995117,71.3843334 26.8721628,71.5612463 C23.2454495,71.8708438 19.6187361,72.136213 15.9920228,72.3131259 C13.9796392,72.4015823 11.9009132,72.3131259 10.397154,70.6324539 C10.0433283,70.2565141 9.86641549,69.615205 9.84430138,69.0844664 C9.80007317,68.5979561 10.0654424,68.1335599 10.7730938,68.1999022 C16.8987011,68.7969831 22.9579661,67.4480226 29.0614593,67.4480226 C29.3047145,67.4480226 29.6806543,67.1384251 29.7691107,66.8730559 C31.516125,61.3887576 33.2410253,55.8823453 34.9216973,50.375933 C36.0937449,46.5501927 37.2215643,42.7023383 38.3714978,38.8544839 C39.233948,35.9354219 39.9858276,32.9721317 40.91462,30.0530698 C42.8385472,24.038033 44.8067026,18.0229962 46.8412003,12.0300735 C47.5046235,10.0619181 48.433416,8.16010503 49.2958661,6.23617783 C49.6275777,5.50641234 49.5170071,5.10835843 48.654557,5.08624433 C47.195026,5.01990201 45.7354951,4.90933148 44.25385,4.93144559 C41.4011303,4.9756738 38.5262966,5.06413022 35.6735769,5.15258665 C35.2976371,5.15258665 34.9438114,5.24104307 34.5678716,5.24104307 C32.8208573,5.26315717 31.0738429,5.28527128 29.3268286,5.30738539 C26.8279346,5.30738539 24.3290407,5.32949949 21.8301467,5.28527128 C18.8889706,5.26315717 15.9699087,5.21892896 13.0287326,5.13047254 C11.856685,5.08624433 10.6182951,3.98053904 10.5740669,2.89694786 C10.5519528,2.38832342 10.7952079,1.81335667 11.4586311,1.70278614 C13.1393031,1.43741688 14.7978611,1.06147708 16.4785331,0.928792443 C18.955313,0.729765491 21.4542069,0.663423173 23.9531009,0.57496675 C26.1866255,0.508624433 28.4422643,0.552852644 30.675789,0.464396221 C34.9659255,0.309597481 39.2560621,1.25704138e-14 43.5461986,1.25704138e-14 C46.1556631,1.25704138e-14 48.8093558,0.353825692 51.3967061,0.796107808 C53.7850296,1.19416171 53.8071437,1.39318866 54.2273117,4.48916347 C54.5147951,4.53339168 54.8465066,4.64396221 55.1561041,4.62184811 C56.6156351,4.5776199 58.0751661,4.46704937 59.5346971,4.48916347 C61.8787923,4.53339168 64.2228875,4.55550579 66.5448686,4.77664685 C68.7341651,4.9756738 70.9234615,5.28527128 73.0464157,5.81600982 C76.6510149,6.70057405 79.8354462,8.58027304 82.931421,10.6147708 C87.110987,13.379034 91.3126671,16.0769549 95.4701189,18.8633322 C100.37945,22.158334 105.81952,24.458201 111.082678,27.0234373 C115.218015,29.0358209 119.331239,31.0924327 123.466577,33.0605881 C125.965471,34.2547498 128.530707,35.3604551 131.051715,36.5325027 C136.469671,38.9871685 142.108768,40.8005252 147.703637,42.7244524 C150.578471,43.7195871 153.298506,45.2233463 156.062769,46.5501927 C157.455957,47.2136158 158.827032,47.8991531 160.131764,48.717375 C162.520088,50.2432483 164.620928,52.1892896 165.837204,54.7102977 C168.247641,59.6638574 170.945562,64.4183901 174.041537,68.9738959 C176.05392,71.915072 177.845163,74.9889327 179.813318,77.974337 C181.00748,79.7876936 182.290098,81.534708 183.59483,83.2596083 C183.793857,83.5249775 184.280368,83.635548 184.656308,83.6797763 C187.332114,83.9893737 189.985807,84.254743 192.661614,84.5864546 C193.347151,84.674911 194.032688,84.8960521 194.651883,85.1835355 C195.60279,85.6037035 195.293192,86.5988382 195.359535,87.3286037 C195.492219,88.6996783 194.983595,89.1861886 193.61252,89.1640745 C191.091512,89.0977322 188.54839,88.9208193 186.027382,88.8987052 C185.275503,88.8987052 184.413052,89.1419604 183.793857,89.5621284 C183.174662,90.0044105 182.865065,89.8053836 182.356441,89.4957861 C181.781474,89.1640745 181.118051,88.8102488 180.498856,88.8102488 C176.496203,88.8102488 172.493549,88.9208193 168.51301,88.9650475 C162.453745,89.053504 156.39448,89.1198463 150.313101,89.2304168 C146.929643,89.2967591 143.568299,89.4957861 140.184841,89.5400143 C135.474536,89.6063566 130.764232,89.6284707 126.076041,89.6284707 C124.240571,89.6284707 122.427214,89.4294438 120.591743,89.3409873 C120.370602,89.3188732 120.171575,89.3852156 119.817749,89.4515579 C120.237917,90.4688067 120.547515,91.4418274 121.034025,92.3042775 C122.670469,95.3117959 123.356006,98.6510259 124.174228,101.923914 C124.771309,104.312237 125.346276,106.722674 125.877014,109.110998 C126.23084,110.725328 126.474095,112.361771 126.739465,113.976101 C127.181747,116.696136 127.84517,119.394057 127.933626,122.136206 C128.044197,125.718691 127.026948,129.035807 123.731946,131.158761 C122.847382,131.733728 121.984932,132.397151 121.034025,132.861548 C120.392716,133.171145 119.618722,133.392286 118.911071,133.392286 C116.832345,133.392286 114.665163,133.591313 112.896034,132.264467 C111.834557,131.468359 110.728852,130.517452 110.131771,129.367519 C107.102139,123.706308 104.205191,117.978754 101.286129,112.251201 C100.003511,109.774421 98.8978053,107.187071 97.5046167,104.776633 C95.7576023,101.813343 93.7673328,99.0048516 91.9097479,96.1079037 C90.8482708,94.4493458 89.8752502,92.7244455 88.8580013,91.0216594 C88.1945781,89.89384 87.1331011,89.4957861 85.9168253,89.3852156 C84.5236366,89.274645 83.1304479,89.1640745 81.7372593,89.1861886 C80.3219565,89.2083027 78.8845396,89.4073297 77.4692368,89.473672 C76.1423905,89.5400143 74.8376583,90.1370951 73.4665837,89.1861886 C72.6483618,88.6112218 70.3484948,89.89384 70.0167832,90.9995453 C69.4197023,92.9898148 68.8226215,95.0021984 68.4909099,97.0588103 C68.1149701,99.4029055 67.8717149,101.791229 67.8053726,104.179552 C67.7169162,106.96593 67.893829,109.774421 67.9159432,112.582913 C67.9380573,115.081806 67.9159432,117.5807 67.9601714,120.079594 C67.9822855,121.782381 68.092856,123.507281 68.1591983,125.210067 C68.2476547,127.244565 68.2697688,129.279062 68.4245676,131.291446 C68.513024,132.330809 68.8668497,133.325944 69.0658767,134.365307 C69.3091318,135.692153 69.3975882,137.063228 69.7514139,138.36796 C69.9283268,139.031383 70.1715819,139.761149 71.1003744,140.09286 C72.0512809,140.424572 72.891617,141.087995 73.7098389,141.70719 C75.1693698,142.812895 76.8279278,143.05615 78.5970562,143.05615 C83.4179313,143.034036 88.2609205,143.034036 93.0817955,143.034036 C97.1729051,143.034036 101.286129,142.967694 105.377238,143.034036 C107.080024,143.05615 108.782811,143.520546 110.485597,143.476318 C112.630665,143.409976 114.510364,144.095513 116.323721,145.090648 C119.707179,146.970347 121.299394,150.154778 122.360872,153.693035 C123.532919,157.54089 123.532919,161.543543 123.908859,165.501968 C124.461712,171.406434 125.058792,177.3109 125.523189,183.215366 C125.788558,186.554596 125.832786,189.91594 126.009699,193.25517 C126.164498,196.152118 126.407753,199.049066 126.496209,201.968128 C126.562552,204.223767 126.673122,206.545748 125.722216,208.690816 C124.99245,210.32726 124.240571,211.985818 123.289664,213.511691 C122.250301,215.192363 120.459058,215.833672 118.579359,216.165384 C117.34097,216.386525 116.10258,216.62978 114.86419,216.718237 C110.994221,216.983606 107.124253,217.226861 103.23217,217.403774 C100.180423,217.536459 97.1065628,217.580687 94.0548162,217.647029 C90.6492439,217.713371 87.2215575,217.7576 83.8159852,217.801828 C80.1892719,217.846056 76.5404444,217.912398 72.9137311,217.934512 C68.2476547,217.978741 63.6036925,217.956627 58.9376162,218.000855 C54.6474797,218.045083 50.3573432,218.177768 46.0672066,218.221996 C39.9194852,218.288338 33.7938779,218.421023 27.6461565,218.288338 C24.7270946,218.221996 21.8301467,217.580687 18.9110847,217.271089 C17.8717218,217.160519 16.7660165,217.359546 15.7487676,217.204747 C12.8518198,216.740351 9.97698602,216.121156 7.08003816,215.612531 C6.68198425,215.546189 6.19547393,215.590417 5.86376234,215.76733 C3.7850364,216.895149 1.8832233,215.877901 1.4851694,213.688604 C0.0256384154,205.63907 -0.129160325,197.523193 0.0698666269,189.385202 C0.291007685,179.566539 0.512148742,169.747876 0.799632118,159.929213 C0.843860329,158.071628 1.35248476,156.214043 1.35248476,154.334344 C1.35248476,152.21139 2.45819005,150.773973 3.87349282,149.513469 C5.57627897,148.00971 7.6107767,147.412629 9.86641549,147.744341 C10.0875565,147.766455 10.2644694,148.098166 10.4856104,148.12028 C10.7509797,148.142395 11.2596042,148.00971 11.2596042,147.943368 C11.2596042,146.306924 12.6749069,146.28481 13.6258135,146.107897 C15.4612842,145.754071 17.3630973,145.687729 19.2649104,145.555044 C22.0070596,145.378131 24.7492087,145.267561 27.4692437,145.134876 C30.0787082,145.002192 32.6660585,144.913735 35.275523,144.758936 C36.8677386,144.67048 38.4378402,144.471453 40.0300558,144.316654 C41.7991842,144.161856 43.5683127,143.984943 45.3374412,143.896486 C47.1507978,143.80803 48.9641545,143.80803 50.7775112,143.763802 C52.6350961,143.719573 54.4926809,143.719573 56.3502658,143.653231 C59.0703008,143.564775 61.7903359,143.409976 64.5103709,143.299405 C65.2843646,143.277291 66.0804724,143.299405 66.8544661,143.299405 C66.832352,143.255177 66.8765802,143.166721 66.9429225,143.100378 Z M11.1048054,149.270214 C10.6404092,149.535583 10.2865835,149.845181 9.88852959,149.911523 C7.19060869,150.442262 5.28879559,153.604579 5.22245327,155.948674 C5.13399685,158.779279 5.13399685,161.609885 5.06765453,164.418376 C5.04554043,165.723109 4.91285579,167.027841 4.97919811,168.332573 C5.06765453,170.411299 5.44359433,172.490025 5.42148022,174.568751 C5.39936612,179.522311 5.17822506,184.497984 5.11188274,189.451544 C5.08976864,192.613861 5.17822506,195.776178 5.3109097,198.938496 C5.46570844,202.565209 5.7089636,206.191922 5.97433287,209.796522 C5.99644698,210.084005 6.37238677,210.504173 6.65987015,210.592629 C7.94248828,210.924341 9.24722052,211.233938 10.5519528,211.388737 C13.2498737,211.67622 15.9920228,211.698335 18.6899437,212.118503 C22.3829994,212.693469 26.0097127,213.489577 29.8133389,213.224208 C33.0862266,212.980953 36.3812283,213.268436 39.654116,213.312664 C42.2635804,213.356893 44.8509308,213.445349 47.4603953,213.401121 C52.9889218,213.312664 58.5174482,213.113637 64.0459746,213.003067 C67.6063457,212.936725 71.1446026,212.91461 74.7049736,212.91461 C78.7739691,212.91461 82.8429646,212.91461 86.8898459,212.936725 C88.4599474,212.936725 90.0079348,213.003067 91.5780363,212.936725 C94.5855547,212.80404 97.5930731,212.582899 100.600591,212.4281 C102.85623,212.31753 105.111869,212.361758 107.345394,212.229073 C109.800059,212.096389 112.254725,211.631992 114.709391,211.67622 C117.34097,211.742563 119.043756,210.305146 120.459058,208.536017 C122.626241,205.838097 123.75406,202.78635 123.400235,199.115408 C122.89161,193.984936 122.980067,188.810235 122.582013,183.679763 C122.095502,177.377242 121.409965,171.074722 120.79077,164.772202 C120.525401,161.963711 120.30426,159.133105 119.884092,156.324614 C119.685065,154.975653 119.375467,153.560351 118.114963,152.653672 C115.262244,150.619174 112.166269,149.447127 108.583784,149.778838 C108.318414,149.800953 108.053045,149.601926 107.765562,149.513469 C107.544421,149.425013 107.301166,149.292328 107.080024,149.292328 C103.453311,149.181758 99.8044837,149.093301 96.1777703,149.026959 C91.8212915,148.938502 87.4648127,148.827932 83.0862197,148.850046 C77.292324,148.87216 71.5205424,149.049073 65.7266467,149.115415 C63.6700348,149.137529 61.6355371,148.982731 59.5789253,149.026959 C57.6771122,149.071187 55.7974132,149.336556 53.8956001,149.402899 C49.7160341,149.513469 45.5364681,149.513469 41.3569021,149.668268 C37.5532759,149.800953 33.7275356,150.088436 29.9239094,150.265349 C25.5010883,150.464376 21.056153,150.641289 16.6333319,150.707631 C14.7094047,150.773973 12.5864505,151.017228 11.1048054,149.270214 Z M108.030931,115.811572 C109.755831,115.059692 111.281705,114.329927 112.851806,113.688618 C113.913283,113.246336 114.996874,113.113651 116.168922,113.622275 C118.866843,114.772209 120.016776,117.072076 120.702314,119.637312 C121.144596,121.251642 121.520536,122.976542 120.6802,124.590872 C120.459058,125.01104 119.839864,125.38698 119.353353,125.453322 C118.20342,125.563893 117.186171,123.816878 117.562111,122.644831 C118.181306,120.743018 117.893822,118.929661 116.810231,117.271103 C116.412177,116.651908 115.881439,116.165398 115.063217,116.474995 C113.227746,117.182647 111.392275,117.934526 109.42412,118.70852 C109.999086,119.836339 110.485597,120.80936 110.972107,121.782381 C111.9009,123.595737 112.76335,125.453322 113.758484,127.222451 C114.068082,127.775303 114.709391,128.195471 115.262244,128.549297 C116.522748,129.345405 117.982279,129.455975 119.44181,129.478089 C121.852247,129.522318 123.112751,128.704096 123.37812,126.758054 C123.488691,125.917718 123.599261,125.055268 123.488691,124.237046 C123.112751,121.517011 122.714697,118.81909 122.183959,116.121169 C121.631106,113.26845 120.967683,110.437844 120.326374,107.607239 C120.260032,107.275527 120.083119,106.988044 120.016776,106.656332 C118.623588,98.3635425 114.620935,90.9774312 111.569188,83.2817224 C110.131771,79.655009 109.42412,75.9177251 109.180865,72.0698707 C109.136636,71.2074206 109.446234,70.1459435 109.954858,69.4382921 C111.370161,67.4922508 112.851806,65.5462095 114.532478,63.8434234 C115.947781,62.4060065 117.606339,61.1233884 119.353353,60.1061395 C121.896475,58.6023803 124.815537,58.4918098 127.668257,58.5581521 C128.530707,58.5802662 129.791211,58.3812393 129.990238,60.0840254 C126.186612,61.3224153 121.918589,61.7425833 118.977413,65.1923838 C119.309125,65.1923838 119.530266,65.236612 119.729293,65.1923838 C124.771309,64.2414773 129.813325,63.2021143 134.877455,62.3617783 C138.791652,61.7204692 142.772191,61.4993282 146.730616,62.0742949 C147.659409,62.2069796 148.610315,62.4723488 149.450651,62.8925168 C149.848705,63.0915438 150.290987,64.0645644 150.158303,64.2414773 C149.782363,64.7058735 149.848705,65.5240954 148.765114,65.5462095 C144.806689,65.5904377 140.82615,65.5240954 136.934067,66.054834 C131.339199,66.8067136 125.766444,67.9124188 120.260032,69.1286947 C118.269762,69.5709768 116.434291,70.7651385 114.576706,71.6718168 C114.289223,71.8266156 113.979625,72.3794682 114.023854,72.7332939 C114.178652,74.2591672 114.311337,75.8071546 114.731505,77.2666856 C115.372814,79.5444385 116.168922,81.8000773 117.009258,84.033602 C117.186171,84.5422264 117.761138,85.2498778 118.159191,85.2719919 C121.432079,85.3604483 124.682853,85.3162201 127.95574,85.2498778 C129.326815,85.2277637 130.697889,85.095079 132.312219,84.9845085 C131.118057,83.4807493 130.167151,82.1317889 129.08356,80.8933989 C127.491344,79.0800423 125.501075,77.5983972 124.550168,75.2764161 C124.395369,74.9004763 124.351141,74.214939 124.572282,74.015912 C124.88188,73.7505428 125.545303,73.595744 125.943357,73.7505428 C126.584666,73.9937979 127.181747,74.43608 127.646143,74.9225904 C129.238358,76.5590342 130.830574,78.195478 132.267991,79.9646065 C133.241012,81.1808823 134.081348,82.5519569 134.700543,83.9672596 C134.988026,84.6527969 135.253395,84.9181662 135.894704,84.873938 C139.565646,84.674911 143.214473,84.45377 146.885415,84.254743 C147.858436,84.2105148 148.85357,84.1441725 150.09196,84.0778302 C149.428537,83.2596083 149.008369,82.5519569 148.433402,82.0212183 C146.045079,79.7213513 143.656755,77.4435984 141.20209,75.2321879 C139.233934,73.4630594 136.73504,72.1804413 135.651449,69.6594332 C135.76202,69.2392652 135.87259,68.8854395 136.049503,68.2662445 C136.513899,68.3989292 137.177322,68.3989292 137.619605,68.7085266 C143.612527,72.6890657 148.897799,77.4657125 153.254277,83.1932659 C153.674445,83.7461186 154.094613,83.8788032 154.735922,83.8788032 C159.556797,83.8788032 164.377673,83.9451455 169.198548,83.9672596 C172.139724,83.9893737 175.058786,83.9672596 177.999962,83.9672596 C178.04419,83.834575 178.088418,83.7018904 178.132646,83.5692057 C177.778821,83.0384672 177.424995,82.4856145 177.071169,81.954876 C174.351134,77.9301088 171.653213,73.9053415 168.933178,69.9026884 C166.765996,66.7182571 164.598814,63.5338259 162.409517,60.3715088 C160.662503,57.8505007 158.849146,55.395835 156.306024,53.6045924 C152.126458,50.6634163 147.526724,48.5625763 142.683735,46.9261325 C138.194571,45.4002592 133.705408,43.8743859 129.348929,42.016801 C124.107886,39.7832763 119.021642,37.21804 113.891169,34.7191461 C108.959723,32.3087085 104.09462,29.8098146 99.2074028,27.3109206 C96.6200524,25.9840743 94.010588,24.7014562 91.511694,23.197697 C86.1600804,19.9690375 80.9411515,16.519237 75.5453096,13.379034 C72.8695028,11.8089325 70.0167832,10.238831 67.0313789,9.5532937 C62.8296988,8.55815894 58.4289918,8.4254743 54.1388553,7.82839345 C53.03315,7.6735947 52.5245255,8.07164861 52.214928,9.04466926 C51.0207663,12.7156108 49.7823764,16.3423242 48.6103288,20.0132657 C47.5709658,23.3082675 46.5758311,26.6032692 45.5806963,29.9203851 C45.1384142,31.4020302 44.7403603,32.8836753 44.3865346,34.3653204 C44.1875077,35.1614282 44.2096218,36.0459924 43.8779102,36.7757579 C42.8606613,38.9650544 42.3078087,41.2206932 42.1972381,43.5426743 C44.1432794,43.6532448 46.0229784,43.7638153 47.9247915,43.8743859 C48.853584,43.9407282 49.7602623,44.0955269 50.6669406,44.117641 C52.2812704,44.1397551 53.6965731,44.6704937 54.8465066,45.7983131 C55.7752991,46.7049914 56.7040915,47.6337838 57.5886558,48.5846904 C59.1366432,50.2653624 60.6846306,51.9460345 62.1883898,53.6488206 C62.5643296,54.0911027 62.8518129,54.5997272 63.2277527,55.0641234 C64.5545991,56.7226813 65.9256736,58.337011 67.2082918,60.0176831 C69.2649036,62.6492617 71.1224885,65.435639 73.311785,67.9566471 C75.5010814,70.4776551 77.9778613,72.7111798 80.3219565,75.0995032 C81.4940041,76.2936649 82.5997094,77.554169 83.7938711,78.7262166 C84.4794084,79.4117538 85.3197444,79.9424924 86.0273958,80.6280297 C87.2436716,81.8000773 88.3051487,83.1048095 89.5656527,84.1884007 C91.5338081,85.8911868 93.1481378,87.8372281 94.3865278,90.114981 C95.5364613,92.2821634 96.7527371,94.4272317 98.0132411,96.5501858 C98.9420336,98.1202873 99.9813965,99.6240465 100.932303,101.14992 C104.448446,99.8673017 107.765562,98.2087438 111.701873,97.4568642 C111.171134,97.9654886 110.684624,98.3193143 111.834557,98.4077707 C109.04818,101.26049 105.178211,101.52586 102.104351,103.538243 C104.116734,107.629353 106.040662,111.676234 108.030931,115.811572 Z" id="Shape"></path>
            <path d="M189.742552,92.9677007 C191.157855,92.613875 192.418359,92.3263916 193.634634,93.3215264 C194.143259,93.7416944 194.873024,93.8964931 195.447991,94.2503188 C197.084435,95.2675677 197.460375,97.0809244 197.858429,98.6952541 C198.521852,101.348947 198.632422,104.11321 198.499738,106.877473 C198.411281,108.757172 198.742993,110.636871 198.720879,112.51657 C198.676651,115.701001 198.477624,118.885433 198.433395,122.069864 C198.367053,125.563893 198.367053,129.057921 198.411281,132.574064 C198.433395,135.227757 198.588194,137.859335 198.610308,140.513028 C198.632422,141.309136 198.610308,142.149472 197.70363,142.591754 C197.526717,142.68021 197.482489,143.011922 197.305576,143.387862 C199.185275,143.498432 200.976518,143.586889 202.745646,143.675345 C206.350245,143.874372 209.976959,144.051285 213.581558,144.228198 C218.22552,144.449339 222.891596,144.582024 227.535559,144.869507 C231.051701,145.090648 234.523616,145.510816 238.039759,145.820413 C239.432948,145.953098 240.892479,145.886756 242.241439,146.240582 C243.258688,146.505951 244.320165,147.103032 245.094159,147.854911 C247.747851,150.442262 249.51698,153.582465 250.600571,157.142836 C253.165807,165.590424 253.82923,174.303382 253.984029,183.016339 C254.0946,189.407316 253.608089,195.798293 253.23215,202.189269 C253.055237,205.307358 252.060102,208.270648 250.158289,210.769542 C249.118926,212.118503 247.659395,213.091523 245.934495,213.511691 C243.391372,214.130886 240.84825,214.949108 238.2609,215.302934 C235.363952,215.700988 232.422776,215.700988 229.503714,215.811558 C226.62888,215.922129 223.776161,215.966357 220.901327,215.966357 C217.584211,215.966357 214.267095,215.877901 210.927865,215.789444 C209.357764,215.745216 207.809776,215.700988 206.261789,215.568303 C204.625345,215.413504 203.011015,215.081793 201.374572,214.993336 C199.406416,214.860652 197.416147,214.860652 195.425877,214.882766 C191.334767,214.926994 187.221544,214.993336 183.130434,215.081793 C180.012345,215.148135 176.894256,215.192363 173.798282,215.347162 C171.409958,215.457733 169.021635,215.678874 166.633311,215.855786 C163.957505,216.054813 161.303812,216.275954 158.628005,216.408639 C155.001292,216.585552 151.396692,216.784579 147.769979,216.828807 C144.850917,216.873035 141.909741,216.873035 139.012793,216.563438 C135.850476,216.231726 132.710273,215.524075 129.57007,214.926994 C128.508593,214.727967 128.154767,214.064544 128.22111,212.870382 C128.243224,212.516557 128.154767,212.140617 128.176881,211.786791 C128.243224,210.681086 129.127788,210.106119 130.189265,210.459945 C132.378561,211.167596 134.656314,211.432965 136.956181,211.455079 C140.627123,211.499308 144.298065,211.521422 147.946892,211.521422 C150.865954,211.543536 153.785016,211.587764 156.704078,211.499308 C158.229951,211.455079 159.73371,211.145482 161.259584,211.034911 C163.095054,210.902227 164.930525,210.880113 166.765996,210.791656 C167.805359,210.747428 168.866836,210.592629 169.906199,210.548401 C171.542643,210.459945 173.179087,210.393602 174.837645,210.32726 C178.04419,210.194575 181.272849,210.061891 184.479395,209.973434 C187.110973,209.884978 189.764666,210.106119 192.37413,209.774407 C196.885408,209.177327 201.308229,209.95132 205.775279,210.172461 C207.964575,210.283032 210.153872,210.725314 212.343168,210.81377 C214.377666,210.880113 216.412163,210.636858 218.468775,210.614743 C221.874348,210.548401 225.27992,210.592629 228.663378,210.459945 C233.351568,210.260918 238.061873,210.283032 242.661607,209.000414 C247.438254,207.673567 250.202517,204.909304 250.49,200.088429 C250.888054,193.100372 251.13131,186.068086 250.998625,179.057914 C250.888054,173.794757 250.136175,168.5316 248.875671,163.379013 C248.057449,160.039784 246.819059,156.89958 244.718219,154.091089 C243.568285,152.565216 242.175097,151.857564 240.251169,151.813336 C238.658954,151.769108 237.088852,151.326826 235.496637,151.172027 C234.014992,151.039342 232.533347,151.061457 231.051701,150.973 C227.424988,150.751859 223.820389,150.508604 220.193676,150.309577 C218.11495,150.199006 216.01411,150.154778 213.913269,150.088436 C213.758471,150.088436 213.625786,150.132664 213.470987,150.11055 C209.999073,149.535583 206.505044,149.690382 203.011015,149.557697 C198.300711,149.35867 193.568292,149.425013 188.857988,149.380785 C184.214025,149.35867 179.547949,149.425013 174.903987,149.336556 C172.338751,149.292328 169.773514,148.916388 167.208278,148.783704 C165.461264,148.695247 163.714249,148.76159 161.945121,148.783704 C157.677098,148.805818 153.43119,148.850046 149.163168,148.850046 C146.133535,148.850046 143.081789,148.673133 140.052156,148.827932 C137.442692,148.960617 134.877455,149.491355 132.267991,149.778838 C130.852688,149.933637 129.437385,149.933637 128.022083,150.11055 C127.336545,150.199006 126.695236,150.552832 126.031813,150.773973 C124.926108,151.127799 124.085772,150.707631 123.731946,149.601926 C123.599261,149.203872 123.333892,148.827932 123.26755,148.407764 C123.112751,147.501086 124.727081,145.798299 125.700102,145.731957 C126.164498,145.709843 126.651008,145.643501 127.071176,145.466588 C128.906647,144.736822 130.874802,145.002192 132.754501,144.648366 C138.172457,143.653231 143.656755,143.564775 149.11894,143.520546 C155.863742,143.454204 162.630658,143.631117 169.37546,143.609003 C173.444456,143.609003 177.513451,143.387862 181.582447,143.32152 C183.616945,143.299405 185.673556,143.454204 187.708054,143.365748 C189.079129,143.299405 190.494431,143.078264 191.821278,142.746553 C192.971211,142.459069 193.214466,141.441821 193.214466,140.380343 C193.214466,138.323732 193.192352,136.289234 193.170238,134.232622 C193.148124,130.229969 193.148124,126.205202 193.148124,122.202549 C193.148124,119.548856 193.170238,116.917277 193.081782,114.263585 C192.993325,112.273315 192.75007,110.30516 192.551043,108.31489 C192.175104,104.643949 191.865506,100.950893 191.378996,97.3020654 C191.202083,96.0636755 190.53866,94.8916279 190.096378,93.6974662 C189.963693,93.4763251 189.875237,93.2551841 189.742552,92.9677007 Z" id="Path"></path>
        </g>
    </g>
</svg>