<?xml version="1.0" encoding="UTF-8"?>
<svg width="285px" height="406px" viewBox="0 0 285 406" version="1.1" xmlns="http://www.w3.org/2000/svg" xmlns:xlink="http://www.w3.org/1999/xlink">
    <title>open-knowledge</title>
    <g id="Page-1" stroke="none" stroke-width="1" fill="none" fill-rule="evenodd">
        <g id="open-knowledge" transform="translate(0.488361, 0.280039)" fill="#000000" fill-rule="nonzero">
            <path d="M262.230654,338.697236 C261.537171,336.315272 260.934142,333.903156 260.150204,331.551343 C257.587331,323.983329 254.783247,316.475619 252.340979,308.877454 C250.320832,302.605952 248.451443,296.243997 246.974022,289.821738 C245.436298,283.128117 244.501603,276.253587 243.144788,269.499662 C241.275398,260.363774 239.315554,251.258036 237.235104,242.212602 C236.662226,239.770334 235.576774,237.418522 234.551625,235.127011 C233.82799,233.559136 232.350569,232.986259 230.601785,232.865653 C223.878012,232.38323 217.335148,233.528985 210.792284,234.976254 C204.309722,236.423524 197.917615,238.172308 191.76672,240.554272 C184.831887,243.2076 178.349326,246.855925 172.138127,250.92637 C171.203432,251.529399 170.208435,252.011822 169.364194,252.675154 C169.002377,252.946517 168.640559,253.730455 168.791316,254.031969 C170.841615,258.011961 174.097971,260.846197 177.263873,263.167858 C178.892052,262.142709 180.158412,261.11756 181.57553,260.454228 C189.656119,256.564691 198.068373,253.670152 206.842444,251.891217 C210.611375,251.13743 214.440609,250.594704 218.299994,251.619854 C219.506052,251.95152 220.470899,252.343488 221.104079,253.579698 C221.918168,255.147573 221.043776,256.142571 219.475901,255.901359 C213.656671,255.057119 208.229411,256.655145 202.80215,258.223021 C198.580947,259.429079 194.450199,261.027105 190.31945,262.534678 C187.60582,263.529676 184.922341,264.645279 181.846894,265.851337 C182.902194,266.152852 183.65598,266.454366 184.409767,266.54482 C189.445058,267.087547 194.299442,268.293604 198.942765,270.223297 C200.872457,271.037386 202.651393,272.213293 204.550934,273.117836 C205.09366,273.389199 205.847446,273.570108 206.450475,273.449502 C210.0988,272.725867 213.777277,272.484656 217.485905,272.876625 C217.938177,272.936927 218.360297,273.057533 218.782418,273.238442 C219.988475,273.720865 221.224685,274.23344 220.92317,275.861618 C220.651807,277.459645 219.204538,277.007373 218.239691,277.097827 C215.887879,277.339039 213.536066,277.339039 211.184253,277.459645 C210.701829,277.489796 210.219406,277.640553 209.405317,277.791311 C211.003344,279.44964 212.390311,280.927061 213.807429,282.374331 C214.078792,282.675845 214.380306,282.917057 214.651669,283.218571 C215.49591,284.092963 216.068787,285.148264 215.013487,286.082959 C214.108943,286.897048 212.842582,286.927199 211.877736,286.052807 C210.008346,284.364326 208.078653,282.736148 206.450475,280.836607 C202.560938,276.31389 197.676404,273.570108 192.007932,272.092687 C190.138542,271.610264 188.208849,271.157992 186.279156,270.946932 C181.062956,270.374054 176.78145,267.720727 172.771308,264.735734 C168.610408,261.660286 165.203294,257.770749 163.635419,252.705306 C162.972087,250.564553 162.61027,248.152437 162.730875,245.92123 C163.03239,240.373363 163.725873,234.825497 164.178145,229.27763 C164.600265,224.332793 164.962083,219.387955 165.233446,214.443118 C165.504809,209.407826 165.715869,204.372534 165.776172,199.307091 C165.836475,193.306953 165.715869,187.306815 164.992234,181.306676 C164.298751,175.517598 166.16814,170.150641 168.911922,165.024894 C174.580395,154.441736 183.806738,148.049629 194.239139,143.014337 C198.249281,141.084645 202.16897,138.91374 206.028355,136.682533 C207.324867,135.928747 208.380168,134.722689 209.586226,133.667388 C210.159103,134.75284 209.948043,135.868444 209.25456,136.712685 C208.199259,137.979045 207.083656,139.215255 205.756992,140.180101 C202.349878,142.65252 198.912613,145.064636 195.324591,147.295843 C192.369749,149.135081 189.022938,150.431593 186.158551,152.421589 C181.786591,155.406582 177.776448,158.813696 175.002515,163.577625 C173.344185,166.38171 171.866764,169.185794 170.630555,172.200939 C168.821468,176.542748 169.062679,180.854405 169.846617,185.34697 C170.32904,188.090752 170.570252,190.894837 170.570252,193.66877 C170.5401,198.673911 170.148132,203.6489 170.057677,208.65404 C169.997374,212.362668 170.389343,216.071296 170.148132,219.779924 C169.786314,225.689608 169.062679,231.569141 168.489802,237.448673 C168.158136,240.855787 167.856622,244.2629 167.555107,247.760468 C171.444644,245.468958 175.002515,243.117145 178.771446,241.187453 C182.841891,239.107003 187.032943,237.117007 191.3446,235.579283 C196.982921,233.528985 202.741847,231.810352 208.561077,230.212325 C214.139095,228.674602 219.86787,228.162027 225.687099,228.041421 C228.672093,227.981118 231.415874,228.312784 234.189808,229.337933 C237.506467,230.543991 239.737674,232.895804 241.426155,235.760192 C244.803117,241.54927 246.491598,247.911225 247.546899,254.484241 C248.300685,259.278321 249.355986,264.012099 250.230378,268.806179 C250.954013,272.906776 251.617345,277.007373 252.220374,281.10797 C253.275674,288.374469 255.084761,295.460059 257.225514,302.455195 C258.823541,307.671396 260.27081,312.947899 262.019594,318.133948 C263.858833,323.531058 265.999585,328.837712 267.929278,334.20467 C268.924276,336.978603 269.858971,339.81284 270.642908,342.647076 C270.853969,343.400862 270.642908,344.667223 270.130334,345.089343 C269.527305,345.571766 268.351398,345.601918 267.477006,345.481312 C263.949287,344.998889 260.421568,344.245102 256.893848,343.853134 C253.39628,343.491316 249.868561,343.129499 246.401144,343.340559 C241.848275,343.611922 237.325558,344.305405 232.832992,345.02904 C227.254974,345.933584 221.646805,346.807976 216.159242,348.074336 C206.661535,350.305544 197.585949,353.77296 188.781727,357.964011 C182.570528,360.949005 176.660844,364.537027 171.35419,368.878836 C166.952078,372.466858 162.881633,376.537303 158.841339,380.547446 C156.218163,383.140471 153.082412,384.014863 149.614995,384.227683 C149.042118,384.256074 148.348635,383.894257 147.866211,383.502288 C147.685303,383.351531 147.866211,382.326382 148.107423,382.205776 C151.243174,380.879112 152.599989,377.743361 154.92165,375.602609 C159.353913,371.562315 163.514813,367.220506 168.097833,363.391272 C174.48994,358.054466 181.846894,354.285535 189.505361,351.119633 C192.460203,349.883423 195.354742,348.466305 198.400039,347.561762 C205.09366,345.541615 211.817433,343.581771 218.601509,341.923441 C227.707246,339.692234 236.993892,338.184661 246.401144,338.003753 C250.350984,337.94345 254.300824,338.486176 258.250663,338.727387 C259.336115,338.757539 260.602476,338.697236 262.230654,338.697236 Z" id="Path"></path>
            <path d="M90.4277026,261.871346 C85.1210477,260.816045 80.0556044,259.700442 74.9901611,258.795898 C73.3318315,258.494384 71.5830475,258.554687 69.8945664,258.675292 C67.4824505,258.856201 65.4924549,257.740598 63.412005,256.836054 C62.808976,256.594843 62.2360985,256.293328 61.6933725,256.021965 C61.8742811,254.484241 63.1104905,253.398789 64.4673057,253.42894 C67.180936,253.459092 69.9247178,253.278183 72.6383482,253.549546 C76.4977335,253.941515 80.3269674,254.604847 84.1562014,255.207876 C85.543168,255.418936 86.8999831,255.720451 88.2567983,255.991814 C90.8196714,256.474237 93.3523931,257.016963 95.9152662,257.439083 C96.4579922,257.529537 97.1213241,257.499386 97.6037473,257.288326 C101.372678,255.50939 105.141609,253.730455 108.850237,251.861065 C111.774928,250.413796 114.367952,248.484103 116.81022,246.071987 C110.749779,243.117145 104.870246,240.252758 98.4479878,238.745185 C92.1463351,237.267764 85.9049854,235.669738 79.5430298,234.554134 C75.1710698,233.800348 70.7086555,233.770196 66.2763926,233.408379 C64.55776,233.257622 62.808976,233.01641 61.0903435,232.925956 C58.8892878,232.835501 56.6882321,232.986259 54.5173278,232.775198 C52.376575,232.59429 50.5976395,233.317925 48.8488555,234.282771 C48.5171896,234.46368 48.0950693,235.157163 48.1855237,235.398374 C49.2709758,238.02155 48.4870381,240.705029 48.2156751,243.267902 C47.8840092,246.614713 47.2206773,249.991675 46.2859824,253.21788 C44.9593187,257.710446 43.0899289,262.052255 41.7331138,266.54482 C40.2858442,271.218295 39.0194834,275.982224 37.9038798,280.746153 C36.5772161,286.535231 35.6123698,292.444914 34.2555546,298.233993 C33.5620713,301.188834 32.3258619,304.023071 31.4213185,306.91761 C30.6373808,309.450331 29.9438975,312.013204 29.1901113,314.545926 C28.0142048,318.616371 26.8081469,322.686817 25.602089,326.787414 C24.4261825,330.857859 23.250276,334.928305 22.0442181,338.99875 C21.5316435,340.807837 20.9889174,342.616924 20.4461913,344.576768 C22.2854297,344.486314 23.9739108,344.365708 25.6623919,344.305405 C30.7881381,344.094345 35.9440357,343.672225 41.0697819,343.762679 C47.9141606,343.883285 54.7886908,344.094345 61.6029181,344.878283 C69.3216889,345.752675 77.0103081,346.958733 84.5783216,348.586911 C90.4880055,349.853272 96.2770835,351.662359 101.975707,353.712657 C108.880389,356.215227 115.724768,358.989161 122.388238,362.09476 C128.388376,364.898844 133.996545,368.54717 138.700171,373.220644 C141.202741,375.693063 142.981677,378.858965 144.971672,381.783655 C145.243035,382.175624 144.971672,383.411834 144.640006,383.562591 C143.735463,383.984711 142.499254,384.436983 141.655013,384.16562 C140.388652,383.7435 139.212746,382.808805 138.187597,381.904261 C133.544274,377.803664 129.353222,373.160341 124.076719,369.783379 C118.830367,366.436568 113.342803,363.481726 107.493422,361.371125 C99.9555602,358.627343 92.3573953,356.06447 84.6989274,353.77296 C80.6586334,352.566902 76.4072792,351.933722 72.2162279,351.300541 C66.0954839,350.395998 59.914437,349.581909 53.7635416,349.069334 C48.1252208,348.617062 42.4265971,348.526608 36.7581248,348.436154 C33.4716169,348.375851 30.2152605,348.797971 26.9287527,348.797971 C23.6120934,348.76782 20.2351312,348.858274 17.1898349,347.079339 C15.2601422,345.963735 14.6269618,344.908434 15.1998393,342.827984 C15.5315053,341.652078 16.1948371,340.566626 16.5566545,339.390719 C16.8883204,338.36557 16.9184719,337.219815 17.2199864,336.194666 C18.003924,333.300127 18.878316,330.435739 19.7225566,327.571352 C20.4763428,324.948176 21.1698261,322.294848 21.9537637,319.701824 C22.7678528,316.92789 23.7025477,314.184109 24.4864854,311.410175 C25.7226948,307.068367 26.9589041,302.726558 28.1046592,298.38475 C29.4916258,293.168549 30.7881381,287.922197 32.1449532,282.705997 C33.3811626,277.851614 34.4967662,272.967079 35.8837328,268.172999 C37.2103965,263.559827 38.8988776,259.03711 40.2556928,254.45409 C41.5220536,250.08213 42.5773543,245.680018 43.7231093,241.277907 C44.2055325,239.378366 44.7482586,237.508976 45.2306817,235.639586 C43.6025035,234.614437 43.6929579,234.735043 44.9894702,233.287773 C47.3111317,230.634446 50.4468823,229.790205 53.6730872,229.27763 C57.5927755,228.64445 61.5727667,227.950967 65.5527578,227.920815 C73.2413771,227.890664 80.8395421,228.825359 88.2869498,230.875657 C91.1814888,231.689746 94.1966336,231.930958 97.0911726,232.775198 C101.764647,234.101862 106.377819,235.579283 110.930687,237.237613 C113.825226,238.292913 116.629311,239.67988 119.403244,241.096998 C120.910817,241.880936 121.483694,240.674878 121.785209,239.921092 C123.232478,236.604432 124.287779,233.137016 124.800354,229.488691 C125.855654,221.98098 125.946109,214.473269 125.55414,206.965559 C125.282777,201.508147 124.679748,196.020583 123.89581,190.593322 C123.05157,184.804244 122.056572,179.015166 120.699757,173.286391 C119.52385,168.251099 117.172037,163.607776 112.890531,160.411723 C110.599021,158.69309 107.85524,157.577487 105.322518,156.160369 C101.855101,154.230676 98.2972306,152.361286 94.9202684,150.280836 C92.0860322,148.501901 89.4327048,146.421451 86.7190745,144.491758 C86.2366513,144.160092 85.6637738,143.918881 85.1813506,143.587215 C84.7290789,143.2857 84.3371101,142.893731 83.794384,142.44146 C86.3572571,140.933887 88.7392215,141.175099 90.9101258,142.2304 C94.4076938,143.918881 97.7243531,145.969179 101.221921,147.65766 C104.900398,149.466747 108.69948,150.97432 112.347805,152.783406 C114.579013,153.868859 116.780068,155.135219 118.770064,156.61264 C120.790211,158.120213 122.750055,159.838845 124.408385,161.738387 C127.242621,165.024894 128.328073,169.155643 129.112011,173.286391 C130.076857,178.351834 130.921098,183.447429 131.644732,188.543024 C132.63973,195.598463 133.27291,202.684053 133.212608,209.829946 C133.182456,212.422971 133.453819,215.046147 133.453819,217.639171 C133.423668,223.036281 132.277913,228.252481 130.679886,233.348076 C130.107008,235.187314 129.413525,236.996401 128.508982,238.684882 C127.905953,239.830637 126.850652,240.735181 125.97626,241.76033 C125.041565,242.845782 124.348082,243.84078 125.071717,245.49911 C125.584291,246.705168 125.132019,248.061983 123.986264,249.087132 C120.368091,252.313337 116.297645,254.846059 111.774928,256.624994 C108.548723,257.891355 105.322518,259.157716 102.24707,260.755742 C98.2972306,262.806041 94.4378452,265.097551 91.2116402,268.263453 C89.2216447,270.223297 87.4125578,272.36405 85.5130165,274.414348 C84.5180187,275.469649 83.3722637,276.253587 81.8043884,275.620406 C80.9902993,275.28874 80.7490877,274.836469 81.3521167,274.02238 C81.8345399,273.359048 82.1059029,272.514807 82.5280232,271.791172 C84.4275644,268.353907 86.8396803,265.338763 89.7643707,262.715587 C89.8849765,262.474375 90.0658852,262.263315 90.4277026,261.871346 Z" id="Path"></path>
            <path d="M229.908302,61.3642155 C235.335563,64.2587545 235.757683,69.6558637 237.657224,74.6911556 C238.682373,72.7614629 239.707523,71.3443448 240.220097,69.7463181 C241.607064,65.5251153 241.516609,61.2436097 240.913581,56.8414983 C240.220097,51.8062064 237.958739,47.4945493 235.395866,43.3336495 C230.963603,36.1576048 224.722253,31.6047361 216.249696,30.1574666 C209.25456,28.9514087 202.229272,28.5292884 195.143682,28.8911058 C192.701415,29.0117116 190.259148,29.1624688 187.81688,29.4036804 C183.264012,29.8258007 179.555383,28.1071681 176.268876,25.0920233 C173.344185,22.4085444 171.685855,18.7903706 169.243588,15.7752258 C165.685717,11.3731144 161.554969,7.6946377 155.735739,6.63933702 C152.539686,6.03630805 149.313481,5.43327909 146.087276,5.13176461 C143.584706,4.92070447 141.021833,5.10161316 138.489111,5.2523704 C130.951249,5.73479357 123.745053,7.57403191 116.81022,10.4987224 C111.141747,12.8806868 106.498424,16.8305265 102.397828,21.3532437 C97.8449588,26.3282327 93.955422,31.8157963 90.9704287,37.8460859 C88.9201302,41.9768343 86.8095288,46.1075827 83.6134753,49.4543935 C80.5380276,52.6805984 77.1912168,55.6052889 73.1810742,57.7158903 C71.8544105,58.4093736 70.5880497,59.1631598 69.261386,59.8566431 C68.8091142,60.0978547 68.3568425,60.3390663 67.8744193,60.3993691 C67.4824505,60.4295206 67.0000273,60.2486119 66.7286643,60.0074003 C66.6080585,59.8867945 66.8191187,59.2536141 67.0603302,58.9822511 C67.9950251,57.9269504 69.0201744,56.9621041 69.9850207,55.9671063 C72.3066822,53.5549904 74.779101,51.2333289 76.8897023,48.6704558 C78.3972748,46.8312175 79.5430298,44.6904646 80.6887848,42.5798633 C82.9501434,38.2983576 84.940139,33.8660947 87.3221034,29.6750434 C90.0658852,24.8508117 93.4729989,20.5090032 97.5434444,16.6797693 C102.005859,12.5188694 106.769788,8.74993839 112.408108,6.39812543 C116.388099,4.70964433 120.639454,3.59404075 124.770202,2.32767993 C130.046706,0.729653172 135.473966,0.337684345 140.96153,0.0663213116 C148.077272,-0.295496067 154.92165,0.850258965 161.675575,2.84025455 C165.11284,3.83525234 168.067682,5.88555081 170.901918,8.05645508 C175.454786,11.5841745 178.922203,16.0465889 181.756439,20.9914264 C183.052951,23.2226335 184.711281,24.0668741 187.274154,23.9764197 C192.822021,23.7653596 198.369887,23.524148 203.917754,23.7352081 C212.601371,24.0668741 221.194533,25.1523262 229.154516,29.1323174 C234.069202,31.6047361 237.928587,35.2229099 241.275398,39.5044156 C244.109634,43.1225893 246.340841,47.1025805 247.938868,51.3840861 C249.506743,55.5751374 250.200227,60.0074003 250.170075,64.4999661 C250.139924,66.6708704 249.898712,68.9020775 249.295683,70.9825275 C249.054472,71.7966166 247.727808,72.5805542 246.73281,72.8519173 C245.436298,73.2137346 244.260391,73.3644919 243.355848,74.6610041 C242.57191,75.7464563 241.124641,76.3494852 240.099491,77.2841801 C239.797977,77.5555432 239.677371,78.4600866 239.888431,78.7012982 C241.064338,80.1184163 242.240244,81.5656858 243.657362,82.7415923 C249.597198,87.7165812 255.627487,92.6312673 261.627625,97.5459533 C268.894124,103.485789 273.085176,111.174408 274.984717,120.280145 C275.648049,123.446047 276.522441,126.642101 275.6782,129.777851 C274.6229,133.757843 273.326387,137.737834 271.607755,141.476613 C270.431848,144.039486 268.622761,146.391299 266.72322,148.501901 C265.034739,150.371291 262.984441,151.969317 260.843688,153.326132 C258.733086,154.682948 256.411425,155.7684 254.089763,156.733246 C252.642494,157.336275 251.014316,157.517184 249.44644,157.818698 C247.335839,158.210667 245.255389,158.542333 243.114636,158.813696 C234.370716,159.9293 225.717251,161.376569 217.124088,163.426868 C212.058645,164.632926 206.932898,165.477166 201.837304,166.59277 C196.77186,167.708373 191.706417,168.944583 186.640974,170.150641 C182.751437,171.085335 178.892052,172.110485 175.002515,173.075331 C174.761303,173.135634 174.48994,173.195937 174.248729,173.165785 C173.585397,173.04518 172.952216,172.894422 172.288884,172.743665 C172.741156,172.291393 173.163276,171.839122 173.6457,171.417001 C174.06782,171.055184 174.550243,170.813972 174.972363,170.452155 C179.645838,166.502315 185.223856,164.51232 191.103388,163.185656 C192.671263,162.823839 194.178836,162.281113 195.71656,161.889144 C202.500636,160.170511 209.314863,158.542333 216.098939,156.793549 C220.802565,155.55734 225.415736,153.929161 230.149514,152.964315 C233.345567,152.300983 236.722529,152.331135 240.009037,152.361286 C245.617206,152.391438 250.68265,150.944168 255.145064,147.567206 C257.104908,146.089785 259.125055,144.702818 260.994445,143.134943 C261.898988,142.381157 262.56232,141.325856 263.195501,140.330858 C265.969434,136.019201 267.838824,131.345727 268.472004,126.250132 C269.075033,121.21484 267.356401,116.571517 265.698071,111.928194 C263.738227,106.500933 259.607478,102.852608 255.416427,99.3248888 C250.260529,95.0132317 244.833269,91.0332405 239.767825,86.6311291 C234.25011,81.8068974 230.963603,75.6861534 230.300271,68.2688971 C230.179665,66.7613247 229.938453,65.2839038 229.787696,63.7763313 C229.847999,63.082848 229.908302,62.3893647 229.908302,61.3642155 Z" id="Path"></path>
            <path d="M1.75229345,364.054604 C2.89804848,363.933998 4.04380351,363.722938 5.21970999,363.692787 C8.62682364,363.602332 12.0037858,363.602332 15.4108995,363.511878 C22.5869441,363.300818 29.7328374,363.602332 36.8485791,364.446573 C41.5522051,365.01945 46.3462853,365.109905 51.0800627,365.501873 C54.9092966,365.833539 58.7385305,366.315963 62.5979159,366.67778 C70.5578982,367.431566 78.276669,369.421562 85.9351368,371.502012 C92.9001213,373.401553 99.6841972,376.085032 106.558727,378.316239 C112.2272,380.185629 117.503703,382.808805 122.569146,385.854101 C127.936104,389.080306 132.579427,393.180903 136.619721,397.944832 C137.22275,398.668466 137.735325,399.422253 138.368505,400.115736 C138.639868,400.387099 139.061989,400.628311 139.453957,400.658462 C142.288193,400.809219 145.12243,400.899674 147.986817,400.990128 C151.454234,401.110734 154.861347,400.718765 157.846341,398.728769 C158.66043,398.186043 159.474519,397.522711 160.047396,396.738774 C162.097695,393.904538 164.90178,392.004996 167.736016,390.105455 C168.067682,389.894395 168.459651,389.713486 168.851619,389.653183 C169.153134,389.623032 169.454648,389.864244 169.997374,390.105455 C171.927067,388.688337 174.158274,386.849099 176.57039,385.251072 C184.259009,380.125326 192.158689,375.391548 200.842306,372.105041 C207.38517,369.632622 214.04864,367.431566 220.742262,365.501873 C229.335424,363.029455 238.19995,362.245517 247.094627,361.732942 C253.60734,361.340974 260.120053,360.798248 266.632766,360.22537 C267.477006,360.165067 268.291095,359.622341 269.105185,359.260524 C269.738365,358.959009 270.25094,358.446435 270.88412,358.175072 C273.326387,357.089619 273.838962,357.30068 275.225929,359.622341 C275.316383,359.742947 275.376686,359.893704 275.436989,360.01431 C277.095318,362.72794 276.582744,363.903847 273.356539,364.59733 C268.894124,365.592328 264.371407,365.923994 259.788387,366.0446 C254.873701,366.165205 249.989166,366.949143 245.104632,367.069749 C238.772828,367.220506 232.531478,367.763232 226.350431,369.120047 C223.486043,369.753228 220.621656,370.537165 217.817571,371.47186 C212.299856,373.311099 206.782141,375.120185 201.385032,377.260938 C193.455201,380.396689 186.037945,384.58774 178.741294,388.9597 C175.786452,390.738636 172.650702,392.216057 169.816466,394.175901 C168.399348,395.140747 167.072684,396.678471 166.439503,398.246346 C164.479659,403.070578 161.977089,404.608302 156.881494,404.939968 C152.720595,405.211331 148.559695,405.392239 144.428946,405.422391 C140.991681,405.422391 137.494113,405.482694 134.147302,404.849513 C130.800492,404.216333 128.569285,401.683611 127.755195,398.397103 C127.212469,396.196048 125.7652,395.020141 124.287779,393.75378 C118.408247,388.74864 111.473413,385.703344 104.267217,383.140471 C98.8399566,381.210778 93.4428474,379.220782 87.9552838,377.532301 C83.4627181,376.145335 78.819395,375.270943 74.2966778,374.004582 C67.9950251,372.225646 61.5426152,371.502012 55.0600539,370.989437 C49.0900671,370.507014 43.0899289,369.994439 37.1500936,369.39141 C33.6826771,369.029593 30.2152605,368.396412 26.747844,368.064747 C23.4613361,367.733081 20.1748283,367.642626 16.8883204,367.371263 C12.6671177,367.009446 8.4157635,366.617477 4.19456075,366.074751 C3.32016875,365.954145 2.5362311,365.290813 1.69199055,364.868693 C1.6618391,364.537027 1.722142,364.295816 1.75229345,364.054604 Z" id="Path"></path>
            <path d="M112.679471,169.72852 C111.955837,171.628062 110.719627,172.110485 109.332661,172.351696 C106.377819,172.834119 103.332522,173.075331 100.437983,173.798966 C91.2116402,176.060324 82.6184775,174.221086 74.3268293,170.180792 C70.8292613,168.462159 67.9045708,165.929438 65.3718491,162.974596 C64.2260941,161.647932 62.9898847,160.411723 61.8742811,159.054908 C59.1003479,155.587491 55.3012654,154.954311 51.2006685,155.014614 C45.7734078,155.074916 40.3461471,154.894008 35.1299466,153.235678 C28.225265,151.064774 22.4361869,147.175237 17.8230153,141.536916 C14.0239329,136.863442 10.9786366,131.767847 9.2298526,125.978769 C7.57152295,120.491205 7.6016744,115.003642 8.92833812,109.485927 C10.1946989,104.179272 12.4560576,99.2947373 15.5616567,94.832323 C18.5164986,90.5809688 22.5567927,87.3849153 26.6573897,84.2491647 C35.0997952,77.7967548 44.5673499,73.2137346 54.2459648,68.9623804 C56.5374748,67.9673826 58.768682,66.8216276 60.9998892,65.7361755 C61.6330696,65.434661 62.0853413,65.3743581 62.3265529,66.2789015 C62.9898847,68.8417746 61.9044326,71.3443448 59.4621653,72.3694941 C56.5073234,73.6358549 53.4318757,74.5705498 50.5373366,75.9876679 C46.1955281,78.1284207 41.9140224,80.4199308 37.6928197,82.8320466 C35.1299466,84.3094676 32.6575278,85.9376458 30.3057149,87.7467327 C26.0543607,91.063392 22.4964898,95.103686 19.3004363,99.4153431 C18.003924,101.164127 16.9486233,103.214426 16.3455944,105.264724 C15.2299908,108.973352 14.234993,112.772435 13.7525698,116.601669 C13.2098438,120.79272 14.2048416,124.893317 16.0440799,128.692399 C18.1245298,132.973905 20.5969486,137.074502 23.8834564,140.541918 C29.0092026,145.939028 35.2807038,149.376293 42.8185659,149.94917 C46.7684056,150.250685 50.7483968,150.280836 54.6982365,150.522048 C60.9998892,150.914017 65.8542723,153.868859 69.7438091,158.813696 C72.4574395,162.22081 75.321827,165.597772 79.7239385,166.984739 C83.7340811,168.251099 87.7140723,169.909429 91.9955779,169.698369 C95.4931459,169.51746 98.9605624,168.793825 102.45813,168.522462 C104.930549,168.311402 107.463271,168.341554 109.93569,168.492311 C110.810082,168.522462 111.714625,169.276249 112.679471,169.72852 Z" id="Path"></path>
            <path d="M149.192875,294.01279 C149.072269,296.002785 148.891361,297.570661 148.891361,299.138536 C148.891361,305.078371 148.951664,310.988055 149.011966,316.92789 C149.102421,324.767267 149.253178,332.636795 149.283329,340.476171 C149.313481,344.365708 149.223027,348.255245 149.072269,352.144782 C148.981815,354.737806 148.589846,357.30068 148.589846,359.893704 C148.589846,365.079753 148.770755,370.265802 148.831058,375.451851 C148.831058,376.446849 149.192875,377.652907 147.745606,378.075027 C146.328488,378.497148 145.182733,378.044876 144.730461,376.657909 C144.187735,374.969428 143.67516,373.220644 143.584706,371.47186 C143.343494,367.250657 143.192737,363.029455 143.283191,358.808252 C143.373646,353.652354 143.705312,348.466305 143.916372,343.310408 C144.036977,340.265111 144.157583,337.219815 144.187735,334.174519 C144.217886,329.983467 144.217886,325.792416 144.127432,321.601365 C144.006826,316.385164 143.67516,311.168964 143.554554,305.952763 C143.494251,303.420042 143.705312,300.857169 143.765614,298.324447 C143.795766,296.09324 143.765614,293.862033 143.765614,291.600674 C140.177592,290.424767 136.408661,289.339315 132.730184,287.952349 C129.9261,286.897048 127.84565,284.907052 126.699895,282.072816 C126.549138,281.680847 126.338077,281.288879 125.885806,280.957213 C125.885806,281.409484 125.825503,281.891908 125.885806,282.344179 C126.639592,286.143262 127.905953,289.731284 130.167311,292.957489 C131.071855,294.254001 131.735187,295.731422 132.368367,297.178692 C132.549276,297.600812 132.338216,298.475204 132.00655,298.746567 C131.644732,299.01793 130.740189,299.048082 130.378371,298.776719 C129.262768,297.962629 128.177316,297.027935 127.272772,295.972634 C124.046567,292.1434 121.755057,287.892046 121.152028,282.826602 C120.609302,278.153128 122.297783,274.263591 125.071717,270.735872 C127.001409,268.263453 129.051708,265.881489 131.041703,263.439221 C131.614581,262.715587 132.458821,262.806041 132.941245,263.770887 C133.755334,265.399065 133.755334,267.117698 132.85079,268.655422 C131.313066,271.369052 130.378371,274.23344 130.378371,277.339039 C130.378371,279.690852 131.132158,281.710999 133.514122,282.645694 C137.43381,284.153266 141.38365,285.570384 145.303338,287.047805 C149.91651,288.796589 154.28847,290.997645 156.610131,295.671119 C157.574978,297.661115 158.208158,299.892322 158.539824,302.093378 C158.690581,303.088376 158.057401,304.686402 157.243312,305.198977 C156.127708,305.922612 154.770893,305.198977 153.86635,304.083373 C152.811049,302.786861 152.238171,301.550652 152.358777,299.651111 C152.509534,297.630964 151.032113,295.821877 149.192875,294.01279 Z" id="Path"></path>
            <path d="M110.086447,117.626818 C113.644318,117.958484 115.875525,120.069085 117.775066,122.66211 C120.307788,126.159678 121.272634,130.109517 121.39324,134.391023 C121.543997,139.426315 124.649596,143.104792 127.63459,146.783268 C127.725044,146.903874 127.875801,146.964177 127.996407,147.02448 C128.086861,147.054631 128.177316,147.02448 128.448679,147.02448 C128.659739,143.104792 130.287917,139.577072 131.976398,136.079504 C132.63973,134.722689 133.363365,133.426177 133.996545,132.069362 C136.227752,127.335584 136.348358,122.390747 135.865935,117.234849 C135.35336,111.717134 133.212608,106.681842 132.036701,101.375187 C131.252763,97.8474678 130.649734,94.2895969 131.222612,90.731726 C131.79549,87.2040066 132.85079,83.7667415 133.815637,80.299325 C134.056848,79.4852359 134.870937,78.821904 135.564421,77.8570577 C136.076995,79.1234185 136.348358,80.0279619 136.80063,80.842051 C137.162447,81.5355343 137.946385,82.1084119 138.036839,82.8320466 C138.217748,83.9476502 138.217748,85.1838596 137.855931,86.2391603 C136.921236,88.8623362 137.162447,91.4553608 137.705173,94.0483853 C138.278051,96.7318642 138.730323,99.475646 139.51426,102.098822 C140.117289,104.179272 141.202741,106.108965 142.01683,108.129112 C142.348496,108.943201 142.529405,109.847744 142.619859,110.752288 C142.981677,113.91819 143.4641,117.114243 143.584706,120.280145 C143.765614,125.677254 141.896225,130.411032 138.308202,134.421174 C136.529267,136.381019 135.35336,138.612226 134.840786,141.144947 C133.906091,145.758119 133.092002,150.401442 134.448817,155.135219 C134.810634,156.371429 134.72018,157.728244 134.870937,158.994605 C135.051846,160.35142 134.087,160.683086 133.212608,160.441874 C131.946247,160.080057 130.710037,159.446876 129.624585,158.723242 C129.232616,158.48203 129.473828,157.456881 129.172314,156.944306 C128.147164,155.165371 127.122015,153.356284 125.855654,151.758257 C123.775204,149.135081 121.513846,146.632511 119.31279,144.099789 C116.146888,140.481616 114.759921,136.109656 114.156892,131.466333 C113.584015,126.883312 112.709623,122.45105 110.267356,118.471058 C110.207053,118.29015 110.176901,118.018787 110.086447,117.626818 Z" id="Path"></path>
            <path d="M173.525094,84.0079531 C173.977366,86.359766 172.922065,88.2291558 171.77631,89.9477884 C168.369196,95.0735346 164.871628,100.138978 161.404212,105.264724 C161.102697,105.716996 160.921788,106.259722 160.771031,106.772296 C160.379062,108.129112 160.168002,109.516078 159.655428,110.812591 C158.690581,113.315161 158.690581,115.878034 159.022247,118.440907 C159.353913,120.822871 159.29361,122.963624 157.906644,125.104377 C156.700586,126.943615 156.007102,129.11452 154.981953,131.104515 C154.167864,132.702542 153.263321,134.240266 152.388929,135.77799 C152.268323,135.747838 152.147717,135.747838 151.99696,135.717687 C152.177868,134.692538 152.268323,133.667388 152.509534,132.67239 C153.353775,128.963762 154.469379,125.285286 155.012105,121.546506 C155.9468,114.792582 155.253316,108.129112 152.720595,101.767156 C152.087414,100.169129 151.062265,98.6615569 150.037116,97.2745903 C148.589846,95.2845947 146.901365,93.4755078 145.454096,91.5156637 C142.981677,88.1688529 142.197739,84.3697705 142.529405,80.299325 C142.619859,79.1535699 142.770617,78.0078149 143.011828,76.8620599 C143.102283,76.4097881 143.494251,75.6861534 143.705312,75.7163048 C144.157583,75.7163048 144.881218,76.0781222 145.001824,76.4399396 C145.454096,77.7967548 146.087276,79.2440243 145.936519,80.570688 C145.604853,83.4049241 146.298336,85.9979487 147.504394,88.4100645 C148.25818,89.9176369 149.735601,91.0332405 150.821053,92.3900557 C153.444229,95.6464121 156.15786,98.9027685 157.42422,103.123971 C159.625276,99.5661004 161.58512,96.0685324 163.846479,92.7820245 C165.896777,89.7970311 166.801321,86.6612805 166.891775,83.0732582 C166.952078,81.2340199 167.102835,79.9978105 165.293748,78.550541 C162.188149,76.0781222 159.625276,72.9423716 156.971949,69.9272268 C155.524679,68.2990486 154.439227,66.3693559 153.203018,64.560269 C153.263321,64.4095118 153.323624,64.2587545 153.353775,64.1381487 C154.258318,64.4095118 155.223165,64.5904204 156.067405,65.0125407 C160.379062,67.1231421 163.906782,70.3794985 167.585259,73.3946433 C169.635557,75.0831244 171.535098,77.0429686 173.826608,78.2791779 C176.268876,79.6359931 179.012657,80.570688 181.756439,81.2340199 C185.495219,82.1385633 189.294301,82.7114408 193.093384,83.2541669 C195.264288,83.5556814 197.495495,83.5255299 199.696551,83.6762872 C200.08852,83.7064386 200.570943,83.6461357 200.872457,83.8270444 C201.686546,84.3094676 202.952907,84.8521936 203.043362,85.485374 C203.194119,86.5708262 202.199121,87.5356725 201.023215,87.6864298 C198.188978,87.9879442 195.354742,88.440216 192.520506,88.3497616 C186.550519,88.1387015 180.640836,87.2944609 175.062818,84.8521936 C174.670849,84.5205277 174.158274,84.2793161 173.525094,84.0079531 Z" id="Path"></path>
            <path d="M249.02432,242.423662 C250.019318,243.599568 251.014316,244.745323 252.009313,245.92123 C255.295821,249.720312 256.532031,254.45409 258.009452,259.067261 C260.48187,266.846335 262.984441,274.625409 265.185496,282.464785 C267.296098,289.972496 268.984579,297.600812 270.974574,305.138674 C272.54245,311.108661 274.261082,317.018345 275.828958,322.95818 C276.91441,326.998474 277.75865,331.129222 278.904405,335.169517 C279.748646,338.15451 281.045158,340.988746 281.889399,343.973739 C282.733639,346.988884 283.276365,350.094483 283.909546,353.169931 C284,353.5619 284,353.98402 284,354.375989 C283.939697,356.667499 283.487425,357.210225 281.678338,357.240973 C279.778797,357.270528 278.301376,356.154924 278.361679,354.315686 C278.482285,350.878421 277.12547,347.802973 276.281229,344.60692 C274.291234,337.219815 272.090178,329.862862 270.009728,322.505908 C268.351398,316.626376 266.602614,310.776995 265.095042,304.867311 C263.949287,300.495351 263.285955,296.032937 262.079897,291.691128 C259.999447,284.092963 257.587331,276.585253 255.446579,269.017239 C253.577189,262.353769 251.888708,255.629996 250.109772,248.966526 C249.717803,247.489105 249.054472,246.071987 248.6022,244.594566 C248.421291,244.021689 248.481594,243.388508 248.421291,242.755328 C248.632351,242.664873 248.81326,242.544268 249.02432,242.423662 Z" id="Path"></path>
            <path d="M39.7129667,241.12715 C38.9290291,243.690023 38.2053943,246.011684 37.511911,248.333346 C36.8184277,250.71531 36.1852473,253.127426 35.4616125,255.50939 C34.014343,260.122562 32.5670735,264.705582 31.0595011,269.318754 C30.0042004,272.544959 28.8885968,275.771164 27.7729932,278.967217 C26.2654208,283.218571 24.6673941,287.439774 23.1899731,291.691128 C21.230129,297.359601 19.3004363,303.058224 17.3707436,308.726696 C15.8631712,313.189111 14.4460531,317.651525 12.8781778,322.083788 C10.2550018,329.501044 8.29515771,337.099209 7.05894833,344.878283 C6.42576792,348.888425 5.8528904,352.898568 5.24986144,356.878559 C5.06895275,358.084617 4.43577234,358.868555 3.19956296,359.170069 C1.87289924,359.471584 1.54123331,358.56704 0.847750001,357.692648 C-0.689973857,355.823259 0.274872486,354.044323 0.576386968,352.265388 C1.69199055,345.601918 2.596534,338.878145 4.2247122,332.33528 C5.82273895,325.882871 8.20470336,319.641521 10.2550018,313.309717 C11.7324228,308.756848 13.1796923,304.173828 14.7777191,299.620959 C15.983777,296.123391 17.4008951,292.686126 18.6672559,289.188558 C22.1949753,279.540095 25.7829977,269.921783 29.2202628,260.243168 C30.4866236,256.655145 31.2102583,252.886214 32.5670735,249.328344 C33.74298,246.252896 35.4013096,243.358357 36.9691849,240.463818 C37.240548,239.951243 38.1450914,239.589426 38.7782718,239.559274 C39.0797863,239.619577 39.4114522,240.584424 39.7129667,241.12715 Z" id="Path"></path>
            <path d="M87.5331636,133.787994 C76.799248,139.577072 62.0853413,137.04435 55.4218712,132.189967 C56.7786864,132.189967 58.1958045,132.009059 59.5224682,132.220119 C65.0100318,133.034208 70.4975953,133.184965 76.0153104,132.762845 C80.3269674,132.431179 83.7340811,130.290426 86.5381658,127.214978 C90.5181569,122.812867 94.1363307,118.139392 96.9404154,112.89304 C98.5685936,109.847744 103.061159,108.129112 106.347667,109.214564 C107.85524,109.696987 109.453266,110.088956 111.021142,110.119107 C114.096589,110.17941 116.870523,109.485927 118.589155,106.531085 C119.704759,104.601392 121.453543,105.747147 122.961115,105.837602 C124.348082,105.928056 125.101868,107.013508 125.433534,108.159263 C125.584291,108.732141 125.101868,109.817593 124.559142,110.239713 C122.930964,111.475922 121.272634,112.862889 119.403244,113.496069 C114.94083,115.003642 110.327658,115.666974 105.624032,114.822733 C105.382821,114.792582 104.990852,114.702127 104.900398,114.822733 C103.9054,116.058943 102.940554,117.295152 102.005859,118.561513 C101.945556,118.651967 101.945556,118.863027 101.975707,119.013784 C102.789796,122.66211 103.48328,126.340586 104.478277,129.95876 C105.171761,132.551785 106.166759,135.084506 107.252211,137.556925 C107.64418,138.431317 108.69948,139.004195 109.453266,139.727829 C110.176901,140.421313 111.232202,141.084645 110.448264,142.200248 C109.784932,143.165094 108.729632,143.858578 107.463271,143.165094 C105.171761,141.898734 103.000856,140.511767 100.679195,139.305709 C98.0861704,137.918742 95.432843,136.62223 92.7493641,135.446324 C91.7845178,135.024203 90.6086113,135.024203 89.5533106,134.75284 C88.9502816,134.54178 88.4075556,134.179963 87.5331636,133.787994 Z M91.3623975,131.918604 C94.7393597,132.943754 98.5082907,134.059357 102.24707,135.174961 C101.131467,131.315575 99.9857117,127.365736 98.8701081,123.50635 C96.307235,126.370738 93.7745133,129.235125 91.3623975,131.918604 Z" id="Shape"></path>
            <path d="M171.836613,135.205112 C173.706003,134.240266 175.273878,133.456328 176.811602,132.642239 C182.480074,129.657246 188.661121,128.330582 194.932622,127.365736 C198.85231,126.762707 202.681544,125.948618 206.390172,124.320439 C209.495772,122.963624 212.330008,121.335446 214.742123,118.983633 C214.983335,118.742421 215.70697,118.591664 215.887879,118.772573 C216.34015,119.164542 216.973331,119.858025 216.852725,120.249994 C216.521059,121.516355 216.098939,122.843018 215.345152,123.868168 C213.083794,126.853161 209.797286,128.390885 206.420324,129.7477 C201.927758,131.556787 197.133678,131.61709 192.3999,132.099513 C184.228858,132.913602 176.751299,135.325718 170.509949,140.933887 C169.213437,142.109794 167.766167,143.134943 166.318898,144.099789 C164.992234,145.004333 164.238448,144.009335 163.786176,142.954034 C163.45451,142.139945 162.369058,141.084645 164.057539,140.391161 C164.328902,140.270555 164.570114,139.938889 164.720871,139.637375 C167.675713,134.149811 169.122982,128.270279 169.665708,122.089232 C170.087829,117.295152 170.630555,112.531223 171.203432,107.767294 C171.504947,105.325027 172.771308,103.335031 174.218577,101.314884 C176.35933,98.2997395 178.168417,95.0735346 180.128261,91.937784 C180.429775,91.4553608 180.761441,90.9729376 181.304167,90.189 C181.635833,90.8824833 181.937348,91.2744521 182.027802,91.6965724 C182.570528,94.3800513 182.088105,96.8223186 180.640836,99.1741315 C179.404626,101.164127 178.289023,103.244577 177.20357,105.325027 C175.484938,108.641686 174.851758,112.229709 174.640697,115.968488 C174.339183,120.913326 173.675851,125.828012 173.072822,130.742698 C172.861762,132.159816 172.319036,133.48648 171.836613,135.205112 Z" id="Path"></path>
            <path d="M174.972363,276.766161 C183.625829,277.489796 191.676266,279.962215 199.183976,284.273872 C199.967914,284.726144 200.7217,285.26887 201.324729,285.90205 C201.686546,286.294019 202.138818,287.077957 201.957909,287.409623 C201.716698,287.952349 200.962912,288.585529 200.450337,288.585529 C199.214128,288.555378 197.947767,288.344318 196.802012,287.922197 C194.299442,287.017654 191.887326,285.90205 189.445058,284.876901 C188.600818,284.545235 187.907335,284.454781 186.942488,284.876901 C182.691134,286.655836 178.741294,288.977498 174.761303,291.299159 C172.861762,292.414763 171.474795,293.138398 171.595401,295.701271 C171.685855,297.389752 169.726011,298.17369 167.374198,297.842024 C165.926929,297.630964 165.142991,296.485209 165.384203,294.585667 C165.655566,292.203703 165.474657,289.942344 164.871628,287.590531 C164.087691,284.695992 162.067543,282.947208 159.896639,281.228576 C157.906644,279.6607 155.765891,278.213431 153.896501,276.52495 C151.57484,274.4445 151.001962,268.745876 152.660292,266.1227 C153.233169,265.248308 153.926652,265.157854 154.378924,266.062397 C154.831196,266.906638 155.042256,267.871484 155.223165,268.836331 C155.434225,269.982086 155.373922,271.188143 155.675436,272.303747 C155.826194,272.846473 156.429223,273.449502 156.971949,273.630411 C159.142853,274.414348 161.343909,275.228438 163.605267,275.741012 C165.926929,276.253587 168.339045,276.494798 170.721009,276.73601 C172.168279,276.886767 173.585397,276.766161 174.972363,276.766161 Z M171.293887,286.836745 C174.007517,285.419627 176.841753,283.972358 179.706141,282.494937 C175.635695,282.042665 171.504947,281.560242 167.344047,281.10797 C168.761165,283.158268 170.027526,284.997507 171.293887,286.836745 Z" id="Shape"></path>
            <path d="M123.624447,378.858965 C122.750055,378.497148 121.875663,378.195633 121.061574,377.773513 C119.011275,376.808667 116.900674,375.934275 115.001133,374.728217 C113.704621,373.914127 112.377957,373.672916 110.870384,373.492007 C110.900536,373.250796 110.930687,372.979433 110.960839,372.70807 C107.734634,373.009584 105.412972,370.748225 102.639039,369.813531 C98.6590479,368.456715 94.7695111,366.949143 90.78952,365.622479 C88.0457382,364.687784 85.3019564,363.783241 82.4978717,363.089758 C73.0906199,360.737945 63.5627622,359.290675 53.8841474,358.808252 C47.2809802,358.476586 40.6778131,357.783103 34.0746459,357.662497 C28.4664765,357.572043 22.8583072,358.265526 17.2501378,358.205223 C15.1696879,358.205223 13.0590865,357.180074 11.0389395,356.456439 C10.6168192,356.305682 10.3454562,355.43129 10.1937855,354.828261 C10.1645475,354.677504 10.8881823,354.134777 11.2801511,354.104626 C17.6119552,353.592051 23.9739108,352.747811 30.3057149,352.717659 C36.9993364,352.687508 43.6929579,353.320688 50.3865794,353.923717 C56.6882321,354.496595 63.0200362,354.979018 69.2010831,356.245379 C76.196219,357.662497 83.0405978,359.773098 89.915128,361.793245 C93.2016358,362.758092 96.4278408,364.084755 99.6238943,365.351116 C106.709485,368.155201 113.463409,371.713072 120.006273,375.63276 C121.363088,376.446849 122.629449,377.381544 123.925962,378.255936 C123.805356,378.527299 123.714901,378.708208 123.624447,378.858965 Z" id="Path"></path>
            <path d="M186.249005,369.451713 C186.882185,369.662773 187.213851,369.753228 187.60582,369.873833 C187.485214,370.054742 187.424911,370.175348 187.364609,370.175348 C184.741433,369.843682 182.841891,371.502012 180.882047,372.70807 C178.500083,374.185491 176.329178,376.024729 173.947214,377.532301 C171.685855,378.979571 169.303891,380.21578 166.952078,381.542444 C166.861624,381.421838 166.771169,381.331384 166.680715,381.210778 C166.891775,380.939415 167.042532,380.577598 167.283744,380.366537 C172.047673,376.868969 176.630693,373.100038 181.605682,369.934136 C187.997789,365.893842 194.661259,362.30582 201.264426,358.627343 C206.148961,355.913713 211.515919,354.617201 216.913028,353.441294 C227.194672,351.179936 237.596921,349.581909 248.089625,348.496457 C254.964155,347.802973 261.808534,347.953731 268.532307,349.732666 C269.01473,349.853272 269.497153,350.004029 269.979577,350.154786 C270.793666,350.456301 271.456998,350.878421 271.125332,351.90357 C270.823817,352.868417 270.160485,353.169931 269.165487,353.079477 C266.783523,352.838265 264.371407,352.416145 261.989443,352.536751 C254.119915,352.989022 246.190084,352.355842 238.380859,354.134777 C231.234966,355.732804 223.998618,356.788105 216.852725,358.35598 C210.219406,359.80325 203.797148,361.823397 197.887464,365.320965 C195.987923,366.46672 193.666261,366.949143 191.796871,368.094898 C190.470208,368.908987 189.354604,369.210502 187.907335,368.637624 C187.545517,368.577321 187.002791,369.089896 186.249005,369.451713 Z" id="Path"></path>
            <path d="M113.433258,291.148402 C111.925685,290.907191 110.689476,289.882041 109.573872,288.585529 C109.091449,288.042803 108.518572,287.500077 107.885391,287.198562 C104.598883,285.69099 101.312375,284.243721 97.9957161,282.856754 C96.0660234,282.042665 94.0760278,281.31903 92.0860322,280.655698 C91.7242149,280.535092 91.1814888,280.987364 90.7292171,281.168273 C90.0658852,281.439636 89.4025533,281.710999 88.70907,281.982362 C88.7392215,281.288879 88.5281614,280.47479 88.8296758,279.932063 C90.3070968,277.188282 92.1463351,274.776166 94.6187539,272.756019 C100.498286,267.99209 107.041151,264.343765 113.704621,260.816045 C115.875525,259.67029 118.136883,258.645141 120.458545,257.891355 C121.81536,257.469235 123.413387,257.619992 124.890808,257.710446 C125.252625,257.740598 125.795351,258.434081 125.885806,258.886353 C125.946109,259.24817 125.523988,259.821048 125.162171,260.122562 C123.111872,261.811043 120.940968,263.348767 118.950973,265.097551 C117.564006,266.273457 116.146888,267.539818 115.182042,269.047391 C113.764923,271.248446 112.287503,273.600259 111.684474,276.10283 C110.659324,280.173275 111.171899,284.243721 113.855378,287.77144 C114.30765,288.344318 114.699618,289.007649 114.910679,289.701133 C115.121739,290.635828 114.639315,291.148402 113.433258,291.148402 Z M106.83009,281.469787 C106.257213,276.826464 107.372816,272.78617 109.1216,268.595119 C108.609026,268.866482 108.307511,269.017239 108.036148,269.198148 C104.960701,271.188143 101.915404,273.208291 98.8399566,275.198286 C98.2670791,275.590255 97.6640502,275.952072 97.1213241,276.404344 C96.4579922,276.977222 96.5182951,277.459645 97.4228386,277.821462 C99.0510168,278.454642 100.679195,279.117974 102.307373,279.781306 C103.724491,280.293881 105.141609,280.806455 106.83009,281.469787 Z" id="Shape"></path>
            <path d="M68.4472969,319.731975 C66.1859382,319.731975 63.9547311,319.792278 61.6933725,319.701824 C58.7083791,319.581218 55.7233857,319.400309 52.7383923,319.128946 C51.4117286,319.00834 50.0850649,318.706826 48.7885526,318.345008 C48.2458266,318.194251 47.4317375,317.530919 47.4920404,317.199253 C47.5824947,316.626376 48.1252208,315.963044 48.6679468,315.691681 C49.4518845,315.329864 50.3865794,315.179106 51.2609714,315.148955 C53.4620271,315.088652 55.6329314,315.209258 57.8339871,315.118804 C60.4270116,315.028349 63.0200362,314.515775 65.5829093,314.696683 C70.9800185,315.058501 76.3771277,315.540924 81.6837826,316.415316 C86.5080143,317.199253 91.3020946,318.345008 96.0057205,319.731975 C99.201774,320.66667 102.186767,322.264697 105.262215,323.59136 C107.372816,324.495904 109.483418,325.400447 111.503565,326.485899 C114.850376,328.264835 118.136883,330.164376 121.423391,332.094069 C122.689752,332.847855 123.865659,333.78255 125.011414,334.747396 C125.7652,335.380577 126.066714,336.49618 125.373231,337.129361 C124.740051,337.702238 123.533993,338.033904 122.719904,337.852995 C121.483694,337.611784 120.247485,336.978603 119.222336,336.224817 C114.006135,332.516189 108.126603,330.073922 102.397828,327.269837 C95.5534488,323.923026 88.2266469,322.445605 80.8093906,321.239547 C76.7087937,320.576216 72.6081967,320.03349 68.5075998,319.460612 C68.4774483,319.520915 68.4774483,319.641521 68.4472969,319.731975 Z" id="Path"></path>
            <path d="M50.7182453,293.138398 C51.773546,292.655975 52.4971808,292.113249 53.2208155,292.083097 C57.2008067,291.962491 61.2109493,291.72128 65.1909404,291.992643 C69.9850207,292.294157 74.7489495,292.897186 79.5128783,293.620821 C85.1511992,294.465061 90.78952,295.339453 96.3373864,296.696269 C103.091311,298.324447 109.453266,300.977774 115.091587,305.168826 C116.629311,306.284429 118.287641,307.219124 119.855516,308.304576 C120.97112,309.088514 121.935966,310.023209 122.02642,311.530781 C122.086723,312.495628 121.755057,312.978051 120.790211,313.219262 C118.770064,313.671534 117.352946,312.55593 115.875525,311.530781 C112.709623,309.359877 109.694478,306.827155 106.227061,305.198977 C102.307373,303.359739 98.056019,302.093378 93.8348162,301.128532 C87.9251324,299.771716 81.9249942,298.80687 75.9550075,297.811872 C72.5478938,297.238995 69.1407802,296.877177 65.7035151,296.575663 C63.4723079,296.364603 61.2109493,296.635966 59.0098936,296.364603 C56.8691407,296.09324 54.7283879,295.490211 52.647938,294.887182 C52.0750605,294.706273 51.6529402,293.982638 50.7182453,293.138398 Z" id="Path"></path>
            <path d="M218.511055,314.817289 C222.340288,315.058501 225.596645,315.239409 228.792698,315.510772 C229.395727,315.571075 230.209816,315.842438 230.481179,316.29471 C230.933451,317.018345 231.506329,318.284706 231.204814,318.767129 C230.782694,319.430461 229.486182,319.973187 228.672093,319.852581 C220.832716,318.556069 213.264703,319.671672 205.756992,321.993334 C202.319727,323.048634 198.701553,323.561209 195.324591,324.706964 C191.55566,325.973325 187.786729,327.450746 184.259009,329.259833 C179.947352,331.460888 175.93721,334.20467 171.685855,336.526332 C169.726011,337.581632 167.555107,338.244964 165.444506,338.99875 C165.142991,339.119356 164.328902,338.727387 164.359054,338.636933 C164.389205,338.064056 164.449508,337.370572 164.811325,337.008755 C171.35419,330.616648 178.982506,325.882871 187.60582,322.897877 C193.786867,320.757124 200.028217,318.706826 206.360021,317.018345 C210.490769,315.842438 214.802426,315.450469 218.511055,314.817289 Z" id="Path"></path>
            <path d="M219.174386,294.43491 C220.440747,294.676122 221.676957,294.766576 222.852863,295.128393 C223.908164,295.429908 224.842859,296.183694 224.601647,297.389752 C224.390587,298.535507 223.425741,298.656113 222.249834,298.625961 C217.365299,298.535507 212.571219,299.168687 207.80729,300.163685 C199.274431,301.942621 191.284297,305.229128 183.414769,308.877454 C178.590537,311.138812 173.947214,313.852443 169.122982,316.143953 C167.494804,316.92789 165.504809,317.078648 163.66557,317.259556 C162.700724,317.350011 162.218301,316.566073 163.122844,315.812287 C165.53496,313.822291 167.856622,311.591084 170.509949,309.993057 C178.771446,305.078371 187.545517,301.30944 196.77186,298.565658 C203.133816,296.666117 209.525923,295.128393 216.189393,294.826879 C217.184391,294.826879 218.179389,294.585667 219.174386,294.43491 Z" id="Path"></path>
            <path d="M253.155068,57.1128613 C254.119915,57.3842243 255.175216,57.5048301 256.049608,57.9571018 C260.451719,60.2184605 264.522164,62.9622422 267.235795,67.2437479 C270.462,72.3694941 271.909269,77.9776634 270.582606,84.0079531 C270.281091,85.3346168 269.436851,86.5406747 268.833822,87.8070356 C268.049884,89.3447594 264.250801,89.6462739 263.014592,88.982942 C261.838686,88.3799131 261.657777,87.3547638 262.079897,85.7265856 C262.743229,83.2843183 263.557318,80.8118996 263.768378,78.3093294 C264.190499,73.4549462 262.56232,69.1734406 259.396418,65.4648124 C257.466726,63.2336053 255.506881,61.062701 253.577189,58.8616453 C253.275674,58.4998279 253.124917,58.0174047 252.883705,57.5952845 C252.97416,57.4143758 253.064614,57.2636185 253.155068,57.1128613 Z" id="Path"></path>
            <path d="M151.695445,196.050735 C152.8412,196.985429 153.86635,197.980427 155.584982,197.920124 C156.218163,197.889973 157.454372,199.367394 157.514675,200.211634 C157.816189,203.739354 157.695584,207.297225 157.876492,210.855096 C158.057401,214.201906 157.484523,217.428111 156.429223,220.594013 C156.097557,221.619163 155.645285,222.674463 154.28847,222.523706 C152.961806,222.372949 152.509534,221.227194 152.358777,220.141742 C152.20802,219.05629 152.388929,217.940686 152.41908,216.855234 C152.449232,212.694334 152.569837,208.533434 152.449232,204.372534 C152.388929,202.442842 151.906505,200.513149 151.604991,198.583456 C151.484385,197.82967 151.393931,197.045732 151.273325,196.291946 C151.424082,196.17134 151.57484,196.111037 151.695445,196.050735 Z" id="Path"></path>
            <path d="M54.6077821,274.203288 C55.3314169,272.303747 56.5374748,272.002233 57.7435327,272.002233 C61.391858,271.972081 65.0100318,271.972081 68.658357,272.122838 C71.552896,272.243444 74.447435,272.57511 77.3419741,272.846473 C78.3972748,272.936927 79.1812124,274.595257 78.3972748,275.650558 C77.8545487,276.434495 76.7690966,276.977222 75.8344017,277.278736 C75.0806155,277.519948 74.1459206,277.188282 73.30168,277.127979 C69.6835062,276.916919 66.0050296,276.977222 62.4170072,276.464647 C59.7938312,276.072678 57.2611096,274.987226 54.6077821,274.203288 Z" id="Path"></path>
            <path d="M153.142715,391.67333 C152.539686,395.170898 150.730599,396.376956 146.991819,395.83423 C145.635004,395.62317 144.278189,395.321656 142.921374,394.98999 C142.559557,394.899535 142.167588,394.658324 141.926376,394.356809 C141.624862,394.025143 141.474104,393.54272 141.232893,393.150751 C141.685165,392.90954 142.167588,392.48742 142.619859,392.48742 C143.765614,392.48742 144.911369,392.819085 146.026973,392.728631 C147.956666,392.547722 149.886358,392.155754 151.7859,391.854239 C152.238171,391.763785 152.660292,391.703482 153.142715,391.67333 Z" id="Path"></path>
        </g>
    </g>
</svg>