<?xml version="1.0" encoding="UTF-8"?>
<svg width="489px" height="250px" viewBox="0 0 489 250" version="1.1" xmlns="http://www.w3.org/2000/svg" xmlns:xlink="http://www.w3.org/1999/xlink">
    <title>section-newsletter</title>
    <g id="Page-1" stroke="none" stroke-width="1" fill="none" fill-rule="evenodd">
        <g id="section-newsletter" transform="translate(0.184794, 0.400000)" fill="#000000" fill-rule="nonzero">
            <path d="M137.144229,113.76946 C137.144229,113.694439 137.069208,113.431866 137.106719,113.506887 C138.269545,113.694439 139.432372,114.107055 140.557688,113.994524 C149.297643,113.281823 158.075109,112.456592 166.815064,111.66887 C174.692277,110.95617 182.56949,110.24347 190.446703,109.53077 C196.335857,109.005622 202.225012,108.442964 208.114166,107.955327 C216.441506,107.280137 224.806355,106.529927 233.171205,106.004779 C237.447407,105.742205 241.761118,105.817226 246.07483,105.854737 C250.2385,105.892248 254.40217,106.304863 258.528329,106.0798 C265.880394,105.704695 273.194949,104.879463 280.509504,104.466847 C283.547857,104.279294 286.623721,104.766931 289.662075,104.841952 C291.38756,104.879463 293.113044,104.729421 294.801019,104.804442 C295.663761,104.841952 296.526503,105.217058 297.351735,105.442121 C297.351735,105.629674 297.351735,105.817226 297.314225,106.004779 C296.714056,106.154821 296.113887,106.379884 295.476208,106.454906 C288.686801,107.46769 281.897394,108.555496 275.070476,109.380727 C271.506975,109.830854 267.868453,109.755833 264.22993,109.980896 C259.128497,110.28098 253.989554,110.693596 248.888121,110.95617 C243.486603,111.218744 238.047575,111.218744 232.683568,111.556339 C223.71855,112.156507 214.791042,112.831697 205.863534,113.694439 C191.759572,115.082329 177.69312,116.695282 163.589158,118.158193 C156.312114,118.908404 149.03507,119.396041 141.758025,120.146252 C140.782751,120.258783 139.544904,120.821441 138.944735,121.609163 C135.606297,125.885364 132.417901,130.236586 129.229506,134.625319 C125.290899,140.026837 121.614867,145.615907 117.413686,150.829871 C107.735968,162.908265 97.7956753,174.724084 88.1179567,186.764966 C84.3293924,191.453784 80.953444,196.480196 77.3524324,201.319055 C75.1393107,204.282387 72.7761468,207.170699 70.3754724,210.246563 C73.6763997,211.221837 76.7897743,212.347153 79.97817,213.059853 C88.8681674,214.972891 97.8331859,216.773396 106.760694,218.461371 C107.92352,218.686434 109.31141,218.273818 110.511748,217.898713 C118.689045,215.347996 126.866342,212.79728 135.006129,210.096521 C140.67022,208.220994 146.184269,206.007872 151.810849,204.057324 C156.76224,202.294329 161.713631,200.643865 166.702533,198.955891 C171.541392,197.342938 176.380252,195.767495 181.219111,194.154542 C184.294975,193.104247 187.333328,191.8664 190.446703,190.853615 C193.635099,189.80332 196.898516,188.978088 200.086911,188.002814 C206.726276,185.939735 213.403152,183.914166 220.005007,181.701044 C229.457662,178.550159 238.835297,175.1367 248.287952,171.985815 C255.002338,169.735182 261.791746,167.709613 268.543642,165.646534 C276.233302,163.28337 283.922963,161.032738 291.612623,158.669574 C299.264773,156.30641 306.916922,153.980757 314.494051,151.467551 C319.858058,149.704555 325.072022,147.491434 330.436029,145.728438 C338.013158,143.215232 345.665307,140.9646 353.279947,138.563926 C357.781211,137.138525 362.244965,135.600593 366.74623,134.212703 C373.535637,132.112113 380.325044,130.049034 387.151962,128.060975 C393.603774,126.185448 400.055587,124.384943 406.54491,122.621947 C413.409338,120.783931 420.311277,119.095957 427.175706,117.295451 C432.464691,115.907561 437.716167,114.482161 443.005152,113.094271 C446.681185,112.118997 450.282197,110.843638 454.03325,110.24347 C456.846541,109.793343 459.809873,110.018407 462.510632,108.930601 C462.885737,108.780559 463.148311,108.255411 463.523416,108.030348 C464.048564,107.692753 464.648733,107.392669 465.248901,107.280137 C465.398943,107.242627 465.699028,107.917817 465.88658,108.217901 C469.637634,108.18039 472.713498,106.454906 475.676831,104.204273 C477.252273,103.003936 479.202821,102.328746 480.890795,101.278451 C481.603496,100.865835 482.128643,100.115625 482.728812,99.5529667 C482.091133,98.9903086 481.565985,98.2025873 480.853285,97.902503 C473.726283,95.1267232 466.636791,92.1633908 459.359747,89.8002269 C450.357218,86.8368944 441.204647,84.3987095 432.089586,81.7354613 C424.850052,79.6348712 417.610518,77.4967706 410.370985,75.433691 C397.767444,71.8326794 385.163904,68.3066889 372.597873,64.7056773 C367.759014,63.3177874 362.920155,61.892387 358.081295,60.6170287 C348.62864,58.1788437 339.138474,55.7781693 329.648308,53.452516 C319.370421,50.93931 309.017512,48.5761461 298.702114,46.1754717 C290.337265,44.2249238 281.972415,42.3118864 273.607565,40.3613384 C265.767862,38.5233221 257.965671,36.5727741 250.125968,34.6972472 C243.524114,33.1218047 236.884749,31.6588937 230.282894,30.00843 C226.231756,28.9956455 222.255639,27.6827767 218.242011,26.6324817 C215.428721,25.8822709 212.57792,25.2445918 209.727119,24.6444232 C204.738218,23.5566176 199.749316,22.5063225 194.760415,21.493538 C189.208855,20.4057324 183.582275,19.5429901 178.068226,18.2676318 C173.154345,17.1423157 168.352996,15.5293625 163.439116,14.2540043 C160.175699,13.3912619 156.874772,12.7910933 153.573845,12.003372 C148.35988,10.7280137 143.183426,9.34012385 137.969461,8.02725504 C137.256761,7.83970235 136.544061,7.6896602 135.643808,7.83970235 C136.844145,9.07755009 138.006972,10.3529084 139.207309,11.5532456 C144.946421,17.3298683 150.648023,23.1815122 156.499667,28.8831139 C160.175699,32.4841255 164.001774,35.8975844 167.90287,39.2735328 C171.016245,41.9742915 174.317172,44.4124765 177.505568,47.0007035 C181.631727,50.3766519 185.532823,54.0901951 189.921556,57.1285487 C194.872947,60.5795181 200.274464,63.3552979 205.375897,66.5436936 C207.964124,68.1566467 209.839651,70.5573211 210.214756,73.6706957 C210.43982,75.7712859 209.201972,76.5590071 207.363956,75.5462226 C201.774885,72.4703585 196.035773,69.5820472 190.821808,65.943525 C185.420291,62.1924713 180.543921,57.6912068 175.517509,53.4150055 C170.978734,49.5889306 166.439959,45.8003663 162.051226,41.8242494 C156.424646,36.6853057 150.648023,31.6588937 145.471569,26.1073341 C140.107562,20.4057324 135.306213,14.1414727 130.429843,8.02725504 C129.52959,6.86442837 129.267016,5.21396472 128.779379,3.93860644 C129.417058,2.77577978 129.979717,1.72548473 130.579885,0.637679138 C130.504864,0.412615913 130.467354,0.225063225 130.392332,-2.1322272e-14 C132.530433,0.225063225 134.706044,0.225063225 136.769124,0.750210751 C150.873086,4.27620128 164.939538,8.02725504 179.0435,11.440714 C187.220797,13.3912619 195.585647,14.5915991 203.762944,16.467126 C213.140578,18.6052266 222.368171,21.2309643 231.745805,23.519107 C243.97424,26.4824395 256.240186,29.2957298 268.506132,32.1465307 C278.934061,34.5847156 289.399501,36.98539 299.827431,39.423575 C310.630465,41.9742915 321.471011,44.4124765 332.236535,47.0757246 C344.765055,50.1890992 357.256064,53.4150055 369.709562,56.8284644 C390.640442,62.5675766 411.533811,68.4942416 432.427181,74.383396 C443.155195,77.4217495 453.920719,80.460103 464.573711,83.7985409 C470.312824,85.5990467 475.901894,88.0747422 481.490964,90.2878639 C488.955561,93.2511963 490.043366,100.865835 484.529317,106.454906 C481.716027,109.305706 478.190037,110.693596 474.25143,111.518828 C469.637634,112.494102 465.17388,114.107055 460.635105,115.419924 C455.346119,116.957856 450.057133,118.533299 444.730637,120.03372 C439.629204,121.459121 434.527771,122.771989 429.388827,124.122369 C424.70001,125.360216 420.011193,126.560554 415.322376,127.873423 C410.446006,129.223802 405.607146,130.574181 400.768287,131.999582 C395.329259,133.612535 389.890231,135.225488 384.488714,136.950973 C381.600402,137.888736 378.787112,139.126584 375.898801,140.101858 C374.248337,140.664516 372.522852,140.92709 370.872389,141.377216 C366.296103,142.652574 361.719818,143.890422 357.181042,145.315822 C353.730073,146.403628 350.391635,147.791518 346.978176,149.029366 C345.85286,149.441982 344.765055,149.817087 343.602228,150.117171 C342.139317,150.454766 340.601385,150.529787 339.213495,151.054935 C336.212652,152.10523 333.324341,153.455609 330.323498,154.543415 C327.660249,155.481178 324.88447,156.193878 322.183711,157.01911 C315.544346,159.1197 308.942491,161.257801 302.265616,163.32088 C288.311696,167.597082 274.282755,171.723241 260.366345,176.149484 C247.537741,180.238133 234.821669,184.739397 222.030576,188.978088 C215.391211,191.19121 208.714335,193.179268 202.07497,195.35488 C194.38531,197.905596 186.695649,200.568844 179.005989,203.119561 C171.803966,205.520235 164.526922,207.845889 157.324898,210.284074 C152.260976,212.009558 147.272074,214.072638 142.170641,215.685591 C133.01807,218.536392 123.790478,221.162129 114.562886,223.900399 C113.925206,224.087951 113.024954,224.162972 112.687359,224.650609 C110.511748,227.576431 107.435883,226.863731 104.772635,226.301073 C97.3080384,224.763141 89.8809519,223.150188 82.5663971,221.012087 C76.6772427,219.286603 71.0131515,216.885928 65.3490604,214.522764 C63.1359386,213.585001 61.4479645,211.784495 60.1350956,209.533863 C59.4974165,208.408547 60.3601589,208.145973 60.510201,208.108462 C61.8230698,208.070952 61.7480488,206.945636 62.2356857,206.195425 C63.6985967,204.019814 65.2365287,201.919224 66.8119713,199.856144 C71.463278,193.666905 76.0395636,187.440156 80.8409124,181.363449 C85.4547085,175.474295 90.3310784,169.772693 95.0198956,163.95856 C103.909893,152.855441 112.76238,141.752321 121.614867,130.611692 C124.878283,126.523043 128.10419,122.359373 131.330096,118.233214 C131.517649,118.008151 131.817733,117.745577 131.855243,117.483004 C132.042796,113.73195 135.156171,114.894777 137.144229,113.76946 Z" id="Path"></path>
            <path d="M92.8817949,21.4560275 C93.8195584,22.6938752 94.6072796,23.7066597 95.3950009,24.7569548 C100.571455,31.6964042 105.78542,38.5983431 110.811832,45.6503242 C114.262801,50.451673 117.563729,55.403064 120.639593,60.4669865 C124.878283,67.3689254 128.929422,74.3458854 132.943049,81.3978665 C134.893597,84.8113254 136.544061,88.3748265 138.269545,91.8633065 C139.207309,93.7763439 142.020599,94.7516179 144.983932,94.3765125 C148.772496,93.8888755 152.52355,93.5137701 156.312114,93.2136858 C160.963421,92.876091 165.652238,92.6510277 170.341055,92.4259645 C174.954851,92.2009013 179.568647,92.0883697 184.182443,91.8633065 C190.22164,91.5632222 196.260836,91.1881168 202.300033,90.8880325 C213.590705,90.2878639 224.843866,89.5376531 236.134538,89.1625478 C241.310992,89.0125056 246.487446,89.6876953 251.6639,89.875248 C258.378287,90.1003112 265.130183,90.1753323 271.84457,90.362885 C277.996298,90.5504376 284.185536,90.8130114 290.337265,90.9630536 C295.026082,91.0380746 299.714899,90.8505219 304.366206,90.925543 C311.530718,91.0005641 318.695231,91.2256273 325.897254,91.3381589 C331.111219,91.41318 336.362694,91.3381589 341.576659,91.3756695 C346.715603,91.41318 351.892057,91.3756695 357.031,91.6757538 C359.13159,91.7882854 361.157159,91.3756695 363.25775,91.6382432 C365.545892,91.9383275 367.871546,91.7882854 370.159688,91.9383275 C372.447831,92.0508591 374.773485,92.2759224 377.061627,92.4634751 C379.34977,92.6510277 381.637913,92.9886226 383.963566,93.1386647 C388.164747,93.363728 392.365927,93.4762596 396.567107,93.7013228 C399.005292,93.8513649 401.443477,94.1139387 403.994193,94.6015757 C403.394025,94.8641495 402.756346,95.1267232 402.006135,95.4643181 C402.418751,95.7268918 402.831367,95.9894656 403.243983,96.2520394 C403.168962,96.3270604 403.131451,96.4771026 403.05643,96.5146131 C396.979723,99.1403507 390.715463,98.2400978 384.376182,97.7149503 C378.562049,97.2273133 372.747916,97.0397606 366.933782,96.9647396 C357.968764,96.852208 348.966235,97.0022501 340.001216,96.927229 C329.08565,96.852208 318.170083,96.5896342 307.254517,96.4771026 C298.327009,96.4020815 289.399501,96.5521237 280.471993,96.364571 C268.506132,96.1019972 256.54027,95.4643181 244.574409,95.3142759 C236.659685,95.2017443 228.744962,95.6893813 220.867749,95.9519551 C214.941084,96.1395077 209.014419,96.3270604 203.087754,96.6271447 C198.436448,96.852208 193.74763,97.3398449 189.096324,97.6024187 C183.132148,97.9400135 177.130462,98.1275662 171.166287,98.4651611 C162.201268,98.9527981 153.27376,99.4779456 144.19621,99.9655826 C144.946421,103.341531 145.696632,106.379884 146.334311,109.455749 C146.484353,110.130938 146.409332,110.993681 146.109248,111.593849 C145.659121,112.419081 145.096463,112.831697 143.858615,112.156507 C141.007815,110.506044 139.657435,108.067859 139.094777,104.991995 C138.869714,103.641615 138.60714,102.291236 138.269545,100.978367 C138.006972,99.8155404 137.744398,98.6152032 136.093934,98.6152032 C135.756339,98.6152032 135.343723,98.0150346 135.08115,97.6399292 C132.380391,93.5887912 129.679632,89.5376531 127.053895,85.4490045 C120.714614,75.5462226 114.562886,65.4933986 108.036052,55.7031483 C103.00964,48.1635302 97.5706121,40.9239965 92.2066052,33.6469522 C89.7684203,30.3460249 87.1426827,27.2326503 84.5919661,24.006744 C84.4044134,23.7816808 84.4044134,23.3690649 84.4044134,23.0689806 C84.3669029,21.5310486 83.8042448,19.6930322 84.441924,18.5302055 C85.3421769,16.954763 86.95513,15.491852 88.6055936,14.7041307 C94.1946637,12.003372 99.9712865,9.64020815 105.672888,7.0894916 C110.324195,4.98890149 114.937991,2.73826924 119.626808,0.712700213 C122.627651,-0.600168601 124.578199,0.525147526 125.290899,3.48847999 C125.703515,5.21396472 124.915794,6.30177031 123.565415,7.01447052 C121.577356,8.02725504 119.439256,8.81497632 117.451197,9.7902503 C111.899637,12.5660301 106.423099,15.491852 100.871539,18.2301212 C98.3583334,19.3554374 95.6575747,20.2932008 92.8817949,21.4560275 Z" id="Path"></path>
            <path d="M357.931253,156.606494 C355.455558,160.395059 351.40442,161.520375 347.765898,163.358391 C344.615012,164.933834 341.65168,166.884382 338.538305,168.534845 C336.400205,169.660161 334.187083,170.710456 331.936451,171.64822 C324.396833,174.686573 316.782194,177.499864 309.317597,180.613238 C300.765194,184.176739 292.250302,187.852772 283.810431,191.678847 C276.946003,194.792221 270.306638,198.318212 263.47972,201.506608 C256.915376,204.544961 250.200989,207.320741 243.599135,210.321584 C237.785001,212.984832 232.045889,215.873144 226.269266,218.648923 C220.94277,221.19964 215.616274,223.712846 210.327288,226.301073 C200.424506,231.177443 190.596745,236.091323 180.693963,240.930183 C179.0435,241.717904 177.130462,241.942967 175.479999,242.730688 C173.004303,243.856005 170.641139,245.281405 168.165444,246.519253 C166.402449,247.381995 164.639453,248.357269 162.763926,248.882417 C162.013716,249.10748 160.625826,248.507311 160.063168,247.832122 C156.124561,243.105794 154.699161,237.291661 153.348781,231.477527 C152.711102,228.701747 152.110934,225.850947 151.698318,223.037656 C151.548276,221.949851 151.88587,220.749513 152.185955,219.661708 C152.223465,219.474155 153.461313,219.286603 153.648866,219.474155 C154.699161,220.712003 156.04954,221.91234 156.462156,223.375251 C157.324898,226.301073 157.587472,229.376937 158.262662,232.37778 C158.787809,234.740944 159.50051,237.066597 160.175699,239.392251 C160.513294,240.592588 161.376036,240.442546 162.238779,240.02993 C166.552491,237.92934 170.866202,235.82875 175.217425,233.76567 C180.506411,231.252464 185.832907,228.85179 191.121893,226.338584 C196.823494,223.637825 202.487586,220.824535 208.226698,218.161286 C215.3537,214.822849 222.555723,211.559432 229.682725,208.258504 C236.247069,205.220151 242.811414,202.219308 249.338247,199.143444 C258.190734,194.979774 267.00571,190.703573 275.858197,186.614924 C280.059377,184.664376 284.373089,183.088934 288.61178,181.250917 C295.251145,178.400117 301.815489,175.399274 308.492365,172.623494 C313.593798,170.485393 318.807763,168.572356 323.984217,166.659318 C326.122317,165.871597 328.297929,165.083876 330.51105,164.67126 C334.112062,163.99607 337.750584,163.695986 341.201553,162.195564 C343.377165,161.257801 345.85286,160.957717 348.178513,160.245016 C349.979019,159.682358 351.704504,158.894637 353.467499,158.219447 C355.005431,157.656789 356.468342,157.131642 357.931253,156.606494 Z" id="Path"></path>
            <path d="M96.7828908,94.414023 C95.9951695,97.0022501 93.8195584,97.6399292 90.1810362,96.927229 C90.4811205,97.414866 90.7061837,97.7524609 90.8187154,97.9775241 C89.1682517,98.8027559 87.6678302,99.8905615 85.9423455,100.415709 C83.5416711,101.128409 81.0659756,101.541025 78.5902801,101.87862 C70.4129829,103.003936 62.3107068,101.916131 54.1334096,101.466004 C46.556281,101.053388 38.9791525,100.603262 31.3645133,100.340688 C24.3875534,100.078114 17.4105934,100.415709 10.4711439,99.8155404 C6.42000587,99.4779456 2.40637835,97.9775241 0.380809322,93.7763439 C0.118235559,93.2511963 -0.0318065908,92.6135172 0.00570394679,92.0133486 C0.00570394679,91.7882854 0.643383085,91.3756695 0.943467386,91.3756695 C2.21882566,91.5257116 3.49418394,92.0133486 4.73203168,91.9758381 C11.3713968,91.7882854 18.010762,91.3006484 24.6501271,91.2256273 C30.3892394,91.1506062 36.1283516,91.3381589 41.8674639,91.6007327 C51.020035,91.9758381 60.1726062,92.6135172 69.3626879,92.876091 C75.0642896,93.0261331 80.8034018,92.5009856 86.5425141,92.7260488 C89.9184625,92.8010699 93.2193898,93.7763439 96.7828908,94.414023 Z" id="Path"></path>
            <path d="M198.398937,117.520514 C199.29919,118.60832 200.349485,119.471062 200.837122,120.596378 C201.662354,122.509416 201.137206,124.2349 199.599274,125.847853 C187.633413,138.038778 175.667551,150.229703 163.814221,162.57067 C155.599414,171.160583 147.609669,179.938049 139.507393,188.640493 C136.356508,192.053952 133.280644,195.542432 129.979717,198.805849 C126.0036,202.781966 121.83993,206.608041 117.67626,210.396605 C117.001071,211.034284 115.988286,211.259347 115.125544,211.671963 C114.937991,211.4469 114.750438,211.184326 114.562886,210.959263 C116.888539,208.070952 119.176682,205.18264 121.502335,202.294329 C124.428157,198.693317 127.766595,195.39239 130.054738,191.266231 C130.654906,190.215936 131.930265,189.540746 132.793007,188.602983 C133.69326,187.627709 134.480981,186.502393 135.343723,185.489608 C138.832203,181.363449 142.358194,177.2748 145.884184,173.186152 C149.560217,168.947461 153.198739,164.70877 156.949793,160.50759 C159.950636,157.131642 162.98899,153.755693 166.102364,150.454766 C167.640296,148.804302 169.478313,147.378902 170.978734,145.690928 C173.041814,143.440296 174.87983,141.002111 176.905399,138.713968 C177.543078,138.001268 178.36831,137.47612 179.118521,136.875952 C179.306073,136.725909 179.568647,136.613378 179.718689,136.425825 C181.669237,134.212703 183.582275,131.962071 185.532823,129.748949 C186.02046,129.186291 186.583118,128.736165 187.108265,128.211017 C190.071598,125.285195 192.99742,122.359373 195.998263,119.471062 C196.560921,118.795872 197.311131,118.345746 198.398937,117.520514 Z" id="Path"></path>
            <path d="M79.97817,63.5803611 C80.3907859,64.405593 80.6908702,65.0432721 81.0284651,65.7559723 C79.7155962,67.7065203 77.464964,68.5692626 75.2143317,68.8693469 C71.6508307,69.3569839 68.0498191,69.4695155 64.4488075,69.432005 C58.6721847,69.3194734 52.8580514,69.2069418 47.1189391,68.5692626 C41.7549322,67.969094 36.4284359,67.0313306 31.2144712,65.6059302 C28.1386071,64.7806983 25.3628273,62.7176188 22.0994106,61.0671551 C24.3500428,59.0040756 26.3756118,57.9912911 29.0013495,58.1788437 C35.4906725,58.6664807 42.017506,59.0415861 48.5443395,59.454202 C51.8077563,59.6417547 55.0711731,59.941839 58.3345898,60.0168601 C61.5980066,60.0543706 64.8614234,59.9043285 68.1248401,59.7917969 C71.0131515,59.6792652 73.9389735,59.4917126 76.8272848,59.4166915 C78.1401537,59.3791809 79.4530225,59.5667336 80.7283808,59.7917969 C81.928718,60.0168601 83.2415868,60.4669865 83.0540341,61.967408 C82.8664814,63.3177874 81.7036547,63.7304033 79.97817,63.5803611 Z" id="Path"></path>
            <path d="M32.6773822,176.299526 C29.1889022,175.999442 25.6629116,175.774379 22.1744316,175.399274 C20.523968,175.211721 18.9110149,174.761594 17.2605512,174.46151 C15.2724927,174.086405 13.9971345,172.736025 13.6220291,170.93552 C13.3219448,169.58514 14.0721555,168.984972 14.9724084,168.609866 C18.6859516,167.071934 22.4370054,165.759065 26.6381856,166.321723 C29.9766234,166.77185 33.3900824,166.696829 36.7660307,166.996913 C40.4045529,167.296997 44.0055645,167.709613 47.6065761,168.15974 C47.9441709,168.19725 48.506829,169.285056 48.3567868,169.58514 C47.9441709,170.447883 47.3440023,171.535688 46.556281,171.835773 C42.5426535,173.298683 38.4164944,174.574042 34.3278458,175.886911 C33.8026983,176.036953 33.2025297,175.961932 32.6398716,175.999442 C32.6773822,176.074463 32.6773822,176.186995 32.6773822,176.299526 Z" id="Path"></path>
            <path d="M152.110934,40.5864016 C152.110934,40.5864016 151.773339,40.1362752 151.360723,39.5736171 C154.999245,41.1490597 156.649709,44.4874975 158.937852,47.1882562 C162.3138,51.2018838 165.427175,55.4405745 169.028186,59.1916283 C175.179914,65.6059302 182.156874,71.0824687 189.621471,75.921328 C190.559235,76.5214966 191.534509,77.0466441 192.472272,77.6843233 C192.697335,77.8343654 192.772356,78.2094708 192.847377,78.2844919 C191.572019,80.872719 190.034087,80.0099766 188.196071,79.1097237 C182.119364,76.1839018 176.94291,71.945211 172.06654,67.406436 C167.490254,63.1302347 163.439116,58.2913754 159.050383,53.7901108 C155.861987,50.4891835 153.311271,46.8131509 151.88587,42.424418 C151.735828,42.0118021 151.960892,41.4866545 152.110934,40.5864016 Z" id="Path"></path>
        </g>
    </g>
</svg>