<svg width="37" height="37" viewBox="0 0 37 37" fill="none" xmlns="http://www.w3.org/2000/svg">
<path d="M36.5807 31.0966L23.9391 18.4133L36.6097 5.89381C37.13 5.37376 37.13 4.52629 36.6097 4.00625L33.006 0.385216C32.7555 0.134826 32.4182 0 32.0617 0C31.7052 0 31.368 0.144456 31.1175 0.385216L18.5047 12.8662L5.87268 0.394847C5.62216 0.144457 5.28492 0.00963099 4.92841 0.00963099C4.5719 0.00963099 4.23466 0.154087 3.98414 0.394847L0.390125 4.01588C-0.130188 4.53592 -0.130188 5.38339 0.390125 5.90344L13.0607 18.423L0.428667 31.0966C0.178146 31.347 0.0336148 31.684 0.0336148 32.0403C0.0336148 32.3967 0.168511 32.7337 0.428667 32.9841L4.03231 36.6052C4.29247 36.8652 4.62971 37 4.97658 37C5.31382 37 5.6607 36.8748 5.92085 36.6052L18.5047 23.9701L31.0982 36.5955C31.3584 36.8555 31.6956 36.9904 32.0425 36.9904C32.3797 36.9904 32.7266 36.8652 32.9867 36.5955L36.5904 32.9745C36.8409 32.7241 36.9854 32.387 36.9854 32.0307C36.9758 31.684 36.8313 31.347 36.5807 31.0966Z" fill="black"/>
</svg>
