<svg xmlns="http://www.w3.org/2000/svg" viewBox="0 0 48 48" width="32" height="32">
  <defs>
    <style>.cls-1{fill:#201602}</style>
  </defs>
  <g id="Layer_2" data-name="Layer 2">
    <g id="layer_1-2" data-name="layer 1">
      <path class="cls-1" d="M24 48a24 24 0 1 1 24-24 24 24 0 0 1-24 24zm0-46a22 22 0 1 0 22 22A22 22 0 0 0 24 2z"/>
      <path class="cls-1" d="M24 48c-7.85 0-14-10.54-14-24S16.15 0 24 0s14 10.54 14 24-6.15 24-14 24zm0-46c-6.62 0-12 9.87-12 22s5.38 22 12 22 12-9.87 12-22S30.62 2 24 2z"/>
      <path class="cls-1" d="M23 4h2v43h-2z"/>
      <path class="cls-1" d="M1 23h33v2H1zM37 23h10v2H37zM7 12h37v2H7zM4 34h8v2H4zM16 34h28v2H16z"/>
    </g>
  </g>
</svg>