<svg width="22" height="21" viewBox="0 0 22 21" fill="none" xmlns="http://www.w3.org/2000/svg">
<path fill-rule="evenodd" clip-rule="evenodd" d="M15.1673 15.9356C13.5229 17.1531 11.4957 17.8147 9.40824 17.8151C4.22077 17.8151 0 13.819 0 8.90757C0 3.99616 4.22077 0 9.40824 0C14.5957 0 18.8165 3.99616 18.8165 8.90757C18.816 10.8844 18.1167 12.8043 16.8302 14.3612L22 19.2559L20.3371 20.8303L15.1673 15.9356ZM16.4644 8.90757C16.4644 5.22318 13.2997 2.22689 9.40824 2.22689C5.51676 2.22689 2.35206 5.22318 2.35206 8.90757C2.35206 12.592 5.51676 15.5882 9.40824 15.5882C13.2997 15.5882 16.4644 12.592 16.4644 8.90757Z" fill="black"/>
</svg>
