<svg width="25" height="25" viewBox="0 0 25 25" fill="none" xmlns="http://www.w3.org/2000/svg">
<path fill-rule="evenodd" clip-rule="evenodd" d="M12.5 0C5.60318 0 0 5.60318 0 12.5C0 19.3968 5.60318 25 12.5 25C19.3968 25 25 19.3968 25 12.5C25 5.60318 19.3968 0 12.5 0ZM8.67207 4.30561C9.58506 2.52071 10.7441 1.43098 11.9445 1.17189V6.11106H7.9255C8.14522 5.45868 8.39401 4.84891 8.67207 4.30561ZM13.0558 1.17193L13.0555 1.17188H13.0558V1.17193ZM13.0558 1.17193C14.256 1.43109 15.4148 2.52076 16.3282 4.30561C16.6062 4.84911 16.855 5.45888 17.0748 6.11106H13.0558V1.17193ZM9.19266 1.6059L9.19213 1.60646C6.67203 2.36978 4.51915 3.98233 3.07311 6.11131H6.74489C7.00704 5.27212 7.32422 4.49355 7.68229 3.7935C8.11638 2.94486 8.62305 2.20681 9.19213 1.60646L9.19316 1.60615L9.19266 1.6059ZM15.8083 1.60621L15.8072 1.6059L15.8077 1.60565L15.8083 1.60621ZM15.8083 1.60621C18.3281 2.36958 20.481 3.98208 21.9273 6.11106H18.2555C17.9933 5.27187 17.6761 4.49335 17.3181 3.79325C16.884 2.94466 16.3771 2.20681 15.8083 1.60621ZM2.40471 7.22247H6.44092C6.08789 8.66949 5.88016 10.2651 5.84201 11.9446H1.12857C1.21072 10.2455 1.65928 8.64544 2.40471 7.22247ZM11.9444 7.22247H7.59568C7.22464 8.64603 6.99464 10.244 6.95337 11.9446H11.9444V7.22247ZM13.0553 7.22247H17.4043C17.7753 8.64603 18.0055 10.2442 18.0466 11.9446H13.0555L13.0553 7.22247ZM22.5952 7.22247H18.5587C18.912 8.6693 19.1195 10.2649 19.1579 11.9446H23.8713C23.7891 10.2455 23.3404 8.64549 22.5952 7.22247ZM1.12817 13.0558H5.84162C5.8794 14.7378 6.08692 16.331 6.44053 17.778H2.40407C1.65982 16.3544 1.20913 14.7551 1.12812 13.0556L1.12817 13.0558ZM11.9441 13.0558H6.95308H6.95283C6.9935 14.7572 7.22408 16.3554 7.59514 17.778H11.9441V13.0558ZM13.0553 13.0558H18.0463C18.0056 14.7574 17.7751 16.3554 17.404 17.778H13.055L13.0553 13.0558ZM23.8709 13.0558H19.1574H19.1572C19.1194 14.7378 18.9119 16.331 18.5583 17.778H22.5947C23.3392 16.3546 23.7901 14.7553 23.8709 13.0558ZM3.06369 18.8891H6.7442C7.00636 19.7272 7.32356 20.4982 7.6816 21.1982C8.11485 22.0447 8.62465 22.7933 9.19196 23.3943C6.66781 22.6299 4.50967 21.0232 3.06349 18.8891H3.06369ZM11.9438 18.8891H7.9248L7.92455 18.8889C8.1443 19.5405 8.39308 20.1424 8.67113 20.6859C9.58438 22.4708 10.7437 23.5675 11.9438 23.8283V18.8891ZM13.0553 18.8891H17.0743C16.8545 19.5406 16.6057 20.1426 16.3277 20.6861C15.4145 22.471 14.2552 23.5676 13.055 23.8286V18.8894L13.0553 18.8891ZM21.9352 18.8891H18.2547H18.2545C17.9923 19.7272 17.6751 20.4982 17.3171 21.1982C16.884 22.0447 16.3741 22.7931 15.8067 23.3943C18.3308 22.6299 20.4889 21.0232 21.9352 18.8891Z" fill="black"/>
</svg>
