<svg xmlns="http://www.w3.org/2000/svg" width="32" height="32" fill="#1DA1F2" viewBox="0 0 48 48">
  <path d="M42 6.22c-1.54.68-3.2 1.14-4.94 1.35 1.77-1.06 3.13-2.74 3.77-4.74-1.66.98-3.49 1.69-5.45 2.08-1.56-1.67-3.78-2.71-6.24-2.71-4.73 0-8.54 3.81-8.54 8.53 0 .67.07 1.33.21 1.97-7.1-.36-13.4-3.75-17.63-8.94-.73 1.26-1.14 2.73-1.14 4.30 0 2.95 1.50 5.56 3.77 7.11-1.4-.05-2.73-.43-3.88-1.07v.1c0 4.12 2.93 7.54 6.80 8.32-.72.20-1.48.31-2.26.31-.55 0-1.09-.05-1.62-.15 1.10 3.44 4.28 5.94 8.08 6.01-2.96 2.33-6.68 3.73-10.73 3.73-.70 0-1.39-.04-2.07-.09 3.84 2.46 8.39 3.90 13.27 3.90 15.92 0 24.62-13.18 24.62-24.63 0-.38-.01-.76-.03-1.13 1.7-1.22 3.17-2.75 4.34-4.48z"/>
</svg>