<svg xmlns="http://www.w3.org/2000/svg" viewBox="0 0 54.95 54.95"><title>by</title><path d="M7117.46,7140.15a27.23,27.23,0,0,1,27.52,27.48,25.9,25.9,0,0,1-7.85,19.28,27.15,27.15,0,0,1-19.67,8.19,27.64,27.64,0,0,1-27.43-27.48,26.93,26.93,0,0,1,8.1-19.53A26.31,26.31,0,0,1,7117.46,7140.15Zm0.1,5a21.39,21.39,0,0,0-15.85,6.57,22.11,22.11,0,0,0-6.72,15.95,22.79,22.79,0,0,0,22.57,22.47,22.06,22.06,0,0,0,16-6.72,20.93,20.93,0,0,0,6.48-15.75A22.45,22.45,0,0,0,7117.55,7145.1Zm7.36,15.7V7172h-3.14v13.35h-8.54V7172h-3.14V7160.8a1.76,1.76,0,0,1,1.77-1.77h11.28a1.73,1.73,0,0,1,1.23.52A1.67,1.67,0,0,1,7124.91,7160.8Zm-11.24-7.07q0-3.88,3.83-3.88t3.83,3.88q0,3.83-3.83,3.83T7113.68,7153.74Z" transform="translate(-7090.03 -7140.15)"/></svg>