<svg xmlns="http://www.w3.org/2000/svg" viewBox="0 0 936 261.49"><title>Open Knowledge Foundation</title><path class="a" d="M162.31,99.18a44.43,44.43,0,0,1,12.47,24.52l19.1-19.1,47.81-47.81-37-37L156.89,67.62V0h-52.3V94.63A44.63,44.63,0,0,1,162.31,99.18Z"/><path class="a" d="M174.78,137.8a44.53,44.53,0,0,1-70.18,29.06v94.63h52.29V193.88l47.82,47.81,37-37-47.82-47.82Z"/><path class="b" d="M99.18,162.31a44.64,44.64,0,0,1,0-63.13,45.28,45.28,0,0,1,5.41-4.55v-27L56.79,19.8l-37,37L67.62,104.6H0v52.29H67.62L19.8,204.71l37,37,47.81-47.81v-27A44.59,44.59,0,0,1,99.18,162.31Z"/><path class="c" d="M174.78,137.8a44.62,44.62,0,1,1-75.6-38.62,45.28,45.28,0,0,1,5.41-4.55,44.53,44.53,0,0,1,70.19,29.07l19.1-19.1,47.81-47.81-37-37L156.89,67.62V0h-52.3V67.62L56.79,19.8l-37,37L67.62,104.6H0v52.29H67.62L19.8,204.71l37,37,47.81-47.81v67.61h52.29V193.88l47.82,47.81,37-37-47.82-47.82ZM164,74.67l40.76-40.76,22.87,22.88L186.82,97.54l-7.75,7.76a54.3,54.3,0,0,0-9.71-13.17,55.15,55.15,0,0,0-13.15-9.72Zm-17-64.7v68.6a55,55,0,0,0-32.35,0V10Zm-113,46.82L56.79,33.91,94.62,71.75V89.81c-.88.77-1.71,1.54-2.49,2.32a54.92,54.92,0,0,0-9.73,13.15l-7.73-7.74ZM10,146.92V114.57H78.56a55,55,0,0,0,0,32.35H10Zm84.65,42.82L56.79,227.58,33.91,204.71,74.67,164l7.73-7.74a54.9,54.9,0,0,0,9.72,13.14c.79.79,1.62,1.56,2.5,2.33Zm52.3,4.14v57.64H114.57V182.88a55,55,0,0,0,32.35,0Zm57.79,33.7L164,186.82l-7.74-7.74a54.92,54.92,0,0,0,22.86-22.89l7.75,7.75,40.76,40.77Z"/><path d="M343.77,82a34.68,34.68,0,0,1-2.24,12.59,29.68,29.68,0,0,1-6.35,10,28.82,28.82,0,0,1-9.87,6.6,35.78,35.78,0,0,1-25.61,0,29.1,29.1,0,0,1-9.89-6.6,29.77,29.77,0,0,1-6.39-10,36.17,36.17,0,0,1,0-25.17,29.68,29.68,0,0,1,6.39-10,29.1,29.1,0,0,1,9.89-6.6,33.37,33.37,0,0,1,12.79-2.37,34.48,34.48,0,0,1,8.84,1.09,30.57,30.57,0,0,1,7.61,3.08,28.09,28.09,0,0,1,6.22,4.82,29.52,29.52,0,0,1,4.68,6.35,31.22,31.22,0,0,1,2.93,7.61A36.18,36.18,0,0,1,343.77,82ZM332,82a28.37,28.37,0,0,0-1.37-9.12,19.57,19.57,0,0,0-3.89-6.86,16.74,16.74,0,0,0-6.13-4.32,22.86,22.86,0,0,0-16.29,0,16.82,16.82,0,0,0-6.15,4.32,19.3,19.3,0,0,0-3.91,6.86A28.1,28.1,0,0,0,292.91,82a28.12,28.12,0,0,0,1.37,9.13A19.12,19.12,0,0,0,298.19,98a16.86,16.86,0,0,0,6.15,4.29,22.86,22.86,0,0,0,16.29,0A16.79,16.79,0,0,0,326.76,98a19.39,19.39,0,0,0,3.89-6.84A28.39,28.39,0,0,0,332,82Z"/><path d="M361.51,75.07a22.94,22.94,0,0,1,6.11-4.92,16.47,16.47,0,0,1,8-1.88,14.35,14.35,0,0,1,6.56,1.5,14.61,14.61,0,0,1,5.13,4.34,20.89,20.89,0,0,1,3.33,7,35.47,35.47,0,0,1,1.18,9.56,30.14,30.14,0,0,1-1.33,9.1,22.11,22.11,0,0,1-3.78,7.27,17.6,17.6,0,0,1-5.94,4.81,17.39,17.39,0,0,1-7.8,1.73,15.67,15.67,0,0,1-6.29-1.14,15.21,15.21,0,0,1-4.65-3.14v18H351.51V69.08H358A2.58,2.58,0,0,1,360.65,71Zm.56,26.5a10.4,10.4,0,0,0,3.91,3.08,11.77,11.77,0,0,0,4.59.89,10.2,10.2,0,0,0,4.32-.89,8.57,8.57,0,0,0,3.27-2.74,13.43,13.43,0,0,0,2.07-4.64,26.19,26.19,0,0,0,.73-6.6,29.48,29.48,0,0,0-.62-6.52,12.72,12.72,0,0,0-1.78-4.34,7.07,7.07,0,0,0-2.8-2.44,8.74,8.74,0,0,0-3.74-.76,10.65,10.65,0,0,0-5.6,1.39,16.7,16.7,0,0,0-4.35,3.91Z"/><path d="M408.18,92.33a21,21,0,0,0,1.2,5.84,11.91,11.91,0,0,0,2.48,4.06,9.62,9.62,0,0,0,3.65,2.39,13.21,13.21,0,0,0,4.68.79,14.52,14.52,0,0,0,4.43-.6,19.58,19.58,0,0,0,3.25-1.32q1.38-.72,2.43-1.32a4.1,4.1,0,0,1,2-.6,2.17,2.17,0,0,1,2,1l3,3.85a17.54,17.54,0,0,1-3.93,3.44,22.52,22.52,0,0,1-4.55,2.22,24.67,24.67,0,0,1-4.83,1.18,35.93,35.93,0,0,1-4.77.34,23.42,23.42,0,0,1-8.5-1.52,19.07,19.07,0,0,1-6.84-4.49,21,21,0,0,1-4.57-7.35,28.45,28.45,0,0,1-1.67-10.15,24.22,24.22,0,0,1,1.45-8.44,20.25,20.25,0,0,1,4.17-6.88,19.52,19.52,0,0,1,6.63-4.64,21.75,21.75,0,0,1,8.82-1.71,21.49,21.49,0,0,1,7.65,1.32,16.81,16.81,0,0,1,6,3.87,18,18,0,0,1,3.95,6.24,23.16,23.16,0,0,1,1.43,8.44,6.87,6.87,0,0,1-.51,3.23,2.11,2.11,0,0,1-2,.83ZM428.32,86a12.85,12.85,0,0,0-.58-3.87A9.38,9.38,0,0,0,426,78.91a8,8,0,0,0-2.93-2.15A10,10,0,0,0,419,76a9.76,9.76,0,0,0-7.2,2.61A12.77,12.77,0,0,0,408.4,86Z"/><path d="M455.58,74.47a31,31,0,0,1,2.8-2.46,18.7,18.7,0,0,1,3.12-1.92,17.25,17.25,0,0,1,7.63-1.69,15.73,15.73,0,0,1,6.37,1.22A12.57,12.57,0,0,1,480.14,73,15,15,0,0,1,483,78.29a22.45,22.45,0,0,1,1,6.74v27.91H473.37V85a9.46,9.46,0,0,0-1.84-6.22q-1.84-2.2-5.6-2.2a11,11,0,0,0-5.13,1.24,18.14,18.14,0,0,0-4.53,3.37v31.72H445.71V69.08h6.46A2.6,2.6,0,0,1,454.86,71Z"/><path d="M527.86,77h2.69a6.93,6.93,0,0,0,2.69-.45,4.38,4.38,0,0,0,1.84-1.43l17.06-21.58a6.14,6.14,0,0,1,2.24-1.9,7.1,7.1,0,0,1,3-.54h9.92L546.45,76.82a11.4,11.4,0,0,1-3.8,3.33,8.71,8.71,0,0,1,2.54,1.44A10.94,10.94,0,0,1,547.35,84l21.46,28.94H558.68a6.38,6.38,0,0,1-3.06-.58,4.88,4.88,0,0,1-1.69-1.69L536.45,87.85a4.65,4.65,0,0,0-1.88-1.63,8,8,0,0,0-3.08-.47h-3.63v27.19h-11.5V51.13h11.5Z"/><path d="M583.17,74.47A28.48,28.48,0,0,1,586,72a17.92,17.92,0,0,1,3.12-1.92,17.24,17.24,0,0,1,3.52-1.24,17.67,17.67,0,0,1,4.11-.45,15.72,15.72,0,0,1,6.36,1.22A12.48,12.48,0,0,1,607.72,73a15,15,0,0,1,2.82,5.25,22.45,22.45,0,0,1,1,6.74v27.91H601V85a9.46,9.46,0,0,0-1.84-6.22c-1.23-1.47-3.09-2.2-5.6-2.2a11,11,0,0,0-5.13,1.24,18.51,18.51,0,0,0-4.53,3.37v31.72H573.29V69.08h6.46A2.59,2.59,0,0,1,582.44,71Z"/><path d="M640.91,68.4A24,24,0,0,1,649.78,70a19.57,19.57,0,0,1,6.84,4.49A19.86,19.86,0,0,1,661,81.56a29.37,29.37,0,0,1,0,18.77,20.34,20.34,0,0,1-4.38,7.14,19.39,19.39,0,0,1-6.84,4.53,24,24,0,0,1-8.87,1.58A24.27,24.27,0,0,1,632,112a19.21,19.21,0,0,1-6.86-4.53,20.24,20.24,0,0,1-4.4-7.14,28.84,28.84,0,0,1,0-18.77,19.76,19.76,0,0,1,4.4-7.09A19.38,19.38,0,0,1,632,70,24.27,24.27,0,0,1,640.91,68.4Zm0,37.06q5.48,0,8.1-3.68T651.64,91q0-7.1-2.63-10.81t-8.1-3.72c-3.7,0-6.45,1.24-8.23,3.74S630,86.31,630,91s.89,8.29,2.67,10.75S637.21,105.46,640.91,105.46Z"/><path d="M732.51,69.08l-13.94,43.86h-8.46c-1,0-1.64-.63-2-1.88l-7.86-25.35c-.26-.86-.49-1.7-.71-2.54s-.39-1.69-.53-2.55c-.17.86-.37,1.72-.58,2.59s-.45,1.73-.7,2.59l-8,25.26a2.22,2.22,0,0,1-2.26,1.88h-8.12l-13.9-43.86h8.42a3.41,3.41,0,0,1,2,.56,2.59,2.59,0,0,1,1.07,1.41l6.28,23.42c.32,1.28.59,2.54.84,3.76s.44,2.45.62,3.68c.31-1.23.64-2.45,1-3.68s.73-2.48,1.13-3.76L694,71a2.66,2.66,0,0,1,1-1.41,3,3,0,0,1,1.82-.55h4.66a3.23,3.23,0,0,1,1.9.55A2.6,2.6,0,0,1,704.47,71l7,23.51q.56,1.92,1.05,3.78c.32,1.24.64,2.48,1,3.7a71.57,71.57,0,0,1,1.58-7.48l6.45-23.42a2.91,2.91,0,0,1,1.07-1.41,3.09,3.09,0,0,1,1.84-.56Z"/><path d="M749.18,49.42v63.52H738.62V49.42Z"/><path d="M767.85,92.33a20.62,20.62,0,0,0,1.2,5.84,11.91,11.91,0,0,0,2.48,4.06,9.54,9.54,0,0,0,3.65,2.39,13.21,13.21,0,0,0,4.68.79,14.52,14.52,0,0,0,4.43-.6,19.11,19.11,0,0,0,3.24-1.32c.93-.48,1.74-.92,2.44-1.32a4.1,4.1,0,0,1,2-.6,2.19,2.19,0,0,1,2,1l3,3.85a18,18,0,0,1-3.93,3.44,22.52,22.52,0,0,1-4.55,2.22,24.67,24.67,0,0,1-4.83,1.18,35.93,35.93,0,0,1-4.77.34,23.42,23.42,0,0,1-8.5-1.52,19,19,0,0,1-6.84-4.49,21.16,21.16,0,0,1-4.58-7.35,28.46,28.46,0,0,1-1.66-10.15,24.22,24.22,0,0,1,1.45-8.44A20.25,20.25,0,0,1,763,74.75a19.57,19.57,0,0,1,6.62-4.64,21.84,21.84,0,0,1,8.83-1.71,21.56,21.56,0,0,1,7.65,1.32,16.9,16.9,0,0,1,6,3.87A18,18,0,0,1,796,79.83a23.37,23.37,0,0,1,1.43,8.44A6.87,6.87,0,0,1,797,91.5a2.12,2.12,0,0,1-2,.83ZM788,86a12.85,12.85,0,0,0-.57-3.87,9.56,9.56,0,0,0-1.73-3.19,8,8,0,0,0-2.93-2.15,10,10,0,0,0-4.13-.8,9.76,9.76,0,0,0-7.2,2.61,12.77,12.77,0,0,0-3.35,7.4Z"/><path d="M843.46,49.42v63.52H837a2.49,2.49,0,0,1-2.65-1.93l-.9-4.23a22.24,22.24,0,0,1-6.09,4.92,16.49,16.49,0,0,1-8,1.88,14.51,14.51,0,0,1-6.59-1.5,14.69,14.69,0,0,1-5.15-4.34,20.59,20.59,0,0,1-3.33-7,35.6,35.6,0,0,1-1.18-9.57,30,30,0,0,1,1.33-9.06,22.06,22.06,0,0,1,3.8-7.27A18,18,0,0,1,814.18,70,17.21,17.21,0,0,1,822,68.27a15.67,15.67,0,0,1,6.29,1.15,16.1,16.1,0,0,1,4.66,3.13V49.42ZM832.91,80.28A10.5,10.5,0,0,0,829,77.2a11.65,11.65,0,0,0-4.55-.89,10.19,10.19,0,0,0-4.31.89,8.76,8.76,0,0,0-3.3,2.72,13,13,0,0,0-2.09,4.61,26.75,26.75,0,0,0-.73,6.61,29.54,29.54,0,0,0,.62,6.52,13,13,0,0,0,1.78,4.36,6.8,6.8,0,0,0,2.82,2.43,9,9,0,0,0,3.72.75,10.74,10.74,0,0,0,5.6-1.37,16.8,16.8,0,0,0,4.36-3.89Z"/><path d="M892.36,70.58v3.93c0,1.26-.76,2-2.27,2.31l-3.93.73a13.29,13.29,0,0,1,.9,5,12.9,12.9,0,0,1-4.92,10.35,17,17,0,0,1-5.45,2.84,22.08,22.08,0,0,1-6.77,1,24.82,24.82,0,0,1-2.48-.12c-.8-.09-1.58-.2-2.35-.35C863.72,97.05,863,98,863,99a2,2,0,0,0,1.21,2,10.14,10.14,0,0,0,3.23.87,45.07,45.07,0,0,0,4.58.32c1.71,0,3.46.14,5.25.28a42.69,42.69,0,0,1,5.26.75,15.51,15.51,0,0,1,4.57,1.69,9,9,0,0,1,3.23,3.14,9.66,9.66,0,0,1,1.22,5.11,12,12,0,0,1-1.43,5.64,15.21,15.21,0,0,1-4.15,4.87,21.5,21.5,0,0,1-6.67,3.44,28.59,28.59,0,0,1-9,1.31,34,34,0,0,1-8.64-1,20.43,20.43,0,0,1-6.11-2.56,11,11,0,0,1-3.63-3.7,8.64,8.64,0,0,1-1.2-4.36,7.43,7.43,0,0,1,1.86-5.15,12.91,12.91,0,0,1,5.11-3.31,7.39,7.39,0,0,1-2.78-2.39,6.8,6.8,0,0,1-1-3.94,6,6,0,0,1,.37-2,8.65,8.65,0,0,1,1.06-2.07A10.69,10.69,0,0,1,857.14,96a12.07,12.07,0,0,1,2.52-1.65,13.87,13.87,0,0,1-5.24-4.79,12.84,12.84,0,0,1-1.9-7,12.92,12.92,0,0,1,4.94-10.36A16.44,16.44,0,0,1,863,69.3a23.3,23.3,0,0,1,6.95-1,23.59,23.59,0,0,1,5.3.58,18.37,18.37,0,0,1,4.53,1.69ZM881.84,114.9a2.89,2.89,0,0,0-.77-2.09,5.06,5.06,0,0,0-2.09-1.26,15.28,15.28,0,0,0-3.1-.66c-1.18-.15-2.44-.25-3.76-.33l-4.1-.19c-1.41-.06-2.79-.17-4.13-.34a10,10,0,0,0-2.84,2.31,4.68,4.68,0,0,0-1.09,3.08,4.21,4.21,0,0,0,.58,2.15,4.82,4.82,0,0,0,1.83,1.74,11,11,0,0,0,3.27,1.13,25.43,25.43,0,0,0,4.92.4,25.86,25.86,0,0,0,5.09-.44,12.42,12.42,0,0,0,3.52-1.24,5.34,5.34,0,0,0,2-1.89A4.53,4.53,0,0,0,881.84,114.9Zm-11.92-25a10.07,10.07,0,0,0,3.42-.53,6.69,6.69,0,0,0,2.41-1.48,6.08,6.08,0,0,0,1.46-2.26,8.5,8.5,0,0,0,.49-2.91,6.87,6.87,0,0,0-2-5.15c-1.29-1.27-3.24-1.9-5.83-1.9s-4.54.63-5.84,1.9a6.91,6.91,0,0,0-1.94,5.15,8.07,8.07,0,0,0,.49,2.86,6.26,6.26,0,0,0,1.45,2.29,6.63,6.63,0,0,0,2.44,1.5A10.11,10.11,0,0,0,869.92,89.94Z"/><path d="M906.38,92.33a20.62,20.62,0,0,0,1.2,5.84,11.76,11.76,0,0,0,2.48,4.06,9.54,9.54,0,0,0,3.65,2.39,13.21,13.21,0,0,0,4.68.79,14.45,14.45,0,0,0,4.42-.6,19.23,19.23,0,0,0,3.25-1.32c.93-.48,1.74-.92,2.44-1.32a4.07,4.07,0,0,1,2-.6,2.19,2.19,0,0,1,2,1l3,3.85a18,18,0,0,1-3.93,3.44,22.78,22.78,0,0,1-4.55,2.22,25,25,0,0,1-4.84,1.18,35.66,35.66,0,0,1-4.76.34,23.51,23.51,0,0,1-8.51-1.52,18.94,18.94,0,0,1-6.83-4.49,21,21,0,0,1-4.58-7.35,28.46,28.46,0,0,1-1.66-10.15,24.22,24.22,0,0,1,1.45-8.44,20.09,20.09,0,0,1,4.17-6.88,19.47,19.47,0,0,1,6.62-4.64,21.84,21.84,0,0,1,8.83-1.71,21.56,21.56,0,0,1,7.65,1.32,16.85,16.85,0,0,1,6,3.87,18.11,18.11,0,0,1,4,6.24A23.37,23.37,0,0,1,936,88.27a6.87,6.87,0,0,1-.51,3.23,2.13,2.13,0,0,1-2,.83ZM926.51,86a12.54,12.54,0,0,0-.58-3.87,9.21,9.21,0,0,0-1.73-3.19,8,8,0,0,0-2.92-2.15,10,10,0,0,0-4.13-.8,9.76,9.76,0,0,0-7.2,2.61,12.84,12.84,0,0,0-3.36,7.4Z"/><path d="M293,152.69v18.5h22.16v6.65H293v23.43h-8.23V146H319v6.66Z"/><path d="M340,161.57a20.59,20.59,0,0,1,7.79,1.41,16.23,16.23,0,0,1,5.92,4,18,18,0,0,1,3.75,6.35,27.2,27.2,0,0,1,0,16.68,17.73,17.73,0,0,1-3.75,6.34,16.21,16.21,0,0,1-5.92,4,22.33,22.33,0,0,1-15.62,0,16.37,16.37,0,0,1-5.94-4,17.81,17.81,0,0,1-3.79-6.34,26.81,26.81,0,0,1,0-16.68,18.12,18.12,0,0,1,3.79-6.35,16.39,16.39,0,0,1,5.94-4A20.69,20.69,0,0,1,340,161.57ZM340,196q5.53,0,8.27-3.73t2.73-10.5q0-6.78-2.73-10.52T340,167.46c-3.75,0-6.53,1.25-8.37,3.75s-2.75,6-2.75,10.52.92,8,2.75,10.5S336.25,196,340,196Z"/><path d="M399.62,162.19v39.08h-4.5a1.92,1.92,0,0,1-2-1.5l-.54-3.92a29,29,0,0,1-2.65,2.46,16.54,16.54,0,0,1-3,1.9,16,16,0,0,1-3.35,1.23,15.43,15.43,0,0,1-3.81.45,13.89,13.89,0,0,1-5.67-1.08,11.32,11.32,0,0,1-4.1-3,13.05,13.05,0,0,1-2.5-4.68,20.13,20.13,0,0,1-.85-6V162.19h7.54v24.88a9.9,9.9,0,0,0,1.93,6.52c1.28,1.56,3.24,2.33,5.88,2.33a11.07,11.07,0,0,0,5.39-1.36,18.43,18.43,0,0,0,4.69-3.75V162.19Z"/><path d="M417.16,167.61a25.5,25.5,0,0,1,2.66-2.46,16.44,16.44,0,0,1,2.94-1.91,16.27,16.27,0,0,1,3.35-1.23,16.07,16.07,0,0,1,3.82-.44,13.94,13.94,0,0,1,5.68,1.08,11.17,11.17,0,0,1,4.09,3,12.85,12.85,0,0,1,2.5,4.67,20.18,20.18,0,0,1,.85,6v24.89h-7.54V176.38a10,10,0,0,0-1.92-6.52q-1.93-2.33-5.89-2.33a11.17,11.17,0,0,0-5.4,1.37,18.17,18.17,0,0,0-4.68,3.71v28.66h-7.5V162.19h4.5a1.84,1.84,0,0,1,2,1.5Z"/><path d="M485.9,144.49v56.78h-4.54a1.83,1.83,0,0,1-2-1.5l-.65-4.5a20.87,20.87,0,0,1-5.67,4.75,14.71,14.71,0,0,1-7.33,1.79,13.81,13.81,0,0,1-6.06-1.31,12.72,12.72,0,0,1-4.64-3.83,18.23,18.23,0,0,1-3-6.25,32.21,32.21,0,0,1-1-8.58,27.14,27.14,0,0,1,1.16-8.07,19.36,19.36,0,0,1,3.34-6.47,15.3,15.3,0,0,1,12.35-5.84,13.16,13.16,0,0,1,10.46,4.42V144.49Zm-7.54,27.16a10.61,10.61,0,0,0-4-3.39,11.54,11.54,0,0,0-4.79-1,9.47,9.47,0,0,0-8,3.71q-2.82,3.72-2.83,10.83a27.2,27.2,0,0,0,.64,6.37,12.06,12.06,0,0,0,1.85,4.31,7.35,7.35,0,0,0,3,2.46,9.65,9.65,0,0,0,4,.79,10.63,10.63,0,0,0,5.65-1.46,17.1,17.1,0,0,0,4.46-4.12Z"/><path d="M495.4,167.65a21.4,21.4,0,0,1,15.51-6.19,15,15,0,0,1,5.92,1.09,12.15,12.15,0,0,1,4.35,3.06,13,13,0,0,1,2.67,4.69,19.28,19.28,0,0,1,.9,6v24.93h-3.34a3.09,3.09,0,0,1-1.69-.37,2.45,2.45,0,0,1-.93-1.36l-.81-3.43a31.4,31.4,0,0,1-3,2.45,18.93,18.93,0,0,1-3.06,1.81,15.61,15.61,0,0,1-3.4,1.13,19,19,0,0,1-4,.39,14.48,14.48,0,0,1-4.33-.64,9.75,9.75,0,0,1-3.52-1.94,9.05,9.05,0,0,1-2.36-3.27,11.21,11.21,0,0,1-.87-4.58,8.68,8.68,0,0,1,1.25-4.44,11.17,11.17,0,0,1,4.08-3.83,26.23,26.23,0,0,1,7.38-2.77,55,55,0,0,1,11.22-1.23v-2.85q0-4.43-1.89-6.61a6.87,6.87,0,0,0-5.54-2.2,12,12,0,0,0-4.13.62,15.92,15.92,0,0,0-2.89,1.36c-.8.5-1.51,1-2.11,1.37a3.29,3.29,0,0,1-1.87.62,2.12,2.12,0,0,1-1.33-.43,3.43,3.43,0,0,1-.9-1Zm22,16.27a57.2,57.2,0,0,0-7.77.71,21.68,21.68,0,0,0-5.2,1.48,7,7,0,0,0-2.88,2.18,4.7,4.7,0,0,0-.88,2.79,6,6,0,0,0,.48,2.51,4.69,4.69,0,0,0,1.3,1.74,5.43,5.43,0,0,0,2,1,9.26,9.26,0,0,0,2.42.31,13.62,13.62,0,0,0,3.17-.35,12.74,12.74,0,0,0,2.72-1,13.45,13.45,0,0,0,2.42-1.56,22.16,22.16,0,0,0,2.27-2.12Z"/><path d="M571.38,201.27h-7.54v-33H544.22v22.89a4.69,4.69,0,0,0,1.14,3.45,3.93,3.93,0,0,0,2.9,1.13,5.31,5.31,0,0,0,1.79-.27,7.83,7.83,0,0,0,1.29-.59c.36-.22.66-.42.92-.6A1.26,1.26,0,0,1,553,194a1,1,0,0,1,.6.17,2.13,2.13,0,0,1,.44.56l2.23,3.62a13,13,0,0,1-4.38,2.61,15.2,15.2,0,0,1-5.27.93q-4.74,0-7.29-2.66c-1.71-1.77-2.56-4.29-2.56-7.58V168.26h-4.54a1.47,1.47,0,0,1-1.54-1.61v-3l6.39-.88,1.65-11.66a1.75,1.75,0,0,1,.6-1,1.73,1.73,0,0,1,1.13-.37h3.81V162.8h27.16Zm1.69-51.39a4.82,4.82,0,0,1-.42,2,5.44,5.44,0,0,1-1.13,1.65,5.21,5.21,0,0,1-1.68,1.12,5.1,5.1,0,0,1-2,.4,4.84,4.84,0,0,1-2-.4,5.27,5.27,0,0,1-2.75-2.77,5,5,0,0,1-.41-2,5.2,5.2,0,0,1,.41-2,5.35,5.35,0,0,1,1.11-1.68,5.4,5.4,0,0,1,1.64-1.11,4.85,4.85,0,0,1,2-.41,5.11,5.11,0,0,1,2,.41,5.35,5.35,0,0,1,1.68,1.11,5.58,5.58,0,0,1,1.13,1.68A5,5,0,0,1,573.07,149.88Z"/><path d="M598.92,161.57a20.59,20.59,0,0,1,7.79,1.41,16.27,16.27,0,0,1,5.93,4,18.34,18.34,0,0,1,3.75,6.35,27.2,27.2,0,0,1,0,16.68,18,18,0,0,1-3.75,6.34,16.25,16.25,0,0,1-5.93,4,22.33,22.33,0,0,1-15.62,0,16.37,16.37,0,0,1-5.94-4,18,18,0,0,1-3.79-6.34,26.81,26.81,0,0,1,0-16.68,18.27,18.27,0,0,1,3.79-6.35,16.39,16.39,0,0,1,5.94-4A20.69,20.69,0,0,1,598.92,161.57Zm0,34.39q5.55,0,8.27-3.73t2.73-10.5q0-6.78-2.73-10.52t-8.27-3.75q-5.61,0-8.36,3.75t-2.76,10.52q0,6.77,2.76,10.5T598.92,196Z"/><path d="M633.08,167.61a26.46,26.46,0,0,1,2.65-2.46,16.89,16.89,0,0,1,2.95-1.91A16.4,16.4,0,0,1,642,162a16.22,16.22,0,0,1,3.83-.44,13.94,13.94,0,0,1,5.68,1.08,11.26,11.26,0,0,1,4.09,3,13,13,0,0,1,2.5,4.67,20.18,20.18,0,0,1,.85,6v24.89h-7.54V176.38a10,10,0,0,0-1.92-6.52q-1.93-2.33-5.89-2.33a11.21,11.21,0,0,0-5.41,1.37,18.29,18.29,0,0,0-4.67,3.71v28.66H626V162.19h4.5a1.83,1.83,0,0,1,2,1.5Z"/></svg>
