<svg xmlns="http://www.w3.org/2000/svg" viewBox="0 0 935.45 243.64"><title>Open Knowledge International</title><path class="a" d="M306.63,104.68A20.14,20.14,0,0,0,311,97.87a24.27,24.27,0,0,0,0-17.07A20.48,20.48,0,0,0,306.63,74a20.09,20.09,0,0,0-6.8-4.52,24.51,24.51,0,0,0-17.63,0A20.5,20.5,0,0,0,275.38,74a19.92,19.92,0,0,0-4.39,6.8,24.36,24.36,0,0,0,0,17.1,19.87,19.87,0,0,0,4.39,6.81,20.5,20.5,0,0,0,6.82,4.51,24.51,24.51,0,0,0,17.63,0A20.21,20.21,0,0,0,306.63,104.68ZM291,103.49a13.68,13.68,0,0,1-5.3-1,10.81,10.81,0,0,1-4-2.8,12.47,12.47,0,0,1-2.51-4.45,20.75,20.75,0,0,1,0-11.89,12.65,12.65,0,0,1,2.51-4.47,10.83,10.83,0,0,1,4-2.81,15,15,0,0,1,10.6,0,10.92,10.92,0,0,1,4,2.81,12.65,12.65,0,0,1,2.51,4.47,20.75,20.75,0,0,1,0,11.89,12.47,12.47,0,0,1-2.51,4.45,10.9,10.9,0,0,1-4,2.8A13.65,13.65,0,0,1,291,103.49Z"/><path class="a" d="M354.84,92a11.6,11.6,0,0,0,3.07-4.44,15.31,15.31,0,0,0,1-5.68,14.8,14.8,0,0,0-1-5.43,11.18,11.18,0,0,0-3-4.3,14.28,14.28,0,0,0-5.18-2.83,24.37,24.37,0,0,0-7.47-1H328.1v42.07h8.7V95.89h5.51a23.43,23.43,0,0,0,7.34-1A14.13,14.13,0,0,0,354.84,92Zm-12.53-2.76H336.8V74.9h5.51a11.05,11.05,0,0,1,3.51.49,6.53,6.53,0,0,1,2.45,1.41,5.68,5.68,0,0,1,1.45,2.2,8.13,8.13,0,0,1,.48,2.86,7.42,7.42,0,0,1-1.9,5.39C347,88.57,345,89.22,342.31,89.22Z"/><polygon class="a" points="400.43 103.55 382.39 103.55 382.39 92.5 396.43 92.5 396.43 85.92 382.39 85.92 382.39 75.1 400.43 75.1 400.43 68.28 373.63 68.28 373.63 110.36 400.43 110.36 400.43 103.55"/><path class="a" d="M423.6,82.23l21,26.66a4.09,4.09,0,0,0,1.36,1.14,4,4,0,0,0,1.71.33h4.5V68.29h-7.69V92.36c0,.61,0,1.27.06,2s.1,1.41.17,2.14L423.57,69.65a5.73,5.73,0,0,0-.64-.7,2.76,2.76,0,0,0-.61-.42,2.25,2.25,0,0,0-.71-.2,8.46,8.46,0,0,0-.94,0h-4.58v42.07h7.68V86c0-.56,0-1.16,0-1.81S423.66,82.91,423.6,82.23Z"/><path class="a" d="M521.91,110.36h7.74L515.91,90.73A8.58,8.58,0,0,0,514.34,89,6.9,6.9,0,0,0,512.51,88a8.61,8.61,0,0,0,2.7-2.41l13.4-17.25h-7.54a5.57,5.57,0,0,0-2.21.39,4.19,4.19,0,0,0-1.65,1.4L506.57,84.32a3.56,3.56,0,0,1-3.1,1.34h-1.72V68.29h-8.7v42.07h8.7V92.12h2.44a5.26,5.26,0,0,1,2.12.34,3.11,3.11,0,0,1,1.3,1.11l10.82,15.14a4.59,4.59,0,0,0,.55.71,2.63,2.63,0,0,0,.7.51,4.31,4.31,0,0,0,.94.32A6.08,6.08,0,0,0,521.91,110.36Z"/><path class="a" d="M550.21,86c0-.56,0-1.16,0-1.81s-.07-1.31-.13-2l21,26.66a4.11,4.11,0,0,0,1.37,1.14,4,4,0,0,0,1.71.33h4.49V68.29h-7.68V92.36c0,.61,0,1.27.06,2s.09,1.41.17,2.14L550,69.65a6.67,6.67,0,0,0-.64-.7,3,3,0,0,0-.61-.42,2.25,2.25,0,0,0-.71-.2,8.46,8.46,0,0,0-.94,0h-4.58v42.07h7.68Z"/><path class="a" d="M635.66,97.87a24.27,24.27,0,0,0,0-17.07,19.83,19.83,0,0,0-11.18-11.34,24.51,24.51,0,0,0-17.63,0A20.5,20.5,0,0,0,600,74a19.92,19.92,0,0,0-4.39,6.8,24.36,24.36,0,0,0,0,17.1,19.87,19.87,0,0,0,4.39,6.81,20.5,20.5,0,0,0,6.82,4.51,24.51,24.51,0,0,0,17.63,0,20.21,20.21,0,0,0,6.8-4.51A19.84,19.84,0,0,0,635.66,97.87Zm-8.22-2.6a12.47,12.47,0,0,1-2.51,4.45,10.9,10.9,0,0,1-4,2.8,15,15,0,0,1-10.6,0,10.81,10.81,0,0,1-4-2.8,12.47,12.47,0,0,1-2.51-4.45,20.75,20.75,0,0,1,0-11.89,12.65,12.65,0,0,1,2.51-4.47,10.83,10.83,0,0,1,4-2.81,15,15,0,0,1,10.6,0,10.92,10.92,0,0,1,4,2.81,12.65,12.65,0,0,1,2.51,4.47,20.75,20.75,0,0,1,0,11.89Z"/><path class="a" d="M695.33,110.36l13-42.07h-6.85a3,3,0,0,0-1.88.58,2.5,2.5,0,0,0-1,1.33l-6.52,23.72c-.16.62-.31,1.3-.47,2s-.3,1.51-.46,2.32c-.15-.81-.33-1.58-.54-2.32s-.41-1.41-.62-2L682.48,70.2a3.21,3.21,0,0,0-1.06-1.38,3,3,0,0,0-1.84-.53H677a2.92,2.92,0,0,0-1.87.59,2.78,2.78,0,0,0-1,1.32l-7.6,23.72c-.23.66-.44,1.37-.64,2.13s-.38,1.57-.55,2.42q-.23-1.27-.48-2.4c-.16-.76-.32-1.47-.48-2.15L657.89,70.2a2.41,2.41,0,0,0-1-1.39,3.29,3.29,0,0,0-1.9-.52h-7.31l13,42.07h7.89l8.7-27.52c.14-.38.27-.81.39-1.27s.26-.95.39-1.45c.12.5.24,1,.37,1.45a9.45,9.45,0,0,0,.42,1.27l8.61,27.52Z"/><polygon class="a" points="747.24 103.29 730.97 103.29 730.97 68.28 722.27 68.28 722.27 110.36 747.24 110.36 747.24 103.29"/><polygon class="a" points="788.5 103.55 770.47 103.55 770.47 92.5 784.5 92.5 784.5 85.92 770.47 85.92 770.47 75.1 788.5 75.1 788.5 68.28 761.71 68.28 761.71 110.36 788.5 110.36 788.5 103.55"/><path class="a" d="M836,74.22a19.89,19.89,0,0,0-6.8-4.37,23.94,23.94,0,0,0-8.81-1.56H804.16v42.07h16.19a23.94,23.94,0,0,0,8.81-1.56,20.14,20.14,0,0,0,6.8-4.35,19.22,19.22,0,0,0,4.38-6.66,23.86,23.86,0,0,0,0-16.92A19.27,19.27,0,0,0,836,74.22Zm-3.87,21.06a12.64,12.64,0,0,1-2.49,4.48,10.79,10.79,0,0,1-4,2.82,13.63,13.63,0,0,1-5.29,1h-7.43V75.1h7.43a13.45,13.45,0,0,1,5.29,1,10.89,10.89,0,0,1,4,2.81,12.59,12.59,0,0,1,2.49,4.47,20.82,20.82,0,0,1,0,11.91Z"/><path class="a" d="M867.37,79a11.39,11.39,0,0,1,4-2.88,13.55,13.55,0,0,1,5.31-1,21.26,21.26,0,0,1,3.07.2,15.44,15.44,0,0,1,2.47.58,15.62,15.62,0,0,1,2.13.89c.67.33,1.35.72,2.05,1.14a2.76,2.76,0,0,0,2,.47,2.38,2.38,0,0,0,1.5-1.13l2.53-3.89a19.91,19.91,0,0,0-6.41-4,23.8,23.8,0,0,0-4.18-1.16,26.69,26.69,0,0,0-4.87-.42,24.69,24.69,0,0,0-9.12,1.6A20.24,20.24,0,0,0,861,73.85a19.47,19.47,0,0,0-4.42,6.79A23.58,23.58,0,0,0,855,89.31a22.45,22.45,0,0,0,1.62,8.61,20,20,0,0,0,4.61,6.82,21.21,21.21,0,0,0,7.2,4.48,26.13,26.13,0,0,0,9.39,1.61,26.54,26.54,0,0,0,7.7-1.09,22.34,22.34,0,0,0,6.86-3.44V88.93H877.94v4.85a1.5,1.5,0,0,0,.48,1.14,1.85,1.85,0,0,0,1.32.45h4.75v7.08a18.79,18.79,0,0,1-3.2,1.14,15.08,15.08,0,0,1-3.73.42,15.27,15.27,0,0,1-5.58-1,12,12,0,0,1-4.31-2.87,13,13,0,0,1-2.78-4.63,18.24,18.24,0,0,1-1-6.22,17.79,17.79,0,0,1,.9-5.83A12.8,12.8,0,0,1,867.37,79Z"/><polygon class="a" points="935.45 75.1 935.45 68.28 908.65 68.28 908.65 110.36 935.45 110.36 935.45 103.55 917.41 103.55 917.41 92.5 931.44 92.5 931.44 85.92 917.41 85.92 917.41 75.1 935.45 75.1"/><rect class="a" x="273.27" y="139.17" width="5.33" height="39.41"/><path class="a" d="M325.13,167.08c0,.42,0,.85,0,1.3s.06.92.11,1.39l-22.82-29.7a3,3,0,0,0-.79-.73,2.4,2.4,0,0,0-1.06-.17h-2.75v39.4h4.68V150.5c0-.37,0-.78,0-1.21s0-.89-.08-1.35l22.8,29.67a2.53,2.53,0,0,0,.83.74,2.28,2.28,0,0,0,1.06.22h2.7v-39.4h-4.68Z"/><polygon class="a" points="344.11 143.65 356.9 143.65 356.9 178.57 362.23 178.57 362.23 143.65 374.96 143.65 374.96 139.16 344.11 139.16 344.11 143.65"/><polygon class="a" points="389.26 178.57 413.55 178.57 413.55 174.23 394.63 174.23 394.63 160.78 409.94 160.78 409.94 156.6 394.63 156.6 394.63 143.51 413.55 143.51 413.55 139.16 389.26 139.16 389.26 178.57"/><path class="a" d="M446.33,161.25a15.1,15.1,0,0,0,4.08-1.54,11.45,11.45,0,0,0,3-2.46,10.29,10.29,0,0,0,1.91-3.26,11.34,11.34,0,0,0,.66-3.91,11.49,11.49,0,0,0-.85-4.52,8.67,8.67,0,0,0-2.63-3.45,12.31,12.31,0,0,0-4.49-2.19,24.55,24.55,0,0,0-6.46-.75H430.46v39.4h5.31V162.13h4a3.58,3.58,0,0,1,1.65.29,3,3,0,0,1,1,1l10.23,14.07a2.3,2.3,0,0,0,2.14,1.13h4.73l-11.49-15.65A5.66,5.66,0,0,0,446.33,161.25Zm-5-3h-5.58V143.37h5.83q4.59,0,6.91,1.79a6.28,6.28,0,0,1,2.33,5.31,8.09,8.09,0,0,1-.61,3.16,6.59,6.59,0,0,1-1.8,2.46,8.44,8.44,0,0,1-3,1.6A13.75,13.75,0,0,1,441.35,158.25Z"/><path class="a" d="M501.3,167.08c0,.42,0,.85,0,1.3s.05.92.1,1.39l-22.82-29.7a2.8,2.8,0,0,0-.78-.73,2.43,2.43,0,0,0-1.06-.17H474v39.4h4.67V150.5c0-.37,0-.78,0-1.21s0-.89-.08-1.35l22.8,29.67a2.56,2.56,0,0,0,.84.74,2.25,2.25,0,0,0,1.06.22H506v-39.4H501.3Z"/><path class="a" d="M535.54,139.17l-15.76,39.4h4.12a1.8,1.8,0,0,0,1.16-.38,2.2,2.2,0,0,0,.66-.88l3.68-9.52h17.68l3.69,9.52a2.22,2.22,0,0,0,.66.9,1.76,1.76,0,0,0,1.15.36h4.13L541,139.17Zm-4.65,24.77,6.19-16c.18-.48.37-1,.56-1.67s.39-1.32.59-2.07a31.74,31.74,0,0,0,1.18,3.71l6.19,16Z"/><polygon class="a" points="562.73 143.65 575.52 143.65 575.52 178.57 580.86 178.57 580.86 143.65 593.59 143.65 593.59 139.16 562.73 139.16 562.73 143.65"/><rect class="a" x="608.88" y="139.17" width="5.33" height="39.41"/><path class="a" d="M664.7,144.38a17.69,17.69,0,0,0-6.14-4.17,21.85,21.85,0,0,0-15.86,0,17.74,17.74,0,0,0-6.13,4.17,18.5,18.5,0,0,0-4,6.38,24.28,24.28,0,0,0,0,16.25,18.41,18.41,0,0,0,4,6.36,17.67,17.67,0,0,0,6.13,4.14,22.12,22.12,0,0,0,15.86,0,17.62,17.62,0,0,0,6.14-4.14,18.41,18.41,0,0,0,4-6.36,24.28,24.28,0,0,0,0-16.25A18.5,18.5,0,0,0,664.7,144.38Zm-1.1,21a13.82,13.82,0,0,1-2.8,4.86,12.11,12.11,0,0,1-4.4,3.06,16.21,16.21,0,0,1-11.53,0,12.24,12.24,0,0,1-4.41-3.06,13.71,13.71,0,0,1-2.82-4.86,21.9,21.9,0,0,1,0-13,13.67,13.67,0,0,1,2.82-4.89,12.24,12.24,0,0,1,4.41-3.06,15.93,15.93,0,0,1,11.53,0,12.11,12.11,0,0,1,4.4,3.06,13.78,13.78,0,0,1,2.8,4.89,21.9,21.9,0,0,1,0,13Z"/><path class="a" d="M713.32,167.08c0,.42,0,.85,0,1.3s0,.92.11,1.39l-22.83-29.7a2.8,2.8,0,0,0-.78-.73,2.4,2.4,0,0,0-1.06-.17H686v39.4h4.68V150.5c0-.37,0-.78,0-1.21s-.05-.89-.08-1.35l22.79,29.67a2.66,2.66,0,0,0,.84.74,2.28,2.28,0,0,0,1.06.22H718v-39.4h-4.68Z"/><path class="a" d="M747.56,139.17l-15.76,39.4h4.13a1.79,1.79,0,0,0,1.15-.38,2.2,2.2,0,0,0,.66-.88l3.69-9.52h17.68l3.68,9.52a2.22,2.22,0,0,0,.66.9,1.79,1.79,0,0,0,1.16.36h4.12L753,139.17Zm-4.65,24.77,6.19-16c.18-.48.37-1,.56-1.67s.39-1.32.59-2.07a29.79,29.79,0,0,0,1.19,3.71l6.18,16Z"/><polygon class="a" points="787.74 139.16 782.4 139.16 782.4 178.57 804.78 178.57 804.78 174.09 787.74 174.09 787.74 139.16"/><rect class="a" x="165.76" y="30.99" width="64.66" height="7.81" transform="translate(51.6 172.72) rotate(-53.24)"/><rect class="a" x="157.97" y="35.47" width="31.15" height="7.81" transform="translate(60.94 177.17) rotate(-63.53)"/><rect class="a" x="135.66" y="20.7" width="48.97" height="7.81" transform="translate(91.88 171.55) rotate(-73.82)"/><rect class="a" x="125.36" y="25.98" width="31.14" height="7.81" transform="translate(96.69 166.99) rotate(-84.09)"/><rect class="a" x="119.82" y="10.34" width="7.81" height="34.89" transform="translate(-1.76 9.54) rotate(-4.38)"/><rect class="a" x="104.07" y="24.04" width="7.81" height="23.88" transform="translate(-5.59 28.51) rotate(-14.67)"/><rect class="a" x="90.29" y="37.1" width="7.81" height="16.01" transform="translate(-10.24 43.97) rotate(-24.96)"/><rect class="a" x="79.51" y="53.8" width="7.81" height="6.28" transform="translate(-17.57 58.53) rotate(-35.22)"/><rect class="a" x="61.29" y="46.91" width="7.81" height="25.67" transform="translate(-23.11 64.41) rotate(-45.52)"/><polygon class="a" points="67.51 76.54 39.16 57.1 34.77 63.56 63.12 83 67.51 76.54"/><rect class="a" x="45.55" y="78.52" width="7.81" height="19.52" transform="translate(-51.29 97.7) rotate(-66.08)"/><rect class="a" x="23.45" y="72.14" width="7.81" height="54.4" transform="translate(-75.63 102.53) rotate(-76.38)"/><rect class="a" x="28.05" y="98.94" width="7.81" height="39.51" transform="translate(-88.4 143.69) rotate(-86.66)"/><rect class="a" x="13.75" y="132.53" width="38.51" height="7.81" transform="translate(-16.27 5) rotate(-6.95)"/><rect class="a" x="46.35" y="145.47" width="8.95" height="7.81" transform="translate(-41.98 21.77) rotate(-17.24)"/><rect class="a" x="29.96" y="164.82" width="32.4" height="7.81" transform="translate(-72.75 40.43) rotate(-27.53)"/><rect class="a" x="36.96" y="180.05" width="34.93" height="7.81" transform="translate(-101.35 71.98) rotate(-37.81)"/><rect class="a" x="49.54" y="192.46" width="34.05" height="7.81" transform="translate(-124.04 114.75) rotate(-48.09)"/><rect class="a" x="77.38" y="195.02" width="15.72" height="7.81" transform="matrix(0.52, -0.85, 0.85, 0.52, -128.85, 167.24)"/><rect class="a" x="81.26" y="208.95" width="30.6" height="7.81" transform="translate(-136.84 225.33) rotate(-68.66)"/><rect class="a" x="99.09" y="212.46" width="28.08" height="7.81" transform="translate(-120.9 285.95) rotate(-78.96)"/><rect class="a" x="120.11" y="209.92" width="19.53" height="7.81" transform="translate(-85.68 340.82) rotate(-89.23)"/><rect class="a" x="143.45" y="202.72" width="7.81" height="37.77" transform="translate(-34.65 27.45) rotate(-9.53)"/><rect class="a" x="157.99" y="198.7" width="7.81" height="22.82" transform="translate(-61.62 67.29) rotate(-19.81)"/><polygon class="a" points="167.58 195.32 195.91 243.64 202.67 239.72 174.34 191.4 167.58 195.32"/><polygon class="a" points="179.79 187.84 184.11 192.27 189.75 186.87 185.44 182.44 179.79 187.84"/><rect class="a" x="198.44" y="170.36" width="7.81" height="25.18" transform="translate(-67.41 223.52) rotate(-50.67)"/><rect class="a" x="206.67" y="157.32" width="7.81" height="22.75" transform="translate(-39.13 270.9) rotate(-60.96)"/><rect class="a" x="207.32" y="146.69" width="7.81" height="10.15" transform="translate(-0.39 302.98) rotate(-71.25)"/><rect class="a" x="220.93" y="123.3" width="7.81" height="30.43" transform="translate(54.7 340.49) rotate(-81.53)"/><rect class="a" x="210.62" y="117.82" width="19.33" height="7.81" transform="translate(-3.72 7) rotate(-1.8)"/><rect class="a" x="208.63" y="101.41" width="24.43" height="7.81" transform="matrix(0.98, -0.21, 0.21, 0.98, -17.17, 48.65)"/><rect class="a" x="204.05" y="87.17" width="16.66" height="7.81" transform="translate(-18.68 87.76) rotate(-22.39)"/><rect class="a" x="194.26" y="64.61" width="48.45" height="7.81" transform="translate(-2.42 128.79) rotate(-32.67)"/><rect class="a" x="188.23" y="63.55" width="8.42" height="7.81" transform="translate(5.63 149.23) rotate(-42.96)"/><polygon class="b" points="160.51 88.29 161.96 86.56 158.96 84.05 156.91 86.48 159.91 88.99 160.51 88.29"/><rect class="b" x="144.39" y="84.06" width="11.88" height="3.9" transform="translate(6.31 182.21) rotate(-63.52)"/><rect class="b" x="140.41" y="78.83" width="6.86" height="3.9" transform="translate(26.18 196.42) rotate(-73.82)"/><rect class="b" x="129.66" y="79.73" width="11.81" height="3.91" transform="translate(40.4 208.14) rotate(-84.11)"/><rect class="b" x="125.85" y="75.67" width="3.91" height="10.9" transform="translate(-5.85 10.04) rotate(-4.4)"/><rect class="b" x="118.52" y="76.92" width="3.91" height="13.81" transform="translate(-17.3 33.23) rotate(-14.66)"/><rect class="b" x="111.89" y="79.37" width="3.91" height="16.07" transform="translate(-26.24 56.18) rotate(-24.95)"/><polygon class="b" points="116.35 100.42 104.44 83.39 101.25 85.65 113.16 102.67 116.35 100.42"/><rect class="b" x="98.99" y="88.2" width="3.91" height="13.43" transform="translate(-37.51 100.43) rotate(-45.52)"/><rect class="b" x="93.58" y="94.38" width="3.9" height="11.96" transform="translate(-41.17 122.98) rotate(-55.81)"/><rect class="b" x="91.41" y="100.1" width="3.91" height="15.42" transform="translate(-43.03 149.48) rotate(-66.1)"/><rect class="b" x="84.22" y="110.88" width="3.91" height="5.54" transform="translate(-44.59 170.62) rotate(-76.37)"/><rect class="b" x="85.1" y="117.1" width="3.9" height="9.76" transform="translate(-39.75 201.83) rotate(-86.68)"/><rect class="b" x="82.42" y="127.91" width="10.07" height="3.91" transform="translate(-15.09 11.55) rotate(-6.96)"/><polygon class="b" points="102.66 131.4 83.72 137.21 84.88 140.93 103.81 135.13 102.66 131.4"/><rect class="b" x="86.98" y="142.54" width="11.7" height="3.91" transform="translate(-56.28 59.28) rotate(-27.53)"/><rect class="b" x="91.22" y="149.24" width="11.08" height="3.91" transform="translate(-72.37 91.05) rotate(-37.81)"/><rect class="b" x="96.46" y="154.81" width="11.45" height="3.9" transform="translate(-82.74 128.13) rotate(-48.1)"/><rect class="b" x="101.58" y="157.5" width="16.05" height="3.91" transform="translate(-83.64 169.21) rotate(-58.38)"/><rect class="b" x="109.42" y="162.63" width="12.09" height="3.91" transform="translate(-79.82 212.33) rotate(-68.69)"/><rect class="b" x="116.37" y="164.24" width="13.19" height="3.91" transform="translate(-63.73 255) rotate(-78.94)"/><rect class="b" x="122.84" y="163.92" width="15.4" height="3.91" transform="translate(-37.03 294.21) rotate(-89.24)"/><rect class="b" x="136.42" y="162.88" width="3.9" height="10.09" transform="translate(-25.86 25.19) rotate(-9.52)"/><rect class="b" x="143.24" y="156.28" width="3.91" height="14.84" transform="translate(-46.94 59) rotate(-19.84)"/><rect class="b" x="152.8" y="163.53" width="3.91" height="3.69" transform="translate(-62.04 99.81) rotate(-30.07)"/><polygon class="b" points="147.41 146.82 161.37 163.17 164.34 160.64 150.39 144.29 147.41 146.82"/><rect class="b" x="161.86" y="144.65" width="3.9" height="13.45" transform="translate(-57.1 182.13) rotate(-50.66)"/><rect class="b" x="165.81" y="137.85" width="3.91" height="14.17" transform="translate(-40.4 221.2) rotate(-60.95)"/><polygon class="b" points="159.45 136.19 176.89 142.19 178.15 138.49 160.71 132.49 159.45 136.19"/><rect class="b" x="171.73" y="124.95" width="3.91" height="11.93" transform="translate(18.54 283.36) rotate(-81.5)"/><rect class="b" x="164.92" y="121.32" width="15.18" height="3.9" transform="translate(-3.78 5.47) rotate(-1.8)"/><rect class="b" x="165.37" y="113.8" width="13.83" height="3.91" transform="translate(-20.42 38.64) rotate(-12.09)"/><rect class="b" x="161.22" y="106.97" width="15.82" height="3.9" transform="translate(-28.74 72.61) rotate(-22.38)"/><rect class="b" x="166.05" y="98.02" width="6.88" height="3.91" transform="translate(-27.15 107.3) rotate(-32.67)"/><rect class="b" x="150.92" y="95.54" width="18.56" height="3.91" transform="translate(-23.52 135.1) rotate(-42.89)"/></svg>
