<svg width="10" height="9" viewBox="0 0 10 9" fill="none" xmlns="http://www.w3.org/2000/svg">
<path fill-rule="evenodd" clip-rule="evenodd" d="M0 4.08333C0 3.96302 0.037625 3.84764 0.104598 3.76256C0.171571 3.67749 0.262406 3.62969 0.35712 3.62969H8.78015L6.53244 0.77539C6.46538 0.690209 6.42771 0.574678 6.42771 0.454213C6.42771 0.333748 6.46538 0.218217 6.53244 0.133036C6.5995 0.0478543 6.69045 2.83825e-09 6.78528 0C6.88012 -2.83825e-09 6.97106 0.0478544 7.03812 0.133036L9.89508 3.76216C9.92834 3.8043 9.95473 3.85436 9.97273 3.90947C9.99073 3.96458 10 4.02366 10 4.08333C10 4.143 9.99073 4.20209 9.97273 4.2572C9.95473 4.31231 9.92834 4.36237 9.89508 4.40451L7.03812 8.03363C6.97106 8.11881 6.88012 8.16667 6.78528 8.16667C6.69045 8.16667 6.5995 8.11881 6.53244 8.03363C6.46538 7.94845 6.42771 7.83292 6.42771 7.71245C6.42771 7.59199 6.46538 7.47646 6.53244 7.39128L8.78015 4.53697H0.35712C0.262406 4.53697 0.171571 4.48918 0.104598 4.40411C0.037625 4.31903 0 4.20365 0 4.08333Z" fill="black"/>
</svg>
