<?xml version="1.0" encoding="UTF-8" standalone="no"?>
<!-- Created with Inkscape (http://www.inkscape.org/) --><svg height="256" id="svg1022" inkscape:output_extension="org.inkscape.output.svg.inkscape" inkscape:version="0.46" sodipodi:docname="Flag_of_Grenada.svg" sodipodi:version="0.32" version="1.0" width="256" xmlns="http://www.w3.org/2000/svg" xmlns:cc="http://creativecommons.org/ns#" xmlns:dc="http://purl.org/dc/elements/1.1/" xmlns:inkscape="http://www.inkscape.org/namespaces/inkscape" xmlns:rdf="http://www.w3.org/1999/02/22-rdf-syntax-ns#" xmlns:sodipodi="http://sodipodi.sourceforge.net/DTD/sodipodi-0.dtd" xmlns:svg="http://www.w3.org/2000/svg" xmlns:xlink="http://www.w3.org/1999/xlink">
  <metadata>
    <rdf:RDF xmlns:cc="http://web.resource.org/cc/" xmlns:dc="http://purl.org/dc/elements/1.1/" xmlns:rdf="http://www.w3.org/1999/02/22-rdf-syntax-ns#">
      <cc:Work rdf:about="">
        <dc:title></dc:title>
        <dc:description></dc:description>
        <dc:subject>
          <rdf:Bag>
            <rdf:li>unsorted</rdf:li>
          </rdf:Bag>
        </dc:subject>
        <dc:publisher>
          <cc:Agent rdf:about="http://www.openclipart.org/">
            <dc:title>Open Clip Art Library, Source: Wikimedia Commons</dc:title>
          </cc:Agent>
        </dc:publisher>
        <dc:creator>
          <cc:Agent>
            <dc:title></dc:title>
          </cc:Agent>
        </dc:creator>
        <dc:rights>
          <cc:Agent>
            <dc:title></dc:title>
          </cc:Agent>
        </dc:rights>
        <dc:date></dc:date>
        <dc:format>image/svg+xml</dc:format>
        <dc:type rdf:resource="http://purl.org/dc/dcmitype/StillImage"/>
        <cc:license rdf:resource="http://web.resource.org/cc/PublicDomain"/>
        <dc:language>en</dc:language>
      </cc:Work>
      <cc:License rdf:about="http://web.resource.org/cc/PublicDomain">
        <cc:permits rdf:resource="http://web.resource.org/cc/Reproduction"/>
        <cc:permits rdf:resource="http://web.resource.org/cc/Distribution"/>
        <cc:permits rdf:resource="http://web.resource.org/cc/DerivativeWorks"/>
      </cc:License>
    </rdf:RDF>
  </metadata>
  <sodipodi:namedview bordercolor="#666666" borderopacity="1.0" gridtolerance="10.0" guidetolerance="10.0" id="base" inkscape:current-layer="svg1022" inkscape:cx="250" inkscape:cy="150" inkscape:pageopacity="0.0" inkscape:pageshadow="2" inkscape:window-height="690" inkscape:window-width="887" inkscape:window-x="0" inkscape:window-y="249" inkscape:zoom="1.118" objecttolerance="10.0" pagecolor="#ffffff" showgrid="false"/>
  <defs id="defs1024">
    <inkscape:perspective id="perspective2543" inkscape:persp3d-origin="250 : 100 : 1" inkscape:vp_x="0 : 150 : 1" inkscape:vp_y="0 : 1000 : 0" inkscape:vp_z="500 : 150 : 1" sodipodi:type="inkscape:persp3d"/>
  </defs>
  <rect height="153.60001" id="rect1031" style="fill:#ce1126" width="256" x="0" y="51.400002"/>
  <rect height="110.592" id="rect2276" style="fill:#007a5e" width="212.992" x="21.504" y="72.904015"/>
  <use height="300" id="use2407" transform="matrix(1,0,0,-1,0,256.40001)" width="500" x="0" xlink:href="#path3519" y="0"/>
  <path d="M 21.504,183.496 L 128,128.2 L 234.496,183.496 L 21.504,183.496 L 21.504,183.496 z" id="path3519" style="fill:#fcd116"/>
  <path d="M 146.432,128.2 C 146.432,138.37971 138.17971,146.632 128,146.632 C 117.82029,146.632 109.568,138.37971 109.568,128.2 C 109.568,118.02029 117.82029,109.768 128,109.768 C 138.17971,109.768 146.432,118.02029 146.432,128.2 L 146.432,128.2 z" id="path2394" style="fill:#ce1126"/>
  <path d="M 111.93088,122.97972 L 124.20769,122.97972 L 128,111.30401 L 131.79231,122.97972 L 144.06912,122.97972 L 134.1384,130.1947 L 137.93072,141.87041 L 128,134.65544 L 118.06928,141.87041 L 121.8616,130.1947 L 111.93088,122.97972 z" id="path2203" style="fill:#fcd116"/>
  <use height="300" id="use2413" transform="translate(-51.2,3.8540319e-6)" width="500" x="0" xlink:href="#use2411" y="0"/>
  <use height="300" id="use2411" transform="translate(-51.2,3.8540319e-6)" width="500" x="0" xlink:href="#use2409" y="0"/>
  <use height="300" id="use2409" transform="translate(102.4,-132.09599)" width="500" x="0" xlink:href="#path6678" y="0"/>
  <path d="M 67.30496,191.16383 L 74.559171,191.16383 L 76.8,184.26402 L 79.040829,191.16383 L 86.29504,191.16383 L 80.427105,195.42756 L 82.667935,202.32738 L 76.8,198.06365 L 70.932065,202.32738 L 73.172895,195.42756 L 67.30496,191.16383 z" id="path6678" style="fill:#fcd116"/>
  <use height="300" id="use2417" transform="translate(-51.2,3.8540319e-6)" width="500" x="0" xlink:href="#use2415" y="0"/>
  <use height="300" id="use2415" transform="translate(102.4,132.09599)" width="500" x="0" xlink:href="#use2413" y="0"/>
  <path d="M 34.687255,128.40768 C 36.993364,132.704 41.479221,137.3794 45.396451,139.02211 C 45.459632,134.66261 43.911696,129.07108 41.795129,124.61681 L 34.687255,128.40768 z" id="path7321" style="fill:#ce1126"/>
  <path d="M 30.777463,113.67464 C 34.120016,120.6441 22.107431,137.26536 42.121277,141.1638 C 39.652311,137.79517 38.060786,132.23293 38.662849,127.7675 C 42.861462,129.36801 47.279432,134.03954 49.065091,137.61429 C 54.302771,118.59332 35.630305,119.75341 30.777463,113.67464 z" id="path7320" style="fill:#fcd116"/>
</svg>
