<?xml version="1.0" encoding="UTF-8" standalone="no"?>
<!-- Created with Inkscape (http://www.inkscape.org/) --><svg height="256" id="Layer_1" inkscape:output_extension="org.inkscape.output.svg.inkscape" inkscape:version="0.46" sodipodi:docname="Flag_of_Slovenia.svg" sodipodi:version="0.32" space="preserve" version="1.0" width="256" xmlns="http://www.w3.org/2000/svg" xmlns:cc="http://creativecommons.org/ns#" xmlns:dc="http://purl.org/dc/elements/1.1/" xmlns:inkscape="http://www.inkscape.org/namespaces/inkscape" xmlns:rdf="http://www.w3.org/1999/02/22-rdf-syntax-ns#" xmlns:sodipodi="http://sodipodi.sourceforge.net/DTD/sodipodi-0.dtd" xmlns:svg="http://www.w3.org/2000/svg">
  <metadata>
    <rdf:RDF xmlns:cc="http://web.resource.org/cc/" xmlns:dc="http://purl.org/dc/elements/1.1/" xmlns:rdf="http://www.w3.org/1999/02/22-rdf-syntax-ns#">
      <cc:Work rdf:about="">
        <dc:title></dc:title>
        <dc:description></dc:description>
        <dc:subject>
          <rdf:Bag>
            <rdf:li>unsorted</rdf:li>
          </rdf:Bag>
        </dc:subject>
        <dc:publisher>
          <cc:Agent rdf:about="http://www.openclipart.org/">
            <dc:title>Open Clip Art Library, Source: Wikimedia Commons</dc:title>
          </cc:Agent>
        </dc:publisher>
        <dc:creator>
          <cc:Agent>
            <dc:title></dc:title>
          </cc:Agent>
        </dc:creator>
        <dc:rights>
          <cc:Agent>
            <dc:title></dc:title>
          </cc:Agent>
        </dc:rights>
        <dc:date></dc:date>
        <dc:format>image/svg+xml</dc:format>
        <dc:type rdf:resource="http://purl.org/dc/dcmitype/StillImage"/>
        <cc:license rdf:resource="http://web.resource.org/cc/PublicDomain"/>
        <dc:language>en</dc:language>
      </cc:Work>
      <cc:License rdf:about="http://web.resource.org/cc/PublicDomain">
        <cc:permits rdf:resource="http://web.resource.org/cc/Reproduction"/>
        <cc:permits rdf:resource="http://web.resource.org/cc/Distribution"/>
        <cc:permits rdf:resource="http://web.resource.org/cc/DerivativeWorks"/>
      </cc:License>
    </rdf:RDF>
  </metadata>
  <sodipodi:namedview bordercolor="#666666" borderopacity="1.0" gridtolerance="10.0" guidetolerance="10.0" id="base" inkscape:current-layer="Layer_1" inkscape:cx="600" inkscape:cy="300" inkscape:pageopacity="0.0" inkscape:pageshadow="2" inkscape:window-height="679" inkscape:window-width="957" inkscape:window-x="8" inkscape:window-y="203" inkscape:zoom="0.46583333" objecttolerance="10.0" pagecolor="#ffffff" showgrid="false"/>
  <defs id="defs3">
    <inkscape:perspective id="perspective5854" inkscape:persp3d-origin="600 : 200 : 1" inkscape:vp_x="0 : 300 : 1" inkscape:vp_y="0 : 1000 : 0" inkscape:vp_z="1200 : 300 : 1" sodipodi:type="inkscape:persp3d"/>
  </defs>
  <rect height="128" id="rect3212" style="fill:#ffffff" width="256" x="0" y="64"/>
  <rect height="42.666668" id="rect6123" style="fill:#ed1c24;fill-opacity:1;stroke:none" width="256" x="0" y="149.33331"/>
  <rect height="42.666668" id="rect4183" style="fill:#005da4;fill-opacity:1" width="256" x="0" y="106.66669"/>
  <path d="M 48.515132,88.60516 C 48.120885,88.77901 47.729587,88.95948 47.341233,89.14644 L 48.564634,108.50486 C 48.897886,113.78239 51.142259,118.77691 54.903507,122.53801 C 57.475535,125.10989 60.624198,126.97284 64.045858,128 L 64.046153,128 C 67.467814,126.97269 70.616625,125.10989 73.188506,122.53801 C 76.949606,118.77691 79.194127,113.78239 79.527232,108.50486 L 80.75078,89.14644 C 80.362278,88.95948 79.971275,88.77901 79.576734,88.60516 L 79.577028,88.60531 L 78.324753,108.42206 C 78.011388,113.4101 75.890769,118.13088 72.336222,121.68543 C 69.993728,124.02822 67.144431,125.74781 64.0463,126.738 L 64.045858,126.738 C 60.94758,125.74781 58.098579,124.02822 55.756085,121.68543 C 52.201391,118.13088 50.080772,113.4101 49.767554,108.42206 L 48.515132,88.60516 L 48.515426,88.60516" id="path13" style="fill:#ed1c24;fill-opacity:1"/>
  <path d="M 79.577028,88.60531 C 74.72954,86.46804 69.446263,85.33333 64.046005,85.33333 C 58.645602,85.33333 53.362323,86.46804 48.514837,88.60531 L 49.767407,108.42206 C 50.080623,113.4101 52.201244,118.13088 55.755938,121.68543 C 58.098579,124.02822 60.94758,125.74781 64.045711,126.738 L 64.046153,126.738 C 67.144284,125.74781 69.993581,124.02822 72.335778,121.68543 C 75.890622,118.13088 78.011241,113.4101 78.324309,108.42206" id="path15" style="fill:#005da4;fill-opacity:1"/>
  <polyline id="polyline17" points="119.764,62.917 124.434,56.539 116.574,57.394 113.386,50.161 110.197,57.394 102.338,56.539    107.008,62.917 102.338,69.295 110.197,68.44 113.386,75.673 116.574,68.44 124.434,69.295  " style="fill:#ffdd00;fill-opacity:1" transform="matrix(0.1473266,0,0,0.1473266,47.341233,85.33333)"/>
  <polyline id="polyline19" points="90,23.232 94.669,16.854 86.811,17.709 83.622,10.476 80.433,17.709 72.575,16.854 77.244,23.232    72.575,29.61 80.433,28.755 83.622,35.988 86.811,28.755 94.669,29.61  " style="fill:#ffdd00;fill-opacity:1" transform="matrix(0.1473266,0,0,0.1473266,47.341233,85.33333)"/>
  <polyline id="polyline21" points="149.527,23.232 154.195,16.854 146.338,17.709 143.148,10.476 139.959,17.709 132.102,16.854    136.771,23.232 132.102,29.61 139.959,28.755 143.148,35.988 146.338,28.755 154.195,29.61  " style="fill:#ffdd00;fill-opacity:1" transform="matrix(0.1473266,0,0,0.1473266,47.341233,85.33333)"/>
  <path d="M 76.57466,111.3076 L 70.310185,102.95507 L 67.804454,106.29614 L 64.045858,98.77895 L 60.287262,106.29614 L 57.781532,102.95507 L 51.517205,111.3076 C 51.517205,112.4152 51.957269,113.47728 52.740459,114.26047 C 53.523646,115.04336 54.585724,115.48372 55.693472,115.48372 C 56.433052,115.48372 57.152448,115.28748 57.781826,114.92403 C 57.785952,114.92137 57.776817,114.92697 57.780796,114.92462 C 58.094453,114.74341 58.432864,114.60226 58.788657,114.50709 C 59.858543,114.22054 60.998409,114.37037 61.957651,114.92403 C 62.59808,115.29382 63.319245,115.48372 64.046153,115.48372 C 64.049248,115.48372 64.042323,115.48372 64.045417,115.48372 C 64.772474,115.48372 65.493489,115.29382 66.134065,114.92403 C 67.093163,114.37037 68.233175,114.22025 69.303061,114.50709 C 69.658707,114.60226 69.997116,114.74341 70.310775,114.92462 C 70.315046,114.92697 70.305914,114.92152 70.30989,114.92403 C 70.939418,115.28748 71.658517,115.48372 72.398097,115.48372 C 73.505995,115.48372 74.56807,115.04351 75.35126,114.26047 C 76.134447,113.47728 76.574513,112.4152 76.574513,111.3076" id="path23" style="fill:#ffffff"/>
  <path d="M 53.001227,115.84246 C 53.288661,116.41365 53.604676,116.97098 53.948094,117.51226 C 53.948094,117.51226 53.947947,117.51255 53.948094,117.51285 C 54.829696,117.91829 55.829308,118.0058 56.774409,117.75255 C 57.130349,117.65738 57.46861,117.51609 57.782268,117.33503 C 57.786394,117.33267 57.777261,117.33797 57.781385,117.33562 C 58.410765,116.97187 59.130159,116.77592 59.869739,116.77592 C 59.871213,116.77592 59.867823,116.77592 59.869297,116.77592 C 60.596207,116.77563 61.31737,116.96553 61.957798,117.33562 C 62.917043,117.88927 64.056909,118.0391 65.126942,117.75255 C 65.482588,117.65738 65.820996,117.51609 66.134656,117.33503 C 66.138927,117.33267 66.129794,117.33797 66.133771,117.33562 C 66.763004,116.97187 67.4824,116.77592 68.222274,116.77592 C 68.223746,116.77592 68.220211,116.77592 68.221683,116.77592 C 68.948593,116.77563 69.669905,116.96553 70.310185,117.33562 C 71.269577,117.88927 72.409295,118.0391 73.479181,117.75255 C 73.708862,117.69126 73.930884,117.61038 74.143919,117.51255 L 74.143919,117.51255 C 74.487484,116.97098 74.803499,116.41365 75.090933,115.84276 C 75.090933,115.84246 75.090933,115.84276 75.090933,115.84276 C 74.882319,115.92217 74.680038,116.01822 74.486157,116.13019 C 74.48218,116.13255 74.491313,116.12724 74.487337,116.1296 C 74.173679,116.31067 73.835268,116.45166 73.479328,116.54713 C 72.409442,116.83367 71.269724,116.68384 70.310332,116.1299 C 69.670052,115.7601 68.94874,115.5705 68.22183,115.5705 C 68.220358,115.5705 68.223893,115.5705 68.222421,115.5705 C 67.482692,115.5705 66.763298,115.76673 66.133918,116.13019 C 66.129941,116.13255 66.139074,116.12724 66.134803,116.1296 C 65.821143,116.31081 65.482735,116.45195 65.127089,116.54713 C 64.057056,116.83397 62.91719,116.68414 61.957946,116.13019 C 61.317517,115.7604 60.596354,115.5705 59.869444,115.5705 C 59.867823,115.5705 59.87136,115.5705 59.869886,115.5705 C 59.130306,115.5705 58.410912,115.76673 57.781532,116.13049 C 57.777408,116.13284 57.786541,116.12754 57.782415,116.1299 C 57.468757,116.31096 57.130496,116.45195 56.774556,116.54742 C 55.70467,116.83397 54.564804,116.68414 53.605559,116.13019 C 53.410942,116.01793 53.208809,115.92217 53.001374,115.84334 C 53.001227,115.84334 53.001374,115.84305 53.001374,115.84334" id="path25" style="fill:#ffffff"/>
  <path d="M 73.062099,119.0474 C 72.575479,119.67089 72.04864,120.26771 71.4832,120.83285 C 69.370537,122.94552 66.820608,124.52 64.045858,125.46848 L 64.045711,125.46848 C 61.270963,124.52 58.720885,122.94581 56.608224,120.83285 C 56.042931,120.26771 55.516092,119.67089 55.029472,119.0474 C 55.029472,119.0474 55.029325,119.0474 55.029472,119.0474 C 55.605372,119.14007 56.199981,119.11193 56.774261,118.95827 C 57.130202,118.8628 57.468463,118.72181 57.782121,118.54075 C 57.786246,118.53839 57.777111,118.54369 57.781237,118.54134 C 58.410615,118.17759 59.130012,117.98164 59.869591,117.98164 C 59.871066,117.98164 59.867676,117.98164 59.86915,117.98164 C 60.59606,117.98135 61.317222,118.17125 61.957651,118.54104 C 62.916896,119.09499 64.056762,119.24482 65.126647,118.95827 C 65.482588,118.8628 65.820996,118.72181 66.134656,118.54075 C 66.138633,118.53839 66.1295,118.54369 66.133771,118.54134 C 66.763004,118.17759 67.4824,117.98164 68.221978,117.98164 C 68.223452,117.98164 68.220211,117.98164 68.221683,117.98164 C 68.948593,117.98135 69.669609,118.17125 70.310185,118.54104 C 71.145527,119.02354 72.118325,119.19945 73.062246,119.04726 C 73.062541,119.04726 73.062246,119.04726 73.061952,119.04755" id="path27" style="fill:#ffffff"/>
</svg>
