<?xml version="1.0" encoding="UTF-8" standalone="no"?>
<!-- Created with Inkscape (http://www.inkscape.org/) --><svg height="256" id="svg548" inkscape:output_extension="org.inkscape.output.svg.inkscape" inkscape:version="0.46" sodipodi:docname="Flag_of_Zambia.svg" sodipodi:version="0.32" version="1.0" width="256" xmlns="http://www.w3.org/2000/svg" xmlns:cc="http://creativecommons.org/ns#" xmlns:dc="http://purl.org/dc/elements/1.1/" xmlns:inkscape="http://www.inkscape.org/namespaces/inkscape" xmlns:rdf="http://www.w3.org/1999/02/22-rdf-syntax-ns#" xmlns:sodipodi="http://sodipodi.sourceforge.net/DTD/sodipodi-0.dtd" xmlns:svg="http://www.w3.org/2000/svg">
  <metadata>
    <rdf:RDF xmlns:cc="http://web.resource.org/cc/" xmlns:dc="http://purl.org/dc/elements/1.1/" xmlns:rdf="http://www.w3.org/1999/02/22-rdf-syntax-ns#">
      <cc:Work rdf:about="">
        <dc:title></dc:title>
        <dc:description></dc:description>
        <dc:subject>
          <rdf:Bag>
            <rdf:li>unsorted</rdf:li>
          </rdf:Bag>
        </dc:subject>
        <dc:publisher>
          <cc:Agent rdf:about="http://www.openclipart.org/">
            <dc:title>Open Clip Art Library, Source: Wikimedia Commons</dc:title>
          </cc:Agent>
        </dc:publisher>
        <dc:creator>
          <cc:Agent>
            <dc:title></dc:title>
          </cc:Agent>
        </dc:creator>
        <dc:rights>
          <cc:Agent>
            <dc:title></dc:title>
          </cc:Agent>
        </dc:rights>
        <dc:date></dc:date>
        <dc:format>image/svg+xml</dc:format>
        <dc:type rdf:resource="http://purl.org/dc/dcmitype/StillImage"/>
        <cc:license rdf:resource="http://web.resource.org/cc/PublicDomain"/>
        <dc:language>en</dc:language>
      </cc:Work>
      <cc:License rdf:about="http://web.resource.org/cc/PublicDomain">
        <cc:permits rdf:resource="http://web.resource.org/cc/Reproduction"/>
        <cc:permits rdf:resource="http://web.resource.org/cc/Distribution"/>
        <cc:permits rdf:resource="http://web.resource.org/cc/DerivativeWorks"/>
      </cc:License>
    </rdf:RDF>
  </metadata>
  <sodipodi:namedview bordercolor="#666666" borderopacity="1.0" gridtolerance="10.0" guidetolerance="10.0" id="base" inkscape:current-layer="svg548" inkscape:cx="1050" inkscape:cy="700" inkscape:pageopacity="0.0" inkscape:pageshadow="2" inkscape:window-height="713" inkscape:window-width="901" inkscape:window-x="280" inkscape:window-y="91" inkscape:zoom="0.26619048" objecttolerance="10.0" pagecolor="#ffffff" showgrid="false"/>
  <defs id="defs550">
    <inkscape:perspective id="perspective4095" inkscape:persp3d-origin="1050 : 466.66667 : 1" inkscape:vp_x="0 : 700 : 1" inkscape:vp_y="0 : 1000 : 0" inkscape:vp_z="2100 : 700 : 1" sodipodi:type="inkscape:persp3d"/>
  </defs>
  <rect height="170.66667" id="rect626" style="fill:#198a00" width="256" x="0" y="42.333321"/>
  <rect height="109.71429" id="rect616" style="fill:#ef7d00" width="30.476191" x="225.5238" y="103.28571"/>
  <rect height="109.71429" id="rect617" style="fill:#000000" width="30.476191" x="195.04762" y="103.28571"/>
  <rect height="109.71429" id="rect618" style="fill:#de2010" width="30.476191" x="164.57143" y="103.28571"/>
  <path d="M 233.62127,62.854047 C 233.62127,62.854047 244.10533,58.745147 245.12113,57.897947 C 245.5831,58.406247 240.9183,63.574147 231.86622,65.480447 C 240.08695,63.701247 247.10718,58.109647 248.5389,58.279147 C 248.95459,58.363847 248.862,63.743647 230.01882,68.403247 C 243.04276,65.268547 250.61706,59.507547 250.52471,60.142947 C 250.61706,60.270047 249.23163,64.675547 237.8241,68.106747 C 241.01088,67.428847 249.64731,62.599847 249.55496,63.531847 C 249.832,63.913047 241.19558,74.079447 225.58524,70.775447 C 238.05508,73.740647 246.13719,66.581747 247.29187,66.708847 C 247.52285,66.751147 244.9825,72.978147 229.28004,73.359347 C 236.80829,72.639347 234.63732,73.316947 234.63732,73.316947 C 234.63732,73.316947 230.2035,76.493947 224.84623,74.333747 C 229.04905,75.392847 229.51078,75.435047 229.60315,75.773847 C 229.32609,76.197347 225.86227,76.832947 222.53708,75.180747 C 225.21561,76.197347 227.61732,76.367047 227.66338,76.748247 C 227.61732,76.875247 225.90855,77.764847 224.38449,77.129547 C 222.86041,76.493947 208.8202,68.572647 208.8202,68.572647 L 232.74386,62.557547 L 233.62127,62.854047 z" id="path564" style="font-size:12px;fill:#ef7d00;fill-rule:evenodd;stroke:#000000;stroke-width:0.27568984;stroke-linejoin:round"/>
  <path d="M 205.49639,84.281347 C 203.39268,84.281347 203.33463,85.998347 203.33463,85.998347 C 203.33463,85.998347 203.161,86.122347 203.27682,86.954547 C 203.62412,86.387847 203.79799,86.210847 203.79799,86.210847 C 204.02966,86.246347 204.99458,86.511847 206.51934,85.414347 C 205.12953,86.741847 205.95973,87.237647 205.95973,87.237647 C 205.95973,87.237647 205.63159,88.282147 206.693,88.494647 C 206.36505,88.069647 206.55804,87.697847 206.55804,87.697847 C 206.55804,87.697847 208.04411,87.556347 207.94763,85.892347 C 208.00566,87.396847 208.89343,87.768647 208.89343,87.768647 C 208.89343,87.768647 208.89343,88.600647 209.85835,88.671647 C 209.33744,88.246647 209.45303,87.591647 209.45303,87.591647 C 209.45303,87.591647 210.70766,86.759647 209.64603,85.343347 C 210.28301,85.006847 210.80416,84.068847 210.80416,84.068847 C 210.80416,84.068847 209.93574,83.732347 209.53042,83.449347 C 209.3372,83.077347 209.51108,81.041647 209.51108,81.041647 L 208.98992,78.403847 L 207.50362,82.511047 C 207.56141,81.926847 207.60012,84.281347 205.49639,84.281347 z" id="path560" style="font-size:12px;fill:#ef7d00;fill-rule:evenodd;stroke:#000000;stroke-width:0.27568984;stroke-linejoin:round"/>
  <path d="M 215.88648,78.357747 C 215.93254,78.400247 217.45684,79.967747 218.93464,79.882847 C 219.48871,79.459347 217.77994,78.527447 217.77994,78.315547 C 218.38031,78.823947 220.92044,80.814747 222.53708,80.094647 C 223.18351,79.247447 221.3824,79.374647 219.39636,77.087047 C 220.7818,77.934247 224.24586,79.798147 225.86227,79.078047 C 226.55521,78.400247 222.25981,76.282047 220.82809,74.630147 L 217.13352,72.893447 L 212.09933,76.663547 L 215.88648,78.357747 z" id="path563" style="font-size:12px;fill:#ef7d00;fill-rule:evenodd;stroke:#000000;stroke-width:0.27568984;stroke-linejoin:round"/>
  <path d="M 210.20585,65.480347 C 210.20585,65.480347 211.91463,64.548447 218.74993,65.014447 C 219.48894,65.099147 223.4145,63.785947 224.66153,63.404747 C 226.64733,63.065847 232.97462,61.795047 234.6836,60.608947 C 235.88435,60.481847 234.36004,62.642247 232.83622,63.150547 C 231.21955,63.828347 225.35425,65.692147 223.27585,65.438047 C 225.76992,65.480447 224.38449,67.344247 220.22772,66.454647 C 222.21375,67.471347 221.47474,67.640747 221.47474,67.640747 C 221.47474,67.640747 217.96486,67.810147 217.04116,67.090047 C 219.3966,67.894947 218.4266,68.191447 218.4266,68.191447 C 218.4266,68.191447 216.02512,68.403247 214.91649,67.937247 C 216.62526,68.403247 215.74784,68.699747 215.74784,68.699747 C 215.74784,68.699747 214.3624,68.911547 213.20772,68.530347 C 212.05326,68.149047 210.29821,65.480347 210.20585,65.480347 z" id="path562" style="font-size:12px;fill:#ef7d00;fill-rule:evenodd;stroke:#000000;stroke-width:0.27568984;stroke-linecap:round;stroke-linejoin:round"/>
  <path d="M 212.94658,79.235847 L 213.19759,83.378347 C 213.19759,83.378347 213.06241,83.590847 212.94658,83.714847 C 212.83073,83.838647 209.74252,83.272147 210.16717,85.431847 C 210.16717,86.317147 210.18652,86.547147 210.84286,87.042847 C 210.66898,86.458647 210.72702,86.051647 210.72702,86.051647 C 210.72702,86.051647 211.59545,86.529647 212.44477,85.219647 C 211.86581,86.511847 212.27088,86.972147 212.40608,87.007647 C 212.54126,87.237847 212.17463,88.282147 213.33254,88.264347 C 212.88877,87.874847 213.10109,87.308347 213.10109,87.308347 C 213.10109,87.308347 214.31704,87.131547 213.89238,85.113347 C 214.33638,84.706147 214.51002,85.095647 214.51002,85.095647 C 214.51002,85.095647 214.64498,86.299347 215.70662,86.051647 C 216.18932,86.299347 215.62948,86.954347 215.62948,86.954347 C 215.62948,86.954347 216.40141,86.972147 216.63309,86.370147 C 216.86477,85.768347 217.1349,84.688347 215.86092,84.245847 C 215.70662,83.821047 216.36296,83.785647 216.36296,83.785647 C 216.36296,83.785647 217.17358,84.033347 217.40503,84.405147 C 217.63671,84.776847 217.55955,83.431547 216.55593,83.289847 C 215.32065,83.254347 215.24351,83.024347 215.24351,82.971347 C 215.24351,82.918147 215.03117,79.961847 214.93469,79.112047 L 212.94658,79.235847 z" id="path561" style="font-size:12px;fill:#ef7d00;fill-rule:evenodd;stroke:#000000;stroke-width:0.27568984;stroke-linejoin:round"/>
  <path d="M 217.24267,82.766047 C 217.25786,82.576147 215.1355,79.955047 215.67392,79.616247 C 216.2121,79.717847 217.09481,80.910047 217.80987,80.523047 C 217.59316,80.058347 216.95434,80.320047 216.22892,79.130447 C 215.50374,77.785547 215.3978,75.766747 212.85767,73.564447 C 214.50219,75.894947 218.2327,77.260947 218.39069,76.581447 C 218.54866,75.901847 215.10579,73.332347 215.2822,72.713047 C 215.96685,73.984847 219.42377,76.818647 221.9708,76.583947 C 222.14537,76.038347 219.88504,74.937247 219.30333,73.909047 C 217.67631,72.906547 213.32217,69.464147 213.2349,68.665747 C 211.65049,66.546247 210.66139,65.905047 210.2008,65.660947 C 210.02278,65.468647 209.97811,65.284747 209.94333,65.167847 C 208.95976,63.041147 210.26252,62.350547 211.02502,62.248447 C 211.65256,62.184447 211.83472,62.270647 212.28633,62.070047 C 211.75158,61.878147 211.21708,61.698747 210.68256,61.506847 C 211.37966,61.975847 213.16029,61.562947 212.77431,62.913847 C 213.555,62.641447 215.2161,60.828747 210.89167,60.419747 C 209.48436,58.938947 203.69826,58.087847 202.24997,64.550847 C 202.36557,64.641447 202.42614,64.715847 202.79415,64.967947 C 200.96701,64.155647 196.03807,63.529247 194.26182,63.266047 C 189.46322,61.996147 184.47968,58.935947 184.00063,59.312347 C 183.3599,59.573147 186.89994,62.593947 186.71594,62.660747 C 183.64644,61.019247 180.84234,59.856247 178.23315,58.797947 C 176.39758,58.168647 174.55907,56.703347 174.35635,56.982147 C 173.6808,58.265647 177.2992,61.492147 177.97226,61.871647 C 178.64553,62.234747 183.93916,64.486947 183.8611,64.515047 C 175.8879,61.195747 174.5511,60.593947 174.151,60.211247 C 173.44825,60.066047 171.73638,57.946147 171.25931,58.082447 C 170.99813,58.317747 171.52196,61.667547 175.32663,63.171147 C 175.94678,63.585747 183.4821,66.065047 183.40831,66.259447 C 183.38988,66.308047 174.77767,62.999247 174.44314,62.880947 C 172.78269,62.283747 170.74526,60.190447 170.36436,60.425847 C 170.00081,60.639447 171.30359,62.905147 172.98144,63.615847 C 173.8609,63.971747 177.23431,65.504247 180.2736,66.479647 C 180.46758,66.543947 174.8105,64.512047 172.09065,63.469547 C 170.85744,62.841747 170.27669,62.059247 170.08885,62.227647 C 169.81099,62.395947 170.53775,65.743047 179.27806,67.631647 C 179.50833,67.721547 182.35466,67.013147 182.21399,67.107147 C 182.17879,67.130647 179.38754,67.687947 179.11576,67.668947 C 178.87389,67.635047 177.34473,67.834947 177.31707,67.907647 C 177.22468,68.134047 177.8711,69.332447 182.38393,69.082547 C 182.96086,69.050747 186.0917,68.036847 185.82867,68.254947 C 185.69715,68.364047 181.56532,69.595447 181.25065,69.619747 C 180.97733,69.655147 179.52583,69.794447 179.47216,69.936047 C 179.40663,70.129147 180.54655,70.982047 182.97005,71.118747 C 185.11582,71.223247 189.19316,69.916147 189.11137,70.000947 C 189.02956,70.085647 185.1807,71.295347 185.07998,71.369047 C 184.94071,71.441247 183.53132,71.511347 183.48186,71.610647 C 183.36701,71.857647 185.51491,73.699847 191.86725,71.733847 C 191.2291,72.524447 188.15002,73.065147 188.15444,73.207547 C 188.14017,73.310847 188.8328,73.924647 189.9093,74.144347 C 190.44751,74.254147 191.18443,74.231747 191.85757,74.134147 C 193.06662,73.912147 194.34082,73.473447 195.95976,72.101147 C 196.15322,72.531847 191.91561,74.498747 192.11458,74.686347 C 193.03345,75.467847 196.08575,74.585547 196.28564,74.483147 C 196.48575,74.380447 202.16337,71.444047 202.14379,71.104147 C 202.232,71.539747 194.82397,75.231647 194.90388,75.383147 C 195.37943,76.079147 197.91011,75.346547 198.03101,75.282547 C 198.15169,75.218747 201.26063,73.678347 201.34583,73.632947 C 201.43082,73.587547 197.69203,75.639947 198.02503,75.952347 C 197.86406,77.285247 203.86409,75.032547 204.33434,74.751947 C 204.56947,74.611747 201.452,76.009147 201.44371,76.673047 C 202.44757,78.229747 205.66198,77.735947 206.15779,77.393547 C 206.40581,77.222247 205.86601,78.550047 206.03988,78.429347 C 206.10046,78.404447 206.73905,77.711847 206.98455,77.210647 C 206.90623,77.645547 206.55389,78.330747 206.34824,79.116947 C 206.14237,79.903147 206.0834,80.790247 205.80085,81.732747 C 205.73612,82.146747 207.78158,80.923347 207.4845,77.998747 C 207.65953,79.519947 206.83854,82.364447 207.05339,82.512347 C 207.48312,82.808047 208.6712,81.095647 208.79117,79.937747 C 209.14399,80.522647 209.88438,81.743447 210.52137,82.024447 C 210.45205,81.139647 210.53357,81.180147 210.24686,80.310547 C 210.4122,79.156047 210.43524,77.558147 210.4753,75.753847 C 212.20619,78.795047 212.8966,80.079247 212.41299,82.408247 C 212.92768,82.605047 213.74982,80.782647 213.6835,79.844547 C 214.34445,82.451047 217.1973,82.841847 217.24267,82.766047 z" id="path553" style="font-size:12px;fill:#ef7d00;fill-rule:evenodd;stroke:#000000;stroke-width:0.22055187pt;stroke-linecap:round;stroke-linejoin:round"/>
  <path d="M 188.41294,63.457847 C 188.41294,63.457847 187.23482,64.274247 185.76874,64.226247 C 186.13526,65.570947 189.17216,64.538447 189.17216,64.538447 C 189.17216,64.538447 187.70608,66.027247 186.65888,66.267347 C 187.2872,66.747547 189.93141,66.579547 190.37656,66.339347 C 190.8215,66.099247 191.607,65.162747 191.607,65.162747 C 191.607,65.162747 188.88419,68.044247 188.4915,68.020247 C 188.43913,68.356447 191.34518,68.236347 191.94739,67.732147 C 192.54938,67.227847 194.06792,66.483447 194.06792,66.483447 C 194.06792,66.483447 190.08847,69.028747 189.90515,69.028747 C 191.39746,69.388947 194.38204,68.596547 196.29323,67.515947 C 193.4657,69.244847 193.20409,69.557047 191.76407,70.133347 C 193.04703,70.397447 193.70129,71.189947 198.04737,69.460947 C 200.53452,68.380447 201.94805,66.411447 201.94805,66.411447 C 200.40348,68.308447 197.96862,69.917347 195.27235,71.502147 C 195.11506,71.790247 198.15191,72.966747 202.02658,69.268947" id="path555" style="font-size:12px;fill:#ef7d00;fill-rule:evenodd;stroke:#000000;stroke-width:0.22055187pt;stroke-linecap:round;stroke-linejoin:round"/>
  <path d="M 209.4618,71.478047 C 209.4618,71.478047 209.72362,72.606647 210.77076,73.471147 C 211.81814,74.335447 211.89667,75.175947 211.89667,75.175947" id="path556" style="font-size:12px;fill:#ef7d00;fill-rule:evenodd;stroke:#000000;stroke-width:0.22055187pt;stroke-linecap:round"/>
  <path d="M 208.93834,64.130247 C 208.93834,64.130247 209.30473,65.138747 210.37812,65.787047 C 211.47777,66.435447 213.12735,68.476447 213.25815,68.836647 C 213.38481,69.272647 214.01719,72.414547 213.96493,72.750647" id="path557" style="font-size:12px;fill:#ef7d00;fill-rule:evenodd;stroke:#000000;stroke-width:0.22055187pt;stroke-linecap:round"/>
  <path d="M 202.26241,65.691047 C 202.34092,66.075247 200.7176,68.020247 202.94292,70.301447 C 200.92694,72.558447 200.92717,72.846747 200.92717,72.846747 C 200.92717,72.846747 202.05283,73.422947 204.0688,71.838147 C 207.39354,75.584247 206.2856,77.298547 206.2856,77.298547" id="path558" style="font-size:12px;fill:#ef7d00;fill-rule:evenodd;stroke:#000000;stroke-width:0.22055187pt;stroke-linecap:round"/>
  <path d="M 206.02077,74.653947 C 206.02077,74.653947 205.71448,74.251647 206.2605,72.748947 C 206.75217,73.292247 207.29889,73.408147 207.53863,73.628047 C 207.77812,73.847947 210.28854,74.181247 210.44813,75.720047" id="path559" style="font-size:12px;fill:#ef7d00;fill-rule:evenodd;stroke:#000000;stroke-width:0.22055187pt;stroke-linecap:round;stroke-linejoin:round"/>
  <path d="M 208.97196,60.549747 C 208.97196,60.436747 208.46647,59.441847 206.58061,60.685447 C 207.59136,60.741947 208.58968,61.273347 208.97196,60.549747 z" id="path552" style="font-size:12px;fill:#ef7d00;fill-rule:evenodd;stroke:#000000;stroke-width:0.22055187pt"/>
  <path d="M 226.97067,65.099147 C 227.06302,65.141447 232.60522,66.242847 234.45264,65.692147 C 232.09721,68.572647 227.38634,66.624147 227.38634,66.624147 C 229.69548,67.259547 229.78806,67.217147 230.52683,67.810147 C 230.75781,68.360847 226.27795,68.106747 224.79993,67.344247 C 228.91042,68.530347 229.00278,68.445647 229.14139,68.911547 C 229.32634,69.546947 222.39845,68.742147 221.79807,67.894947 C 223.64548,69.208047 224.66153,69.462247 225.67758,70.055247 C 224.43056,70.563647 222.1214,71.071847 217.87229,68.318547 C 223.46055,72.978147 228.49475,72.681547 229.28004,73.528747 C 227.34029,76.155147 219.81204,71.961547 216.34821,69.843447 C 212.88439,67.725447 223.92252,74.969147 224.9388,74.841947 C 224.43056,75.562047 220.78203,74.926647 220.55103,74.587847" id="path565" style="font-size:12px;fill:#ef7d00;fill-rule:evenodd;stroke:#000000;stroke-width:0.22055187pt;stroke-linejoin:round"/>
  <path d="M 228.4024,69.970547 C 227.75596,70.055247 225.81621,70.055247 225.53917,70.012947" id="path566" style="font-size:12px;fill:#ef7d00;fill-rule:evenodd;stroke:#000000;stroke-width:0.22055187pt;stroke-linecap:round"/>
  <path d="M 186.78977,62.689447 C 186.78977,62.689447 191.00481,64.730547 192.78496,64.586447 C 192.31378,64.994647 191.60678,65.162747 191.60678,65.162747 C 192.05194,65.330847 193.28239,65.931147 195.1413,65.546947 C 194.69616,65.955147 194.12019,66.411447 194.12019,66.411447 C 194.12019,66.411447 195.71727,66.963647 197.52368,66.099247 C 196.97397,66.723547 196.65961,67.179847 196.65961,67.179847 L 197.91633,67.251847" id="path554" style="font-size:12px;fill:#ef7d00;fill-rule:evenodd;stroke:#000000;stroke-width:0.22055187pt;stroke-linecap:round;stroke-linejoin:round"/>
</svg>
