<?xml version="1.0" encoding="UTF-8" standalone="no"?>
<!-- Creator: CorelDRAW -->

<svg
   xmlns:dc="http://purl.org/dc/elements/1.1/"
   xmlns:cc="http://creativecommons.org/ns#"
   xmlns:rdf="http://www.w3.org/1999/02/22-rdf-syntax-ns#"
   xmlns:svg="http://www.w3.org/2000/svg"
   xmlns="http://www.w3.org/2000/svg"
   xmlns:sodipodi="http://sodipodi.sourceforge.net/DTD/sodipodi-0.dtd"
   xmlns:inkscape="http://www.inkscape.org/namespaces/inkscape"
   height="256"
   id="svg3275"
   inkscape:output_extension="org.inkscape.output.svg.inkscape"
   inkscape:version="0.48.4 r9939"
   sodipodi:docname="flag-md.svg"
   sodipodi:version="0.32"
   space="preserve"
   style="fill-rule:evenodd"
   version="1.0"
   viewBox="0 0 1200 600"
   width="256">
  <metadata
     id="metadata9101">
    <rdf:RDF>
      <cc:Work
         rdf:about="">
        <dc:title />
        <dc:description />
        <dc:subject>
          <rdf:Bag>
            <rdf:li>unsorted</rdf:li>
          </rdf:Bag>
        </dc:subject>
        <dc:publisher>
          <cc:Agent
             rdf:about="http://www.openclipart.org/">
            <dc:title>Open Clip Art Library, Source: Wikimedia Commons</dc:title>
          </cc:Agent>
        </dc:publisher>
        <dc:creator>
          <cc:Agent>
            <dc:title />
          </cc:Agent>
        </dc:creator>
        <dc:rights>
          <cc:Agent>
            <dc:title />
          </cc:Agent>
        </dc:rights>
        <dc:date />
        <dc:format>image/svg+xml</dc:format>
        <dc:type
           rdf:resource="http://purl.org/dc/dcmitype/StillImage" />
        <cc:license
           rdf:resource="http://web.resource.org/cc/PublicDomain" />
        <dc:language>en</dc:language>
      </cc:Work>
      <cc:License
         rdf:about="http://web.resource.org/cc/PublicDomain">
        <cc:permits
           rdf:resource="http://web.resource.org/cc/Reproduction" />
        <cc:permits
           rdf:resource="http://web.resource.org/cc/Distribution" />
        <cc:permits
           rdf:resource="http://web.resource.org/cc/DerivativeWorks" />
      </cc:License>
    </rdf:RDF>
  </metadata>
  <sodipodi:namedview
     bordercolor="#666666"
     borderopacity="1.0"
     gridtolerance="10.0"
     guidetolerance="10.0"
     id="namedview3363"
     inkscape:current-layer="svg3275"
     inkscape:cx="326.91756"
     inkscape:cy="45.619578"
     inkscape:pageopacity="0.0"
     inkscape:pageshadow="2"
     inkscape:window-height="709"
     inkscape:window-width="1366"
     inkscape:window-x="0"
     inkscape:window-y="27"
     inkscape:zoom="1.0824912"
     objecttolerance="10.0"
     pagecolor="#ffffff"
     showgrid="false"
     inkscape:window-maximized="1" />
  <defs
     id="defs3277">
    <inkscape:perspective
       id="perspective3367"
       inkscape:persp3d-origin="600 : 200 : 1"
       inkscape:vp_x="0 : 300 : 1"
       inkscape:vp_y="0 : 1000 : 0"
       inkscape:vp_z="1200 : 300 : 1"
       sodipodi:type="inkscape:persp3d" />
    <style
       id="style3279"
       type="text/css">
   
    .fil3 {fill:black}
    .fil1 {fill:#0000B3}
    .fil8 {fill:#005BA4}
    .fil7 {fill:#035D34}
    .fil5 {fill:#86632B}
    .fil6 {fill:#D32620}
    .fil2 {fill:#E32110}
    .fil0 {fill:#F7D900}
    .fil4 {fill:#FDF700}
   
  </style>
    <sodipodi:namedview
       pagecolor="#ffffff"
       objecttolerance="10.0"
       inkscape:zoom="0.985"
       inkscape:window-y="-4"
       inkscape:window-x="-4"
       inkscape:window-width="1024"
       inkscape:window-height="712"
       inkscape:pageshadow="2"
       inkscape:pageopacity="0.0"
       inkscape:cy="150"
       inkscape:cx="300"
       inkscape:current-layer="svg2"
       id="base"
       guidetolerance="10.0"
       gridtolerance="10.0"
       borderopacity="1.0"
       bordercolor="#666666" />
  </defs>
  <rect
     y="0"
     x="-8.6605787"
     width="1200"
     style="fill:#f7d900"
     id="rect2182"
     height="600"
     class="fil0" />
  <rect
     y="0"
     x="0"
     width="400"
     style="fill:#0000b3"
     id="rect1307"
     height="600"
     class="fil1" />
  <rect
     y="0"
     x="800.00098"
     width="400"
     style="fill:#e32110"
     id="rect2184"
     height="600"
     class="fil2" />
  <path
     style="fill:#000000"
     sodipodi:type="arc"
     sodipodi:ry="1.3125"
     sodipodi:rx="1.3125"
     sodipodi:cy="190.86218"
     sodipodi:cx="251.8125"
     id="path2193"
     d="M 253.125,190.86218 A 1.3125,1.3125 0 1 1 250.5,190.86218 1.3125,1.3125 0 1 1 253.125,190.86218 z"
     class="fil3" />
  <g
     id="g9583">
    <path
       class="fil3"
       d="M 568.637,148.898 C 566.70415,148.898 565.01621,149.39085 564.03278,150.15658 565.5975,150.61315 566.73363,152.05541 566.73439,153.80987 L 566.73439,158.26064 565.0147,158.26064 562.28286,158.26064 C 560.53974,158.26064 559.09596,157.13963 558.63032,155.59003 557.86459,156.57346 557.37174,158.26216 557.37174,160.19425 557.37174,162.1271 557.86383,163.81504 558.63032,164.79847 559.08613,163.2345 560.52915,162.09762 562.28286,162.09762 L 565.0147,162.09762 566.73439,162.09762 566.73439,163.81655 566.73439,177.69115 566.73439,183.49272 C 566.73363,185.17461 565.68293,186.56926 564.21722,187.08403 566.34056,187.37279 568.16683,190.22179 568.66799,191.78047 569.16991,190.22557 570.99693,187.37278 573.11876,187.08403 571.6387,186.57833 570.57136,185.1852 570.57136,183.49272 L 570.57136,173.48602 570.57136,163.81648 570.57136,162.09755 572.29029,162.09755 575.02213,162.09755 C 576.76525,162.09755 578.20903,163.21856 578.67467,164.76816 579.4404,163.78397 579.93325,162.09528 579.93325,160.16394 579.93325,158.23109 579.44116,156.54315 578.67467,155.55896 578.21886,157.12368 576.77584,158.26057 575.02213,158.26057 L 572.29029,158.26057 570.57136,158.26057 570.57136,153.8098 C 570.57136,152.06668 571.69237,150.6229 573.24122,150.15651 572.25779,149.39078 570.56909,148.89793 568.637,148.89793 L 568.637,148.898 z"
       id="rect2244"
       style="fill:#000000"
       inkscape:connector-curvature="0" />
    <path
       class="fil4"
       d="M 568.637,149.819 C 567.63165,149.819 566.74497,150.00798 565.99738,150.24911 566.99517,151.11613 567.65508,152.37396 567.65508,153.81018 L 567.65508,158.26095 C 567.65432,158.32445 567.63694,158.38492 567.62409,158.44464 L 567.62409,159.15065 566.91807,159.15065 C 566.85836,159.1635 566.79713,159.18164 566.73439,159.18164 L 566.33527,159.18164 565.0147,159.18164 562.28286,159.18164 C 560.86403,159.18164 559.62207,158.53232 558.75278,157.55493 558.50484,158.30933 558.29243,159.17106 558.29243,160.19455 558.29243,161.20066 558.48141,162.08734 558.72254,162.83417 559.58957,161.83638 560.84739,161.17723 562.28285,161.17723 L 565.01469,161.17723 565.59825,161.17723 566.73438,161.17723 567.65507,161.17723 C 567.64903,161.26945 567.62408,161.35865 567.62408,161.45314 L 567.62408,161.91349 C 567.63693,161.9732 567.65432,162.03443 567.65507,162.09793 L 567.65507,163.81686 567.65507,177.69146 567.65507,183.49303 C 567.65507,184.88238 566.93923,185.97467 565.99737,186.83867 566.67089,187.25366 567.25066,187.77675 567.74729,188.37391 568.18874,188.90455 568.36411,189.42386 568.66799,189.96963 568.97186,189.42462 569.14648,188.90532 569.58868,188.37391 570.077,187.78657 570.64846,187.28238 571.30761,186.86966 570.35819,186.00792 569.64991,184.88843 569.64991,183.49303 L 569.64991,173.48633 569.64991,163.81679 569.64991,163.57112 569.64991,162.09786 569.64991,161.2074 570.38692,161.2074 C 570.44664,161.19531 570.50786,161.17716 570.57136,161.17716 L 572.29029,161.17716 575.02213,161.17716 C 576.44096,161.17716 577.68292,161.82649 578.55221,162.80387 578.80015,162.04948 579.01256,161.18774 579.01256,160.16425 579.01256,159.15814 578.82358,158.27146 578.58245,157.52387 577.71542,158.52167 576.4576,159.18157 575.02214,159.18157 L 572.2903,159.18157 570.57137,159.18157 C 570.50787,159.18157 570.44664,159.16343 570.38692,159.15058 L 569.68091,159.15058 569.68091,158.44457 C 569.66806,158.38485 569.65067,158.32438 569.64992,158.26088 L 569.64992,153.81011 C 569.64992,152.39052 570.3,151.14857 571.27738,150.28003 570.52223,150.03134 569.6605,149.81893 568.637,149.81893 L 568.637,149.819 z"
       id="path2303"
       style="fill:#fdf700"
       inkscape:connector-curvature="0" />
    <polygon
       class="fil5"
       id="path2778"
       points="500.962,203.847 498.235,209.906 499.111,397.302 511.462,382.36 514.054,382.999 526.809,369.2 537.647,341.871 540.844,330.529 555.451,347.794 549.931,357.992 554.946,357.622 555.383,361.897 559.994,359.945 561.239,365.834 571.404,355.536 585.54,362.502 558.715,410.294 549.157,417.362 566.389,423.824 584.059,403.226 581.501,416.756 576.25,429.882 597.756,442.267 621.114,428.468 609.637,404.371 613.373,402.654 628.518,424.598 645.01,416.419 623.571,391.346 609.469,361.19 624.345,356.276 634.475,366.003 635.99,359.675 641.341,362.267 640.668,356.982 646.054,358.161 639.49,347.761 656.15,333.794 666.684,366.709 682.2,384.446 685.498,384.042 696.773,397.976 696.672,204.891 675.838,182.981 655.611,199.472 656.453,217.243 647.366,217.579 633.836,224.512 626.263,227.003 622.696,227.71 618.051,222.661 611.825,210.208 611.421,197.924 615.258,189.914 614.551,182.341 617.984,182.408 615.796,177.293 618.825,176.081 614.282,172.076 615.863,170.225 598.699,162.855 585.607,161.979 582.073,163.527 580.356,166.725 583.823,176.519 580.121,180.221 583.79,187.39 583.924,203.107 580.996,216.367 575.106,226.397 572.01,227.575 572.01,227.575 564.639,225.893 549.191,217.748 539.431,217.209 538.757,198.294 520.045,183.25 "
       style="fill:#86632b" />
    <polygon
       class="fil6"
       id="path2516"
       points="532.371,398.861 538.082,395.625 542.652,390.675 543.794,386.296 560.167,364.972 559.406,359.642 555.788,361.926 554.455,357.547 552.171,358.309 552.171,358.309 539.224,378.109 532.941,377.919 526.469,380.965 524.374,388.009 525.326,391.246 "
       style="fill:#d32620" />
    <polygon
       class="fil6"
       id="path2750"
       points="670.401,382.107 662.596,377.347 656.694,377.919 643.557,358.309 641.272,357.357 640.32,361.165 636.513,360.023 634.989,364.211 634.989,364.211 652.315,387.628 654.028,392.198 661.643,399.052 663.928,398.481 672.305,388.771 "
       style="fill:#d32620" />
    <path
       class="fil3"
       d="M 589.633,160.962 C 587.49001,160.962 584.33259,161.02096 582.48138,162.25157 580.7874,163.37636 580.92497,164.83828 580.33234,165.35154 578.93618,166.56099 576.54223,166.5179 575.39023,166.5179 567.9302,166.5179 567.65505,174.49951 567.65505,174.49951 567.65505,174.49951 569.5622,171.61346 572.93429,171.61346 578.54084,171.61346 582.78827,174.66732 582.78827,175.81932 582.78827,176.28496 582.21,176.37189 582.17448,176.37189 578.51211,176.37189 572.98494,174.26291 570.04898,174.16162 L 570.04898,175.32798 C 570.08828,175.35368 570.11474,175.38845 570.17219,175.4202 570.13061,175.41264 570.09055,175.39752 570.04898,175.38921 L 570.04898,175.60464 C 576.60268,177.88445 583.24858,181.11292 583.24858,195.34204 583.24858,204.30179 582.17519,213.44294 577.69267,220.63544 576.10527,223.18209 573.8436,225.36136 571.1231,227.29648 569.9129,226.93062 564.22017,225.16256 560.2267,222.93793 553.19527,219.02158 549.5488,215.12489 541.1945,214.74165 541.1945,212.87759 541.1945,208.38751 541.1945,208.38751 541.1945,204.99274 542.42285,201.93434 542.42285,198.68773 538.90109,197.74436 529.12425,185.78973 520.10625,180.48473 506.83635,189.08013 496.56285,203.18833 496.56285,209.67703 496.56285,209.67703 496.96121,349.09203 496.56285,397.65903 496.56285,400.45815 494.87416,404.41229 494.87416,404.41229 499.71876,402.36303 508.59916,390.21409 510.46776,385.59549 510.46776,386.44739 510.46776,387.80576 510.46776,387.80576 517.78341,384.46995 523.14056,375.70446 525.53976,371.16826 525.58209,371.82438 525.6932,373.47075 525.6932,373.47075 532.22951,367.74023 540.5505,333.87265 540.5505,333.87265 L 540.12039,326.75126 C 540.12039,326.75126 534.36644,354.40306 527.81119,360.08746 527.81119,360.08746 527.81119,249.50046 527.81119,241.01746 L 532.99897,245.83636 540.85736,238.5003 540.85736,232.9134 533.88942,239.42099 533.88942,222.56879 C 534.93862,220.97988 535.63556,219.79462 536.16092,218.85503 537.28873,220.82114 540.93371,226.84646 545.21591,230.55043 545.92042,227.68479 550.55714,224.96353 550.55714,224.96353 550.55714,224.96353 552.21862,229.4657 554.76224,230.58066 555.65648,229.0046 560.99393,225.51609 560.99393,225.51609 560.99393,225.51609 556.4275,226.20925 554.57856,227.94103 552.98965,227.585 552.58297,221.31023 552.58297,221.31023 552.58297,221.31023 545.86297,224.58406 544.69434,226.92812 543.41308,226.58116 541.41825,221.53851 540.64193,219.46884 541.81434,219.34109 543.46902,219.19218 545.64602,219.19218 547.56073,219.19218 550.01364,220.10078 552.58296,221.31023 555.40476,222.63911 558.35732,224.32176 560.99392,225.51609 564.37131,227.04529 569.47972,227.35596 570.96961,227.4187 569.26353,228.61832 567.38889,229.71363 565.35248,230.7341 565.35248,230.7341 573.39456,230.66002 579.04268,227.84881 581.05868,226.55243 583.15027,225.26059 584.93648,223.73517 584.16244,225.89026 582.95525,228.43539 581.06927,230.61164 589.36458,229.9094 593.49487,225.17139 594.66727,223.58172 595.21757,225.0066 596.19798,227.2917 597.737,229.26084 599.27602,227.29171 600.28667,225.0066 600.83697,223.58172 602.00938,225.17139 606.13965,229.90941 614.43567,230.61164 612.54893,228.43539 611.3425,225.89025 610.5677,223.73517 612.35466,225.26059 614.44625,226.55243 616.4615,227.84881 622.11038,230.66002 630.1517,230.7341 630.1517,230.7341 628.11605,229.71363 626.20965,228.61605 624.50357,227.4187 625.93752,227.36352 631.1064,227.05813 634.51097,225.51609 637.14757,224.32176 640.10014,222.63911 642.92117,221.31023 645.49049,220.10078 647.94341,219.19218 649.85887,219.19218 652.03588,219.19218 653.6898,219.34109 654.86221,219.46884 654.08665,221.53851 652.09182,226.58115 650.81056,226.92812 649.64193,224.58406 642.92117,221.31023 642.92117,221.31023 642.92117,221.31023 642.51525,227.585 640.92634,227.94103 639.0774,226.20925 634.51097,225.51609 634.51097,225.51609 634.51097,225.51609 639.84766,229.00459 640.7419,230.58066 643.28628,229.4657 644.91677,224.96353 644.91677,224.96353 644.91677,224.96353 649.58449,227.68479 650.28823,230.55043 654.57119,226.84649 658.21541,220.82193 659.34398,218.85503 659.88899,219.82486 660.61692,221.05698 661.61548,222.56879 L 661.61548,239.42099 654.64754,232.9134 654.64754,238.5003 662.50593,245.83636 667.69295,241.01746 C 667.69295,249.50023 667.69295,360.08746 667.69295,360.08746 661.13849,354.40305 655.38375,326.75126 655.38375,326.75126 L 654.9544,333.87265 C 654.9544,333.87265 663.27541,367.74025 669.811,373.47075 669.811,373.47075 669.92212,371.82439 669.96445,371.16826 672.36369,375.70445 677.7208,384.46996 685.03645,387.80576 685.03645,387.80576 685.03645,386.4474 685.03645,385.59549 686.9058,390.21407 695.78615,402.36299 700.63005,404.41229 700.63005,404.41229 698.94211,400.45815 698.94211,397.65903 698.54375,349.09133 698.94211,209.67703 698.94211,209.67703 698.94211,203.18834 688.66781,189.08013 675.39791,180.48473 666.38071,185.78967 656.60381,197.74433 653.08211,198.68773 653.08211,201.93434 654.3097,204.99274 654.3097,208.38751 654.3097,208.38751 654.3097,212.82997 654.3097,214.71142 645.97206,215.10222 642.3029,219.02537 635.2783,222.93794 631.25764,225.17693 625.50369,226.9518 624.3502,227.29649 621.63196,225.36515 619.39977,223.1821 617.81237,220.63545 613.99127,214.50581 612.37892,206.98005 612.37892,199.33255 612.37892,196.09954 616.00122,192.46061 616.00122,189.84745 616.00122,185.89482 615.63309,183.52354 615.63309,183.52354 616.91813,183.69966 619.16317,185.97948 619.16317,185.97948 619.16317,185.97948 619.08607,179.42049 617.01413,178.27454 617.01413,178.27454 617.85243,177.41356 620.8821,177.32361 620.0302,175.16701 615.81678,172.53495 615.81678,172.53495 616.02768,172.15775 616.41622,171.83196 616.92191,171.55227 617.98018,170.9672 619.4678,170.58093 620.60544,170.35492 619.39372,170.10472 617.99605,169.71996 616.46157,169.21955 612.9587,168.07738 608.83524,166.40305 604.98167,164.5541 597.94646,161.17898 592.58787,160.96204 589.63297,160.96204 L 589.633,160.962 z M 589.78645,162.89636 C 590.43955,162.90241 591.04428,162.9266 591.56736,162.9266 598.43703,162.9266 603.26956,166.05907 609.76956,168.94361 611.47337,169.69876 613.0381,170.31104 614.43576,170.785 613.55966,171.5598 612.88011,172.33914 612.68584,172.99527 612.68584,172.99527 615.59986,173.53498 616.92193,175.97278 616.92193,175.97278 614.15154,176.28723 613.69875,177.90639 615.24987,178.02355 616.79267,179.97984 616.79947,181.86658 616.79947,181.86658 612.87027,180.63823 612.87027,180.63823 612.87027,180.63823 613.82195,185.05045 613.82195,189.84743 613.82195,192.29732 610.29187,195.18034 610.29187,199.33253 610.29187,212.36433 613.57401,217.37293 615.909,221.40273 616.82214,222.97879 617.56443,224.79297 619.10119,226.16116 612.37514,222.57892 607.37559,218.10245 607.37559,213.94346 L 607.37559,198.19646 605.62567,198.19646 C 605.62567,198.19646 605.62567,213.94346 605.62567,213.94346 605.62567,216.95952 606.36268,218.364 606.36268,218.364 607.41868,221.69981 609.5526,226.84904 610.87468,228.9232 604.68684,225.57832 601.54303,221.3906 601.54303,219.83722 L 601.54303,198.19642 599.79386,198.19642 599.79386,220.14412 600.131,221.64837 C 599.38038,222.77467 598.40527,224.11111 597.73705,224.56465 597.06958,224.11186 596.12395,222.77467 595.37333,221.64837 L 595.71122,220.14412 595.71122,198.19642 593.9613,198.19642 593.9613,219.83722 C 593.9613,221.39061 590.81749,225.57832 584.62965,228.9232 585.95173,226.849 588.08641,221.69977 589.14241,218.364 589.14241,218.364 589.87866,216.95953 589.87866,213.94346 589.87866,213.94346 589.87866,198.19646 589.87866,198.19646 L 588.12949,198.19646 588.12949,213.94346 C 588.12949,218.09792 583.14807,222.58119 576.43409,226.16116 577.95497,224.79146 578.68669,222.97124 579.59529,221.40273 582.14874,216.99731 585.3054,211.39983 585.3054,195.46463 585.3054,189.48466 584.42023,185.41863 582.88046,182.57263 582.4118,181.63228 581.78062,179.13402 585.36663,179.13402 587.22389,179.13402 591.4751,182.41919 591.4751,182.41919 591.4751,182.41919 591.29973,179.79771 589.14238,178.30555 588.78408,178.05761 588.19069,177.27827 588.19069,176.55563 588.19069,176.01364 589.12046,174.67569 589.84839,174.34612 590.34729,174.11934 582.54256,172.75947 582.54256,169.21957 582.54256,168.48256 583.00518,167.99198 584.62962,167.99198 586.75447,167.99198 590.21349,170.53938 593.28625,170.53938 595.55775,170.53938 596.45501,169.98681 598.78093,169.98681 601.62465,169.98681 607.55624,175.37037 609.58583,175.17459 607.31736,173.75046 603.65197,168.3601 598.10513,168.3601 596.18135,168.3601 594.43748,168.78945 592.64144,168.78945 590.3382,168.78945 588.07124,166.6714 585.58128,166.6714 583.91375,166.6714 582.05045,166.76514 581.7753,166.33427 581.29303,165.58139 581.72692,165.14447 582.17442,164.52312 583.01877,163.3492 585.39155,163.00904 587.73033,162.92665 588.43181,162.90246 589.13329,162.88961 589.78639,162.89641 L 589.78645,162.89636 z M 520.10635,186.53206 C 520.10635,186.53282 520.10635,186.56305 520.10635,186.56305 520.10635,186.56305 532.43745,197.86085 536.59035,199.30155 536.59035,199.30155 536.7438,203.10829 536.7438,203.10829 L 536.7438,214.31229 C 533.73303,213.27594 529.95274,208.33232 528.11816,205.71689 528.11816,204.98215 528.11816,204.1824 528.11816,204.1824 528.11816,202.73786 528.9678,201.68413 529.59142,201.11267 L 527.78027,200.46789 C 527.09013,201.25478 526.338,202.42493 526.338,203.93674 526.338,203.93674 526.338,204.52483 526.338,204.82719 L 525.75444,205.44099 525.44754,205.77888 520.93554,210.62877 515.6253,202.58594 C 515.6253,201.60477 515.6253,200.62134 515.6253,200.62134 515.6253,199.29699 516.6435,197.82147 517.49768,196.81536 L 515.71677,196.17057 C 514.81724,197.33542 513.87538,198.90468 513.87538,200.37567 513.87538,200.37567 513.87538,201.2117 513.87538,201.97214 512.62587,203.26398 507.76691,208.26505 507.76691,208.26505 507.76691,208.26505 505.32836,203.02662 504.66619,201.60401 508.38676,196.451 514.41888,190.67891 520.10629,186.53201 L 520.10635,186.53206 z M 675.39835,186.53206 C 681.07293,190.66989 687.10885,196.46088 690.83845,201.60406 690.17628,203.02592 687.73848,208.2651 687.73848,208.2651 687.73848,208.2651 682.87952,203.26403 681.63001,201.97219 681.63001,201.21175 681.63001,200.37572 681.63001,200.37572 681.63001,198.90473 680.6874,197.33547 679.78787,196.17062 L 678.00771,196.81541 C 678.86188,197.82152 679.88009,199.29705 679.88009,200.62139 679.88009,200.62139 679.88009,201.60482 679.88009,202.58599 L 674.56985,210.62882 670.05709,205.77893 669.75019,205.44104 669.16739,204.82724 C 669.16739,204.52488 669.16739,203.93679 669.16739,203.93679 669.16739,202.42498 668.41526,201.25484 667.72437,200.46794 L 665.91322,201.11272 C 666.5376,201.68419 667.38648,202.73792 667.38648,204.18245 667.38648,204.18245 667.38648,204.9822 667.38648,205.71694 665.5519,208.33237 661.77161,213.276 658.76084,214.31234 L 658.76084,203.10834 C 658.76084,203.10834 658.91429,199.3016 658.91429,199.3016 663.06799,197.86084 675.39829,186.5631 675.39829,186.5631 675.39829,186.5631 675.39829,186.53287 675.39829,186.53211 L 675.39835,186.53206 z M 502.51835,205.04196 505.34241,210.16851 505.34241,219.40794 501.04509,223.39837 C 501.04509,221.52448 501.04509,209.67717 501.04509,209.67717 501.04509,208.36341 501.59539,206.7813 502.51835,205.04196 L 502.51835,205.04196 z M 692.98735,205.04196 C 693.91182,206.7813 694.46061,208.36341 694.46061,209.67717 694.46061,209.67717 694.46061,221.50257 694.46061,223.39837 L 690.16329,219.40794 690.16329,210.16851 692.98735,205.04196 z M 513.78335,206.20832 518.72546,213.72882 518.72546,219.43817 513.78335,224.07338 513.78335,206.20828 513.78335,206.20832 z M 681.72135,206.20832 681.72135,224.07342 676.78,219.43821 676.78,213.72886 681.72135,206.20836 681.72135,206.20832 z M 512.03335,207.55912 512.03335,224.04312 507.09124,219.43814 507.09124,212.74686 512.03335,207.55908 512.03335,207.55912 z M 683.47135,207.55912 688.41346,212.7469 688.41346,219.43818 683.47135,224.04316 683.47135,207.55916 683.47135,207.55912 z M 527.19735,208.75647 C 527.94116,209.99389 531.35407,215.51653 534.5954,217.10545 533.44642,218.72687 530.4417,222.69386 527.19735,224.44151 L 527.19735,208.75651 527.19735,208.75647 z M 668.30735,208.75647 668.30735,224.44147 C 665.063,222.69382 662.05752,218.72682 660.9093,217.10541 664.14987,215.5165 667.56278,209.99385 668.30735,208.75643 L 668.30735,208.75647 z M 525.44735,209.55395 525.44735,224.04315 520.50524,219.43817 520.50524,214.31237 525.44735,209.55394 525.44735,209.55395 z M 670.05635,209.55395 674.99846,214.31238 674.99846,219.43818 670.05635,224.04316 670.05635,209.55396 670.05635,209.55395 z M 505.34135,224.99405 505.34135,239.45225 501.04403,235.43083 C 501.04403,233.90239 501.04403,230.20979 501.04403,229.01546 L 505.34135,224.99404 505.34135,224.99405 z M 690.16235,224.99405 694.45967,229.01547 C 694.45967,230.22341 694.45967,233.88501 694.45967,235.43084 L 690.16235,239.45226 690.16235,224.99406 690.16235,224.99405 z M 507.09035,225.02504 509.91441,227.66466 512.03246,229.62926 512.03246,234.81704 509.91441,236.78164 507.09035,239.42126 507.09035,225.02506 507.09035,225.02504 z M 518.72445,225.02504 518.72445,239.42124 515.90039,236.78162 513.78234,234.78603 513.78234,229.66023 515.90039,227.66464 518.72445,225.02502 518.72445,225.02504 z M 520.50461,225.02504 525.44672,229.66025 525.44672,234.78605 523.29844,236.81263 520.50461,239.42126 520.50461,225.02506 520.50461,225.02504 z M 532.13871,225.02504 532.13871,239.45224 529.31465,236.81262 527.1966,234.81703 527.1966,229.99813 C 528.90117,228.958 530.6148,227.04481 532.13871,225.02503 L 532.13871,225.02504 z M 663.36471,225.02504 C 664.88862,227.04482 666.60225,228.95802 668.30682,229.99814 L 668.30682,234.81704 666.18877,236.81263 663.36471,239.45225 663.36471,225.02505 663.36471,225.02504 z M 674.99811,225.02504 674.99811,239.42124 672.20504,236.81261 670.056,234.78603 670.056,229.66023 674.99811,225.02502 674.99811,225.02504 z M 676.77902,225.02504 679.60233,227.66466 681.72038,229.66025 681.72038,234.78605 679.60233,236.78164 676.77902,239.42126 676.77902,225.02506 676.77902,225.02504 z M 688.41242,225.02504 688.41242,239.42124 685.58836,236.78162 683.47031,234.81702 683.47031,229.62924 685.58836,227.66464 688.41242,225.02502 688.41242,225.02504 z M 514.39642,240.95654 519.61519,245.83667 524.83321,240.98678 524.83321,360.08778 C 524.83321,360.08778 525.19755,365.99745 525.447,369.84879 523.12637,372.19436 514.3964,381.02259 514.3964,381.02259 L 514.3964,240.95659 514.39642,240.95654 z M 681.10642,240.95654 681.10642,381.02254 C 681.10642,381.02254 672.37722,372.19432 670.05582,369.84874 670.30602,365.9974 670.66961,360.08773 670.66961,360.08773 L 670.66961,240.98673 675.88838,245.83662 681.1064,240.95649 681.10642,240.95654 z M 511.41842,240.98678 511.41842,376.57178 C 511.41842,380.39969 504.42705,389.32688 501.04362,391.36708 501.04362,387.94207 501.04362,283.06308 501.04362,241.01708 L 506.20041,245.83598 511.41843,240.98609 511.41842,240.98678 z M 684.08342,240.98678 689.30219,245.83667 694.45898,241.01777 C 694.45898,283.54807 694.45898,387.94277 694.45898,391.36777 691.07555,389.32758 684.08338,380.40037 684.08338,376.57247 L 684.08338,240.98747 684.08342,240.98678 z M 554.42342,347.50178 C 554.42342,347.50178 549.40874,357.68078 547.45473,359.50408 547.45473,359.50408 548.76396,359.67113 550.24856,359.65753 549.33618,360.96903 542.36522,371.00593 540.17986,374.79073 538.13514,378.33215 536.69287,376.75533 533.54981,376.75533 530.94269,376.75533 525.03453,380.90752 524.06471,382.5879 523.04499,384.3537 522.28455,386.49896 522.28455,388.26626 522.28455,390.20969 524.34061,392.87124 524.34061,392.87124 524.56209,391.94147 524.95516,391.61266 524.95516,391.61266 524.95516,391.61266 530.35913,398.34551 531.1551,399.22463 531.7757,399.91023 534.54004,400.35622 535.51441,399.4703 537.95221,397.25399 540.31214,395.70362 542.48235,392.50236 543.60033,390.85373 543.685,388.96245 544.96852,387.19212 549.26358,381.26809 557.80982,369.92342 559.76382,367.33142 559.89535,368.05331 560.00647,368.65425 560.1327,369.38824 562.34675,364.91706 572.9944,356.37304 572.9944,356.37304 L 570.04712,354.43943 C 570.04712,354.43943 563.62797,361.92138 561.54469,363.31074 561.54469,363.31074 560.65348,359.58942 560.13266,358.27641 560.13266,358.27641 557.67219,360.13594 556.32592,360.17978 556.32592,360.17978 555.92378,357.6543 555.61991,356.00491 553.92744,357.13348 551.10791,356.89536 551.10791,356.89536 553.58199,355.72295 556.51037,348.54563 556.51037,348.54563 L 554.42331,347.50172 554.42342,347.50178 z M 641.07812,347.50178 638.99106,348.54569 C 638.99106,348.54569 641.91868,355.72301 644.39352,356.89542 644.39352,356.89542 641.57399,357.13353 639.88076,356.00496 639.57689,357.65435 639.17474,360.17983 639.17474,360.17983 637.82923,360.13599 635.36876,358.27646 635.36876,358.27646 634.84794,359.58947 633.95673,363.31079 633.95673,363.31079 631.8727,361.92144 625.45355,354.43948 625.45355,354.43948 L 622.50703,356.37309 C 622.50703,356.37309 633.15473,364.91709 635.36873,369.38829 635.49421,368.65431 635.60609,368.05336 635.73686,367.33147 637.69163,369.92347 646.23716,381.26807 650.53216,387.19217 651.81644,388.9625 651.9011,390.85378 653.01909,392.50241 655.18854,395.70367 657.54848,397.25403 659.98703,399.47035 660.96064,400.35627 663.72574,399.91029 664.34558,399.22468 665.14155,398.34556 670.54627,391.61271 670.54627,391.61271 670.54627,391.61271 670.93858,391.94153 671.16006,392.87129 671.16006,392.87129 673.21688,390.20975 673.21688,388.26631 673.21688,386.499 672.45569,384.35374 671.43672,382.58795 670.46614,380.90757 664.55798,376.75538 661.95162,376.75538 658.80781,376.75538 657.36554,378.3322 655.32082,374.79078 653.1355,371.00596 646.16529,360.96908 645.25292,359.65758 646.73676,359.67119 648.04599,359.50413 648.04599,359.50413 646.09273,357.68089 641.07805,347.50183 641.07805,347.50183 L 641.07812,347.50178 z M 553.71732,358.98248 C 553.71732,358.98248 553.67574,362.43243 554.76047,363.64793 554.76047,363.64793 558.56721,361.0393 558.56721,361.0393 558.56721,361.0393 558.82044,362.29788 559.15001,364.01681 557.52028,366.24522 548.15911,379.02151 543.52621,385.25851 542.37497,386.80736 541.40816,390.75319 541.40816,390.75319 541.40816,390.75319 539.71947,389.9542 539.71947,388.51193 539.71947,387.09536 539.90391,385.41196 539.90391,385.41196 539.90391,385.41196 538.64382,386.85423 536.46605,386.85423 536.46605,385.11414 539.8321,383.22513 539.96514,380.74576 537.39733,382.64913 535.16892,381.6725 532.19897,382.5879 528.96445,383.58418 528.06417,384.9433 527.07242,384.88963 526.48811,384.85864 525.95973,383.85102 526.18272,383.23269 526.56899,382.16082 530.56848,379.1954 533.36533,378.65871 534.03506,378.5302 539.30297,379.80466 540.36426,378.16737 544.73717,371.42091 551.83516,360.46787 552.51996,359.41187 552.97124,359.30529 553.38547,359.19039 553.71731,358.98252 L 553.71732,358.98248 z M 641.78412,358.98248 C 642.11521,359.19035 642.5302,359.30525 642.98147,359.41183 643.66556,360.46783 650.76352,371.42093 655.13717,378.16733 656.19846,379.80462 661.46637,378.53017 662.13534,378.65867 664.93295,379.19536 668.93244,382.16078 669.31871,383.23265 669.5417,383.85098 669.01257,384.8586 668.42825,384.88959 667.4365,384.94326 666.53622,383.58414 663.3017,382.58786 660.33175,381.67246 658.10334,382.64909 655.53628,380.74572 655.66857,383.22509 659.03537,385.1141 659.03537,386.85419 656.85761,386.85419 655.59751,385.41192 655.59751,385.41192 655.59751,385.41192 655.7812,387.09532 655.7812,388.51189 655.7812,389.95416 654.09326,390.75315 654.09326,390.75315 654.09326,390.75315 653.12645,386.80732 651.97521,385.25847 647.34227,379.02149 637.98111,366.24517 636.35061,364.01677 636.68094,362.29784 636.93417,361.03926 636.93417,361.03926 636.93417,361.03926 640.74015,363.64789 640.74015,363.64789 641.82563,362.43239 641.78406,358.98244 641.78406,358.98244 L 641.78412,358.98248 z M 584.13652,361.49965 C 584.13652,361.49965 563.33782,409.30995 544.87632,416.66035 544.87632,416.66035 552.90857,420.07175 562.77242,425.19377 564.21166,425.94136 565.69399,426.74338 567.19296,427.55749 568.43416,426.06231 569.74112,424.40083 571.02994,422.67661 576.92676,414.78571 582.69434,405.64081 582.69434,405.64081 583.09572,408.01511 579.98215,415.35042 574.71349,424.39561 573.67714,426.17426 572.59695,428.03303 571.39809,429.92128 572.73453,430.68399 574.06039,431.45501 575.38852,432.254 585.15935,438.13343 594.33452,444.892 597.73532,451.1017 601.13614,444.89194 610.31132,438.1334 620.08212,432.254 621.40949,431.45501 622.73535,430.68398 624.07255,429.92128 622.87368,428.03303 621.79349,426.17426 620.75715,424.39561 615.48849,415.35044 612.37491,408.01511 612.7763,405.64081 612.7763,405.64081 618.54386,414.78575 624.4407,422.67661 625.72952,424.40083 627.03648,426.06231 628.27768,427.55749 629.77664,426.74338 631.25897,425.94136 632.69822,425.19377 642.56203,420.07175 650.59432,416.66035 650.59432,416.66035 632.13212,409.30992 611.33332,361.49965 611.33332,361.49965 L 608.26434,362.38935 C 608.26434,362.38935 624.85424,403.70185 641.07824,416.19995 637.38867,417.31038 633.06942,418.90458 628.61564,420.80417 623.20184,414.46288 617.60134,405.90907 613.05304,398.30387 608.14041,390.09171 604.11975,375.68117 604.11975,375.68117 601.84296,381.21213 606.69588,408.99697 616.49085,426.57557 608.39057,430.79201 601.18305,435.35995 597.73535,439.09937 594.28766,435.35991 587.08015,430.79197 578.97985,426.57557 588.77487,408.99697 593.62775,381.21217 591.35025,375.68117 591.35025,375.68117 587.33034,390.09177 582.41771,398.30387 577.86943,405.90904 572.26891,414.46287 566.85511,420.80417 562.40131,418.90458 558.08207,417.31037 554.39251,416.19995 570.61651,403.70185 587.20641,362.38935 587.20641,362.38935 L 584.13668,361.49965 584.13652,361.49965 z M 529.80502,384.46025 C 529.94713,384.47612 530.09755,384.55247 530.20414,384.67493 530.41655,384.91984 530.39765,385.27814 530.17314,385.47316 L 528.45421,386.97741 C 528.22971,387.17244 527.86839,387.1301 527.65598,386.88519 527.44357,386.64028 527.46247,386.28198 527.68697,386.08695 L 529.4059,384.5827 C 529.51777,384.48519 529.66215,384.44362 529.80502,384.46025 L 529.80502,384.46025 z M 665.69602,384.46025 C 665.83889,384.44362 665.98251,384.48519 666.09514,384.58271 L 667.81407,386.08696 C 668.03857,386.28198 668.05747,386.64028 667.8443,386.88519 667.63189,387.1301 667.27057,387.17244 667.04682,386.97741 L 665.32789,385.47316 C 665.10339,385.27814 665.08449,384.91984 665.2969,384.67493 665.40348,384.55247 665.55315,384.47612 665.69602,384.46025 L 665.69602,384.46025 z M 531.61602,385.9645 C 532.04311,385.92973 532.49136,386.11568 532.81262,386.48607 533.32739,387.0787 533.29413,387.91776 532.75139,388.38944 L 528.57652,392.04198 C 528.03378,392.51367 527.15769,392.41994 526.64291,391.82731 526.12814,391.23468 526.1614,390.36539 526.70414,389.8937 L 530.87901,386.2714 C 531.08235,386.09451 531.35901,385.98491 531.61602,385.9645 L 531.61602,385.9645 z M 663.54702,385.9645 C 663.65436,385.9456 663.77833,385.95543 663.88491,385.9645 664.14116,385.98491 664.41782,386.09451 664.62192,386.2714 L 668.79603,389.8937 C 669.33952,390.36538 669.37203,391.23468 668.85801,391.82731 668.34324,392.41994 667.46714,392.51367 666.92365,392.04198 L 662.74878,388.38944 C 662.20604,387.91776 662.17278,387.0787 662.68755,386.48607 662.92869,386.20866 663.22576,386.01968 663.54702,385.9645 L 663.54702,385.9645 z M 533.97902,388.78856 C 534.40686,388.75379 534.88535,388.93974 535.20737,389.31013 535.72214,389.90276 535.68888,390.74182 535.14538,391.2135 L 530.94028,394.86604 C 530.39754,395.33773 529.55168,395.244 529.03691,394.65137 528.5229,394.05874 528.5554,393.18945 529.0989,392.71776 L 533.27301,389.09546 C 533.4771,388.91857 533.72277,388.80897 533.97902,388.78856 L 533.97902,388.78856 z M 661.18402,388.78856 C 661.29438,388.76966 661.41533,388.77949 661.52191,388.78856 661.77816,388.80897 662.02459,388.91857 662.22793,389.09546 L 666.4028,392.71776 C 666.94554,393.18944 666.9788,394.05874 666.46402,394.65137 665.94925,395.244 665.10415,395.33773 664.56065,394.86604 L 660.35555,391.2135 C 659.81281,390.74182 659.77955,389.90276 660.29433,389.31013 660.53546,389.03272 660.85445,388.84374 661.18403,388.78856 L 661.18402,388.78856 z M 536.65002,391.55064 C 537.07786,391.51662 537.52611,391.67158 537.84737,392.04198 538.36214,392.63461 538.32888,393.5039 537.78614,393.97559 L 533.61127,397.59789 C 533.06853,398.06957 532.22267,397.97584 531.7079,397.38321 531.19388,396.79058 531.19615,395.95152 531.73889,395.47984 L 535.94399,391.8273 C 536.14809,391.65042 536.39376,391.5718 536.65001,391.55064 L 536.65002,391.55064 z M 658.51402,391.55064 C 658.6206,391.53552 658.74457,391.54232 658.85115,391.55064 659.10741,391.5718 659.35383,391.65042 659.55717,391.8273 L 663.76303,395.47984 C 664.30577,395.95152 664.30804,396.79058 663.79327,397.38321 663.27849,397.97584 662.4334,398.06957 661.8899,397.59789 L 657.71579,393.97559 C 657.17229,393.5039 657.13979,392.63461 657.6538,392.04198 657.89569,391.76456 658.19201,391.5975 658.51402,391.55064 L 658.51402,391.55064 z"
       id="rect2205"
       sodipodi:nodetypes="cssscsssccsccsscscccccccccccccccccccccccccccccssscccccccccccscsssccccccccccccccccccccccsccccscscsssscccsscssccssccccccsssccccsscccccccccccccscccccsscscssssssscssssssccccccccccccccccscccccccccccsccsccccccccccccccccccccccccccccccccccccccccccccccccccccccccccccccccccccccccccccccccccccccccccccccccccccccccccccccccccccccccccccccccccccccccccccccccccccccccccccssssccssssccccsssccccccccsssccccssssccssssccccsccscscccsssssccccssssscccscsccsccsscscscscscscscssccccsscccsscccccsccsccccccsccsccsccsccccsccsccsccsccsccccsccsccsccsccsccccsccsccsc"
       style="fill:#000000"
       inkscape:connector-curvature="0" />
    <rect
       y="90.481812"
       x="637.98071"
       width="11.064827"
       transform="matrix(0.87799111,0.47867694,-0.21346182,0.97695141,0,0)"
       style="fill:#000000"
       id="rect2290"
       height="11.064825"
       class="fil3" />
    <path
       inkscape:connector-curvature="0"
       style="fill:#000000"
       id="rect2273"
       d="M 495.611,290.101 492.11191,291.69672 531.64801,378.29102 535.85311,378.29102 495.61101,290.10102 495.611,290.101 z M 542.2383,392.227 539.38324,395.17352 541.16415,399.10272 544.63224,397.50625 542.23829,392.22701 542.2383,392.227 z"
       class="fil3" />
    <rect
       y="92.582649"
       x="640.08148"
       width="6.8633461"
       transform="matrix(0.87799111,0.47867694,-0.21346182,0.97695141,0,0)"
       style="fill:#fdf700"
       id="rect2288"
       height="6.8633451"
       class="fil4" />
    <path
       inkscape:connector-curvature="0"
       style="fill:#000000"
       sodipodi:nodetypes="cccsccsc"
       id="path2280"
       d="M 507.892,358.374 C 507.892,358.374 511.22252,365.25274 513.75329,366.19687 512.44482,365.83933 508.1936,367.39876 508.1936,367.39876 508.1936,367.39876 515.6884,374.09382 522.0448,374.533 527.43516,374.90491 530.05286,372.21313 530.05286,372.21313 L 528.97267,366.50226 C 528.97267,366.50226 525.67541,362.52015 520.39843,360.68179 515.064,358.82377 507.89193,358.37401 507.89193,358.37401 L 507.892,358.374 z"
       class="fil3" />
    <path
       inkscape:connector-curvature="0"
       style="fill:#000000"
       sodipodi:nodetypes="csccsccc"
       id="path2282"
       d="M 532.999,346.054 C 532.999,346.054 528.40158,349.99 527.143,354.54962 525.88366,359.10849 527.96316,364.29173 527.96316,364.29173 L 531.82659,371.49929 C 531.82659,371.49929 537.18218,368.64877 539.46048,364.38773 541.73802,360.12669 540.90275,354.37573 540.90275,354.37573 540.90275,354.37573 536.66061,355.95482 536.12089,356.65403 537.01663,351.9266 532.999,346.05393 532.999,346.05393 L 532.999,346.054 z"
       class="fil3" />
    <path
       inkscape:connector-curvature="0"
       style="fill:#000000"
       sodipodi:nodetypes="cscccscc"
       id="path2284"
       d="M 518.223,344.209 C 518.223,344.209 512.99289,345.97631 507.914,345.67017 503.0762,345.37915 499.05479,341.31615 499.05479,341.31615 499.05479,341.31615 503.06487,338.60245 505.04307,338.96377 502.86682,338.1678 499.70864,332.71394 499.70864,332.71394 499.70864,332.71394 504.1957,331.35785 508.17327,332.85832 512.15084,334.35879 515.6197,338.71659 515.6197,338.71659 L 518.22304,344.209 518.223,344.209 z"
       class="fil3" />
    <path
       inkscape:connector-curvature="0"
       style="fill:#000000"
       sodipodi:nodetypes="cccsccsc"
       id="path2286"
       d="M 520.021,318.669 C 520.021,318.669 522.63643,324.08431 522.01583,325.96651 522.82767,324.71246 525.89816,322.76223 525.89816,322.76223 525.89816,322.76223 527.75391,331.53073 525.97904,336.94603 524.20417,342.36134 518.79869,344.42345 518.79869,344.42345 L 512.83686,332.82865 C 512.83686,332.82865 511.94943,328.53359 513.80896,325.13202 515.66773,321.72969 520.02099,318.66903 520.02099,318.66903 L 520.021,318.669 z"
       class="fil3" />
    <path
       inkscape:connector-curvature="0"
       style="fill:#000000"
       sodipodi:nodetypes="csccsccc"
       id="path2293"
       d="M 485.988,304.333 C 485.988,304.333 491.64142,303.73961 496.8118,305.88185 501.13558,307.67637 502.46068,310.9381 502.46068,310.9381 L 504.59007,316.6467 C 504.59007,316.6467 498.43776,318.95448 493.57577,317.18944 488.71303,315.4244 485.14138,309.58654 485.14138,309.58654 485.14138,309.58654 488.53842,308.29848 489.83253,308.7815 487.94881,307.94774 485.98799,304.333 485.98799,304.333 L 485.988,304.333 z"
       class="fil3" />
    <path
       inkscape:connector-curvature="0"
       style="fill:#000000"
       sodipodi:nodetypes="cccsccsc"
       id="path2295"
       d="M 503.769,293.734 C 503.769,293.734 506.24913,296.9209 506.32396,300.58477 506.98538,298.6368 510.08232,296.48323 510.08232,296.48323 510.08232,296.48323 513.26695,304.1912 512.56849,309.66473 511.86928,315.13749 507.28698,318.37427 507.28698,318.37427 L 501.57082,307.52707 C 501.57082,307.52707 499.70827,303.08008 500.25781,299.63239 500.80735,296.18395 503.76899,293.73406 503.76899,293.73406 L 503.769,293.734 z"
       class="fil3" />
    <path
       inkscape:connector-curvature="0"
       style="fill:#000000"
       sodipodi:nodetypes="csccscsccc"
       id="path2297"
       d="M 484.193,272.988 C 484.193,272.988 483.16799,278.89616 484.91187,282.29924 486.46904,285.33722 487.46154,286.00318 487.46154,286.00318 484.49083,284.04236 480,283.87379 480,283.87379 480,283.87379 481.59874,290.30201 485.41833,293.23492 489.23868,296.16708 495.1302,295.48223 495.1302,295.48223 495.1302,295.48223 499.00346,290.3262 498.7336,284.77033 498.46449,279.21442 494.05152,273.25943 494.05152,273.25943 494.05152,273.25943 492.31143,276.86963 492.15798,279.56444 491.03244,276.78573 484.193,272.98806 484.193,272.98806 L 484.193,272.988 z"
       class="fil3" />
    <path
       inkscape:connector-curvature="0"
       style="fill:#035d34"
       sodipodi:nodetypes="cscsc"
       id="path2299"
       d="M 485.93,276.586 C 485.93,276.586 485.77731,280.90298 487.20597,283.35287 488.63463,285.802 491.82455,286.77939 491.82455,286.77939 491.82455,286.77939 491.97724,282.46317 490.54858,280.01328 489.12067,277.56339 485.93,276.586 485.93,276.586 L 485.93,276.586 z"
       class="fil7" />
    <path
       inkscape:connector-curvature="0"
       style="fill:#035d34"
       sodipodi:nodetypes="cscsc"
       id="path2301"
       d="M 482.943,286.348 C 482.943,286.348 486.6938,286.56872 488.85947,288.22794 491.02514,289.88791 491.86419,293.34693 491.86419,293.34693 491.86419,293.34693 489.37877,293.59865 487.2131,291.93868 485.04743,290.27871 482.94299,286.348 482.94299,286.348 L 482.943,286.348 z"
       class="fil7" />
    <path
       inkscape:connector-curvature="0"
       style="fill:#035d34"
       sodipodi:nodetypes="cscsc"
       id="path2304"
       d="M 494.712,277.635 C 494.712,277.635 493.46476,280.49459 493.60838,283.57944 493.752,286.66353 495.55181,290.13616 495.55181,290.13616 495.55181,290.13616 497.17852,286.43449 497.03565,283.3504 496.89203,280.26631 495.14815,278.50807 494.712,277.635 z"
       class="fil7" />
    <path
       inkscape:connector-curvature="0"
       style="fill:#035d34"
       sodipodi:nodetypes="cscsc"
       id="path2306"
       d="M 488.397,305.428 C 488.397,305.428 490.23914,307.99883 493.07379,309.40104 495.90919,310.80324 500.13244,310.8554 500.13244,310.8554 500.13244,310.8554 498.02422,308.11902 495.18957,306.71757 492.35417,305.31537 488.397,305.428 488.397,305.428 L 488.397,305.428 z"
       class="fil7" />
    <path
       inkscape:connector-curvature="0"
       style="fill:#035d34"
       sodipodi:nodetypes="cscsc"
       id="path2308"
       d="M 489.313,311.405 C 489.313,311.405 490.66607,314.05596 493.14166,315.19209 495.61725,316.32897 500.68106,316.23675 500.68106,316.23675 500.68106,316.23675 498.73838,313.75889 496.26279,312.62201 493.7872,311.48588 489.31299,311.405 489.31299,311.405 L 489.313,311.405 z"
       class="fil7" />
    <path
       inkscape:connector-curvature="0"
       style="fill:#035d34"
       sodipodi:nodetypes="cscsc"
       id="path2310"
       d="M 503.567,297.262 C 503.567,297.262 502.07106,299.73457 502.21695,302.45961 502.3636,305.18389 504.15207,308.16141 504.15207,308.16141 504.15207,308.16141 505.4099,304.7485 505.26325,302.02346 505.1166,299.29842 503.567,297.26201 503.567,297.26201 L 503.567,297.262 z"
       class="fil7" />
    <path
       inkscape:connector-curvature="0"
       style="fill:#035d34"
       sodipodi:nodetypes="cscsc"
       id="path2312"
       d="M 509.077,300.76 C 509.077,300.76 506.5175,304.19559 506.14938,307.72718 505.78125,311.25953 507.60525,314.88863 507.60525,314.88863 507.60525,314.88863 510.6969,311.78337 511.06503,308.25102 511.43316,304.71867 509.077,300.76 509.077,300.76 L 509.077,300.76 z"
       class="fil7" />
    <path
       inkscape:connector-curvature="0"
       style="fill:#035d34"
       sodipodi:nodetypes="cscscsc"
       id="path2320"
       d="M 502.017,333.379 C 502.017,333.379 502.32465,334.64892 503.3935,335.99821 504.46311,337.34675 506.29391,338.77541 506.29391,338.77541 506.29391,338.77541 508.06197,338.20697 510.26015,338.68319 512.45757,339.15865 515.3799,341.11721 515.3799,341.11721 515.3799,341.11721 512.23382,336.42152 508.9668,334.59677 505.70053,332.77126 502.017,333.37901 502.017,333.37901 L 502.017,333.379 z"
       class="fil7" />
    <path
       inkscape:connector-curvature="0"
       style="fill:#035d34"
       sodipodi:nodetypes="cscsc"
       id="path2322"
       d="M 501.692,341.449 C 501.692,341.449 505.76482,339.70891 509.11953,340.15791 512.47348,340.60692 515.49786,343.25863 515.49786,343.25863 515.49786,343.25863 510.96469,344.82713 507.60999,344.37813 504.25528,343.92912 501.69201,341.449 501.69201,341.449 L 501.692,341.449 z"
       class="fil7" />
    <path
       inkscape:connector-curvature="0"
       style="fill:#035d34"
       sodipodi:nodetypes="cscscsc"
       id="path2324"
       d="M 518.913,322.515 C 518.913,322.515 515.31035,326.33081 515.00875,329.64243 514.70639,332.9533 517.92881,336.03966 517.92881,336.03966 517.92881,336.03966 517.77083,333.91632 518.32566,332.5179 518.88049,331.11947 520.05971,329.62656 520.05971,329.62656 520.05971,329.62656 520.56239,327.92124 520.36812,326.55456 520.09599,324.64439 518.913,322.515 518.913,322.515 L 518.913,322.515 z"
       class="fil7" />
    <path
       inkscape:connector-curvature="0"
       style="fill:#035d34"
       sodipodi:nodetypes="cscsc"
       id="path2326"
       d="M 524.079,326.933 C 524.079,326.933 520.68423,330.36783 519.78697,334.04683 518.88971,337.72507 520.48921,341.64746 520.48921,341.64746 520.48921,341.64746 523.57633,339.21193 524.47434,335.5337 525.3716,331.85471 524.079,326.93301 524.079,326.93301 L 524.079,326.933 z"
       class="fil7" />
    <path
       inkscape:connector-curvature="0"
       style="fill:#035d34"
       sodipodi:nodetypes="cscscsc"
       id="path2328"
       d="M 532.58,349.108 C 532.58,349.108 534.11751,352.31909 534.50831,355.00406 534.89911,357.68828 534.53552,358.61804 534.53552,358.61804 534.53552,358.61804 532.94585,360.18125 532.23303,361.10043 531.31763,362.28267 531.18232,364.4438 531.18232,364.4438 531.18232,364.4438 527.99013,359.69747 528.48147,356.22786 528.97357,352.75825 532.57999,349.10799 532.57999,349.10799 L 532.58,349.108 z"
       class="fil7" />
    <path
       inkscape:connector-curvature="0"
       style="fill:#035d34"
       sodipodi:nodetypes="cscsc"
       id="path2330"
       d="M 539.311,356.533 C 539.311,356.533 535.22306,359.23461 533.60013,362.00349 531.9772,364.77237 532.81928,367.60929 532.81928,367.60929 532.81928,367.60929 535.73254,367.35304 537.35547,364.58416 538.9784,361.81528 539.311,356.53301 539.311,356.53301 L 539.311,356.533 z"
       class="fil7" />
    <path
       inkscape:connector-curvature="0"
       style="fill:#035d34"
       sodipodi:nodetypes="cscsc"
       id="path2333"
       d="M 512.449,367.938 C 512.449,367.938 518.34053,367.77775 521.94242,368.66291 525.54355,369.54808 526.85429,371.47866 526.85429,371.47866 526.85429,371.47866 522.8049,373.37447 519.20377,372.49006 515.60188,371.6049 512.449,367.938 512.449,367.938 L 512.449,367.938 z"
       class="fil7" />
    <path
       inkscape:connector-curvature="0"
       style="fill:#035d34"
       sodipodi:nodetypes="cscsc"
       id="path2335"
       d="M 511.453,360.948 C 511.453,360.948 514.11152,365.06995 517.54787,366.56438 522.28362,368.62422 527.76697,367.62567 527.76697,367.62567 527.76697,367.62567 524.7887,363.97465 520.68791,362.36306 516.58788,360.75147 511.45301,360.948 511.45301,360.948 L 511.453,360.948 z"
       class="fil7" />
    <path
       inkscape:connector-curvature="0"
       style="fill:#000000"
       sodipodi:nodetypes="ccsssssc"
       id="path2350"
       d="M 530.362,371.971 530.51998,374.09207 C 534.04401,374.12382 534.56861,373.77383 535.47116,374.88426 536.07286,375.62353 537.50303,376.26908 538.94152,375.6122 540.38076,374.95531 541.0248,373.22807 540.36867,371.78959 539.71179,370.35035 538.37459,370.03891 537.08577,370.2929 536.2951,370.44861 535.77503,371.07979 535.10379,371.42676 533.82782,372.08666 530.36199,371.97101 530.36199,371.97101 L 530.362,371.971 z"
       class="fil3" />
    <path
       inkscape:connector-curvature="0"
       style="fill:#000000"
       sodipodi:nodetypes="ccsssssc"
       id="path2357"
       d="M 530.058,370.348 531.77391,371.60507 C 529.93555,374.61131 529.3603,374.87058 529.82367,376.22441 530.13284,377.12621 529.92269,378.68186 528.60364,379.55417 527.28458,380.42724 525.47797,380.05912 524.60566,378.74006 523.73259,377.421 524.17631,376.1216 525.07432,375.16312 525.62538,374.57427 526.43571,374.46769 527.08578,374.08218 528.32169,373.34895 530.058,370.34801 530.058,370.34801 L 530.058,370.348 z"
       class="fil3" />
    <path
       inkscape:connector-curvature="0"
       style="fill:#000000"
       sodipodi:nodetypes="ccsssssc"
       id="path2361"
       d="M 518.124,345.165 518.28274,347.28531 C 521.80602,347.31781 522.33061,346.96783 523.23317,348.0775 523.83487,348.81753 525.26504,349.46307 526.70429,348.80619 528.14278,348.14931 528.78757,346.42206 528.13068,344.98282 527.4738,343.54433 526.1366,343.23214 524.84778,343.48688 524.0571,343.6426 523.53704,344.27302 522.86655,344.62074 521.58983,345.28065 518.124,345.16499 518.124,345.16499 L 518.124,345.165 z"
       class="fil3" />
    <path
       inkscape:connector-curvature="0"
       style="fill:#000000"
       sodipodi:nodetypes="ccsssssc"
       id="path2365"
       d="M 518.839,345.917 520.33796,347.42654 C 518.05437,350.10925 517.44587,350.2763 517.69305,351.68607 517.85784,352.6249 517.40883,354.1284 515.97034,354.78528 514.53185,355.44216 512.80385,354.79737 512.14697,353.35889 511.49009,351.9204 512.13034,350.70566 513.16669,349.89835 513.80241,349.40323 514.61954,349.42289 515.32102,349.14396 516.65671,348.6118 518.839,345.917 518.839,345.917 L 518.839,345.917 z"
       class="fil3" />
    <path
       inkscape:connector-curvature="0"
       style="fill:#000000"
       sodipodi:nodetypes="ccsssssc"
       id="path2370"
       d="M 506.265,320.074 506.42374,322.19507 C 509.94702,322.22757 510.47161,321.87759 511.37417,322.98726 511.97587,323.72729 513.4068,324.37283 514.84529,323.71595 516.28378,323.05907 516.92857,321.33107 516.27168,319.89258 515.6148,318.45409 514.2776,318.1419 512.98954,318.39589 512.19811,318.55236 511.67804,319.18279 511.00756,319.52975 509.73084,320.19041 506.26501,320.074 506.26501,320.074 L 506.265,320.074 z"
       class="fil3" />
    <path
       inkscape:connector-curvature="0"
       style="fill:#000000"
       sodipodi:nodetypes="ccsssssc"
       id="path2376"
       d="M 507.242,319.628 508.74096,321.13679 C 506.45737,323.82025 505.84887,323.98731 506.0968,325.39707 506.26159,326.3359 505.81182,327.8394 504.37334,328.49628 502.93485,329.15316 501.20685,328.50837 500.54997,327.06989 499.89309,325.6314 500.53334,324.41666 501.56969,323.60935 502.20616,323.11348 503.0233,323.13389 503.72478,322.85496 505.05971,322.3228 507.24201,319.628 507.24201,319.628 L 507.242,319.628 z"
       class="fil3" />
    <path
       inkscape:connector-curvature="0"
       style="fill:#000000"
       sodipodi:nodetypes="ccsssssc"
       id="path2380"
       d="M 493.631,293.583 493.78898,295.70407 C 497.31301,295.73582 497.83761,295.38583 498.74016,296.4955 499.34186,297.23553 500.77203,297.88107 502.21052,297.2242 503.64976,296.56731 504.2938,294.84007 503.63767,293.40083 502.98079,291.96234 501.64359,291.65015 500.35477,291.90489 499.5641,292.0606 499.04403,292.69178 498.37279,293.03875 497.09682,293.69865 493.63099,293.583 493.63099,293.583 L 493.631,293.583 z"
       class="fil3" />
    <path
       inkscape:connector-curvature="0"
       style="fill:#000000"
       sodipodi:nodetypes="ccsssssc"
       id="path2384"
       d="M 494.609,293.136 496.10796,294.64554 C 493.82361,297.32825 493.21587,297.49606 493.46305,298.90507 493.62784,299.8439 493.17883,301.3474 491.74034,302.00428 490.3011,302.66116 488.57385,302.01637 487.91697,300.57789 487.26009,299.1394 487.90034,297.92466 488.93669,297.11735 489.57241,296.62223 490.38954,296.64264 491.09102,296.36296 492.42595,295.8308 494.609,293.136 494.609,293.136 L 494.609,293.136 z"
       class="fil3" />
    <path
       inkscape:connector-curvature="0"
       style="fill:#fdf700"
       sodipodi:nodetypes="czzzz"
       id="path2340"
       d="M 515.886,338.882 C 514.62288,339.40735 512.7505,333.9089 511.37476,330.89661 509.96424,327.80571 507.0986,323.042 507.91271,322.67009 508.80543,322.26266 509.98162,324.7647 511.4254,327.92741 512.86918,331.08861 517.06899,338.38991 515.886,338.88201 L 515.886,338.882 z"
       class="fil4" />
    <path
       inkscape:connector-curvature="0"
       style="fill:#fdf700"
       sodipodi:nodetypes="czzzz"
       id="path2342"
       d="M 502.919,309.925 C 501.65588,310.45035 500.27409,306.85073 498.89909,303.83845 497.48781,300.74755 496.11509,298.5645 496.9292,298.19259 497.82192,297.78516 499.14098,300.49281 500.296,303.02283 501.41474,305.47348 504.10198,309.43215 502.91899,309.925 L 502.919,309.925 z"
       class="fil4" />
    <path
       inkscape:connector-curvature="0"
       style="fill:#fdf700"
       sodipodi:nodetypes="czzzz"
       id="path2337"
       d="M 532.925,375.578 C 531.93325,375.84332 527.60645,366.78682 524.10812,359.1234 520.61055,351.46079 518.00569,345.2624 518.81981,344.8905 519.71253,344.48307 522.54491,351.72162 526.044,359.385 529.54233,367.04913 533.66731,375.3792 532.92501,375.578 L 532.925,375.578 z"
       class="fil4" />
    <polygon
       class="fil8"
       id="path2754"
       points="621.282,356.405 649.459,343.078 654.79,334.891 654.79,289.008 540.557,288.817 540.557,288.817 540.748,335.463 544.175,340.984 565.878,352.978 593.675,365.734 597.292,369.542 "
       style="fill:#005ba4" />
    <path
       class="fil6"
       d="M 539.23,232.668 C 539.23,232.668 540.67302,236.87386 540.67302,236.87386 540.67302,236.87386 540.33513,290.43806 540.33513,290.43806 540.33513,290.43806 542.33072,292.64833 542.33072,292.64833 542.33072,292.64833 558.81472,294.61293 558.81472,294.61293 558.81472,294.61293 576.64882,292.00354 576.64882,292.00354 576.64882,292.00354 587.00472,293.60228 594.14572,294.70515 594.15328,294.74143 594.3604,295.77929 594.3604,295.77929 594.3604,295.77929 596.95164,295.38395 597.76802,295.25772 598.57003,295.38168 601.14389,295.77929 601.14389,295.77929 601.14389,295.77929 601.35176,294.74143 601.35932,294.70515 608.4996,293.60228 618.85552,292.00354 618.85622,292.00354 618.85622,292.00354 636.69032,294.61293 636.69032,294.61293 636.69032,294.61293 653.17432,292.64833 653.17432,292.64833 653.17432,292.64833 655.16915,290.43806 655.16915,290.43806 655.16915,290.43806 654.83202,236.87386 654.83202,236.87386 654.83202,236.87386 656.27429,232.668 656.27429,232.668 656.27429,232.668 636.53689,232.8222 636.53689,232.8222 636.53689,232.8222 613.97989,233.04595 597.76799,233.22057 581.55989,233.04595 558.96809,232.8222 558.96809,232.8222 558.96809,232.8222 539.22989,232.668 539.22989,232.668 L 539.23,232.668 z"
       id="path2355"
       style="fill:#d32620"
       inkscape:connector-curvature="0" />
    <polygon
       class="fil4"
       id="path2756"
       points="559.759,301.518 554.374,297.479 544.95,292.363 544.95,292.363 553.835,288.862 560.028,284.016 564.336,288.593 572.952,292.094 565.952,296.133 "
       style="fill:#fdf700" />
    <polygon
       class="fil4"
       id="path2758"
       points="650.765,292.632 641.341,288.862 635.418,284.285 635.418,284.285 631.379,288.593 622.763,292.094 630.841,297.209 635.956,301.787 641.61,297.209 "
       style="fill:#fdf700" />
    <polygon
       class="fil4"
       id="path2760"
       points="587.491,265.708 594.762,261.938 597.723,270.015 600.685,261.938 607.954,265.169 604.724,257.899 612.262,255.207 604.993,251.976 608.223,244.167 600.685,247.937 597.723,240.129 597.723,240.129 595.031,248.206 587.222,244.436 590.723,252.245 583.183,255.207 590.723,257.899 "
       style="fill:#fdf700" />
    <polygon
       class="fil4"
       id="path2762"
       points="608.762,281.055 603.646,278.362 597.992,281.862 591.799,278.093 586.684,281.593 583.452,279.439 577.798,278.631 571.337,271.9 569.991,259.784 577.798,238.244 568.105,246.053 559.759,257.361 559.759,272.169 565.683,282.132 576.452,289.132 579.414,289.94 574.298,299.364 583.183,302.056 587.761,306.633 590.184,315.788 589.646,335.443 586.953,340.02 581.03,344.059 580.761,347.828 587.222,351.867 592.876,356.444 601.223,356.713 608.493,351.598 614.686,348.098 613.07,342.712 606.608,337.597 605.262,321.98 607.147,306.364 616.57,300.441 621.417,298.825 616.301,289.132 624.11,286.44 632.725,278.9 636.764,263.822 634.341,254.668 628.418,247.129 618.455,238.782 618.455,238.782 620.878,247.399 624.648,258.438 625.186,268.938 620.878,276.478 613.07,279.708 "
       sodipodi:nodetypes="cccccccccccccccccccccccccccccccccccccccccccccccc"
       style="fill:#fdf700" />
    <polygon
       class="fil4"
       id="path2764"
       points="585.338,309.999 581.837,313.499 578.203,309.865 581.568,306.229 581.568,306.229 "
       style="fill:#fdf700" />
    <polygon
       class="fil4"
       id="path2766"
       points="610.243,309.729 613.609,313.364 617.647,309.865 614.012,305.826 614.012,305.826 "
       style="fill:#fdf700" />
    <polygon
       class="fil4"
       id="path2768"
       points="614.148,325.615 616.705,315.788 616.705,315.788 609.974,317.403 608.223,321.307 608.089,332.078 610.916,338.135 614.686,339.751 "
       style="fill:#fdf700" />
    <polygon
       class="fil4"
       id="path2770"
       points="585.607,317.134 578.875,315.922 578.875,315.922 581.299,327.904 581.299,339.482 584.664,337.058 586.953,331.808 587.357,322.654 "
       style="fill:#fdf700" />
    <polygon
       class="fil4"
       id="path2772"
       points="627.879,342.174 627.744,335.174 633.668,327.096 640.668,325.481 640.668,325.481 632.86,321.711 625.321,323.326 621.417,327.904 621.013,335.308 626.532,341.771 "
       style="fill:#fdf700" />
    <polygon
       class="fil4"
       id="path2774"
       points="553.432,325.076 550.47,327.904 550.066,331.673 552.085,334.097 554.913,335.039 556.528,334.905 555.182,338.27 556.259,341.635 559.624,343.521 563.394,342.578 565.413,338.808 568.644,340.963 572.549,340.154 575.106,336.251 573.356,332.616 571.471,331.135 574.164,329.654 575.241,325.212 571.606,321.038 568.105,321.577 566.355,322.923 566.355,322.923 565.548,319.692 561.375,317.269 557.874,318.615 556.124,322.249 557.066,325.481 "
       style="fill:#fdf700" />
    <path
       class="fil3"
       d="M 578.092,235.676 C 577.52809,239.62031 557.6788,247.8189 557.6788,264.346 557.6788,285.5068 577.4775,290.4996 577.4775,290.4996 L 576.64903,292.0031 571.82938,300.78219 C 571.82938,300.78219 580.0113,301.19189 584.35398,304.89583 589.59014,309.36172 589.08066,318.82413 589.08066,325.70743 589.08066,331.13181 588.39505,336.85473 585.61257,339.21393 581.87613,342.38193 579.35065,342.61626 579.35065,346.33532 579.35065,349.43756 581.73402,350.05967 585.61257,352.10666 590.58189,354.72965 590.34983,358.24537 597.73727,358.24537 605.12473,358.24537 604.92291,354.72965 609.89297,352.10666 613.77077,350.05967 616.15489,349.43756 616.15489,346.33532 616.15489,342.61626 613.62941,342.38193 609.89297,339.21393 607.10973,336.85475 606.42412,331.13179 606.42412,325.70743 606.42412,318.82415 605.91539,309.36173 611.15155,304.89583 615.49423,301.19189 623.67535,300.78219 623.67535,300.78219 L 618.85645,292.0031 618.02722,290.4996 C 618.02722,290.4996 637.82592,285.50684 637.82592,264.346 637.82592,247.8189 617.97662,239.6203 617.41342,235.676 615.47301,242.49956 624.04347,251.9257 624.04347,263.0874 624.04347,277.5297 613.39197,278.2206 613.39197,278.2206 610.89975,278.2206 609.88986,280.00151 608.91021,280.00151 606.81333,279.7823 605.82612,277.11546 603.75342,277.11546 601.80621,277.11546 600.31103,280.12396 597.73717,280.12396 595.16331,280.12396 593.69912,277.11546 591.75115,277.11546 589.67921,277.11546 588.692,279.78229 586.59436,280.00151 585.61471,280.00151 584.60557,278.2206 582.1126,278.2206 582.1126,278.2206 571.4611,277.5297 571.4611,263.0874 571.4611,251.9257 580.03231,242.4996 578.0919,235.676 L 578.092,235.676 z M 618.8565,292.0031 C 618.8565,292.0031 632.1582,297.87119 635.6467,302.87 643.21634,297.14326 653.1746,292.6479 653.1746,292.6479 653.1746,292.6479 643.62978,290.15946 635.6467,282.97911 631.08103,289.01426 618.8558,292.00311 618.8565,292.00311 L 618.8565,292.0031 z M 576.649,292.0031 C 576.649,292.0031 564.4237,289.01425 559.8581,282.9791 551.87574,290.15945 542.3309,292.64789 542.3309,292.64789 542.3309,292.64789 552.28844,297.14326 559.8581,302.86999 563.3466,297.87119 576.649,292.00309 576.649,292.00309 L 576.649,292.0031 z M 597.7373,237.1493 594.29944,246.91106 584.93679,242.46029 589.38756,251.82218 579.62655,255.29103 589.38756,258.75988 584.93679,268.09153 594.29944,263.64 597.7373,273.40176 601.20615,263.64 610.56804,268.09153 606.11727,258.75988 615.87828,255.29103 606.11727,251.82218 610.56804,242.46029 601.20615,246.91106 597.7373,237.1493 597.7373,237.1493 z M 575.206,241.66206 C 576.02011,243.415 568.57595,254.22296 568.57595,263.08746 568.57595,273.95816 574.37223,280.36976 582.11275,280.36976 583.58979,280.36976 585.20365,282.36459 586.59451,282.36459 588.86223,282.36459 590.37101,279.84818 591.7513,279.84818 593.50727,279.84818 594.69026,282.61026 597.73732,282.61026 600.78438,282.61026 601.99836,279.84818 603.75357,279.84818 605.13385,279.84818 606.6434,282.36459 608.91036,282.36459 610.30198,282.36459 611.91584,280.36976 613.39212,280.36976 621.13259,280.36976 626.92892,273.95817 626.92962,263.08746 626.92962,254.22296 619.48471,243.41506 620.29882,241.66206 620.29882,241.66206 634.81822,252.07616 634.81822,264.34606 634.81822,284.11146 614.77392,288.99536 614.77392,288.99536 L 619.28592,299.15546 C 619.28592,299.15546 613.07313,300.08674 609.27922,303.14589 604.21919,307.22702 604.15267,318.25119 604.15267,325.70739 604.15267,334.49026 604.47922,338.21159 607.65176,340.59569 610.99815,343.10908 613.51532,343.6503 613.51532,346.21282 613.51532,348.44576 610.90971,349.35814 607.5293,350.84803 603.68401,352.54201 603.30076,355.48324 597.7373,355.48324 592.17384,355.48324 591.82083,352.54201 587.97554,350.84803 584.59513,349.35814 581.99028,348.44576 581.99028,346.21282 581.99028,343.6503 584.50669,343.10907 587.85308,340.59569 591.02637,338.21156 591.35217,334.49024 591.35217,325.70739 591.35217,318.25114 591.28641,307.22699 586.22637,303.14589 582.43248,300.08674 576.21897,299.15546 576.21897,299.15546 L 580.73173,288.99536 C 580.73173,288.99536 560.68743,284.11145 560.68743,264.34606 560.68743,252.07616 575.20613,241.66206 575.20613,241.66206 L 575.206,241.66206 z M 597.7683,243.71812 599.97781,249.94981 605.93283,247.09475 603.10877,253.08077 609.30946,255.29104 603.10877,257.50131 605.93283,263.45633 599.97781,260.63227 597.73731,266.83296 595.52704,260.63227 589.57202,263.45633 592.39608,257.50131 586.19539,255.29104 592.39608,253.08077 589.57202,247.09475 595.52704,249.94981 597.7683,243.71812 597.7683,243.71812 z M 559.6744,285.98682 C 563.70867,290.60616 570.1104,292.37195 570.1104,292.37195 570.1104,292.37195 563.44634,295.86423 559.8581,299.98467 559.8581,299.99298 559.8581,300.22958 559.8581,300.22958 559.82257,300.19632 559.77193,300.17138 559.73564,300.13812 559.66459,300.22127 559.589,300.29988 559.52097,300.38379 559.52097,300.38379 559.52021,299.97862 559.52097,299.95368 555.7233,296.59822 548.16277,292.83229 548.16277,292.83229 548.16277,292.83229 555.40964,290.33402 559.67447,285.98681 L 559.6744,285.98682 z M 635.8311,285.98682 C 640.09516,290.33403 647.342,292.8323 647.342,292.8323 647.342,292.8323 639.78219,296.59822 635.9845,299.95369 635.9845,299.97863 635.9845,300.3838 635.9845,300.3838 635.91647,300.29989 635.84012,300.22128 635.76982,300.13813 635.73278,300.17139 635.68289,300.19634 635.64661,300.2296 635.64661,300.2296 635.64661,299.993 635.64661,299.98468 632.05833,295.86424 625.39431,292.37196 625.39431,292.37196 625.39431,292.37196 631.79607,290.60616 635.83111,285.98683 L 635.8311,285.98682 z M 581.6523,305.01822 576.89463,309.77665 581.6523,314.53432 586.40997,309.77665 581.6523,305.01822 z M 613.8524,305.01822 609.09473,309.77665 613.8524,314.53432 618.61083,309.77665 613.8524,305.01822 z M 581.6523,307.28972 584.13847,309.77665 581.6523,312.29382 579.13513,309.77665 581.6523,307.28972 z M 613.8524,307.28972 616.36957,309.77665 613.8524,312.29382 611.36623,309.77665 613.8524,307.28972 z M 577.2628,314.53432 C 578.20919,316.87158 580.45499,324.11467 580.45499,332.79852 580.45499,338.81024 579.87219,341.97672 579.87219,341.97672 579.87219,341.97672 586.57934,340.00229 587.91427,333.19763 588.54016,330.00695 589.23862,318.25643 586.01166,316.25323 586.01166,316.25323 577.26281,314.5343 577.26281,314.5343 L 577.2628,314.53432 z M 618.2419,314.53432 C 618.2419,314.53432 609.49381,316.25325 609.49381,316.25325 606.26609,318.2564 606.96455,330.00695 607.59044,333.19765 608.92613,340.00231 615.63327,341.97674 615.63327,341.97674 615.63327,341.97674 615.04971,338.81025 615.04971,332.79854 615.04971,324.1147 617.29626,316.87164 618.2419,314.53434 L 618.2419,314.53432 z M 560.9632,316.43769 C 560.58903,316.45356 560.20427,316.49665 559.82783,316.59114 556.81101,317.3478 554.98777,320.4198 555.74518,323.43586 555.86083,323.89847 556.05208,324.3248 556.26676,324.72543 555.82757,324.57954 555.36874,324.48203 554.88572,324.44952 554.69145,324.43592 554.49264,324.44272 554.30216,324.44952 551.44786,324.54477 549.06827,326.78905 548.86871,329.69853 548.65705,332.80077 551.01548,335.47138 554.11772,335.68379 554.58109,335.71554 555.03161,335.69816 555.46852,335.62256 555.20168,335.98842 554.97037,336.37998 554.79349,336.81991 553.63242,339.7052 555.03916,343.02589 557.92445,344.18697 560.80974,345.34728 564.1002,343.91031 565.26051,341.02502 565.43815,340.58509 565.53642,340.15422 565.5984,339.70521 565.86448,340.0741 566.18423,340.41199 566.55009,340.71812 568.93573,342.71371 572.50436,342.39774 574.49995,340.01211 576.49554,337.62647 576.17957,334.08808 573.79393,332.09249 573.43261,331.79013 573.03273,331.55277 572.62757,331.35548 573.06146,331.21639 573.4825,331.02591 573.88615,330.77268 576.52124,329.12027 577.31872,325.6106 575.66706,322.97551 574.53093,321.16436 572.53534,320.23308 570.54051,320.36688 569.63342,320.42735 568.72407,320.71006 567.90089,321.22634 567.49799,321.47806 567.14045,321.7585 566.82599,322.08581 566.8275,321.63151 566.7882,321.16511 566.67254,320.70401 566.01037,318.06439 563.58391,316.32429 560.96319,316.43768 L 560.9632,316.43769 z M 580.3325,317.17394 C 580.3325,317.17394 585.02894,318.15662 585.02894,318.15662 586.76677,320.55435 586.47196,324.42988 586.47196,329.82102 586.47196,335.25825 582.38931,337.34152 582.38931,337.34152 582.38931,324.27342 581.04229,321.13192 580.33249,317.17392 L 580.3325,317.17394 z M 615.1729,317.17394 C 614.46235,321.13186 613.11608,324.2734 613.11608,337.34154 613.11608,337.34154 609.03343,335.25826 609.03343,329.82104 609.03343,324.42992 608.73863,320.55439 610.4757,318.15664 610.4757,318.15664 615.17214,317.17397 615.1729,317.17397 L 615.1729,317.17394 z M 561.301,318.8014 C 563.33514,318.71372 565.20601,320.06301 565.72078,322.11605 565.84399,322.60512 565.85609,323.08588 565.813,323.55907 565.77747,323.95139 565.67316,324.30742 565.53709,324.6642 564.85754,324.41551 564.12279,324.29532 563.35781,324.29532 561.46351,324.29532 559.76801,325.12833 558.59938,326.44436 558.294,326.17375 558.02716,325.87365 557.80115,325.52367 557.55094,325.13513 557.33702,324.7088 557.21835,324.2341 556.6295,321.88777 558.0642,319.51271 560.41054,318.92386 560.70383,318.85053 561.00997,318.81349 561.30099,318.8014 L 561.301,318.8014 z M 631.4415,320.61179 C 624.2347,320.61179 618.9615,326.16543 619.6849,332.98289 620.29492,338.73004 624.96641,343.54739 630.7355,344.92319 629.75056,343.31236 629.09594,341.51632 628.89336,339.61295 628.17071,332.79544 633.44391,327.27275 640.64996,327.27275 641.78684,327.27275 642.88668,327.41411 643.96536,327.67187 641.42476,323.50759 636.64064,320.61171 631.44156,320.61171 L 631.4415,320.61179 z M 570.0801,322.17727 C 571.48835,322.22489 572.83764,322.95359 573.64041,324.23409 574.92545,326.28411 574.30863,328.99629 572.25937,330.28133 571.83153,330.54968 571.37345,330.72732 570.90857,330.8339 570.52155,330.9231 570.12696,330.91478 569.74221,330.89513 569.74372,330.83314 569.74221,330.77418 569.74221,330.71144 569.74221,328.10281 568.17371,325.8487 565.93623,324.84788 566.09421,324.46539 566.28017,324.10105 566.55003,323.77374 566.83878,323.423 567.1865,323.10779 567.59393,322.85305 568.36194,322.37078 569.23501,322.1493 570.08011,322.17727 L 570.0801,322.17727 z M 631.4415,323.15995 C 633.69712,323.15995 635.86506,323.85085 637.73441,325.00134 630.70147,326.36197 625.63991,332.574 626.37691,339.82764 624.13414,337.97114 622.49534,335.47136 622.20204,332.70625 621.63058,327.32269 625.54163,323.15992 631.44147,323.15992 L 631.4415,323.15995 z M 555.9288,325.79957 C 556.43979,325.8351 556.89787,325.97494 557.34083,326.16845 557.69611,326.32266 558.02341,326.52146 558.32351,326.75125 557.47085,327.84278 556.97271,329.22231 556.97271,330.71144 556.97271,331.87931 557.28565,332.96177 557.83217,333.90363 557.46178,334.1357 557.07249,334.31938 556.63482,334.42521 556.21151,334.52801 555.77309,334.57941 555.31501,334.54842 552.90216,334.38288 551.06758,332.29582 551.23236,329.88222 551.39791,327.46861 553.51595,325.63479 555.9288,325.79957 L 555.9288,325.79957 z M 563.35784,326.44436 C 565.70115,326.44436 567.59393,328.36814 567.59393,330.71145 567.59393,333.05476 565.70114,334.94754 563.35784,334.94754 561.01453,334.94754 559.12175,333.05475 559.12175,330.71145 559.12175,328.36814 561.01454,326.44436 563.35784,326.44436 z M 569.71198,331.32524 C 570.13151,331.37135 570.53592,331.47113 570.93957,331.63213 571.35759,331.79843 571.77182,332.00253 572.13692,332.30716 573.99191,333.85979 574.21037,336.62187 572.6585,338.47762 571.10663,340.33261 568.34379,340.58206 566.4888,339.02943 566.09724,338.70212 565.81226,338.30905 565.56735,337.89406 565.37308,337.56373 565.24533,337.21223 565.13799,336.85015 567.60753,336.13657 569.45723,333.95957 569.71197,331.32524 L 569.71198,331.32524 z M 558.04688,334.27176 C 559.19359,335.97028 561.15138,337.09582 563.35787,337.09582 563.822,337.09582 564.27176,337.0361 564.70792,336.94237 564.80014,337.34451 564.85608,337.75119 564.83113,338.16996 564.80316,338.62501 564.73438,339.07402 564.55447,339.52076 563.65192,341.76504 561.0894,342.84901 558.84512,341.9457 556.60084,341.04315 555.48663,338.48063 556.38918,336.23635 556.57211,335.78356 556.82458,335.38898 557.12619,335.039 557.39227,334.73059 557.70975,334.48643 558.04688,334.27175 L 558.04688,334.27176 z M 590.15548,344.70856 C 586.21721,344.70856 583.70912,345.5393 583.70912,346.73439 583.70912,347.93023 586.21721,348.72998 590.15548,348.72998 591.20392,348.72998 592.39598,348.1192 592.39598,346.73439 592.39598,345.35033 591.20392,344.70856 590.15548,344.70856 z M 605.34998,344.70856 C 604.30154,344.70856 603.10872,345.35032 603.10872,346.73439 603.10872,348.11921 604.30154,348.72998 605.34998,348.72998 609.28749,348.72998 611.79634,347.93023 611.79634,346.73439 611.79634,345.5393 609.28749,344.70856 605.34998,344.70856 z"
       id="path2169"
       style="fill:#000000"
       inkscape:connector-curvature="0" />
    <path
       class="fil4"
       d="M 534.104,231.164 C 534.104,231.164 539.32202,235.07883 539.32202,239.05263 L 539.32202,321.31783 539.32202,333.78043 C 539.32202,336.27719 540.09304,337.90238 541.31761,339.49054 542.54142,341.20115 545.1493,343.56487 547.85544,345.32235 556.21424,350.75126 570.19014,356.47495 580.76224,361.28485 589.57307,365.29266 593.15604,366.90954 597.73684,372.58035 602.31687,366.90955 605.93086,365.29266 614.74244,361.28485 625.31454,356.47502 639.28974,350.75135 647.64854,345.32235 650.35544,343.56487 652.96331,341.20115 654.18712,339.49054 655.41093,337.90238 656.15172,336.27719 656.15172,333.78043 L 656.15172,321.31783 656.15172,239.05263 C 656.15172,235.07883 661.36974,231.164 661.36974,231.164 L 655.81383,231.164 652.56041,231.164 597.73681,231.164 542.91321,231.164 539.65979,231.164 534.10388,231.164 534.104,231.164 z M 540.79528,234.17175 542.91333,234.17175 597.73693,234.17175 652.56053,234.17175 654.67782,234.17175 C 654.67782,234.17175 653.14333,236.01918 653.14333,239.05263 L 653.14333,321.31783 C 653.14333,321.31783 653.14333,333.78043 653.14333,333.78043 653.14333,335.84859 650.99883,340.69167 638.62393,346.85763 618.17063,357.04873 602.44853,361.80793 597.73703,367.60803 593.02472,361.80797 577.30343,357.04883 556.85013,346.85763 544.47523,340.69171 542.33073,335.84863 542.33073,333.78043 542.33073,333.78043 542.33073,321.31783 542.33073,321.31783 L 542.33073,239.05263 C 542.33073,236.01918 540.79549,234.17175 540.79549,234.17175 L 540.79528,234.17175 z"
       id="rect2189"
       style="fill:#fdf700"
       inkscape:connector-curvature="0" />
    <path
       class="fil6"
       d="M 569.26,171.349 C 569.26,171.349 570.71058,168.6028 574.37824,168.6028 575.91046,168.6028 580.96822,168.49697 580.96822,168.49697 581.64249,170.24916 584.716,173.17527 584.716,176.21854 584.716,176.21854 581.59713,170.59611 572.8899,170.59611 570.70231,170.59611 569.26004,171.349 569.26004,171.349 L 569.26,171.349 z"
       id="path2192"
       sodipodi:nodetypes="csccsc"
       style="fill:#d32620"
       inkscape:connector-curvature="0" />
    <path
       class="fil3"
       d="M 580.477,172.12 C 580.477,172.12 578.33779,171.43364 578.33779,170.71477 578.33779,169.80012 579.37716,169.80012 579.99776,170.51219 580.42636,171.00353 580.477,172.12 580.477,172.12 L 580.477,172.12 z"
       id="path2194"
       sodipodi:nodetypes="cssc"
       style="fill:#000000"
       inkscape:connector-curvature="0" />
    <path
       class="fil6"
       d="M 583.414,177.295 C 583.414,177.295 581.55901,179.24826 581.15687,180.2899 579.32153,179.59522 576.12103,176.29645 576.12103,176.29645 576.12103,176.29645 578.83397,177.88083 583.41401,177.295 L 583.414,177.295 z"
       id="path2196"
       sodipodi:nodetypes="cccc"
       style="fill:#d32620"
       inkscape:connector-curvature="0" />
    <path
       inkscape:connector-curvature="0"
       style="fill:#000000"
       id="path2206"
       d="M 719.999,275.06 713.18451,280.03235 713.95175,281.65906 C 713.95175,281.65906 712.70451,282.08766 712.1406,283.1943 711.5767,284.30095 712.50949,285.86491 712.50949,285.86491 712.50949,285.86491 706.03138,285.29949 705.01922,285.95713 704.10381,286.55127 705.40775,291.03908 704.80454,294.82768 703.96397,300.1107 701.88145,299.66699 701.79604,300.69124 701.71365,301.68526 702.59427,303.23864 702.59427,303.23864 702.59427,303.23864 701.37953,303.62113 701.12101,304.1291 700.70451,304.94623 701.41128,306.452 700.90634,307.44375 698.08832,312.97395 693.92706,321.13695 691.17557,326.53715 690.79081,327.29154 689.75825,327.57954 689.24196,328.59397 688.76423,329.53053 689.14974,330.8957 689.14974,330.8957 689.14974,330.8957 687.3265,331.00455 686.6938,332.2465 686.0218,333.56631 686.41789,335.34647 686.41789,335.34647 686.41789,335.34647 685.26438,335.49462 684.6982,336.60505 684.09348,337.79333 685.11848,338.41544 684.85241,338.93853 681.15452,346.19522 676.79672,354.74903 674.13901,359.96483 673.16162,361.88332 669.7404,362.26807 667.75463,366.16552 665.82783,369.94732 668.5831,372.73434 668.5831,372.73434 668.5831,372.73434 665.72124,372.99286 664.9608,374.48426 664.186,376.00514 664.79979,378.31292 666.86417,379.36514 668.92855,380.4166 671.18493,379.56545 671.95973,378.04533 672.71941,376.55393 671.19248,374.08514 671.19248,374.08514 671.19248,374.08514 675.06725,374.64375 676.99405,370.86196 678.97981,366.96451 677.30549,364.00136 678.28287,362.08287 680.94063,356.86712 685.29843,348.31327 688.99627,341.05657 689.26235,340.53348 690.35539,340.98551 690.96087,339.79799 691.52629,338.68681 690.96087,337.67994 690.96087,337.67994 690.96087,337.67994 692.65183,336.94217 693.32383,335.62312 693.95728,334.38117 692.9867,332.83005 692.9867,332.83005 692.9867,332.83005 694.32012,332.35458 694.79785,331.41802 695.31413,330.40359 694.93467,329.40958 695.31943,328.65519 698.07093,323.255 702.23294,315.09199 705.0502,309.56179 705.55514,308.57004 707.18185,308.23064 707.5976,307.41351 707.85687,306.90554 707.44415,305.69458 707.44415,305.69458 707.44415,305.69458 709.2364,305.51694 709.99231,304.86535 710.77013,304.19486 709.18953,302.75713 712.96982,298.97231 715.6805,296.2571 720.05643,294.65987 719.99899,293.5691 719.93625,292.36419 715.67068,287.46063 715.67068,287.46063 715.67068,287.46063 717.47049,287.30945 718.0344,286.20205 718.5983,285.0954 718.21884,283.8081 718.21884,283.8081 L 719.999,283.5012 719.999,275.06 719.999,275.06 z M 655.936,396.647 C 655.06217,396.73544 654.51641,397.25248 654.34028,397.59868 654.07193,398.12555 654.02204,398.84441 654.34028,399.47107 654.34028,399.47107 652.192,398.79906 651.45499,399.16417 650.76107,399.5081 651.45499,409.63197 651.45499,409.63197 651.45499,409.63197 660.0262,404.22498 659.89619,403.46151 659.75786,402.65118 657.96258,401.28223 657.96258,401.28223 658.6565,401.17111 659.19773,400.73495 659.46608,400.20809 659.74879,399.65401 659.78583,398.06888 657.83937,397.07713 657.10992,396.70522 656.4606,396.59486 655.936,396.64702 L 655.936,396.647 z"
       class="fil3" />
    <path
       inkscape:connector-curvature="0"
       style="fill:#fdf700"
       id="path2220"
       d="M 718.741,277.546 714.75057,280.37006 716.7764,281.41397 718.80223,282.42688 718.741,277.546 718.741,277.546 z M 714.87303,282.24244 C 714.14963,282.29233 713.51013,282.6786 713.18509,283.31658 712.66427,284.33856 713.16997,285.64628 714.32122,286.23286 715.47171,286.81944 716.80815,286.45661 717.32897,285.43462 717.84979,284.41339 717.34409,283.10492 716.1936,282.51834 715.76198,282.29913 715.30768,282.2122 714.87303,282.24244 L 714.87303,282.24244 z M 707.35253,286.93888 C 706.75234,286.94644 706.31543,286.96685 706.21716,287.0311 705.79083,287.30776 706.37061,290.95652 706.24815,294.06027 706.13174,296.98789 705.19442,297.81258 704.68267,298.8187 704.20948,299.74695 702.50264,300.84453 702.50264,300.84453 702.50264,300.84453 703.91467,302.25656 703.91467,302.25656 703.91467,302.25656 704.8331,300.82563 706.27839,297.98947 707.98296,294.64383 707.92778,288.58223 708.42743,288.2587 708.86208,287.9775 712.41786,287.09234 712.41786,287.09234 712.41786,287.09234 709.15537,286.91621 707.35254,286.93889 L 707.35253,286.93888 z M 713.55322,287.76811 C 713.55322,287.76735 709.81451,288.48546 709.28689,288.9957 708.7759,289.49006 709.00116,294.55312 707.01539,298.44981 705.36903,301.68131 704.55945,302.87035 704.55945,302.87035 L 705.57236,303.39192 706.58527,303.88326 C 706.58527,303.88326 707.05696,302.57101 708.70332,299.34027 710.68908,295.44358 714.92745,292.61573 715.02723,291.91199 715.12928,291.18481 713.55321,287.76736 713.55321,287.76812 L 713.55322,287.76811 z M 714.75057,288.25869 C 714.75057,288.25869 716.1044,291.67085 716.13161,292.18789 716.16411,292.78203 711.23712,296.30153 709.53255,299.64717 708.08726,302.48333 707.47573,304.06771 707.47573,304.06771 707.47573,304.06771 709.44033,304.37461 709.44033,304.37461 709.44033,304.37461 709.30502,302.35559 709.77822,301.42733 710.28997,300.42198 710.42452,299.19061 712.72474,297.37568 715.16405,295.4519 718.46055,293.77001 718.43409,293.26204 718.4099,292.79338 714.75056,288.2587 714.75056,288.2587 L 714.75057,288.25869 z M 703.63877,304.34359 C 703.01968,304.41011 702.56916,304.80318 702.31896,305.29528 701.94554,306.02699 702.14737,307.00665 699.188,312.81578 697.89011,315.36318 697.36702,316.38743 695.96482,319.13893 694.53843,321.9388 692.46498,325.98441 692.46498,325.98441 692.46498,325.98441 691.76123,327.27701 693.07953,327.94901 694.39783,328.62025 694.98214,327.27323 694.98214,327.27323 694.98214,327.27323 697.05483,323.22838 698.48198,320.42851 699.88418,317.67626 700.40727,316.62177 701.70441,314.07437 704.66454,308.26524 705.56784,307.86914 705.9405,307.13667 706.34189,306.34977 706.24589,305.2915 704.92759,304.6195 704.43323,304.36778 704.00992,304.30353 703.63877,304.34359 L 703.63877,304.34359 z M 690.89947,328.56279 C 690.40208,328.60663 690.00901,328.81678 689.82533,329.17659 689.45872,329.89621 690.08687,330.95372 691.23736,331.54031 692.38785,332.12689 693.63358,332.01426 694.00019,331.29464 694.3668,330.57501 693.70841,329.51751 692.55717,328.93092 691.98193,328.63763 691.39761,328.51895 690.89947,328.56279 L 690.89947,328.56279 z M 689.18054,332.09287 C 688.35509,332.05432 687.63547,332.34005 687.33915,332.92134 686.86444,333.85262 687.60447,335.18981 688.99685,335.89885 690.38923,336.60865 691.89877,336.43101 692.37348,335.50049 692.84743,334.56921 692.10816,333.23202 690.71578,332.52298 690.19345,332.2569 689.67641,332.1163 689.18054,332.09287 L 689.18054,332.09287 z M 686.84782,336.48241 C 686.35043,336.52625 685.95661,336.7364 685.77368,337.09621 685.40707,337.81583 686.03447,338.87334 687.18571,339.45993 688.3362,340.04651 689.58117,339.93388 689.94779,339.21426 690.31516,338.49463 689.687,337.43713 688.53651,336.85054 687.96051,336.55725 687.3452,336.43857 686.84782,336.48241 L 686.84782,336.48241 z M 685.83491,340.25816 C 685.10773,340.35265 684.76077,341.08663 684.76077,341.08663 684.76077,341.08663 677.29545,355.77763 674.66187,360.94733 673.81979,362.59823 670.27762,363.62777 668.89053,366.34979 667.49513,369.08919 668.48083,371.65247 670.30256,372.58072 672.12505,373.50973 674.8002,372.83395 676.19636,370.09455 677.58345,367.37253 676.33696,363.88781 677.17828,362.23616 679.81261,357.06652 687.27798,342.37626 687.27798,342.37626 687.27798,342.37626 688.01272,341.08291 686.69442,340.41166 686.36485,340.24385 686.0776,340.22647 685.83496,340.25821 L 685.83491,340.25816 z M 667.81641,374.08496 C 666.97811,374.10764 666.23203,374.50449 665.8828,375.19009 665.32343,376.28766 665.96293,377.74959 667.32507,378.44426 668.68721,379.13818 670.26554,378.80407 670.82416,377.70725 671.38353,376.61043 670.71304,375.14775 669.3509,374.45383 668.84066,374.19305 668.31909,374.07134 667.81641,374.08495 L 667.81641,374.08496 z M 655.93661,397.62916 C 655.51028,397.64352 655.15878,397.77807 655.01592,398.05851 654.73018,398.62015 655.3213,399.50608 656.33573,400.02312 657.35091,400.54015 658.41371,400.49253 658.69945,399.93089 658.98518,399.37001 658.39482,398.48409 657.37964,397.96705 656.87242,397.70778 656.3637,397.6148 655.93662,397.62916 L 655.93661,397.62916 z M 652.43752,400.39199 652.43752,407.63583 658.33132,403.39974 C 658.33132,403.39974 657.53157,401.98846 655.78316,401.09801 654.03475,400.2068 652.43752,400.392 652.43752,400.392 L 652.43752,400.39199 z"
       class="fil4" />
  </g>
  <path
     style="fill:#fdf700"
     sodipodi:type="arc"
     sodipodi:ry="1.3125"
     sodipodi:rx="1.3125"
     sodipodi:cy="190.86218"
     sodipodi:cx="251.8125"
     id="path2191"
     d="M 253.125,190.86218 A 1.3125,1.3125 0 1 1 250.5,190.86218 1.3125,1.3125 0 1 1 253.125,190.86218 z"
     class="fil4" />
  <path
     style="fill:#000000"
     sodipodi:type="arc"
     sodipodi:ry="1.3125"
     sodipodi:rx="1.3125"
     sodipodi:cy="190.86218"
     sodipodi:cx="251.8125"
     id="path2189"
     d="M 253.125,190.86218 A 1.3125,1.3125 0 1 1 250.5,190.86218 1.3125,1.3125 0 1 1 253.125,190.86218 z"
     class="fil3" />
</svg>
