<?xml version="1.0" encoding="UTF-8" standalone="no"?>
<svg height="256" id="svg2768" inkscape:output_extension="org.inkscape.output.svg.inkscape" inkscape:version="0.46" sodipodi:docname="Flag_of_Lebanon.svg" sodipodi:version="0.32" version="1.0" width="256" xmlns="http://www.w3.org/2000/svg" xmlns:cc="http://creativecommons.org/ns#" xmlns:dc="http://purl.org/dc/elements/1.1/" xmlns:inkscape="http://www.inkscape.org/namespaces/inkscape" xmlns:rdf="http://www.w3.org/1999/02/22-rdf-syntax-ns#" xmlns:sodipodi="http://sodipodi.sourceforge.net/DTD/sodipodi-0.dtd" xmlns:svg="http://www.w3.org/2000/svg">
  <metadata>
    <rdf:RDF xmlns:cc="http://web.resource.org/cc/" xmlns:dc="http://purl.org/dc/elements/1.1/" xmlns:rdf="http://www.w3.org/1999/02/22-rdf-syntax-ns#">
      <cc:Work rdf:about="">
        <dc:title></dc:title>
        <dc:description></dc:description>
        <dc:subject>
          <rdf:Bag>
            <rdf:li>unsorted</rdf:li>
          </rdf:Bag>
        </dc:subject>
        <dc:publisher>
          <cc:Agent rdf:about="http://www.openclipart.org/">
            <dc:title>Open Clip Art Library, Source: Wikimedia Commons</dc:title>
          </cc:Agent>
        </dc:publisher>
        <dc:creator>
          <cc:Agent>
            <dc:title></dc:title>
          </cc:Agent>
        </dc:creator>
        <dc:rights>
          <cc:Agent>
            <dc:title></dc:title>
          </cc:Agent>
        </dc:rights>
        <dc:date></dc:date>
        <dc:format>image/svg+xml</dc:format>
        <dc:type rdf:resource="http://purl.org/dc/dcmitype/StillImage"/>
        <cc:license rdf:resource="http://web.resource.org/cc/PublicDomain"/>
        <dc:language>en</dc:language>
      </cc:Work>
      <cc:License rdf:about="http://web.resource.org/cc/PublicDomain">
        <cc:permits rdf:resource="http://web.resource.org/cc/Reproduction"/>
        <cc:permits rdf:resource="http://web.resource.org/cc/Distribution"/>
        <cc:permits rdf:resource="http://web.resource.org/cc/DerivativeWorks"/>
      </cc:License>
    </rdf:RDF>
  </metadata>
  <defs id="defs2777">
    <inkscape:perspective id="perspective2781" inkscape:persp3d-origin="375 : 166.66667 : 1" inkscape:vp_x="0 : 250 : 1" inkscape:vp_y="0 : 1000 : 0" inkscape:vp_z="750 : 250 : 1" sodipodi:type="inkscape:persp3d"/>
  </defs>
  <sodipodi:namedview bordercolor="#666666" borderopacity="1.0" gridtolerance="10.0" guidetolerance="10.0" id="base" inkscape:current-layer="svg2768" inkscape:cx="375" inkscape:cy="250" inkscape:pageopacity="0.0" inkscape:pageshadow="2" inkscape:window-height="706" inkscape:window-width="887" inkscape:window-x="28" inkscape:window-y="171" inkscape:zoom="0.74533333" objecttolerance="10.0" pagecolor="#ffffff" showgrid="false"/>
  <rect height="170.66701" id="rect2770" style="fill:#ed1c24" width="256" x="0" y="42.333"/>
  <rect height="85.333504" id="rect2772" style="fill:#ffffff" width="256" x="0" y="84.999741"/>
  <path d="M 126.83585,84.999739 L 125.43632,87.330953 C 124.66662,88.613326 122.80182,90.538159 121.29815,91.604841 C 119.79448,92.671513 117.98205,94.259796 117.26067,95.134958 L 115.94169,96.722411 L 117.34122,96.35607 C 118.10792,96.1535 119.10674,95.828969 119.56636,95.634509 C 120.026,95.440049 120.40205,95.548219 120.40205,95.878739 C 120.40205,95.887589 120.40274,95.90283 120.40205,95.91204 C 120.40022,95.93067 120.39651,95.95871 120.39199,95.97865 C 120.18928,96.800951 117.78721,98.685435 115.88128,99.475456 C 114.05703,100.23163 111.35238,102.20588 110.99804,102.99447 C 110.98964,103.01403 110.98328,103.04308 110.9779,103.06108 C 110.97547,103.06996 110.96949,103.08592 110.96784,103.09439 C 110.96645,103.10271 110.96843,103.11978 110.96784,103.12769 C 110.96773,103.13028 110.96785,103.13625 110.96784,103.13879 C 110.96782,103.14097 110.96776,103.14775 110.96784,103.14989 C 110.96799,103.15202 110.9676,103.15889 110.96784,103.161 C 110.96816,103.16307 110.96742,103.17005 110.96784,103.1721 C 110.9698,103.18019 110.97464,103.19771 110.9779,103.20539 C 110.98059,103.21109 110.98456,103.22215 110.98797,103.2276 C 110.98919,103.22939 110.99675,103.23694 110.99804,103.2387 C 111.00078,103.24218 111.00506,103.24643 111.00811,103.2498 C 111.00971,103.25146 111.0165,103.25927 111.01818,103.26091 C 111.02517,103.26734 111.04021,103.2771 111.04838,103.28311 C 111.262,103.43228 111.84989,103.45495 112.52846,103.30531 C 113.71871,103.04284 114.20939,103.20576 114.60258,104.01578 C 115.20402,105.25482 114.85927,105.81415 113.4749,105.81414 C 111.80062,105.81414 109.41737,107.49556 109.09509,108.91133 C 108.87899,109.86058 107.96556,110.63478 106.00405,111.53116 C 102.80161,112.99461 98.668885,115.78874 98.382162,116.64873 C 98.374922,116.67266 98.373014,116.70571 98.372096,116.72644 C 98.372096,117.94548 101.0694,117.86048 104.97705,116.51552 C 105.85317,116.21397 106.23939,116.52104 106.90014,118.02525 C 107.71809,119.88731 107.70516,119.93291 105.80268,122.38795 C 104.4741,124.10241 103.30599,124.98655 102.03704,125.25202 C 99.508849,125.78093 98.723065,126.29441 95.442156,129.57031 C 93.872015,131.13804 92.295933,132.43536 91.938297,132.44548 C 91.798077,132.44944 91.704931,132.47069 91.656383,132.51208 C 91.654803,132.51355 91.647785,132.52167 91.646314,132.52319 C 91.644935,132.52472 91.637521,132.53271 91.636241,132.53428 C 91.635156,132.53593 91.627165,132.5437 91.626179,132.54539 C 91.625281,132.54711 91.62697,132.55473 91.626179,132.55649 C 91.625465,132.55828 91.616713,132.56576 91.616106,132.56759 C 91.615584,132.56945 91.616536,132.57678 91.616106,132.57869 C 91.615775,132.58062 91.616345,132.58782 91.616106,132.58979 C 91.615952,132.59179 91.616167,132.59886 91.616106,132.6009 C 91.61616,132.60501 91.615703,132.61884 91.616106,132.62309 C 91.616393,132.62524 91.615727,132.63201 91.616106,132.6342 C 91.617952,132.64304 91.622977,132.65818 91.626179,132.66749 C 91.627947,132.67222 91.634149,132.68488 91.636241,132.6897 C 91.638494,132.69458 91.643733,132.70692 91.646314,132.7119 C 91.910223,133.19741 93.642131,134.15503 94.616525,134.15503 C 95.329625,134.15503 97.067445,133.33985 98.472779,132.34557 C 100.93906,130.60069 101.06102,130.57455 102.05718,131.5685 C 102.62481,132.13487 103.09424,133.23287 103.09424,133.99962 C 103.09424,135.16835 102.46618,135.70253 99.227918,137.35213 C 96.831962,138.57264 94.018178,140.67047 91.817482,142.86933 C 88.859699,145.82466 88.020569,146.36983 86.763073,146.16634 C 85.969138,146.03786 85.525207,145.98426 85.38368,146.06643 C 85.379154,146.06943 85.367361,146.07417 85.363538,146.07753 C 85.361811,146.0793 85.355039,146.08677 85.353472,146.08862 C 85.352086,146.09057 85.344618,146.09769 85.343413,146.09973 C 85.338204,146.11039 85.334265,146.13111 85.333337,146.14414 C 85.332456,146.29542 85.599529,146.60414 86.078406,147.13212 C 86.53184,147.63206 87.584167,148.04241 88.41431,148.04241 C 90.67902,148.04241 97.837926,145.37415 100.04347,143.713 C 102.09114,142.17077 104.08191,141.87335 105.73219,142.84713 C 108.28533,144.35364 104.01605,147.38727 95.975789,149.78526 C 93.01801,150.66741 90.455098,151.52592 90.125954,151.73905 C 90.121199,151.74234 90.109399,151.74719 90.105825,151.75014 C 90.10434,151.75154 90.09693,151.75995 90.095753,151.76125 C 90.094653,151.76263 90.086741,151.77091 90.085687,151.77235 C 90.084669,151.77383 90.08667,151.78193 90.085687,151.78344 C 89.970579,151.97404 90.140546,152.47579 90.488429,152.93795 C 91.327939,154.05322 95.55256,154.10704 99.157439,153.03787 C 100.60018,152.60996 104.1932,151.1563 107.14179,149.81856 C 112.48999,147.39217 112.50982,147.39641 114.38107,148.37543 C 118.72902,150.65025 118.32731,154.63083 113.10236,161.17491 C 110.82695,164.0248 108.80812,165.29592 105.13815,166.19256 C 103.7804,166.52429 100.98991,169.15354 100.98991,170.10012 C 100.98991,170.19355 101.00812,170.2673 101.03019,170.33323 L 101.96656,170.33323 C 102.17222,170.183 102.38221,169.9665 102.59081,169.68938 C 103.74768,168.15251 106.08078,167.12723 108.44063,167.11395 C 111.00479,167.09951 114.14604,165.69146 116.50552,163.49502 C 118.57848,161.56531 120.66083,160.99008 122.23453,161.91868 C 123.10636,162.43311 123.89955,162.48444 124.95303,162.08519 C 126.82639,161.37525 127.75208,161.71841 127.75208,163.11758 C 127.75208,163.7468 128.4114,164.59078 129.31271,165.10466 C 130.17447,165.59599 131.71213,166.79858 132.72594,167.78001 C 133.49809,168.52748 134.06071,168.86886 134.35705,168.86791 C 134.36835,168.86761 134.3868,168.86926 134.39732,168.86791 C 134.40506,168.8667 134.42024,168.86971 134.42753,168.86791 C 134.43229,168.86658 134.4431,168.85839 134.44766,168.85682 C 134.45211,168.8551 134.46356,168.84768 134.4678,168.84571 C 134.48025,168.83939 134.49747,168.83212 134.50807,168.8235 C 134.50979,168.822 134.51647,168.81397 134.51815,168.81241 C 134.51975,168.81078 134.52665,168.803 134.52822,168.8013 C 134.52972,168.79955 134.53682,168.79201 134.53828,168.7902 C 134.53968,168.78832 134.54699,168.78104 134.54835,168.7791 C 134.55225,168.77308 134.55499,168.76349 134.55842,168.75689 C 134.5606,168.75238 134.56652,168.73947 134.56849,168.73469 C 134.57035,168.7298 134.5769,168.71764 134.57855,168.71249 C 134.58088,168.7046 134.58678,168.68766 134.58862,168.67919 C 134.59087,168.66766 134.58723,168.6473 134.58862,168.63479 C 134.61872,168.30614 134.3641,167.64465 133.77307,166.71431 C 133.42569,166.16751 133.24878,165.62251 133.29986,165.34889 C 133.30258,165.33573 133.30605,165.31629 133.30992,165.30448 C 133.31155,165.29987 133.31817,165.28667 133.31999,165.28228 C 133.32095,165.28014 133.31898,165.27325 133.31999,165.27117 C 133.32104,165.26916 133.32896,165.26204 133.33006,165.26007 C 133.33577,165.25055 133.34329,165.23478 133.35019,165.22677 C 133.35162,165.22523 133.35879,165.21715 133.36026,165.21567 C 133.36483,165.21143 133.3754,165.20824 133.3804,165.20457 C 133.38211,165.20341 133.38856,165.1946 133.39047,165.19347 C 133.39466,165.19125 133.40566,165.18448 133.4106,165.18236 C 133.73771,165.05585 135.47109,165.12036 137.36754,165.33778 C 140.70344,165.72023 141.10781,165.92074 143.0764,168.20185 C 144.04856,169.32833 144.8463,170.03601 145.49285,170.33323 L 146.83196,170.33323 C 147.11745,170.20468 147.31885,170.01845 147.36559,169.83369 C 147.36675,169.8287 147.37474,169.81649 147.37566,169.81149 C 147.37687,169.804 147.37499,169.78568 147.37566,169.77819 C 147.37599,169.7732 147.37557,169.76097 147.37566,169.75599 C 147.37563,169.75101 147.37593,169.73876 147.37566,169.73379 C 147.37556,169.73254 147.37582,169.72397 147.37566,169.72268 C 147.37523,169.72 147.37635,169.71446 147.37566,169.71158 C 147.26101,169.32847 145.28569,167.44923 142.9153,165.47099 C 137.52802,160.97501 136.70199,159.33201 136.68288,153.10447 C 136.67145,149.38016 136.84822,148.42626 137.71994,147.46515 C 139.07788,145.96796 139.82379,146.00414 143.15695,147.74267 C 145.67409,149.05558 146.45609,149.16522 152.17836,149.04149 C 158.32373,148.90861 158.50357,148.94699 161.59244,150.76216 C 163.32374,151.77954 165.43887,153.14198 166.30452,153.79273 C 168.21549,155.22929 170.15595,155.33039 170.61385,154.01475 C 171.15461,152.46103 167.52177,149.44743 160.69634,145.8111 C 153.90901,142.19506 153.19807,141.18391 156.32659,139.53902 C 158.10603,138.60346 158.22929,138.6212 161.04874,140.19398 C 163.30885,141.45475 164.34251,141.7258 165.79102,141.42621 L 167.64364,141.03767 L 163.56587,137.69626 C 161.32375,135.85893 159.15486,133.90983 158.74304,133.35577 C 157.5523,131.75367 155.24922,130.69153 152.98384,130.69152 C 151.9223,130.69152 150.93066,130.48803 150.65801,130.23638 C 150.64918,130.22781 150.63493,130.21175 150.6278,130.20307 C 150.62612,130.2009 150.6193,130.19416 150.61773,130.19198 C 150.61482,130.18759 150.61014,130.17418 150.60767,130.16978 C 149.97052,129.03312 151.88927,128.49338 157.24283,128.28259 C 164.45523,127.99862 165.44743,127.15822 160.47483,125.55176 C 158.48922,124.91027 155.51393,124.09846 153.8598,123.74227 C 151.84292,123.30797 150.72486,122.83449 150.44657,122.28805 C 150.41605,122.22576 150.39522,122.15276 150.38617,122.08823 C 150.38032,122.04059 150.38045,121.98175 150.38617,121.93282 C 150.41085,121.74721 150.5211,121.55091 150.70835,121.34446 C 151.04706,120.97102 152.66533,121.01267 155.42043,121.47767 C 158.50878,121.99893 160.19928,122.11569 160.50504,121.7552 C 160.82314,121.34066 159.39983,120.30855 156.25611,118.56921 C 153.39188,116.98449 149.7771,114.41991 148.13081,112.79668 C 146.49937,111.1881 144.076,109.3584 142.75421,108.7337 C 141.00962,107.9092 140.44466,107.34974 140.67002,106.70222 C 141.06316,105.57268 143.80832,105.56119 145.58347,106.68002 C 146.30484,107.13468 148.19503,107.50155 149.78204,107.49039 L 152.67172,107.46818 L 150.75869,106.69112 C 148.84795,105.91617 143.65032,102.21926 143.24756,101.38484 C 143.24017,101.36835 143.23076,101.34339 143.22743,101.32933 C 143.22642,101.32391 143.22776,101.31215 143.22743,101.30713 C 143.22743,101.30561 143.22727,101.29753 143.22743,101.29603 C 143.22774,101.29454 143.22696,101.2864 143.22743,101.28493 C 143.2282,101.28348 143.23656,101.27526 143.2375,101.27382 C 143.23967,101.27098 143.24479,101.26551 143.24756,101.26272 C 143.2491,101.26134 143.25595,101.253 143.25764,101.25163 C 143.47023,101.09461 144.66879,101.02751 146.10703,101.10732 L 148.9967,101.27382 L 144.83839,98.065634 C 141.78758,95.714859 139.90752,94.702957 137.76021,94.246886 C 136.15104,93.905106 134.30626,93.498835 133.66232,93.347705 C 131.93775,92.942924 129.04159,89.924398 127.86284,87.297653 L 126.83585,84.999739 z M 117.36136,101.18502 C 117.42426,101.18272 117.49318,101.18502 117.56273,101.18502 C 118.09885,101.18502 118.48846,101.31572 118.65013,101.51805 C 118.65377,101.52279 118.66688,101.53542 118.67026,101.54025 C 118.67353,101.54512 118.67733,101.5575 118.68033,101.56245 C 118.69764,101.59239 118.71267,101.6297 118.72061,101.66236 C 118.72239,101.67058 118.72949,101.68729 118.73068,101.69566 C 118.73199,101.7069 118.73047,101.72854 118.73068,101.74007 C 118.73063,101.74876 118.73135,101.76454 118.73068,101.77337 C 118.7292,101.78817 118.72385,101.81368 118.72061,101.82887 C 118.71844,101.83803 118.71334,101.85289 118.71054,101.86218 C 118.59854,102.23263 117.99478,102.90821 117.36136,103.37192 C 116.87712,103.7264 116.58811,103.91932 116.42498,103.89366 C 116.41383,103.89133 116.39475,103.88703 116.38471,103.88257 C 116.37982,103.88005 116.36919,103.87451 116.36457,103.87146 C 116.35559,103.86482 116.34233,103.84702 116.33437,103.83815 C 116.2242,103.70398 116.20347,103.34355 116.20347,102.70585 C 116.20347,101.53851 116.41785,101.2194 117.36136,101.18502 z M 131.38683,102.62815 C 131.39948,102.62797 131.40425,102.62815 131.41703,102.62815 C 132.23537,102.62815 132.78558,103.01087 132.89711,103.64943 C 133.03526,104.44033 132.70686,104.65964 131.41703,104.65964 C 130.69151,104.65964 130.27137,104.58416 130.06785,104.38212 C 129.91694,104.22496 129.88767,103.98928 129.94703,103.64943 C 130.05682,103.02084 130.58975,102.63961 131.38683,102.62815 z M 127.27887,102.97228 C 127.99,102.91693 128.27565,103.33764 128.27565,104.2378 C 128.27565,105.3213 127.86126,105.65903 125.90954,106.15827 C 124.6784,106.4732 123.5495,106.61794 123.31186,106.50241 C 123.30634,106.49943 123.29614,106.4946 123.29173,106.4913 C 123.29038,106.49017 123.28288,106.48138 123.28166,106.48019 C 122.60599,105.73526 123.19822,104.77923 124.88255,103.89366 C 125.96605,103.324 126.74308,103.01399 127.27887,102.97228 z M 136.73323,102.98338 C 137.77516,102.94895 137.9068,103.44127 137.39774,104.90386 C 137.2226,105.40709 136.49735,105.81415 135.78678,105.81414 C 134.74707,105.81414 134.52419,105.5627 134.6591,104.51533 C 134.77914,103.58346 135.23706,103.15883 136.27007,103.02778 C 136.44126,103.00607 136.59491,102.98795 136.73323,102.98338 z M 120.78466,105.81414 C 120.82051,105.81106 120.86142,105.81414 120.89541,105.81414 C 122.15916,105.81414 121.37103,108.19742 119.7476,109.28877 C 118.30193,110.26059 116.7655,110.67773 116.33437,110.29896 C 116.33242,110.29717 116.3262,110.28968 116.3243,110.28786 C 116.2965,110.26001 116.27041,110.22358 116.25382,110.18795 C 116.25171,110.18312 116.24565,110.1707 116.24375,110.16574 C 116.24106,110.1582 116.2359,110.1403 116.23369,110.13244 C 116.23231,110.12712 116.22477,110.1157 116.22361,110.11024 C 116.22204,110.10195 116.22469,110.08554 116.22361,110.07694 C 116.22207,110.06241 116.21368,110.03686 116.21354,110.02143 C 116.21358,110.0183 116.21346,110.01349 116.21354,110.01033 C 116.24855,108.70855 119.29132,105.94274 120.78466,105.81414 z M 132.65546,111.33135 C 133.2575,111.25867 133.6392,111.91887 133.43075,113.12971 C 133.31468,113.80392 132.71283,114.26918 131.80971,114.38413 C 131.11949,114.47196 130.69405,114.44115 130.53101,114.2509 C 130.52948,114.24905 130.52241,114.2417 130.52094,114.23981 C 130.51382,114.2302 130.50672,114.21687 130.50079,114.2065 C 130.49853,114.20229 130.49281,114.18863 130.49072,114.18431 C 130.48974,114.18211 130.4816,114.17543 130.48066,114.1732 C 130.47618,114.16191 130.47388,114.14087 130.47059,114.1288 C 130.39008,113.80565 130.72158,113.20478 131.45731,112.23053 C 131.88306,111.66675 132.30613,111.37351 132.65546,111.33135 z M 127.93331,111.59777 C 127.96257,111.59551 127.98905,111.59777 128.01387,111.59777 C 129.22306,111.59777 129.41868,112.66257 128.32599,113.30732 C 127.8217,113.60489 127.33183,113.82719 127.16811,113.85127 C 127.16276,113.85187 127.15251,113.8623 127.14797,113.86237 C 127.14385,113.86219 127.13112,113.85199 127.12784,113.85127 C 127.03673,113.81956 126.36914,113.60461 125.64776,113.36283 L 124.33886,112.91879 L 125.81892,112.25273 C 126.58045,111.91263 127.49452,111.6317 127.93331,111.59777 z M 138.11261,112.92989 C 138.68409,112.89958 139.30263,113.0105 139.90481,113.26292 C 140.99764,113.72102 141.21007,114.11818 141.00228,115.31661 C 140.72012,116.94401 139.83151,117.12685 136.79363,116.16029 C 135.30128,115.68546 135.14779,115.45744 135.62568,114.47293 C 136.0816,113.53368 137.0216,112.98774 138.11261,112.92989 z M 115.57922,113.32952 C 115.61348,113.32917 115.64474,113.32952 115.67991,113.32952 C 117.89054,113.32952 118.19551,113.71383 117.11972,115.1279 C 116.75902,115.60199 116.07413,116.32383 115.58929,116.72644 C 114.84835,117.34171 114.62121,117.27641 114.1495,116.3046 C 113.588,115.14786 113.41284,114.3869 113.68634,113.92898 C 113.93899,113.52019 114.56002,113.34013 115.57922,113.32952 z M 109.75961,114.30641 C 110.70247,114.28085 111.28347,114.72612 112.0351,116.01598 L 113.0923,117.83653 L 111.51153,118.44709 C 110.06878,119.00161 109.82596,118.89703 108.63193,117.21489 C 107.87934,116.15462 107.59146,115.45144 107.79625,115.00579 C 107.8151,114.9665 107.83997,114.91915 107.86673,114.88367 C 107.87358,114.87488 107.88958,114.85893 107.89693,114.85037 C 107.90445,114.84189 107.91912,114.82533 107.92714,114.81706 C 108.19713,114.54709 108.74045,114.40044 109.56831,114.32862 C 109.63462,114.32286 109.69675,114.30812 109.75961,114.30641 z M 144.57662,119.75702 C 145.62405,119.67233 146.69341,120.41017 146.53998,121.59978 C 146.34509,123.11083 144.6946,123.5481 143.33818,122.45456 C 142.52812,121.80149 142.49825,121.55945 143.12675,120.6118 C 143.48674,120.06899 144.02796,119.80137 144.57662,119.75702 z M 124.81207,122.58778 C 124.85061,122.58531 124.8925,122.58778 124.9329,122.58778 C 125.02142,122.58778 125.10368,122.60651 125.17454,122.63218 C 125.21912,122.64924 125.26813,122.67155 125.30543,122.69878 C 125.31594,122.70677 125.33579,122.72328 125.34571,122.73209 C 125.35059,122.73659 125.36111,122.74958 125.36584,122.75429 C 125.3705,122.7591 125.38147,122.77147 125.38598,122.77649 C 125.39041,122.7816 125.40183,122.79337 125.40611,122.7987 C 125.5659,123.00466 125.62184,123.35742 125.55714,123.84219 C 125.34929,125.39963 124.31794,125.8566 123.8757,124.58595 C 123.48085,123.45147 123.86414,122.64839 124.81207,122.58778 z M 118.20711,123.78668 C 118.65091,123.72645 119.37987,124.02148 120.11006,124.63036 C 120.60629,125.04414 120.81191,125.44568 120.8048,125.74047 C 120.80369,125.76768 120.7994,125.80385 120.79472,125.82928 C 120.79154,125.84503 120.78919,125.86977 120.78466,125.88478 C 120.78083,125.89666 120.76919,125.91779 120.76452,125.92918 C 120.75721,125.94608 120.74345,125.96896 120.73432,125.98469 C 120.73117,125.98986 120.72759,126.00184 120.72425,126.0069 C 120.72081,126.01187 120.70774,126.02425 120.70411,126.0291 C 120.68733,126.05054 120.66427,126.07717 120.6437,126.09569 C 120.63903,126.09974 120.6284,126.11401 120.62356,126.11789 C 120.32019,126.35269 119.67743,126.2972 118.94212,125.72936 C 118.33451,125.26014 117.82998,124.64671 117.78423,124.33063 C 117.7836,124.32553 117.78461,124.31337 117.78423,124.30843 C 117.78398,124.30357 117.78423,124.29092 117.78423,124.28622 C 117.78423,123.98524 117.94083,123.82282 118.20711,123.78668 z M 128.7086,124.0087 C 128.91353,123.99097 129.12622,124.19163 129.48387,124.58595 C 129.93273,125.08084 130.45998,126.02872 130.65183,126.69515 C 131.11278,128.29645 130.38448,128.96537 128.96031,128.23819 C 127.43123,127.45744 127.05939,126.2217 127.94339,124.83018 C 128.28084,124.299 128.49044,124.02758 128.7086,124.0087 z M 132.37355,126.18451 C 132.76227,126.13142 133.28974,126.71317 133.42067,127.69424 C 133.49703,128.26639 133.4176,128.75409 133.23944,128.90425 C 133.23774,128.9056 133.23108,128.91406 133.22937,128.91534 C 133.22417,128.91906 133.21458,128.92329 133.20923,128.92645 C 133.20204,128.9304 133.18648,128.93462 133.17903,128.93755 C 133.17714,128.93822 133.17086,128.94806 133.16896,128.94866 C 133.16705,128.94919 133.16082,128.94818 133.15889,128.94866 C 133.155,128.94947 133.1427,128.94811 133.13875,128.94866 C 133.13676,128.94885 133.13069,128.94852 133.12869,128.94866 C 133.12667,128.94872 133.12065,128.94866 133.11861,128.94866 C 132.36941,128.94866 131.94059,128.27309 131.94059,127.07258 C 131.94059,126.49831 132.13243,126.21743 132.37355,126.18451 z M 109.35687,128.49351 C 110.12784,128.4927 110.80435,128.5346 111.24975,128.62673 C 111.98497,128.7788 112.474,128.98882 112.7097,129.23729 C 112.7595,129.2914 112.80417,129.35647 112.83051,129.41489 C 112.84304,129.44423 112.85406,129.48442 112.86072,129.5148 C 112.87273,129.57581 112.87216,129.64946 112.86072,129.71462 C 112.77291,130.16508 112.12637,130.71459 110.92756,131.34648 C 109.93336,131.87052 108.2512,132.47509 107.18207,132.67859 C 105.40684,133.01652 105.1634,132.89119 104.42328,131.31317 C 103.98451,130.37766 103.62895,129.48748 103.61781,129.31499 C 103.61781,129.31286 103.61762,129.30601 103.61781,129.30388 C 103.6185,129.29963 103.6164,129.28593 103.61781,129.28168 C 103.61867,129.27956 103.62683,129.2727 103.62787,129.27058 C 103.63029,129.26634 103.63485,129.25261 103.63794,129.24838 C 103.63965,129.24627 103.64613,129.2394 103.64801,129.23729 C 104.01903,128.85333 107.09368,128.49589 109.35687,128.49351 z M 145.0599,133.68879 C 147.12724,133.59742 148.2427,134.99564 145.99628,136.73046 C 144.55108,137.84652 142.42901,137.89131 141.11304,136.83037 C 140.16618,136.06703 140.21445,135.9578 141.93865,134.79889 C 143.02886,134.06613 144.13719,133.72957 145.0599,133.68879 z M 152.59117,135.32064 C 152.62779,135.31615 152.66876,135.32077 152.70193,135.32064 C 153.00746,135.31945 153.71251,135.67945 154.27261,136.13102 C 155.27027,136.93533 155.26688,136.9888 154.02091,138.45112 C 153.37601,139.20797 152.71861,139.80146 152.49048,139.84985 C 152.48861,139.85017 152.48223,139.8496 152.48042,139.84985 C 152.47866,139.85002 152.47203,139.84976 152.47034,139.84985 C 152.46873,139.84987 152.46183,139.84992 152.46027,139.84985 C 152.45878,139.8497 152.45163,139.85008 152.45021,139.84985 C 152.28409,139.79894 151.37428,139.65623 150.4365,139.52792 C 149.39325,139.38518 148.73491,138.96478 148.73492,138.45112 C 148.73492,138.4283 148.74074,138.39834 148.74499,138.37342 C 148.91081,137.50882 151.49255,135.45532 152.59117,135.32064 z M 114.7234,137.62965 C 114.81928,137.62428 114.93371,137.62965 115.05566,137.62965 C 116.47714,137.62965 117.26067,138.79968 117.26067,140.92666 C 117.26067,143.78461 115.51815,143.55531 114.71333,140.59363 C 114.01262,138.01504 113.94263,137.67341 114.7234,137.62965 z M 125.54707,138.44003 C 126.40407,138.41283 128.4782,138.89109 128.74887,139.21709 C 128.75012,139.21871 128.75777,139.22659 128.75894,139.2282 C 128.75992,139.22978 128.76812,139.23771 128.76901,139.23929 C 128.7698,139.24087 128.7683,139.24883 128.76901,139.25039 C 128.76962,139.25195 128.77857,139.25994 128.77908,139.2615 C 128.77939,139.26303 128.77885,139.27108 128.77908,139.2726 C 128.7792,139.27411 128.77905,139.2822 128.77908,139.2837 C 128.779,139.28528 128.77922,139.29313 128.77908,139.2948 C 128.75198,139.51581 128.19722,140.41652 127.53058,141.31519 L 126.30222,142.96924 L 125.65783,140.83785 C 125.33966,139.77493 125.14383,138.81743 125.18461,138.57324 C 125.185,138.57123 125.18419,138.56403 125.18461,138.56213 C 125.18553,138.55857 125.19362,138.55416 125.19467,138.55103 C 125.19525,138.54958 125.19408,138.54128 125.19467,138.53993 C 125.19596,138.53746 125.20332,138.53085 125.20475,138.52882 C 125.20726,138.52634 125.21194,138.5201 125.21481,138.51773 C 125.21633,138.51658 125.22327,138.50776 125.22488,138.50663 C 125.22658,138.50553 125.23317,138.5077 125.23495,138.50663 C 125.23682,138.50559 125.24307,138.49654 125.24502,138.49553 C 125.2491,138.49358 125.26075,138.48626 125.26516,138.48443 C 125.32911,138.45961 125.42769,138.44381 125.54707,138.44003 z M 120.28123,139.3836 C 120.43648,139.36824 120.67962,139.40849 121.01623,139.46131 C 121.69099,139.56721 122.31218,140.12796 122.41576,140.72683 C 122.5415,141.45378 122.47168,141.96122 122.29493,142.22548 C 122.281,142.24561 122.25984,142.27487 122.2446,142.29208 C 122.22697,142.31128 122.2034,142.33221 122.18419,142.34758 C 122.17691,142.35316 122.16147,142.36475 122.15398,142.36979 C 122.11872,142.39245 122.07259,142.41453 122.03316,142.42529 C 122.01614,142.42953 121.99044,142.43435 121.97275,142.4364 C 121.94306,142.43918 121.90344,142.43978 121.87206,142.4364 C 121.52199,142.39189 121.06894,141.95761 120.6739,141.11537 C 120.21859,140.14461 120.00955,139.68444 120.08993,139.49461 C 120.09647,139.48124 120.11039,139.4608 120.12013,139.45022 C 120.15543,139.41603 120.20792,139.39086 120.28123,139.3836 z" id="path2774" style="fill:#00a651"/>
</svg>
