<?xml version="1.0" encoding="UTF-8" standalone="no"?>
<!-- Created with Inkscape (http://www.inkscape.org/) --><svg height="256" id="svg2" inkscape:output_extension="org.inkscape.output.svg.inkscape" inkscape:version="0.46" sodipodi:docname="Flag_of_Macau.svg" sodipodi:version="0.32" version="1.0" width="256" xmlns="http://www.w3.org/2000/svg" xmlns:cc="http://creativecommons.org/ns#" xmlns:dc="http://purl.org/dc/elements/1.1/" xmlns:inkscape="http://www.inkscape.org/namespaces/inkscape" xmlns:rdf="http://www.w3.org/1999/02/22-rdf-syntax-ns#" xmlns:sodipodi="http://sodipodi.sourceforge.net/DTD/sodipodi-0.dtd" xmlns:svg="http://www.w3.org/2000/svg">
  <metadata>
    <rdf:RDF xmlns:cc="http://web.resource.org/cc/" xmlns:dc="http://purl.org/dc/elements/1.1/" xmlns:rdf="http://www.w3.org/1999/02/22-rdf-syntax-ns#">
      <cc:Work rdf:about="">
        <dc:title></dc:title>
        <dc:description></dc:description>
        <dc:subject>
          <rdf:Bag>
            <rdf:li>unsorted</rdf:li>
          </rdf:Bag>
        </dc:subject>
        <dc:publisher>
          <cc:Agent rdf:about="http://www.openclipart.org/">
            <dc:title>Open Clip Art Library, Source: Wikimedia Commons</dc:title>
          </cc:Agent>
        </dc:publisher>
        <dc:creator>
          <cc:Agent>
            <dc:title></dc:title>
          </cc:Agent>
        </dc:creator>
        <dc:rights>
          <cc:Agent>
            <dc:title></dc:title>
          </cc:Agent>
        </dc:rights>
        <dc:date></dc:date>
        <dc:format>image/svg+xml</dc:format>
        <dc:type rdf:resource="http://purl.org/dc/dcmitype/StillImage"/>
        <cc:license rdf:resource="http://web.resource.org/cc/PublicDomain"/>
        <dc:language>en</dc:language>
      </cc:Work>
      <cc:License rdf:about="http://web.resource.org/cc/PublicDomain">
        <cc:permits rdf:resource="http://web.resource.org/cc/Reproduction"/>
        <cc:permits rdf:resource="http://web.resource.org/cc/Distribution"/>
        <cc:permits rdf:resource="http://web.resource.org/cc/DerivativeWorks"/>
      </cc:License>
    </rdf:RDF>
  </metadata>
  <sodipodi:namedview bordercolor="#666666" borderopacity="1.0" gridtolerance="10.0" guidetolerance="10.0" id="base" inkscape:current-layer="svg2" inkscape:cx="1440" inkscape:cy="960" inkscape:pageopacity="0.0" inkscape:pageshadow="2" inkscape:window-height="733" inkscape:window-width="828" inkscape:window-x="41" inkscape:window-y="49" inkscape:zoom="0.19409722" objecttolerance="10.0" pagecolor="#ffffff" showgrid="false"/>
  <defs id="defs4">
    <inkscape:perspective id="perspective3016" inkscape:persp3d-origin="1440 : 640 : 1" inkscape:vp_x="0 : 960 : 1" inkscape:vp_y="0 : 1000 : 0" inkscape:vp_z="2880 : 960 : 1" sodipodi:type="inkscape:persp3d"/>
  </defs>
  <rect height="170.66701" id="rect3348" style="fill:#00785e;fill-opacity:1;stroke:none;stroke-width:0;stroke-miterlimit:4;stroke-dasharray:none;stroke-opacity:1" width="256" x="0" y="42.333"/>
  <path d="M 128,74.510788 L 125.89723,80.9914 L 119.08055,80.9914 L 124.59444,84.996908 L 122.48889,91.47472 L 128,87.474713 L 133.51111,91.47472 L 131.40556,84.996908 L 136.91945,80.9914 L 130.10277,80.9914 L 128,74.510788 z M 101.10556,85.88031 L 102.48612,90.388618 L 98.622222,93.091424 L 103.33611,93.174724 L 104.71388,97.683032 L 106.25,93.224724 L 110.96389,93.305324 L 107.2,90.469119 L 108.73333,86.01081 L 104.86944,88.716415 L 101.10556,85.88031 z M 154.89444,85.88031 L 151.13056,88.716415 L 147.26667,86.01081 L 148.8,90.469119 L 145.03611,93.305324 L 149.75,93.224724 L 151.28612,97.683032 L 152.66389,93.174724 L 157.37778,93.091424 L 153.51388,90.388618 L 154.89444,85.88031 z M 92.175004,100.77474 L 90.183333,105.04695 L 85.505556,104.47195 L 88.952782,107.68585 L 86.961111,111.96086 L 91.083333,109.67476 L 94.53056,112.88866 L 93.633333,108.26085 L 97.752782,105.97475 L 93.075004,105.40255 L 92.175004,100.77474 z M 163.825,100.77474 L 162.925,105.40255 L 158.24722,105.97475 L 162.36667,108.26085 L 161.46944,112.88866 L 164.91667,109.67476 L 169.03889,111.96086 L 167.04722,107.68585 L 170.49444,104.47195 L 165.81667,105.04695 L 163.825,100.77474 z" id="path3370" style="fill:#fbd116;fill-opacity:1;fill-rule:evenodd;stroke:none;stroke-width:0;stroke-linecap:butt;stroke-linejoin:miter;stroke-miterlimit:4;stroke-dasharray:none;stroke-opacity:1"/>
  <path d="M 128,96.946931 C 121.8779,102.23754 118,110.05736 118,118.77757 C 118,124.70878 119.79324,130.2224 122.86667,134.8081 C 119.09226,129.93239 116.84444,123.81628 116.84444,117.17757 C 116.84444,112.76786 117.83669,108.58845 119.60834,104.84975 C 118.38477,103.55664 117.45532,101.98234 116.93056,100.23304 C 114.55618,104.42375 113.2,109.26465 113.2,114.42196 C 113.2,120.83718 115.29797,126.76389 118.84444,131.5554 C 112.66816,125.08069 103.95887,121.04418 94.311111,121.04418 C 93.792693,121.04418 93.276613,121.05728 92.763893,121.08038 C 93.734649,121.98518 94.54952,123.05438 95.163893,124.24418 C 104.76064,124.25888 113.42434,128.26929 119.58612,134.697 C 113.70142,129.78189 106.12751,126.82199 97.866667,126.82199 C 93.250089,126.82199 88.848675,127.74609 84.836111,129.41919 C 88.958764,140.31301 99.490071,148.06653 111.82222,148.06653 C 112.62075,148.06653 113.41235,148.03053 114.19444,147.96653 C 112.53036,148.26553 110.81637,148.42203 109.06667,148.42203 C 101.28602,148.42203 94.223404,145.33582 89.033333,140.32201 C 87.952963,140.73772 86.794322,140.99732 85.586111,141.06922 C 90.872347,147.04853 98.5976,150.82203 107.2,150.82203 C 115.37099,150.82203 122.7506,147.41833 128,141.95262 C 133.2494,147.41833 140.62902,150.82203 148.8,150.82203 C 157.40241,150.82203 165.12765,147.04853 170.41388,141.06922 C 169.20569,140.99732 168.04705,140.73772 166.96667,140.32201 C 161.7766,145.33582 154.71399,148.42203 146.93333,148.42203 C 145.18364,148.42203 143.46964,148.26553 141.80556,147.96653 C 142.58764,148.03053 143.37926,148.06653 144.17778,148.06653 C 156.50994,148.06653 167.04124,140.31301 171.16389,129.41919 C 167.15132,127.74609 162.74992,126.82199 158.13333,126.82199 C 149.8725,126.82199 142.29858,129.78189 136.41388,134.697 C 142.57566,128.26929 151.23936,124.25888 160.83611,124.24418 C 161.45048,123.05438 162.26535,121.98518 163.23611,121.08038 C 162.72339,121.05728 162.20732,121.04418 161.68889,121.04418 C 152.04114,121.04418 143.33185,125.08069 137.15556,131.5554 C 140.70204,126.76389 142.8,120.83718 142.8,114.42196 C 142.8,109.26465 141.44382,104.42375 139.06944,100.23304 C 138.54468,101.98234 137.61523,103.55664 136.39166,104.84975 C 138.16331,108.58845 139.15556,112.76786 139.15556,117.17757 C 139.15556,123.81628 136.90775,129.93239 133.13333,134.8081 C 136.20676,130.2224 138,124.70878 138,118.77757 C 138,110.05736 134.1221,102.23754 128,96.946931 z M 128,145.06372 C 122.8216,150.00773 115.80822,153.04424 108.08889,153.04424 L 85.641667,153.04424 C 86.303413,154.01674 86.996848,154.96574 87.722222,155.88874 L 109.42222,155.88874 C 116.49803,155.88874 122.97993,153.33584 128,149.10263 C 133.02007,153.33584 139.50198,155.88874 146.57778,155.88874 L 168.27778,155.88874 C 169.00316,154.96574 169.69659,154.01674 170.35833,153.04424 L 147.91111,153.04424 C 140.19179,153.04424 133.17841,150.00773 128,145.06372 z M 90.211111,158.82205 C 90.652453,159.30445 91.104516,159.77885 91.563893,160.24425 L 164.43611,160.24425 C 164.89548,159.77885 165.34755,159.30445 165.78889,158.82205 L 90.211111,158.82205 z M 94.708338,163.17766 C 95.608987,163.94956 96.53568,164.69106 97.488889,165.39986 L 128,165.39986 L 158.51111,165.39986 C 159.46433,164.69106 160.39101,163.94956 161.29166,163.17766 L 128,163.17766 L 94.708338,163.17766 z M 100.73056,167.62207 C 102.38176,168.66387 104.09546,169.61547 105.86667,170.46657 L 128,170.46657 L 150.13333,170.46657 C 151.90455,169.61547 153.61824,168.66387 155.26944,167.62207 L 128,167.62207 L 100.73056,167.62207 z M 109.11667,171.88878 C 114.96086,174.21128 121.33158,175.48878 128,175.48878 C 134.66842,175.48878 141.03913,174.21128 146.88333,171.88878 L 128,171.88878 L 109.11667,171.88878 z" id="path3169" style="fill:#ffffff;fill-opacity:1;fill-rule:evenodd;stroke:none;stroke-width:0;stroke-linecap:butt;stroke-linejoin:miter;stroke-miterlimit:4;stroke-dasharray:none;stroke-opacity:1"/>
</svg>
