<?xml version="1.0" encoding="UTF-8" standalone="no"?>
<!-- Created with Inkscape (http://www.inkscape.org/) --><svg height="256" id="svg2" inkscape:output_extension="org.inkscape.output.svg.inkscape" inkscape:version="0.46" sodipodi:docbase="C:\Documents and Settings\David Nelson\Archives\Svg" sodipodi:docname="Flag_of_Gibraltar.svg" sodipodi:version="0.32" version="1.0" width="256" xmlns="http://www.w3.org/2000/svg" xmlns:cc="http://creativecommons.org/ns#" xmlns:dc="http://purl.org/dc/elements/1.1/" xmlns:inkscape="http://www.inkscape.org/namespaces/inkscape" xmlns:rdf="http://www.w3.org/1999/02/22-rdf-syntax-ns#" xmlns:sodipodi="http://sodipodi.sourceforge.net/DTD/sodipodi-0.dtd" xmlns:svg="http://www.w3.org/2000/svg">
  <metadata>
    <rdf:RDF xmlns:cc="http://web.resource.org/cc/" xmlns:dc="http://purl.org/dc/elements/1.1/" xmlns:rdf="http://www.w3.org/1999/02/22-rdf-syntax-ns#">
      <cc:Work rdf:about="">
        <dc:title></dc:title>
        <dc:description></dc:description>
        <dc:subject>
          <rdf:Bag>
            <rdf:li>unsorted</rdf:li>
          </rdf:Bag>
        </dc:subject>
        <dc:publisher>
          <cc:Agent rdf:about="http://www.openclipart.org/">
            <dc:title>Open Clip Art Library, Source: Wikimedia Commons</dc:title>
          </cc:Agent>
        </dc:publisher>
        <dc:creator>
          <cc:Agent>
            <dc:title></dc:title>
          </cc:Agent>
        </dc:creator>
        <dc:rights>
          <cc:Agent>
            <dc:title></dc:title>
          </cc:Agent>
        </dc:rights>
        <dc:date></dc:date>
        <dc:format>image/svg+xml</dc:format>
        <dc:type rdf:resource="http://purl.org/dc/dcmitype/StillImage"/>
        <cc:license rdf:resource="http://web.resource.org/cc/PublicDomain"/>
        <dc:language>en</dc:language>
      </cc:Work>
      <cc:License rdf:about="http://web.resource.org/cc/PublicDomain">
        <cc:permits rdf:resource="http://web.resource.org/cc/Reproduction"/>
        <cc:permits rdf:resource="http://web.resource.org/cc/Distribution"/>
        <cc:permits rdf:resource="http://web.resource.org/cc/DerivativeWorks"/>
      </cc:License>
    </rdf:RDF>
  </metadata>
  <defs id="defs4">
    <inkscape:perspective id="perspective2492" inkscape:persp3d-origin="500 : 166.66667 : 1" inkscape:vp_x="0 : 250 : 1" inkscape:vp_y="0 : 1000 : 0" inkscape:vp_z="1000 : 250 : 1" sodipodi:type="inkscape:persp3d"/>
  </defs>
  <sodipodi:namedview bordercolor="#666666" borderopacity="1.0" id="base" inkscape:current-layer="layer1" inkscape:cx="500" inkscape:cy="250" inkscape:document-units="px" inkscape:guide-bbox="true" inkscape:pageopacity="0.0" inkscape:pageshadow="2" inkscape:window-height="674" inkscape:window-width="756" inkscape:window-x="0" inkscape:window-y="128" inkscape:zoom="0.665" pagecolor="#ffffff" showgrid="false" showguides="true"/>
  <g id="layer1" inkscape:groupmode="layer" inkscape:label="Layer 1">
    <g id="g3069" transform="matrix(0.5,0,0,0.5,0,63.999992)">
      <rect height="256" id="rect2813" style="opacity:1;fill:#ffffff;fill-opacity:1;fill-rule:nonzero;stroke:none;stroke-width:1;stroke-linecap:butt;stroke-linejoin:miter;stroke-miterlimit:4;stroke-dasharray:none;stroke-dashoffset:0.99999998;stroke-opacity:1" width="512" x="0" y="0"/>
      <rect height="84.5" id="rect2943" style="opacity:1;fill:#da000c;fill-opacity:1;fill-rule:nonzero;stroke:none;stroke-width:1;stroke-linecap:square;stroke-linejoin:miter;stroke-miterlimit:4;stroke-dasharray:none;stroke-dashoffset:0.99999998;stroke-opacity:1" width="512" x="0" y="171.50002"/>
      <g id="g2968">
        <path d="M 235.78125,227.5625 L 235.78125,235.59375 L 240.8125,235.59375 L 240.8125,231.5625 L 247.65625,231.5625 L 247.65625,235.59375 L 253.0625,235.59375 L 253.0625,227.5625 L 235.78125,227.5625 z M 235.78125,238.625 L 235.78125,246.6875 L 253.0625,246.6875 L 253.0625,238.625 L 247.65625,238.625 L 247.65625,242.65625 L 240.8125,242.65625 L 240.8125,238.625 L 235.78125,238.625 z" id="rect2744" style="fill:#f8d80e;fill-opacity:1;fill-rule:nonzero;stroke:#000000;stroke-width:1;stroke-linecap:butt;stroke-linejoin:miter;stroke-miterlimit:4;stroke-dasharray:none;stroke-dashoffset:0.99999998;stroke-opacity:1"/>
        <rect height="43.992859" id="rect2578" style="fill:#000000;fill-opacity:1;fill-rule:nonzero;stroke:none;stroke-width:1;stroke-linecap:butt;stroke-linejoin:miter;stroke-miterlimit:4;stroke-dasharray:none;stroke-dashoffset:0.99999998;stroke-opacity:1" width="118.85789" x="196.57106" y="116.30338"/>
        <path d="M 229.81889,153.86465 L 190.75,153.86465 L 182.08989,159.56444 L 182.08989,165.60411 L 229.81889,165.60411" id="path2241" style="fill:#da000c;fill-opacity:1;fill-rule:nonzero;stroke:#000000;stroke-width:1;stroke-linecap:square;stroke-linejoin:miter;stroke-miterlimit:4;stroke-dashoffset:0.99999998;stroke-opacity:1"/>
        <path d="M 282.18111,153.86465 L 321.25,153.86465 L 329.91011,159.56444 L 329.91011,165.60411 L 282.18111,165.60411" id="path2429" style="fill:#da000c;fill-opacity:1;fill-rule:nonzero;stroke:#000000;stroke-width:1;stroke-linecap:square;stroke-linejoin:miter;stroke-miterlimit:4;stroke-dashoffset:0.99999998;stroke-opacity:1"/>
        <path d="M 182.08989,159.56444 L 329.91011,159.56444" id="path2239" sodipodi:nodetypes="cc" style="fill:#da000c;fill-opacity:1;fill-rule:nonzero;stroke:#000000;stroke-width:1;stroke-linecap:square;stroke-linejoin:miter;stroke-miterlimit:4;stroke-dashoffset:0.99999998;stroke-opacity:1"/>
        <path d="M 228.5625,156.8125 L 218.78125,161.53125 L 218.78125,168.5625 L 256,168.5625 L 293.21875,168.5625 L 293.21875,161.53125 L 283.4375,156.8125 L 256,156.8125 L 228.5625,156.8125 z" id="path2861" style="fill:#da000c;fill-opacity:1;fill-rule:evenodd;stroke:#000000;stroke-width:1px;stroke-linecap:butt;stroke-linejoin:miter;stroke-opacity:1"/>
        <g id="g2731">
          <path d="M 273.29688,150.03125 C 271.95511,150.42638 270.25691,151.28434 268.17188,152.4375 C 266.08684,153.59066 263.70193,155.04151 261.45313,156.53125 C 259.78593,157.6357 258.39333,158.73855 257.01563,159.8125 C 256.53501,160.18715 255.87249,160.57866 255.45313,160.9375 C 254.96294,161.35694 254.62706,161.75729 254.23438,162.15625 C 253.97759,162.41715 253.6355,162.68057 253.42188,162.9375 C 252.88158,163.58732 252.35938,164.15278 252.35938,165.34375 C 252.35938,165.55994 252.36551,165.77673 252.39063,166 C 253.16547,165.07112 254.27801,164.42514 255.51563,164.28125 C 255.52158,164.2814 255.54308,164.28142 255.54688,164.28125 C 255.57835,164.28134 255.64027,164.28063 255.67188,164.28125 C 255.67569,164.28118 255.69717,164.28116 255.70313,164.28125 C 255.82519,164.27167 255.92246,164.28125 256.04688,164.28125 C 256.17129,164.28125 256.26856,164.27167 256.39063,164.28125 C 256.57822,164.29597 256.74419,164.34033 256.92188,164.375 C 256.99021,164.31205 257.04337,164.24884 257.10938,164.1875 C 257.33657,163.97636 257.45924,163.82918 257.73438,163.59375 C 258.28409,163.12338 259.19041,162.52809 259.89063,162 C 261.02344,161.14566 262.04989,160.32569 263.39063,159.4375 C 265.56011,158.0003 267.87099,156.59971 269.85938,155.5 C 271.84776,154.40029 273.61275,153.60771 274.29688,153.40625 L 273.29688,150.03125 z" id="path2659" style="fill:#f8d80e;fill-opacity:1;fill-rule:evenodd;stroke:#000000;stroke-width:0.76800001;stroke-linecap:butt;stroke-linejoin:miter;stroke-miterlimit:4;stroke-dasharray:none;stroke-opacity:1"/>
          <path d="M 260.40041,157.3913 L 260.40041,161.3032" id="path2766" sodipodi:nodetypes="cc" style="fill:none;fill-opacity:0.75;fill-rule:evenodd;stroke:#000000;stroke-width:1;stroke-linecap:round;stroke-linejoin:miter;stroke-miterlimit:4;stroke-dasharray:none;stroke-opacity:1"/>
          <path d="M 262.81691,155.68544 L 262.81691,159.56821" id="path2770" sodipodi:nodetypes="cc" style="fill:none;fill-opacity:0.75;fill-rule:evenodd;stroke:#000000;stroke-width:0.99999994;stroke-linecap:round;stroke-linejoin:miter;stroke-miterlimit:4;stroke-dasharray:none;stroke-opacity:1"/>
          <path d="M 265.23339,154.17984 L 265.23339,158.03797" id="path2772" sodipodi:nodetypes="cc" style="fill:none;fill-opacity:0.75;fill-rule:evenodd;stroke:#000000;stroke-width:1.00000012;stroke-linecap:round;stroke-linejoin:miter;stroke-miterlimit:4;stroke-dasharray:none;stroke-opacity:1"/>
          <path d="M 267.64986,152.69367 L 267.64986,156.67498" id="path2774" sodipodi:nodetypes="cc" style="fill:none;fill-opacity:0.75;fill-rule:evenodd;stroke:#000000;stroke-width:0.99999988;stroke-linecap:round;stroke-linejoin:miter;stroke-miterlimit:4;stroke-dasharray:none;stroke-opacity:1"/>
        </g>
        <path d="M 218.771,161.51923 L 293.229,161.51923" id="path2245" sodipodi:nodetypes="cc" style="fill:#da000c;fill-opacity:1;fill-rule:evenodd;stroke:#000000;stroke-width:1px;stroke-linecap:butt;stroke-linejoin:miter;stroke-opacity:1"/>
        <path d="M 213.46875,128.59375 C 219.09357,128.59375 223.6875,133.28303 223.6875,139.0625 L 223.6875,153.84375 L 231.03125,153.84375 L 231.03125,97.84375 L 190.75,97.84375 L 190.75,153.84375 L 203.25,153.84375 L 203.25,139.0625 C 203.24999,133.50878 207.76491,128.59375 213.46875,128.59375 z" id="rect2994" style="fill:#da000c;fill-opacity:1;fill-rule:nonzero;stroke:#000000;stroke-width:1;stroke-linecap:square;stroke-linejoin:miter;stroke-miterlimit:4;stroke-dashoffset:0.99999998;stroke-opacity:1"/>
        <rect height="33.9594" id="rect2574" style="fill:#000000;fill-opacity:1;fill-rule:nonzero;stroke:none;stroke-width:1;stroke-linecap:butt;stroke-linejoin:miter;stroke-miterlimit:4;stroke-dasharray:none;stroke-dashoffset:0.99999998;stroke-opacity:1" width="18.523308" x="204.5282" y="59.961655"/>
        <path d="M 223,88.65625 L 206.79108,88.65625 L 206.79108,82.90625 L 194.90625,82.90625 L 194.90625,88.65625 L 186.84375,88.65625 L 186.84375,82.90625 L 182.03125,82.90625 L 182.03125,93.34375 L 223,93.34375 M 186.84375,93.306038 L 221.81414,93.306038 L 221.81414,97.843752 L 186.84375,97.843752 L 186.84375,93.306038 z" id="path2970" style="fill:#da000c;fill-opacity:1;fill-rule:evenodd;stroke:#000000;stroke-width:1px;stroke-linecap:butt;stroke-linejoin:miter;stroke-opacity:1"/>
        <path d="M 200.71875,47.625 L 200.71875,82.90625 L 206.79108,82.90625 L 206.79108,73.21875 C 206.79108,69.589448 209.35314,66.619386 212.9375,66.4375 C 213.05312,66.431633 213.16418,66.4375 213.28125,66.4375 C 217.02763,66.437497 220.0625,69.472374 220.0625,73.21875 L 220.0625,82.90625 L 225.84375,82.90625 L 225.84375,47.625 L 200.71875,47.625 z" id="path3017" style="fill:#da000c;fill-opacity:1;fill-rule:evenodd;stroke:#000000;stroke-width:1px;stroke-linecap:butt;stroke-linejoin:miter;stroke-opacity:1"/>
        <rect height="53.254513" id="rect2572" style="fill:#000000;fill-opacity:1;fill-rule:nonzero;stroke:none;stroke-width:1;stroke-linecap:butt;stroke-linejoin:miter;stroke-miterlimit:4;stroke-dasharray:none;stroke-dashoffset:0.99999998;stroke-opacity:1" width="29.328571" x="240.80301" y="38.351128"/>
        <path d="M 238.75,38.375 L 238.75,82.9375 L 248.0625,82.9375 L 248.0625,69.71875 C 248.0625,66.669822 250.01501,62.4375 256,62.4375 C 261.98499,62.4375 263.9375,66.669822 263.9375,69.71875 L 263.9375,82.9375 L 273.25,82.9375 L 273.25,38.375 L 256,38.375 L 238.75,38.375 z M 254.5625,43.375 L 256,43.375 L 257.4375,43.375 L 257.4375,58.625 L 256,58.625 L 254.5625,58.625 L 254.5625,43.375 z M 246.3125,46.375 L 249.21875,46.375 L 249.21875,57.53125 L 246.3125,57.53125 L 246.3125,46.375 z M 262.78125,46.375 L 265.6875,46.375 L 265.6875,57.53125 L 262.78125,57.53125 L 262.78125,46.375 z" id="path2937" style="fill:#da000c;fill-opacity:1;fill-rule:evenodd;stroke:#000000;stroke-width:1px;stroke-linecap:butt;stroke-linejoin:miter;stroke-opacity:1"/>
        <path d="M 235.59375,31.96875 L 235.59375,38.3125 L 256,38.3125 L 276.40625,38.3125 L 276.40625,31.96875 L 256,31.96875 L 235.59375,31.96875 z" id="rect2945" style="fill:#da000c;fill-opacity:1;fill-rule:nonzero;stroke:#000000;stroke-width:1;stroke-linecap:square;stroke-linejoin:miter;stroke-miterlimit:4;stroke-dashoffset:0.99999998;stroke-opacity:1"/>
        <path d="M 231.75,24.59375 L 231.75,31.96875 L 256,31.96875 L 280.25,31.96875 L 280.25,24.59375 L 274.15625,24.59375 L 274.15625,28.65625 L 267.28125,28.65625 L 267.28125,24.59375 L 259.4375,24.59375 L 259.4375,28.65625 L 256,28.65625 L 252.5625,28.65625 L 252.5625,24.59375 L 244.71875,24.59375 L 244.71875,28.65625 L 237.84375,28.65625 L 237.84375,24.59375 L 231.75,24.59375 z" id="rect2954" style="fill:#da000c;fill-opacity:1;fill-rule:nonzero;stroke:#000000;stroke-width:1;stroke-linecap:square;stroke-linejoin:miter;stroke-miterlimit:4;stroke-dashoffset:0.99999998;stroke-opacity:1"/>
        <path d="M 198.53125,42.84375 L 198.53125,47.625 L 227.78125,47.625 L 227.78125,42.84375 L 198.53125,42.84375 z" id="rect3026" style="fill:#da000c;fill-opacity:1;fill-rule:nonzero;stroke:#000000;stroke-width:1;stroke-linecap:square;stroke-linejoin:miter;stroke-miterlimit:4;stroke-dasharray:none;stroke-dashoffset:0.99999998;stroke-opacity:1"/>
        <path d="M 194.78125,33.6875 L 194.78125,42.84375 L 229.875,42.84375 L 229.875,33.6875 L 224.46875,33.6875 L 224.46875,38.34375 L 217.9375,38.34375 L 217.9375,33.6875 L 207.96875,33.6875 L 207.96875,38.34375 L 201.4375,38.34375 L 201.4375,33.6875 L 194.78125,33.6875 z" id="rect2982" sodipodi:nodetypes="ccccccccccccc" style="fill:#da000c;fill-opacity:1;fill-rule:nonzero;stroke:#000000;stroke-width:1;stroke-linecap:square;stroke-linejoin:miter;stroke-miterlimit:4;stroke-dasharray:none;stroke-dashoffset:0.99999998;stroke-opacity:1"/>
        <rect height="58.115017" id="rect2581" style="fill:#f8d80e;fill-opacity:1;fill-rule:nonzero;stroke:#000000;stroke-width:1.00000024;stroke-linecap:butt;stroke-linejoin:miter;stroke-miterlimit:4;stroke-dasharray:none;stroke-dashoffset:0.99999998;stroke-opacity:1" width="4.9902272" x="253.05186" y="193.65144"/>
        <path d="M 255.54688,179.40625 L 266.17188,185.59375 L 255.54688,191.75 L 244.92188,185.59375 L 255.54688,179.40625 z M 241.32813,183.375 L 238.54688,183.375 L 238.54688,187.8125 L 241.32813,187.8125 L 255.54688,196.0625 L 269.76563,187.8125 L 272.54688,187.8125 L 272.54688,183.375 L 269.76563,183.375 L 255.54688,175.125 L 241.32813,183.375 z" id="path2617" sodipodi:nodetypes="cccccccccccccccc" style="fill:#f8d80e;fill-opacity:1;fill-rule:nonzero;stroke:#000000;stroke-width:1.02400005;stroke-linecap:butt;stroke-linejoin:miter;stroke-miterlimit:4;stroke-dasharray:none;stroke-dashoffset:0.99999998;stroke-opacity:1"/>
        <g id="g2710">
          <path d="M 238.89063,150.15625 L 237.70313,153.46875 C 241.54372,154.85671 246.99307,157.55498 251.35938,160.1875 C 253.54253,161.50376 255.45308,162.79779 256.76563,163.875 C 257.4219,164.41361 257.9259,164.91345 258.20313,165.25 C 258.23726,165.29145 258.27729,165.34175 258.29688,165.375 C 258.30036,165.38135 258.29379,165.4002 258.29688,165.40625 C 258.31885,165.45239 258.34562,165.50089 258.35938,165.53125 C 258.33405,165.75494 258.29402,165.99609 258.23438,166.15625 C 258.22922,166.16908 258.20867,166.20704 258.20313,166.21875 C 258.20026,166.22431 258.2061,166.24475 258.20313,166.25 C 258.20004,166.25493 258.17507,166.27665 258.17188,166.28125 C 258.15119,166.30793 258.13133,166.34888 258.10938,166.375 C 258.1048,166.38017 258.08292,166.40115 258.07813,166.40625 C 258.07304,166.41128 258.05226,166.43256 258.04688,166.4375 C 258.03537,166.44719 257.99759,166.45951 257.98438,166.46875 C 257.96306,166.48222 257.91719,166.51914 257.89063,166.53125 C 257.74777,166.58922 257.51425,166.625 257.14063,166.625 C 256.91906,166.625 256.73986,166.59228 256.60938,166.5625 C 256.55915,166.54995 256.49284,166.54722 256.45313,166.53125 C 256.44041,166.52576 256.40237,166.50581 256.39063,166.5 C 256.35677,166.48214 256.32372,166.45761 256.29688,166.4375 C 256.2886,166.42921 256.27008,166.41012 256.26563,166.40625 C 256.26288,166.40282 256.23704,166.37899 256.23438,166.375 C 256.22671,166.36156 256.21069,166.3233 256.20313,166.3125 C 256.20096,166.3126 256.17438,166.31246 256.17188,166.3125 C 256.16911,166.31269 256.14391,166.31176 256.14063,166.3125 C 256.13365,166.31227 256.11728,166.31254 256.10938,166.3125 C 256.09295,166.31262 256.06097,166.3125 256.04688,166.3125 C 255.94994,166.3125 255.86006,166.30296 255.76563,166.3125 C 254.61819,166.42838 253.64597,167.24661 253.32813,168.375 C 253.32844,168.37774 253.32804,168.40361 253.32813,168.40625 C 253.33193,168.41048 253.3555,168.43368 253.35938,168.4375 C 253.37505,168.45177 253.40607,168.4833 253.42188,168.5 C 254.22461,169.46876 255.60188,170.125 257.14063,170.125 C 258.75901,170.125 260.17028,169.44734 260.95313,168.4375 C 261.73597,167.42766 261.92188,166.27941 261.92188,165.34375 C 261.92188,164.25263 261.43196,163.61922 260.92188,163 C 260.41179,162.38078 259.74959,161.78426 258.98438,161.15625 C 257.45396,159.90022 255.44942,158.56067 253.17188,157.1875 C 248.61677,154.44116 243.09112,151.67427 238.89063,150.15625 z" id="path2670" style="fill:#f8d80e;fill-opacity:1;fill-rule:evenodd;stroke:#000000;stroke-width:0.76800001;stroke-linecap:butt;stroke-linejoin:miter;stroke-miterlimit:4;stroke-dasharray:none;stroke-opacity:1"/>
          <path d="M 254.04985,158.03521 L 253.73747,161.37469" id="path2693" sodipodi:nodetypes="cc" style="fill:none;fill-opacity:0.75;fill-rule:evenodd;stroke:#000000;stroke-width:1;stroke-linecap:round;stroke-linejoin:miter;stroke-miterlimit:4;stroke-dasharray:none;stroke-opacity:1"/>
          <path d="M 256.8319,159.73914 L 255.96991,163.00882" id="path2705" sodipodi:nodetypes="cc" style="fill:none;fill-opacity:0.75;fill-rule:evenodd;stroke:#000000;stroke-width:1;stroke-linecap:round;stroke-linejoin:miter;stroke-miterlimit:4;stroke-dasharray:none;stroke-opacity:1"/>
          <path d="M 259.80442,162.01152 L 257.99552,164.54884" id="path2709" sodipodi:nodetypes="cc" style="fill:none;fill-opacity:0.75;fill-rule:evenodd;stroke:#000000;stroke-width:1;stroke-linecap:round;stroke-linejoin:miter;stroke-miterlimit:4;stroke-dasharray:none;stroke-opacity:1"/>
          <path d="M 260.71528,168.18078 L 258.10512,166.78032" id="path2713" sodipodi:nodetypes="cc" style="fill:none;fill-opacity:0.75;fill-rule:evenodd;stroke:#000000;stroke-width:1.00000012;stroke-linecap:round;stroke-linejoin:miter;stroke-miterlimit:4;stroke-dasharray:none;stroke-opacity:1"/>
          <path d="M 261.52792,165.42898 L 258.53251,165.70943" id="path2715" sodipodi:nodetypes="cc" style="fill:none;fill-opacity:0.75;fill-rule:evenodd;stroke:#000000;stroke-width:1px;stroke-linecap:round;stroke-linejoin:miter;stroke-opacity:1"/>
          <path d="M 257.66497,169.7646 L 257.45987,167.13228" id="path2719" sodipodi:nodetypes="cc" style="fill:none;fill-opacity:0.75;fill-rule:evenodd;stroke:#000000;stroke-width:1.00000012;stroke-linecap:round;stroke-linejoin:miter;stroke-miterlimit:4;stroke-dasharray:none;stroke-opacity:1"/>
          <path d="M 256.56809,166.75559 L 254.09509,168.57779" id="path1881" sodipodi:nodetypes="cc" style="fill:none;fill-opacity:0.75;fill-rule:evenodd;stroke:#000000;stroke-width:1px;stroke-linecap:round;stroke-linejoin:miter;stroke-opacity:1"/>
          <path d="M 244.67669,152.9368 L 244.67669,156.05184" id="path2760" sodipodi:nodetypes="cc" style="fill:none;fill-opacity:0.75;fill-rule:evenodd;stroke:#000000;stroke-width:0.99999994;stroke-linecap:round;stroke-linejoin:miter;stroke-miterlimit:4;stroke-dasharray:none;stroke-opacity:1"/>
          <path d="M 250.96338,156.24386 L 250.96338,159.77805" id="path2762" sodipodi:nodetypes="cc" style="fill:none;fill-opacity:0.75;fill-rule:evenodd;stroke:#000000;stroke-width:1.00000024;stroke-linecap:round;stroke-linejoin:miter;stroke-miterlimit:4;stroke-dasharray:none;stroke-opacity:1"/>
          <path d="M 247.82004,154.59318 L 247.82004,157.9121" id="path2764" sodipodi:nodetypes="cc" style="fill:none;fill-opacity:0.75;fill-rule:evenodd;stroke:#000000;stroke-width:1.00000012;stroke-linecap:round;stroke-linejoin:miter;stroke-miterlimit:4;stroke-dasharray:none;stroke-opacity:1"/>
        </g>
        <path d="M 255.34375,164.28125 C 253.02406,164.63751 251.25,166.74839 251.25,169.21875 L 251.25,180.25 C 251.25,182.9674 253.40846,185.21876 256.0625,185.21875 C 256.13162,185.21875 256.18155,185.22172 256.25,185.21875 C 256.31845,185.22172 256.36838,185.21875 256.4375,185.21875 C 258.32436,185.21876 259.96163,184.0718 260.75,182.4375 L 259.03125,181.40625 C 258.60375,182.46578 257.60074,183.18752 256.4375,183.1875 C 256.39254,183.1875 256.34923,183.18724 256.3125,183.1875 C 256.30105,183.18731 256.26648,183.18763 256.25,183.1875 C 256.23236,183.18883 256.20277,183.18725 256.1875,183.1875 C 256.15077,183.18724 256.10746,183.1875 256.0625,183.1875 C 254.51151,183.18752 253.25,181.90937 253.25,180.25 L 253.25,169.21875 C 253.25,167.55939 254.5115,166.3125 256.0625,166.3125 C 256.10652,166.3125 256.15038,166.31278 256.1875,166.3125 C 256.20281,166.31277 256.23276,166.31106 256.25,166.3125 C 256.26641,166.31236 256.30102,166.3127 256.3125,166.3125 C 256.34962,166.31278 256.39348,166.3125 256.4375,166.3125 C 256.87372,166.3125 257.28746,166.41505 257.65625,166.59375 C 257.6588,166.59384 257.68535,166.59346 257.6875,166.59375 C 257.76918,166.57897 257.85268,166.55299 257.90625,166.53125 C 257.93136,166.51513 257.98401,166.47885 258,166.46875 C 258.00523,166.46323 258.02613,166.44304 258.03125,166.4375 C 258.03417,166.43753 258.05882,166.43734 258.0625,166.4375 C 258.06788,166.43256 258.08866,166.41128 258.09375,166.40625 C 258.10039,166.39972 258.12271,166.37759 258.125,166.375 C 258.14379,166.3493 258.1694,166.3046 258.1875,166.28125 C 258.18744,166.27838 258.1879,166.25352 258.1875,166.25 C 258.1875,166.25 258.21875,166.21875 258.21875,166.21875 C 258.2229,166.20997 258.24179,166.17289 258.25,166.15625 C 258.30964,165.99609 258.34967,165.75494 258.375,165.53125 C 258.36124,165.50089 258.33448,165.45239 258.3125,165.40625 C 258.3127,165.40469 258.31256,165.38208 258.3125,165.375 C 258.29125,165.34253 258.24861,165.28627 258.21875,165.25 C 258.01568,165.00348 257.66714,164.68531 257.25,164.3125 C 257.24681,164.31314 257.2215,164.31234 257.21875,164.3125 C 257.1889,164.30568 257.12375,164.28758 257.09375,164.28125 C 257.08959,164.281 257.0663,164.2812 257.0625,164.28125 C 257.04637,164.28149 257.00941,164.28162 257,164.28125 C 256.99385,164.28135 256.97271,164.28134 256.96875,164.28125 C 256.95103,164.28147 256.91831,164.28087 256.90625,164.28125 C 256.87385,164.28266 256.81033,164.28354 256.78125,164.28125 C 256.65919,164.27167 256.56191,164.28125 256.4375,164.28125 C 256.35974,164.28125 256.31923,164.28172 256.25,164.28125 C 256.18077,164.28172 256.14026,164.28125 256.0625,164.28125 C 255.93809,164.28125 255.84081,164.27167 255.71875,164.28125 C 255.68967,164.28354 255.62615,164.28266 255.59375,164.28125 C 255.5817,164.28087 255.54897,164.28147 255.53125,164.28125 C 255.52333,164.28143 255.5054,164.28062 255.5,164.28125 C 255.48746,164.28174 255.44807,164.28215 255.4375,164.28125 C 255.4337,164.2812 255.41041,164.281 255.40625,164.28125 C 255.38792,164.28384 255.36202,164.27844 255.34375,164.28125 z M 261.125,168.1875 C 261.07431,168.26289 261.02385,168.36224 260.96875,168.4375 C 260.55286,168.97398 259.95743,169.42157 259.25,169.71875 L 259.25,177.28125 L 261.25,178.4375 L 261.25,169.21875 C 261.25,168.86862 261.22429,168.51894 261.15625,168.1875 C 261.15302,168.18649 261.12777,168.18775 261.125,168.1875 z" id="path2671" style="fill:#f8d80e;fill-opacity:1;fill-rule:nonzero;stroke:#000000;stroke-width:1.02400005;stroke-linecap:butt;stroke-linejoin:miter;stroke-miterlimit:4;stroke-dasharray:none;stroke-dashoffset:0.99999998;stroke-opacity:1"/>
        <path d="M 298.53125,128.59375 C 292.90643,128.59375 288.3125,133.28303 288.3125,139.0625 L 288.3125,153.84375 L 280.96875,153.84375 L 280.96875,97.84375 L 321.25,97.84375 L 321.25,153.84375 L 308.75,153.84375 L 308.75,139.0625 C 308.75001,133.50878 304.23509,128.59375 298.53125,128.59375 z" id="path2437" style="fill:#da000c;fill-opacity:1;fill-rule:nonzero;stroke:#000000;stroke-width:1;stroke-linecap:square;stroke-linejoin:miter;stroke-miterlimit:4;stroke-dashoffset:0.99999998;stroke-opacity:1"/>
        <path d="M 222.75,97.84375 L 222.75,102.4375 L 256,102.4375 L 289.25,102.4375 L 289.25,97.84375 L 256,97.84375 L 222.75,97.84375 z" id="path2846" style="fill:#da000c;fill-opacity:1;fill-rule:nonzero;stroke:#000000;stroke-width:1;stroke-linecap:round;stroke-linejoin:miter;stroke-miterlimit:4;stroke-dasharray:none;stroke-dashoffset:0.99999998;stroke-opacity:1"/>
        <rect height="33.9594" id="rect2576" style="fill:#000000;fill-opacity:1;fill-rule:nonzero;stroke:none;stroke-width:1;stroke-linecap:butt;stroke-linejoin:miter;stroke-miterlimit:4;stroke-dasharray:none;stroke-dashoffset:0.99999998;stroke-opacity:1" transform="scale(-1,1)" width="18.523308" x="-307.4718" y="59.961655"/>
        <path d="M 289,88.65625 L 305.20892,88.65625 L 305.20892,82.90625 L 317.09375,82.90625 L 317.09375,88.65625 L 325.15625,88.65625 L 325.15625,82.90625 L 329.96875,82.90625 L 329.96875,93.34375 L 289,93.34375 M 325.15625,93.306038 L 290.18586,93.306038 L 290.18586,97.843752 L 325.15625,97.843752 L 325.15625,93.306038 z" id="path2443" style="fill:#da000c;fill-opacity:1;fill-rule:evenodd;stroke:#000000;stroke-width:1px;stroke-linecap:butt;stroke-linejoin:miter;stroke-opacity:1"/>
        <path d="M 311.28125,47.625 L 311.28125,82.90625 L 305.20892,82.90625 L 305.20892,73.21875 C 305.20892,69.589448 302.64686,66.619386 299.0625,66.4375 C 298.94688,66.431633 298.83582,66.4375 298.71875,66.4375 C 294.97237,66.437497 291.9375,69.472374 291.9375,73.21875 L 291.9375,82.90625 L 286.15625,82.90625 L 286.15625,47.625 L 311.28125,47.625 z" id="path2445" style="fill:#da000c;fill-opacity:1;fill-rule:evenodd;stroke:#000000;stroke-width:1px;stroke-linecap:butt;stroke-linejoin:miter;stroke-opacity:1"/>
        <path d="M 220.03125,82.90625 L 220.03125,97.84375 L 256,97.84375 L 291.96875,97.84375 L 291.96875,82.90625 L 285.15625,82.90625 L 285.15625,88.65625 L 276.09375,88.65625 L 276.09375,82.90625 L 263.9375,82.90625 L 263.9375,88.65625 L 256,88.65625 L 248.0625,88.65625 L 248.0625,82.90625 L 235.90625,82.90625 L 235.90625,88.65625 L 226.84375,88.65625 L 226.84375,82.90625 L 220.03125,82.90625 z" id="path2851" style="fill:#da000c;fill-opacity:1;fill-rule:evenodd;stroke:#000000;stroke-width:1px;stroke-linecap:butt;stroke-linejoin:miter;stroke-opacity:1"/>
        <path d="M 313.46875,42.84375 L 313.46875,47.625 L 284.21875,47.625 L 284.21875,42.84375 L 313.46875,42.84375 z" id="path2455" style="fill:#da000c;fill-opacity:1;fill-rule:nonzero;stroke:#000000;stroke-width:1;stroke-linecap:square;stroke-linejoin:miter;stroke-miterlimit:4;stroke-dasharray:none;stroke-dashoffset:0.99999998;stroke-opacity:1"/>
        <path d="M 317.21875,33.6875 L 317.21875,42.84375 L 282.125,42.84375 L 282.125,33.6875 L 287.53125,33.6875 L 287.53125,38.34375 L 294.0625,38.34375 L 294.0625,33.6875 L 304.03125,33.6875 L 304.03125,38.34375 L 310.5625,38.34375 L 310.5625,33.6875 L 317.21875,33.6875 z" id="path2457" sodipodi:nodetypes="ccccccccccccc" style="fill:#da000c;fill-opacity:1;fill-rule:nonzero;stroke:#000000;stroke-width:1;stroke-linecap:square;stroke-linejoin:miter;stroke-miterlimit:4;stroke-dasharray:none;stroke-dashoffset:0.99999998;stroke-opacity:1"/>
        <rect height="50.060368" id="rect2635" style="fill:#f8d80e;fill-opacity:1;fill-rule:nonzero;stroke:#000000;stroke-width:1.00000048;stroke-linecap:butt;stroke-linejoin:miter;stroke-miterlimit:4;stroke-dasharray:none;stroke-dashoffset:0.99999998;stroke-opacity:1" width="4.9902272" x="253.05186" y="198.6788"/>
        <path d="M 228.6875,102.4375 L 228.6875,156.78125 L 241.53125,156.78125 C 241.53125,156.78125 241.53125,145.53252 241.53125,136.4375 C 241.53125,126.85477 247.92755,122.34375 256,122.34375 C 263.75894,122.34375 270.46875,126.85477 270.46875,136.4375 C 270.46875,145.53252 270.46875,156.78125 270.46875,156.78125 L 283.3125,156.78125 L 283.3125,102.4375 L 256,102.4375 L 228.6875,102.4375 z" id="path2849" sodipodi:nodetypes="cccszsccccc" style="fill:#da000c;fill-opacity:1;fill-rule:evenodd;stroke:#000000;stroke-width:1;stroke-linecap:butt;stroke-linejoin:round;stroke-miterlimit:4;stroke-dasharray:none;stroke-opacity:1"/>
      </g>
    </g>
  </g>
</svg>
