<?xml version="1.0" encoding="UTF-8" standalone="no"?>
<!-- Generator: Adobe Illustrator 13.0.0, SVG Export Plug-In . SVG Version: 6.00 Build 14948)  --><svg enable-background="new 0 0 900 600" height="256" id="Flag_of_Iraq" inkscape:output_extension="org.inkscape.output.svg.inkscape" inkscape:version="0.46" sodipodi:docbase="C:\Documents and Settings\Joshua.JOSHPC\Desktop" sodipodi:docname="Flag_of_Iraq.svg" sodipodi:version="0.32" space="preserve" version="1.0" viewBox="0 0 900 600" width="256" x="0px" xmlns="http://www.w3.org/2000/svg" xmlns:cc="http://creativecommons.org/ns#" xmlns:dc="http://purl.org/dc/elements/1.1/" xmlns:inkscape="http://www.inkscape.org/namespaces/inkscape" xmlns:rdf="http://www.w3.org/1999/02/22-rdf-syntax-ns#" xmlns:sodipodi="http://sodipodi.sourceforge.net/DTD/sodipodi-0.dtd" xmlns:svg="http://www.w3.org/2000/svg" y="0px">
  <metadata>
    <rdf:RDF xmlns:cc="http://web.resource.org/cc/" xmlns:dc="http://purl.org/dc/elements/1.1/" xmlns:rdf="http://www.w3.org/1999/02/22-rdf-syntax-ns#">
      <cc:Work rdf:about="">
        <dc:title></dc:title>
        <dc:description></dc:description>
        <dc:subject>
          <rdf:Bag>
            <rdf:li>unsorted</rdf:li>
          </rdf:Bag>
        </dc:subject>
        <dc:publisher>
          <cc:Agent rdf:about="http://www.openclipart.org/">
            <dc:title>Open Clip Art Library, Source: Wikimedia Commons</dc:title>
          </cc:Agent>
        </dc:publisher>
        <dc:creator>
          <cc:Agent>
            <dc:title></dc:title>
          </cc:Agent>
        </dc:creator>
        <dc:rights>
          <cc:Agent>
            <dc:title></dc:title>
          </cc:Agent>
        </dc:rights>
        <dc:date></dc:date>
        <dc:format>image/svg+xml</dc:format>
        <dc:type rdf:resource="http://purl.org/dc/dcmitype/StillImage"/>
        <cc:license rdf:resource="http://web.resource.org/cc/PublicDomain"/>
        <dc:language>en</dc:language>
      </cc:Work>
      <cc:License rdf:about="http://web.resource.org/cc/PublicDomain">
        <cc:permits rdf:resource="http://web.resource.org/cc/Reproduction"/>
        <cc:permits rdf:resource="http://web.resource.org/cc/Distribution"/>
        <cc:permits rdf:resource="http://web.resource.org/cc/DerivativeWorks"/>
      </cc:License>
    </rdf:RDF>
  </metadata>
  <defs id="defs4474">
    <inkscape:perspective id="perspective4478" inkscape:persp3d-origin="450 : 200 : 1" inkscape:vp_x="0 : 300 : 1" inkscape:vp_y="0 : 1000 : 0" inkscape:vp_z="900 : 300 : 1" sodipodi:type="inkscape:persp3d"/>
  </defs>
  <sodipodi:namedview bordercolor="#666666" borderopacity="1.0" gridtolerance="10.0" guidetolerance="10.0" id="base" inkscape:current-layer="Flag_of_Iraq" inkscape:cx="380.70363" inkscape:cy="385.62608" inkscape:pageopacity="0.0" inkscape:pageshadow="2" inkscape:window-height="674" inkscape:window-width="744" inkscape:window-x="27" inkscape:window-y="203" inkscape:zoom="0.44429876" objecttolerance="10.0" pagecolor="#ffffff" showgrid="false"></sodipodi:namedview>
  <rect height="187.26801" id="rect3" style="fill:#ce1126" width="900" x="0" y="0"/>
  <rect height="219.09801" id="rect5" style="fill:#ffffff" width="900" x="0" y="185.67599"/>
  <rect height="195.226" id="rect7" width="900" x="0" y="404.77399"/>
  <g id="g9" transform="matrix(1.5656306,0,0,1.702551,-158.7378,-207.31444)">
    <g id="g4466">
      <g id="g4468" transform="scale(2,2)">
        <path d="M 138.086,170.796 L 136.434,169.129 L 138.101,167.477 L 139.768,165.825 L 141.42,167.492 L 143.072,169.159 L 141.405,170.811 L 139.738,172.463 L 138.086,170.796 z M 126.746,169.959 C 126.152,169.742 125.188,169.027 124.556,168.336 C 123.365,167.033 123.094,166.425 123.894,166.853 C 125.087,167.492 127.45,167.907 128.291,167.627 C 131.393,166.591 132.098,162.45 129.621,159.823 C 129.135,159.308 128.737,158.709 128.737,158.492 C 128.737,158.275 129.254,157.869 129.885,157.59 C 130.769,157.199 131.201,156.773 131.767,155.734 C 132.341,154.679 132.577,154.449 132.853,154.678 C 133.247,155.005 134.578,158.181 134.578,158.795 C 134.578,159.119 135.059,159.19 137.236,159.19 L 139.894,159.19 L 139.479,158.194 C 139.251,157.647 138.875,156.91 138.644,156.557 C 138.27,155.985 138.268,155.884 138.627,155.628 C 138.848,155.47 139.584,154.952 140.263,154.477 C 140.941,154.002 141.575,153.405 141.67,153.15 C 141.905,152.518 143.375,150.695 143.648,150.695 C 143.769,150.695 143.869,152.606 143.869,154.942 L 143.869,159.189 L 160.46,159.189 L 177.05,159.189 L 177.05,153.105 L 177.05,147.021 L 176.127,146.45 L 175.204,145.879 L 174.269,146.592 L 173.334,147.305 L 173.334,151.654 L 173.334,156.002 L 159.398,156.002 C 151.732,156.002 145.461,155.954 145.461,155.896 C 145.461,155.803 152.396,146.437 153.244,145.384 C 153.42,145.165 153.856,144.568 154.212,144.057 C 154.568,143.546 154.931,143.068 155.017,142.995 C 155.105,142.922 155.464,142.444 155.818,141.933 C 156.171,141.422 156.583,140.864 156.734,140.694 C 156.885,140.523 159.397,137.156 162.317,133.211 C 165.237,129.266 167.713,126.031 167.821,126.022 C 167.928,126.013 168.08,126.335 168.159,126.736 C 168.597,128.958 168.933,130.202 169.28,130.886 C 169.724,131.761 169.464,132.088 168.291,132.124 C 167.736,132.141 166.457,133.711 160.46,141.739 C 156.518,147.016 153.253,151.428 153.204,151.544 C 153.155,151.66 156.709,151.755 161.101,151.755 L 169.087,151.755 L 169.091,148.901 C 169.093,147.332 169.183,145.924 169.29,145.773 C 169.791,145.067 175.071,141.378 175.439,141.476 C 175.668,141.537 177.08,142.519 178.577,143.658 L 181.298,145.73 L 181.298,154.583 L 181.298,163.436 L 158.243,163.436 L 135.188,163.436 L 134.725,165.148 C 134.169,167.2 133.26,168.68 132.039,169.516 C 130.888,170.304 128.283,170.522 126.746,169.959 z M 184.217,149.654 C 184.217,140.017 184.304,135.807 184.505,135.682 C 184.663,135.584 185.35,136.088 186.031,136.802 C 186.712,137.516 187.926,138.663 188.73,139.35 C 189.998,140.436 190.13,140.636 189.739,140.874 C 188.432,141.668 188.465,141.418 188.465,150.579 L 188.465,159.187 L 191.006,159.187 C 193.262,159.187 193.679,159.11 194.722,158.498 C 196.017,157.739 196.103,157.839 195.462,159.354 C 195.222,159.919 194.954,161.039 194.864,161.842 L 194.702,163.302 L 189.459,163.374 L 184.217,163.446 L 184.217,149.654 L 184.217,149.654 z" id="path4470" sodipodi:nodetypes="ccccccccccssssssssscccssssscccccccccccccsssssscsssscscccsscccccccsccsssscccssccccc" style="fill:#009e60"/>
        <path d="M 211.666,159.855 C 211.805,155.974 212.206,154.657 213.63,153.407 C 214.726,152.445 216.294,151.989 218.109,152.106 L 219.468,152.194 L 219.55,150.606 C 219.653,148.594 219.471,147.876 218.802,147.663 C 217.999,147.408 218.163,146.574 219.136,145.967 C 219.612,145.67 220.778,144.641 221.726,143.68 C 222.674,142.719 223.544,141.933 223.658,141.933 C 223.772,141.933 223.866,145.77 223.866,150.46 L 223.866,158.988 L 225.731,158.988 L 227.596,158.988 L 227.596,150.213 C 227.596,142.591 227.541,141.383 227.177,141.019 C 226.947,140.789 226.647,140.6 226.511,140.6 C 225.913,140.6 226.336,139.533 227.129,139.038 C 227.606,138.741 228.765,137.718 229.707,136.764 C 230.648,135.81 231.518,135.091 231.639,135.166 C 231.76,135.241 231.859,140.631 231.859,147.145 L 231.859,158.988 L 233.724,158.988 L 235.589,158.988 L 235.589,146.861 L 235.589,134.735 L 234.923,134.156 C 234.557,133.838 234.257,133.432 234.257,133.255 C 234.257,133.078 235.086,132.264 236.099,131.445 C 237.112,130.626 238.199,129.594 238.515,129.15 C 239.875,127.239 239.853,126.954 239.853,145.797 L 239.853,163.251 L 225.698,163.251 L 211.543,163.251 L 211.666,159.855 z M 219.602,157.257 L 219.602,155.525 L 218.557,155.525 C 217.154,155.525 215.872,156.743 215.872,158.077 L 215.872,158.989 L 217.737,158.989 L 219.602,158.989 L 219.602,157.257 L 219.602,157.257 z M 242.786,149.417 C 242.786,139.743 242.873,135.516 243.075,135.391 C 243.234,135.293 243.924,135.799 244.607,136.516 C 245.291,137.233 246.509,138.384 247.315,139.074 C 248.588,140.164 248.721,140.365 248.328,140.604 C 247.016,141.401 247.049,141.151 247.049,150.347 L 247.049,158.989 L 249.652,158.989 C 252.013,158.989 252.349,158.925 253.27,158.299 C 253.829,157.92 254.351,157.675 254.431,157.755 C 254.511,157.835 254.367,158.415 254.11,159.044 C 253.853,159.673 253.568,160.847 253.477,161.653 L 253.311,163.119 L 248.048,163.191 L 242.785,163.263 L 242.785,149.417 L 242.786,149.417 z M 221.812,134.919 C 221.342,134.747 220.802,134.442 220.613,134.242 C 220.323,133.936 220.467,133.906 221.521,134.057 C 223.415,134.327 224.576,134.006 225.632,132.917 L 226.561,131.961 L 227.852,132.419 C 228.562,132.671 229.304,132.815 229.502,132.739 C 230.014,132.542 230.942,131.071 230.849,130.603 C 230.736,130.032 231.26,130.119 231.584,130.724 C 232.22,131.912 231.689,133.419 230.474,133.878 C 229.879,134.103 229.304,134.109 228.34,133.903 C 227.156,133.649 226.962,133.676 226.443,134.162 C 225.279,135.252 223.511,135.541 221.812,134.919 z M 225.038,130.525 C 224.396,130.087 223.041,127.842 222.99,127.128 C 222.945,126.516 223.054,126.329 223.489,126.266 C 224.251,126.157 224.603,126.664 225.189,128.715 C 225.668,130.389 225.624,130.924 225.038,130.525 z" id="path4472" style="fill:#009e60"/>
      </g>
    </g>
  </g>
</svg>
