<?xml version="1.0" encoding="UTF-8" standalone="no"?>
<svg height="256" id="svg2555" inkscape:output_extension="org.inkscape.output.svg.inkscape" inkscape:version="0.46" sodipodi:docname="Flag_of_Australia.svg" sodipodi:version="0.32" version="1.0" viewBox="0 0 30240 15120" width="256" xmlns="http://www.w3.org/2000/svg" xmlns:cc="http://creativecommons.org/ns#" xmlns:dc="http://purl.org/dc/elements/1.1/" xmlns:inkscape="http://www.inkscape.org/namespaces/inkscape" xmlns:rdf="http://www.w3.org/1999/02/22-rdf-syntax-ns#" xmlns:sodipodi="http://sodipodi.sourceforge.net/DTD/sodipodi-0.dtd" xmlns:svg="http://www.w3.org/2000/svg" xmlns:xlink="http://www.w3.org/1999/xlink">
  <metadata>
    <rdf:RDF xmlns:cc="http://web.resource.org/cc/" xmlns:dc="http://purl.org/dc/elements/1.1/" xmlns:rdf="http://www.w3.org/1999/02/22-rdf-syntax-ns#">
      <cc:Work rdf:about="">
        <dc:title></dc:title>
        <dc:description></dc:description>
        <dc:subject>
          <rdf:Bag>
            <rdf:li>unsorted</rdf:li>
          </rdf:Bag>
        </dc:subject>
        <dc:publisher>
          <cc:Agent rdf:about="http://www.openclipart.org/">
            <dc:title>Open Clip Art Library, Source: Wikimedia Commons</dc:title>
          </cc:Agent>
        </dc:publisher>
        <dc:creator>
          <cc:Agent>
            <dc:title></dc:title>
          </cc:Agent>
        </dc:creator>
        <dc:rights>
          <cc:Agent>
            <dc:title></dc:title>
          </cc:Agent>
        </dc:rights>
        <dc:date></dc:date>
        <dc:format>image/svg+xml</dc:format>
        <dc:type rdf:resource="http://purl.org/dc/dcmitype/StillImage"/>
        <cc:license rdf:resource="http://web.resource.org/cc/PublicDomain"/>
        <dc:language>en</dc:language>
      </cc:Work>
      <cc:License rdf:about="http://web.resource.org/cc/PublicDomain">
        <cc:permits rdf:resource="http://web.resource.org/cc/Reproduction"/>
        <cc:permits rdf:resource="http://web.resource.org/cc/Distribution"/>
        <cc:permits rdf:resource="http://web.resource.org/cc/DerivativeWorks"/>
      </cc:License>
    </rdf:RDF>
  </metadata>
  <sodipodi:namedview bordercolor="#666666" borderopacity="1.0" gridtolerance="10.0" guidetolerance="10.0" id="base" inkscape:current-layer="svg2555" inkscape:cx="640" inkscape:cy="320" inkscape:pageopacity="0.0" inkscape:pageshadow="2" inkscape:window-height="715" inkscape:window-width="771" inkscape:window-x="161" inkscape:window-y="221" inkscape:zoom="0.43671875" objecttolerance="10.0" pagecolor="#ffffff" showgrid="false"/>
  <defs id="defs6">
    <inkscape:perspective id="perspective2577" inkscape:persp3d-origin="640 : 213.33333 : 1" inkscape:vp_x="0 : 320 : 1" inkscape:vp_y="0 : 1000 : 0" inkscape:vp_z="1280 : 320 : 1" sodipodi:type="inkscape:persp3d"/>
    <polygon id="Star7" points="0,-9 1.735535,-3.6038755 7.0364833,-5.6114082 3.8997116,-0.89008374 8.7743512,2.0026884 3.1273259,2.4939592 3.9049537,8.1087198 0,4 -3.9049537,8.1087198 -3.1273259,2.4939592 -8.7743512,2.0026884 -3.8997116,-0.89008374 -7.0364833,-5.6114082 -1.735535,-3.6038755 0,-9 "/>
    <polygon id="Star5" points="0,-9 2.351141,-3.236068 8.5595086,-2.7811529 3.8042261,1.236068 5.2900673,7.2811529 0,4 -5.2900673,7.2811529 -3.8042261,1.236068 -8.5595086,-2.7811529 -2.351141,-3.236068 0,-9 "/>
  </defs>
  <path d="M 0,0 L 30240,0 L 30240,15120 L 0,15120 L 0,0 z" id="path2560" style="fill:#00008b"/>
  <use height="15120" id="Commonwealth_Star" style="fill:#ffffff" transform="matrix(252,0,0,252,7560,11340)" width="30240" x="0" xlink:href="#Star7" y="0"/>
  <use height="15120" id="Star_Alpha_Crucis" style="fill:#ffffff" transform="matrix(120,0,0,120,22680,12600)" width="30240" x="0" xlink:href="#Star7" y="0"/>
  <use height="15120" id="Star_Beta_Crucis" style="fill:#ffffff" transform="matrix(120,0,0,120,18900,6615)" width="30240" x="0" xlink:href="#Star7" y="0"/>
  <use height="15120" id="Star_Gamma_Crucis" style="fill:#ffffff" transform="matrix(120,0,0,120,22680,2520)" width="30240" x="0" xlink:href="#Star7" y="0"/>
  <use height="15120" id="Star_Delta_Crucis" style="fill:#ffffff" transform="matrix(120,0,0,120,26040,5607)" width="30240" x="0" xlink:href="#Star7" y="0"/>
  <use height="15120" id="Star_Epsilon_Crucis" style="fill:#ffffff" transform="matrix(70,0,0,70,24192,8190)" width="30240" x="0" xlink:href="#Star5" y="0"/>
  <path d="M 6300,0 L 8820,0 L 8820,2520 L 15120,2520 L 15120,5040 L 8820,5040 L 8820,7560 L 6300,7560 L 6300,5040 L 0,5040 L 0,2520 L 6300,2520 L 6300,0 z" id="White_Cross" style="fill:#ffffff"/>
  <path d="M 0,0 L 1690.4674,0 L 15120,6714.7663 L 15120,7560 L 13429.533,7560 L 0,845.2337 L 0,0 z" id="White_Diagonal" style="fill:#ffffff"/>
  <use height="15120" id="White_Diagonal_Flipped" style="fill:#ffffff" transform="matrix(-1,0,0,1,15120,0)" width="30240" x="0" xlink:href="#White_Diagonal" y="0"/>
  <path d="M 6804,0 L 8316,0 L 8316,3024 L 15120,3024 L 15120,4536 L 8316,4536 L 8316,7560 L 6804,7560 L 6804,4536 L 0,4536 L 0,3024 L 6804,3024 L 6804,0 z" id="Red_Cross" style="fill:#ff0000"/>
  <path d="M 0,0 L 5040,2520 L 3913.0217,2520 L 0,563.48913 L 0,0 z M 15120,0 L 13993.022,0 L 8953.0217,2520 L 10080,2520 L 15120,0 z" id="Red_Diagonals" style="fill:#ff0000"/>
  <use height="15120" id="Red_Diagonals_Rotated" style="fill:#ff0000" transform="matrix(-1,0,0,-1,15120,7560)" width="30240" x="0" xlink:href="#Red_Diagonals" y="0"/>
</svg>
