<?xml version="1.0" encoding="UTF-8" standalone="no"?>
<!-- Created with Sodipodi ("http://www.sodipodi.com/") --><svg height="256" id="svg761" inkscape:output_extension="org.inkscape.output.svg.inkscape" inkscape:version="0.46" sodipodi:docbase="C:\Documents and Settings\David Nelson\Archives\Svg" sodipodi:docname="Flag_of_Saudi_Arabia.svg" sodipodi:version="0.32" version="1.0" width="256" xmlns="http://www.w3.org/2000/svg" xmlns:cc="http://creativecommons.org/ns#" xmlns:dc="http://purl.org/dc/elements/1.1/" xmlns:inkscape="http://www.inkscape.org/namespaces/inkscape" xmlns:rdf="http://www.w3.org/1999/02/22-rdf-syntax-ns#" xmlns:sodipodi="http://sodipodi.sourceforge.net/DTD/sodipodi-0.dtd" xmlns:svg="http://www.w3.org/2000/svg">
  <metadata>
    <rdf:RDF xmlns:cc="http://web.resource.org/cc/" xmlns:dc="http://purl.org/dc/elements/1.1/" xmlns:rdf="http://www.w3.org/1999/02/22-rdf-syntax-ns#">
      <cc:Work rdf:about="">
        <dc:title>Saudi Arabia</dc:title>
        <dc:description></dc:description>
        <dc:subject>
          <rdf:Bag>
            <rdf:li></rdf:li>
            <rdf:li>united_nations_member</rdf:li>
            <rdf:li>asia</rdf:li>
            <rdf:li>flag</rdf:li>
            <rdf:li>arab</rdf:li>
            <rdf:li>sign</rdf:li>
          </rdf:Bag>
        </dc:subject>
        <dc:publisher>
          <cc:Agent rdf:about="http://www.openclipart.org">
            <dc:title>Cezary Biele, Source: Wikimedia Commons</dc:title>
          </cc:Agent>
        </dc:publisher>
        <dc:creator>
          <cc:Agent>
            <dc:title>Cezary Biele</dc:title>
          </cc:Agent>
        </dc:creator>
        <dc:rights>
          <cc:Agent>
            <dc:title>Cezary Biele</dc:title>
          </cc:Agent>
        </dc:rights>
        <dc:date></dc:date>
        <dc:format>image/svg+xml</dc:format>
        <dc:type rdf:resource="http://purl.org/dc/dcmitype/StillImage"/>
        <cc:license rdf:resource="http://web.resource.org/cc/PublicDomain"/>
        <dc:language>en</dc:language>
      </cc:Work>
      <cc:License rdf:about="http://web.resource.org/cc/PublicDomain">
        <cc:permits rdf:resource="http://web.resource.org/cc/Reproduction"/>
        <cc:permits rdf:resource="http://web.resource.org/cc/Distribution"/>
        <cc:permits rdf:resource="http://web.resource.org/cc/DerivativeWorks"/>
      </cc:License>
    </rdf:RDF>
  </metadata>
  <defs id="defs763">
    <inkscape:perspective id="perspective4890" inkscape:persp3d-origin="375 : 166.66667 : 1" inkscape:vp_x="0 : 250 : 1" inkscape:vp_y="0 : 1000 : 0" inkscape:vp_z="750 : 250 : 1" sodipodi:type="inkscape:persp3d"/>
  </defs>
  <sodipodi:namedview id="base" inkscape:current-layer="svg761" inkscape:cx="375" inkscape:cy="250" inkscape:window-height="674" inkscape:window-width="964" inkscape:window-x="64" inkscape:window-y="102" inkscape:zoom="0.746" showgrid="false"/>
  <rect height="170.66701" id="rect681" style="font-size:12px;fill:#009530;fill-opacity:1;fill-rule:evenodd;stroke:none;stroke-width:1pt;stroke-opacity:1" width="256" x="0" y="42.333"/>
  <path d="M 64.51344,90.71095 C 64.217911,94.698057 63.8632,101.71447 67.250985,102.43421 C 71.348531,102.82814 69.089205,95.498989 70.57237,94.169956 C 70.852765,93.513175 71.369861,93.509735 71.412521,94.338187 C 71.412521,96.410361 71.412521,98.482874 71.412521,100.55505 C 71.375022,102.57664 72.704058,103.17218 73.73653,103.58985 C 74.810972,103.50693 75.528301,103.54271 75.949408,104.58827 C 76.117303,108.17285 76.285539,111.75743 76.453431,115.34202 C 76.453431,115.34202 78.945328,116.05522 79.064023,109.2934 C 79.183063,105.32314 78.271007,101.99968 78.805647,101.22731 C 78.824571,100.46835 79.793739,100.42294 80.465995,100.79278 C 81.537,101.5483 82.014188,102.48134 83.678665,102.10806 C 86.211502,101.41034 87.73389,100.17832 87.771392,98.233444 C 87.623455,96.38525 87.41634,94.536707 86.615409,92.688503 C 86.727223,92.352373 86.126524,91.481601 86.237993,91.14547 C 86.693161,91.858332 87.385719,91.799152 87.543293,91.14547 C 87.112206,89.724918 86.443387,88.363885 85.358967,87.774884 C 84.462735,86.985302 83.151247,87.146663 82.670964,88.793246 C 82.448367,90.69065 83.354921,92.944814 84.736594,94.782697 C 85.030062,95.500709 85.442225,96.693851 85.260916,97.768303 C 84.525694,98.187694 83.790476,98.012914 83.174642,97.362672 C 83.174642,97.362672 81.158554,95.850599 81.158554,95.514479 C 81.693539,92.089182 81.277249,91.700751 80.980685,90.75017 C 80.773571,89.437987 80.150852,89.017226 79.646488,88.120985 C 79.14212,87.586344 78.459887,87.586344 78.133733,88.120985 C 77.242665,89.665748 77.658266,92.981974 78.301969,94.467207 C 78.767114,95.833399 79.477907,96.690751 79.14212,96.690751 C 78.86551,97.462793 78.293712,97.284572 77.877767,96.3935 C 77.283949,94.551837 77.164909,91.803972 77.164909,90.566449 C 76.986696,89.032356 76.790938,85.76017 75.781171,84.928618 C 75.165338,84.089837 74.252247,84.498908 73.933322,85.264399 C 73.866919,86.787132 73.860041,88.309525 74.031374,89.712878 C 74.723929,92.174162 74.941365,94.338187 75.277493,96.858651 C 75.370728,100.23475 73.325397,98.323584 73.418977,96.649811 C 73.890659,94.475807 73.768182,91.05396 73.349137,90.186619 C 73.016791,89.319297 72.624582,89.105296 71.816428,89.248077 C 71.174789,89.208857 69.523729,91.01164 69.060304,94.002056 C 69.060304,94.002056 68.664999,95.541309 68.496418,96.907851 C 68.269694,98.452254 67.25305,99.542187 66.540196,96.690751 C 65.924014,94.618237 65.545226,89.516087 64.51344,90.71095 z" id="path766" sodipodi:nodetypes="cccccccccccccccccccccccccccccccccccccccc" style="fill:#ffffff;fill-opacity:1;fill-rule:evenodd;stroke:none;stroke-width:1pt;stroke-linecap:butt;stroke-linejoin:round;stroke-opacity:1"/>
  <path d="M 75.648027,107.06847 C 72.032143,108.83616 68.534951,110.48516 64.9779,112.19333 C 65.107948,109.77472 70.050802,105.40881 73.421728,105.34722 C 75.615689,105.40847 75.064532,106.19735 75.648027,107.06847 z" id="path767" sodipodi:nodetypes="cccc" style="fill:#ffffff;fill-opacity:1;fill-rule:evenodd;stroke:none;stroke-width:1pt;stroke-linecap:butt;stroke-linejoin:miter;stroke-opacity:1"/>
  <path d="M 89.268234,84.489018 C 89.064885,84.514708 88.845356,84.632088 88.580147,84.693288 C 87.70903,84.970588 86.892879,85.72198 87.150223,87.187603 C 88.179941,93.445055 88.85134,98.217964 89.881057,104.47577 C 90.03932,105.20858 89.425889,106.17645 88.633904,106.07771 C 87.287327,105.16669 86.953776,103.32184 84.655916,103.40062 C 82.992473,103.42058 81.086993,105.22681 80.849947,106.97007 C 80.572652,108.35553 80.473911,109.85806 80.849947,111.06634 C 82.019007,112.47209 83.428028,112.32966 84.655916,112.01245 C 85.665679,111.59685 86.492413,110.59242 86.849184,110.82981 C 86.850116,110.83097 86.859022,110.82856 86.859936,110.82981 C 86.860838,110.83115 86.859049,110.83912 86.859936,110.84056 C 87.080127,111.22543 86.833695,114.48614 82.097101,117.00108 C 79.186162,118.30809 76.871615,118.61438 75.624806,116.23773 C 74.852431,114.7525 75.687851,109.10314 73.786327,110.41051 C 68.162953,124.90607 86.953172,126.92345 89.053208,111.00183 C 89.189209,110.55266 89.610165,110.10648 89.902561,110.21698 C 90.030868,110.27162 90.139849,110.4395 90.182096,110.7653 C 89.74619,125.18139 75.644672,126.17008 73.248761,121.63491 C 72.654947,120.56597 72.48043,118.1906 72.420912,116.76455 C 72.31231,115.90183 72.091262,115.40259 71.840338,115.20561 C 71.268775,114.77615 70.499523,115.89555 70.335153,117.83968 C 70.097422,119.40404 70.163132,119.83978 70.163132,121.34462 C 70.915557,132.73107 89.070408,127.83714 92.020572,118.431 C 93.481049,113.56841 91.994474,109.89331 92.482877,109.44289 C 92.487103,109.43934 92.499872,109.43523 92.504381,109.43214 C 92.509034,109.42927 92.52094,109.42379 92.525885,109.42138 C 92.530975,109.41921 92.541993,109.41235 92.547386,109.41063 C 92.564026,109.40618 92.592425,109.40014 92.611895,109.39988 C 94.413991,111.34097 96.9384,109.65387 97.492995,108.98057 C 97.730731,108.64376 98.324545,108.42675 98.740149,108.8623 C 100.14591,109.87276 102.61235,109.3973 103.12669,107.61515 C 103.42394,105.87258 103.66924,104.07891 103.72876,102.21798 C 102.81307,102.50228 102.08017,102.71085 101.78277,103.02433 C 101.71195,103.10167 101.65846,103.1895 101.643,103.28236 C 101.56353,103.79739 101.48595,104.31553 101.40648,104.83056 C 101.39799,104.87314 101.38396,104.9134 101.36347,104.94882 C 101.32444,105.01204 101.25857,105.07161 101.19145,105.11009 C 100.86772,105.28684 100.3067,105.18264 100.27759,104.7123 C 99.842034,102.73198 98.044669,102.47025 96.95543,105.54015 C 96.222614,106.13396 94.8904,106.24844 94.751409,105.35737 C 94.929626,103.29793 94.102975,103.0214 92.439873,103.99196 C 91.905229,99.912637 91.372913,96.01901 90.837927,91.939692 C 91.531172,91.919742 92.160942,92.430643 92.794668,91.638661 C 92.108865,89.505767 90.666493,85.165029 89.848805,84.757798 C 89.842381,84.754828 89.833649,84.749528 89.827301,84.747048 C 89.790177,84.702498 89.745323,84.660538 89.709039,84.628778 C 89.693942,84.615968 89.670284,84.596588 89.655282,84.585778 C 89.640291,84.575348 89.616456,84.562078 89.601526,84.553528 C 89.568696,84.535498 89.526801,84.520488 89.494013,84.510518 C 89.419462,84.489388 89.34526,84.479288 89.268234,84.489018 z M 84.20436,106.87331 C 84.573515,106.82792 84.992754,106.96838 85.204234,107.49689 C 85.37075,107.92109 85.210597,108.36258 85.010708,108.58277 C 85.009838,108.58448 85.01163,108.59185 85.010708,108.59352 C 85.007804,108.59844 85.003295,108.61043 84.99996,108.61503 C 84.858477,108.79731 84.364657,108.72254 84.010837,108.72254 C 83.582846,108.70362 83.375476,108.6299 83.118476,108.28173 C 82.995654,107.89469 83.362229,107.51675 83.527028,107.2281 C 83.528605,107.22542 83.536094,107.22004 83.53778,107.21735 C 83.555669,107.19046 83.585478,107.15754 83.613037,107.13134 C 83.741037,107.0141 83.967048,106.90248 84.20436,106.87331 z" id="path768" style="fill:#ffffff;fill-opacity:1;fill-rule:evenodd;stroke:none;stroke-width:1pt;stroke-linecap:butt;stroke-linejoin:miter;stroke-opacity:1"/>
  <path d="M 101.92,84.157067 C 101.43477,84.181797 101.0064,84.320877 100.64,84.509068 C 99.709365,85.400139 99.491188,86.828672 100.224,87.719744 C 100.9372,88.056564 101.6488,88.774416 101.17333,89.170417 C 99.156483,91.324591 93.907319,94.924208 93.642667,95.581089 C 93.640783,95.586449 93.633157,95.597499 93.632,95.602429 C 93.631208,95.607139 93.632051,95.619479 93.632,95.623759 C 93.63216,95.625789 93.631648,95.632509 93.632,95.634429 C 93.633621,95.639849 93.639318,95.651349 93.642667,95.655759 C 93.643977,95.657119 93.651828,95.665179 93.653333,95.666429 C 93.655037,95.667549 93.662099,95.665419 93.664,95.666429 C 93.666103,95.667319 93.672363,95.676319 93.674667,95.677089 C 93.677172,95.677749 93.682627,95.676549 93.685333,95.677089 C 93.686125,95.677849 93.695102,95.687009 93.696,95.687759 C 93.962742,95.866669 97.247232,95.862439 97.610667,95.698429 C 97.613278,95.697039 97.619135,95.689169 97.621333,95.687759 C 97.62233,95.687049 97.631109,95.688469 97.632,95.687759 C 97.632785,95.687039 97.631321,95.677819 97.632,95.677089 C 98.760806,95.261148 104.11733,89.138417 104.11733,89.138417 C 103.83969,88.900686 103.58397,88.725476 103.30667,88.487745 C 103.00941,88.230405 103.03934,87.977434 103.30667,87.719744 C 104.63329,86.947712 104.2129,85.249099 103.52,84.477068 C 102.94562,84.219547 102.40523,84.132337 101.92,84.157067 z M 101.664,86.055741 C 101.99161,86.022351 102.38746,86.323371 102.58133,86.749072 C 102.78814,87.203163 102.68441,87.637024 102.34667,87.719744 C 102.00892,87.802474 101.57214,87.501833 101.36533,87.047742 C 101.15853,86.593652 101.26225,86.149131 101.6,86.066411 C 101.62111,86.061241 101.64216,86.057971 101.664,86.055741 z" id="path769" style="fill:#ffffff;fill-opacity:1;fill-rule:evenodd;stroke:none;stroke-width:1pt;stroke-linecap:butt;stroke-linejoin:miter;stroke-opacity:1"/>
  <path d="M 65.345335,117.33162 C 63.339913,120.5264 63.165484,125.29931 64.271923,126.72227 C 64.859894,127.39453 65.825963,127.68903 66.540541,127.47848 C 67.800422,126.93214 68.351921,124.37933 68.052948,123.4456 C 67.632531,122.78745 67.301216,122.6832 66.881485,123.24296 C 65.994889,125.043 65.626764,123.80822 65.549008,122.80224 C 65.413113,120.89453 65.592702,119.13749 65.799817,117.74619 C 66.020349,116.32013 65.796031,116.75603 65.345335,117.33162 z" id="path770" sodipodi:nodetypes="ccccccsc" style="fill:#ffffff;fill-opacity:1;fill-rule:evenodd;stroke:none;stroke-width:1pt;stroke-linecap:butt;stroke-linejoin:miter;stroke-opacity:1"/>
  <path d="M 151.04043,112.2157 C 149.10141,108.04211 146.41719,103.91772 145.56293,102.3334 C 144.70902,100.7484 138.26132,91.391121 137.31211,90.338689 C 135.21758,87.849544 140.71331,91.375291 136.6168,86.433461 C 135.05485,85.093409 134.96402,85.011869 133.66767,83.918506 C 133.01365,83.454386 131.41694,82.606674 131.13414,84.011737 C 130.99205,85.250639 131.06877,85.92256 131.27692,86.953992 C 131.43655,87.641744 132.43841,88.793596 132.93108,89.461037 C 139.4727,98.254084 145.27325,107.13418 150.86704,118.29906 C 151.75019,117.87933 151.55718,112.9141 151.04043,112.2157 z" id="path771" sodipodi:nodetypes="csccccsccc" style="fill:#ffffff;fill-opacity:1;fill-rule:evenodd;stroke:none;stroke-width:1pt;stroke-linecap:butt;stroke-linejoin:miter;stroke-opacity:1"/>
  <path d="M 142.52951,126.17972 C 142.14831,126.6077 143.47081,128.43835 145.18965,128.43663 C 148.06412,128.10291 150.59455,126.48832 152.93748,122.23801 C 153.56398,121.24683 154.66526,119.12683 154.6976,117.48231 C 154.91676,107.8405 154.21491,100.33796 152.77028,93.369365 C 152.67773,92.690573 152.73415,91.892732 152.84906,91.689061 C 153.03519,91.466811 153.66651,91.690091 154.00126,91.141 C 154.49255,90.639389 152.69665,86.484381 151.67278,84.883888 C 151.30913,84.169307 151.18252,83.692126 150.58079,84.967838 C 149.94775,86.00478 149.52252,87.814104 149.5724,89.504727 C 150.94376,98.998595 151.36486,107.30414 152.26109,116.79835 C 152.33403,117.7166 152.19917,119.05079 151.58884,119.58269 C 149.33123,121.94007 146.0728,124.84173 142.52951,126.17972 z" id="path793" sodipodi:nodetypes="ccccccccccccc" style="fill:#ffffff;fill-opacity:1;fill-rule:evenodd;stroke:none;stroke-width:1pt;stroke-linecap:butt;stroke-linejoin:miter;stroke-opacity:1"/>
  <path d="M 181.36019,126.1288 C 179.29732,127.32125 179.29491,128.69294 180.96283,128.74249 C 183.8373,128.40877 187.23369,128.17 189.57661,124.63289 C 190.20346,123.64171 190.94797,120.96127 190.98031,119.31674 C 191.19946,109.67494 190.85439,100.24468 189.40975,93.276084 C 189.31721,92.597293 189.01686,91.03499 189.13177,90.83132 C 189.31789,90.354129 190.25507,90.88327 190.58982,90.334179 C 191.08111,89.832558 188.16398,86.085241 187.14011,84.484758 C 186.77645,83.770176 186.64985,83.292985 186.04812,84.568698 C 185.41508,85.60565 185.19386,87.465893 185.44742,89.105596 C 186.97153,99.414846 188.10618,109.39352 188.34013,118.53095 C 188.20905,119.39828 188.17636,119.86584 187.7697,120.95852 C 186.87003,122.11175 185.87334,123.55363 184.93858,124.25066 C 184.00416,124.94736 182.01043,125.61239 181.36019,126.1288 z" id="path794" sodipodi:nodetypes="ccccccccccccsc" style="fill:#ffffff;fill-opacity:1;fill-rule:evenodd;stroke:none;stroke-width:1pt;stroke-linecap:butt;stroke-linejoin:miter;stroke-opacity:1"/>
  <path d="M 182.90632,116.88711 C 182.88258,114.47606 182.94038,112.39425 182.86091,110.59594 C 182.78178,108.79763 181.95956,102.04705 181.68295,100.58934 C 181.40668,99.131976 181.13347,96.949372 180.7158,95.219868 C 180.60124,94.544507 180.25031,92.381513 180.35869,92.174052 C 180.52899,91.691361 181.17751,92.189192 181.49437,91.629771 C 181.9688,91.11268 179.84882,85.62726 178.77334,84.060827 C 178.38664,83.358635 177.68445,83.599126 176.81849,84.741008 C 176.0155,85.49239 176.31344,87.206073 176.61998,88.836486 C 178.68251,99.600217 180.22107,110.88391 179.88528,121.1302 C 179.78242,122.00131 182.92765,118.53164 182.90632,116.88711 z" id="path795" sodipodi:nodetypes="csscccccccc" style="fill:#ffffff;fill-opacity:1;fill-rule:evenodd;stroke:none;stroke-width:1pt;stroke-linecap:butt;stroke-linejoin:miter;stroke-opacity:1"/>
  <path d="M 167.66559,103.53549 C 166.3682,103.51175 163.65096,101.0109 162.85794,99.545627 C 162.55828,98.705125 162.7506,97.885273 163.01483,97.404992 C 163.49511,97.092602 164.23411,96.741671 164.78664,97.078152 C 164.78664,97.078152 165.35947,97.879773 165.24869,97.981604 C 165.95708,98.320834 166.25777,98.125764 166.32967,97.837453 C 166.37784,97.333082 166.12015,97.032392 166.1174,96.476761 C 166.41775,94.969858 168.14003,94.735557 168.78854,95.696469 C 169.26332,96.28238 169.43741,97.527123 169.50931,98.367624 C 169.50174,98.796985 168.80643,98.293304 168.41147,98.396524 C 168.01617,98.500075 167.92121,98.955935 167.89059,99.368446 C 167.81903,100.46113 167.68967,102.21436 167.66559,103.53549 z" id="path796" sodipodi:nodetypes="cccccccccscc" style="fill:#ffffff;fill-opacity:1;fill-rule:evenodd;stroke:none;stroke-width:1pt;stroke-linecap:butt;stroke-linejoin:miter;stroke-opacity:0.528302"/>
  <path d="M 143.72471,119.55999 C 144.08218,116.28401 143.59261,109.59639 143.55992,107.66321 C 143.42884,103.09638 142.68296,94.275806 142.3279,92.802274 C 141.92778,90.024468 143.47047,93.107094 143.25682,91.492501 C 142.75658,88.718486 141.21802,86.838292 139.40939,84.297537 C 138.82624,83.471136 138.84585,83.302565 137.94549,84.500168 C 136.94915,86.760542 137.80925,88.315265 138.0666,90.075388 C 139.37086,95.810589 140.13188,101.08786 140.48625,106.30458 C 140.84061,111.52165 140.94933,118.01523 140.62593,123.50959 C 141.60335,123.54813 143.17494,121.92838 143.72471,119.55999 z" id="path797" sodipodi:nodetypes="cscccccscc" style="fill:#ffffff;fill-opacity:1;fill-rule:evenodd;stroke:none;stroke-width:1pt;stroke-linecap:butt;stroke-linejoin:miter;stroke-opacity:1"/>
  <path d="M 187.32176,114.31263 C 185.03422,110.47415 181.5821,105.97575 180.65973,104.42996 C 179.73769,102.88383 171.93756,91.445071 170.94362,90.434959 C 168.09014,87.437313 172.25236,89.947108 170.39729,87.631694 C 168.82845,85.90907 168.37088,85.368239 167.02808,84.332327 C 166.35479,83.897106 165.94675,83.066245 165.72554,84.482328 C 165.63746,85.72638 165.5456,87.165513 165.6292,88.214155 C 165.62438,88.796966 166.23128,89.892058 166.7525,90.537479 C 173.67085,99.037406 181.21673,109.43274 187.29148,120.34337 C 188.15572,119.88545 187.86844,114.988 187.32176,114.31263 z" id="path798" sodipodi:nodetypes="csccccsccc" style="fill:#ffffff;fill-opacity:1;fill-rule:evenodd;stroke:none;stroke-width:1pt;stroke-linecap:butt;stroke-linejoin:miter;stroke-opacity:1"/>
  <path d="M 159.616,159.61321 C 159.61335,159.61444 159.60802,159.62203 159.60533,159.62388 C 157.58202,160.14304 157.64497,162.24358 158.944,163.16522 C 137.57862,163.16522 104.79233,162.80255 97.76,162.80256 C 93.826222,162.80256 81.380444,162.33322 81.141333,162.33322 C 83.810413,166.23707 87.676853,167.03208 92.736,167.1119 C 102.22565,167.1119 146.19558,166.99457 158.70933,166.99457 C 157.81975,168.57408 158.79004,171.11584 159.488,171.58124 C 159.5028,171.59077 159.52681,171.60564 159.54133,171.61324 C 159.56737,171.62622 159.60173,171.6388 159.62667,171.64524 C 159.63493,171.64714 159.65054,171.6441 159.65867,171.64524 C 160.48712,171.84066 160.85165,171.24087 161.13067,170.80257 C 162.47458,170.92102 170.03837,171.03043 170.73067,170.7919 C 170.73318,170.79095 170.73904,170.7822 170.74133,170.78123 C 171.20957,171.47035 171.67426,172.12145 172.56533,172.00791 C 174.12488,171.6735 175.35313,171.50376 175.392,168.33857 C 175.392,168.33857 175.23258,162.9447 171.69067,163.28256 C 170.85258,163.40916 168.50133,163.64522 168.50133,163.64522 C 165.7803,163.32148 163.78456,163.28839 160.72533,163.17589 C 161.00769,162.81741 161.50623,161.36566 160.896,160.83988 C 160.73686,160.70756 160.49947,160.63388 160.17067,160.65855 C 160.1683,160.65872 160.16234,160.65852 160.16,160.65855 C 160.15537,160.65831 160.14319,160.65933 160.13867,160.65855 C 160.13643,160.65802 160.13022,160.64854 160.128,160.64788 C 160.11924,160.64471 160.10438,160.64238 160.096,160.63721 C 160.07942,160.62594 160.05786,160.60208 160.04267,160.58388 C 160.03891,160.57914 160.02501,160.56767 160.02133,160.56255 C 159.86663,160.33731 159.78217,159.78508 159.68,159.64521 C 159.67879,159.64368 159.67055,159.63596 159.66933,159.63455 C 159.66811,159.63337 159.6599,159.62493 159.65867,159.62388 C 159.65494,159.62148 159.64113,159.61441 159.63733,159.61321 C 159.63605,159.61309 159.62795,159.61319 159.62667,159.61321 C 159.62536,159.61352 159.61731,159.61275 159.616,159.61321 z M 161.06667,167.32523 C 161.07038,167.32352 161.07357,167.32686 161.07733,167.32523 C 164.19436,167.4773 167.12297,167.3545 170.24,167.50657 C 170.734,167.92652 170.48694,168.88843 170.16533,169.0639 C 170.15092,169.07111 170.12663,169.0813 170.112,169.08523 C 170.10028,169.08784 170.08111,169.08489 170.06933,169.08523 C 170.05755,169.08499 170.03843,169.08788 170.02667,169.08523 C 169.01312,169.05977 168.42688,169.03602 167.41333,169.01057 C 167.41157,168.96014 167.40598,168.90575 167.392,168.86123 C 167.1518,168.14933 165.41199,168.19697 165.00267,168.75457 C 164.997,168.7626 164.98645,168.77833 164.98133,168.78657 C 164.97477,168.79765 164.96554,168.81779 164.96,168.82923 C 164.95341,168.84365 164.94356,168.86759 164.93867,168.88257 C 164.9323,168.90369 164.93084,168.93504 164.928,168.95723 C 164.92534,168.98278 164.91505,169.01565 164.91733,169.04257 C 163.54907,169.20702 162.31759,168.99714 160.94933,168.94657 C 160.5479,168.44683 160.59476,167.54252 161.06667,167.32523 z" id="path800" style="fill:#ffffff;fill-opacity:1;fill-rule:evenodd;stroke:none;stroke-width:1.25;stroke-linecap:butt;stroke-linejoin:round;stroke-dasharray:none;stroke-opacity:1"/>
  <path d="M 105.54668,87.425673 C 103.46385,93.378655 106.73982,99.890357 109.01119,99.256286 C 110.64986,99.934737 111.69334,96.817361 112.36423,93.402055 C 112.82318,92.443543 113.16997,92.341363 113.40564,92.834034 C 113.34509,97.375752 113.73179,98.381724 114.89947,99.760307 C 117.50422,101.76986 119.65895,100.01697 119.82788,99.847697 C 119.99681,99.678767 121.85601,97.819563 121.85601,97.819563 C 122.30739,97.344782 122.90843,97.316912 123.54594,97.735273 C 124.16556,98.298474 124.07852,99.271426 125.40515,99.946087 C 126.52157,100.39266 128.90853,100.04931 129.46141,99.087356 C 130.20557,97.811993 130.38413,97.374032 130.72886,96.890301 C 131.26006,96.18329 132.16558,96.497751 132.16558,96.721031 C 132.08095,97.115302 131.5494,97.509923 131.91202,98.220024 C 132.54368,98.693775 132.68956,98.388954 133.06319,98.283674 C 134.38465,97.652013 135.37687,94.777537 135.37687,94.777537 C 135.43536,93.708245 134.83604,93.796665 134.44727,94.016856 C 133.94015,94.326836 133.90712,94.425927 133.40001,94.735907 C 132.75389,94.831887 131.50055,95.260228 130.88093,94.300686 C 130.24823,93.147114 130.23963,91.537681 129.75591,90.374129 C 129.75591,90.289499 128.91645,88.541405 129.69776,88.429595 C 130.09204,88.502875 130.93322,88.725476 131.06705,88.017094 C 131.48059,87.326593 130.18149,85.371399 129.29248,84.383307 C 128.5208,83.536276 127.45151,83.434096 126.41939,84.299017 C 125.69655,84.964048 125.80045,85.70718 125.65871,86.411441 C 125.47465,87.220283 125.51387,88.215255 126.33475,89.284537 C 127.05621,90.70716 128.37251,92.539193 127.9404,95.115378 C 127.9404,95.115378 127.17146,96.33295 125.83176,96.17366 C 125.27338,96.05187 124.36786,95.814819 123.88414,92.242282 C 123.51808,89.538097 123.97049,85.75466 122.82277,83.980777 C 122.4082,82.909775 122.10544,81.875573 121.09533,83.707266 C 120.82388,84.426657 119.65895,85.5183 120.50392,87.763534 C 121.1951,89.187177 121.47653,91.503961 121.16276,94.081536 C 120.68386,94.813997 120.57755,95.062058 119.94967,95.794529 C 119.06755,96.743051 118.11042,96.500841 117.37727,96.14683 C 116.69228,95.685119 116.15591,95.446359 115.84318,93.979696 C 115.8996,91.641931 116.03,87.815134 115.60269,87.003192 C 114.97275,85.74572 113.93375,86.200541 113.48993,86.580362 C 111.35756,88.530055 110.3041,91.819792 109.6604,94.439337 C 109.06899,96.34843 108.43973,95.801409 107.9973,95.031098 C 106.9201,94.021666 106.84716,86.127951 105.54668,87.425673 z" id="path801" sodipodi:nodetypes="cccccccccccccccccccccccccccccccccccccccc" style="fill:#ffffff;fill-opacity:1;fill-rule:evenodd;stroke:none;stroke-width:1pt;stroke-linecap:butt;stroke-linejoin:miter;stroke-opacity:1"/>
  <path d="M 112.56635,99.723667 C 112.54801,99.730407 112.52945,99.746327 112.51259,99.755917 C 112.50433,99.760957 112.4887,99.771427 112.48034,99.777427 C 112.34305,99.880477 112.17581,100.11232 111.81376,100.36875 C 111.20308,101.06337 111.09893,101.54598 111.13642,102.93832 C 111.17117,103.08559 112.29101,106.2128 113.24368,108.41075 C 113.88601,110.6952 114.48662,113.3156 114.05003,115.78618 C 112.54622,119.05217 109.51753,121.9786 106.59937,123.57015 C 105.11262,124.04631 103.83614,123.88407 103.49223,123.55939 C 103.48962,123.5568 103.48398,123.55126 103.48148,123.54864 C 102.62768,122.97458 102.60156,121.94941 102.65363,121.77467 C 102.65362,121.77369 102.65369,121.76512 102.65363,121.76392 C 102.65558,121.76195 102.66242,121.75502 102.66438,121.75317 C 105.12669,120.03812 107.94509,118.65308 110.1473,114.02295 C 110.79754,112.25354 110.99768,111.18993 110.35158,108.45376 C 110.09971,107.43427 109.7786,106.59634 109.08292,105.87344 C 109.08472,105.87152 109.09185,105.86457 109.09367,105.86269 C 109.51283,105.66215 110.60289,106.46409 110.77088,105.95945 C 110.51353,104.65312 109.63322,102.90022 108.63136,102.00295 C 107.75406,101.20615 106.80028,101.11266 105.99729,101.84168 C 105.09281,102.34502 104.89515,104.15142 105.33071,105.73367 C 105.81443,106.92475 107.1205,107.1316 108.05079,109.5289 C 108.05077,109.53128 108.05071,109.53883 108.05079,109.53965 C 108.0702,109.68996 108.36888,111.33779 107.90028,112.0017 C 107.52001,113.18757 102.6339,117.03812 102.28809,117.26986 C 102.28427,117.27369 102.2703,117.28773 102.26658,117.29136 C 102.26466,117.29335 102.25766,117.30033 102.25583,117.30211 C 102.25496,117.3029 102.24735,117.31055 102.24508,117.31286 C 102.24414,117.31386 102.2353,117.32252 102.23433,117.32362 C 102.23335,117.32362 102.22476,117.32367 102.22358,117.32362 C 102.22303,117.32359 102.21525,117.32358 102.21283,117.32362 C 102.21088,117.32181 102.20396,117.31487 102.20207,117.31286 C 102.20216,117.31169 102.20205,117.30309 102.20207,117.30211 C 102.20009,117.29844 102.19325,117.28449 102.19132,117.28061 C 102.17661,117.18444 102.20244,116.93375 102.19132,116.53877 C 102.15925,115.81705 102.44915,114.18488 102.42785,113.90469 C 102.42786,113.90373 102.42782,113.89502 102.42785,113.89393 C 102.42586,113.892 102.4191,113.88507 102.4171,113.88318 C 102.41712,113.8822 102.41705,113.87362 102.4171,113.87243 C 102.41459,113.87248 102.40671,113.87246 102.40635,113.87243 C 100.79176,114.91489 100.26064,118.10847 99.965798,119.05458 C 95.878233,121.87883 91.24295,123.9879 88.569399,126.84931 C 87.177059,129.02366 98.162592,124.34974 99.438985,123.78517 C 99.449952,123.7934 99.461137,123.80693 99.471241,123.81742 C 99.713891,124.08447 99.731736,125.0103 100.46036,125.84944 C 101.60224,127.39625 104.02249,128.35321 106.38434,127.76317 C 110.34495,126.33161 112.63017,123.62958 114.95314,120.63503 C 115.28515,120.152 115.80533,119.77828 116.28631,120.15122 C 117.88266,123.72513 122.48509,126.26495 128.4353,126.52677 C 129.81216,124.85232 129.15495,124.02789 128.59657,123.67766 C 128.42457,123.56336 125.6426,122.48011 125.20991,121.39838 C 124.93742,120.39171 125.59205,119.50003 126.91937,118.8288 C 130.73996,118.36675 134.49853,117.84725 138.133,116.67854 C 138.16981,115.45753 138.88808,113.63332 139.3694,112.84031 C 139.70359,112.29007 139.92345,112.23019 140.00373,112.15222 C 140.00633,112.1495 140.01221,112.14428 140.01448,112.14147 C 140.01552,112.14003 140.02427,112.13219 140.02523,112.13072 C 140.02721,112.12885 140.03404,112.12186 140.03598,112.11997 C 140.03599,112.1163 140.03612,112.10226 140.03598,112.09847 C 140.03815,112.07431 140.03573,112.04259 140.02523,112.0017 L 139.40165,111.63616 L 127.20965,111.5824 C 127.05905,111.52442 126.94444,111.46487 126.87636,111.41038 C 126.87119,111.40604 126.85949,111.39317 126.85486,111.38888 C 126.85268,111.38674 126.84615,111.38025 126.84411,111.37813 C 126.8422,111.37601 126.83512,111.36948 126.83336,111.36737 C 126.83149,111.36366 126.8243,111.34958 126.8226,111.34587 C 126.82163,111.34491 126.81307,111.33625 126.81185,111.33512 C 126.81187,111.33416 126.81175,111.3255 126.81185,111.32437 C 126.81086,111.32341 126.80236,111.31475 126.8011,111.31362 C 126.80111,111.31266 126.80104,111.304 126.8011,111.30286 C 126.80111,111.30191 126.80106,111.29325 126.8011,111.29211 C 126.8011,111.29116 126.80107,111.2825 126.8011,111.28136 C 126.80099,111.27972 126.80114,111.27225 126.8011,111.27061 C 126.80115,111.2698 126.80113,111.26214 126.8011,111.25986 C 126.80109,111.2589 126.80113,111.25025 126.8011,111.24911 C 126.80108,111.24815 126.80115,111.2395 126.8011,111.23836 C 126.80108,111.2374 126.80117,111.22875 126.8011,111.22761 C 126.80307,111.22569 126.80987,111.21877 126.81185,111.21686 C 126.81474,111.21123 126.81889,111.20092 126.8226,111.19535 C 126.88213,111.11514 127.02944,111.03775 127.20965,110.96957 C 130.12094,110.57289 135.29533,109.72948 135.63869,104.7553 C 135.58502,102.16431 134.52821,100.46242 131.34891,99.992447 C 129.01286,100.17308 127.34951,102.43954 127.6182,104.92732 C 127.50639,105.59717 127.84123,106.90711 127.1559,107.05608 C 122.67474,107.46549 117.78358,110.27168 117.61947,112.28124 C 117.6184,112.28106 117.60966,112.28128 117.60872,112.28124 C 117.60685,112.28319 117.59985,112.29006 117.59797,112.29199 C 117.59451,112.29364 117.5821,112.29997 117.57647,112.30274 C 117.57276,112.30269 117.55871,112.30288 117.55496,112.30274 C 117.54777,112.30507 117.53005,112.31158 117.52271,112.31349 C 117.52074,112.31368 117.51472,112.31345 117.51196,112.31349 C 117.50589,112.3134 117.4945,112.31349 117.49046,112.31349 C 117.48841,112.31343 117.48246,112.31342 117.4797,112.31349 C 117.47521,112.3136 117.46194,112.31367 117.4582,112.31349 C 117.44665,112.31117 117.42525,112.30527 117.4152,112.30274 C 117.12375,112.2218 116.75422,111.74176 116.81312,111.06634 C 116.64248,107.59253 115.50903,103.66511 113.73824,100.63753 C 113.10634,100.00579 112.83314,99.753277 112.65236,99.723667 C 112.64653,99.722927 112.63653,99.723937 112.63086,99.723667 C 112.6234,99.723637 112.6082,99.723757 112.5986,99.723667 C 112.59679,99.723717 112.58951,99.723527 112.58785,99.723667 C 112.58693,99.723637 112.57809,99.723757 112.5771,99.723667 C 112.57583,99.724077 112.56766,99.723187 112.56635,99.723667 z M 130.39204,104.17473 C 130.65755,104.14657 131.00263,104.23869 131.33816,104.43276 C 131.8238,104.71365 132.11834,105.13514 132.08,105.44338 C 132.07879,105.45174 132.08173,105.46746 132.08,105.47564 C 132.07811,105.48375 132.07166,105.49997 132.06925,105.50789 C 132.06667,105.51575 132.06161,105.53249 132.0585,105.54015 C 132.05631,105.54521 132.05018,105.55669 132.04775,105.56165 C 132.0452,105.56656 132.03978,105.57834 132.037,105.58315 C 132.0211,105.60921 131.99431,105.63712 131.97249,105.65841 C 131.73903,105.87644 131.20079,105.84456 130.69308,105.5509 C 130.21186,105.27256 129.90858,104.84771 129.94049,104.54027 C 129.94153,104.53187 129.94969,104.51626 129.95124,104.50802 C 129.95928,104.46987 129.97474,104.43422 129.99424,104.40051 C 130.00121,104.38847 130.00751,104.36856 130.01575,104.3575 C 130.01744,104.35533 130.02476,104.34888 130.0265,104.34675 C 130.04085,104.33001 130.06292,104.30721 130.08026,104.29299 C 130.15764,104.23214 130.26977,104.1877 130.39204,104.17473 z M 119.0494,114.47452 C 119.0896,114.47168 119.12597,114.47476 119.16766,114.47452 C 119.17466,114.47448 119.18212,114.47449 119.18917,114.47452 C 120.54745,114.84367 122.54719,114.87584 124.28529,115.05509 C 125.70103,115.14488 126.40683,116.25571 125.08089,116.72154 C 123.77284,117.16949 122.51717,117.5192 122.51132,119.40937 C 122.68327,120.34568 122.64677,120.83941 122.50057,121.06509 C 122.48914,121.082 122.47027,121.10494 122.45757,121.11884 C 122.45573,121.12077 122.44868,121.12773 122.44682,121.1296 C 122.44493,121.1314 122.43798,121.1386 122.43607,121.14035 C 122.43413,121.14204 122.42727,121.14946 122.42531,121.1511 C 122.42343,121.15302 122.41646,121.15994 122.41456,121.16185 C 122.4108,121.16371 122.39685,121.17079 122.39306,121.1726 C 122.37405,121.18442 122.34927,121.19725 122.32855,121.20485 C 122.31025,121.21107 122.2835,121.21233 122.26404,121.2156 C 121.9531,121.26121 121.50353,120.9613 121.16741,120.78555 C 120.36098,120.20653 118.09236,118.8073 117.76999,115.79693 C 117.72412,115.11759 118.23203,114.53208 119.0494,114.47452 z" id="path802" style="fill:#ffffff;fill-opacity:1;fill-rule:evenodd;stroke:none;stroke-width:1pt;stroke-linecap:butt;stroke-linejoin:miter;stroke-opacity:1"/>
  <path d="M 79.881124,87.490013 C 81.285161,88.159525 83.924654,87.874654 83.813185,85.61085 C 83.813185,85.410619 83.762265,84.733198 83.74231,84.549828 C 83.455724,83.882386 82.673715,84.047177 82.496536,84.736298 C 82.4408,84.961988 82.595963,85.329429 82.3916,85.442959 C 82.274284,85.56131 81.825652,85.49181 81.844231,84.866338 C 81.844231,84.667138 81.697324,84.452798 81.608905,84.326537 C 81.520142,84.268397 81.463719,84.252227 81.30305,84.252227 C 81.107292,84.260137 81.110388,84.311057 81.003046,84.475508 C 80.957635,84.643058 80.894672,84.806828 80.894672,84.996739 C 80.870246,85.219329 80.786299,85.298809 80.622537,85.331489 C 80.439504,85.331489 80.480792,85.351789 80.332506,85.257179 C 80.244432,85.160849 80.134339,85.124029 80.134339,84.959578 C 80.134339,84.789278 80.095805,84.513698 80.044544,84.401197 C 79.966792,84.298677 79.841905,84.251197 79.70119,84.215067 C 78.93432,84.217817 78.881338,85.092379 78.925373,85.424379 C 78.86792,85.486999 78.835234,87.055833 79.881124,87.490013 z" id="path803" sodipodi:nodetypes="ccccccccccccccccc" style="font-size:12px;fill:#ffffff;fill-opacity:1;fill-rule:evenodd;stroke:none;stroke-width:0.95599098pt"/>
  <path d="M 121.03719,104.91029 C 122.44123,105.5798 125.78325,105.19447 124.96925,103.03112 C 124.96925,102.83089 124.91833,102.15347 124.89838,101.9701 C 124.61179,101.30265 123.82978,101.46745 123.6526,102.15657 C 123.59686,102.38226 123.75202,102.74969 123.54767,102.86323 C 123.43035,102.98158 122.98171,102.91208 123.00029,102.28661 C 123.00029,102.08742 122.85339,101.87307 122.76497,101.74681 C 122.67621,101.68867 122.61978,101.6725 122.45912,101.6725 C 122.26335,101.68041 122.26645,101.73133 122.15911,101.89578 C 122.1137,102.06333 122.05074,102.2271 122.05074,102.41701 C 122.02631,102.6396 121.94236,102.71908 121.7786,102.75176 C 121.59557,102.75176 121.63685,102.77206 121.48857,102.67745 C 121.4005,102.58112 121.2904,102.5443 121.2904,102.37985 C 121.2904,102.20955 121.25187,101.93397 121.20061,101.82147 C 121.12285,101.71895 120.99797,101.67147 120.85726,101.63534 C 120.09039,101.63809 120.0374,102.51265 120.08144,102.84465 C 120.02398,102.90727 119.9913,104.47611 121.03719,104.91029 z" id="path804" sodipodi:nodetypes="ccccccccccccccccc" style="font-size:12px;fill:#ffffff;fill-opacity:1;fill-rule:evenodd;stroke:none;stroke-width:0.95599098pt"/>
  <path d="M 145.03621,97.700183 C 146.44024,98.369684 149.07974,98.084814 148.96826,95.821019 C 148.96826,95.620779 148.91735,94.943358 148.89739,94.759987 C 148.61081,94.092546 147.8288,94.257336 147.65161,94.946458 C 147.59588,95.172148 147.75104,95.539589 147.54668,95.653119 C 147.42936,95.771479 146.98073,95.701979 146.99931,95.076508 C 146.99931,94.877308 146.8524,94.662967 146.76398,94.536707 C 146.67522,94.478557 146.6188,94.462387 146.45813,94.462387 C 146.26237,94.470307 146.26547,94.521227 146.15813,94.685677 C 146.11271,94.853228 146.04975,95.016988 146.04975,95.206898 C 146.02533,95.429499 145.94138,95.508969 145.77762,95.541659 C 145.59459,95.541659 145.63587,95.561949 145.48759,95.467339 C 145.39951,95.371009 145.28942,95.334198 145.28942,95.169748 C 145.28942,94.999438 145.25089,94.723867 145.19963,94.611367 C 145.12187,94.508837 144.99698,94.461357 144.85627,94.425237 C 144.0894,94.427987 144.03642,95.302538 144.08046,95.634549 C 144.023,95.697159 143.99032,97.265992 145.03621,97.700183 z" id="path805" sodipodi:nodetypes="ccccccccccccccccc" style="font-size:12px;fill:#ffffff;fill-opacity:1;fill-rule:evenodd;stroke:none;stroke-width:0.95599098pt"/>
  <path d="M 157.46611,115.8082 C 155.01928,118.56569 156.0982,123.12668 156.65073,124.10926 C 157.45751,125.72317 158.10706,126.7584 159.67693,127.55657 C 161.10677,128.609 162.22078,127.95119 162.83489,127.21425 C 164.27368,125.72317 164.29088,121.91633 164.96623,121.16185 C 165.43998,119.77604 166.63278,120.01275 167.2118,120.62686 C 167.77293,121.43364 168.43383,121.95383 169.25816,122.39283 C 170.60027,123.57668 172.20282,123.79308 173.78163,122.71417 C 174.86055,122.109 175.56205,121.32699 176.19371,119.77467 C 176.89556,117.89756 176.50438,107.68114 176.36401,102.54114 C 176.31,102.13792 174.96927,95.472779 174.96927,95.398469 C 174.96927,95.323808 174.79208,91.996912 174.64449,91.20424 C 174.61869,90.88256 174.53887,90.79001 174.87603,90.83095 C 175.23349,91.13165 175.28234,91.15057 175.50563,91.249651 C 175.86653,91.315711 176.18958,90.70159 175.9718,90.136328 C 174.85539,88.077234 173.73897,86.017791 172.62255,83.958697 C 172.35385,83.694126 172.00671,83.403405 171.58045,84.033347 C 171.1731,84.390467 170.73926,85.036919 170.75268,85.86779 C 170.85176,87.331693 171.10911,88.821396 171.20819,90.285299 C 171.65476,92.790964 172.10167,95.296968 172.54824,97.802633 C 172.97004,103.16145 173.07565,108.05897 173.49745,113.41778 C 173.43828,115.68675 172.73299,118.69712 172.0714,118.98267 C 172.0714,118.98267 171.06473,119.56618 170.38972,118.92178 C 169.89877,118.72464 167.9336,115.64684 167.9336,115.64684 C 166.92899,114.72584 166.26671,114.98903 165.55179,115.64684 C 163.58043,117.55043 162.68833,121.11162 161.34863,123.56774 C 161.00321,124.1158 160.02682,124.58507 158.94515,123.52783 C 156.19797,119.77467 157.80809,114.43512 157.46611,115.8082 z" id="path806" sodipodi:nodetypes="cccccccccccccccccccccccccccc" style="fill:#ffffff;fill-opacity:1;fill-rule:evenodd;stroke:none;stroke-width:1pt;stroke-linecap:butt;stroke-linejoin:miter;stroke-opacity:1"/>
  <path d="M 145.66615,84.555328 C 146.92396,85.081709 147.81125,87.629694 147.52191,88.873756 C 147.27145,90.412659 146.60435,92.074732 146.12476,91.858332 C 145.60353,91.664981 146.48015,90.328709 145.97922,88.926396 C 145.70089,88.013654 143.98447,86.346071 144.16509,85.85444 C 143.81073,84.824368 144.89481,84.373677 145.66615,84.555328 z" id="path807" sodipodi:nodetypes="cccccc" style="fill:#ffffff;fill-opacity:1;fill-rule:evenodd;stroke:none;stroke-width:1.25;stroke-linecap:butt;stroke-linejoin:round;stroke-dasharray:none;stroke-opacity:1"/>
  <path d="M 161.51583,117.31957 C 161.7804,114.25999 161.33384,112.39425 161.25436,110.59594 C 161.17523,108.79762 159.22038,94.216046 158.82405,92.855364 C 158.34583,90.282609 160.72419,92.510283 160.46444,91.01404 C 159.64149,89.127656 157.59375,86.380811 156.95074,84.742138 C 156.56403,84.039947 156.72642,83.415506 155.86047,84.557388 C 155.05747,87.182773 154.77879,89.328577 155.08534,90.95899 C 157.14787,101.72272 159.26304,111.53242 158.92726,121.77871 C 159.90537,121.78525 161.0328,119.54071 161.51583,117.31957 z" id="path808" sodipodi:nodetypes="csccccccc" style="fill:#ffffff;fill-opacity:1;fill-rule:evenodd;stroke:none;stroke-width:1pt;stroke-linecap:butt;stroke-linejoin:miter;stroke-opacity:1"/>
  <path d="M 183.00713,88.203565 C 184.15382,88.773636 184.82539,91.966702 184.69878,92.878764 C 184.47068,94.544957 183.86242,96.3443 183.42514,96.11001 C 182.95001,95.90083 183.52044,93.639095 183.29234,92.935874 C 183.03878,91.947782 181.47407,90.142238 181.63853,89.610007 C 181.31547,88.494965 182.3039,88.007114 183.00713,88.203565 z" id="path809" sodipodi:nodetypes="cccccc" style="fill:#ffffff;fill-opacity:1;fill-rule:evenodd;stroke:none;stroke-width:1.25;stroke-linecap:butt;stroke-linejoin:round;stroke-dasharray:none;stroke-opacity:1"/>
  <path d="M 97.784054,111.53346 C 98.880864,111.95216 99.523878,114.29853 99.402776,114.96908 C 99.183964,116.19318 98.601844,117.51533 98.184175,117.34331 C 97.729352,117.18953 98.275348,115.52746 98.056881,115.01071 C 97.964332,113.75735 96.441945,113.10848 96.473941,112.56696 C 96.189764,111.57165 97.110764,111.38862 97.784054,111.53346 z" id="path810" sodipodi:nodetypes="cccccc" style="fill:#ffffff;fill-opacity:1;fill-rule:evenodd;stroke:none;stroke-width:1.25;stroke-linecap:butt;stroke-linejoin:round;stroke-dasharray:none;stroke-opacity:1"/>
  <path d="M 68.466487,83.796026 C 70.084864,84.283877 70.180506,86.662592 70.061124,87.357903 C 69.845408,88.627076 69.272235,89.997748 68.860416,89.819188 C 68.412474,89.659898 68.842871,87.936924 68.627845,87.400903 C 68.388045,86.648142 67.020479,85.272999 67.175642,84.867718 C 66.871163,84.017937 67.803174,83.646026 68.466487,83.796026 z" id="path812" sodipodi:nodetypes="cccccc" style="fill:#ffffff;fill-opacity:1;fill-rule:evenodd;stroke:none;stroke-width:1.25;stroke-linecap:butt;stroke-linejoin:round;stroke-dasharray:none;stroke-opacity:1"/>
  <path d="M 100.42699,95.011138 C 99.18534,95.682709 98.703681,97.684693 99.476743,98.850315 C 100.19889,99.876937 101.33939,99.496426 101.49146,99.496426 C 102.70799,99.648497 103.42979,97.215772 103.42979,97.215772 C 103.42979,97.215772 103.46798,96.531811 102.02335,97.824373 C 101.41542,97.938253 101.33939,97.710153 101.18732,97.367832 C 101.06071,96.734451 101.08583,96.10107 101.37723,95.467339 C 101.5926,94.859418 101.12367,94.593127 100.42699,95.011138 z" id="path813" sodipodi:nodetypes="cccccccc" style="fill:#ffffff;fill-opacity:1;fill-rule:evenodd;stroke:none;stroke-width:1pt;stroke-linecap:butt;stroke-linejoin:miter;stroke-opacity:1"/>
  <path d="M 109.73987,82.876744 C 109.11578,83.295095 107.87379,84.581818 107.83594,86.064301 C 107.79809,86.900672 107.64225,86.898262 108.18996,87.430493 C 108.58561,88.000914 108.9847,87.949654 109.78322,87.531303 C 110.24183,87.193453 110.39699,86.969132 110.55147,86.402491 C 110.74172,85.452249 109.54686,86.853192 109.3948,85.7956 C 109.12885,84.813708 109.89607,84.411867 110.61821,83.461616 C 110.64229,82.810684 110.62819,82.349673 109.73987,82.876744 z" id="path814" sodipodi:nodetypes="cccccccc" style="fill:#ffffff;fill-opacity:1;fill-rule:evenodd;stroke:none;stroke-width:1pt;stroke-linecap:butt;stroke-linejoin:miter;stroke-opacity:1"/>
  <path d="M 117.24343,84.209567 C 116.97439,84.803728 116.65203,87.907334 116.7057,87.907334 C 116.49101,88.832126 117.67349,89.227777 118.21123,88.039104 C 119.01731,85.85994 119.01731,84.935498 119.07133,84.011047 C 118.82018,82.602884 117.87062,82.646924 117.24343,84.209567 z" id="path815" sodipodi:nodetypes="ccccc" style="fill:#ffffff;fill-opacity:1;fill-rule:evenodd;stroke:none;stroke-width:1pt;stroke-linecap:butt;stroke-linejoin:miter;stroke-opacity:1"/>
  <path d="M 164.54925,108.28156 C 164.71061,108.1202 171.21542,103.4973 171.21542,103.4973 C 171.87839,103.26438 171.73492,105.88049 171.43044,105.8626 C 171.55568,106.3821 165.01543,110.82611 164.54925,110.64686 C 164.22689,110.87978 163.90417,108.85508 164.54925,108.28156 z" id="path816" sodipodi:nodetypes="ccccc" style="fill:#ffffff;fill-opacity:1;fill-rule:evenodd;stroke:none;stroke-width:1pt;stroke-linecap:butt;stroke-linejoin:miter;stroke-opacity:0.40880504"/>
  <path d="M 170.48158,108.24406 C 171.62827,108.81414 172.08481,112.16856 171.95821,113.08062 C 171.9988,114.85451 170.85314,116.27747 170.41587,116.04318 C 169.94074,115.834 170.45749,113.84095 170.22939,113.13773 C 169.97584,112.14964 169.00219,110.29044 169.16665,109.7582 C 168.84359,108.64315 169.77835,108.04761 170.48158,108.24406 z" id="path817" sodipodi:nodetypes="cccccc" style="fill:#ffffff;fill-opacity:1;fill-rule:evenodd;stroke:none;stroke-width:1.25;stroke-linecap:butt;stroke-linejoin:round;stroke-dasharray:none;stroke-opacity:1"/>
  <path d="M 131.7892,122.68871 C 132.24162,122.02746 133.63911,121.07584 133.67077,121.07584 C 134.3155,120.75312 134.94544,121.32871 134.90726,121.29086 C 135.01459,121.93594 134.49922,122.5363 134.66058,123.39675 C 134.80163,123.74354 134.90485,124.12853 135.54029,123.98162 C 136.57311,123.16899 137.52989,123.1167 138.5627,123.06475 C 139.35435,123.11257 139.38565,124.45262 138.88507,124.46259 C 136.97805,124.87717 136.12344,125.38773 134.76172,125.90758 C 134.11665,126.28362 133.56308,125.80643 133.56308,125.75276 C 133.56308,125.69909 133.18567,125.3867 133.4492,124.53209 C 133.49599,123.84676 133.22007,123.47106 132.6493,123.54882 C 132.21925,123.78139 131.84046,123.93552 131.62543,123.44113 C 131.5408,123.0761 131.51328,122.89858 131.7892,122.68871 z" id="path818" sodipodi:nodetypes="ccccccccccccc" style="fill:#ffffff;fill-opacity:1;fill-rule:evenodd;stroke:none;stroke-width:1pt;stroke-linecap:butt;stroke-linejoin:miter;stroke-opacity:1"/>
  <path d="M 177.32492,124.49527 C 177.6036,124.84999 177.78387,125.17821 177.30256,125.76102 C 176.84636,126.17903 176.52502,126.40919 176.06882,126.8272 C 175.85345,127.19464 175.71584,127.75199 176.37468,127.92951 C 177.59121,128.27149 180.4041,126.44704 180.4041,126.40885 C 180.8603,126.06687 180.70823,125.42076 180.67004,125.42076 C 180.4041,125.11662 179.80478,125.29725 179.40156,125.24805 C 179.20958,125.24805 178.57999,125.15275 178.87965,124.59539 C 179.12977,124.2486 179.21922,124.03632 179.38883,123.60902 C 179.57874,123.19101 179.41567,122.91199 178.73137,122.68389 C 178.03434,122.55728 177.75601,122.62059 176.98294,122.68389 C 176.56493,122.77265 176.42215,122.95947 176.34612,123.46624 C 176.37605,124.23483 176.84361,124.19114 177.32492,124.49527 z" id="path819" sodipodi:nodetypes="ccccccccccccc" style="fill:#ffffff;fill-opacity:1;fill-rule:evenodd;stroke:none;stroke-width:1pt;stroke-linecap:butt;stroke-linejoin:miter;stroke-opacity:1"/>
</svg>
