<?xml version="1.0" encoding="UTF-8" standalone="no"?>
<!-- Created with Inkscape (http://www.inkscape.org/) --><svg height="256" id="svg2394" inkscape:output_extension="org.inkscape.output.svg.inkscape" inkscape:version="0.46" sodipodi:docname="Flag_of_Malawi.svg" sodipodi:version="0.32" version="1.0" width="256" xmlns="http://www.w3.org/2000/svg" xmlns:cc="http://creativecommons.org/ns#" xmlns:dc="http://purl.org/dc/elements/1.1/" xmlns:inkscape="http://www.inkscape.org/namespaces/inkscape" xmlns:rdf="http://www.w3.org/1999/02/22-rdf-syntax-ns#" xmlns:sodipodi="http://sodipodi.sourceforge.net/DTD/sodipodi-0.dtd" xmlns:svg="http://www.w3.org/2000/svg">
  <metadata>
    <rdf:RDF xmlns:cc="http://web.resource.org/cc/" xmlns:dc="http://purl.org/dc/elements/1.1/" xmlns:rdf="http://www.w3.org/1999/02/22-rdf-syntax-ns#">
      <cc:Work rdf:about="">
        <dc:title></dc:title>
        <dc:description></dc:description>
        <dc:subject>
          <rdf:Bag>
            <rdf:li>unsorted</rdf:li>
          </rdf:Bag>
        </dc:subject>
        <dc:publisher>
          <cc:Agent rdf:about="http://www.openclipart.org/">
            <dc:title>Open Clip Art Library, Source: Wikimedia Commons</dc:title>
          </cc:Agent>
        </dc:publisher>
        <dc:creator>
          <cc:Agent>
            <dc:title></dc:title>
          </cc:Agent>
        </dc:creator>
        <dc:rights>
          <cc:Agent>
            <dc:title></dc:title>
          </cc:Agent>
        </dc:rights>
        <dc:date></dc:date>
        <dc:format>image/svg+xml</dc:format>
        <dc:type rdf:resource="http://purl.org/dc/dcmitype/StillImage"/>
        <cc:license rdf:resource="http://web.resource.org/cc/PublicDomain"/>
        <dc:language>en</dc:language>
      </cc:Work>
      <cc:License rdf:about="http://web.resource.org/cc/PublicDomain">
        <cc:permits rdf:resource="http://web.resource.org/cc/Reproduction"/>
        <cc:permits rdf:resource="http://web.resource.org/cc/Distribution"/>
        <cc:permits rdf:resource="http://web.resource.org/cc/DerivativeWorks"/>
      </cc:License>
    </rdf:RDF>
  </metadata>
  <sodipodi:namedview bordercolor="#666666" borderopacity="1.0" gridtolerance="10.0" guidetolerance="10.0" id="base" inkscape:current-layer="svg2394" inkscape:cx="225" inkscape:cy="150" inkscape:pageopacity="0.0" inkscape:pageshadow="2" inkscape:window-height="795" inkscape:window-width="979" inkscape:window-x="29" inkscape:window-y="2" inkscape:zoom="1.2422222" objecttolerance="10.0" pagecolor="#ffffff" showgrid="false"/>
  <defs id="defs3">
    <inkscape:perspective id="perspective3072" inkscape:persp3d-origin="225 : 100 : 1" inkscape:vp_x="0 : 150 : 1" inkscape:vp_y="0 : 1000 : 0" inkscape:vp_z="450 : 150 : 1" sodipodi:type="inkscape:persp3d"/>
  </defs>
  <rect height="85.333496" id="rect2404" style="fill:#000000;fill-opacity:1;stroke:none;stroke-width:25;stroke-linecap:butt;stroke-linejoin:miter;stroke-miterlimit:4;stroke-opacity:1" width="256" x="3.5527137e-15" y="42.333"/>
  <rect height="85.333496" id="rect3648" style="fill:#339e35;fill-opacity:1;stroke:none;stroke-width:25;stroke-linecap:butt;stroke-linejoin:miter;stroke-miterlimit:4;stroke-opacity:1" width="256" x="3.5527137e-15" y="127.6665"/>
  <rect height="56.888996" id="rect3026" style="fill:#ce1126;fill-opacity:1;stroke:none;stroke-width:25;stroke-linecap:butt;stroke-linejoin:miter;stroke-miterlimit:4;stroke-opacity:1" width="256" x="3.5527137e-15" y="99.222008"/>
  <path d="M 128,70.493065 C 112.02338,70.493065 98.441569,80.703524 93.404444,94.955331 L 162.59556,94.955331 C 157.55843,80.703524 143.97662,70.493065 128,70.493065 z" id="path4270" style="fill:#ce1126;fill-opacity:1;stroke:none;stroke-width:25;stroke-linecap:butt;stroke-linejoin:miter;stroke-miterlimit:4;stroke-opacity:1"/>
  <path d="M 128,49.159685 C 126.76741,49.159685 126.29333,51.008578 126.29333,52.857472 C 126.29333,57.31378 126.83926,59.643484 128,66.226387 C 129.16074,59.643484 129.70667,57.31378 129.70667,52.857472 C 129.70667,51.008578 129.23259,49.159685 128,49.159685 z M 122.95111,49.373025 C 121.7232,49.480455 121.4033,51.371169 121.56444,53.213032 C 121.95284,57.652381 122.69661,59.929695 124.42667,66.386387 C 125.00925,59.727374 125.34839,57.35015 124.96,52.910812 C 124.79886,51.068948 124.17901,49.265595 122.95111,49.373025 z M 133.04889,49.373025 C 131.82099,49.265595 131.20114,51.068948 131.04,52.910812 C 130.65161,57.35015 130.99075,59.727364 131.57333,66.386387 C 133.3034,59.929695 134.04716,57.652381 134.43556,53.213032 C 134.5967,51.371169 134.27679,49.480455 133.04889,49.373025 z M 118.15111,50.030806 C 118.07858,50.029386 117.99587,50.035206 117.92,50.048576 C 116.70613,50.262617 116.56783,52.15667 116.88889,53.977474 C 117.66272,58.366082 118.60267,60.567276 120.88889,66.848608 C 120.88889,60.164155 121.02271,57.779411 120.24889,53.390813 C 119.9479,51.683799 119.23905,50.052106 118.15111,50.030806 z M 137.84889,50.030806 C 136.76096,50.052106 136.0521,51.683799 135.75111,53.390813 C 134.97728,57.779411 135.11111,60.164155 135.11111,66.848608 C 137.39732,60.567276 138.33729,58.366082 139.11111,53.977474 C 139.43216,52.15667 139.29387,50.262617 138.08,50.048576 C 138.00413,50.035206 137.92142,50.029386 137.84889,50.030806 z M 113.20889,51.097468 C 113.13651,51.102378 113.05219,51.113088 112.97778,51.133028 C 111.78718,51.452049 111.80592,53.364922 112.28444,55.150816 C 113.43782,59.455274 114.57948,61.572658 117.40444,67.630839 C 116.82185,60.971817 116.74449,58.566382 115.59111,54.261924 C 115.14249,52.587641 114.29454,51.023868 113.20889,51.097468 z M 142.79111,51.097468 C 141.70545,51.023868 140.85751,52.587641 140.40889,54.261924 C 139.25551,58.566382 139.17814,60.971817 138.59556,67.630839 C 141.42052,61.572658 142.56218,59.455274 143.71556,55.150816 C 144.19409,53.364922 144.21282,51.452049 143.02222,51.133028 C 142.94781,51.113088 142.86349,51.102378 142.79111,51.097468 z M 108.58667,52.590811 C 108.44511,52.584681 108.30478,52.609221 108.16,52.661921 C 107.00175,53.083492 107.18986,54.977866 107.82222,56.715259 C 109.34636,60.902817 110.64889,62.90859 113.99111,68.697501 C 112.83037,62.114599 112.54637,59.729474 111.02222,55.541927 C 110.46891,54.021704 109.57756,52.633651 108.58667,52.590811 z M 147.41333,52.590811 C 146.42244,52.633651 145.53109,54.021704 144.97778,55.541927 C 143.45364,59.729474 143.16963,62.114599 142.00889,68.697501 C 145.35111,62.90859 146.65363,60.902817 148.17778,56.715259 C 148.81013,54.977866 148.99826,53.083492 147.84,52.661921 C 147.69522,52.609221 147.55489,52.584681 147.41333,52.590811 z M 103.89333,54.493035 C 103.75178,54.499275 103.62408,54.534585 103.48444,54.599695 C 102.36733,55.120616 102.70307,56.995149 103.48444,58.670822 C 105.36776,62.7096 106.85041,64.590804 110.68444,70.066394 C 108.95438,63.609702 108.46109,61.269597 106.57778,57.23082 C 105.89408,55.764607 104.88419,54.449355 103.89333,54.493035 z M 152.10667,54.493035 C 151.11581,54.449355 150.10592,55.764607 149.42222,57.23082 C 147.5389,61.269597 147.04561,63.609702 145.31556,70.066394 C 149.1496,64.590804 150.63224,62.7096 152.51556,58.670822 C 153.29693,56.995149 153.63266,55.120616 152.51556,54.599695 C 152.37592,54.534585 152.24822,54.499275 152.10667,54.493035 z M 99.395556,56.786369 C 99.255086,56.804919 99.1201,56.851559 98.986667,56.928589 C 97.919209,57.54489 98.435556,59.380744 99.36,60.981937 C 101.58814,64.841204 103.22332,66.599137 107.52,71.719727 C 105.23378,65.438395 104.53926,63.134541 102.31111,59.275264 C 101.50222,57.874221 100.37883,56.656499 99.395556,56.786369 z M 156.39111,56.786369 C 155.46165,56.839249 154.44,57.974301 153.68889,59.275264 C 151.46073,63.134541 150.76622,65.438395 148.48,71.719727 C 152.77667,66.599137 154.41185,64.841204 156.64,60.981937 C 157.56445,59.380744 158.08079,57.54489 157.01333,56.928589 C 156.81318,56.813039 156.6056,56.774169 156.39111,56.786369 z M 95.324444,59.453044 C 95.109706,59.459584 94.909315,59.516034 94.72,59.648594 C 93.710319,60.355586 94.388412,62.151859 95.448889,63.666382 C 98.004918,67.316779 99.771164,68.913112 104.49778,73.639731 C 101.67281,67.581559 100.79603,65.361215 98.24,61.710828 C 97.378361,60.480276 96.25497,59.424714 95.324444,59.453044 z M 160.67556,59.453044 C 159.74502,59.424714 158.62164,60.480276 157.76,61.710828 C 155.20397,65.361215 154.32719,67.581559 151.50222,73.639731 C 156.22884,68.913112 157.99509,67.316779 160.55111,63.666382 C 161.61159,62.151859 162.28968,60.355586 161.28,59.648594 C 161.09069,59.516034 160.89029,59.459584 160.67556,59.453044 z M 91.288889,62.47527 C 91.075538,62.5005 90.879266,62.59338 90.702222,62.74194 C 89.757998,63.534232 90.580446,65.254495 91.768889,66.670837 C 94.633335,70.084554 96.550531,71.511937 101.67111,75.808625 C 98.328883,70.019714 97.246674,67.88011 94.382222,64.466383 C 93.416613,63.315611 92.213407,62.365939 91.288889,62.47527 z M 164.49778,62.47527 C 163.60734,62.52005 162.50911,63.404131 161.61778,64.466383 C 158.75332,67.88011 157.67111,70.019714 154.32889,75.808625 C 159.44946,71.511937 161.36666,70.084564 164.23111,66.670837 C 165.41956,65.254495 166.242,63.534232 165.29778,62.74194 C 165.06172,62.54386 164.79459,62.46034 164.49778,62.47527 z M 87.751111,65.817496 C 87.454128,65.828496 87.186785,65.937386 86.968889,66.155277 C 86.097317,67.026858 87.06597,68.670141 88.373333,69.977504 C 91.524403,73.12859 93.564422,74.392362 99.04,78.226409 C 95.205956,72.750819 93.942187,70.710805 90.791111,67.559719 C 89.810591,66.579197 88.642065,65.784496 87.751111,65.817496 z M 168.24889,65.817496 C 167.35793,65.784496 166.18941,66.579197 165.20889,67.559719 C 162.05782,70.710805 160.79404,72.750819 156.96,78.226409 C 162.43557,74.392362 164.47559,73.12859 167.62667,69.977504 C 168.93404,68.670141 169.90268,67.026848 169.03111,66.155277 C 168.81322,65.937386 168.54587,65.828496 168.24889,65.817496 z M 84.533333,69.479723 C 84.141983,69.472103 83.803147,69.593543 83.555556,69.888614 C 82.763264,70.832835 83.863671,72.380178 85.28,73.56862 C 88.69372,76.433086 90.833323,77.515298 96.622222,80.857524 C 92.325541,75.736935 90.898165,73.819741 87.484444,70.955286 C 86.510717,70.138234 85.394301,69.496493 84.533333,69.479723 z M 171.46667,69.479723 C 170.6057,69.496493 169.48928,70.138224 168.51556,70.955286 C 165.10184,73.819741 163.67446,75.736935 159.37778,80.857524 C 165.16668,77.515298 167.30628,76.433086 170.72,73.56862 C 172.13633,72.380178 173.23674,70.832835 172.44444,69.888614 C 172.19685,69.593543 171.85802,69.472103 171.46667,69.479723 z M 81.404444,73.40862 C 81.013919,73.43514 80.683156,73.59088 80.462222,73.906401 C 79.755241,74.916083 81.009926,76.365926 82.524444,77.426408 C 86.174828,79.982442 88.395167,80.859224 94.453333,83.684199 C 89.726714,78.957571 88.130384,77.191317 84.48,74.635292 C 83.438763,73.906211 82.263592,73.35028 81.404444,73.40862 z M 174.34667,73.40862 C 173.51758,73.45224 172.46657,73.972491 171.52,74.635292 C 167.86962,77.191317 166.27328,78.957571 161.54667,83.684199 C 167.60483,80.859224 169.82517,79.982442 173.47556,77.426408 C 174.99007,76.365926 176.24476,74.916083 175.53778,73.906401 C 175.27266,73.52777 174.84412,73.38245 174.34667,73.40862 z M 78.88,77.586408 C 78.38216,77.603698 77.973333,77.772778 77.742222,78.173079 C 77.125928,79.240531 78.487706,80.573084 80.088889,81.497525 C 83.948157,83.72568 86.252009,84.420211 92.533333,86.706425 C 87.412747,82.409737 85.654818,80.774564 81.795556,78.54641 C 80.794817,77.968629 79.709736,77.557598 78.88,77.586408 z M 177.12,77.586408 C 176.29026,77.557598 175.20518,77.968629 174.20444,78.54641 C 170.34518,80.774564 168.58725,82.409737 163.46667,86.706425 C 169.74799,84.420211 172.05184,83.72568 175.91111,81.497525 C 177.51229,80.573084 178.87407,79.240531 178.25778,78.173079 C 178.02667,77.772778 177.61784,77.603698 177.12,77.586408 z M 77.013333,81.959746 C 76.269756,81.913786 75.673793,82.112306 75.413333,82.670868 C 74.892413,83.78797 76.368782,84.982832 78.044444,85.764203 C 82.083226,87.647517 84.423322,88.140808 90.88,89.870881 C 85.404427,86.036824 83.52322,84.554181 79.484444,82.670868 C 78.646613,82.280177 77.756911,82.005716 77.013333,81.959746 z M 178.98667,81.959746 C 178.24309,82.005716 177.35339,82.280177 176.51556,82.670868 C 172.47679,84.554181 170.59558,86.036824 165.12,89.870881 C 171.57667,88.140808 173.91678,87.647517 177.95556,85.764203 C 179.63122,84.982832 181.10758,83.78797 180.58667,82.670868 C 180.32621,82.112306 179.73024,81.913786 178.98667,81.959746 z M 75.004444,86.493095 C 74.259689,86.512115 73.68634,86.767295 73.475556,87.346426 C 73.053986,88.504688 74.618169,89.576291 76.355556,90.208652 C 80.543107,91.732795 82.928219,92.016805 89.511111,93.177547 C 83.722212,89.835321 81.716434,88.532799 77.528889,87.008646 C 76.660196,86.692465 75.7492,86.474075 75.004444,86.493095 z M 180.99556,86.493095 C 180.2508,86.474075 179.3398,86.692465 178.47111,87.008646 C 174.28357,88.532799 172.27779,89.835321 166.48889,93.177547 C 173.07178,92.016805 175.4569,91.732805 179.64444,90.208652 C 181.38183,89.576291 182.94601,88.504688 182.52444,87.346426 C 182.31366,86.767295 181.74031,86.512115 180.99556,86.493095 z M 73.991111,91.168653 C 72.967908,91.150433 72.146057,91.420094 71.946667,92.164215 C 71.627651,93.354808 73.289665,94.299019 75.075556,94.77755 C 75.329269,94.84553 75.562758,94.89451 75.804444,94.955331 L 84.942222,94.955331 C 81.372712,93.284427 79.305722,92.366176 75.964444,91.470884 C 75.294731,91.291434 74.605033,91.179594 73.991111,91.168653 z M 182.00889,91.168653 C 181.39497,91.179594 180.70526,91.291434 180.03556,91.470884 C 176.69428,92.366176 174.62729,93.284427 171.05778,94.955331 L 180.19556,94.955331 C 180.43724,94.89451 180.67073,94.84553 180.92444,94.77755 C 182.71033,94.299019 184.37235,93.354808 184.05333,92.164215 C 183.85395,91.420094 183.03209,91.150433 182.00889,91.168653 z" id="path4904" style="fill:#ce1126;fill-opacity:1;fill-rule:evenodd;stroke:none;stroke-width:0.25pt;stroke-linecap:butt;stroke-linejoin:miter;stroke-opacity:1"/>
</svg>
