<?xml version="1.0" encoding="UTF-8" standalone="no"?>
<!-- Created with Inkscape (http://www.inkscape.org/) --><svg height="256" id="svg2" inkscape:output_extension="org.inkscape.output.svg.inkscape" inkscape:version="0.46" sodipodi:docname="Flag_of_Oman.svg" sodipodi:version="0.32" version="1.0" width="256" xmlns="http://www.w3.org/2000/svg" xmlns:cc="http://creativecommons.org/ns#" xmlns:dc="http://purl.org/dc/elements/1.1/" xmlns:inkscape="http://www.inkscape.org/namespaces/inkscape" xmlns:rdf="http://www.w3.org/1999/02/22-rdf-syntax-ns#" xmlns:sodipodi="http://sodipodi.sourceforge.net/DTD/sodipodi-0.dtd" xmlns:svg="http://www.w3.org/2000/svg">
  <metadata>
    <rdf:RDF xmlns:cc="http://web.resource.org/cc/" xmlns:dc="http://purl.org/dc/elements/1.1/" xmlns:rdf="http://www.w3.org/1999/02/22-rdf-syntax-ns#">
      <cc:Work rdf:about="">
        <dc:title></dc:title>
        <dc:description></dc:description>
        <dc:subject>
          <rdf:Bag>
            <rdf:li>unsorted</rdf:li>
          </rdf:Bag>
        </dc:subject>
        <dc:publisher>
          <cc:Agent rdf:about="http://www.openclipart.org/">
            <dc:title>Open Clip Art Library, Source: Wikimedia Commons</dc:title>
          </cc:Agent>
        </dc:publisher>
        <dc:creator>
          <cc:Agent>
            <dc:title></dc:title>
          </cc:Agent>
        </dc:creator>
        <dc:rights>
          <cc:Agent>
            <dc:title></dc:title>
          </cc:Agent>
        </dc:rights>
        <dc:date></dc:date>
        <dc:format>image/svg+xml</dc:format>
        <dc:type rdf:resource="http://purl.org/dc/dcmitype/StillImage"/>
        <cc:license rdf:resource="http://web.resource.org/cc/PublicDomain"/>
        <dc:language>en</dc:language>
      </cc:Work>
      <cc:License rdf:about="http://web.resource.org/cc/PublicDomain">
        <cc:permits rdf:resource="http://web.resource.org/cc/Reproduction"/>
        <cc:permits rdf:resource="http://web.resource.org/cc/Distribution"/>
        <cc:permits rdf:resource="http://web.resource.org/cc/DerivativeWorks"/>
      </cc:License>
    </rdf:RDF>
  </metadata>
  <defs id="defs312">
    <inkscape:perspective id="perspective316" inkscape:persp3d-origin="600 : 200 : 1" inkscape:vp_x="0 : 300 : 1" inkscape:vp_y="0 : 1000 : 0" inkscape:vp_z="1200 : 300 : 1" sodipodi:type="inkscape:persp3d"/>
  </defs>
  <sodipodi:namedview bordercolor="#666666" borderopacity="1.0" gridtolerance="10.0" guidetolerance="10.0" id="base" inkscape:current-layer="svg2" inkscape:cx="600" inkscape:cy="300" inkscape:pageopacity="0.0" inkscape:pageshadow="2" inkscape:window-height="796" inkscape:window-width="953" inkscape:window-x="31" inkscape:window-y="142" inkscape:zoom="0.46583333" objecttolerance="10.0" pagecolor="#ffffff" showgrid="false"/>
  <rect height="128" id="rect4" style="fill:#fc3d32" width="256" x="0" y="64"/>
  <rect height="42.666668" id="rect6" style="fill:#009543" width="192" x="64" y="149.33331"/>
  <rect height="42.666668" id="rect8" style="fill:#ffffff" width="192" x="64" y="64"/>
  <rect height="4.5262189" id="rect1138" rx="0.68595517" ry="0.64325047" style="font-size:12px;fill:#ffffff;fill-rule:evenodd;stroke:#ef2d28;stroke-width:0.06044453pt" width="8.2494183" x="41.758484" y="86.084747"/>
  <rect height="4.1490326" id="rect1139" rx="0.65077788" ry="0.58964616" style="font-size:12px;fill:#ffffff;fill-rule:evenodd;stroke:#ef2d28;stroke-width:0.05636799pt" width="7.8263702" x="41.970005" y="86.273346"/>
  <path d="M 45.609086,87.40491 L 46.004405,87.41871 L 46.022372,87.59765 L 46.345807,87.76282 L 46.59737,87.55635 L 46.902837,87.72152 L 46.615341,87.90049 L 46.687217,88.14828 L 47.046573,88.13451 L 47.046573,88.46489 L 46.759091,88.45112 L 46.615341,88.6576 L 46.93878,88.89161 L 46.687217,89.08432 L 46.417685,88.87784 L 46.022368,88.96045 L 46.040337,89.26329 L 45.609086,89.29083 L 45.555181,89.00175 L 45.195806,88.85031 L 44.99815,89.05679 L 44.692678,88.90538 L 44.872367,88.67137 L 44.65674,88.51993 L 44.351268,88.51993 L 44.333301,88.09321 L 44.638769,88.12074 L 44.854396,87.87296 L 44.602835,87.68025 L 44.926274,87.46001 L 45.159868,87.63895 L 45.555181,87.58388 L 45.609086,87.40491 z" id="path1140" style="font-size:12px;fill:#ffffff;fill-rule:evenodd;stroke:#ef2d28;stroke-width:0.03558649pt"/>
  <ellipse cx="68.944084" cy="426.78302" id="path1141" rx="11.048731" ry="9.9438629" sodipodi:cx="68.944084" sodipodi:cy="426.78302" sodipodi:rx="11.048731" sodipodi:ry="9.9438629" style="font-size:12px;fill:#ffffff;fill-rule:evenodd;stroke:#ef2d28;stroke-width:1pt" transform="matrix(3.9291861e-2,0,0,3.7376917e-2,43.019761,72.34784)"/>
  <path d="M 43.027627,86.46193 L 42.393056,87.02772" id="path1143" style="font-size:12px;fill:#ffffff;fill-rule:evenodd;stroke:#ef2d28;stroke-width:0.05636799pt"/>
  <path d="M 43.450671,86.46194 L 42.8161,87.02772" id="path1144" style="font-size:12px;fill:#ffffff;fill-rule:evenodd;stroke:#ef2d28;stroke-width:0.05636799pt"/>
  <path d="M 43.873719,86.46194 L 43.239149,87.02772" id="path1145" style="font-size:12px;fill:#ffffff;fill-rule:evenodd;stroke:#ef2d28;stroke-width:0.05636799pt"/>
  <path d="M 44.296768,86.46194 L 43.662197,87.02772" id="path1146" style="font-size:12px;fill:#ffffff;fill-rule:evenodd;stroke:#ef2d28;stroke-width:0.05636799pt"/>
  <path d="M 44.719812,86.46194 L 44.085242,87.02772" id="path1147" style="font-size:12px;fill:#ffffff;fill-rule:evenodd;stroke:#ef2d28;stroke-width:0.05636799pt"/>
  <path d="M 45.142861,86.46195 L 44.50829,87.02773" id="path1148" style="font-size:12px;fill:#ffffff;fill-rule:evenodd;stroke:#ef2d28;stroke-width:0.05636799pt"/>
  <path d="M 45.565907,86.46194 L 44.931337,87.02772" id="path1149" style="font-size:12px;fill:#ffffff;fill-rule:evenodd;stroke:#ef2d28;stroke-width:0.05636799pt"/>
  <path d="M 45.988951,86.46195 L 45.354381,87.02773" id="path1150" style="font-size:12px;fill:#ffffff;fill-rule:evenodd;stroke:#ef2d28;stroke-width:0.05636799pt"/>
  <path d="M 46.412002,86.46194 L 45.777431,87.02772" id="path1151" style="font-size:12px;fill:#ffffff;fill-rule:evenodd;stroke:#ef2d28;stroke-width:0.05636799pt"/>
  <path d="M 46.835049,86.46195 L 46.200478,87.02773" id="path1152" style="font-size:12px;fill:#ffffff;fill-rule:evenodd;stroke:#ef2d28;stroke-width:0.05636799pt"/>
  <path d="M 47.258093,86.46195 L 46.623522,87.02774" id="path1153" style="font-size:12px;fill:#ffffff;fill-rule:evenodd;stroke:#ef2d28;stroke-width:0.05636799pt"/>
  <path d="M 47.681141,86.46196 L 47.046571,87.02774" id="path1154" style="font-size:12px;fill:#ffffff;fill-rule:evenodd;stroke:#ef2d28;stroke-width:0.05636799pt"/>
  <path d="M 45.988951,86.46195 L 45.354381,87.02773" id="path1155" style="font-size:12px;fill:#ffffff;fill-rule:evenodd;stroke:#ef2d28;stroke-width:0.05636799pt"/>
  <path d="M 48.10419,86.46194 L 47.469619,87.02772" id="path1156" style="font-size:12px;fill:#ffffff;fill-rule:evenodd;stroke:#ef2d28;stroke-width:0.05636799pt"/>
  <path d="M 48.527234,86.46195 L 47.892663,87.02773" id="path1157" style="font-size:12px;fill:#ffffff;fill-rule:evenodd;stroke:#ef2d28;stroke-width:0.05636799pt"/>
  <path d="M 48.950281,86.46195 L 48.31571,87.02773" id="path1158" style="font-size:12px;fill:#ffffff;fill-rule:evenodd;stroke:#ef2d28;stroke-width:0.05636799pt"/>
  <path d="M 49.373331,86.46194 L 48.738761,87.02772" id="path1159" style="font-size:12px;fill:#ffffff;fill-rule:evenodd;stroke:#ef2d28;stroke-width:0.05636799pt"/>
  <path d="M 48.738761,86.46193 L 49.373331,87.02771" id="path1160" style="font-size:12px;fill:#ffffff;fill-rule:evenodd;stroke:#ef2d28;stroke-width:0.05636799pt"/>
  <path d="M 48.315716,86.46194 L 48.950287,87.02772" id="path1161" style="font-size:12px;fill:#ffffff;fill-rule:evenodd;stroke:#ef2d28;stroke-width:0.05636799pt"/>
  <path d="M 47.89267,86.46194 L 48.527241,87.02772" id="path1162" style="font-size:12px;fill:#ffffff;fill-rule:evenodd;stroke:#ef2d28;stroke-width:0.05636799pt"/>
  <path d="M 47.469617,86.46194 L 48.104188,87.02772" id="path1163" style="font-size:12px;fill:#ffffff;fill-rule:evenodd;stroke:#ef2d28;stroke-width:0.05636799pt"/>
  <path d="M 47.046577,86.46194 L 47.681148,87.02772" id="path1164" style="font-size:12px;fill:#ffffff;fill-rule:evenodd;stroke:#ef2d28;stroke-width:0.05636799pt"/>
  <path d="M 46.623531,86.46195 L 47.258101,87.02773" id="path1165" style="font-size:12px;fill:#ffffff;fill-rule:evenodd;stroke:#ef2d28;stroke-width:0.05636799pt"/>
  <path d="M 46.200478,86.46194 L 46.835049,87.02772" id="path1166" style="font-size:12px;fill:#ffffff;fill-rule:evenodd;stroke:#ef2d28;stroke-width:0.05636799pt"/>
  <path d="M 45.777438,86.46195 L 46.412009,87.02773" id="path1167" style="font-size:12px;fill:#ffffff;fill-rule:evenodd;stroke:#ef2d28;stroke-width:0.05636799pt"/>
  <path d="M 45.354385,86.46194 L 45.988956,87.02772" id="path1168" style="font-size:12px;fill:#ffffff;fill-rule:evenodd;stroke:#ef2d28;stroke-width:0.05636799pt"/>
  <path d="M 44.931341,86.46195 L 45.565911,87.02773" id="path1169" style="font-size:12px;fill:#ffffff;fill-rule:evenodd;stroke:#ef2d28;stroke-width:0.05636799pt"/>
  <path d="M 44.508294,86.46195 L 45.142865,87.02774" id="path1170" style="font-size:12px;fill:#ffffff;fill-rule:evenodd;stroke:#ef2d28;stroke-width:0.05636799pt"/>
  <path d="M 44.085248,86.46196 L 44.719819,87.02774" id="path1171" style="font-size:12px;fill:#ffffff;fill-rule:evenodd;stroke:#ef2d28;stroke-width:0.05636799pt"/>
  <path d="M 45.777438,86.46195 L 46.412009,87.02773" id="path1172" style="font-size:12px;fill:#ffffff;fill-rule:evenodd;stroke:#ef2d28;stroke-width:0.05636799pt"/>
  <path d="M 43.662199,86.46194 L 44.29677,87.02772" id="path1173" style="font-size:12px;fill:#ffffff;fill-rule:evenodd;stroke:#ef2d28;stroke-width:0.05636799pt"/>
  <path d="M 43.239155,86.46195 L 43.873726,87.02773" id="path1174" style="font-size:12px;fill:#ffffff;fill-rule:evenodd;stroke:#ef2d28;stroke-width:0.05636799pt"/>
  <path d="M 42.816107,86.46195 L 43.450677,87.02773" id="path1175" style="font-size:12px;fill:#ffffff;fill-rule:evenodd;stroke:#ef2d28;stroke-width:0.05636799pt"/>
  <path d="M 42.393056,86.46194 L 43.027627,87.02772" id="path1176" style="font-size:12px;fill:#ffffff;fill-rule:evenodd;stroke:#ef2d28;stroke-width:0.05636799pt"/>
  <path d="M 43.027625,89.66798 L 42.393054,90.23376" id="path1178" style="font-size:12px;fill:#ffffff;fill-rule:evenodd;stroke:#ef2d28;stroke-width:0.05636799pt"/>
  <path d="M 43.450669,89.66799 L 42.816098,90.23377" id="path1179" style="font-size:12px;fill:#ffffff;fill-rule:evenodd;stroke:#ef2d28;stroke-width:0.05636799pt"/>
  <path d="M 43.873717,89.66799 L 43.239147,90.23377" id="path1180" style="font-size:12px;fill:#ffffff;fill-rule:evenodd;stroke:#ef2d28;stroke-width:0.05636799pt"/>
  <path d="M 44.296766,89.66799 L 43.662195,90.23377" id="path1181" style="font-size:12px;fill:#ffffff;fill-rule:evenodd;stroke:#ef2d28;stroke-width:0.05636799pt"/>
  <path d="M 44.71981,89.66799 L 44.085239,90.23377" id="path1182" style="font-size:12px;fill:#ffffff;fill-rule:evenodd;stroke:#ef2d28;stroke-width:0.05636799pt"/>
  <path d="M 45.142859,89.668 L 44.508288,90.23378" id="path1183" style="font-size:12px;fill:#ffffff;fill-rule:evenodd;stroke:#ef2d28;stroke-width:0.05636799pt"/>
  <path d="M 45.565905,89.66799 L 44.931334,90.23377" id="path1184" style="font-size:12px;fill:#ffffff;fill-rule:evenodd;stroke:#ef2d28;stroke-width:0.05636799pt"/>
  <path d="M 45.988949,89.66799 L 45.354379,90.23377" id="path1185" style="font-size:12px;fill:#ffffff;fill-rule:evenodd;stroke:#ef2d28;stroke-width:0.05636799pt"/>
  <path d="M 46.412,89.66799 L 45.777429,90.23377" id="path1186" style="font-size:12px;fill:#ffffff;fill-rule:evenodd;stroke:#ef2d28;stroke-width:0.05636799pt"/>
  <path d="M 46.835046,89.668 L 46.200476,90.23378" id="path1187" style="font-size:12px;fill:#ffffff;fill-rule:evenodd;stroke:#ef2d28;stroke-width:0.05636799pt"/>
  <path d="M 47.258091,89.668 L 46.62352,90.23378" id="path1188" style="font-size:12px;fill:#ffffff;fill-rule:evenodd;stroke:#ef2d28;stroke-width:0.05636799pt"/>
  <path d="M 47.681139,89.668 L 47.046569,90.23379" id="path1189" style="font-size:12px;fill:#ffffff;fill-rule:evenodd;stroke:#ef2d28;stroke-width:0.05636799pt"/>
  <path d="M 45.988949,89.66799 L 45.354379,90.23377" id="path1190" style="font-size:12px;fill:#ffffff;fill-rule:evenodd;stroke:#ef2d28;stroke-width:0.05636799pt"/>
  <path d="M 48.104188,89.66799 L 47.469617,90.23377" id="path1191" style="font-size:12px;fill:#ffffff;fill-rule:evenodd;stroke:#ef2d28;stroke-width:0.05636799pt"/>
  <path d="M 48.527232,89.66799 L 47.892661,90.23377" id="path1192" style="font-size:12px;fill:#ffffff;fill-rule:evenodd;stroke:#ef2d28;stroke-width:0.05636799pt"/>
  <path d="M 48.950278,89.668 L 48.315708,90.23378" id="path1193" style="font-size:12px;fill:#ffffff;fill-rule:evenodd;stroke:#ef2d28;stroke-width:0.05636799pt"/>
  <path d="M 49.373329,89.66799 L 48.738758,90.23377" id="path1194" style="font-size:12px;fill:#ffffff;fill-rule:evenodd;stroke:#ef2d28;stroke-width:0.05636799pt"/>
  <path d="M 48.738758,89.66798 L 49.373329,90.23376" id="path1195" style="font-size:12px;fill:#ffffff;fill-rule:evenodd;stroke:#ef2d28;stroke-width:0.05636799pt"/>
  <path d="M 48.315714,89.66799 L 48.950285,90.23377" id="path1196" style="font-size:12px;fill:#ffffff;fill-rule:evenodd;stroke:#ef2d28;stroke-width:0.05636799pt"/>
  <path d="M 47.892668,89.66799 L 48.527238,90.23377" id="path1197" style="font-size:12px;fill:#ffffff;fill-rule:evenodd;stroke:#ef2d28;stroke-width:0.05636799pt"/>
  <path d="M 47.469615,89.66799 L 48.104186,90.23377" id="path1198" style="font-size:12px;fill:#ffffff;fill-rule:evenodd;stroke:#ef2d28;stroke-width:0.05636799pt"/>
  <path d="M 47.046575,89.66799 L 47.681146,90.23377" id="path1199" style="font-size:12px;fill:#ffffff;fill-rule:evenodd;stroke:#ef2d28;stroke-width:0.05636799pt"/>
  <path d="M 46.623529,89.668 L 47.258099,90.23378" id="path1200" style="font-size:12px;fill:#ffffff;fill-rule:evenodd;stroke:#ef2d28;stroke-width:0.05636799pt"/>
  <path d="M 46.200476,89.66799 L 46.835046,90.23377" id="path1201" style="font-size:12px;fill:#ffffff;fill-rule:evenodd;stroke:#ef2d28;stroke-width:0.05636799pt"/>
  <path d="M 45.777436,89.66799 L 46.412006,90.23377" id="path1202" style="font-size:12px;fill:#ffffff;fill-rule:evenodd;stroke:#ef2d28;stroke-width:0.05636799pt"/>
  <path d="M 45.354383,89.66799 L 45.988954,90.23377" id="path1203" style="font-size:12px;fill:#ffffff;fill-rule:evenodd;stroke:#ef2d28;stroke-width:0.05636799pt"/>
  <path d="M 44.931339,89.668 L 45.565909,90.23378" id="path1204" style="font-size:12px;fill:#ffffff;fill-rule:evenodd;stroke:#ef2d28;stroke-width:0.05636799pt"/>
  <path d="M 44.508292,89.668 L 45.142863,90.23378" id="path1205" style="font-size:12px;fill:#ffffff;fill-rule:evenodd;stroke:#ef2d28;stroke-width:0.05636799pt"/>
  <path d="M 44.085246,89.668 L 44.719817,90.23379" id="path1206" style="font-size:12px;fill:#ffffff;fill-rule:evenodd;stroke:#ef2d28;stroke-width:0.05636799pt"/>
  <path d="M 45.777436,89.66799 L 46.412006,90.23377" id="path1207" style="font-size:12px;fill:#ffffff;fill-rule:evenodd;stroke:#ef2d28;stroke-width:0.05636799pt"/>
  <path d="M 43.662197,89.66799 L 44.296768,90.23377" id="path1208" style="font-size:12px;fill:#ffffff;fill-rule:evenodd;stroke:#ef2d28;stroke-width:0.05636799pt"/>
  <path d="M 43.239153,89.66799 L 43.873724,90.23377" id="path1209" style="font-size:12px;fill:#ffffff;fill-rule:evenodd;stroke:#ef2d28;stroke-width:0.05636799pt"/>
  <path d="M 42.816105,89.668 L 43.450675,90.23378" id="path1210" style="font-size:12px;fill:#ffffff;fill-rule:evenodd;stroke:#ef2d28;stroke-width:0.05636799pt"/>
  <path d="M 42.393054,89.66799 L 43.027625,90.23377" id="path1211" style="font-size:12px;fill:#ffffff;fill-rule:evenodd;stroke:#ef2d28;stroke-width:0.05636799pt"/>
  <rect height="4.5262189" id="rect1061" rx="0.68595517" ry="0.64325047" style="font-size:12px;fill:#ffffff;fill-rule:evenodd;stroke:#ef2d28;stroke-width:0.06044453pt" width="8.2494183" x="14.048903" y="85.896179"/>
  <rect height="4.1490326" id="rect936" rx="0.65077788" ry="0.58964616" style="font-size:12px;fill:#ffffff;fill-rule:evenodd;stroke:#ef2d28;stroke-width:0.05636799pt" width="7.8263702" x="14.260427" y="86.084747"/>
  <path d="M 17.899504,87.21632 L 18.294823,87.23012 L 18.31279,87.40906 L 18.636225,87.57424 L 18.887788,87.36776 L 19.193256,87.53293 L 18.905759,87.71191 L 18.977634,87.95969 L 19.336991,87.94592 L 19.336991,88.2763 L 19.04951,88.26253 L 18.905759,88.46901 L 19.229198,88.70302 L 18.977634,88.89573 L 18.708104,88.68926 L 18.312785,88.77186 L 18.330756,89.07471 L 17.899504,89.10224 L 17.8456,88.81316 L 17.486223,88.66172 L 17.288568,88.8682 L 16.983096,88.71679 L 17.162784,88.48278 L 16.947158,88.33134 L 16.641686,88.33134 L 16.623719,87.90462 L 16.929187,87.93215 L 17.144813,87.68437 L 16.893254,87.49167 L 17.216693,87.27142 L 17.450286,87.45036 L 17.8456,87.39529 L 17.899504,87.21632 z" id="path934" style="font-size:12px;fill:#ffffff;fill-rule:evenodd;stroke:#ef2d28;stroke-width:0.03558649pt"/>
  <ellipse cx="68.944084" cy="426.78302" id="path935" rx="11.048731" ry="9.9438629" sodipodi:cx="68.944084" sodipodi:cy="426.78302" sodipodi:rx="11.048731" sodipodi:ry="9.9438629" style="font-size:12px;fill:#ffffff;fill-rule:evenodd;stroke:#ef2d28;stroke-width:1pt" transform="matrix(3.9291861e-2,0,0,3.7376917e-2,15.31018,72.15925)"/>
  <path d="M 15.318045,86.27335 L 14.683476,86.83913" id="path938" style="font-size:12px;fill:#ffffff;fill-rule:evenodd;stroke:#ef2d28;stroke-width:0.05636799pt"/>
  <path d="M 15.74109,86.27335 L 15.10652,86.83913" id="path939" style="font-size:12px;fill:#ffffff;fill-rule:evenodd;stroke:#ef2d28;stroke-width:0.05636799pt"/>
  <path d="M 16.164138,86.27335 L 15.529568,86.83914" id="path940" style="font-size:12px;fill:#ffffff;fill-rule:evenodd;stroke:#ef2d28;stroke-width:0.05636799pt"/>
  <path d="M 16.587187,86.27335 L 15.952617,86.83914" id="path941" style="font-size:12px;fill:#ffffff;fill-rule:evenodd;stroke:#ef2d28;stroke-width:0.05636799pt"/>
  <path d="M 17.010231,86.27335 L 16.375661,86.83913" id="path942" style="font-size:12px;fill:#ffffff;fill-rule:evenodd;stroke:#ef2d28;stroke-width:0.05636799pt"/>
  <path d="M 17.433279,86.27336 L 16.79871,86.83914" id="path943" style="font-size:12px;fill:#ffffff;fill-rule:evenodd;stroke:#ef2d28;stroke-width:0.05636799pt"/>
  <path d="M 17.856325,86.27335 L 17.221756,86.83914" id="path950" style="font-size:12px;fill:#ffffff;fill-rule:evenodd;stroke:#ef2d28;stroke-width:0.05636799pt"/>
  <path d="M 18.279369,86.27336 L 17.6448,86.83914" id="path951" style="font-size:12px;fill:#ffffff;fill-rule:evenodd;stroke:#ef2d28;stroke-width:0.05636799pt"/>
  <path d="M 18.70242,86.27335 L 18.067851,86.83914" id="path952" style="font-size:12px;fill:#ffffff;fill-rule:evenodd;stroke:#ef2d28;stroke-width:0.05636799pt"/>
  <path d="M 19.125466,86.27336 L 18.490897,86.83914" id="path953" style="font-size:12px;fill:#ffffff;fill-rule:evenodd;stroke:#ef2d28;stroke-width:0.05636799pt"/>
  <path d="M 19.548511,86.27337 L 18.913942,86.83915" id="path954" style="font-size:12px;fill:#ffffff;fill-rule:evenodd;stroke:#ef2d28;stroke-width:0.05636799pt"/>
  <path d="M 19.971559,86.27337 L 19.336989,86.83915" id="path955" style="font-size:12px;fill:#ffffff;fill-rule:evenodd;stroke:#ef2d28;stroke-width:0.05636799pt"/>
  <path d="M 18.279369,86.27336 L 17.6448,86.83914" id="path957" style="font-size:12px;fill:#ffffff;fill-rule:evenodd;stroke:#ef2d28;stroke-width:0.05636799pt"/>
  <path d="M 20.394608,86.27335 L 19.760038,86.83914" id="path962" style="font-size:12px;fill:#ffffff;fill-rule:evenodd;stroke:#ef2d28;stroke-width:0.05636799pt"/>
  <path d="M 20.817652,86.27336 L 20.183082,86.83914" id="path963" style="font-size:12px;fill:#ffffff;fill-rule:evenodd;stroke:#ef2d28;stroke-width:0.05636799pt"/>
  <path d="M 21.2407,86.27336 L 20.606131,86.83914" id="path964" style="font-size:12px;fill:#ffffff;fill-rule:evenodd;stroke:#ef2d28;stroke-width:0.05636799pt"/>
  <path d="M 21.66375,86.27335 L 21.029181,86.83913" id="path965" style="font-size:12px;fill:#ffffff;fill-rule:evenodd;stroke:#ef2d28;stroke-width:0.05636799pt"/>
  <path d="M 21.02918,86.27335 L 21.66375,86.83913" id="path974" style="font-size:12px;fill:#ffffff;fill-rule:evenodd;stroke:#ef2d28;stroke-width:0.05636799pt"/>
  <path d="M 20.606134,86.27335 L 21.240703,86.83913" id="path975" style="font-size:12px;fill:#ffffff;fill-rule:evenodd;stroke:#ef2d28;stroke-width:0.05636799pt"/>
  <path d="M 20.183089,86.27335 L 20.817659,86.83914" id="path976" style="font-size:12px;fill:#ffffff;fill-rule:evenodd;stroke:#ef2d28;stroke-width:0.05636799pt"/>
  <path d="M 19.760037,86.27335 L 20.394606,86.83914" id="path977" style="font-size:12px;fill:#ffffff;fill-rule:evenodd;stroke:#ef2d28;stroke-width:0.05636799pt"/>
  <path d="M 19.336997,86.27335 L 19.971566,86.83913" id="path978" style="font-size:12px;fill:#ffffff;fill-rule:evenodd;stroke:#ef2d28;stroke-width:0.05636799pt"/>
  <path d="M 18.91395,86.27336 L 19.548519,86.83914" id="path979" style="font-size:12px;fill:#ffffff;fill-rule:evenodd;stroke:#ef2d28;stroke-width:0.05636799pt"/>
  <path d="M 18.490898,86.27335 L 19.125467,86.83914" id="path980" style="font-size:12px;fill:#ffffff;fill-rule:evenodd;stroke:#ef2d28;stroke-width:0.05636799pt"/>
  <path d="M 18.067857,86.27336 L 18.702427,86.83914" id="path981" style="font-size:12px;fill:#ffffff;fill-rule:evenodd;stroke:#ef2d28;stroke-width:0.05636799pt"/>
  <path d="M 17.644805,86.27335 L 18.279375,86.83914" id="path982" style="font-size:12px;fill:#ffffff;fill-rule:evenodd;stroke:#ef2d28;stroke-width:0.05636799pt"/>
  <path d="M 17.221759,86.27336 L 17.856329,86.83914" id="path983" style="font-size:12px;fill:#ffffff;fill-rule:evenodd;stroke:#ef2d28;stroke-width:0.05636799pt"/>
  <path d="M 16.798713,86.27337 L 17.433282,86.83915" id="path984" style="font-size:12px;fill:#ffffff;fill-rule:evenodd;stroke:#ef2d28;stroke-width:0.05636799pt"/>
  <path d="M 16.375667,86.27337 L 17.010236,86.83915" id="path985" style="font-size:12px;fill:#ffffff;fill-rule:evenodd;stroke:#ef2d28;stroke-width:0.05636799pt"/>
  <path d="M 18.067857,86.27336 L 18.702427,86.83914" id="path986" style="font-size:12px;fill:#ffffff;fill-rule:evenodd;stroke:#ef2d28;stroke-width:0.05636799pt"/>
  <path d="M 15.952618,86.27335 L 16.587188,86.83914" id="path987" style="font-size:12px;fill:#ffffff;fill-rule:evenodd;stroke:#ef2d28;stroke-width:0.05636799pt"/>
  <path d="M 15.529574,86.27336 L 16.164143,86.83914" id="path988" style="font-size:12px;fill:#ffffff;fill-rule:evenodd;stroke:#ef2d28;stroke-width:0.05636799pt"/>
  <path d="M 15.106526,86.27336 L 15.741095,86.83914" id="path989" style="font-size:12px;fill:#ffffff;fill-rule:evenodd;stroke:#ef2d28;stroke-width:0.05636799pt"/>
  <path d="M 14.683475,86.27335 L 15.318045,86.83913" id="path990" style="font-size:12px;fill:#ffffff;fill-rule:evenodd;stroke:#ef2d28;stroke-width:0.05636799pt"/>
  <path d="M 15.318043,89.47939 L 14.683474,90.04518" id="path1027" style="font-size:12px;fill:#ffffff;fill-rule:evenodd;stroke:#ef2d28;stroke-width:0.05636799pt"/>
  <path d="M 15.741088,89.4794 L 15.106518,90.04518" id="path1028" style="font-size:12px;fill:#ffffff;fill-rule:evenodd;stroke:#ef2d28;stroke-width:0.05636799pt"/>
  <path d="M 16.164135,89.4794 L 15.529566,90.04518" id="path1029" style="font-size:12px;fill:#ffffff;fill-rule:evenodd;stroke:#ef2d28;stroke-width:0.05636799pt"/>
  <path d="M 16.587185,89.4794 L 15.952615,90.04518" id="path1030" style="font-size:12px;fill:#ffffff;fill-rule:evenodd;stroke:#ef2d28;stroke-width:0.05636799pt"/>
  <path d="M 17.010228,89.4794 L 16.375659,90.04518" id="path1031" style="font-size:12px;fill:#ffffff;fill-rule:evenodd;stroke:#ef2d28;stroke-width:0.05636799pt"/>
  <path d="M 17.433277,89.47941 L 16.798708,90.04519" id="path1032" style="font-size:12px;fill:#ffffff;fill-rule:evenodd;stroke:#ef2d28;stroke-width:0.05636799pt"/>
  <path d="M 17.856323,89.4794 L 17.221753,90.04518" id="path1033" style="font-size:12px;fill:#ffffff;fill-rule:evenodd;stroke:#ef2d28;stroke-width:0.05636799pt"/>
  <path d="M 18.279367,89.4794 L 17.644798,90.04519" id="path1034" style="font-size:12px;fill:#ffffff;fill-rule:evenodd;stroke:#ef2d28;stroke-width:0.05636799pt"/>
  <path d="M 18.702418,89.4794 L 18.067849,90.04518" id="path1035" style="font-size:12px;fill:#ffffff;fill-rule:evenodd;stroke:#ef2d28;stroke-width:0.05636799pt"/>
  <path d="M 19.125464,89.47941 L 18.490895,90.04519" id="path1036" style="font-size:12px;fill:#ffffff;fill-rule:evenodd;stroke:#ef2d28;stroke-width:0.05636799pt"/>
  <path d="M 19.548509,89.47941 L 18.913939,90.04519" id="path1037" style="font-size:12px;fill:#ffffff;fill-rule:evenodd;stroke:#ef2d28;stroke-width:0.05636799pt"/>
  <path d="M 19.971557,89.47942 L 19.336987,90.0452" id="path1038" style="font-size:12px;fill:#ffffff;fill-rule:evenodd;stroke:#ef2d28;stroke-width:0.05636799pt"/>
  <path d="M 18.279367,89.4794 L 17.644798,90.04519" id="path1039" style="font-size:12px;fill:#ffffff;fill-rule:evenodd;stroke:#ef2d28;stroke-width:0.05636799pt"/>
  <path d="M 20.394605,89.4794 L 19.760036,90.04518" id="path1040" style="font-size:12px;fill:#ffffff;fill-rule:evenodd;stroke:#ef2d28;stroke-width:0.05636799pt"/>
  <path d="M 20.81765,89.4794 L 20.18308,90.04519" id="path1041" style="font-size:12px;fill:#ffffff;fill-rule:evenodd;stroke:#ef2d28;stroke-width:0.05636799pt"/>
  <path d="M 21.240698,89.47941 L 20.606128,90.04519" id="path1042" style="font-size:12px;fill:#ffffff;fill-rule:evenodd;stroke:#ef2d28;stroke-width:0.05636799pt"/>
  <path d="M 21.663748,89.4794 L 21.029179,90.04518" id="path1043" style="font-size:12px;fill:#ffffff;fill-rule:evenodd;stroke:#ef2d28;stroke-width:0.05636799pt"/>
  <path d="M 21.029178,89.47939 L 21.663748,90.04518" id="path1044" style="font-size:12px;fill:#ffffff;fill-rule:evenodd;stroke:#ef2d28;stroke-width:0.05636799pt"/>
  <path d="M 20.606132,89.4794 L 21.240701,90.04518" id="path1045" style="font-size:12px;fill:#ffffff;fill-rule:evenodd;stroke:#ef2d28;stroke-width:0.05636799pt"/>
  <path d="M 20.183087,89.4794 L 20.817657,90.04518" id="path1046" style="font-size:12px;fill:#ffffff;fill-rule:evenodd;stroke:#ef2d28;stroke-width:0.05636799pt"/>
  <path d="M 19.760035,89.4794 L 20.394604,90.04518" id="path1047" style="font-size:12px;fill:#ffffff;fill-rule:evenodd;stroke:#ef2d28;stroke-width:0.05636799pt"/>
  <path d="M 19.336995,89.4794 L 19.971564,90.04518" id="path1048" style="font-size:12px;fill:#ffffff;fill-rule:evenodd;stroke:#ef2d28;stroke-width:0.05636799pt"/>
  <path d="M 18.913948,89.47941 L 19.548517,90.04519" id="path1049" style="font-size:12px;fill:#ffffff;fill-rule:evenodd;stroke:#ef2d28;stroke-width:0.05636799pt"/>
  <path d="M 18.490896,89.4794 L 19.125465,90.04518" id="path1050" style="font-size:12px;fill:#ffffff;fill-rule:evenodd;stroke:#ef2d28;stroke-width:0.05636799pt"/>
  <path d="M 18.067855,89.4794 L 18.702425,90.04519" id="path1051" style="font-size:12px;fill:#ffffff;fill-rule:evenodd;stroke:#ef2d28;stroke-width:0.05636799pt"/>
  <path d="M 17.644803,89.4794 L 18.279373,90.04518" id="path1052" style="font-size:12px;fill:#ffffff;fill-rule:evenodd;stroke:#ef2d28;stroke-width:0.05636799pt"/>
  <path d="M 17.221757,89.47941 L 17.856326,90.04519" id="path1053" style="font-size:12px;fill:#ffffff;fill-rule:evenodd;stroke:#ef2d28;stroke-width:0.05636799pt"/>
  <path d="M 16.798711,89.47941 L 17.43328,90.04519" id="path1054" style="font-size:12px;fill:#ffffff;fill-rule:evenodd;stroke:#ef2d28;stroke-width:0.05636799pt"/>
  <path d="M 16.375665,89.47942 L 17.010234,90.0452" id="path1055" style="font-size:12px;fill:#ffffff;fill-rule:evenodd;stroke:#ef2d28;stroke-width:0.05636799pt"/>
  <path d="M 18.067855,89.4794 L 18.702425,90.04519" id="path1056" style="font-size:12px;fill:#ffffff;fill-rule:evenodd;stroke:#ef2d28;stroke-width:0.05636799pt"/>
  <path d="M 15.952616,89.4794 L 16.587185,90.04518" id="path1057" style="font-size:12px;fill:#ffffff;fill-rule:evenodd;stroke:#ef2d28;stroke-width:0.05636799pt"/>
  <path d="M 15.529572,89.4794 L 16.164141,90.04519" id="path1058" style="font-size:12px;fill:#ffffff;fill-rule:evenodd;stroke:#ef2d28;stroke-width:0.05636799pt"/>
  <path d="M 15.106524,89.47941 L 15.741093,90.04519" id="path1059" style="font-size:12px;fill:#ffffff;fill-rule:evenodd;stroke:#ef2d28;stroke-width:0.05636799pt"/>
  <path d="M 14.683473,89.4794 L 15.318043,90.04518" id="path1060" style="font-size:12px;fill:#ffffff;fill-rule:evenodd;stroke:#ef2d28;stroke-width:0.05636799pt"/>
  <path d="M 26.988439,95.38474 C 16.724481,105.42198 12.345994,106.69168 14.400886,107.50057 C 16.455778,108.30947 23.065301,103.12931 29.943136,96.24837 C 36.821028,89.36737 41.03315,83.24358 38.978259,82.43469 C 36.923366,81.6258 37.905148,84.70928 26.988439,95.38474 z" id="path911" style="font-size:12px;fill:#ffffff;fill-rule:evenodd;stroke:#ef2d28;stroke-width:0.09038528pt"/>
  <path d="M 18.348359,102.68051 L 21.944245,103.62344 C 18.559865,106.8295 14.752353,108.14964 13.694827,107.58385 C 12.637182,107.01813 15.598553,105.69793 18.348359,102.68051 z" id="path912" style="font-size:12px;fill:#ffffff;fill-rule:evenodd;stroke:#ef2d28;stroke-width:0.07045999"/>
  <path d="M 18.348372,103.05768 L 21.309671,103.81205 C 18.013027,106.89481 14.752435,107.77247 13.908692,107.39529 C 13.060239,107.0181 15.669853,105.95907 18.348372,103.05768 z" id="path913" style="font-size:12px;fill:#ffffff;fill-rule:evenodd;stroke:#ef2d28;stroke-width:0.07045983"/>
  <path d="M 29.39449,94.947 C 29.386628,94.9944 29.363044,95.21018 29.341939,95.29608 C 29.341939,95.41471 29.329833,95.50579 29.315665,95.59862 C 29.282202,95.67968 29.287876,95.75493 29.18429,95.78483 C 29.113073,95.8828 29.06826,95.90819 28.974091,95.94774 C 28.909894,95.997 28.812657,96.04612 28.711341,96.08737 C 28.606283,96.12725 28.510767,96.13273 28.396041,96.11065 C 28.303972,96.05382 28.236122,95.99521 28.159567,95.94774 C 28.141532,95.87427 28.125009,95.76517 28.107017,95.69174 C 28.135351,95.76711 28.155236,95.88779 28.159567,95.99428 C 28.149476,96.11046 28.106385,96.16113 28.054466,96.25028" id="path914" style="font-size:12px;fill:none;fill-rule:evenodd;stroke:#ef2d28;stroke-width:0.07045991"/>
  <path d="M 28.422289,96.50627 C 28.413545,96.49852 28.4048,96.49074 28.396013,96.48299 C 28.4584,96.53825 28.432924,96.51189 28.290914,96.43645 C 28.188924,96.39005 28.080083,96.3654 27.94934,96.34336 C 27.82675,96.34336 27.704119,96.34336 27.581489,96.34336 C 27.438345,96.34336 27.342031,96.36239 27.239915,96.38991 C 27.165841,96.45551 27.055234,96.49279 26.977165,96.55281 C 26.897079,96.60103 26.862733,96.65815 26.819516,96.73899 C 26.748006,96.80233 26.701677,96.90007 26.63559,96.94844 C 26.605995,97.05534 26.545583,97.05169 26.504215,97.13462 C 26.628149,97.14307 26.72749,97.15811 26.793242,97.22771 C 26.902419,97.27775 26.701636,97.17866 26.661867,97.13462 C 26.575853,97.1116 26.55357,97.08807 26.425391,97.08807 C 26.305577,97.05441 26.23289,97.11551 26.110093,97.13462 C 26.038413,97.17137 26.018528,97.18116 25.926125,97.18116" id="path915" style="font-size:12px;fill:none;fill-rule:evenodd;stroke:#ef2d28;stroke-width:0.07045991"/>
  <path d="M 27.003447,97.66991 C 26.949931,97.6727 26.705679,97.71258 26.609282,97.66991 C 26.501997,97.64399 26.438263,97.59395 26.372806,97.507 C 26.340563,97.44411 26.372806,97.61863 26.372806,97.69318 C 26.360911,97.83021 26.315381,97.83147 26.241431,97.9259 C 26.165171,97.96921 26.084834,98.03016 26.004958,98.06554 C 25.938703,98.1164 25.857271,98.15043 25.768484,98.1819 C 25.688777,98.21533 25.595657,98.24941 25.532009,98.29826 C 25.444145,98.35385 25.452638,98.42032 25.400634,98.50771 C 25.410513,98.62154 25.43145,98.68607 25.505734,98.74043 C 25.536759,98.81911 25.606419,98.89701 25.663383,98.94988 C 25.728335,99.05675 25.800265,99.10716 25.637109,99.13606 C 25.547479,99.17009 25.497242,99.14339 25.400634,99.13606" id="path916" style="font-size:12px;fill:none;fill-rule:evenodd;stroke:#ef2d28;stroke-width:0.07045991"/>
  <path d="M 25.348085,99.29897 C 25.283514,99.28441 25.054522,99.21656 24.953963,99.1826 C 24.831332,99.1826 24.7087,99.1826 24.586112,99.1826 C 24.443554,99.19232 24.416397,99.22937 24.297045,99.27569 C 24.220028,99.34536 24.167185,99.39343 24.060572,99.43863 C 24.004196,99.50316 23.894387,99.61279 23.850372,99.69463 C 23.819051,99.77405 23.797822,99.88148 23.797822,99.99717 C 23.799671,100.133 23.839945,100.1562 23.850372,100.27644 C 23.879842,100.37638 23.927682,100.46794 24.008021,100.5557 C 24.019162,100.58523 24.027234,100.59242 24.060572,100.60225" id="path917" style="font-size:12px;fill:none;fill-rule:evenodd;stroke:#ef2d28;stroke-width:0.07045991"/>
  <path d="M 24.096326,100.90665 C 24.085163,100.90665 24.060478,100.96596 24.021707,101.01687 C 23.937295,101.10229 23.92643,101.10873 23.797843,101.10873 C 23.681914,101.10452 23.692719,101.0637 23.611292,101.03524 C 23.572817,100.97622 23.524851,100.92943 23.480706,100.85154 C 23.450679,100.80351 23.424292,100.73017 23.38743,100.6862 C 23.353374,100.63171 23.310929,100.59056 23.275499,100.53924 C 23.240518,100.52448 23.227204,100.51031 23.182193,100.5025 C 23.289647,100.51948 23.299051,100.55737 23.368774,100.61272 C 23.401429,100.66501 23.433875,100.71951 23.46205,100.77805 C 23.472826,100.85662 23.498167,100.91852 23.499362,101.01687 C 23.499362,101.11849 23.498854,101.18947 23.46205,101.27406 C 23.418084,101.31948 23.385551,101.36644 23.331465,101.40269 C 23.288514,101.44399 23.234637,101.50074 23.200849,101.54965 C 23.142347,101.5851 23.099812,101.61399 23.032954,101.65988 C 22.976719,101.69227 22.916096,101.72554 22.827746,101.73336 C 22.718204,101.72566 22.685818,101.69524 22.603885,101.65988 C 22.534368,101.60953 22.479627,101.57646 22.417333,101.53128 C 22.36871,101.49775 22.319191,101.43126 22.286746,101.38432 C 22.185798,101.35945 22.121715,101.36938 22.062884,101.42106 C 22.011605,101.45536 21.967162,101.49916 21.932299,101.54965 C 21.901854,101.56464 21.850812,101.60815 21.820367,101.62314" id="path918" style="font-size:12px;fill:none;fill-rule:evenodd;stroke:#ef2d28;stroke-width:0.07046014"/>
  <path d="M 22.041257,101.66683 C 22.071017,101.67908 22.179191,101.75366 22.226803,101.78146 C 22.256491,101.87797 22.303878,101.93072 22.319575,102.03365 C 22.344698,102.13302 22.342769,102.24244 22.342769,102.35462 C 22.317348,102.47178 22.267994,102.55846 22.226803,102.65266 C 22.153549,102.70188 22.1167,102.73812 22.018063,102.79021 C 21.925513,102.80257 21.834743,102.81314 21.716512,102.81314 C 21.645856,102.83643 21.508143,102.84769 21.438193,102.81314 C 21.334918,102.79935 21.258064,102.75786 21.183066,102.72144 C 21.097492,102.67349 21.044723,102.62819 20.951133,102.58388 C 20.905674,102.51782 20.834981,102.45696 20.765587,102.37754 C 20.707845,102.30033 20.665392,102.25701 20.626427,102.17121 C 20.660716,102.26911 20.71278,102.35458 20.742394,102.44632 C 20.795163,102.54393 20.825815,102.57852 20.835167,102.69851 C 20.867489,102.79436 20.85836,102.9098 20.85836,103.01948 C 20.848192,103.09398 20.842848,103.23359 20.811974,103.29459 C 20.811974,103.31751 20.811974,103.34044 20.811974,103.36337" id="path919" style="font-size:12px;fill:none;fill-rule:evenodd;stroke:#ef2d28;stroke-width:0.07046008"/>
  <path d="M 18.611622,103.7293 C 18.611622,103.74037 18.611622,103.7515 18.611622,103.76257 C 18.611622,103.67278 18.609174,103.71839 18.648932,103.89563 C 18.719314,103.97345 18.884376,103.99505 19.022036,103.96216 C 19.142743,103.87328 19.139041,103.80595 19.35783,103.76257 C 19.569275,103.77603 19.649866,103.83064 19.768244,103.89563 C 19.90877,103.95828 19.973481,103.98989 20.066727,104.12849 C 20.113052,104.24133 20.1389,104.3177 19.992106,104.36135 C 19.875459,104.43512 19.736784,104.47573 19.581692,104.49441 C 19.409348,104.49441 19.285119,104.47637 19.208588,104.56094 C 19.09021,104.67032 19.096657,104.73536 19.096657,104.92687 C 19.056839,104.98605 19.048959,105.16073 19.022036,105.22625 C 18.918403,105.27006 18.857572,105.29279 18.686243,105.29279 C 18.646007,105.19001 18.601294,105.00436 18.574311,104.8936 C 18.54512,104.77395 18.536105,104.6073 18.46238,104.52768 C 18.392654,104.43629 18.303706,104.35699 18.201207,104.29482 C 18.15548,104.23771 18.068502,104.19023 17.977345,104.16176 C 18.123721,104.22834 18.144555,104.3003 18.163897,104.46115 C 18.035251,104.51852 18.000865,104.55871 17.790793,104.56094 C 17.584302,104.54545 17.534396,104.49872 17.454999,104.39462 C 17.440553,104.56153 17.380796,104.61741 17.343068,104.76054 C 17.266298,104.86118 17.233704,104.96428 17.156516,105.09319 C 17.189409,105.25351 17.260209,105.26154 17.268447,105.45911 C 17.316861,105.58872 17.311608,105.71369 17.417689,105.79182 C 17.464969,105.84335 17.500309,105.85346 17.604241,105.85836 C 17.388258,105.85836 17.262358,105.83754 17.119206,105.75856 C 17.008528,105.69783 16.924893,105.62214 16.820663,105.55896 C 16.688614,105.47364 16.525344,105.39476 16.372938,105.35932 C 16.200594,105.35932 16.076365,105.34127 15.999834,105.42585 C 15.894171,105.49318 15.823192,105.60931 15.775972,105.75856 C 15.741407,105.93122 15.728214,106.04618 15.813282,106.15775 C 15.876381,106.28591 15.890708,106.33584 15.813282,106.4904 C 15.726602,106.59861 15.597359,106.61133 15.402868,106.65673 C 15.260849,106.64992 15.124204,106.62102 15.029764,106.5902" id="path920" style="font-size:12px;fill:none;fill-rule:evenodd;stroke:#ef2d28;stroke-width:0.07045999"/>
  <path d="M 38.700265,86.32645 C 43.254626,78.46439 46.277338,71.77345 45.447366,71.39125 C 44.617478,71.00909 40.247635,77.0797 35.693271,84.94176 L 38.700265,86.32645 z" id="path922" style="font-size:12px;fill:#ffffff;fill-rule:evenodd;stroke:#ef2d28;stroke-width:0.07151126pt"/>
  <path d="M 38.399575,86.18796 C 42.793199,78.60339 45.820162,72.19969 45.156181,71.89393 C 44.492265,71.5882 40.387584,77.49563 35.993963,85.0802" id="path923" style="font-size:12px;fill:#ffffff;fill-rule:evenodd;stroke:#ef2d28;stroke-width:0.062823pt"/>
  <path d="M 37.64407,82.23165 C 37.110061,83.11842 36.543149,84.13213 35.993948,85.0802 L 38.399593,86.18798 C 38.948791,85.23991 39.547782,84.24097 40.049715,83.33943 L 37.64407,82.23165 z" id="path924" style="font-size:12px;fill:#ffffff;fill-rule:evenodd;stroke:#ef2d28;stroke-width:0.07130056pt"/>
  <path d="M 37.847686,82.53765 C 37.313675,83.42442 36.940881,84.10304 36.39168,85.05111 L 38.195891,85.88194 C 38.745092,84.93387 39.149967,84.27002 39.651898,83.36848 L 37.847686,82.53765 z" id="path925" style="font-size:12px;fill:#ffffff;fill-rule:evenodd;stroke:#ef2d28;stroke-width:0.07130056pt"/>
  <rect height="2.1301177" id="rect926" style="font-size:12px;fill:#ffffff;fill-rule:evenodd;stroke:#ef2d28;stroke-width:0.0714568pt" transform="matrix(-0.9083208,-0.4182743,-0.5012544,0.8653,0,0)" width="1.3241997" x="-76.102478" y="59.786728"/>
  <path d="M 39.157082,83.56516 L 36.886581,84.85447" id="path927" style="font-size:12px;fill:#ffffff;fill-rule:evenodd;stroke:#ef2d28;stroke-width:0.07130056pt"/>
  <path d="M 38.089361,85.40834 L 37.954302,83.01129" id="path928" style="font-size:12px;fill:#ffffff;fill-rule:evenodd;stroke:#ef2d28;stroke-width:0.07130056pt"/>
  <path d="M 44.592796,74.18166 L 43.390016,73.62779" id="path929" style="font-size:12px;fill:#ffffff;fill-rule:evenodd;stroke:#ef2d28;stroke-width:0.07130056pt"/>
  <ellipse cx="545.66931" cy="92.125977" id="path930" rx="3.543304" ry="3.5433199" sodipodi:cx="545.66931" sodipodi:cy="92.125977" sodipodi:rx="3.543304" sodipodi:ry="3.5433199" style="font-size:12px;fill:#ef0000;fill-rule:evenodd;stroke:#ef2d28;stroke-width:1pt" transform="matrix(-9.5786773e-2,2.4150763e-2,2.1619072e-2,8.402592e-2,94.794063,52.09646)"/>
  <path d="M 36.925811,95.19656 C 47.189769,105.2338 51.568256,106.5035 49.513365,107.31239 C 47.458473,108.12128 40.848949,102.94113 33.971115,96.06019 C 27.093222,89.17919 22.881101,83.0554 24.935991,82.24651 C 26.990884,81.43762 26.009103,84.5211 36.925811,95.19656 z" id="path835" style="font-size:12px;fill:#ffffff;fill-rule:evenodd;stroke:#ef2d28;stroke-width:0.09038528pt"/>
  <path d="M 45.56589,102.49232 L 41.970003,103.43526 C 45.354385,106.64132 49.161897,107.96145 50.219424,107.39567 C 51.277069,106.82995 48.315697,105.50975 45.56589,102.49232 z" id="path842" style="font-size:12px;fill:#ffffff;fill-rule:evenodd;stroke:#ef2d28;stroke-width:0.07045999"/>
  <path d="M 45.565879,102.8695 L 42.60458,103.62387 C 45.901225,106.70663 49.161815,107.58429 50.005559,107.2071 C 50.854012,106.82992 48.244399,105.77089 45.565879,102.8695 z" id="path843" style="font-size:12px;fill:#ffffff;fill-rule:evenodd;stroke:#ef2d28;stroke-width:0.07045983"/>
  <path d="M 34.519761,94.75882 C 34.527622,94.80622 34.551206,95.022 34.572311,95.1079 C 34.572311,95.22653 34.584418,95.31761 34.598586,95.41044 C 34.632049,95.4915 34.626374,95.56675 34.729961,95.59665 C 34.801178,95.69462 34.84599,95.72001 34.94016,95.75956 C 35.004356,95.80882 35.101594,95.85793 35.20291,95.89919 C 35.307968,95.93907 35.403484,95.94454 35.51821,95.92246 C 35.610278,95.86564 35.678129,95.80703 35.754684,95.75956 C 35.772719,95.68609 35.789242,95.57699 35.807234,95.50356 C 35.778899,95.57893 35.759014,95.69961 35.754684,95.8061 C 35.764774,95.92228 35.807866,95.97295 35.859785,96.0621" id="path871" style="font-size:12px;fill:none;fill-rule:evenodd;stroke:#ef2d28;stroke-width:0.07045991"/>
  <path d="M 35.491964,96.31808 C 35.500708,96.31034 35.509453,96.30256 35.518238,96.29481 C 35.455851,96.35007 35.481327,96.32371 35.623339,96.24827 C 35.725327,96.20187 35.834167,96.17722 35.964913,96.15518 C 36.087501,96.15518 36.210131,96.15518 36.332762,96.15518 C 36.475908,96.15518 36.572222,96.17421 36.674336,96.20172 C 36.748412,96.26733 36.859019,96.30461 36.937086,96.36463 C 37.017171,96.41285 37.051518,96.46997 37.094735,96.55081 C 37.166246,96.61414 37.212574,96.71189 37.27866,96.76026 C 37.308256,96.86716 37.368668,96.86351 37.410035,96.94643 C 37.286101,96.95489 37.186761,96.96993 37.121011,97.03952 C 37.011834,97.08957 37.212617,96.99048 37.252386,96.94643 C 37.3384,96.92342 37.360681,96.89989 37.48886,96.89989 C 37.608674,96.86623 37.681361,96.92733 37.80416,96.94643 C 37.875838,96.98319 37.895723,96.99298 37.988126,96.99298" id="path872" style="font-size:12px;fill:none;fill-rule:evenodd;stroke:#ef2d28;stroke-width:0.07045991"/>
  <path d="M 36.910803,97.48173 C 36.96432,97.48452 37.208572,97.5244 37.304969,97.48173 C 37.412254,97.45581 37.475987,97.40577 37.541444,97.31882 C 37.573687,97.25593 37.541444,97.43045 37.541444,97.505 C 37.55334,97.64203 37.598869,97.64329 37.672819,97.73772 C 37.749079,97.78103 37.829417,97.84198 37.909293,97.87735 C 37.975548,97.92822 38.056979,97.96225 38.145766,97.99372 C 38.225474,98.02715 38.318594,98.06122 38.382242,98.11008 C 38.470106,98.16567 38.461613,98.23213 38.513617,98.31953 C 38.503738,98.43336 38.482801,98.49789 38.408516,98.55225 C 38.377491,98.63093 38.307831,98.70883 38.250867,98.7617 C 38.185916,98.86857 38.113986,98.91898 38.277141,98.94788 C 38.366771,98.98191 38.417009,98.95521 38.513617,98.94788" id="path873" style="font-size:12px;fill:none;fill-rule:evenodd;stroke:#ef2d28;stroke-width:0.07045991"/>
  <path d="M 38.566163,99.11078 C 38.630737,99.09622 38.859729,99.02838 38.960288,98.99442 C 39.082918,98.99442 39.205549,98.99442 39.328137,98.99442 C 39.470694,99.00414 39.497852,99.04119 39.617203,99.08751 C 39.694221,99.15718 39.747066,99.20525 39.853679,99.25045 C 39.910054,99.31498 40.019863,99.4246 40.063878,99.50645 C 40.095198,99.58587 40.116429,99.69329 40.116429,99.80899 C 40.114579,99.94482 40.074304,99.96802 40.063878,100.08825 C 40.034409,100.18819 39.986566,100.27976 39.906229,100.36752 C 39.895087,100.39705 39.887017,100.40423 39.853679,100.41407" id="path874" style="font-size:12px;fill:none;fill-rule:evenodd;stroke:#ef2d28;stroke-width:0.07045991"/>
  <path d="M 39.817924,100.71847 C 39.829088,100.71847 39.853773,100.77778 39.892544,100.82869 C 39.976956,100.91411 39.987821,100.92055 40.116407,100.92055 C 40.232337,100.91634 40.221532,100.87552 40.302959,100.84706 C 40.341434,100.78804 40.389399,100.74125 40.433545,100.66336 C 40.463571,100.61533 40.489958,100.54199 40.52682,100.49802 C 40.560877,100.44353 40.603322,100.40237 40.638752,100.35105 C 40.673732,100.3363 40.687046,100.32213 40.732058,100.31431 C 40.624604,100.3313 40.6152,100.36919 40.545476,100.42454 C 40.512821,100.47683 40.480375,100.53132 40.452201,100.58987 C 40.441425,100.66844 40.416083,100.73034 40.414889,100.82869 C 40.414889,100.9303 40.415396,101.00129 40.452201,101.08588 C 40.496166,101.13129 40.5287,101.17826 40.582786,101.21451 C 40.625737,101.2558 40.679614,101.31256 40.713402,101.36147 C 40.771904,101.39692 40.814438,101.42581 40.881297,101.47169 C 40.937532,101.50409 40.998155,101.53736 41.086505,101.54518 C 41.196047,101.53748 41.228433,101.50705 41.310366,101.47169 C 41.379883,101.42134 41.434624,101.38828 41.496917,101.3431 C 41.54554,101.30956 41.595059,101.24308 41.627505,101.19613 C 41.728452,101.17127 41.792535,101.1812 41.851366,101.23288 C 41.902645,101.26718 41.947089,101.31097 41.981952,101.36147 C 42.012397,101.37646 42.063439,101.41996 42.093884,101.43495" id="path877" style="font-size:12px;fill:none;fill-rule:evenodd;stroke:#ef2d28;stroke-width:0.07046014"/>
  <path d="M 41.872994,101.47865 C 41.843234,101.4909 41.735059,101.56548 41.687447,101.59328 C 41.65776,101.68979 41.610372,101.74254 41.594675,101.84547 C 41.569553,101.94484 41.571482,102.05426 41.571482,102.16644 C 41.596902,102.2836 41.646257,102.37028 41.687447,102.46448 C 41.760702,102.5137 41.797551,102.54994 41.896188,102.60203 C 41.988738,102.61439 42.079507,102.62496 42.197739,102.62496 C 42.268395,102.64825 42.406108,102.65951 42.476058,102.62496 C 42.579332,102.61117 42.656186,102.56968 42.731185,102.53325 C 42.816757,102.48531 42.869527,102.44001 42.963117,102.3957 C 43.008576,102.32963 43.07927,102.26878 43.148663,102.18936 C 43.206406,102.11215 43.24886,102.06883 43.287823,101.98303 C 43.253534,102.08093 43.20147,102.1664 43.171857,102.25814 C 43.119087,102.35575 43.088435,102.39034 43.079085,102.51033 C 43.046763,102.60618 43.055891,102.72161 43.055891,102.83129 C 43.066059,102.90579 43.071403,103.04541 43.102276,103.10641 C 43.102276,103.12933 43.102276,103.15226 43.102276,103.17519" id="path878" style="font-size:12px;fill:none;fill-rule:evenodd;stroke:#ef2d28;stroke-width:0.07046008"/>
  <path d="M 45.302628,103.54112 C 45.302628,103.55219 45.302628,103.56332 45.302628,103.57439 C 45.302628,103.4846 45.305077,103.53021 45.265318,103.70745 C 45.194935,103.78527 45.029875,103.80687 44.892213,103.77398 C 44.771507,103.68509 44.775209,103.61777 44.55642,103.57439 C 44.344975,103.58785 44.264384,103.64246 44.146005,103.70745 C 44.005481,103.77009 43.94077,103.80171 43.847522,103.94031 C 43.801199,104.05315 43.775349,104.12952 43.922144,104.17317 C 44.03879,104.24694 44.177466,104.28755 44.332559,104.30623 C 44.504902,104.30623 44.629131,104.28819 44.705662,104.37276 C 44.824041,104.48214 44.817594,104.54718 44.817594,104.73868 C 44.857412,104.79787 44.865291,104.97255 44.892213,105.03807 C 44.995849,105.08188 45.056678,105.1046 45.228009,105.1046 C 45.268243,105.00183 45.312956,104.81618 45.339938,104.70542 C 45.369131,104.58577 45.378144,104.41912 45.45187,104.3395 C 45.521596,104.24811 45.610545,104.1688 45.713043,104.10664 C 45.758771,104.04953 45.845749,104.00205 45.936905,103.97357 C 45.79053,104.04016 45.769696,104.11212 45.750353,104.27296 C 45.878999,104.33034 45.913385,104.37053 46.123458,104.37276 C 46.329948,104.35727 46.379855,104.31054 46.459251,104.20643 C 46.473698,104.37335 46.533455,104.42923 46.571183,104.57235 C 46.647953,104.673 46.680546,104.7761 46.757734,104.90501 C 46.724841,105.06532 46.654042,105.07336 46.645803,105.27093 C 46.597389,105.40054 46.602643,105.52551 46.496561,105.60364 C 46.449282,105.65516 46.413941,105.66528 46.31001,105.67017 C 46.525993,105.67017 46.651891,105.64936 46.795044,105.57038 C 46.905722,105.50965 46.989357,105.43396 47.093587,105.37078 C 47.225636,105.28546 47.388907,105.20658 47.541312,105.17114 C 47.713658,105.17114 47.837886,105.15309 47.914417,105.23767 C 48.020079,105.305 48.091059,105.42113 48.138278,105.57038 C 48.172843,105.74304 48.186035,105.858 48.100969,105.96956 C 48.037869,106.09773 48.023541,106.14765 48.100969,106.30222 C 48.187648,106.41043 48.316892,106.42315 48.511383,106.46855 C 48.653402,106.46173 48.790046,106.43283 48.884486,106.40202" id="path879" style="font-size:12px;fill:none;fill-rule:evenodd;stroke:#ef2d28;stroke-width:0.07045999"/>
  <path d="M 25.213986,86.13827 C 20.659624,78.27621 17.636914,71.58526 18.466885,71.20307 C 19.296772,70.82091 23.666615,76.89151 28.220979,84.75357 L 25.213986,86.13827 z" id="path847" style="font-size:12px;fill:#ffffff;fill-rule:evenodd;stroke:#ef2d28;stroke-width:0.07151126pt"/>
  <path d="M 25.514675,85.99978 C 21.121052,78.41521 18.094088,72.01151 18.758071,71.70575 C 19.421986,71.40002 23.526667,77.30745 27.920288,84.89202" id="path856" style="font-size:12px;fill:#ffffff;fill-rule:evenodd;stroke:#ef2d28;stroke-width:0.062823pt"/>
  <path d="M 26.270178,82.04347 C 26.804188,82.93024 27.3711,83.94395 27.920301,84.89202 L 25.514656,85.9998 C 24.965457,85.05173 24.366466,84.05279 23.864533,83.15124 L 26.270178,82.04347 z" id="path850" style="font-size:12px;fill:#ffffff;fill-rule:evenodd;stroke:#ef2d28;stroke-width:0.07130056pt"/>
  <path d="M 26.066562,82.34947 C 26.600574,83.23624 26.973367,83.91486 27.522569,84.86293 L 25.718357,85.69376 C 25.169156,84.74569 24.764282,84.08184 24.262351,83.1803 L 26.066562,82.34947 z" id="path852" style="font-size:12px;fill:#ffffff;fill-rule:evenodd;stroke:#ef2d28;stroke-width:0.07130056pt"/>
  <rect height="2.1301177" id="rect853" style="font-size:12px;fill:#ffffff;fill-rule:evenodd;stroke:#ef2d28;stroke-width:0.0714568pt" transform="matrix(0.9083208,-0.4182743,0.5012544,0.8653,0,0)" width="1.3241997" x="-20.460083" y="86.466049"/>
  <path d="M 24.757167,83.37698 L 27.027667,84.66628" id="path854" style="font-size:12px;fill:#ffffff;fill-rule:evenodd;stroke:#ef2d28;stroke-width:0.07130056pt"/>
  <path d="M 25.824887,85.22015 L 25.959947,82.82311" id="path855" style="font-size:12px;fill:#ffffff;fill-rule:evenodd;stroke:#ef2d28;stroke-width:0.07130056pt"/>
  <path d="M 19.321453,73.99348 L 20.524232,73.43961" id="path857" style="font-size:12px;fill:#ffffff;fill-rule:evenodd;stroke:#ef2d28;stroke-width:0.07130056pt"/>
  <ellipse cx="545.66931" cy="92.125977" id="path858" rx="3.543304" ry="3.5433199" sodipodi:cx="545.66931" sodipodi:cy="92.125977" sodipodi:rx="3.543304" sodipodi:ry="3.5433199" style="font-size:12px;fill:#ef0000;fill-rule:evenodd;stroke:#ef2d28;stroke-width:1pt" transform="matrix(9.5786773e-2,2.4150763e-2,-2.1619072e-2,8.402592e-2,-30.879812,51.90827)"/>
  <path d="M 28.855567,82.12433 C 28.855567,88.72507 28.894647,91.21302 28.408237,91.55398 C 27.947375,91.91894 15.106524,91.55398 15.106524,93.4399 C 15.106524,95.32582 25.682705,97.21179 28.855567,97.21174 C 33.086022,97.21174 35.201212,95.32582 35.201212,91.55398 L 35.201212,82.12433 L 28.855567,82.12433 z" id="path552" style="font-size:12px;fill:#ffffff;fill-rule:evenodd;stroke:#ef2d28;stroke-width:0.06508842pt"/>
  <path d="M 28.85555,84.01025 L 28.85555,84.95322 C 30.97078,85.26757 33.086012,85.26757 35.201242,84.95322 L 35.201242,84.01025 C 33.086012,84.32459 30.97078,84.32459 28.85555,84.01025 z" id="path564" style="font-size:12px;fill:#ffffff;fill-rule:evenodd;stroke:#ef2d28;stroke-width:0.05636772pt"/>
  <path d="M 28.855561,82.12431 L 28.855561,83.06729 C 30.97079,83.38163 33.086022,83.38163 35.201254,83.06729 L 35.201254,82.12431 C 33.086022,82.43865 30.97079,82.43865 28.855561,82.12431 z" id="path562" style="font-size:12px;fill:#ffffff;fill-rule:evenodd;stroke:#ef2d28;stroke-width:0.05636772pt"/>
  <path d="M 28.855561,83.06729 L 28.855561,84.01026 C 30.97079,84.32461 33.086022,84.32461 35.201254,84.01026 L 35.201254,83.06729 C 33.086022,83.38163 30.97079,83.38163 28.855561,83.06729 z" id="path563" style="font-size:12px;fill:#ffffff;fill-rule:evenodd;stroke:#ef2d28;stroke-width:0.05636772pt"/>
  <path d="M 28.85555,84.95319 L 28.85555,85.89617 C 30.97078,86.21051 33.086012,86.21051 35.201242,85.89617 L 35.201242,84.95319 C 33.086012,85.26754 30.97078,85.26754 28.85555,84.95319 z" id="path565" style="font-size:12px;fill:#ffffff;fill-rule:evenodd;stroke:#ef2d28;stroke-width:0.05636772pt"/>
  <ellipse cx="256.88977" cy="210.82677" id="path570" rx="8.8582611" ry="26.574783" sodipodi:cx="256.88977" sodipodi:cy="210.82677" sodipodi:rx="8.8582611" sodipodi:ry="26.574783" style="font-size:12px;fill:#ffffff;fill-rule:evenodd;stroke:#ef2d28;stroke-width:4.46283007" transform="matrix(3.2561771e-2,0,0,7.6551863e-3,20.779201,81.98946)"/>
  <ellipse cx="292.32281" cy="246.25981" id="path571" rx="8.8582611" ry="26.574783" sodipodi:cx="292.32281" sodipodi:cy="246.25981" sodipodi:rx="8.8582611" sodipodi:ry="26.574783" style="font-size:12px;fill:#ffffff;fill-rule:evenodd;stroke:#ef2d28;stroke-width:4.46283007" transform="matrix(3.2561771e-2,0,0,7.6551863e-3,20.779219,81.81993)"/>
  <ellipse cx="327.75592" cy="263.97638" id="path572" rx="8.8582764" ry="26.574829" sodipodi:cx="327.75592" sodipodi:cy="263.97638" sodipodi:rx="8.8582764" sodipodi:ry="26.574829" style="font-size:12px;fill:#ffffff;fill-rule:evenodd;stroke:#ef2d28;stroke-width:4.46285009" transform="matrix(3.2561771e-2,0,0,7.655133e-3,20.779219,81.78604)"/>
  <ellipse cx="363.18896" cy="263.97638" id="path573" rx="8.8582611" ry="26.574829" sodipodi:cx="363.18896" sodipodi:cy="263.97638" sodipodi:rx="8.8582611" sodipodi:ry="26.574829" style="font-size:12px;fill:#ffffff;fill-rule:evenodd;stroke:#ef2d28;stroke-width:4.46285009" transform="matrix(3.2561771e-2,0,0,7.655133e-3,20.779219,81.78604)"/>
  <ellipse cx="398.62207" cy="246.25981" id="path574" rx="8.8582611" ry="26.574783" sodipodi:cx="398.62207" sodipodi:cy="246.25981" sodipodi:rx="8.8582611" sodipodi:ry="26.574783" style="font-size:12px;fill:#ffffff;fill-rule:evenodd;stroke:#ef2d28;stroke-width:4.46283007" transform="matrix(3.2561771e-2,0,0,7.6551863e-3,20.779219,81.81993)"/>
  <ellipse cx="434.05511" cy="210.82677" id="path575" rx="8.8582764" ry="26.574783" sodipodi:cx="434.05511" sodipodi:cy="210.82677" sodipodi:rx="8.8582764" sodipodi:ry="26.574783" style="font-size:12px;fill:#ffffff;fill-rule:evenodd;stroke:#ef2d28;stroke-width:4.46283007" transform="matrix(3.2561771e-2,0,0,7.6551863e-3,20.779207,81.98946)"/>
  <path d="M 28.855548,86.83913 L 35.201242,91.93111" id="path582" style="font-size:12px;fill:#ffffff;fill-rule:evenodd;stroke:#ef2d28;stroke-width:0.05636799pt"/>
  <path d="M 29.490123,86.83913 L 35.201242,91.36533" id="path583" style="font-size:12px;fill:#ffffff;fill-rule:evenodd;stroke:#ef2d28;stroke-width:0.05636799pt"/>
  <path d="M 30.336203,87.02771 L 35.201242,90.79955" id="path586" style="font-size:12px;fill:#ffffff;fill-rule:evenodd;stroke:#ef2d28;stroke-width:0.05636799pt"/>
  <path d="M 30.97078,87.02771 L 35.201242,90.23382" id="path587" style="font-size:12px;fill:#ffffff;fill-rule:evenodd;stroke:#ef2d28;stroke-width:0.05636799pt"/>
  <path d="M 31.605355,87.02771 L 35.201242,89.66804" id="path588" style="font-size:12px;fill:#ffffff;fill-rule:evenodd;stroke:#ef2d28;stroke-width:0.05636799pt"/>
  <path d="M 32.23993,87.02771 L 35.201242,89.10225" id="path589" style="font-size:12px;fill:#ffffff;fill-rule:evenodd;stroke:#ef2d28;stroke-width:0.05636799pt"/>
  <path d="M 32.874505,87.02771 L 35.201242,88.53647" id="path590" style="font-size:12px;fill:#ffffff;fill-rule:evenodd;stroke:#ef2d28;stroke-width:0.05636799pt"/>
  <path d="M 33.509079,87.02771 L 35.201242,88.15927" id="path591" style="font-size:12px;fill:#ffffff;fill-rule:evenodd;stroke:#ef2d28;stroke-width:0.05636799pt"/>
  <path d="M 34.143654,87.02771 L 35.201242,87.78212" id="path592" style="font-size:12px;fill:#ffffff;fill-rule:evenodd;stroke:#ef2d28;stroke-width:0.05636799pt"/>
  <path d="M 34.778231,87.02771 L 35.201242,87.40491" id="path593" style="font-size:12px;fill:#ffffff;fill-rule:evenodd;stroke:#ef2d28;stroke-width:0.05636799pt"/>
  <path d="M 28.855561,87.40491 L 35.201254,92.49689" id="path594" style="font-size:12px;fill:#ffffff;fill-rule:evenodd;stroke:#ef2d28;stroke-width:0.05636799pt"/>
  <path d="M 35.201259,86.83913 L 28.22099,92.49689" id="path595" style="font-size:12px;fill:#ffffff;fill-rule:evenodd;stroke:#ef2d28;stroke-width:0.05636799pt"/>
  <path d="M 34.566684,86.83913 L 28.432495,91.74253" id="path596" style="font-size:12px;fill:#ffffff;fill-rule:evenodd;stroke:#ef2d28;stroke-width:0.05636799pt"/>
  <path d="M 33.720602,87.0277 L 28.855565,90.79954" id="path597" style="font-size:12px;fill:#ffffff;fill-rule:evenodd;stroke:#ef2d28;stroke-width:0.05636799pt"/>
  <path d="M 33.086027,87.0277 L 28.855565,90.23382" id="path598" style="font-size:12px;fill:#ffffff;fill-rule:evenodd;stroke:#ef2d28;stroke-width:0.05636799pt"/>
  <path d="M 32.451452,87.0277 L 28.855565,89.66803" id="path599" style="font-size:12px;fill:#ffffff;fill-rule:evenodd;stroke:#ef2d28;stroke-width:0.05636799pt"/>
  <path d="M 31.816877,87.0277 L 28.855565,89.10225" id="path600" style="font-size:12px;fill:#ffffff;fill-rule:evenodd;stroke:#ef2d28;stroke-width:0.05636799pt"/>
  <path d="M 31.182302,87.0277 L 28.855565,88.53647" id="path601" style="font-size:12px;fill:#ffffff;fill-rule:evenodd;stroke:#ef2d28;stroke-width:0.05636799pt"/>
  <path d="M 30.547727,87.0277 L 28.855565,88.15927" id="path602" style="font-size:12px;fill:#ffffff;fill-rule:evenodd;stroke:#ef2d28;stroke-width:0.05636799pt"/>
  <path d="M 29.91315,87.0277 L 28.855565,87.78211" id="path603" style="font-size:12px;fill:#ffffff;fill-rule:evenodd;stroke:#ef2d28;stroke-width:0.05636799pt"/>
  <path d="M 29.278575,87.0277 L 28.855565,87.40491" id="path604" style="font-size:12px;fill:#ffffff;fill-rule:evenodd;stroke:#ef2d28;stroke-width:0.05636799pt"/>
  <path d="M 35.201242,87.40491 L 28.220973,93.06267" id="path605" style="font-size:12px;fill:#ffffff;fill-rule:evenodd;stroke:#ef2d28;stroke-width:0.05636799pt"/>
  <path d="M 35.201242,87.97069 L 28.220973,93.62845" id="path606" style="font-size:12px;fill:#ffffff;fill-rule:evenodd;stroke:#ef2d28;stroke-width:0.05636799pt"/>
  <path d="M 35.201252,88.53648 L 28.220983,94.19424" id="path607" style="font-size:12px;fill:#ffffff;fill-rule:evenodd;stroke:#ef2d28;stroke-width:0.05636799pt"/>
  <path d="M 35.201252,89.10224 L 28.220983,94.76" id="path608" style="font-size:12px;fill:#ffffff;fill-rule:evenodd;stroke:#ef2d28;stroke-width:0.05636799pt"/>
  <path d="M 35.201252,89.66803 L 28.220983,95.32579" id="path609" style="font-size:12px;fill:#ffffff;fill-rule:evenodd;stroke:#ef2d28;stroke-width:0.05636799pt"/>
  <path d="M 35.201252,90.23381 L 28.220983,95.89157" id="path610" style="font-size:12px;fill:#ffffff;fill-rule:evenodd;stroke:#ef2d28;stroke-width:0.05636799pt"/>
  <path d="M 35.201252,90.79959 L 28.220983,96.45735" id="path611" style="font-size:12px;fill:#ffffff;fill-rule:evenodd;stroke:#ef2d28;stroke-width:0.05636799pt"/>
  <path d="M 35.201252,91.36537 L 28.220983,97.02313" id="path612" style="font-size:12px;fill:#ffffff;fill-rule:evenodd;stroke:#ef2d28;stroke-width:0.05636799pt"/>
  <path d="M 35.201242,91.93114 L 28.644043,97.2117" id="path613" style="font-size:12px;fill:#ffffff;fill-rule:evenodd;stroke:#ef2d28;stroke-width:0.05636799pt"/>
  <path d="M 35.201242,92.4969 L 29.278618,97.21173" id="path614" style="font-size:12px;fill:#ffffff;fill-rule:evenodd;stroke:#ef2d28;stroke-width:0.05636799pt"/>
  <path d="M 34.989737,93.25127 L 30.336205,97.02311" id="path615" style="font-size:12px;fill:#ffffff;fill-rule:evenodd;stroke:#ef2d28;stroke-width:0.05636799pt"/>
  <path d="M 34.778208,94.00564 L 30.970816,97.02312" id="path616" style="font-size:12px;fill:#ffffff;fill-rule:evenodd;stroke:#ef2d28;stroke-width:0.05636799pt"/>
  <path d="M 34.355162,94.94862 L 32.451435,96.45734" id="path617" style="font-size:12px;fill:#ffffff;fill-rule:evenodd;stroke:#ef2d28;stroke-width:0.05636799pt"/>
  <path d="M 28.855561,87.9707 L 34.989749,92.8741" id="path618" style="font-size:12px;fill:#ffffff;fill-rule:evenodd;stroke:#ef2d28;stroke-width:0.05636799pt"/>
  <path d="M 28.855531,88.53645 L 34.989719,93.43985" id="path619" style="font-size:12px;fill:#ffffff;fill-rule:evenodd;stroke:#ef2d28;stroke-width:0.05636799pt"/>
  <path d="M 28.855546,89.10223 L 34.778227,93.81706" id="path620" style="font-size:12px;fill:#ffffff;fill-rule:evenodd;stroke:#ef2d28;stroke-width:0.05636799pt"/>
  <path d="M 28.855546,89.66802 L 34.778227,94.38285" id="path621" style="font-size:12px;fill:#ffffff;fill-rule:evenodd;stroke:#ef2d28;stroke-width:0.05636799pt"/>
  <path d="M 28.855571,90.23381 L 34.56669,94.76001" id="path622" style="font-size:12px;fill:#ffffff;fill-rule:evenodd;stroke:#ef2d28;stroke-width:0.05636799pt"/>
  <path d="M 28.644021,90.61097 L 34.355138,95.13722" id="path623" style="font-size:12px;fill:#ffffff;fill-rule:evenodd;stroke:#ef2d28;stroke-width:0.05636799pt"/>
  <path d="M 28.644021,91.17676 L 33.932128,95.3258" id="path624" style="font-size:12px;fill:#ffffff;fill-rule:evenodd;stroke:#ef2d28;stroke-width:0.05636799pt"/>
  <path d="M 28.432501,91.55394 L 33.72061,95.70298" id="path625" style="font-size:12px;fill:#ffffff;fill-rule:evenodd;stroke:#ef2d28;stroke-width:0.05636799pt"/>
  <path d="M 28.220949,91.93114 L 33.297553,95.89156" id="path626" style="font-size:12px;fill:#ffffff;fill-rule:evenodd;stroke:#ef2d28;stroke-width:0.05636799pt"/>
  <path d="M 28.220998,92.49692 L 33.086035,96.26871" id="path627" style="font-size:12px;fill:#ffffff;fill-rule:evenodd;stroke:#ef2d28;stroke-width:0.05636799pt"/>
  <path d="M 28.220996,93.0627 L 32.451458,96.45733" id="path628" style="font-size:12px;fill:#ffffff;fill-rule:evenodd;stroke:#ef2d28;stroke-width:0.05636799pt"/>
  <path d="M 28.855561,85.89615 L 28.855561,86.83913 C 30.970793,87.15347 33.086022,87.15347 35.201254,86.83913 L 35.201254,85.89615 C 33.086022,86.2105 30.970793,86.2105 28.855561,85.89615 z" id="path636" style="font-size:12px;fill:#ffffff;fill-rule:evenodd;stroke:#ef2d28;stroke-width:0.05636772pt"/>
  <path d="M 28.220949,93.62848 L 32.028401,96.64591" id="path629" style="font-size:12px;fill:#ffffff;fill-rule:evenodd;stroke:#ef2d28;stroke-width:0.05636799pt"/>
  <path d="M 28.220949,94.19422 L 31.605331,96.8345" id="path630" style="font-size:12px;fill:#ffffff;fill-rule:evenodd;stroke:#ef2d28;stroke-width:0.05636799pt"/>
  <path d="M 28.220996,94.76003 L 31.182308,97.0231" id="path631" style="font-size:12px;fill:#ffffff;fill-rule:evenodd;stroke:#ef2d28;stroke-width:0.05636799pt"/>
  <path d="M 28.220949,95.32581 L 30.336241,97.0231" id="path632" style="font-size:12px;fill:#ffffff;fill-rule:evenodd;stroke:#ef2d28;stroke-width:0.05636799pt"/>
  <path d="M 28.220949,95.89155 L 29.913171,97.21174" id="path633" style="font-size:12px;fill:#ffffff;fill-rule:evenodd;stroke:#ef2d28;stroke-width:0.05636799pt"/>
  <path d="M 28.220998,96.45736 L 29.278583,97.21172" id="path634" style="font-size:12px;fill:#ffffff;fill-rule:evenodd;stroke:#ef2d28;stroke-width:0.05636799pt"/>
  <ellipse cx="256.88977" cy="210.82677" id="path576" rx="8.8582611" ry="26.574783" sodipodi:cx="256.88977" sodipodi:cy="210.82677" sodipodi:rx="8.8582611" sodipodi:ry="26.574783" style="font-size:12px;fill:#ffffff;fill-rule:evenodd;stroke:#ef2d28;stroke-width:4.46283007" transform="matrix(3.2561771e-2,0,0,7.6551863e-3,20.779201,84.81835)"/>
  <ellipse cx="292.32281" cy="246.25981" id="path577" rx="8.8582611" ry="26.574783" sodipodi:cx="292.32281" sodipodi:cy="246.25981" sodipodi:rx="8.8582611" sodipodi:ry="26.574783" style="font-size:12px;fill:#ffffff;fill-rule:evenodd;stroke:#ef2d28;stroke-width:4.46283007" transform="matrix(3.2561771e-2,0,0,7.6551863e-3,20.779219,84.64882)"/>
  <ellipse cx="327.75592" cy="263.97638" id="path578" rx="8.8582764" ry="26.574829" sodipodi:cx="327.75592" sodipodi:cy="263.97638" sodipodi:rx="8.8582764" sodipodi:ry="26.574829" style="font-size:12px;fill:#ffffff;fill-rule:evenodd;stroke:#ef2d28;stroke-width:4.46285009" transform="matrix(3.2561771e-2,0,0,7.655133e-3,20.779219,84.61492)"/>
  <ellipse cx="363.18896" cy="263.97638" id="path579" rx="8.8582611" ry="26.574829" sodipodi:cx="363.18896" sodipodi:cy="263.97638" sodipodi:rx="8.8582611" sodipodi:ry="26.574829" style="font-size:12px;fill:#ffffff;fill-rule:evenodd;stroke:#ef2d28;stroke-width:4.46285009" transform="matrix(3.2561771e-2,0,0,7.655133e-3,20.779219,84.61492)"/>
  <ellipse cx="398.62207" cy="246.25981" id="path580" rx="8.8582611" ry="26.574783" sodipodi:cx="398.62207" sodipodi:cy="246.25981" sodipodi:rx="8.8582611" sodipodi:ry="26.574783" style="font-size:12px;fill:#ffffff;fill-rule:evenodd;stroke:#ef2d28;stroke-width:4.46283007" transform="matrix(3.2561771e-2,0,0,7.6551863e-3,20.779219,84.64882)"/>
  <ellipse cx="434.05511" cy="210.82677" id="path581" rx="8.8582764" ry="26.574783" sodipodi:cx="434.05511" sodipodi:cy="210.82677" sodipodi:rx="8.8582764" sodipodi:ry="26.574783" style="font-size:12px;fill:#ffffff;fill-rule:evenodd;stroke:#ef2d28;stroke-width:4.46283007" transform="matrix(3.2561771e-2,0,0,7.6551863e-3,20.779207,84.81835)"/>
  <path d="M 19.760048,95.70295 L 27.374893,91.74253" id="path638" style="font-size:12px;fill:#ffffff;fill-rule:evenodd;stroke:#ef2d28;stroke-width:0.05636799pt"/>
  <path d="M 19.336991,95.51436 L 26.528764,91.74252" id="path639" style="font-size:12px;fill:#ffffff;fill-rule:evenodd;stroke:#ef2d28;stroke-width:0.05636799pt"/>
  <path d="M 19.125471,95.13719 L 25.682669,91.74251" id="path640" style="font-size:12px;fill:#ffffff;fill-rule:evenodd;stroke:#ef2d28;stroke-width:0.05636799pt"/>
  <path d="M 18.913943,94.76001 L 24.62506,91.74253" id="path641" style="font-size:12px;fill:#ffffff;fill-rule:evenodd;stroke:#ef2d28;stroke-width:0.05636799pt"/>
  <path d="M 18.490882,94.38282 L 23.778989,91.74254" id="path642" style="font-size:12px;fill:#ffffff;fill-rule:evenodd;stroke:#ef2d28;stroke-width:0.05636799pt"/>
  <path d="M 18.702448,93.81705 L 22.298334,91.93113" id="path643" style="font-size:12px;fill:#ffffff;fill-rule:evenodd;stroke:#ef2d28;stroke-width:0.05636799pt"/>
  <path d="M 18.490892,93.43985 L 21.240698,91.93114" id="path644" style="font-size:12px;fill:#ffffff;fill-rule:evenodd;stroke:#ef2d28;stroke-width:0.05636799pt"/>
  <path d="M 18.490869,92.87409 L 20.394595,91.9311" id="path645" style="font-size:12px;fill:#ffffff;fill-rule:evenodd;stroke:#ef2d28;stroke-width:0.05636799pt"/>
  <path d="M 20.394631,95.89158 L 27.586404,92.11974" id="path654" style="font-size:12px;fill:#ffffff;fill-rule:evenodd;stroke:#ef2d28;stroke-width:0.05636799pt"/>
  <path d="M 21.029169,96.08014 L 27.797933,92.49693" id="path655" style="font-size:12px;fill:#ffffff;fill-rule:evenodd;stroke:#ef2d28;stroke-width:0.05636799pt"/>
  <path d="M 21.663759,96.26878 L 28.009453,92.87409" id="path656" style="font-size:12px;fill:#ffffff;fill-rule:evenodd;stroke:#ef2d28;stroke-width:0.05636799pt"/>
  <path d="M 22.29833,96.45734 L 27.586436,93.62843" id="path657" style="font-size:12px;fill:#ffffff;fill-rule:evenodd;stroke:#ef2d28;stroke-width:0.05636799pt"/>
  <path d="M 23.144437,96.45733 L 27.797909,94.00563" id="path658" style="font-size:12px;fill:#ffffff;fill-rule:evenodd;stroke:#ef2d28;stroke-width:0.05636799pt"/>
  <path d="M 23.779004,96.64592 L 27.797961,94.57142" id="path659" style="font-size:12px;fill:#ffffff;fill-rule:evenodd;stroke:#ef2d28;stroke-width:0.05636799pt"/>
  <path d="M 24.413538,96.83455 L 27.586415,95.13721" id="path660" style="font-size:12px;fill:#ffffff;fill-rule:evenodd;stroke:#ef2d28;stroke-width:0.05636799pt"/>
  <path d="M 25.259639,96.83453 L 27.797941,95.51439" id="path661" style="font-size:12px;fill:#ffffff;fill-rule:evenodd;stroke:#ef2d28;stroke-width:0.05636799pt"/>
  <path d="M 26.105715,97.02312 L 27.797937,96.08014" id="path662" style="font-size:12px;fill:#ffffff;fill-rule:evenodd;stroke:#ef2d28;stroke-width:0.05636799pt"/>
  <path d="M 26.95181,97.0231 L 28.009455,96.45732" id="path663" style="font-size:12px;fill:#ffffff;fill-rule:evenodd;stroke:#ef2d28;stroke-width:0.05636799pt"/>
  <path d="M 28.432499,91.55395 L 27.374865,91.55395 C 27.0223,93.43987 27.0223,95.32579 27.374865,97.21171 L 28.432499,97.21171 C 28.079934,95.32579 28.079934,93.43987 28.432499,91.55395 z" id="path635" style="font-size:12px;fill:#ffffff;fill-rule:evenodd;stroke:#ef2d28;stroke-width:0.05636772pt"/>
  <path d="M 15.952597,94.19423 L 18.490898,92.30831" id="path664" style="font-size:12px;fill:#ffffff;fill-rule:evenodd;stroke:#ef2d28;stroke-width:0.05636799pt"/>
  <path d="M 15.952597,92.87409 L 18.490898,95.13722" id="path665" style="font-size:12px;fill:#ffffff;fill-rule:evenodd;stroke:#ef2d28;stroke-width:0.05636799pt"/>
  <path d="M 19.760027,91.93112 L 18.490883,92.11972 C 18.208829,93.31414 18.208829,94.31995 18.490883,95.51437 L 19.760027,95.89157 C 19.477974,94.69716 19.477974,93.12554 19.760027,91.93112 z" id="path637" style="font-size:12px;fill:#ffffff;fill-rule:evenodd;stroke:#ef2d28;stroke-width:0.04012293pt"/>
  <path d="M 35.194208,82.50148 L 35.194208,81.55062 C 34.243398,81.55855 33.609585,80.99276 33.609495,80.41905 L 30.44025,80.42698 C 30.44025,80.99276 29.806347,81.55855 28.855537,81.55855 L 28.855537,82.50148 L 35.194208,82.50148 z" id="path674" style="font-size:12px;fill:#ffffff;fill-rule:evenodd;stroke:#ef2d28;stroke-width:0.06899821pt"/>
  <rect height="1.1315519" id="rect675" style="font-size:12px;fill:#ffffff;fill-rule:evenodd;stroke:#ef2d28;stroke-width:0.05831382pt" width="2.7165656" x="30.666592" y="79.29541"/>
  <rect height="1.1315526" id="rect676" style="font-size:12px;fill:#ffffff;fill-rule:evenodd;stroke:#ef2d28;stroke-width:0.05831382pt" width="2.2638032" x="30.892973" y="78.163879"/>
  <rect height="1.1315544" id="rect677" style="font-size:12px;fill:#ffffff;fill-rule:evenodd;stroke:#ef2d28;stroke-width:0.05831382pt" width="2.2638032" x="30.892973" y="77.032318"/>
  <rect height="1.5087403" id="rect679" style="font-size:12px;fill:#ffffff;fill-rule:evenodd;stroke:#ef2d28;stroke-width:0.05831382pt" width="1.8110437" x="31.119352" y="75.52359"/>
  <rect height="1.3201475" id="rect680" style="font-size:12px;fill:#ffffff;fill-rule:evenodd;stroke:#ef2d28;stroke-width:0.06077542pt" width="1.9671698" x="31.041288" y="74.20343"/>
  <ellipse cx="237.40158" cy="161.22044" id="path681" rx="42.519684" ry="33.661423" sodipodi:cx="237.40158" sodipodi:cy="161.22044" sodipodi:rx="42.519684" sodipodi:ry="33.661423" style="font-size:12px;fill:#ffffff;fill-rule:evenodd;stroke:#ef2d28;stroke-width:1pt" transform="matrix(6.1686571e-2,0,0,5.322496e-2,17.489676,64.39663)"/>
  <path d="M 33.445574,72.8833 C 33.445574,73.37781 34.101303,74.20344 34.101303,74.20344 C 33.626562,74.52774 32.858071,74.76922 32.13418,74.76922 C 31.410287,74.76922 30.5088,74.63467 30.166995,74.20344 C 30.166995,74.20344 30.822724,73.37781 30.822724,72.8833 C 30.822724,72.38879 30.166995,71.75174 30.166995,71.75174 C 30.641734,71.42744 31.410227,71.18596 32.13418,71.18596 C 32.858071,71.18596 33.626562,71.42744 34.101303,71.75174 C 34.101303,71.75174 33.445574,72.38879 33.445574,72.8833 z" id="path683" style="font-size:12px;fill:#ffffff;fill-rule:evenodd;stroke:#ef2d28;stroke-width:0.05729979pt"/>
  <path d="M 33.008463,72.8833 C 33.008463,73.37781 33.664192,74.39202 33.664192,74.39202 C 33.189453,74.71632 32.858071,74.76922 32.13418,74.76922 C 31.410287,74.76922 30.945973,74.82324 30.604169,74.39202 C 30.604169,74.39202 31.259895,73.37781 31.259895,72.8833 C 31.259895,72.38879 30.604169,71.56316 30.604169,71.56316 C 31.078908,71.23886 31.410227,71.18596 32.13418,71.18596 C 32.858071,71.18596 33.189453,71.23886 33.664192,71.56316 C 33.664192,71.56316 33.008463,72.38879 33.008463,72.8833 z" id="path685" style="font-size:12px;fill:#ffffff;fill-rule:evenodd;stroke:#ef2d28;stroke-width:0.05729979pt"/>
  <ellipse cx="194.8819" cy="166.53543" id="path686" rx="10.629913" ry="10.629921" sodipodi:cx="194.8819" sodipodi:cy="166.53543" sodipodi:rx="10.629913" sodipodi:ry="10.629921" style="font-size:12px;fill:#ffffff;fill-rule:evenodd;stroke:#ef2d28;stroke-width:1pt" transform="matrix(6.1686571e-2,0,0,5.322496e-2,17.489676,64.20804)"/>
  <ellipse cx="194.8819" cy="166.53543" id="path687" rx="10.629913" ry="10.629921" sodipodi:cx="194.8819" sodipodi:cy="166.53543" sodipodi:rx="10.629913" sodipodi:ry="10.629921" style="font-size:12px;fill:#ffffff;fill-rule:evenodd;stroke:#ef2d28;stroke-width:1pt" transform="matrix(6.1686571e-2,0,0,5.322496e-2,22.73546,64.20804)"/>
  <ellipse cx="194.8819" cy="166.53543" id="path688" rx="10.629913" ry="10.629921" sodipodi:cx="194.8819" sodipodi:cy="166.53543" sodipodi:rx="10.629913" sodipodi:ry="10.629921" style="font-size:12px;fill:#ffffff;fill-rule:evenodd;stroke:#ef2d28;stroke-width:1pt" transform="matrix(6.1686571e-2,0,0,5.322496e-2,20.112563,64.20804)"/>
  <ellipse cx="194.8819" cy="166.53543" id="path689" rx="10.629913" ry="10.629921" sodipodi:cx="194.8819" sodipodi:cy="166.53543" sodipodi:rx="10.629913" sodipodi:ry="10.629921" style="font-size:12px;fill:#ffffff;fill-rule:evenodd;stroke:#ef2d28;stroke-width:1pt" transform="matrix(6.1686571e-2,0,0,5.322496e-2,20.112563,62.32211)"/>
  <ellipse cx="194.8819" cy="166.53543" id="path690" rx="10.629913" ry="10.629921" sodipodi:cx="194.8819" sodipodi:cy="166.53543" sodipodi:rx="10.629913" sodipodi:ry="10.629921" style="font-size:12px;fill:#ffffff;fill-rule:evenodd;stroke:#ef2d28;stroke-width:1pt" transform="matrix(6.3889557e-2,0,0,5.322496e-2,17.762908,73.07188)"/>
  <ellipse cx="194.8819" cy="166.53543" id="path691" rx="10.629913" ry="10.629921" sodipodi:cx="194.8819" sodipodi:cy="166.53543" sodipodi:rx="10.629913" sodipodi:ry="10.629921" style="font-size:12px;fill:#ffffff;fill-rule:evenodd;stroke:#ef2d28;stroke-width:1pt" transform="matrix(6.3889557e-2,0,0,5.322496e-2,21.38499,73.07188)"/>
  <path d="M 30.440179,80.42698 L 33.609549,80.42698 L 32.024896,82.12433 L 30.440179,80.42698 z" id="path693" style="font-size:12px;fill:#ffffff;fill-rule:evenodd;stroke:#ef2d28;stroke-width:0.05831397pt"/>
  <ellipse cx="194.8819" cy="166.53543" id="path692" rx="10.629913" ry="10.629921" sodipodi:cx="194.8819" sodipodi:cy="166.53543" sodipodi:rx="10.629913" sodipodi:ry="10.629921" style="font-size:12px;fill:#ffffff;fill-rule:evenodd;stroke:#ef2d28;stroke-width:1pt" transform="matrix(8.5186155e-2,0,0,7.0966699e-2,15.42364,69.92866)"/>
  <rect height="1.1315552" id="rect818" rx="0.26404914" ry="0.20013002" style="font-size:12px;fill:#ffffff;fill-rule:evenodd;stroke:#ef2d28;stroke-width:0.07045999" width="4.8650393" x="28.538492" y="87.407379"/>
  <path d="M 34.884173,86.46441 C 34.29831,86.46441 33.826588,86.90399 33.826588,87.45008 L 33.826588,88.30759 C 33.826588,88.85368 34.29831,89.29332 34.884173,89.29332 C 35.470097,89.29332 35.94182,88.85368 35.94182,88.30759 L 35.94182,87.45008 C 35.94182,86.90399 35.470097,86.46441 34.884173,86.46441 z M 34.884173,86.84161 C 34.532681,86.84161 34.249598,87.19332 34.249598,87.6302 L 34.249598,88.12758 C 34.249598,88.56445 34.532681,88.91616 34.884173,88.91616 C 35.235727,88.91616 35.51875,88.56445 35.51875,88.12758 L 35.51875,87.6302 C 35.51875,87.19332 35.235727,86.84161 34.884173,86.84161 z" id="path810" style="font-size:12px;fill:#ffffff;fill-rule:evenodd;stroke:#ef2d28;stroke-width:0.07045999"/>
  <path d="M 29.384561,86.65302 C 29.033067,86.65302 28.749986,87.00473 28.749986,87.4416 L 28.749986,88.3162 C 28.749986,88.75307 29.033067,89.10478 29.384561,89.10478 C 29.736115,89.10478 30.019136,88.75307 30.019136,88.3162 L 30.019136,87.4416 C 30.019136,87.00473 29.736115,86.65302 29.384561,86.65302 z M 29.384561,86.27582 C 28.798699,86.27582 28.326976,86.7154 28.326976,87.26149 L 28.326976,88.4962 C 28.326976,89.04229 28.798699,89.48193 29.384561,89.48193 C 29.970483,89.48193 30.442206,89.04229 30.442206,88.4962 L 30.442206,87.26149 C 30.442206,86.7154 29.970483,86.27582 29.384561,86.27582 z" id="path812" style="font-size:12px;fill:#ffffff;fill-rule:evenodd;stroke:#ef2d28;stroke-width:0.07045999"/>
  <path d="M 27.692371,87.03021 C 27.340877,87.03021 27.057794,87.38192 27.057794,87.81879 L 27.057734,88.02445 C 27.057734,88.46132 27.340817,88.81303 27.692311,88.81303 C 28.043863,88.81303 28.326886,88.46132 28.326886,88.02445 L 28.326946,87.81879 C 28.326946,87.38192 28.043923,87.03021 27.692371,87.03021 z M 27.692371,86.653 C 27.106507,86.653 26.634784,87.09259 26.634784,87.63868 L 26.634724,88.20446 C 26.634724,88.75054 27.106447,89.19018 27.692311,89.19018 C 28.278234,89.19018 28.749956,88.75054 28.749956,88.20446 L 28.750016,87.63868 C 28.750016,87.09259 28.278293,86.653 27.692371,86.653 z" id="path811" style="font-size:12px;fill:#ffffff;fill-rule:evenodd;stroke:#ef2d28;stroke-width:0.07045999"/>
  <path d="M 25.154061,86.5088 C 24.521372,86.5088 24.011823,86.90188 24.011823,87.39014 L 24.011823,88.36762 C 24.011823,88.85588 24.521372,89.24896 25.154061,89.24896 C 25.786859,89.24896 26.296299,88.85588 26.296299,88.36762 L 26.296299,87.39014 C 26.296299,86.90188 25.786859,86.5088 25.154061,86.5088 z M 25.154061,86.08722 C 24.099507,86.08722 23.250404,86.57852 23.250404,87.18884 L 23.250404,88.5688 C 23.250404,89.17912 24.099507,89.67047 25.154061,89.67047 C 26.208723,89.67047 27.057826,89.17912 27.057826,88.5688 L 27.057826,87.18884 C 27.057826,86.57852 26.208723,86.08722 25.154061,86.08722 z" id="path813" style="font-size:12px;fill:#ffffff;fill-rule:evenodd;stroke:#ef2d28;stroke-width:0.07045995"/>
  <path d="M 38.903087,86.69739 C 38.270398,86.69739 37.760849,87.09047 37.760849,87.57873 L 37.760849,88.5562 C 37.760849,89.04446 38.270398,89.43754 38.903087,89.43754 C 39.535885,89.43754 40.045325,89.04446 40.045325,88.5562 L 40.045325,87.57873 C 40.045325,87.09047 39.535885,86.69739 38.903087,86.69739 z M 38.903087,86.27581 C 37.848531,86.27581 36.99943,86.7671 36.99943,87.37743 L 36.99943,88.75738 C 36.99943,89.36771 37.848531,89.85906 38.903087,89.85906 C 39.957749,89.85906 40.806852,89.36771 40.806852,88.75738 L 40.806852,87.37743 C 40.806852,86.7671 39.957749,86.27581 38.903087,86.27581 z" id="path814" style="font-size:12px;fill:#ffffff;fill-rule:evenodd;stroke:#ef2d28;stroke-width:0.07045995"/>
  <rect height="1.1315527" id="rect815" rx="0.13776481" ry="0.2001296" style="font-size:12px;fill:#ffffff;fill-rule:evenodd;stroke:#ef2d28;stroke-width:0.07045999" width="2.5382822" x="35.307251" y="87.407349"/>
  <rect height="1.508729" id="rect817" rx="0.080362722" ry="0.26683804" style="font-size:12px;fill:#ffffff;fill-rule:evenodd;stroke:#ef2d28;stroke-width:0.07045999" width="1.4806629" x="32.980488" y="87.218781"/>
  <rect height="1.508737" id="rect819" rx="0.080362819" ry="0.26683947" style="font-size:12px;fill:#ffffff;fill-rule:evenodd;stroke:#ef2d28;stroke-width:0.07045999" width="1.4806647" x="26.000212" y="87.218781"/>
  <rect height="1.8859212" id="rect820" rx="0.1607257" ry="0.33354935" style="font-size:12px;fill:#ffffff;fill-rule:evenodd;stroke:#ef2d28;stroke-width:0.07045999" width="2.9613307" x="21.346693" y="87.030182"/>
  <rect height="1.8859212" id="rect821" rx="0.14924526" ry="0.33354935" style="font-size:12px;fill:#ffffff;fill-rule:evenodd;stroke:#ef2d28;stroke-width:0.07045999" width="2.7498064" x="39.749241" y="87.218781"/>
</svg>
