<?xml version="1.0" encoding="UTF-8" standalone="no"?>
<svg height="256" id="svg562" inkscape:output_extension="org.inkscape.output.svg.inkscape" inkscape:version="0.46" sodipodi:docname="Flag_of_Antarctica.svg" sodipodi:version="0.32" version="1.0" width="256" xmlns="http://www.w3.org/2000/svg" xmlns:cc="http://creativecommons.org/ns#" xmlns:dc="http://purl.org/dc/elements/1.1/" xmlns:inkscape="http://www.inkscape.org/namespaces/inkscape" xmlns:rdf="http://www.w3.org/1999/02/22-rdf-syntax-ns#" xmlns:sodipodi="http://sodipodi.sourceforge.net/DTD/sodipodi-0.dtd" xmlns:svg="http://www.w3.org/2000/svg">
  <metadata>
    <rdf:RDF xmlns:cc="http://web.resource.org/cc/" xmlns:dc="http://purl.org/dc/elements/1.1/" xmlns:rdf="http://www.w3.org/1999/02/22-rdf-syntax-ns#">
      <cc:Work rdf:about="">
        <dc:title></dc:title>
        <dc:description></dc:description>
        <dc:subject>
          <rdf:Bag>
            <rdf:li>unsorted</rdf:li>
          </rdf:Bag>
        </dc:subject>
        <dc:publisher>
          <cc:Agent rdf:about="http://www.openclipart.org/">
            <dc:title>Open Clip Art Library, Source: Wikimedia Commons</dc:title>
          </cc:Agent>
        </dc:publisher>
        <dc:creator>
          <cc:Agent>
            <dc:title></dc:title>
          </cc:Agent>
        </dc:creator>
        <dc:rights>
          <cc:Agent>
            <dc:title></dc:title>
          </cc:Agent>
        </dc:rights>
        <dc:date></dc:date>
        <dc:format>image/svg+xml</dc:format>
        <dc:type rdf:resource="http://purl.org/dc/dcmitype/StillImage"/>
        <cc:license rdf:resource="http://web.resource.org/cc/PublicDomain"/>
        <dc:language>en</dc:language>
      </cc:Work>
      <cc:License rdf:about="http://web.resource.org/cc/PublicDomain">
        <cc:permits rdf:resource="http://web.resource.org/cc/Reproduction"/>
        <cc:permits rdf:resource="http://web.resource.org/cc/Distribution"/>
        <cc:permits rdf:resource="http://web.resource.org/cc/DerivativeWorks"/>
      </cc:License>
    </rdf:RDF>
  </metadata>
  <defs id="defs564">
    <inkscape:perspective id="perspective13" inkscape:persp3d-origin="372.04724 : 165.35433 : 1" inkscape:vp_x="0 : 248.03149 : 1" inkscape:vp_y="0 : 1000 : 0" inkscape:vp_z="744.09448 : 248.03149 : 1" sodipodi:type="inkscape:persp3d"/>
  </defs>
  <sodipodi:namedview id="base" inkscape:current-layer="svg562" inkscape:cx="372.04724" inkscape:cy="248.03149" inkscape:window-height="698" inkscape:window-width="1042" inkscape:window-x="79" inkscape:window-y="54" inkscape:zoom="0.75124868" showgrid="false"/>
  <rect height="170.66701" id="rect561" style="fill:#3a7dce;fill-opacity:1;fill-rule:evenodd;stroke-width:1pt" width="256" x="4.2091486e-07" y="42.333"/>
  <path d="M 63.061239,124.40068 C 61.666835,121.61118 61.666835,121.61118 61.666835,118.82203 C 60.969462,118.82203 60.838726,118.95311 60.435508,118.84336 C 60.03229,118.73464 59.87988,121.41542 58.572175,120.89213 C 58.354396,120.63066 59.509346,118.69163 58.256344,117.88553 C 57.853126,117.62303 58.354396,116.03252 58.179966,115.33515 C 58.179966,115.33515 56.589459,116.16291 55.390815,113.24337 C 54.802159,112.48027 53.996068,113.9404 53.996068,113.9404 C 53.996068,113.9404 54.344583,114.83388 53.712921,115.052 C 52.819443,114.39798 52.165418,114.74099 51.032487,113.84235 C 49.899212,112.94335 51.272285,111.91398 49.114795,111.15124 C 50.509543,107.6647 50.509543,108.36174 53.996068,106.96733 C 51.903946,105.57258 51.903946,105.57258 50.509543,103.48046 C 48.417421,102.78308 47.720047,102.08605 45.627926,100.6913 C 42.838775,97.204424 41.444027,90.231361 41.444027,85.350081 C 43.209308,83.715528 45.627926,90.928732 49.114795,93.020516 C 49.114795,93.020516 53.996068,95.11264 53.996068,95.11264 C 56.785219,96.507393 57.482593,97.901795 59.574714,99.296548 C 59.574714,99.296548 65.850734,101.38867 65.850734,101.38867 C 68.639885,103.48046 70.034633,106.26996 72.126754,106.96733 C 74.392961,106.96733 74.829551,105.66203 75.556168,105.58084 C 79.655777,105.37063 81.747898,104.84252 82.564999,103.6112 C 83.392765,102.63067 85.375825,104.17783 90.954471,102.08605 C 90.954471,102.08605 90.257441,99.296548 90.257441,99.296548 C 90.257441,99.296548 91.739232,98.076226 93.743966,98.599177 C 93.689607,97.324494 93.558527,93.925008 95.53333,92.391265 C 94.333999,91.133092 95.138714,90.231361 95.138714,90.231361 C 95.138714,90.231361 96.250315,89.163449 96.380707,88.596808 C 95.792738,85.524162 96.890921,85.476682 97.137256,84.57254 C 97.383246,83.668738 96.188731,83.978379 96.525548,82.732256 C 96.861678,81.485784 98.881894,81.189913 99.152312,80.163291 C 99.423761,79.136659 98.576385,78.621628 98.625239,78.376668 C 99.06114,77.396146 98.690951,75.086071 98.625239,74.19259 C 102.37358,73.190158 103.5939,70.139352 104.90126,71.403264 C 105.59863,67.219256 106.29601,65.824574 110.47991,65.824574 C 111.06856,64.538921 108.95408,63.449269 109.78253,63.035248 C 111.17728,62.860918 112.24484,62.948098 113.88008,65.061932 C 114.39614,65.731783 114.48972,64.08127 115.01266,63.90691 C 115.53561,63.73258 116.78723,63.72987 116.97336,62.904508 C 117.17015,62.054586 117.4533,60.943254 118.15067,59.548612 C 118.73899,58.415429 119.19656,59.984442 119.71951,62.207167 C 122.66176,62.316087 129.30797,62.969908 132.09712,63.73258 C 134.18924,64.277411 135.58399,63.187759 137.58872,62.969838 C 139.07051,64.451671 140.46526,63.340339 141.24968,66.500105 C 142.35715,68.205078 144.16956,66.652685 144.56211,67.153846 C 146.89403,73.582429 154.91332,69.24584 155.5233,69.35483 C 156.54717,69.35483 157.79811,72.229176 158.6042,72.157746 C 159.91432,71.937115 159.54344,71.043704 160.68772,71.403264 C 160.38221,73.822089 162.9326,76.611494 162.9326,78.420018 C 162.9326,78.420018 163.55325,78.725188 164.12849,78.188477 C 164.70304,77.652116 165.23149,76.273704 165.74342,76.306324 C 166.96374,76.480684 167.45813,76.637364 168.86458,76.883185 C 172.6456,78.175057 174.57155,78.466468 176.04027,79.128409 C 176.72354,80.378662 177.38547,81.018923 178.77024,80.785312 C 179.91453,81.553904 179.07988,82.560576 179.75558,82.625946 C 181.15033,81.928575 181.6079,81.165823 183.00231,81.863205 C 184.39706,82.560576 185.7918,83.955329 186.48918,85.350081 C 186.48918,86.047113 185.7918,88.836608 186.48918,93.020516 C 186.83769,94.415269 187.00662,95.521021 188.50492,97.912805 C 188.10686,100.36996 190.38993,104.50467 190.38993,105.55091 C 190.38993,106.94531 189.27833,107.6647 188.58095,109.05912 C 191.37045,111.15124 188.58095,114.63777 187.18655,116.72989 C 197.64647,118.82203 192.7652,123.00592 201.133,120.9138 C 199.04087,125.79509 199.7816,125.40322 201.87372,130.2845 C 197.68948,133.074 201.78702,133.92344 198.99787,137.40997 C 198.82344,137.6281 200.6534,140.43928 203.22512,140.43928 C 202.52774,146.01793 200.43562,143.9258 201.133,152.29396 C 195.64139,152.18525 197.86391,158.54832 194.1596,157.87262 C 194.37738,161.86043 196.2734,162.20928 195.55435,166.24044 C 192.7652,166.93781 192.7652,166.93781 191.37045,169.02993 C 191.37045,169.02993 189.27833,168.33256 189.27833,168.33256 C 188.58095,171.81909 187.18655,172.51647 189.27833,176.00335 C 189.27833,176.00335 186.57622,176.09039 185.7918,176.00335 C 185.72609,177.20199 186.99045,177.52883 187.18655,178.7925 C 187.07749,179.29377 183.22009,181.49462 180.21316,181.582 C 179.42874,183.30359 182.30493,185.13424 182.13085,186.00571 C 178.86176,186.63737 177.42366,190.64718 177.42366,190.64718 C 177.42366,190.64718 179.10156,191.32289 178.81841,192.04194 C 177.92528,191.38792 177.42366,191.34457 176.02926,191.34457 C 175.33188,191.519 173.63232,191.30191 172.00259,194.05218 C 170.21391,194.64221 169.36963,194.42891 168.01273,196.2231 C 167.41203,194.51389 166.54814,196.23927 165.49159,196.90224 C 164.43606,197.56624 163.01414,199.21661 162.82319,199.14643 C 162.86689,198.66649 163.47722,196.92323 163.47722,196.92323 C 163.47722,196.92323 159.99035,197.6206 159.99035,197.6206 C 159.99035,197.6206 159.83484,197.63574 159.56098,197.6636 C 159.28678,197.69078 159.36006,195.62824 158.69916,195.7029 C 158.0386,195.77824 156.14808,198.29699 155.50369,198.37577 C 154.86033,198.45456 154.65666,197.5745 154.10206,197.65122 C 153.54781,197.72794 152.46683,200.30791 152.07428,200.37638 C 151.68173,200.44484 150.12459,198.80823 148.79005,199.03668 C 141.92537,201.45599 140.83545,194.2648 139.76788,198.31797 C 138.32979,197.55489 138.57887,197.99767 137.11738,198.38059 C 136.18503,198.62107 136.10005,197.14788 135.27091,197.17059 C 133.61194,197.21738 133.69898,198.78656 132.79449,198.31797 C 132.05411,195.04887 127.58603,195.63718 127.15048,194.24278 C 126.79611,192.78817 129.08606,192.79505 129.82678,191.80971 C 130.39308,190.38778 129.23537,189.84797 131.53323,188.47628 C 134.52812,186.45056 132.80653,185.68643 133.33154,184.16404 C 134.27078,181.96595 134.27628,181.42925 133.49186,179.48987 C 133.49186,179.48987 131.15995,173.21384 130.70237,173.21384 C 129.30797,172.82198 129.30797,175.52341 127.25919,176.26482 C 123.0753,177.65922 115.68836,172.73425 114.40233,172.73425 C 113.22605,172.75627 107.77642,174.02475 107.98216,171.3075 C 107.16747,173.9494 104.1712,171.92816 103.98645,171.92816 C 101.19696,171.92816 102.26452,174.08565 100.39018,173.99826 C 99.540047,173.71511 90.954471,173.21384 90.954471,173.21384 C 90.954471,173.21384 90.954471,174.60859 90.954471,174.60859 C 90.954471,174.60859 85.375825,171.81909 85.375825,171.81909 C 85.375825,171.81909 80.494552,170.42469 80.494552,170.42469 C 76.310653,169.02993 78.402775,165.54306 71.429381,167.63519 C 71.429381,167.63519 71.429381,163.45128 71.429381,163.45128 C 71.429381,163.45128 67.942856,163.45128 67.942856,163.45128 C 69.337259,155.08313 67.942856,159.26737 67.245482,151.59659 C 67.245482,151.59659 64.455987,152.29396 64.455987,152.29396 C 61.666835,148.52394 68.33472,149.24299 62.364209,146.71531 C 62.364209,146.71531 62.472927,142.55273 60.969462,143.9258 C 60.664296,144.10023 61.666835,146.01793 61.666835,146.01793 C 56.088189,145.32056 54.693441,143.9258 54.693441,138.34715 C 54.693441,138.34715 59.291567,139.00117 58.87734,138.34715 C 58.22366,137.30126 57.373875,130.50228 57.526286,130.04471 C 57.460918,129.12921 61.797572,126.81964 60.958452,124.61812 C 61.492406,124.42201 63.061239,124.40068 63.061239,124.40068" id="selection_to_path" sodipodi:nodetypes="cccccccccsccccccccccscccccccccccccccsssccccccccccscccccccccccccccccccccccccccccccscccsssssccssccccccccccccccccccccccccccccc" style="fill:#ffffff;fill-opacity:1;stroke:none;stroke-width:0.1;stroke-linecap:round;stroke-linejoin:round;stroke-dasharray:none"/>
  <path d="M 204.88134,144.71023 C 204.67766,145.16849 204.71379,145.62607 204.92434,145.95291 C 205.30244,145.38593 204.98317,145.12446 204.88134,144.71023 z" id="path556" sodipodi:nodetypes="ccc" style="fill:none;fill-rule:evenodd;stroke:#ffffff;stroke-width:0.69733319pt;stroke-linecap:round;stroke-linejoin:round"/>
  <path d="M 41.117187,93.304007 C 41.117187,93.304007 40.04928,93.173276 40.289077,94.110448 C 40.637936,93.391047 41.095512,93.347707 41.117187,93.304007 z" id="path557" sodipodi:nodetypes="ccc" style="fill:none;fill-rule:evenodd;stroke:#ffffff;stroke-width:0.87166649;stroke-linejoin:round"/>
  <path d="M 41.356985,91.124842 C 40.768672,91.146862 40.04928,91.037802 40.289077,91.974624 C 40.637936,91.255573 41.33531,91.168532 41.356985,91.124842 z" id="path558" sodipodi:nodetypes="ccc" style="fill:none;fill-rule:evenodd;stroke:#ffffff;stroke-width:0.87166649;stroke-linejoin:round"/>
  <path d="M 45.375055,103.61154 C 45.375055,103.61154 46.290552,103.54617 46.050754,104.48334 C 45.701895,103.76395 45.397074,103.65523 45.375055,103.61154 z" id="path559" sodipodi:nodetypes="ccc" style="fill:none;fill-rule:evenodd;stroke:#ffffff;stroke-width:0.87166649;stroke-linejoin:round"/>
</svg>
