<?xml version="1.0" encoding="UTF-8" standalone="no"?>
<!-- Generator: Adobe Illustrator 13.0.2, SVG Export Plug-In . SVG Version: 6.00 Build 14948)  --><svg enable-background="new 0 0 1501.953 1001.953" height="256" id="svg2" inkscape:output_extension="org.inkscape.output.svg.inkscape" inkscape:version="0.46" sodipodi:docname="Flag_of_Egypt.svg" sodipodi:version="0.32" space="preserve" version="1.0" viewBox="0 0 1501.95 1001.95" width="256" x="0px" xmlns="http://www.w3.org/2000/svg" xmlns:cc="http://creativecommons.org/ns#" xmlns:dc="http://purl.org/dc/elements/1.1/" xmlns:inkscape="http://www.inkscape.org/namespaces/inkscape" xmlns:rdf="http://www.w3.org/1999/02/22-rdf-syntax-ns#" xmlns:sodipodi="http://sodipodi.sourceforge.net/DTD/sodipodi-0.dtd" xmlns:svg="http://www.w3.org/2000/svg" y="0px">
  <metadata>
    <rdf:RDF xmlns:cc="http://web.resource.org/cc/" xmlns:dc="http://purl.org/dc/elements/1.1/" xmlns:rdf="http://www.w3.org/1999/02/22-rdf-syntax-ns#">
      <cc:Work rdf:about="">
        <dc:title></dc:title>
        <dc:description></dc:description>
        <dc:subject>
          <rdf:Bag>
            <rdf:li>unsorted</rdf:li>
          </rdf:Bag>
        </dc:subject>
        <dc:publisher>
          <cc:Agent rdf:about="http://www.openclipart.org/">
            <dc:title>Open Clip Art Library, Source: Wikimedia Commons</dc:title>
          </cc:Agent>
        </dc:publisher>
        <dc:creator>
          <cc:Agent>
            <dc:title></dc:title>
          </cc:Agent>
        </dc:creator>
        <dc:rights>
          <cc:Agent>
            <dc:title></dc:title>
          </cc:Agent>
        </dc:rights>
        <dc:date></dc:date>
        <dc:format>image/svg+xml</dc:format>
        <dc:type rdf:resource="http://purl.org/dc/dcmitype/StillImage"/>
        <cc:license rdf:resource="http://web.resource.org/cc/PublicDomain"/>
        <dc:language>en</dc:language>
      </cc:Work>
      <cc:License rdf:about="http://web.resource.org/cc/PublicDomain">
        <cc:permits rdf:resource="http://web.resource.org/cc/Reproduction"/>
        <cc:permits rdf:resource="http://web.resource.org/cc/Distribution"/>
        <cc:permits rdf:resource="http://web.resource.org/cc/DerivativeWorks"/>
      </cc:License>
    </rdf:RDF>
  </metadata>
  <defs id="defs147">
    <inkscape:perspective id="perspective151" inkscape:persp3d-origin="450 : 200 : 1" inkscape:vp_x="0 : 300 : 1" inkscape:vp_y="0 : 1000 : 0" inkscape:vp_z="900 : 300 : 1" sodipodi:type="inkscape:persp3d"/>
  </defs>
  <sodipodi:namedview bordercolor="#666666" borderopacity="1.0" gridtolerance="10.0" guidetolerance="10.0" id="base" inkscape:current-layer="svg2" inkscape:cx="450" inkscape:cy="300" inkscape:pageopacity="0.0" inkscape:pageshadow="2" inkscape:window-height="746" inkscape:window-width="793" inkscape:window-x="5" inkscape:window-y="147" inkscape:zoom="0.62111111" objecttolerance="10.0" pagecolor="#ffffff" showgrid="false"/>
  <g id="black">
    <rect clip-rule="evenodd" height="333.332" id="rect5" style="fill-rule:evenodd;stroke:#000000;stroke-width:1.95309997" width="1500" x="0.977" y="667.64502"/>
  </g>
  <g id="white">
    <rect clip-rule="evenodd" height="333.33401" id="rect8" style="fill:#ffffff;fill-rule:evenodd;stroke:#ffffff;stroke-width:1.95309997" width="1500" x="0.977" y="334.311"/>
  </g>
  <g id="red">
    <rect clip-rule="evenodd" height="333.33401" id="rect11" style="fill:#ce1126;fill-rule:evenodd;stroke:#ce1126;stroke-width:1.95309997" width="1500" x="0.977" y="0.977"/>
  </g>
  <g id="eagle">
    <g id="g1838" transform="matrix(1.00015,0,0,1,2.1783e-2,0)">
      <path d="M 741.329,659.042 C 774.091,659.042 805.435,656.45 823.817,651.264 C 831.596,649.853 831.596,645.846 831.596,640.658 C 839.375,638.066 835.366,628.877 840.786,628.877 C 835.366,630.294 834.189,619.686 827.59,621.103 C 827.59,611.908 818.398,610.731 810.621,613.319 C 795.065,618.507 767.491,619.686 741.33,619.686 C 715.171,618.507 687.831,618.507 672.04,613.319 C 664.263,610.731 655.075,611.908 655.075,621.103 C 648.474,619.686 647.296,630.294 641.877,628.877 C 647.296,628.877 643.289,638.066 651.067,640.658 C 651.067,645.846 651.067,649.853 659.08,651.264 C 677.224,656.45 708.572,659.042 741.329,659.042 z" id="_x32_1445608" style="fill:#ffffff;stroke:#fac800;stroke-width:3.90619993;stroke-linecap:round;stroke-linejoin:round"/>
    </g>
    <path d="M 666.979,626.281 C 664.384,626.281 664.384,627.697 666.979,627.697 C 668.155,627.697 668.155,626.281 666.979,626.281 z" id="_x32_1445696" style="fill:#fdd220;stroke:#fac800;stroke-width:2.08719993;stroke-linecap:round;stroke-linejoin:round"/>
    <path d="M 666.979,621.102 C 665.563,621.102 665.563,623.692 666.979,623.692 C 669.575,623.691 669.575,621.102 666.979,621.102 z" id="_x32_1445784" style="fill:#fdd220;stroke:#fac800;stroke-width:2.08719993;stroke-linecap:round;stroke-linejoin:round"/>
    <path d="M 666.979,640.657 C 665.563,640.657 665.563,643.25 666.979,643.25 C 668.155,643.25 668.155,640.657 666.979,640.657 z" id="_x32_1445872" style="fill:#fdd220;stroke:#fac800;stroke-width:2.08719993;stroke-linecap:round;stroke-linejoin:round"/>
    <path d="M 672.162,642.072 C 669.575,642.072 669.575,644.665 672.162,644.665 C 673.58,644.665 673.58,642.072 672.162,642.072 z" id="_x32_1445960" style="fill:#fdd220;stroke:#fac800;stroke-width:2.08719993;stroke-linecap:round;stroke-linejoin:round"/>
    <path d="M 677.348,643.25 C 676.171,643.25 676.171,645.846 677.348,645.846 C 679.941,645.846 679.941,643.25 677.348,643.25 z" id="_x32_1446048" style="fill:#fdd220;stroke:#fac800;stroke-width:2.08719993;stroke-linecap:round;stroke-linejoin:round"/>
    <path d="M 758.438,630.293 C 757.255,630.293 757.255,632.881 758.438,632.881 C 759.85,632.881 759.85,630.293 758.438,630.293 z" id="_x32_1446136" style="fill:#fdd220;stroke:#fac800;stroke-width:2.08719993;stroke-linecap:round;stroke-linejoin:round"/>
    <path d="M 759.85,635.477 C 757.256,635.477 757.256,636.657 759.85,636.657 C 761.028,636.656 761.028,635.477 759.85,635.477 z" id="_x32_1446224" style="fill:#fdd220;stroke:#fac800;stroke-width:2.08719993;stroke-linecap:round;stroke-linejoin:round"/>
    <path d="M 763.624,648.439 C 762.443,648.439 762.443,651.263 763.624,651.263 C 765.037,651.264 765.037,648.439 763.624,648.439 z" id="_x32_1446312" style="fill:#fdd220;stroke:#fac800;stroke-width:2.08719993;stroke-linecap:round;stroke-linejoin:round"/>
    <path d="M 769.043,648.439 C 766.213,648.439 766.213,651.263 769.043,651.263 C 770.222,651.264 770.222,648.439 769.043,648.439 z" id="_x32_1446400" style="fill:#fdd220;stroke:#fac800;stroke-width:2.08719993;stroke-linecap:round;stroke-linejoin:round"/>
    <path d="M 822.548,638.065 C 819.958,638.065 819.958,639.482 822.548,639.482 C 823.963,639.482 823.963,638.065 822.548,638.065 z" id="_x32_1446488" style="fill:#fdd220;stroke:#fac800;stroke-width:2.08719993;stroke-linecap:round;stroke-linejoin:round"/>
    <g id="g1853" transform="matrix(1.00015,0,0,1,2.1783e-2,0)">
      <path d="M 672.039,621.102 C 670.628,626.282 669.452,631.47 668.032,634.062 C 668.032,636.657 669.452,638.066 670.627,638.066 C 674.635,639.483 674.635,639.483 676.047,634.062 C 677.224,631.47 676.047,631.47 676.047,634.062 C 674.635,638.066 673.456,639.483 678.638,640.658 C 682.41,642.073 683.823,640.658 685.001,635.477 C 685.001,632.881 682.41,634.062 683.823,635.477" id="_x32_1446576" style="fill:none;stroke:#fac800;stroke-width:2.08719993;stroke-linecap:round;stroke-linejoin:round"/>
    </g>
    <g id="g1856" transform="matrix(1.00015,0,0,1,2.1783e-2,0)">
      <path d="M 669.452,631.47 C 662.852,632.881 665.441,636.657 670.628,638.066" id="_x32_1311504" style="fill:none;stroke:#fac800;stroke-width:2.08719993;stroke-linecap:round;stroke-linejoin:round"/>
    </g>
    <g id="g1859" transform="matrix(1.00015,0,0,1,2.1783e-2,0)">
      <path d="M 686.418,645.846 C 689.01,644.665 690.422,642.073 690.422,639.483 C 689.01,635.477 687.831,636.657 689.01,639.483 C 689.01,642.073 690.422,643.251 694.195,643.251 C 696.788,643.251 699.38,642.073 702.208,640.658 C 704.799,639.483 704.799,635.477 702.208,634.062 C 698.202,632.881 695.609,638.066 699.381,640.658 C 700.792,642.073 702.208,643.251 704.799,644.666 C 704.799,645.847 704.799,648.44 707.392,648.44 C 708.573,649.853 711.166,645.846 711.166,642.073 C 711.166,636.657 711.166,632.882 711.166,630.294" id="_x32_1311592" style="fill:none;stroke:#fac800;stroke-width:2.08719993;stroke-linecap:round;stroke-linejoin:round"/>
    </g>
    <g id="g1862" transform="matrix(1.00015,0,0,1,2.1783e-2,0)">
      <path d="M 716.586,630.293 C 716.586,634.062 715.17,640.657 715.17,644.665" id="_x32_1311680" style="fill:none;stroke:#fac800;stroke-width:2.08719993;stroke-linecap:round;stroke-linejoin:round"/>
    </g>
    <g id="g1865" transform="matrix(1.00015,0,0,1,2.1783e-2,0)">
      <path d="M 719.177,652.443 C 724.362,648.439 724.362,645.845 724.362,643.25 C 722.948,639.482 720.355,640.657 721.769,643.25 C 722.948,644.665 724.362,645.846 726.953,645.846 C 728.37,645.846 729.546,644.665 729.546,639.483 C 729.546,638.066 728.37,638.066 728.37,639.483 C 728.37,640.658 732.137,640.658 733.55,640.658 C 736.143,642.073 742.743,642.073 743.924,640.658 C 745.334,640.658 745.334,644.666 745.334,644.666 C 745.334,645.847 743.924,647.26 743.924,648.44 C 742.743,651.264 741.328,649.853 739.915,648.44 C 739.915,645.846 737.321,645.846 736.143,645.846 C 733.55,645.846 730.962,645.846 726.952,645.846" id="_x32_1311768" style="fill:none;stroke:#fac800;stroke-width:2.08719993;stroke-linecap:round;stroke-linejoin:round"/>
    </g>
    <g id="g1868" transform="matrix(1.00015,0,0,1,2.1783e-2,0)">
      <path d="M 745.336,645.846 C 746.516,645.846 749.108,644.665 750.521,645.846 C 751.7,645.846 754.529,644.665 754.529,643.25 C 754.529,639.482 747.928,639.482 750.521,645.846" id="_x32_1311856" style="fill:none;stroke:#fac800;stroke-width:2.08719993;stroke-linecap:round;stroke-linejoin:round"/>
    </g>
    <g id="g1871" transform="matrix(1.00015,0,0,1,2.1783e-2,0)">
      <path d="M 763.487,630.293 C 764.9,635.477 764.9,642.072 763.487,644.665 C 762.306,645.846 759.713,645.846 759.713,644.665 C 760.892,643.25 763.487,642.072 764.9,643.25 C 764.9,644.665 766.076,645.846 768.905,644.665 C 771.496,644.665 772.675,644.665 772.675,638.065 C 772.675,636.656 768.905,636.656 772.675,639.482" id="_x32_1311944" style="fill:none;stroke:#fac800;stroke-width:2.08719993;stroke-linecap:round;stroke-linejoin:round"/>
    </g>
    <g id="g1874" transform="matrix(1.00015,0,0,1,2.1783e-2,0)">
      <path d="M 776.684,649.853 C 779.275,647.259 781.869,642.073 780.452,639.483 C 777.861,636.657 776.684,636.657 776.684,639.483 C 776.684,640.658 777.861,642.073 780.452,643.251" id="_x32_1312032" style="fill:none;stroke:#fac800;stroke-width:2.08719993;stroke-linecap:round;stroke-linejoin:round"/>
    </g>
    <g id="g1877" transform="matrix(1.00015,0,0,1,2.1783e-2,0)">
      <path d="M 785.874,647.259 C 789.642,645.846 789.642,643.25 789.642,640.657 C 789.642,638.065 788.465,636.656 787.049,638.065 C 784.46,639.482 784.46,642.072 787.049,642.072 C 792.238,642.072 801.431,640.657 808.026,636.656" id="_x32_1312120" style="fill:none;stroke:#fac800;stroke-width:2.08719993;stroke-linecap:round;stroke-linejoin:round"/>
    </g>
    <g id="g1880" transform="matrix(1.00015,0,0,1,2.1783e-2,0)">
      <path d="M 795.064,640.657 C 795.064,638.065 796.243,635.476 798.836,635.476 C 800.25,634.061 804.02,635.476 804.02,638.065 C 805.435,640.657 802.843,643.25 800.25,642.072 C 798.836,639.482 797.658,632.881 796.243,627.697" id="_x32_1312208" style="fill:none;stroke:#fac800;stroke-width:2.08719993;stroke-linecap:round;stroke-linejoin:round"/>
    </g>
    <g id="g1883" transform="matrix(1.00015,0,0,1,2.1783e-2,0)">
      <path d="M 815.805,634.062 C 813.214,631.47 806.611,634.062 808.026,636.657 C 809.44,640.657 817.216,638.065 815.805,634.062 z" id="_x32_1312296" style="fill:none;stroke:#fac800;stroke-width:2.08719993;stroke-linecap:round;stroke-linejoin:round"/>
    </g>
    <g id="g1886" transform="matrix(1.00015,0,0,1,2.1783e-2,0)">
      <path d="M 815.805,635.477 C 815.805,635.477 818.397,634.062 819.812,632.881" id="_x32_1312384" style="fill:none;stroke:#fac800;stroke-width:2.08719993;stroke-linecap:round;stroke-linejoin:round"/>
    </g>
    <g id="g1889" transform="matrix(1.00015,0,0,1,2.1783e-2,0)">
      <path d="M 809.44,621.102 C 812.033,618.506 817.216,618.506 817.216,623.692 C 817.216,632.881 820.991,636.657 826.41,632.881 C 826.41,631.47 826.41,630.293 824.997,632.881" id="_x32_1312472" style="fill:none;stroke:#fac800;stroke-width:2.08719993;stroke-linecap:round;stroke-linejoin:round"/>
    </g>
    <g id="g1892" transform="matrix(1.00015,0,0,1,2.1783e-2,0)">
      <path d="M 695.609,636.656 L 698.202,636.656" id="_x32_1312560" style="fill:none;stroke:#fac800;stroke-width:2.08719993;stroke-linecap:round;stroke-linejoin:round"/>
    </g>
    <g id="g1895" transform="matrix(1.00015,0,0,1,2.1783e-2,0)">
      <path d="M 704.798,638.065 L 705.978,638.065" id="_x32_1312648" style="fill:none;stroke:#fac800;stroke-width:2.08719993;stroke-linecap:round;stroke-linejoin:round"/>
    </g>
    <path d="M 742.785,508.857 L 855.31,613.317 L 847.299,423.601 C 846.122,394.849 821.136,401.446 802.986,411.817 C 784.599,423.601 763.624,423.601 741.463,415.821 C 719.307,423.601 698.329,423.601 679.942,411.817 C 661.794,401.446 636.81,394.848 635.63,423.601 L 627.614,613.317 L 742.785,508.857 z" id="_x32_1312736" style="fill:#ffffff;stroke:#fac800;stroke-width:2.08719993;stroke-linecap:round;stroke-linejoin:round"/>
    <g id="g1902" transform="matrix(1.00015,0,0,1,2.1783e-2,0)">
      <path d="M 759.713,422.422 C 766.075,426.195 772.675,426.195 776.684,426.195 C 763.487,417.001 759.713,392.257 760.892,381.884 C 763.487,360.908 758.303,349.128 745.336,346.533 C 742.744,346.533 741.329,345.12 736.145,345.12 C 732.139,343.943 729.15,347.712 727.733,350.303 C 723.727,347.712 720.356,349.128 716.586,346.533 C 712.576,345.12 705.979,346.533 705.979,355.723 L 708.542,354.648 C 709.717,354.829 711.888,356.103 714.521,357.553 C 717.93,360.24 722.949,362.087 724.363,371.279 C 726.954,390.841 724.363,409.224 705.98,426.195 C 709.986,426.195 716.587,426.195 722.949,422.422 C 720.357,426.195 719.178,427.607 716.587,430.198 C 724.363,428.784 730.964,426.195 734.733,419.829 C 736.146,422.421 739.918,426.194 741.331,428.784 C 742.746,426.194 746.517,422.421 747.93,419.829 C 751.701,426.194 758.304,428.784 766.077,430.198 C 763.486,427.607 762.306,426.195 759.713,422.422 z" id="_x32_1312912" style="fill:#ffffff;stroke:#fac800;stroke-width:1.95309997;stroke-linecap:square"/>
    </g>
    <g id="g1907" transform="matrix(1.00015,0,0,1,2.1783e-2,0)">
      <path d="M 753.112,397.441 C 753.112,408.047 756.528,415.821 760.533,423.601" id="_x32_1313000" style="fill:none;stroke:#fac800;stroke-width:2.08719993;stroke-linecap:round;stroke-linejoin:round"/>
    </g>
    <g id="g1910" transform="matrix(1.00015,0,0,1,2.1783e-2,0)">
      <path d="M 747.928,419.83 C 745.336,415.821 743.925,408.047 743.925,397.441" id="_x32_1313088" style="fill:none;stroke:#fac800;stroke-width:2.08719993;stroke-linecap:round;stroke-linejoin:round"/>
    </g>
    <g id="g1913" transform="matrix(1.00015,0,0,1,2.1783e-2,0)">
      <path d="M 729.546,397.441 C 729.546,408.047 726.134,415.821 722.129,423.601" id="_x32_1313176" style="fill:none;stroke:#fac800;stroke-width:2.08719993;stroke-linecap:round;stroke-linejoin:round"/>
    </g>
    <g id="g1916" transform="matrix(1.00015,0,0,1,2.1783e-2,0)">
      <path d="M 734.731,419.83 C 737.322,415.821 738.734,408.047 738.734,397.441" id="_x32_1313264" style="fill:none;stroke:#fac800;stroke-width:2.08719993;stroke-linecap:round;stroke-linejoin:round"/>
    </g>
    <path d="M 706.959,354.492 C 709.725,354.673 710.938,355.631 714.648,357.554 C 717.244,358.971 723.077,362.088 724.492,370.102 C 723.077,366.095 725.668,362.087 728.501,363.504 C 724.493,354.311 712.144,351.9 706.959,354.492 z" id="_x32_1313352" style="fill:#fac800;stroke:#fac800;stroke-width:0.97659999;stroke-linecap:round;stroke-linejoin:round"/>
    <g id="g1920" transform="matrix(1.00015,0,0,1,2.1783e-2,0)">
      <path d="M 746.515,529.651 L 762.306,601.54 L 757.119,606.724 L 751.699,602.717 L 742.743,538.611 L 746.514,602.717 L 741.328,609.315 L 736.143,602.717 L 739.915,538.611 L 730.961,602.717 L 725.536,606.724 L 720.354,601.54 L 736.143,529.651 L 746.515,529.651 z" id="_x32_1313440" style="fill:#fac800;stroke:#fac800;stroke-width:1.76429999;stroke-linecap:square"/>
    </g>
    <g id="g1925" transform="matrix(1.00015,0,0,1,2.1783e-2,0)">
      <path d="M 648.472,417.001 L 640.695,601.54 L 627.496,613.317 L 635.51,423.601 C 639.28,421.008 645.881,417.001 648.472,417.001 z" id="_x32_1313528" style="fill:#fac800"/>
    </g>
    <g id="g1930" transform="matrix(1.00015,0,0,1,2.1783e-2,0)">
      <path d="M 664.261,430.199 L 657.662,584.567 L 644.467,598.073 L 652.479,419.831 C 655.073,422.422 662.851,428.785 664.261,430.199 z" id="_x32_1313616" style="fill:#fac800"/>
    </g>
    <g id="g1935" transform="matrix(1.00015,0,0,1,2.1783e-2,0)">
      <path d="M 678.638,441.983 L 673.456,570.732 L 662.851,581.098 L 669.451,434.206 C 672.038,436.799 677.223,440.57 678.638,441.983 z" id="_x32_1313704" style="fill:#fac800"/>
    </g>
    <g id="g1940" transform="matrix(1.00015,0,0,1,2.1783e-2,0)">
      <path d="M 694.194,448.582 L 689.009,558.312 L 678.638,566.723 L 683.823,444.577 C 686.417,445.754 691.601,448.582 694.194,448.582 z" id="_x32_1313792" style="fill:#fac800"/>
    </g>
    <g id="g1945" transform="matrix(1.00015,0,0,1,2.1783e-2,0)">
      <path d="M 708.572,448.582 L 704.798,540.026 L 694.195,550.398 L 698.202,449.762 C 700.791,449.761 707.391,449.761 708.572,448.582 z" id="_x32_1313880" style="fill:#fac800"/>
    </g>
    <g id="g1950" transform="matrix(1.00015,0,0,1,2.1783e-2,0)">
      <path d="M 834.188,417.001 L 841.961,601.54 L 855.158,613.317 L 847.148,423.601 C 843.378,421.008 836.779,417.001 834.188,417.001 z" id="_x32_1313968" style="fill:#fac800"/>
    </g>
    <g id="g1955" transform="matrix(1.00015,0,0,1,2.1783e-2,0)">
      <path d="M 818.397,430.199 L 824.997,584.567 L 838.194,596.12 L 830.183,419.831 C 827.589,422.422 819.812,428.785 818.397,430.199 z" id="_x32_1314056" style="fill:#fac800"/>
    </g>
    <path d="M 804.162,441.983 L 809.583,570.732 L 819.957,579.145 L 813.357,434.207 C 810.764,436.799 805.577,440.57 804.162,441.983 z" id="_x32_1314144" style="fill:#fac800"/>
    <g id="g1961" transform="matrix(1.00015,0,0,1,2.1783e-2,0)">
      <path d="M 788.465,448.582 L 793.651,556.359 L 804.02,564.77 L 798.836,444.578 C 796.242,445.754 791.058,448.582 788.465,448.582 z" id="_x32_1314232" style="fill:#fac800"/>
    </g>
    <g id="g1966" transform="matrix(1.00015,0,0,1,2.1783e-2,0)">
      <path d="M 774.09,448.582 L 777.86,540.026 L 788.465,550.398 L 784.459,449.762 C 781.868,449.761 775.266,449.761 774.09,448.582 z" id="_x32_1314320" style="fill:#fac800"/>
    </g>
    <g id="g1971" transform="matrix(1.00015,0,0,1,2.1783e-2,0)">
      <path d="M 705.978,498.076 L 674.635,609.315 L 717.765,615.916 L 736.144,532.249 L 705.978,498.076 z" id="_x32_1314408" style="fill:#ffffff;stroke:#fac800;stroke-width:1.95309997;stroke-linecap:round;stroke-linejoin:round"/>
    </g>
    <g id="g1976" transform="matrix(1.00015,0,0,1,2.1783e-2,0)">
      <path d="M 776.683,498.076 L 808.025,609.315 L 764.899,615.916 L 746.515,532.249 L 776.683,498.076 z" id="_x32_1314496" style="fill:#ffffff;stroke:#fac800;stroke-width:1.95309997;stroke-linecap:round;stroke-linejoin:round"/>
    </g>
    <g id="g1981" transform="matrix(1.00015,0,0,1,2.1783e-2,0)">
      <path d="M 695.608,536.021 L 699.379,545.21 L 711.164,532.248" id="_x32_1314584" style="fill:none;stroke:#fac800;stroke-width:2.08719993;stroke-linecap:round;stroke-linejoin:round"/>
    </g>
    <g id="g1984" transform="matrix(1.00015,0,0,1,2.1783e-2,0)">
      <path d="M 709.983,516.459 L 713.99,552.988 L 726.952,536.02" id="_x32_1314672" style="fill:none;stroke:#fac800;stroke-width:2.08719993;stroke-linecap:round;stroke-linejoin:round"/>
    </g>
    <g id="g1987" transform="matrix(1.00015,0,0,1,2.1783e-2,0)">
      <path d="M 721.768,542.618 L 729.545,562.18" id="_x32_1314760" style="fill:none;stroke:#fac800;stroke-width:2.08719993;stroke-linecap:round;stroke-linejoin:round"/>
    </g>
    <g id="g1990" transform="matrix(1.00015,0,0,1,2.1783e-2,0)">
      <path d="M 728.37,567.363 L 717.765,577.968 L 711.165,556.994 L 704.798,568.778 L 699.38,555.813 L 687.83,566.185" id="_x32_1314848" style="fill:none;stroke:#fac800;stroke-width:2.08719993;stroke-linecap:round;stroke-linejoin:round"/>
    </g>
    <g id="g1993" transform="matrix(1.00015,0,0,1,2.1783e-2,0)">
      <path d="M 685.001,571.367 L 693.013,590.93 L 702.206,579.145 L 707.39,594.938 L 717.763,581.743 L 721.767,601.54" id="_x32_1314936" style="fill:none;stroke:#fac800;stroke-width:2.08719993;stroke-linecap:round;stroke-linejoin:round"/>
    </g>
    <g id="g1996" transform="matrix(1.00015,0,0,1,2.1783e-2,0)">
      <path d="M 683.823,606.724 L 691.6,596.12 L 698.201,613.318 L 705.978,600.121 L 711.165,615.916 L 719.176,609.315" id="_x32_1315024" style="fill:none;stroke:#fac800;stroke-width:2.08719993;stroke-linecap:round;stroke-linejoin:round"/>
    </g>
    <g id="g1999" transform="matrix(1.00015,0,0,1,2.1783e-2,0)">
      <path d="M 787.048,536.021 L 783.28,545.21 L 771.496,532.248" id="_x32_1315112" style="fill:none;stroke:#fac800;stroke-width:2.08719993;stroke-linecap:round;stroke-linejoin:round"/>
    </g>
    <g id="g2002" transform="matrix(1.00015,0,0,1,2.1783e-2,0)">
      <path d="M 772.674,516.459 L 768.904,552.988 L 755.707,536.02" id="_x32_1315200" style="fill:none;stroke:#fac800;stroke-width:2.08719993;stroke-linecap:round;stroke-linejoin:round"/>
    </g>
    <g id="g2005" transform="matrix(1.00015,0,0,1,2.1783e-2,0)">
      <path d="M 760.89,542.618 L 753.111,562.18" id="_x32_1315288" style="fill:none;stroke:#fac800;stroke-width:2.08719993;stroke-linecap:round;stroke-linejoin:round"/>
    </g>
    <g id="g2008" transform="matrix(1.00015,0,0,1,2.1783e-2,0)">
      <path d="M 754.528,567.363 L 764.898,577.968 L 770.082,556.994 L 777.859,568.778 L 783.279,555.813 L 795.062,566.185" id="_x32_1315376" style="fill:none;stroke:#fac800;stroke-width:2.08719993;stroke-linecap:round;stroke-linejoin:round"/>
    </g>
    <g id="g2011" transform="matrix(1.00015,0,0,1,2.1783e-2,0)">
      <path d="M 797.656,571.367 L 789.641,590.93 L 780.451,579.145 L 775.266,594.938 L 764.898,581.743 L 760.89,601.54" id="_x32_1315464" style="fill:none;stroke:#fac800;stroke-width:2.08719993;stroke-linecap:round;stroke-linejoin:round"/>
    </g>
    <g id="g2014" transform="matrix(1.00015,0,0,1,2.1783e-2,0)">
      <path d="M 798.835,606.724 L 791.058,596.12 L 784.458,613.318 L 776.683,600.121 L 771.495,615.916 L 763.485,609.315" id="_x32_1315552" style="fill:none;stroke:#fac800;stroke-width:2.08719993;stroke-linecap:round;stroke-linejoin:round"/>
    </g>
    <g id="g2017" transform="matrix(1.00015,0,0,1,2.1783e-2,0)">
      <path d="M 741.328,434.207 C 754.528,444.577 771.495,449.761 791.058,448.582 C 789.641,494.306 776.683,525.649 741.328,549.221 C 705.977,525.649 693.013,494.306 691.6,448.582 C 711.164,449.761 728.369,444.577 741.328,434.207 z" id="_x32_1315640" style="fill:#ffffff;stroke:#fac800;stroke-width:1.4648;stroke-linecap:round;stroke-linejoin:round"/>
    </g>
    <g id="g2022" transform="matrix(1.00015,0,0,1,2.1783e-2,0)">
      <path d="M 741.328,544.031 C 768.904,525.648 784.458,494.305 785.873,452.352 C 768.904,452.352 751.699,448.581 741.328,439.391 C 729.545,448.581 713.99,452.352 695.608,452.352 C 698.2,494.306 713.99,525.648 741.328,544.031 z" id="_x32_1315728" style="fill:#fac800;stroke:#fac800;stroke-width:1.95309997;stroke-linecap:round;stroke-linejoin:round"/>
    </g>
    <g id="g2027" transform="matrix(1.00015,0,0,1,2.1783e-2,0)">
      <path d="M 696.787,609.314 C 707.39,610.729 719.175,611.906 728.369,610.729 C 733.549,610.729 737.321,619.684 726.952,621.101 C 717.764,622.276 703.386,621.101 695.608,619.684 C 689.009,618.505 674.634,615.914 665.44,613.317 C 656.249,609.314 662.851,601.54 668.031,602.716 C 676.046,605.307 686.417,607.902 696.787,609.314 z" id="_x32_1315816" style="fill:#ffffff;stroke:#fac800;stroke-width:2.08719993;stroke-linecap:round;stroke-linejoin:round"/>
    </g>
    <g id="g2032" transform="matrix(1.00015,0,0,1,2.1783e-2,0)">
      <path d="M 785.873,609.314 C 775.266,610.729 763.486,611.906 754.528,610.729 C 749.106,610.729 745.335,619.684 755.706,621.101 C 764.898,622.276 779.274,621.101 787.047,619.684 C 793.649,618.505 808.024,615.914 817.214,613.317 C 826.408,609.314 819.81,601.54 814.623,602.716 C 806.61,605.307 796.241,607.902 785.873,609.314 z" id="_x32_1315904" style="fill:#ffffff;stroke:#fac800;stroke-width:2.08719993;stroke-linecap:round;stroke-linejoin:round"/>
    </g>
    <path d="M 664.382,604.132 C 656.369,602.717 652.598,611.906 655.193,617.09 C 656.37,614.498 661.792,614.498 662.972,611.906 C 664.382,607.902 661.792,607.902 664.382,604.132 z" id="_x32_1315992" style="fill:#ffffff;stroke:#fac800;stroke-width:2.08719993;stroke-linecap:round;stroke-linejoin:round"/>
    <g id="g2041" transform="matrix(1.00015,0,0,1,2.1783e-2,0)">
      <path d="M 695.607,628.234 C 695.607,623.054 700.789,623.691 700.789,618.505 C 700.789,615.914 699.378,611.905 696.786,611.905 C 694.193,611.905 691.599,614.497 691.599,617.089 C 690.42,622.276 695.607,623.055 695.607,628.234 z" id="_x32_1316168" style="fill:#ffffff;stroke:#fac800;stroke-width:2.08719993;stroke-linecap:round;stroke-linejoin:round"/>
    </g>
    <g id="g2046" transform="matrix(1.00015,0,0,1,2.1783e-2,0)">
      <path d="M 732.914,613.317 C 740.685,613.317 739.915,623.691 736.143,628.876 C 736.143,625.105 729.545,623.691 729.545,621.102 C 729.545,617.09 735.502,617.09 732.914,613.317 z" id="_x32_1316256" style="fill:#ffffff;stroke:#fac800;stroke-width:2.08719993;stroke-linecap:round;stroke-linejoin:round"/>
    </g>
    <path d="M 818.541,604.132 C 826.555,602.717 830.328,611.906 827.734,617.09 C 826.554,614.498 821.134,614.498 819.956,611.906 C 818.541,607.902 821.135,607.902 818.541,604.132 z" id="_x32_1316344" style="fill:#ffffff;stroke:#fac800;stroke-width:2.08719993;stroke-linecap:round;stroke-linejoin:round"/>
    <g id="g2055" transform="matrix(1.00015,0,0,1,2.1783e-2,0)">
      <path d="M 787.047,628.234 C 787.047,623.054 781.867,623.691 781.867,618.505 C 781.867,615.914 783.279,611.905 785.872,611.905 C 788.463,611.905 791.057,614.497 791.057,617.089 C 792.236,622.276 787.047,623.055 787.047,628.234 z" id="_x32_1316520" style="fill:#ffffff;stroke:#fac800;stroke-width:2.08719993;stroke-linecap:round;stroke-linejoin:round"/>
    </g>
    <g id="g2060" transform="matrix(1.00015,0,0,1,2.1783e-2,0)">
      <path d="M 749.745,613.317 C 741.971,613.317 742.742,623.691 746.513,628.876 C 746.513,625.105 753.11,623.691 753.11,621.102 C 753.111,617.09 747.153,617.09 749.745,613.317 z" id="_x32_1316608" style="fill:#ffffff;stroke:#fac800;stroke-width:2.08719993;stroke-linecap:round;stroke-linejoin:round"/>
    </g>
    <path d="M 666.977,606.724 C 669.573,606.724 673.578,607.903 674.757,609.315 L 666.977,606.724 z" id="_x32_1316696" style="fill:#ffffff;stroke:#fac800;stroke-width:1.4648;stroke-linecap:round;stroke-linejoin:round"/>
    <path d="M 679.94,610.729 C 681.356,610.729 686.542,611.906 689.134,613.317 L 679.94,610.729 z" id="_x32_1316872" style="fill:#ffffff;stroke:#fac800;stroke-width:1.4648;stroke-linecap:round;stroke-linejoin:round"/>
    <path d="M 727.083,615.915 C 724.491,615.915 719.305,615.915 717.894,617.09 L 727.083,615.915 z" id="_x32_1317048" style="fill:#ffffff;stroke:#fac800;stroke-width:1.4648;stroke-linecap:round;stroke-linejoin:round"/>
    <path d="M 712.704,615.915 C 711.293,614.498 706.105,614.498 703.514,615.915 L 712.704,615.915 z" id="_x32_1317224" style="fill:#ffffff;stroke:#fac800;stroke-width:1.4648;stroke-linecap:round;stroke-linejoin:round"/>
    <path d="M 815.949,606.724 C 813.357,606.724 809.583,607.903 808.169,609.315 L 815.949,606.724 z" id="_x32_1317312" style="fill:#ffffff;stroke:#fac800;stroke-width:1.4648;stroke-linecap:round;stroke-linejoin:round"/>
    <path d="M 802.985,610.729 C 801.572,610.729 796.385,611.906 793.792,613.317 L 802.985,610.729 z" id="_x32_1317488" style="fill:#ffffff;stroke:#fac800;stroke-width:1.4648;stroke-linecap:round;stroke-linejoin:round"/>
    <path d="M 755.842,615.915 C 758.437,615.915 763.622,615.915 765.035,617.09 L 755.842,615.915 z" id="_x32_1317664" style="fill:#ffffff;stroke:#fac800;stroke-width:1.4648;stroke-linecap:round;stroke-linejoin:round"/>
    <path d="M 770.22,615.915 C 771.633,614.498 776.822,614.498 779.413,615.915 L 770.22,615.915 z" id="_x32_1317840" style="fill:#ffffff;stroke:#fac800;stroke-width:1.4648;stroke-linecap:round;stroke-linejoin:round"/>
    <path d="M 759.848,358.32 C 757.254,351.718 752.584,346.509 746.22,345.331 C 742.937,344.337 739.552,344.623 735.779,344.623 C 731.772,343.446 728.501,347.712 727.083,350.303 C 731.093,353.134 731.989,356.012 734.048,356.903 C 738.05,358.32 740.05,356.901 744.058,353.134 C 748.061,349.129 757.254,350.304 759.848,358.32 z" id="_x32_1318016" style="fill:#fac800;stroke:#fac800;stroke-width:0.97659999;stroke-linecap:round;stroke-linejoin:round"/>
    <path d="M 734.863,348.189 C 732.269,348.189 732.269,352.195 734.863,352.195 C 737.454,352.196 737.454,348.189 734.863,348.189 z" id="_x32_1318104" style="fill:#ffffff;stroke:#ffffff;stroke-width:2.08719993;stroke-linecap:round;stroke-linejoin:round"/>
    <path d="M 757.493,448.11 L 757.493,530.365 C 752.778,535.549 747.356,540.025 741.462,544.031 C 735.569,540.025 730.149,535.549 725.434,530.365 L 725.434,447.875 C 731.327,445.754 736.746,442.926 741.462,439.391 C 745.94,443.161 751.362,445.99 757.493,448.11 z" id="_x32_1318280" style="fill:#ffffff"/>
  </g>
</svg>
