<?xml version="1.0" encoding="UTF-8" standalone="no"?>
<!-- Created with Inkscape (http://www.inkscape.org/) -->
<svg
   xmlns:dc="http://purl.org/dc/elements/1.1/"
   xmlns:cc="http://creativecommons.org/ns#"
   xmlns:rdf="http://www.w3.org/1999/02/22-rdf-syntax-ns#"
   xmlns:svg="http://www.w3.org/2000/svg"
   xmlns="http://www.w3.org/2000/svg"
   xmlns:sodipodi="http://sodipodi.sourceforge.net/DTD/sodipodi-0.dtd"
   xmlns:inkscape="http://www.inkscape.org/namespaces/inkscape"
   height="256"
   id="svg2"
   inkscape:output_extension="org.inkscape.output.svg.inkscape"
   inkscape:version="0.46"
   sodipodi:docname="flag-bn.svg"
   sodipodi:version="0.32"
   space="preserve"
   style="fill-rule:evenodd"
   version="1.0"
   width="256">
  <metadata
     id="metadata3">
    <rdf:RDF>
      <cc:Work
         rdf:about="">
        <dc:title />
        <dc:description />
        <dc:subject>
          <rdf:Bag>
            <rdf:li>unsorted</rdf:li>
          </rdf:Bag>
        </dc:subject>
        <dc:publisher>
          <cc:Agent
             rdf:about="http://www.openclipart.org/">
            <dc:title>Open Clip Art Library, Source: Wikimedia Commons</dc:title>
          </cc:Agent>
        </dc:publisher>
        <dc:creator>
          <cc:Agent>
            <dc:title />
          </cc:Agent>
        </dc:creator>
        <dc:rights>
          <cc:Agent>
            <dc:title />
          </cc:Agent>
        </dc:rights>
        <dc:date />
        <dc:format>image/svg+xml</dc:format>
        <dc:type
           rdf:resource="http://purl.org/dc/dcmitype/StillImage" />
        <cc:license
           rdf:resource="http://web.resource.org/cc/PublicDomain" />
        <dc:language>en</dc:language>
      </cc:Work>
      <cc:License
         rdf:about="http://web.resource.org/cc/PublicDomain">
        <cc:permits
           rdf:resource="http://web.resource.org/cc/Reproduction" />
        <cc:permits
           rdf:resource="http://web.resource.org/cc/Distribution" />
        <cc:permits
           rdf:resource="http://web.resource.org/cc/DerivativeWorks" />
      </cc:License>
    </rdf:RDF>
  </metadata>
  <sodipodi:namedview
     bordercolor="#666666"
     borderopacity="1.0"
     gridtolerance="10.0"
     guidetolerance="10.0"
     id="base"
     inkscape:current-layer="svg2"
     inkscape:cx="214.18009"
     inkscape:cy="205.43828"
     inkscape:pageopacity="0.0"
     inkscape:pageshadow="2"
     inkscape:window-height="700"
     inkscape:window-width="804"
     inkscape:window-x="24"
     inkscape:window-y="76"
     inkscape:zoom="0.77638888"
     objecttolerance="10.0"
     pagecolor="#ffffff"
     showgrid="false" />
  <defs
     id="defs4">
    <inkscape:perspective
       id="perspective2648"
       inkscape:persp3d-origin="720 : 240 : 1"
       inkscape:vp_x="0 : 360 : 1"
       inkscape:vp_y="0 : 1000 : 0"
       inkscape:vp_z="1440 : 360 : 1"
       sodipodi:type="inkscape:persp3d" />
    <style
       id="style6"
       type="text/css" />
  </defs>
  <g
     id="g2465"
     transform="matrix(0.9949687,0,0,0.9597496,1.2880143,6.4400717)">
    <rect
       y="64"
       x="2.7755576e-17"
       width="256"
       style="fill:#f7e017;fill-rule:nonzero"
       id="rect2533"
       height="128" />
    <polygon
       transform="matrix(7.1111111e-2,0,0,7.1111111e-2,0,64)"
       style="fill:#ffffff"
       points="0,125.001 3600,875 3600,1300 0,550 0,125.001 "
       id="path2535" />
    <polygon
       transform="matrix(7.1111111e-2,0,0,7.1111111e-2,0,64)"
       style="fill:#000000"
       points="0,550 3600,1300 3600,1675 0,925 0,550 "
       id="path3422" />
    <rect
       y="117.2951"
       x="126.73281"
       width="2.3035715"
       style="fill:#cf1126;stroke:#000000;stroke-width:0.36394528"
       id="rect694"
       height="6.1518555" />
    <path
       style="fill:#cf1126;stroke:#000000;stroke-width:0.36394528"
       id="path611"
       d="M 131.34271,133.533 C 131.31617,129.30984 131.46663,125.24862 131.75714,124.0966 C 132.04773,122.94447 132.47863,122.70504 133.01344,122.13292 C 131.74656,122.00161 130.34836,123.22079 129.70559,124.82632 C 129.29763,123.01487 128.53481,121.78721 127.86355,121.17065 C 127.19239,121.78721 126.40092,123.03369 126.04034,124.84228 C 125.379,123.49458 124.21856,122.00035 122.84598,122.1682 C 123.334,122.74948 123.77926,122.96488 124.07607,124.0913 C 124.3728,125.21781 124.52108,129.25169 124.41447,133.47705 M 131.3427,133.533 L 131.3427,133.533 L 131.3427,133.533 z" />
    <path
       style="fill:#cf1126;stroke:#000000;stroke-width:0.36394528"
       id="path610"
       d="M 131.54828,144.10121 C 131.51938,139.03298 131.7126,134.70614 131.98951,133.33099 C 132.26657,131.95606 132.70864,131.69932 133.34041,131.10444 C 131.95901,130.94692 130.64272,131.36949 129.87225,133.725 C 129.44119,131.5355 128.59562,130.45998 127.86362,129.7201 C 127.1318,130.45999 126.26858,131.57347 125.8755,133.74399 C 125.02916,131.40747 123.84713,130.88408 122.35047,131.08554 C 122.97274,131.73721 123.46185,131.98051 123.76639,133.32856 C 124.07102,134.67677 124.1095,138.96302 123.99322,144.03419 M 131.54824,144.10123 L 131.54824,144.10123 L 131.54824,144.10123 z" />
    <path
       style="fill:#cf1126;stroke:#000000;stroke-width:0.36394528"
       id="path609"
       d="M 132.9481,146.90869 C 132.90106,145.72908 133.06278,144.14497 133.33069,143.53287 C 133.59877,142.9205 133.9727,142.4734 134.35,141.95446 C 132.73186,141.72099 131.08641,141.84012 130.21278,144.21462 C 129.64679,142.04402 128.79795,140.91146 127.87735,140.17157 C 126.95684,140.91146 126.15747,142.04401 125.59157,144.21462 C 124.71794,141.84012 123.06443,141.69621 121.39672,141.95446 C 121.77394,142.4734 122.16248,142.9205 122.44484,143.53287 C 122.72712,144.14497 122.90338,145.72909 122.85617,146.90869 M 132.94809,146.90869 L 132.94809,146.90869 L 132.94809,146.90869 z" />
    <polygon
       transform="matrix(7.1129493e-2,0,0,7.1129493e-2,-3.2764427e-2,63.97311)"
       style="fill:#cf1126;stroke:#000000;stroke-width:5.11665773"
       points="1786.28,581.594 1786.28,649.972 1810.4,649.972 1810.4,581.594 1786.28,581.594 "
       id="path689" />
    <path
       style="fill:#cf1126;fill-opacity:1;stroke:#000000;stroke-width:0.36394528"
       id="path660"
       d="M 138.93792,165.32909 C 139.36251,165.61296 141.05609,165.91045 144.12586,165.37589 C 149.48527,164.43665 149.4405,159.14721 157.78813,161.60101 C 157.41084,160.846 156.09035,158.53418 152.83609,158.44059 C 153.16625,157.35492 153.40207,155.75123 152.78905,154.75922 C 152.16014,156.15902 151.18662,156.80976 150.48059,157.26729 C 150.26317,157.14959 149.00166,156.11827 148.86497,154.5644 C 148.67535,151.48413 147.17306,150.94049 147.01344,151.02206 C 146.04916,150.99484 140.24189,160.18006 127.80656,160.24045 C 115.55386,160.29934 109.42164,151.10365 108.72991,151.02206 C 108.57038,150.94049 107.06808,151.48412 106.87847,154.5644 C 106.74171,156.11827 105.46549,157.10423 105.25101,157.24167 C 104.548,156.80372 103.58314,156.15902 102.95439,154.75922 C 102.34128,155.75123 102.57702,157.35492 102.90726,158.44059 C 99.65309,158.53418 98.332521,160.846 97.955221,161.60101 C 106.30291,159.14721 106.31962,164.43664 111.67902,165.37589 C 114.74887,165.91045 116.34021,165.65976 116.76481,165.3774 M 138.93801,165.32909 L 138.93801,165.32909 L 138.93801,165.32909 z" />
    <path
       style="fill:#cf1126;fill-opacity:1;stroke:#000000;stroke-width:0.36394528"
       id="path661"
       d="M 113.03896,162.69019 C 110.1315,162.57383 104.45967,158.14955 105.26465,157.23904 C 105.52012,156.98096 106.7697,157.2466 108.93308,158.76115 C 112.14391,160.95065 114.89863,167.85428 127.77905,167.80136 C 140.90572,167.74851 143.59911,160.95066 146.80989,158.76115 C 148.97327,157.2466 150.32307,157.00506 150.4753,157.30103 C 151.24804,158.17374 145.57065,162.58744 142.66329,162.70371 M 113.03899,162.69018 L 113.03899,162.69018 L 113.03899,162.69018 z" />
    <path
       style="fill:#cf1126;stroke:#000000;stroke-width:0.36394528"
       id="path590"
       d="M 109.05784,118.0252 C 97.571776,130.13301 103.75051,157.94279 127.62299,158.34439 C 151.62408,158.6134 158.62614,130.52088 146.70035,117.97157 M 111.38356,118.4401 C 105.273,128.73481 111.6256,146.77404 127.96634,146.77404 C 144.44149,146.77404 150.48003,128.60465 144.4289,118.37957 M 111.38349,118.44006 L 111.38349,118.44006 L 111.38349,118.44006 z" />
    <path
       style="fill:#f7e017;stroke:#f7e017;stroke-width:0.05095234"
       id="path596"
       d="M 132.14932,161.89496 C 132.98439,162.08055 133.74638,162.94325 133.43948,163.82999 C 133.09881,164.8871 131.84092,165.14401 131.36558,165.0668 C 130.85412,164.75983 131.16076,164.31666 132.729,164.14595 C 133.7515,163.77085 132.82023,163.07901 132.04725,162.74767 C 131.62711,162.56746 131.75716,161.80775 132.14932,161.89495 L 132.14932,161.89496 z" />
    <path
       style="fill:#f7e017;stroke:#f7e017;stroke-width:0.05095234"
       id="path597"
       d="M 129.55878,161.62182 C 129.94709,161.17984 130.26255,162.53452 130.34891,163.47385 C 130.46199,164.39083 130.47384,165.52205 130.10427,165.57808 C 129.87895,165.6158 130.06806,164.525 129.83526,163.52418 C 129.53131,162.36549 129.40017,161.81623 129.55878,161.62182 L 129.55878,161.62182 z" />
    <path
       style="fill:#f7e017;stroke:#f7e017;stroke-width:0.05095234"
       id="path598"
       d="M 128.66753,163.29337 C 129.64248,164.23858 127.9909,166.97684 124.37775,165.78312 C 124.17319,165.4081 125.81266,165.77909 126.96824,165.57855 C 129.16732,165.23117 128.22379,162.87398 128.66754,163.29336 L 128.66753,163.29337 z" />
    <path
       style="fill:#f7e017;stroke:#f7e017;stroke-width:0.05095234"
       id="path599"
       d="M 126.89996,161.41697 C 127.28852,160.97507 127.0621,162.37411 127.14309,163.31394 C 127.22223,164.19707 127.12352,165.27191 126.70463,165.13287 C 126.47781,165.02332 126.84964,164.03148 126.61676,163.09904 C 126.36733,161.92725 126.60525,161.71369 126.89996,161.41697 L 126.89996,161.41697 z" />
    <path
       style="fill:#f7e017;stroke:#f7e017;stroke-width:0.05095234"
       id="path600"
       d="M 124.41897,161.04212 C 125.10828,161.03767 124.92354,161.23131 124.87447,163.07376 C 124.82063,165.13867 123.07756,165.36979 122.6633,164.80322 C 122.31516,164.35872 122.44285,164.22506 120.88512,164.37392 C 120.53664,164.19826 120.55,163.82474 119.41198,163.92034 C 119.11769,163.97462 119.12744,163.41628 118.59657,163.08258 C 117.67102,162.52929 117.36295,163.49046 115.59804,162.47325 C 115.48782,162.41158 114.77162,161.95758 114.90251,161.0601 C 115.03895,159.92603 114.00511,161.19863 112.86911,160.70381 C 112.64933,160.60551 111.98354,160.32844 111.39614,159.8127 C 110.56686,159.09936 111.4352,158.95511 112.55558,159.68231 C 113.24732,160.12127 114.26335,159.11145 114.29083,158.10088 C 114.35275,157.03133 113.82087,156.75007 114.64527,156.77661 C 115.10498,156.79022 114.99568,158.64535 114.21455,159.4664 C 113.16919,160.59686 113.87455,160.37876 114.24798,160.32197 C 114.63729,160.22452 116.40833,158.02905 116.70346,158.21757 C 117.16351,158.53018 115.32283,159.93376 115.73499,161.26239 C 115.93182,161.85467 117.02901,162.42208 117.9323,162.51382 C 118.99437,162.69075 118.99748,161.24794 119.42787,161.52123 C 120.0235,161.91231 118.28952,162.64858 120.1102,163.18558 C 120.51228,163.30622 120.74457,162.2817 120.98258,162.32623 C 121.55377,162.41948 120.60915,163.52263 121.63056,163.69796 C 122.34264,163.8165 122.14757,162.66781 122.58913,162.7378 C 123.09992,162.70512 122.62038,164.57512 124.03656,164.38433 C 124.63354,164.3062 123.69968,161.04614 124.41898,161.04211 L 124.41897,161.04212 z" />
    <path
       style="fill:#f7e017;stroke:#f7e017;stroke-width:0.05095234"
       id="path601"
       d="M 111.58365,158.61376 C 111.99379,158.52613 112.69655,158.14506 112.72587,157.52968 C 112.78442,156.85583 111.84727,156.62135 110.73438,156.79719 C 110.14874,156.88506 109.15329,156.50416 108.56739,156.00597 C 107.98175,155.27348 107.98175,154.45336 107.27891,154.80478 C 106.75191,155.039 108.01107,156.38688 108.62595,156.70932 C 109.24116,157.03175 110.23686,157.00243 110.29516,157.47105 C 110.3538,157.93991 110.06086,158.67233 111.58365,158.61377 L 111.58365,158.61376 z" />
    <path
       style="fill:#f7e017;stroke:#f7e017;stroke-width:0.05095234"
       id="path604"
       d="M 136.50529,161.75982 C 136.27913,161.86937 136.09573,163.9168 137.37355,163.96091 C 138.97883,164.01829 139.78601,163.20389 140.18809,162.91447 C 140.85598,162.40662 142.05952,161.39168 141.50244,160.51662 C 141.22361,160.19889 141.06978,161.10126 140.74827,161.62926 C 140.31091,162.40351 138.81358,163.32234 137.66674,163.19725 C 136.26191,163.1108 136.79126,161.68656 136.50529,161.75982 L 136.50529,161.75982 z" />
    <path
       style="fill:#f7e017;stroke:#f7e017;stroke-width:0.05095234"
       id="path605"
       d="M 139.80428,160.81166 C 139.47773,160.56458 140.53055,160.16023 140.63951,159.7779 C 140.74865,159.39565 140.17434,159.03541 140.49376,158.61661 C 140.82863,158.06516 140.84677,159.65608 141.27238,159.70178 C 142.45089,159.8247 141.60951,160.58617 141.16493,160.43915 C 140.66186,160.28902 140.00145,160.99748 139.80428,160.81165 L 139.80428,160.81166 z" />
    <path
       style="fill:#f7e017;stroke:#f7e017;stroke-width:0.05095234"
       id="path606"
       d="M 138.8924,158.40108 C 138.81662,158.9322 139.13889,159.06485 139.2339,158.76157 C 139.34757,158.19239 139.02497,157.92684 138.8924,158.40108 z" />
    <path
       style="fill:#f7e017;stroke:#f7e017;stroke-width:0.05095234"
       id="path607"
       d="M 139.74595,157.85125 C 139.55634,157.86612 139.52979,158.52502 139.77679,158.54325 C 140.04327,158.56434 139.92019,159.01397 140.144,159.00809 C 140.41023,159.00111 140.43056,158.25375 140.12938,158.24686 C 139.84929,158.23988 139.91532,157.85427 139.74595,157.85125 L 139.74595,157.85125 z" />
    <path
       style="fill:#f7e017;stroke:#f7e017;stroke-width:0.05095234"
       id="path608"
       d="M 141.8777,157.72464 C 141.6523,158.00994 141.22451,156.62518 142.66405,156.42692 C 143.34832,156.48732 143.93186,157.61484 143.87154,158.70202 C 143.84869,159.10418 143.83146,160.01083 143.61018,160.45382 C 143.42872,160.87674 142.76469,162.26619 142.44285,162.14539 C 142.12083,162.02433 142.52702,161.44246 143.06672,160.63503 C 143.50307,159.97386 143.67058,158.1383 143.44905,157.81612 C 143.22751,157.49402 143.00471,158.62162 142.5435,158.86332 C 142.15964,159.06452 141.75874,158.48224 141.69843,158.20055 C 141.65054,157.86627 141.95474,157.66061 142.1609,158.05782 C 142.32532,158.35623 142.83081,157.76394 142.81905,157.34087 C 142.83241,156.65651 142.37874,157.19914 141.8777,157.72463 L 141.8777,157.72464 z" />
    <path
       style="fill:#f7e017;stroke:#f7e017;stroke-width:0.05095234"
       id="path614"
       d="M 144.97824,154.63477 C 144.79719,154.89681 144.17349,155.48068 144.05277,155.72239 C 143.93196,155.96401 143.91164,156.38666 144.11284,156.78941 C 144.3143,157.19208 144.73679,157.83636 144.65639,158.42041 C 144.57566,159.0042 144.17324,160.2122 144.39478,160.11172 C 144.61598,160.01091 145.15945,158.82299 145.03864,157.91676 C 144.91783,157.01078 144.49526,156.50747 144.57566,156.20537 C 144.65606,155.90352 145.1592,155.3398 145.25985,154.95722 C 145.36066,154.57446 145.19952,153.54768 145.05863,153.4672 C 144.91783,153.38671 144.41478,153.56801 144.57566,153.91011 C 144.73679,154.25253 145.0788,154.05108 144.97824,154.63479 L 144.97824,154.63477 z" />
    <path
       style="fill:#f7e017;stroke:#f7e017;stroke-width:0.05095234"
       id="path615"
       d="M 145.80761,155.10423 C 145.58145,155.31023 145.69403,156.43186 146.0047,156.03129 C 146.28706,155.64106 145.98848,154.92092 145.80761,155.10423 z" />
    <path
       style="fill:#f7e017;stroke:#f7e017;stroke-width:0.05095234"
       id="path616"
       d="M 139.89177,163.43278 C 139.78591,163.92382 140.26923,164.07916 140.40214,163.79865 C 140.56092,163.27265 140.07735,162.9945 139.89177,163.43278 z" />
    <path
       style="fill:#f7e017;stroke:#f7e017;stroke-width:0.05095234"
       id="path620"
       d="M 140.63222,163.01667 C 140.47521,163.41959 141.17561,163.4548 141.37245,163.2246 C 141.60784,162.79295 140.9072,162.65702 140.63222,163.01667 z" />
    <path
       style="fill:#cf1126;stroke:#f7e017;stroke-width:0.05095234"
       id="path603"
       d="M 111.49616,157.20753 C 111.12147,157.04001 111.14482,157.79342 111.32058,157.99858 C 111.49616,158.20374 112.51791,157.67774 111.49616,157.20753 z" />
    <path
       style="fill:#cf1126;stroke:#000000;stroke-width:0.36394528"
       id="path676"
       d="M 128.03519,115.83712 C 124.27065,116.59103 121.68579,118.79894 122.89757,119.54983 C 123.63973,120.04482 127.12527,118.68494 127.86062,117.53053 C 129.19791,119.57251 132.82576,120.34272 133.702,119.88495 M 128.03519,115.83712 L 128.03519,115.83712 L 128.03519,115.83712 z" />
    <path
       style="fill:#cf1126"
       id="path696"
       d="M 108.51014,114.62919 C 109.13494,115.59524 112.37205,117.92495 114.70051,118.0955 C 117.02922,118.26587 122.31087,119.34559 123.33307,118.89092 C 124.3554,118.43642 127.25177,116.44745 127.99006,116.78845 C 128.72852,117.12929 133.04468,119.51605 134.63484,119.45909 C 136.22509,119.4023 146.5045,116.50441 146.84536,115.93616 C 147.18611,115.36783 144.80069,113.89041 143.2674,113.89041 C 141.73394,113.89041 108.51011,114.68608 108.51011,114.6292 L 108.51014,114.62919 z" />
    <path
       style="fill:#cf1126;stroke:#000000;stroke-width:0.36394528"
       id="path675"
       d="M 117.55426,119.31762 C 117.57291,119.89831 118.01918,120.31828 119.08948,120.32929 C 120.8869,120.36676 123.92735,119.51623 125.74359,117.47442 M 117.55424,119.31762 L 117.55424,119.31762 L 117.55424,119.31762 z" />
    <path
       style="fill:#cf1126;stroke:#000000;stroke-width:0.36394528"
       id="path674"
       d="M 112.16193,118.45589 C 112.06834,118.94299 112.87342,119.57988 114.44628,119.59853 C 116.01897,119.61735 121.5049,118.94299 123.26485,117.10709 M 112.16196,118.45589 L 112.16196,118.45589 L 112.16196,118.45589 z" />
    <path
       style="fill:#cf1126;stroke:#000000;stroke-width:0.36394528"
       id="path673"
       d="M 108.44755,116.98017 C 107.60491,118.0666 110.28941,118.45599 111.8994,118.43709 C 113.50973,118.41844 117.66534,118.39693 119.52662,117.01083 M 108.44756,116.98017 L 108.44756,116.98017 L 108.44756,116.98017 z" />
    <path
       style="fill:#cf1126;stroke:#000000;stroke-width:0.36394528"
       id="path672"
       d="M 105.50634,115.15762 C 104.70118,116.22548 107.40651,117.16338 110.70169,117.08845 C 113.73482,117.01351 116.82426,115.96446 116.82426,115.96446 M 105.50634,115.15762 L 105.50634,115.15762 L 105.50634,115.15762 z" />
    <path
       style="fill:#cf1126;stroke:#000000;stroke-width:0.36394528"
       id="path680"
       d="M 138.12064,119.31762 C 138.10199,119.89831 137.65572,120.31828 136.58542,120.32929 C 134.788,120.36676 131.74747,119.51623 129.93131,117.47442 M 138.12066,119.31762 L 138.12066,119.31762 L 138.12066,119.31762 z" />
    <path
       style="fill:#cf1126;stroke:#000000;stroke-width:0.36394528"
       id="path679"
       d="M 143.51297,118.45589 C 143.60655,118.94299 142.80148,119.57988 141.22879,119.59853 C 139.6561,119.61735 134.17017,118.94299 132.41008,117.10709 M 143.51297,118.45589 L 143.51297,118.45589 L 143.51297,118.45589 z" />
    <path
       style="fill:#cf1126;stroke:#000000;stroke-width:0.36394528"
       id="path678"
       d="M 147.20317,117.00371 C 148.0458,118.0904 145.385,118.45601 143.77484,118.43711 C 142.1646,118.41846 138.0089,118.39695 136.14769,117.01085 M 147.20314,117.00371 L 147.20314,117.00371 L 147.20314,117.00371 z" />
    <path
       style="fill:#cf1126;stroke:#000000;stroke-width:0.36394528"
       id="path677"
       d="M 150.1778,115.13941 C 150.98297,116.20719 148.26857,117.1634 144.97331,117.08847 C 141.94017,117.01353 138.85082,115.96448 138.85082,115.96448 M 150.17777,115.13941 L 150.17777,115.13941 L 150.17777,115.13941 z" />
    <path
       style="fill:#cf1126;stroke:#000000;stroke-width:0.36394528"
       id="path681"
       d="M 111.97273,115.0591 C 107.78703,115.66373 105.85914,115.35566 105.02382,114.9561 C 103.98023,114.49656 102.19307,113.09744 104.83287,113.04653 C 106.58198,113.01242 107.46343,113.14599 109.45198,113.13566 C 114.5386,113.0719 121.88136,109.05322 124.1075,109.03675 C 126.17518,109.02163 126.72378,109.97802 127.90253,109.99742 C 129.10961,110.01145 129.50026,109.02163 131.56803,109.03675 C 133.79399,109.05322 141.1368,113.0719 146.22347,113.13566 C 148.21193,113.14599 149.09338,113.01242 150.84249,113.04653 C 153.48238,113.09744 151.69529,114.49656 150.65171,114.9561 C 149.81639,115.35566 147.88841,115.66373 143.70272,115.0591 M 111.97278,115.0591 L 111.97278,115.0591 L 111.97278,115.0591 z" />
    <path
       style="fill:#cf1126;stroke:#000000;stroke-width:0.36394528"
       id="path618"
       d="M 127.82465,100.01806 C 125.85559,100.11694 123.14522,99.78039 122.27487,101.97745 C 120.94934,104.49116 121.32319,107.34073 121.91866,107.4008 C 122.98493,107.51842 123.08633,104.55492 123.54092,104.55047 C 124.01617,104.5451 124.01566,107.12374 124.9455,107.10391 C 125.63793,107.08417 126.0731,104.51099 126.29078,104.53073 C 126.50837,104.55047 126.96337,107.00486 127.83919,107.00486 C 128.7744,107.00486 129.16993,104.55047 129.3876,104.53073 C 129.6051,104.51098 130.04045,107.08416 130.73287,107.10391 C 131.66262,107.12374 131.66212,104.5451 132.13746,104.55047 C 132.59196,104.55492 132.79224,107.49868 133.85851,107.38098 C 134.45399,107.32082 134.7487,104.49116 133.42325,101.97746 C 132.55289,99.7804 129.78321,100.11695 127.82466,100.01806 L 127.82465,100.01806 z" />
    <path
       style="fill:#cf1126;stroke:#000000;stroke-width:0.36394528"
       id="path619"
       d="M 123.09738,100.91841 C 123.62623,101.80734 127.75084,101.78625 127.98356,101.78625 C 128.21626,101.78625 131.81212,101.82859 132.6582,100.96093 M 123.09739,100.91842 L 123.09739,100.91842 L 123.09739,100.91842 z" />
    <path
       style="fill:#cf1126;stroke:#000000;stroke-width:0.36394528"
       id="path628"
       d="M 127.08063,91.6491 L 127.08063,100.4119 C 127.08063,100.4119 127.12801,100.9011 127.85395,100.91698 C 128.57981,100.93277 128.69012,100.5065 128.69012,100.44324 L 128.65861,91.63321 M 127.08063,91.64909 L 127.08063,91.64909 L 127.08063,91.64909 z" />
    <path
       style="fill:#cf1126;stroke:#000000;stroke-width:0.36394528"
       id="path625"
       d="M 127.93063,92.66462 C 131.23017,92.49534 132.21403,94.44238 133.1447,94.86571 C 134.07546,95.28896 134.49846,95.45824 135.7677,95.37356 C 137.03677,95.28896 133.5677,97.49006 133.5677,97.57466 L 134.83694,99.86018 C 133.65239,100.02946 131.4092,98.93538 130.52196,98.33647 C 129.51844,97.74352 128.40672,98.0825 127.98364,97.99782 L 127.93063,92.66462 L 127.93063,92.66462 z" />
    <path
       style="fill:#cf1126;stroke:#000000;stroke-width:0.36394528"
       id="path690"
       d="M 129.76008,89.99797 C 129.76008,91.00275 128.90719,91.81799 127.85655,91.81799 C 126.80566,91.81799 125.95277,91.00275 125.95277,89.99797 C 125.95277,88.99337 126.80566,88.17813 127.85655,88.17813 C 128.9072,88.17813 129.76008,88.99337 129.76008,89.99797 z" />
    <path
       style="fill:#f7e017;stroke:#f7e017;stroke-width:0.05095233"
       id="path621"
       d="M 107.46097,133.52062 C 107.20953,133.87245 106.9926,132.9469 106.12881,133.59589 C 105.64171,134.0125 105.44647,134.6509 105.45,135.985 C 105.45294,137.11613 106.10361,137.87131 106.48081,137.79578 C 107.05873,137.72033 106.75712,136.33709 107.38545,136.08565 C 108.29041,135.65811 109.57226,136.31198 109.7985,137.14175 C 110.02466,137.97161 109.37105,138.87701 108.66737,138.77644 C 108.26513,138.62556 108.89361,138.04731 108.94385,137.79578 C 108.99409,137.54433 109.06937,136.71422 108.46624,136.48807 C 107.86296,136.26182 107.96361,137.0916 107.93841,137.31801 C 107.91345,137.54434 107.48592,138.24844 107.00849,138.22323 C 106.53097,138.1982 105.77201,138.20071 105.0228,137.39346 C 104.62551,136.97936 104.14304,135.85942 104.5704,134.45105 C 104.99768,133.04277 105.72656,132.91709 106.1288,132.8918 C 106.5308,132.86676 107.56144,133.11821 107.46096,133.52062 L 107.46097,133.52062 z" />
    <path
       style="fill:#f7e017;stroke:#f7e017;stroke-width:0.05095233"
       id="path622"
       d="M 106.4303,139.38033 C 106.01092,139.1561 106.58799,138.3391 105.50039,138.62591 C 105.06269,138.74798 106.15382,140.00916 106.63135,140.05956 C 107.15919,140.00915 107.01209,139.66631 106.4303,139.38033 L 106.4303,139.38033 z" />
    <path
       style="fill:#f7e017;stroke:#f7e017;stroke-width:0.05095233"
       id="path623"
       d="M 107.58687,140.05891 C 107.81303,141.0899 108.02709,141.00252 108.06431,141.51743 C 108.08313,142.17515 106.9583,141.89455 106.8075,142.19632 C 106.65678,142.49809 106.45574,143.27771 107.18446,143.32795 C 107.91342,143.37827 108.95961,143.09801 109.17014,143.60468 C 109.7378,145.03052 110.94824,144.82377 111.51263,144.60198 C 112.15103,144.34625 113.6534,142.99173 113.99591,142.87529 C 114.50603,142.68837 113.51848,142.322 112.9404,142.82498 C 112.78968,142.97603 111.53287,144.25863 110.87935,144.28367 C 110.40208,144.33684 109.66253,143.12608 109.69798,142.69938 C 109.7483,142.39753 110.84801,142.64654 111.00511,142.02032 C 111.12214,141.57296 111.13063,141.08981 110.77896,141.06477 C 110.42695,141.03949 108.76815,141.26581 108.71782,141.01445 C 108.41613,140.28506 109.01959,139.98338 108.79326,139.78209 C 108.54182,139.68153 107.61189,139.53064 107.58686,140.05891 L 107.58687,140.05891 z" />
    <path
       style="fill:#f7e017;stroke:#f7e017;stroke-width:0.05095233"
       id="path638"
       d="M 113.1748,144.05781 C 112.64301,144.61522 111.24297,145.50742 111.24297,146.13768 C 111.24297,146.4949 111.63362,147.05491 111.95681,147.18815 C 112.43912,147.37827 113.17892,147.33072 113.74163,146.89403 C 114.37809,146.37669 114.66432,145.85229 114.3928,145.75955 C 113.43019,145.48433 113.40592,146.81179 112.94377,146.85203 C 112.50237,146.88866 111.83087,146.17969 112.71282,145.29723 C 113.59469,144.41495 114.81269,143.5325 114.77059,143.28029 C 114.72867,143.02826 113.55646,143.67295 113.1748,144.05782 L 113.1748,144.05781 z" />
    <path
       style="fill:#f7e017;stroke:#f7e017;stroke-width:0.05095233"
       id="path639"
       d="M 110.88586,147.75583 C 110.84646,148.11086 111.78872,148.11297 111.95675,147.79784 C 112.0826,147.56689 110.92778,147.39887 110.88586,147.75583 z" />
    <path
       style="fill:#f7e017;stroke:#f7e017;stroke-width:0.05095233"
       id="path640"
       d="M 114.05965,147.98842 C 113.52786,148.54567 114.12258,149.17928 114.52886,149.69864 C 114.75384,149.97605 115.2706,150.24622 115.5937,150.37938 C 116.07609,150.56959 117.03743,150.50355 117.60022,150.06686 C 118.23652,149.5496 118.28684,148.64102 117.90031,148.63674 C 116.90142,148.62565 117.59678,149.96614 117.1348,150.00646 C 116.69324,150.04317 115.45558,149.764 114.85364,148.48846 C 114.5097,147.73673 115.48776,147.59299 115.34141,147.26635 C 115.19229,146.91544 114.4414,147.60349 114.05965,147.98843 L 114.05965,147.98842 z" />
    <path
       style="fill:#f7e017;stroke:#f7e017;stroke-width:0.05095233"
       id="path641"
       d="M 116.65303,147.93863 C 116.85987,148.22973 117.56439,147.60351 117.47987,147.25647 C 117.42006,147.00023 116.44662,147.64426 116.65303,147.93863 z" />
    <path
       style="fill:#f7e017;stroke:#f7e017;stroke-width:0.05095233"
       id="path642"
       d="M 118.06069,150.59176 C 118.03196,151.00065 118.15302,151.55268 117.67281,151.57125 C 117.1926,151.58965 116.5831,150.94285 116.10288,150.96133 C 115.6226,150.97981 115.41937,151.34946 115.47473,151.55285 C 115.5301,151.75607 116.36139,151.99635 117.78361,151.90385 C 119.20584,151.81144 118.8918,152.68003 119.88919,152.60602 C 120.88665,152.53217 121.03434,152.19958 120.96058,151.97795 C 120.88666,151.75607 120.03704,151.90385 119.72301,151.84849 C 119.40898,151.79296 118.85501,151.2941 118.78108,150.869 C 118.70724,150.44391 118.70724,149.71132 119.07655,149.70469 C 119.75999,149.69284 119.44427,150.32612 119.47048,150.54833 C 119.4935,150.74508 119.71705,150.94915 120.01849,150.59176 C 120.41888,150.11751 120.20322,149.37201 119.81535,149.11334 C 119.42755,148.85467 118.13302,149.59657 118.06069,150.59176 L 118.06069,150.59176 z" />
    <path
       style="fill:#f7e017;stroke:#f7e017;stroke-width:0.05095233"
       id="path643"
       d="M 121.58871,150.66574 C 121.51604,151.39849 120.99189,151.45175 121.05314,151.71907 C 121.12892,152.02613 121.31861,152.12249 121.44102,152.8833 C 121.51024,153.25832 121.97659,153.41728 122.56777,153.38225 C 123.05076,153.36897 123.381,152.71427 123.69428,152.73536 C 124.13727,152.75913 123.7683,153.76231 124.80264,153.75198 C 125.63376,153.74399 125.83698,153.03108 126.13246,153.01268 C 126.42801,152.99411 126.39104,153.84422 127.07456,153.84422 C 127.75791,153.84422 128.05337,153.06804 128.36741,153.04964 C 128.69993,153.06804 128.69993,153.88119 129.7157,153.82574 C 130.73174,153.77021 131.48901,153.62251 131.72912,153.4192 C 131.96922,153.2159 132.07995,152.55061 132.41238,152.51356 C 132.7449,152.47677 133.26216,153.14188 133.72388,153.14188 C 134.18569,153.14188 135.14594,151.97791 135.44141,151.95926 C 135.73713,151.94094 135.97723,152.67999 136.64218,152.67999 C 137.67652,152.6615 137.79742,151.31598 138.27914,151.25247 C 139.14748,151.16796 139.18176,150.81351 139.22796,150.7211 C 139.3203,150.46226 139.22133,149.24905 139.02407,148.695 C 138.9283,148.40273 137.82431,145.93456 137.3257,145.8792 C 136.82684,145.82375 136.97462,146.54449 137.27017,146.96958 C 137.5658,147.39459 139.08019,149.37196 138.87705,149.94483 C 138.67391,150.51787 137.6026,149.70457 136.75291,149.70457 C 135.57087,149.70457 134.85265,152.09578 134.01927,152.18097 C 133.65323,152.2202 133.26216,151.86684 133.39145,151.60809 C 133.63155,151.23861 133.90845,150.35145 132.98509,150.48091 C 132.06155,150.61004 131.11953,151.03514 131.26731,151.53424 C 131.41509,152.0331 131.96922,152.53213 131.35963,152.73535 C 130.75006,152.93866 129.6973,152.99419 129.18014,152.82785 C 128.66288,152.6615 128.97692,151.49728 128.66288,151.49728 C 128.31205,151.49728 128.29357,152.86481 127.79488,152.90186 C 127.29628,152.93866 126.85286,152.73536 126.74214,152.34739 C 126.63124,151.95926 126.92679,151.4788 126.59436,151.42343 C 126.26184,151.3679 125.92924,152.95722 125.43063,152.92026 C 124.93203,152.8833 124.91347,152.77249 124.61799,152.4582 C 124.32236,152.14417 124.8765,151.07219 124.37781,150.97978 C 123.87904,150.88736 123.38026,152.5691 123.048,152.5507 C 122.71531,152.53213 122.21671,152.51373 122.06893,152.18113 C 121.995,152.01462 122.01574,150.97414 122.0323,150.55232 C 122.02306,150.35263 121.552,150.44042 121.58872,150.66574 L 121.58871,150.66574 z" />
    <path
       style="fill:#f7e017;stroke:#f7e017;stroke-width:0.05095233"
       id="path644"
       d="M 138.37812,146.13764 C 139.2883,147.51643 140.10808,149.38089 140.61307,149.48254 C 140.94928,149.53186 139.56015,146.98791 139.09852,146.41487 C 138.71055,145.82351 137.59522,144.93585 138.37812,146.13764 L 138.37812,146.13764 z" />
    <path
       style="fill:#f7e017;stroke:#f7e017;stroke-width:0.05095233"
       id="path645"
       d="M 121.50407,149.49495 C 121.36814,149.82948 121.41678,150.15217 121.64958,150.10436 C 121.88246,150.05656 122.1833,149.49495 122.10576,149.38741 C 122.02813,149.27988 121.68847,149.18445 121.50407,149.49495 L 121.50407,149.49495 z" />
    <path
       style="fill:#f7e017;stroke:#f7e017;stroke-width:0.05095233"
       id="path646"
       d="M 141.05187,146.74935 C 141.04868,147.49688 141.57778,148.34245 142.56239,148.28919 C 143.54709,148.23601 144.6268,147.14646 144.70662,146.02811 C 144.78642,144.90983 143.40696,144.08896 143.06108,144.32856 C 142.71496,144.56816 143.19079,145.40214 144.07451,145.45364 C 144.45306,145.47657 144.32948,146.21705 143.6043,146.80294 C 142.84442,147.40388 141.71959,147.39245 141.44445,146.97777 C 141.23157,146.39196 141.03783,146.38785 141.05187,146.74934 L 141.05187,146.74935 z" />
    <path
       style="fill:#f7e017;stroke:#f7e017;stroke-width:0.05095233"
       id="path647"
       d="M 141.6451,144.48316 C 141.50119,144.77922 141.80127,145.46173 142.1269,145.43148 C 142.4569,145.3993 141.75078,144.28717 141.6451,144.48316 z" />
    <path
       style="fill:#f7e017;stroke:#f7e017;stroke-width:0.05095233"
       id="path648"
       d="M 144.5358,143.95467 C 144.72743,144.39809 144.95535,145.07412 145.35928,145.07412 C 145.76346,145.07412 146.08976,145.183 146.08976,145.52501 C 146.08976,145.86694 145.03634,147.00571 145.00198,147.39082 C 144.94326,148.04745 145.42153,148.01275 145.65466,147.65503 C 145.88771,147.29756 146.51805,145.61558 146.64919,145.15175 C 146.70623,144.78512 147.1593,144.09598 147.17753,143.37869 C 147.14855,142.57059 147.89221,143.22377 148.24985,143.25494 C 148.57725,143.26922 148.93362,142.66401 148.98025,142.22866 C 149.02687,141.79323 148.63824,141.71561 148.63824,141.32697 C 148.63824,141.10921 149.05393,140.40948 149.07333,139.94305 C 149.11971,139.53047 148.26532,138.34154 147.90801,138.35717 C 147.61262,138.37271 147.86138,138.80806 148.03234,138.99465 C 148.20323,139.18123 148.63823,139.56987 148.48299,139.91188 C 148.20323,140.58062 146.83561,140.75166 146.77352,141.46693 C 146.71143,141.97999 146.83561,143.59704 146.41606,143.59704 C 145.9965,143.59704 145.65298,142.58689 145.00198,142.5863 C 144.27176,142.56681 144.38441,143.61678 144.5358,143.95468 L 144.5358,143.95467 z" />
    <path
       style="fill:#f7e017;stroke:#f7e017;stroke-width:0.05095233"
       id="path651"
       d="M 145.60772,137.81264 C 145.62771,138.10054 146.22932,139.3519 146.5867,139.3519 C 147.0995,139.3519 146.35349,138.76121 146.40012,138.54346 C 146.44683,138.3257 147.18142,137.9978 146.88192,137.92152 C 146.34618,137.75736 145.58117,137.43199 145.60772,137.81265 L 145.60772,137.81264 z" />
    <path
       style="fill:#f7e017;stroke:#f7e017;stroke-width:0.05095233"
       id="path652"
       d="M 145.56148,136.19586 C 145.67028,136.60004 147.33303,137.20644 148.04796,137.40865 C 148.76273,137.61078 149.63301,138.46602 149.95938,138.18601 C 150.28569,137.90616 147.76821,136.91105 147.39537,136.77118 C 147.02244,136.63121 145.48378,135.7916 145.56148,136.19586 L 145.56148,136.19586 z" />
    <path
       style="fill:#f7e017;stroke:#f7e017;stroke-width:0.05095233"
       id="path718"
       d="M 150.58109,138.80774 C 151.20269,138.82311 150.86077,137.59478 150.70535,137.2994 C 150.55001,137.00394 150.31687,137.85917 150.34796,138.10801 C 150.37896,138.35677 150.39459,138.79211 150.58109,138.80774 L 150.58109,138.80774 z" />
    <path
       style="fill:#f7e017;stroke:#f7e017;stroke-width:0.05095233"
       id="path655"
       d="M 146.95989,132.6975 C 146.9546,132.97575 148.67716,132.77832 149.47745,132.99289 C 149.82274,133.08967 151.00032,133.72353 151.21774,133.56811 C 151.4665,133.24148 149.61724,132.542 148.56047,132.542 C 148.21829,132.54712 146.96585,132.36944 146.95988,132.6975 L 146.95989,132.6975 z" />
    <path
       style="fill:#f7e017;stroke:#f7e017;stroke-width:0.05095233"
       id="path720"
       d="M 146.50893,133.49038 C 146.20061,133.82063 147.54781,134.18994 148.74673,134.23658 C 149.94087,134.2832 150.71478,135.00108 150.61161,135.52716 C 150.44057,136.41356 148.94878,135.83808 149.13529,136.32022 C 149.24399,136.6934 149.89996,136.55629 149.97439,136.95778 C 150.02589,137.36213 150.44687,137.43328 150.42444,136.93477 C 150.422,136.53815 151.34966,135.88479 151.32639,135.69829 C 151.27984,135.32519 150.72041,134.01898 149.29063,133.8791 C 147.86101,133.73922 146.90244,133.04991 146.50893,133.49039 L 146.50893,133.49038 z" />
    <path
       style="fill:#cf1126;stroke:#f7e017;stroke-width:0.01455781"
       id="path629"
       d="M 108.29746,142.20987 C 108.10575,142.09906 107.42249,142.71352 107.66763,142.85054 C 108.13272,143.114 108.5889,142.37285 108.29746,142.20987 z" />
    <path
       style="fill:#cf1126;stroke:#f7e017;stroke-width:0.01455781"
       id="path634"
       d="M 109.76558,141.48008 C 109.43382,141.43875 109.27353,142.14344 109.55102,142.18527 C 110.2562,142.28281 110.39516,141.5562 109.76558,141.48008 z" />
    <path
       style="fill:#cf1126;stroke:#f7e017;stroke-width:0.01455781"
       id="path649"
       d="M 145.5302,143.45677 C 145.37318,143.45602 144.87752,143.67453 145.04856,144.0167 C 145.21953,144.35863 145.71007,144.36687 145.9343,144.1723 C 146.13425,143.98277 146.08913,143.46014 145.5302,143.45677 L 145.5302,143.45677 z" />
    <path
       style="fill:#cf1126;stroke:#f7e017;stroke-width:0.01455781"
       id="path650"
       d="M 147.47275,141.96447 C 147.5229,142.34059 147.79779,142.2796 148.01647,142.19761 C 148.26514,142.08881 148.33764,141.75974 148.09435,141.63793 C 147.84038,141.51098 147.42134,141.69598 147.47275,141.96447 L 147.47275,141.96447 z" />
    <path
       style="fill:#cf1126;stroke:#f7e017;stroke-width:0.01455781"
       id="path657"
       d="M 136.24211,150.75893 C 135.90741,151.49865 136.19565,152.2224 136.72963,152.08303 C 137.2636,151.94374 137.79783,150.92132 137.40314,150.59612 C 137.00846,150.27091 136.46441,150.26738 136.24211,150.75893 L 136.24211,150.75893 z" />
    <path
       style="fill:#cf1126"
       id="path697"
       d="M 91.184409,120.06199 C 89.938356,119.94866 87.106924,119.382 86.993595,119.94866 C 86.880348,120.51523 88.522601,127.14483 89.372208,127.99468 C 90.221557,128.84462 94.185796,130.65776 94.582165,130.43109 C 94.978528,130.20451 93.789349,126.06822 93.336197,125.33161 C 92.883209,124.59492 91.524075,121.93193 91.637404,121.81851 C 91.750564,121.70526 91.127627,120.062 91.184416,120.062 L 91.184409,120.06199 z" />
    <path
       style="fill:#cf1126;stroke:#000000;stroke-width:0.36394522"
       id="path632"
       d="M 88.691321,119.83608 C 88.994937,118.24105 90.848478,120.1502 90.664994,122.22805 C 90.574594,122.93298 90.968695,123.70958 91.348256,124.08931 M 88.691321,119.83607 L 88.691321,119.83607 L 88.691321,119.83607 z" />
    <path
       style="fill:#cf1126;stroke:#000000;stroke-width:0.36394522"
       id="path633"
       d="M 90.285332,119.91205 L 90.215767,120.00471 C 91.145351,118.43076 92.044187,120.67159 92.182974,123.25393 M 90.285332,119.91205 L 90.285332,119.91205 L 90.285332,119.91205 z" />
    <path
       style="fill:#cf1126;stroke:#000000;stroke-width:0.36394522"
       id="path631"
       d="M 87.087351,119.66665 C 87.033669,118.37775 89.12605,118.0076 88.996587,122.66694 C 89.908866,123.25771 90.982615,125.51333 91.036212,126.319 C 91.720988,126.48013 92.861273,127.32251 93.138926,128.02081 M 87.087351,119.66665 L 87.087351,119.66665 L 87.087351,119.66665 z" />
    <path
       style="fill:#cf1126;stroke:#000000;stroke-width:0.36394522"
       id="path630"
       d="M 92.220055,145.48467 C 92.317929,141.93695 92.373794,134.3401 92.002548,133.51592 C 91.349614,131.99036 88.065111,130.22151 87.064283,127.82298 C 86.062283,125.28567 85.208137,119.49792 85.614756,118.80028 C 86.147388,117.79484 87.923129,120.03558 87.439982,122.50618 C 89.587225,125.0303 89.135829,126.53393 89.533372,126.85637 C 90.857477,127.8766 92.879369,128.57499 93.236923,129.48794 C 93.97294,131.12129 93.076126,127.17847 92.485524,126.3728 C 91.895177,125.56722 90.87528,123.79501 91.573161,123.36546 C 92.270791,122.93566 93.5055,124.06367 93.666466,124.38586 C 93.827516,124.70813 95.491527,126.53411 95.974588,126.96366 C 96.833435,127.60819 99.002608,129.04882 98.959424,130.28386 C 98.957156,132.2803 99.13434,145.41559 99.13434,145.41559 M 92.220048,145.48465 L 92.220048,145.48465 L 92.220048,145.48465 z" />
    <path
       style="fill:#cf1126;stroke:#000000;stroke-width:0.36394522"
       id="path581"
       d="M 91.819595,150.16214 C 91.819595,150.16214 91.805988,151.59017 91.806153,151.61705 C 92.425484,152.37138 95.010756,152.45539 95.589259,152.4522 C 96.155579,152.43565 98.588036,152.47908 99.153516,151.54966 C 99.16696,151.52278 99.188548,150.33671 99.188548,150.01066 M 91.819602,150.16214 L 91.819602,150.16214 L 91.819602,150.16214 z" />
    <path
       style="fill:#cf1126;stroke:#000000;stroke-width:0.36394522"
       id="path637"
       d="M 91.703655,148.05244 C 90.98763,148.21173 90.800452,149.08713 91.305692,149.72443 C 91.715419,150.24144 93.41446,150.83892 95.363936,150.87891 C 97.313417,150.91848 99.899536,150.24186 100.01883,149.16702 C 100.05865,148.09227 99.049845,148.15779 99.169136,148.19769 M 91.703669,148.05244 L 91.703669,148.05244 L 91.703669,148.05244 z" />
    <path
       style="fill:#cf1126;stroke:#000000;stroke-width:0.36394522"
       id="path636"
       d="M 91.703655,146.07504 C 90.98763,146.23433 90.853628,147.13652 91.358955,147.77383 C 91.768681,148.29092 93.493934,149.00779 95.443493,149.0477 C 97.392805,149.08744 99.859796,148.29134 99.97901,147.21659 C 100.01883,146.14175 99.276933,146.23434 99.223074,146.26113 M 91.70362,146.07505 L 91.70362,146.07505 L 91.70362,146.07505 z" />
    <path
       style="fill:#cf1126;stroke:#000000;stroke-width:0.36394522"
       id="path635"
       d="M 95.761593,147.17684 C 98.34754,147.21674 100.01861,145.94288 100.01861,145.26634 C 100.01861,144.58954 99.183113,144.54964 98.665774,144.74867 C 98.148599,144.94769 97.35293,145.4531 95.682034,145.46511 C 93.971483,145.51728 92.459362,144.27098 91.942187,144.3108 C 91.425012,144.35071 91.019744,144.91173 91.186251,145.50494 C 91.391068,146.09343 93.215291,147.25639 95.761586,147.17684 L 95.761593,147.17684 z" />
    <path
       style="fill:#cf1126"
       id="path869"
       d="M 164.81624,120.06199 C 166.06221,119.94866 168.89372,119.382 169.00705,119.94866 C 169.12021,120.51523 167.47788,127.14483 166.62844,127.99468 C 165.77909,128.84462 161.81477,130.65776 161.41832,130.43109 C 161.02203,130.20451 162.2113,126.06822 162.66429,125.33161 C 163.11736,124.59492 164.4765,121.93193 164.36316,121.81851 C 164.25001,121.70526 164.87294,120.062 164.81624,120.062 L 164.81624,120.06199 z" />
    <path
       style="fill:#cf1126;stroke:#000000;stroke-width:0.36394522"
       id="path870"
       d="M 167.30933,119.83608 C 167.00562,118.24105 165.15209,120.1502 165.33557,122.22805 C 165.42597,122.93298 165.03195,123.70958 164.65239,124.08931 M 167.30933,119.83607 L 167.30933,119.83607 L 167.30933,119.83607 z" />
    <path
       style="fill:#cf1126;stroke:#000000;stroke-width:0.36394522"
       id="path871"
       d="M 165.71532,119.91205 L 165.78488,120.00471 C 164.85521,118.43076 163.95638,120.67159 163.8175,123.25393 M 165.71532,119.91205 L 165.71532,119.91205 L 165.71532,119.91205 z" />
    <path
       style="fill:#cf1126;stroke:#000000;stroke-width:0.36394522"
       id="path872"
       d="M 168.91258,119.66665 C 168.96635,118.37775 166.8738,118.0076 167.00335,122.66694 C 166.09107,123.25771 165.01732,125.51333 164.96381,126.319 C 164.27903,126.48013 163.13867,127.32251 162.86101,128.02081 M 168.91258,119.66665 L 168.91258,119.66665 L 168.91258,119.66665 z" />
    <path
       style="fill:#cf1126;stroke:#000000;stroke-width:0.36394522"
       id="path873"
       d="M 163.77988,145.48467 C 163.68218,141.93695 163.62631,134.3401 163.99755,133.51592 C 164.65032,131.99036 167.9349,130.22151 168.93582,127.82298 C 169.93782,125.28567 170.79188,119.49792 170.38518,118.80028 C 169.85263,117.79484 168.07697,120.03558 168.56004,122.50618 C 166.4128,125.0303 166.86419,126.53393 166.46665,126.85637 C 165.14247,127.8766 163.12073,128.57499 162.76301,129.48794 C 162.02699,131.12129 162.9239,127.17847 163.51441,126.3728 C 164.10484,125.56722 165.12466,123.79501 164.42686,123.36546 C 163.72924,122.93566 162.4946,124.06367 162.33356,124.38586 C 162.17251,124.70813 160.50849,126.53411 160.02543,126.96366 C 159.16659,127.60819 156.99741,129.04882 157.0406,130.28386 C 157.04287,132.2803 156.86569,145.41559 156.86569,145.41559 M 163.7799,145.48465 L 163.7799,145.48465 L 163.7799,145.48465 z" />
    <path
       style="fill:#cf1126;stroke:#000000;stroke-width:0.36394522"
       id="path874"
       d="M 164.18105,150.16214 C 164.18105,150.16214 164.19466,151.59017 164.1945,151.61705 C 163.57508,152.37138 160.98997,152.45539 160.4113,152.4522 C 159.84506,152.43565 157.41269,152.47908 156.84721,151.54966 C 156.83377,151.52278 156.81218,150.33671 156.81218,150.01066 M 164.18105,150.16214 L 164.18105,150.16214 L 164.18105,150.16214 z" />
    <path
       style="fill:#cf1126;stroke:#000000;stroke-width:0.36394522"
       id="path876"
       d="M 164.29699,148.05244 C 165.01302,148.21173 165.20012,149.08713 164.69495,149.72443 C 164.28515,150.24144 162.58619,150.83892 160.63663,150.87891 C 158.68723,150.91848 156.10095,150.24186 155.98174,149.16702 C 155.94199,148.09227 156.9508,148.15779 156.83143,148.19769 M 164.29696,148.05244 L 164.29696,148.05244 L 164.29696,148.05244 z" />
    <path
       style="fill:#cf1126;stroke:#000000;stroke-width:0.36394522"
       id="path877"
       d="M 164.29699,146.07504 C 165.01302,146.23433 165.14693,147.13652 164.64161,147.77383 C 164.23197,148.29092 162.50663,149.00779 160.55707,149.0477 C 158.60767,149.08744 156.14085,148.29134 156.02164,147.21659 C 155.98174,146.14175 156.72364,146.23434 156.77757,146.26113 M 164.29703,146.07505 L 164.29703,146.07505 L 164.29703,146.07505 z" />
    <path
       style="fill:#cf1126;stroke:#000000;stroke-width:0.36394522"
       id="path878"
       d="M 160.23906,147.17684 C 157.65311,147.21674 155.98196,145.94288 155.98196,145.26634 C 155.98196,144.58954 156.81745,144.54964 157.33479,144.74867 C 157.85196,144.94769 158.64763,145.4531 160.31853,145.46511 C 162.02899,145.51728 163.5412,144.27098 164.05845,144.3108 C 164.57563,144.35071 164.98081,144.91173 164.81439,145.50494 C 164.60957,146.09343 162.78526,147.25639 160.23906,147.17684 L 160.23906,147.17684 z" />
  </g>
</svg>
