<?xml version="1.0" encoding="UTF-8" standalone="no"?>
<!-- Created with Inkscape (http://www.inkscape.org/) --><svg height="256" id="svg557" inkscape:output_extension="org.inkscape.output.svg.inkscape" inkscape:version="0.46" sodipodi:docname="Flag_of_Croatia.svg" sodipodi:version="0.32" version="1.0" width="256" xmlns="http://www.w3.org/2000/svg" xmlns:cc="http://creativecommons.org/ns#" xmlns:dc="http://purl.org/dc/elements/1.1/" xmlns:inkscape="http://www.inkscape.org/namespaces/inkscape" xmlns:rdf="http://www.w3.org/1999/02/22-rdf-syntax-ns#" xmlns:sodipodi="http://sodipodi.sourceforge.net/DTD/sodipodi-0.dtd" xmlns:svg="http://www.w3.org/2000/svg" xmlns:xlink="http://www.w3.org/1999/xlink">
  <metadata>
    <rdf:RDF xmlns:cc="http://web.resource.org/cc/" xmlns:dc="http://purl.org/dc/elements/1.1/" xmlns:rdf="http://www.w3.org/1999/02/22-rdf-syntax-ns#">
      <cc:Work rdf:about="">
        <dc:title></dc:title>
        <dc:description></dc:description>
        <dc:subject>
          <rdf:Bag>
            <rdf:li>unsorted</rdf:li>
          </rdf:Bag>
        </dc:subject>
        <dc:publisher>
          <cc:Agent rdf:about="http://www.openclipart.org/">
            <dc:title>Open Clip Art Library, Source: Wikimedia Commons</dc:title>
          </cc:Agent>
        </dc:publisher>
        <dc:creator>
          <cc:Agent>
            <dc:title></dc:title>
          </cc:Agent>
        </dc:creator>
        <dc:rights>
          <cc:Agent>
            <dc:title></dc:title>
          </cc:Agent>
        </dc:rights>
        <dc:date></dc:date>
        <dc:format>image/svg+xml</dc:format>
        <dc:type rdf:resource="http://purl.org/dc/dcmitype/StillImage"/>
        <cc:license rdf:resource="http://web.resource.org/cc/PublicDomain"/>
        <dc:language>en</dc:language>
      </cc:Work>
      <cc:License rdf:about="http://web.resource.org/cc/PublicDomain">
        <cc:permits rdf:resource="http://web.resource.org/cc/Reproduction"/>
        <cc:permits rdf:resource="http://web.resource.org/cc/Distribution"/>
        <cc:permits rdf:resource="http://web.resource.org/cc/DerivativeWorks"/>
      </cc:License>
    </rdf:RDF>
  </metadata>
  <sodipodi:namedview bordercolor="#666666" borderopacity="1.0" gridtolerance="10.0" guidetolerance="10.0" id="base" inkscape:current-layer="svg557" inkscape:cx="600" inkscape:cy="300" inkscape:pageopacity="0.0" inkscape:pageshadow="2" inkscape:window-height="707" inkscape:window-width="842" inkscape:window-x="95" inkscape:window-y="87" inkscape:zoom="0.46583333" objecttolerance="10.0" pagecolor="#ffffff" showgrid="false"/>
  <defs id="defs559">
    <inkscape:perspective id="perspective2612" inkscape:persp3d-origin="600 : 200 : 1" inkscape:vp_x="0 : 300 : 1" inkscape:vp_y="0 : 1000 : 0" inkscape:vp_z="1200 : 300 : 1" sodipodi:type="inkscape:persp3d"/>
    <linearGradient gradientUnits="objectBoundingBox" id="linearGradient684" spreadMethod="pad" x1="0" x2="1" y1="0" y2="0">
      <stop id="stop685" offset="0" style="stop-color:#000000;stop-opacity:1"/>
      <stop id="stop686" offset="1" style="stop-color:#ffffff;stop-opacity:1"/>
    </linearGradient>
    <linearGradient gradientUnits="objectBoundingBox" id="linearGradient687" spreadMethod="pad" x1="0" x2="1" xlink:href="#linearGradient684" y1="0" y2="0"/>
  </defs>
  <rect height="42.666668" id="rect675" style="fill:#ffffff" width="256" x="0" y="106.6667"/>
  <rect height="42.666668" id="rect714" style="fill:#00298c" width="256" x="0" y="149.33333"/>
  <rect height="42.666668" id="rect713" style="fill:#de1818" width="256" x="0" y="64.000015"/>
  <path d="M 102.56589,106.05097 C 110.42339,103.25569 119.13549,101.74746 127.65047,101.72598 C 136.16547,101.70451 144.8493,103.04059 153.43002,106.11549 L 159.81717,93.229799 L 155.32778,85.409419 C 155.32778,85.409419 147.31808,88.699349 147.25233,88.699349 C 147.18656,88.699349 141.60474,82.556169 141.60474,82.556169 L 134.43671,86.887139 L 127.70564,81.739409 L 121.37418,86.807729 L 113.98259,82.535329 L 108.59088,88.942439 L 100.50937,85.486809 L 96.182833,93.235719 L 102.56589,106.05097 z" id="path3501" style="font-size:12px;fill:#ffffff;fill-opacity:1;fill-rule:evenodd;stroke:#de1818;stroke-width:0.34145436;stroke-linecap:round;stroke-opacity:1"/>
  <path d="M 143.51225,102.47663 L 147.16962,89.547139 L 155.00195,86.368469 L 159.12828,93.297189 L 153.20385,105.41559 C 149.79824,104.05486 147.97379,103.47189 143.51225,102.47663 z" id="path3503" style="font-size:12px;fill:#087ba5;fill-opacity:1;fill-rule:evenodd;stroke:#3477d9;stroke-width:0.08536348pt;stroke-opacity:1"/>
  <path d="M 112.50795,102.51035 L 109.08934,89.799099 L 114.23299,83.485919 L 121.55196,87.711469 L 122.78717,101.07334 C 119.21101,101.3387 116.62625,101.67836 112.50795,102.51035 z" id="path3505" style="font-size:12px;fill:none;fill-rule:evenodd;stroke-width:1pt;stroke-opacity:0.99607801"/>
  <path d="M 122.88891,101.07651 L 121.65383,87.685979 L 127.87813,82.738009 L 134.38132,87.674009 L 133.23216,101.08854 C 129.64895,100.89905 127.08994,100.90475 122.88891,101.07651 z" id="path3507" style="font-size:12px;fill:#087ba5;fill-opacity:1;fill-rule:evenodd;stroke:#3477d9;stroke-width:0.08536353pt;stroke-opacity:1"/>
  <path d="M 102.87374,105.40796 L 97.071703,93.134929 L 100.94918,86.359809 L 108.98715,89.858469 L 112.38346,102.52026 C 108.71352,103.2792 106.77008,103.89931 102.87374,105.40796 z" id="path3509" style="font-size:12px;fill:#087ba5;fill-opacity:1;fill-rule:evenodd;stroke:#3477d9;stroke-width:0.0853636pt;stroke-opacity:1"/>
  <path d="M 101.6385,99.248119 C 103.41972,99.419769 104.66893,99.326339 106.20377,98.807189 C 108.01604,97.958759 108.5924,96.973139 109.13396,96.174129 C 109.5648,97.729189 109.40082,99.184999 107.35145,100.37465 C 105.5017,101.33337 102.86,101.05042 101.6385,99.248119 z" id="path3511" style="font-size:12px;fill:#ffffff;fill-rule:evenodd;stroke:#ffffff;stroke-width:0.07790115pt"/>
  <path d="M 129.57334,89.765009 L 129.22318,89.850909 L 129.23663,90.485049 L 128.80571,90.577549 L 128.50433,91.136779 L 128.6904,91.309599 C 128.69996,91.328279 128.54363,91.723219 128.55035,91.723219 C 128.55707,91.723219 128.66437,91.872199 128.66437,91.872199 L 128.77882,92.215739 L 129.06831,92.255309 L 129.14243,92.658279 L 129.60023,92.730909 L 130.02442,93.028189 L 130.05132,93.213189 L 130.5361,93.226379 L 130.86609,93.332069 L 132.01741,93.199919 L 132.17228,92.962159 L 132.18573,92.638489 L 132.80521,92.618619 L 132.86183,92.102439 L 133.19011,92.102439 L 133.14926,91.521149 L 133.42306,91.545329 L 133.35239,91.266729 L 133.18218,91.039879 L 133.14857,90.683239 L 132.66379,90.207639 L 132.55606,89.586689 C 132.55606,89.586689 132.24631,89.447939 132.24631,89.441349 C 132.24631,89.434749 132.22615,89.025179 132.22615,89.025179 L 132.57622,88.542989 L 132.54261,88.351479 L 132.21943,88.344799 L 131.97699,88.542989 C 131.97699,88.542989 131.6538,88.576049 131.6538,88.582639 C 131.6538,88.589239 131.6538,88.727989 131.6538,88.727989 C 131.6538,88.727989 131.73465,88.998799 131.73465,89.005399 C 131.73465,89.011989 131.36432,89.005399 131.36432,89.005399 L 131.35078,88.576049 L 130.82567,88.318419 C 130.82567,88.318419 130.33417,88.648679 130.33417,88.655269 C 130.33417,88.661869 130.30719,89.038459 130.30719,89.038459 L 130.07157,89.104489 L 129.82913,88.747769 L 129.40494,88.589239 L 129.17604,88.576049 L 129.16932,88.853459 L 129.61368,89.428159 L 129.57334,89.765009 z" id="path3515" style="font-size:12px;fill:#fffa00;fill-opacity:1;fill-rule:evenodd;stroke:#cca300;stroke-width:0.08536345pt;stroke-opacity:1"/>
  <path d="M 132.87381,92.087979 L 132.77858,91.742329" id="path3517" style="font-size:12px;fill:none;fill-rule:evenodd;stroke:#cca300;stroke-width:0.08536345pt;stroke-opacity:1"/>
  <path d="M 133.14038,91.518099 L 132.97853,91.284569" id="path3519" style="font-size:12px;fill:none;fill-rule:evenodd;stroke:#cca300;stroke-width:0.08536345pt;stroke-opacity:1"/>
  <path d="M 128.70315,91.256579 L 129.20784,91.228509 L 129.30307,91.676889 L 129.4744,91.826379 L 129.50302,92.648469 L 129.66487,92.713829 L 129.71253,92.386869 L 130.10294,92.358879 L 130.17904,93.022099 L 130.08389,93.106229 L 130.12198,93.208959 L 130.58849,93.199659 C 130.58849,93.199659 130.69329,93.022099 130.70277,93.022099 C 130.71234,93.022099 130.96943,92.994119 130.96943,93.003419 C 130.96943,93.012799 131.07414,93.199659 131.07414,93.199659 L 131.15032,92.947359 C 131.15032,92.947359 131.39793,92.844629 131.39793,92.854009 C 131.39793,92.863319 131.59787,93.171589 131.59787,93.171589 L 131.94062,93.124919 L 131.7312,92.928759 L 131.64544,92.498979 L 132.12152,92.246769 L 132.31199,92.564429 C 132.31199,92.564429 132.49289,92.573729 132.4834,92.564429 C 132.47384,92.555039 132.27389,92.200089 132.27389,92.200089 L 132.27389,91.452739 L 132.63578,90.966999 L 133.14038,90.910939 L 133.14038,90.705389 L 132.63578,90.247629 L 132.50245,89.612399 L 132.21675,89.472289 L 132.14057,89.556339 L 131.82634,89.584409 L 132.14057,90.042169 L 132.14057,90.341059 L 132.28346,90.415799 L 132.25485,91.237899 C 132.25485,91.237899 131.90253,91.284569 131.90253,91.293949 C 131.90253,91.303259 131.874,91.751629 131.874,91.751629 L 131.65501,91.966559 C 131.65501,91.966559 131.53117,92.396249 131.52169,92.396249 C 131.51212,92.396249 131.31217,92.657769 131.31217,92.657769 L 130.92176,92.667159 C 130.92176,92.667159 130.69329,92.452309 130.69329,92.442929 C 130.69329,92.433629 130.6552,92.125349 130.6552,92.125349 C 130.6552,92.125349 130.50283,92.078589 130.49326,92.078589 C 130.48378,92.078589 130.4076,91.732949 130.4076,91.732949 L 130.14095,91.583539 L 130.12198,91.377999 L 129.86481,91.265879 C 129.86481,91.265879 129.83629,91.079029 129.82672,91.069719 C 129.81724,91.060339 129.70296,90.985679 129.69348,90.985679 C 129.68391,90.985679 129.68391,90.471859 129.68391,90.471859 L 129.91247,90.434489 L 129.78449,90.270459 L 129.74106,90.126219 L 129.74106,89.976729 L 129.93152,89.789869 C 129.93152,89.789869 129.58868,89.743199 129.58868,89.752499 C 129.58868,89.761879 129.2555,89.901979 129.2555,89.892679 C 129.26498,89.892679 129.24593,90.499849 129.24593,90.499849 L 128.85552,90.621349 L 128.5413,91.116399 L 128.70315,91.256579 z" id="path3521" style="font-size:12px;fill:#cca300;fill-opacity:1;fill-rule:evenodd;stroke:#cca300;stroke-width:0.08536345pt;stroke-opacity:1"/>
  <path d="M 130.67425,92.087979 L 130.93133,91.938489 L 130.92176,91.648899 L 130.67425,91.592849 L 130.57893,91.499419 L 130.85514,91.546169 L 131.1979,91.518099 L 131.31217,91.462039 C 131.2646,91.583539 131.22651,91.574159 131.21694,91.574159 C 131.20746,91.574159 131.02656,91.667589 131.02656,91.667589 L 131.03604,91.947879 C 131.03604,91.947879 131.6264,92.022539 131.61692,92.022539 C 131.60735,92.022539 131.61692,92.134649 131.59787,92.134649 C 131.57882,92.134649 130.98847,92.003849 130.98847,92.003849 L 130.61711,92.228079 L 130.67425,92.087979 z" id="path3523" style="font-size:12px;fill:#663d19;fill-opacity:1;fill-rule:evenodd;stroke:#cca300;stroke-width:0.04266667;stroke-miterlimit:4;stroke-dasharray:none;stroke-opacity:1"/>
  <path d="M 132.15961,90.350449 L 131.81686,90.611959 L 131.59787,90.994979 L 131.48359,91.013669 L 131.15032,90.574589 L 130.76948,90.583979 C 130.76948,90.583979 130.55997,91.097709 130.55997,91.107099 C 130.55997,91.116399 130.4076,91.088409 130.4076,91.088409 L 130.00771,90.658719 C 130.00771,90.658719 129.88386,90.443789 129.90291,90.443789 C 129.92195,90.443789 130.90272,90.453179 130.90272,90.453179 L 130.89324,89.986109 C 130.89324,89.986109 130.74087,89.939359 130.66468,89.892679 C 130.72182,89.873999 131.20746,89.873999 131.20746,89.873999 L 130.99795,90.014099 L 130.99795,90.415799 L 131.86444,90.425099 L 132.15961,90.350449 z" id="path3525" style="font-size:12px;fill:#cca300;fill-opacity:1;fill-rule:evenodd;stroke:#cca300;stroke-width:0.08536345pt;stroke-opacity:1"/>
  <rect height="0.22419645" id="rect3527" rx="0.072105102" ry="0.070736177" style="font-size:12px;fill:#663d19;fill-opacity:1;fill-rule:evenodd;stroke-width:1pt" width="0.2285243" x="130.31238" y="90.5746"/>
  <rect height="0.22419645" id="rect3529" rx="0.072105102" ry="0.070736177" style="font-size:12px;fill:#663d19;fill-opacity:1;fill-rule:evenodd;stroke-width:1pt" width="0.2285243" x="131.39789" y="90.527878"/>
  <path d="M 129.7982,89.827239 C 130.15999,89.684009 130.41708,89.568849 130.86463,89.528349 C 131.28675,89.484719 131.61373,89.543909 131.9882,89.612399" id="path3531" style="font-size:12px;fill:none;fill-rule:evenodd;stroke:#cca300;stroke-width:0.08536345pt;stroke-opacity:1"/>
  <path d="M 129.99814,89.070589 L 129.70296,89.070589 L 129.28394,88.631509 L 129.52206,88.659579 L 129.7982,88.780999 L 129.99814,89.070589 z" id="path3533" style="font-size:12px;fill:#cca300;fill-opacity:1;fill-rule:evenodd;stroke:#cca300;stroke-width:0.08536345pt;stroke-opacity:1"/>
  <path d="M 131.77877,88.902419 L 132.44531,88.398069 L 132.22632,88.369999 L 131.97872,88.594139 L 131.68354,88.640899 L 131.77877,88.902419 z" id="path3535" style="font-size:12px;fill:#cca300;fill-opacity:1;fill-rule:evenodd;stroke:#cca300;stroke-width:0.08536345pt;stroke-opacity:1"/>
  <path d="M 131.38577,88.995089 L 130.34098,89.033219 L 130.35046,88.921099 L 130.73139,88.883729 L 130.77896,88.734329 C 130.77896,88.734329 130.89324,88.725029 130.89324,88.734329 C 130.89324,88.743709 130.9789,88.874429 130.9789,88.874429 L 131.35027,88.939789 L 131.38577,88.995089 z" id="path3537" style="font-size:12px;fill:#cca300;fill-opacity:1;fill-rule:evenodd;stroke:#cca300;stroke-width:0.08536345pt;stroke-opacity:1"/>
  <path d="M 131.33122,88.603529 L 130.96943,88.612829 L 130.94081,88.416669 L 131.33122,88.603529 z" id="path3539" style="font-size:12px;fill:#cca300;fill-opacity:1;fill-rule:evenodd;stroke:#cca300;stroke-width:0.08536345pt;stroke-opacity:1"/>
  <path d="M 130.72182,88.426049 L 130.69321,88.622129 L 130.34098,88.678189 L 130.72182,88.426049 z" id="path3541" style="font-size:12px;fill:#cca300;fill-opacity:1;fill-rule:evenodd;stroke:#cca300;stroke-width:0.08536345pt;stroke-opacity:1"/>
  <path d="M 128.7222,92.003849 L 128.9031,91.555469 L 128.74124,91.247199 L 128.57939,91.704959 L 128.7222,92.003849 z" id="path3543" style="font-size:12px;fill:#cca300;fill-opacity:1;fill-rule:evenodd;stroke:#cca300;stroke-width:0.08536345pt;stroke-opacity:1"/>
  <path d="M 129.08404,92.246799 L 129.30303,91.714299 L 128.88409,92.143989 L 129.08404,92.246799 z" id="path3545" style="font-size:12px;fill:#cca300;fill-opacity:1;fill-rule:evenodd;stroke:#cca300;stroke-width:0.08536345pt;stroke-opacity:1"/>
  <path d="M 123.79309,89.951719 L 123.44293,90.037629 L 123.45637,90.671759 L 123.02546,90.764259 L 122.72407,91.323479 L 122.91014,91.496309 C 122.91971,91.514989 122.76337,91.909929 122.7701,91.909929 C 122.77682,91.909929 122.88412,92.058909 122.88412,92.058909 L 122.99857,92.402449 L 123.28806,92.442019 L 123.36218,92.844989 L 123.81998,92.917619 L 124.24417,93.214899 L 124.27106,93.399899 L 124.75584,93.413089 L 125.08584,93.518779 L 126.23716,93.386629 L 126.39203,93.148869 L 126.40548,92.825199 L 127.02496,92.805329 L 127.08158,92.289149 L 127.40985,92.289149 L 127.369,91.707859 L 127.64281,91.732039 L 127.57214,91.453439 L 127.40193,91.226589 L 127.36831,90.869949 L 126.88353,90.394349 L 126.77581,89.773399 C 126.77581,89.773399 126.46606,89.634649 126.46606,89.628059 C 126.46606,89.621459 126.4459,89.211899 126.4459,89.211899 L 126.79597,88.729699 L 126.76236,88.538189 L 126.43917,88.531509 L 126.19674,88.729699 C 126.19674,88.729699 125.87355,88.762759 125.87355,88.769349 C 125.87355,88.775949 125.87355,88.914699 125.87355,88.914699 C 125.87355,88.914699 125.95439,89.185519 125.95439,89.192109 C 125.95439,89.198709 125.58406,89.192109 125.58406,89.192109 L 125.57053,88.762759 L 125.04542,88.505129 C 125.04542,88.505129 124.55392,88.835389 124.55392,88.841979 C 124.55392,88.848579 124.52694,89.225169 124.52694,89.225169 L 124.29132,89.291209 L 124.04888,88.934479 L 123.62469,88.775949 L 123.39579,88.762759 L 123.38906,89.040169 L 123.83343,89.614869 L 123.79309,89.951719 z" id="path3549" style="font-size:12px;fill:#fffa00;fill-opacity:1;fill-rule:evenodd;stroke:#cca300;stroke-width:0.08536345pt;stroke-opacity:1"/>
  <path d="M 127.09356,92.274689 L 126.99833,91.929039" id="path3551" style="font-size:12px;fill:none;fill-rule:evenodd;stroke:#cca300;stroke-width:0.08536345pt;stroke-opacity:1"/>
  <path d="M 127.36013,91.704809 L 127.19827,91.471279" id="path3553" style="font-size:12px;fill:none;fill-rule:evenodd;stroke:#cca300;stroke-width:0.08536345pt;stroke-opacity:1"/>
  <path d="M 122.9229,91.443289 L 123.42759,91.415219 L 123.52282,91.863599 L 123.69415,92.013089 L 123.72276,92.835179 L 123.88462,92.900539 L 123.93228,92.573579 L 124.32269,92.545589 L 124.39879,93.208819 L 124.30364,93.292939 L 124.34173,93.395669 L 124.80824,93.386369 C 124.80824,93.386369 124.91304,93.208819 124.92252,93.208819 C 124.93209,93.208819 125.18917,93.180829 125.18917,93.190129 C 125.18917,93.199509 125.29389,93.386369 125.29389,93.386369 L 125.37007,93.134069 C 125.37007,93.134069 125.61767,93.031339 125.61767,93.040729 C 125.61767,93.050029 125.81762,93.358299 125.81762,93.358299 L 126.16037,93.311629 L 125.95095,93.115469 L 125.86519,92.685689 L 126.34127,92.433479 L 126.53173,92.751139 C 126.53173,92.751139 126.71263,92.760439 126.70315,92.751139 C 126.69359,92.741749 126.49364,92.386809 126.49364,92.386809 L 126.49364,91.639449 L 126.85552,91.153709 L 127.36013,91.097649 L 127.36013,90.892099 L 126.85552,90.434339 L 126.7222,89.799109 L 126.4365,89.658999 L 126.36032,89.743049 L 126.04609,89.771119 L 126.36032,90.228879 L 126.36032,90.527769 L 126.50321,90.602509 L 126.47459,91.424609 C 126.47459,91.424609 126.12228,91.471279 126.12228,91.480669 C 126.12228,91.489969 126.09375,91.938339 126.09375,91.938339 L 125.87476,92.153269 C 125.87476,92.153269 125.75091,92.582959 125.74143,92.582959 C 125.73187,92.582959 125.53192,92.844479 125.53192,92.844479 L 125.14151,92.853869 C 125.14151,92.853869 124.91304,92.639019 124.91304,92.629639 C 124.91304,92.620339 124.87495,92.312059 124.87495,92.312059 C 124.87495,92.312059 124.72258,92.265299 124.71301,92.265299 C 124.70353,92.265299 124.62735,91.919659 124.62735,91.919659 L 124.36069,91.770259 L 124.34173,91.564709 L 124.08456,91.452599 C 124.08456,91.452599 124.05604,91.265739 124.04647,91.256439 C 124.03699,91.247049 123.92271,91.172389 123.91323,91.172389 C 123.90366,91.172389 123.90366,90.658569 123.90366,90.658569 L 124.13222,90.621199 L 124.00424,90.457169 L 123.9608,90.312929 L 123.9608,90.163439 L 124.15127,89.976579 C 124.15127,89.976579 123.80843,89.929909 123.80843,89.939209 C 123.80843,89.948589 123.47525,90.088689 123.47525,90.079389 C 123.48473,90.079389 123.46568,90.686559 123.46568,90.686559 L 123.07527,90.808059 L 122.76105,91.303109 L 122.9229,91.443289 z" id="path3555" style="font-size:12px;fill:#cca300;fill-opacity:1;fill-rule:evenodd;stroke:#cca300;stroke-width:0.08536345pt;stroke-opacity:1"/>
  <path d="M 124.89399,92.274689 L 125.15108,92.125199 L 125.14151,91.835609 L 124.89399,91.779559 L 124.79868,91.686129 L 125.07489,91.732879 L 125.41764,91.704809 L 125.53192,91.648759 C 125.48435,91.770259 125.44626,91.760869 125.43669,91.760869 C 125.42721,91.760869 125.24631,91.854299 125.24631,91.854299 L 125.25579,92.134589 C 125.25579,92.134589 125.84615,92.209249 125.83667,92.209249 C 125.8271,92.209249 125.83667,92.321359 125.81762,92.321359 C 125.79857,92.321359 125.20822,92.190559 125.20822,92.190559 L 124.83686,92.414789 L 124.89399,92.274689 z" id="path3557" style="font-size:12px;fill:#663d19;fill-opacity:1;fill-rule:evenodd;stroke:#cca300;stroke-width:0.04266667;stroke-miterlimit:4;stroke-dasharray:none;stroke-opacity:1"/>
  <path d="M 126.37936,90.537159 L 126.03661,90.798669 L 125.81762,91.181689 L 125.70334,91.200379 L 125.37007,90.761299 L 124.98923,90.770689 C 124.98923,90.770689 124.77972,91.284419 124.77972,91.293809 C 124.77972,91.303109 124.62735,91.275119 124.62735,91.275119 L 124.22745,90.845429 C 124.22745,90.845429 124.10361,90.630499 124.12266,90.630499 C 124.1417,90.630499 125.12247,90.639889 125.12247,90.639889 L 125.11299,90.172819 C 125.11299,90.172819 124.96061,90.126069 124.88443,90.079389 C 124.94157,90.060709 125.42721,90.060709 125.42721,90.060709 L 125.2177,90.200809 L 125.2177,90.602509 L 126.08419,90.611819 L 126.37936,90.537159 z" id="path3559" style="font-size:12px;fill:#cca300;fill-opacity:1;fill-rule:evenodd;stroke:#cca300;stroke-width:0.08536345pt;stroke-opacity:1"/>
  <rect height="0.22419645" id="rect3561" rx="0.072105102" ry="0.070736177" style="font-size:12px;fill:#663d19;fill-opacity:1;fill-rule:evenodd;stroke-width:1pt" width="0.2285243" x="124.53214" y="90.761307"/>
  <rect height="0.22419645" id="rect3563" rx="0.072105102" ry="0.070736177" style="font-size:12px;fill:#663d19;fill-opacity:1;fill-rule:evenodd;stroke-width:1pt" width="0.2285243" x="125.61765" y="90.714615"/>
  <path d="M 124.01794,90.013949 C 124.37974,89.870719 124.63682,89.755559 125.08437,89.715059 C 125.5065,89.671429 125.83348,89.730619 126.20794,89.799109" id="path3565" style="font-size:12px;fill:none;fill-rule:evenodd;stroke:#cca300;stroke-width:0.08536345pt;stroke-opacity:1"/>
  <path d="M 124.21789,89.257299 L 123.92271,89.257299 L 123.50369,88.818219 L 123.74181,88.846289 L 124.01794,88.967709 L 124.21789,89.257299 z" id="path3567" style="font-size:12px;fill:#cca300;fill-opacity:1;fill-rule:evenodd;stroke:#cca300;stroke-width:0.08536345pt;stroke-opacity:1"/>
  <path d="M 125.99852,89.089129 L 126.66506,88.584779 L 126.44607,88.556709 L 126.19846,88.780849 L 125.90329,88.827609 L 125.99852,89.089129 z" id="path3569" style="font-size:12px;fill:#cca300;fill-opacity:1;fill-rule:evenodd;stroke:#cca300;stroke-width:0.08536345pt;stroke-opacity:1"/>
  <path d="M 125.60552,89.181789 L 124.56073,89.219929 L 124.5702,89.107809 L 124.95113,89.070439 L 124.99871,88.921039 C 124.99871,88.921039 125.11299,88.911739 125.11299,88.921039 C 125.11299,88.930419 125.19865,89.061139 125.19865,89.061139 L 125.57002,89.126499 L 125.60552,89.181789 z" id="path3571" style="font-size:12px;fill:#cca300;fill-opacity:1;fill-rule:evenodd;stroke:#cca300;stroke-width:0.08536345pt;stroke-opacity:1"/>
  <path d="M 125.55097,88.790239 L 125.18917,88.799539 L 125.16056,88.603379 L 125.55097,88.790239 z" id="path3573" style="font-size:12px;fill:#cca300;fill-opacity:1;fill-rule:evenodd;stroke:#cca300;stroke-width:0.08536345pt;stroke-opacity:1"/>
  <path d="M 124.94157,88.612759 L 124.91296,88.808839 L 124.56073,88.864899 L 124.94157,88.612759 z" id="path3575" style="font-size:12px;fill:#cca300;fill-opacity:1;fill-rule:evenodd;stroke:#cca300;stroke-width:0.08536345pt;stroke-opacity:1"/>
  <path d="M 122.94195,92.190559 L 123.12284,91.742189 L 122.96099,91.433909 L 122.79914,91.891669 L 122.94195,92.190559 z" id="path3577" style="font-size:12px;fill:#cca300;fill-opacity:1;fill-rule:evenodd;stroke:#cca300;stroke-width:0.08536345pt;stroke-opacity:1"/>
  <path d="M 123.30379,92.433519 L 123.52278,91.901009 L 123.10384,92.330699 L 123.30379,92.433519 z" id="path3579" style="font-size:12px;fill:#cca300;fill-opacity:1;fill-rule:evenodd;stroke:#cca300;stroke-width:0.08536345pt;stroke-opacity:1"/>
  <path d="M 133.32443,101.0703 L 134.4816,87.640139 L 141.59324,83.548259 L 147.09058,89.506659 L 143.42685,102.44563 C 139.87565,101.7204 137.84948,101.40963 133.32443,101.0703 z" id="path3581" style="font-size:12px;fill:#00298c;fill-opacity:1;fill-rule:evenodd;stroke:#000082;stroke-width:0.08536341pt;stroke-opacity:1"/>
  <path d="M 126.79025,94.969149 L 126.44009,95.055049 L 126.45353,95.689189 L 126.02262,95.781689 L 125.72124,96.340909 L 125.9073,96.513739 C 125.91687,96.532419 125.76054,96.927359 125.76726,96.927359 C 125.77398,96.927359 125.88128,97.076339 125.88128,97.076339 L 125.99573,97.419869 L 126.28522,97.459439 L 126.35934,97.862419 L 126.81714,97.935049 L 127.24133,98.232329 L 127.26822,98.417329 L 127.753,98.430519 L 128.083,98.536209 L 129.23432,98.404049 L 129.38919,98.166289 L 129.40264,97.842629 L 130.02212,97.822759 L 130.07874,97.306569 L 130.40701,97.306569 L 130.36617,96.725279 L 130.63997,96.749459 L 130.5693,96.470869 L 130.39909,96.244019 L 130.36547,95.887379 L 129.8807,95.411769 L 129.77297,94.790829 C 129.77297,94.790829 129.46322,94.652079 129.46322,94.645489 C 129.46322,94.638889 129.44306,94.229319 129.44306,94.229319 L 129.79313,93.747129 L 129.75952,93.555619 L 129.43633,93.548939 L 129.1939,93.747129 C 129.1939,93.747129 128.87071,93.780179 128.87071,93.786779 C 128.87071,93.793369 128.87071,93.932119 128.87071,93.932119 C 128.87071,93.932119 128.95155,94.202939 128.95155,94.209539 C 128.95155,94.216129 128.58122,94.209539 128.58122,94.209539 L 128.56769,93.780179 L 128.04258,93.522559 C 128.04258,93.522559 127.55108,93.852809 127.55108,93.859409 C 127.55108,93.865999 127.5241,94.242599 127.5241,94.242599 L 127.28848,94.308629 L 127.04604,93.951909 L 126.62185,93.793369 L 126.39295,93.780179 L 126.38623,94.057599 L 126.83059,94.632299 L 126.79025,94.969149 z" id="path3585" style="font-size:12px;fill:#fffa00;fill-opacity:1;fill-rule:evenodd;stroke:#cca300;stroke-width:0.08536345pt;stroke-opacity:1"/>
  <path d="M 130.09072,97.292119 L 129.99549,96.946469" id="path3587" style="font-size:12px;fill:none;fill-rule:evenodd;stroke:#cca300;stroke-width:0.08536345pt;stroke-opacity:1"/>
  <path d="M 130.35729,96.722239 L 130.19543,96.488709" id="path3589" style="font-size:12px;fill:none;fill-rule:evenodd;stroke:#cca300;stroke-width:0.08536345pt;stroke-opacity:1"/>
  <path d="M 125.92006,96.460719 L 126.42475,96.432649 L 126.51998,96.881029 L 126.69131,97.030509 L 126.71993,97.852609 L 126.88178,97.917969 L 126.92944,97.591009 L 127.31985,97.563019 L 127.39595,98.226239 L 127.3008,98.310369 L 127.33889,98.413099 L 127.8054,98.403799 C 127.8054,98.403799 127.9102,98.226239 127.91968,98.226239 C 127.92925,98.226239 128.18633,98.198259 128.18633,98.207549 C 128.18633,98.216939 128.29105,98.403799 128.29105,98.403799 L 128.36723,98.151499 C 128.36723,98.151499 128.61484,98.048769 128.61484,98.058149 C 128.61484,98.067449 128.81478,98.375729 128.81478,98.375729 L 129.15753,98.329059 L 128.94811,98.132899 L 128.86235,97.703119 L 129.33843,97.450899 L 129.52889,97.768559 C 129.52889,97.768559 129.70979,97.777869 129.70031,97.768559 C 129.69075,97.759179 129.4908,97.404229 129.4908,97.404229 L 129.4908,96.656879 L 129.85268,96.171129 L 130.35729,96.115069 L 130.35729,95.909529 L 129.85268,95.451769 L 129.71936,94.816529 L 129.43366,94.676429 L 129.35748,94.760469 L 129.04325,94.788549 L 129.35748,95.246309 L 129.35748,95.545199 L 129.50037,95.619939 L 129.47175,96.442039 C 129.47175,96.442039 129.11944,96.488709 129.11944,96.498089 C 129.11944,96.507389 129.09091,96.955769 129.09091,96.955769 L 128.87192,97.170699 C 128.87192,97.170699 128.74807,97.600389 128.73859,97.600389 C 128.72903,97.600389 128.52908,97.861909 128.52908,97.861909 L 128.13867,97.871289 C 128.13867,97.871289 127.9102,97.656449 127.9102,97.647059 C 127.9102,97.637759 127.87211,97.329489 127.87211,97.329489 C 127.87211,97.329489 127.71974,97.282729 127.71017,97.282729 C 127.70069,97.282729 127.62451,96.937079 127.62451,96.937079 L 127.35785,96.787679 L 127.33889,96.582139 L 127.08172,96.470019 C 127.08172,96.470019 127.0532,96.283159 127.04363,96.273859 C 127.03415,96.264479 126.91987,96.189819 126.91039,96.189819 C 126.90082,96.189819 126.90082,95.675999 126.90082,95.675999 L 127.12938,95.638629 L 127.0014,95.474599 L 126.95796,95.330349 L 126.95796,95.180859 L 127.14843,94.994009 C 127.14843,94.994009 126.80559,94.947329 126.80559,94.956629 C 126.80559,94.966019 126.47241,95.106119 126.47241,95.096819 C 126.48189,95.096819 126.46284,95.703989 126.46284,95.703989 L 126.07243,95.825489 L 125.75821,96.320529 L 125.92006,96.460719 z" id="path3591" style="font-size:12px;fill:#cca300;fill-opacity:1;fill-rule:evenodd;stroke:#cca300;stroke-width:0.08536345pt;stroke-opacity:1"/>
  <path d="M 127.89116,97.292119 L 128.14824,97.142629 L 128.13867,96.853039 L 127.89116,96.796979 L 127.79584,96.703549 L 128.07205,96.750309 L 128.41481,96.722239 L 128.52908,96.666179 C 128.48151,96.787679 128.44342,96.778299 128.43385,96.778299 C 128.42437,96.778299 128.24347,96.871729 128.24347,96.871729 L 128.25295,97.152009 C 128.25295,97.152009 128.84331,97.226669 128.83383,97.226669 C 128.82426,97.226669 128.83383,97.338789 128.81478,97.338789 C 128.79573,97.338789 128.20538,97.207989 128.20538,97.207989 L 127.83402,97.432219 L 127.89116,97.292119 z" id="path3593" style="font-size:12px;fill:#663d19;fill-opacity:1;fill-rule:evenodd;stroke:#cca300;stroke-width:0.04266667;stroke-miterlimit:4;stroke-dasharray:none;stroke-opacity:1"/>
  <path d="M 129.37652,95.554579 L 129.03377,95.816099 L 128.81478,96.199119 L 128.7005,96.217809 L 128.36723,95.778729 L 127.98639,95.788109 C 127.98639,95.788109 127.77688,96.301849 127.77688,96.311229 C 127.77688,96.320529 127.62451,96.292549 127.62451,96.292549 L 127.22461,95.862859 C 127.22461,95.862859 127.10077,95.647929 127.11982,95.647929 C 127.13886,95.647929 128.11963,95.657309 128.11963,95.657309 L 128.11015,95.190249 C 128.11015,95.190249 127.95777,95.143489 127.88159,95.096819 C 127.93873,95.078129 128.42437,95.078129 128.42437,95.078129 L 128.21486,95.218239 L 128.21486,95.619939 L 129.08135,95.629239 L 129.37652,95.554579 z" id="path3595" style="font-size:12px;fill:#cca300;fill-opacity:1;fill-rule:evenodd;stroke:#cca300;stroke-width:0.08536345pt;stroke-opacity:1"/>
  <rect height="0.22419645" id="rect3597" rx="0.072105102" ry="0.070736177" style="font-size:12px;fill:#663d19;fill-opacity:1;fill-rule:evenodd;stroke-width:1pt" width="0.2285243" x="127.5293" y="95.778732"/>
  <rect height="0.22419645" id="rect3599" rx="0.072105102" ry="0.070736177" style="font-size:12px;fill:#663d19;fill-opacity:1;fill-rule:evenodd;stroke-width:1pt" width="0.2285243" x="128.61481" y="95.73204"/>
  <path d="M 127.0151,95.031379 C 127.3769,94.888149 127.63398,94.772989 128.08153,94.732489 C 128.50366,94.688859 128.83064,94.748049 129.20511,94.816529" id="path3601" style="font-size:12px;fill:none;fill-rule:evenodd;stroke:#cca300;stroke-width:0.08536345pt;stroke-opacity:1"/>
  <path d="M 127.21505,94.274729 L 126.91987,94.274729 L 126.50085,93.835649 L 126.73897,93.863719 L 127.0151,93.985139 L 127.21505,94.274729 z" id="path3603" style="font-size:12px;fill:#cca300;fill-opacity:1;fill-rule:evenodd;stroke:#cca300;stroke-width:0.08536345pt;stroke-opacity:1"/>
  <path d="M 128.99568,94.106549 L 129.66222,93.602199 L 129.44323,93.574129 L 129.19562,93.798279 L 128.90045,93.845039 L 128.99568,94.106549 z" id="path3605" style="font-size:12px;fill:#cca300;fill-opacity:1;fill-rule:evenodd;stroke:#cca300;stroke-width:0.08536345pt;stroke-opacity:1"/>
  <path d="M 128.60268,94.199219 L 127.55789,94.237359 L 127.56736,94.125239 L 127.94829,94.087869 L 127.99587,93.938459 C 127.99587,93.938459 128.11015,93.929169 128.11015,93.938459 C 128.11015,93.947849 128.19581,94.078569 128.19581,94.078569 L 128.56718,94.143929 L 128.60268,94.199219 z" id="path3607" style="font-size:12px;fill:#cca300;fill-opacity:1;fill-rule:evenodd;stroke:#cca300;stroke-width:0.08536345pt;stroke-opacity:1"/>
  <path d="M 128.54813,93.807659 L 128.18633,93.816969 L 128.15772,93.620809 L 128.54813,93.807659 z" id="path3609" style="font-size:12px;fill:#cca300;fill-opacity:1;fill-rule:evenodd;stroke:#cca300;stroke-width:0.08536345pt;stroke-opacity:1"/>
  <path d="M 127.93873,93.630189 L 127.91012,93.826269 L 127.55789,93.882319 L 127.93873,93.630189 z" id="path3611" style="font-size:12px;fill:#cca300;fill-opacity:1;fill-rule:evenodd;stroke:#cca300;stroke-width:0.08536345pt;stroke-opacity:1"/>
  <path d="M 125.93911,97.207989 L 126.12,96.759609 L 125.95815,96.451339 L 125.7963,96.909099 L 125.93911,97.207989 z" id="path3613" style="font-size:12px;fill:#cca300;fill-opacity:1;fill-rule:evenodd;stroke:#cca300;stroke-width:0.08536345pt;stroke-opacity:1"/>
  <path d="M 126.30095,97.450939 L 126.51994,96.918439 L 126.101,97.348129 L 126.30095,97.450939 z" id="path3615" style="font-size:12px;fill:#cca300;fill-opacity:1;fill-rule:evenodd;stroke:#cca300;stroke-width:0.08536345pt;stroke-opacity:1"/>
  <path d="M 135.0873,98.664869 L 134.73086,99.081799 L 134.75826,99.431499 L 135.49857,99.418059 C 135.73619,99.361999 135.79557,99.279049 135.84132,99.182669 C 135.91441,99.063869 135.86416,98.998849 135.88244,98.839729 L 135.0873,98.664869 z" id="path3617" style="font-size:12px;fill:#de1818;fill-opacity:1;fill-rule:evenodd;stroke:#e61717;stroke-width:0.0853636pt;stroke-opacity:1"/>
  <path d="M 136.84508,99.651879 L 136.51825,99.904749 L 136.48797,100.22613 L 137.14444,100.27449 C 137.38624,100.24097 137.42199,100.20153 137.47659,100.10995 C 137.56051,99.998449 137.53764,99.998589 137.57077,99.841879 L 136.84508,99.651879 z" id="path3619" style="font-size:12px;fill:#de1818;fill-opacity:1;fill-rule:evenodd;stroke:#e61717;stroke-width:0.0853636pt;stroke-opacity:1"/>
  <path d="M 139.7622,98.812819 L 139.41945,99.162519 L 139.43315,99.431479 L 140.13235,99.458369 C 140.36996,99.402309 140.33333,99.413559 140.40649,99.290279 C 140.47958,99.171479 140.45683,99.146789 140.47511,98.987659 L 139.7622,98.812819 z" id="path3621" style="font-size:12px;fill:#de1818;fill-opacity:1;fill-rule:evenodd;stroke:#e61717;stroke-width:0.0853636pt;stroke-opacity:1"/>
  <path d="M 141.80484,99.444969 L 141.40729,99.781149 L 141.40729,100.11741 L 142.14759,100.18472 C 142.3852,100.12866 142.40349,100.05915 142.46293,99.976209 C 142.536,99.857409 142.49947,99.846169 142.51774,99.687039 L 141.80484,99.444969 z" id="path3623" style="font-size:12px;fill:#de1818;fill-opacity:1;fill-rule:evenodd;stroke:#e61717;stroke-width:0.0853636pt;stroke-opacity:1"/>
  <path d="M 136.82838,90.648769 L 138.22671,91.576819 C 138.48958,91.358759 139.03641,91.490909 139.25056,91.551369 C 139.63511,91.651729 139.90615,91.879419 140.24203,91.939959 C 140.85633,92.094359 141.59233,92.200979 142.14976,92.140429 C 142.7073,92.079979 143.17552,91.788619 143.58704,91.576819 L 143.58704,91.442379 L 143.31289,91.442379 C 142.86784,91.602519 142.24423,91.611309 141.76669,91.548569 C 141.28914,91.485839 141.16047,91.271759 140.44765,91.065789 L 140.39283,90.931259 C 141.25813,90.972349 141.43383,90.949949 141.79608,90.792009 C 142.1502,90.697979 142.30975,90.492439 142.50967,90.350479 L 142.50407,90.191519 L 142.24355,90.178069 C 141.90795,90.401629 141.69403,90.442039 141.17985,90.394949 C 140.71198,90.347599 140.29055,90.081259 139.97664,90.075679 C 139.64374,90.078219 139.65942,89.919179 139.33744,89.903539 C 138.82559,89.858729 138.2724,89.926959 137.78804,90.043549 C 137.20768,90.218409 137.12079,90.366289 136.82838,90.648769 z" id="path3625" style="font-size:12px;fill:#de1818;fill-opacity:1;fill-rule:evenodd;stroke:#cc0000;stroke-width:0.0853636pt;stroke-opacity:1"/>
  <path d="M 137.09995,90.442979 C 137.23379,90.473419 137.38393,90.511969 137.49338,90.574279 C 137.60293,90.636599 137.57455,90.635329 137.69219,90.721489 C 137.67332,90.610139 137.67867,90.618079 137.60299,90.530569 C 137.52722,90.442979 137.40281,90.363419 137.30282,90.291709 L 137.09995,90.442979 z" id="path3627" style="font-size:12px;fill:#8e3737;fill-opacity:1;fill-rule:evenodd;stroke:#8f3636;stroke-width:0.0853636pt;stroke-opacity:1"/>
  <path d="M 138.26826,91.445839 C 138.27091,91.325189 138.20877,91.220349 138.16277,91.115589 C 138.11683,91.010829 138.07891,90.921879 137.99239,90.817119 C 138.10054,90.847559 138.16008,90.893979 138.25204,91.004059 C 138.34391,91.114229 138.33858,91.224319 138.35745,91.382089 L 138.26826,91.445839 z" id="path3629" style="font-size:12px;fill:#8e3737;fill-opacity:1;fill-rule:evenodd;stroke:#8f3636;stroke-width:0.0853636pt;stroke-opacity:1"/>
  <path d="M 138.53602,89.973379 C 138.5685,90.056999 138.6322,90.114409 138.68614,90.292809 C 138.73279,90.454899 138.75502,90.681749 138.75502,90.681749 C 138.73743,90.561009 138.76854,90.424379 138.75096,90.303639 C 138.73337,90.182979 138.6671,90.078139 138.64953,89.957399 L 138.53602,89.973379 z" id="path3631" style="font-size:12px;fill:#8e3737;fill-opacity:1;fill-rule:evenodd;stroke:#8f3636;stroke-width:0.0853636pt;stroke-opacity:1"/>
  <path d="M 139.6718,90.044989 L 139.72859,90.713629 L 139.79356,90.084819 L 139.6718,90.044989 z" id="path3633" style="font-size:12px;fill:#8e3737;fill-opacity:1;fill-rule:evenodd;stroke:#8f3636;stroke-width:0.0853636pt;stroke-opacity:1"/>
  <path d="M 139.39597,91.429939 C 139.42304,91.321199 139.41764,91.212379 139.40407,91.103569 C 139.39057,90.994829 139.35263,90.901989 139.31481,90.777279 C 139.42297,90.870119 139.46631,90.986889 139.52578,91.111599 C 139.52578,91.236219 139.49338,91.344959 139.39597,91.429939 z" id="path3635" style="font-size:12px;fill:#8e3737;fill-opacity:1;fill-rule:evenodd;stroke:#8f3636;stroke-width:0.0853636pt;stroke-opacity:1"/>
  <path d="M 140.57238,91.135419 C 140.57642,91.135419 140.60695,91.362269 140.55523,91.525459 C 140.50353,91.688639 140.467,91.700559 140.36959,91.788149 C 140.49937,91.692699 140.61298,91.660819 140.65355,91.557329 C 140.69415,91.398119 140.58858,91.159349 140.57238,91.135419 z" id="path3637" style="font-size:12px;fill:#8e3737;fill-opacity:1;fill-rule:evenodd;stroke:#8f3636;stroke-width:0.0853636pt;stroke-opacity:1"/>
  <path d="M 140.77516,90.920569 C 140.69407,90.933849 140.67785,90.596829 140.62918,90.434989 C 140.66434,90.416389 140.69951,90.421719 140.73466,90.498659 C 140.77248,90.543809 140.76165,90.779959 140.77516,90.920569 z" id="path3639" style="font-size:12px;fill:#8e3737;fill-opacity:1;fill-rule:evenodd;stroke:#8f3636;stroke-width:0.0853636pt;stroke-opacity:1"/>
  <path d="M 141.57836,90.785199 L 141.61087,90.506589 L 141.70006,90.498649 C 141.70006,90.498649 141.70006,90.729469 141.70006,90.737419 C 141.70006,90.745449 141.58655,90.793139 141.57836,90.785199 z" id="path3641" style="font-size:12px;fill:#8e3737;fill-opacity:1;fill-rule:evenodd;stroke:#8f3636;stroke-width:0.0853636pt;stroke-opacity:1"/>
  <path d="M 141.51346,91.533399 C 141.56491,91.618279 141.65679,91.719149 141.66764,91.811989 C 141.67849,91.904829 141.64869,91.949979 141.57843,92.090589 L 141.70823,92.098539 C 141.77847,91.985829 141.8002,91.904909 141.78942,91.816049 C 141.77855,91.727099 141.73521,91.638239 141.64335,91.565269 L 141.51346,91.533399 z" id="path3643" style="font-size:12px;fill:#8e3737;fill-opacity:1;fill-rule:evenodd;stroke:#8f3636;stroke-width:0.0853636pt;stroke-opacity:1"/>
  <path d="M 142.47902,91.605089 L 142.51143,91.995039 L 142.6169,91.939319 L 142.5926,91.605089 L 142.47902,91.605089 z" id="path3645" style="font-size:12px;fill:#8e3737;fill-opacity:1;fill-rule:evenodd;stroke:#8f3636;stroke-width:0.0853636pt;stroke-opacity:1"/>
  <path d="M 136.74167,90.717599 C 136.42523,90.809169 136.31077,90.984019 136.15591,91.135119 L 135.26424,90.683519 C 135.11964,90.803499 135.06394,90.974889 135.1335,91.150329 C 135.20306,91.325699 135.48278,91.600239 135.68173,91.735939 C 135.63191,91.978179 135.55849,92.160979 135.47152,92.373459 C 135.37457,92.612319 135.16643,92.914079 135.16039,93.010979 C 135.14851,93.121909 135.11231,93.359579 135.2782,93.422919 C 135.4442,93.486249 135.97784,93.379039 136.15591,93.390789 C 136.12694,93.486079 136.05764,93.652729 136.08125,93.724259 C 136.10487,93.795789 136.1527,93.819639 136.29759,93.823779 C 136.25585,93.912299 136.16582,94.024499 136.20899,94.077349 C 136.32086,94.161989 136.44902,94.147349 136.55683,94.140759 C 136.4934,94.214309 136.39452,94.313209 136.28833,94.417129 C 136.1098,94.591809 135.91057,94.780639 135.82416,94.886929 C 135.67836,95.084109 135.66585,95.297089 135.94847,95.276209 C 135.84331,95.392719 135.74222,95.505259 135.75834,95.605869 C 135.78265,95.726359 135.84323,95.807189 136.04523,95.737349 C 135.92571,96.007659 136.00422,96.250239 136.04636,96.532389 C 135.94431,96.745879 135.98765,96.943569 135.96232,97.188769 C 135.75445,97.306459 135.72859,97.459839 135.59346,97.696499 C 135.4716,97.952699 135.24476,98.022619 135.11894,98.572289 L 135.93467,98.775719 C 135.96464,98.662669 136.07134,98.589279 136.10136,98.476319 C 136.13126,98.363279 136.12891,98.222499 136.11435,98.097529 C 136.27622,97.863149 136.60371,97.379009 136.70894,97.120869 C 136.88707,97.025749 137.01662,96.966219 137.15028,96.966219 C 137.28395,96.966219 137.369,97.045539 137.51077,97.120869 C 137.44804,97.338419 137.27214,97.575669 137.26198,97.880479 L 137.26198,98.721519 C 137.22646,98.930449 136.98886,98.933239 136.88863,99.562469 L 137.62145,99.752379 C 137.74588,99.540739 137.94298,99.511579 137.9947,99.426849 L 138.04763,98.553099 C 138.14088,98.140649 138.71915,97.799659 138.72752,97.351529 C 138.93506,97.348739 139.0134,97.369879 139.09568,97.327429 C 139.20628,97.288959 139.24417,97.226729 139.33055,97.148599 C 139.36381,97.283469 139.4699,97.295309 139.5598,97.295309 C 139.64961,97.295309 139.82834,97.168469 139.90211,97.116899 C 139.95401,97.190029 139.98148,97.259199 140.0899,97.284729 C 140.19833,97.310269 140.5047,97.264439 140.62933,97.234419 L 140.02715,98.219619 C 140.00467,98.314569 140.03475,98.373839 139.98804,98.484689 C 139.94425,98.584209 139.85601,98.632149 139.81626,98.723809 L 140.49892,98.886899 L 140.60786,98.599429 C 140.75258,98.538459 140.86909,98.505239 140.94511,98.412569 C 141.0211,98.319899 141.02044,98.143859 141.06412,98.043249 C 141.29734,97.873969 141.66388,97.506429 141.9213,97.202299 C 142.09607,97.231799 142.34359,97.376299 142.43754,97.592249 C 142.45073,97.823919 142.46779,98.249979 142.36375,98.545149 L 141.9213,99.236949 L 141.87114,99.350409 L 142.56768,99.598579 L 143.01013,99.259439 L 143.02739,98.775719 C 143.24964,98.383229 143.56766,98.168719 143.87077,97.921239 C 143.87077,97.907629 143.90308,97.401749 143.89093,97.381969 C 143.81604,97.324979 143.76546,97.359229 143.73899,97.254639 C 143.71263,97.150129 143.73062,96.863159 143.74467,96.750699 C 143.78845,96.696419 143.88076,96.634109 143.87602,96.587769 C 143.75546,96.455449 143.79235,96.112929 143.82929,95.845829 C 143.82024,95.541699 144.23568,95.182099 144.29936,95.004879 L 144.3253,94.685619 C 144.28282,94.607149 144.22025,94.560389 144.21818,94.493769 C 144.21619,94.427219 144.29892,94.316969 144.34952,94.246369 L 144.43758,94.096119 L 144.4238,93.309369 C 144.39913,93.224389 144.32599,93.091899 144.25686,93.078289 C 144.18765,93.064759 144.08623,93.142459 144.009,93.227939 L 143.6087,93.523449 C 143.41676,93.582129 143.24903,93.605209 142.91164,93.521169 L 142.39695,93.531399 C 142.12669,93.606899 141.98568,93.619079 141.73152,93.508229 L 141.42677,93.513129 C 141.3318,93.564879 141.20036,93.648159 141.09731,93.668119 C 140.99433,93.687979 140.85488,93.692049 140.7518,93.660419 C 139.96509,93.713359 140.16049,93.770169 139.93562,93.819129 C 139.75508,93.784879 139.813,93.695169 139.11121,93.688579 L 138.833,93.607159 C 138.48198,93.374549 138.21172,93.003199 137.9779,92.576299 C 138.70909,92.366869 139.01589,92.149399 139.23773,91.650539 L 138.2038,91.689179 L 136.74167,90.717599 z" id="path3647" style="font-size:12px;fill:#fffa00;fill-opacity:1;fill-rule:evenodd;stroke:#efd608;stroke-width:0.0853636pt;stroke-opacity:1"/>
  <path d="M 136.37574,91.993609 L 136.66848,92.117649 C 136.70426,92.160179 136.77354,92.209219 136.8194,92.212099 C 136.86515,92.214889 136.90418,92.168209 136.94331,92.134729 L 137.21283,91.993609 C 137.05313,91.970529 137.00444,91.871439 136.83466,91.871439 C 136.66487,91.871439 136.54551,91.960549 136.37574,91.993609 z" id="path3649" style="font-size:12px;fill:#664c00;fill-opacity:1;fill-rule:evenodd;stroke:#664c00;stroke-width:0.0853636pt;stroke-opacity:1"/>
  <path d="M 136.91332,95.446689 C 136.9132,95.470879 136.87272,95.488549 136.85237,95.459879 C 136.82729,95.116779 136.7517,94.876059 136.64588,94.608869 C 136.7653,94.812129 136.86452,95.140959 136.91332,95.446689 z" id="path3653" style="font-size:12px;fill:#cca300;fill-opacity:1;fill-rule:evenodd;stroke:#cca300;stroke-width:0.0853636pt;stroke-opacity:1"/>
  <path d="M 138.63253,95.483869 C 138.69253,95.500359 138.77613,95.500439 138.79569,95.460779 C 138.8211,95.387219 138.74544,95.307069 138.7171,95.217019 C 138.61842,95.023649 138.56368,94.813879 138.52238,94.722979 C 138.47898,94.695589 138.43216,94.698039 138.4425,94.743359 C 138.49914,94.915339 138.59617,95.417579 138.63253,95.483869 z" id="path3657" style="font-size:12px;fill:#cca300;fill-opacity:1;fill-rule:evenodd;stroke:#cca300;stroke-width:0.0853636pt;stroke-opacity:1"/>
  <path d="M 139.57555,95.379779 C 139.58202,95.421469 139.44036,95.360839 139.41647,95.313409 C 139.4144,95.221329 139.22366,94.547869 139.25522,94.521839 C 139.29531,94.502219 139.41957,94.746909 139.45964,94.859539 C 139.46905,94.926159 139.55263,95.171109 139.57555,95.379779 z" id="path3659" style="font-size:12px;fill:#cca300;fill-opacity:1;fill-rule:evenodd;stroke:#cca300;stroke-width:0.0853636pt;stroke-opacity:1"/>
  <path d="M 139.4419,96.767529 C 139.43854,96.814619 139.54963,96.775899 139.5934,96.740479 C 139.72034,96.542029 139.87762,96.333699 139.92383,96.254219 C 139.95167,96.169239 140.0906,95.628539 140.04774,95.632849 C 140.03262,95.617199 139.91177,95.901049 139.75578,96.181159 C 139.59348,96.466439 139.44016,96.740219 139.4419,96.767529 z" id="path3661" style="font-size:12px;fill:#cca300;fill-opacity:1;fill-rule:evenodd;stroke:#cca300;stroke-width:0.0853636pt;stroke-opacity:1"/>
  <path d="M 140.38768,96.476929 C 140.34147,96.499159 140.4804,96.009439 140.49143,95.922689 C 140.51686,95.785549 140.55226,95.539419 140.60796,95.220659 C 140.67596,95.665819 140.59572,96.144049 140.38768,96.476929 z" id="path3663" style="font-size:12px;fill:#cca300;fill-opacity:1;fill-rule:evenodd;stroke:#cca300;stroke-width:0.0853636pt;stroke-opacity:1"/>
  <path d="M 140.95492,94.978079 C 140.9246,95.004539 140.51832,94.332949 140.55564,94.329649 C 140.56608,94.299889 140.89614,94.749959 140.94329,94.829179 C 140.96294,94.866729 140.98242,94.924049 140.95492,94.978079 z" id="path3665" style="font-size:12px;fill:#cca300;fill-opacity:1;fill-rule:evenodd;stroke:#cca300;stroke-width:0.0853636pt;stroke-opacity:1"/>
  <path d="M 141.9057,95.476679 C 141.87537,95.453769 141.88751,95.239339 141.82734,95.003859 C 141.76729,94.768389 141.66506,94.541449 141.68532,94.477019 C 141.70429,94.443119 141.7704,94.458759 141.82305,94.504079 C 141.84813,94.632179 141.90681,95.123669 141.97569,95.443369 C 141.97473,95.474309 141.94025,95.495369 141.9057,95.476679 z" id="path3667" style="font-size:12px;fill:#cca300;fill-opacity:1;fill-rule:evenodd;stroke:#cca300;stroke-width:0.0853636pt;stroke-opacity:1"/>
  <path d="M 142.57018,94.879999 C 142.53768,94.845419 142.65841,95.110569 142.74633,95.425609 C 142.83423,95.740729 142.87924,96.297339 142.90061,96.257769 C 142.96101,96.217689 142.95075,96.167719 143.04486,96.147429 C 143.1389,96.127219 143.48887,96.159769 143.46854,96.136269 C 143.25204,95.943399 143.05237,95.783509 142.90318,95.574169 C 142.75408,95.364819 142.6554,95.089339 142.57018,94.879999 z" id="path3669" style="font-size:12px;fill:#cca300;fill-opacity:1;fill-rule:evenodd;stroke:#cca300;stroke-width:0.0853636pt;stroke-opacity:1"/>
  <path d="M 143.50632,102.47298 L 147.19322,89.477479 L 155.01903,86.324859 L 159.16944,93.342719 L 153.22897,105.40671 C 149.86879,104.13675 147.94709,103.45832 143.50632,102.47298 z" id="path3673" style="font-size:12px;fill:none;fill-rule:evenodd;stroke-width:1pt;stroke-opacity:0.99607801"/>
  <path d="M 145.95078,93.878309 C 147.95828,94.302419 149.81663,94.785039 151.67501,95.384599 C 153.53329,95.984149 155.30219,96.700729 157.10094,97.475819 L 154.08977,103.55957 C 152.40903,102.91994 150.74947,102.40434 149.08984,101.8682 C 147.4303,101.33197 145.8129,100.85772 144.13225,100.34221 L 145.95078,93.878309 z" id="path3677" style="font-size:12px;fill:#ffffff;fill-opacity:1;fill-rule:evenodd;stroke:#ffffff;stroke-width:0.0853636pt;stroke-opacity:1"/>
  <path d="M 145.55091,95.315439 C 145.55091,95.315439 148.35463,95.941039 151.07145,96.814879 C 153.78831,97.688639 156.43921,98.810549 156.42868,98.810549 C 156.40758,98.810549 154.72105,102.28521 154.72105,102.28521 C 153.08383,101.63373 151.36215,101.02353 149.66167,100.47546 C 147.96111,99.927399 146.26061,99.400049 144.51791,98.996729 L 145.55091,95.315439 z" id="path3679" style="font-size:12px;fill:#de1818;fill-opacity:1;fill-rule:evenodd;stroke:#e61717;stroke-width:0.0853636pt;stroke-opacity:1"/>
  <path d="M 145.78386,97.014679 C 146.05965,96.860619 146.24642,96.819019 146.3949,96.565119 L 147.38774,96.565199 L 147.40056,96.927249 C 147.64453,97.043849 147.78667,97.172959 148.03064,97.289469 C 148.27464,97.406059 148.62051,97.510069 148.86448,97.626659 L 151.00303,97.814029 C 151.28941,97.859769 151.70318,97.980509 151.95139,98.126189 C 152.1996,98.271959 152.35877,98.455099 152.49246,98.688209 C 152.93156,98.842259 153.37083,98.933829 153.82268,99.000459 C 154.27465,99.066999 154.84104,99.096169 155.28022,99.112829 C 155.49661,99.187819 155.49661,99.300189 155.39476,99.412559 C 155.39476,99.412559 155.15283,99.740369 154.4925,99.743499 C 153.83218,99.746619 153.08427,99.375109 152.75969,99.425079 C 152.77248,99.624869 153.11618,100.03706 153.51078,100.1994 L 153.49812,101.14841 L 153.31982,101.31083 L 153.12891,101.18595 C 153.28172,100.96121 153.23068,100.69885 153.16708,100.47411 C 153.02067,100.2618 153.00162,100.17437 152.728,100.16194 C 152.40333,100.09938 152.16778,100.01195 151.75411,99.724729 L 151.60132,99.749759 C 151.51221,99.907959 151.42308,100.01618 151.21944,100.11189 L 150.79937,100.08695 C 150.79937,100.08695 149.83187,99.874639 149.83187,99.862119 C 149.83187,99.849689 149.81914,99.712299 149.84465,99.699789 C 149.87008,99.687269 150.17559,99.687359 150.201,99.687359 C 150.40475,99.749759 150.83759,99.749759 150.83759,99.749759 L 150.82479,99.387529 L 151.47402,99.350079 C 151.34249,98.900519 151.30001,98.613209 150.6975,98.513359 L 148.81347,98.563329 L 148.83895,98.825599 C 148.36797,98.763119 147.5151,98.751959 147.07948,98.896289 C 146.82486,98.921319 146.4585,99.050349 146.29304,99.050349 L 146.10206,99.000459 C 145.97477,98.962999 145.97477,98.925549 146.02569,98.813089 C 146.84038,98.750609 146.96774,98.688209 147.20959,98.575839 C 147.22235,98.500929 147.12046,98.338499 147.0823,98.325989 C 146.57314,98.301049 146.16576,98.338499 146.02579,98.313559 C 145.80937,98.251069 145.51652,98.138699 145.51652,98.126189 C 145.51652,98.113679 145.47835,97.926399 145.49109,97.926399 C 145.50374,97.926399 145.82213,98.013819 145.8347,98.013819 C 146.17848,98.076219 146.77677,98.051279 146.91683,97.976369 L 146.92959,97.701569 C 146.91683,97.576689 146.82771,97.464319 146.8022,97.451799 C 146.77677,97.439299 146.24208,97.376889 146.05112,97.376889 C 145.74135,97.322779 145.78807,97.168729 145.78386,97.014679 z" id="path3681" style="font-size:12px;fill:#000000;fill-opacity:1;fill-rule:evenodd;stroke:#000000;stroke-width:0.0853636pt;stroke-opacity:1"/>
  <path d="M 149.89547,99.237709 C 150.18402,99.329279 150.3962,99.358369 150.82479,99.387529 L 151.47402,99.350079 C 151.34249,98.900519 151.30001,98.613209 150.6975,98.513359 L 148.81347,98.563329 L 148.83895,98.825599 C 149.41184,99.037829 149.69184,99.154429 149.89547,99.237709 z" id="path3683" style="font-size:12px;fill:#ffffff;fill-opacity:1;fill-rule:evenodd;stroke:#000000;stroke-width:0.0853636pt;stroke-opacity:1"/>
  <path d="M 112.48034,102.47055 L 109.07557,89.781439 L 114.271,83.487499 L 121.55613,87.646409 L 122.79101,101.09263 C 119.07375,101.36812 116.6655,101.72587 112.48034,102.47055 z" id="path3685" style="font-size:12px;fill:#00298c;fill-opacity:1;fill-rule:evenodd;stroke:#000082;stroke-width:0.08536351pt;stroke-opacity:1"/>
  <path d="M 100.2962,91.895489 L 101.54278,92.864829 L 101.30929,94.560109 L 102.91441,93.892659 L 104.18784,94.860349 L 104.3622,93.301089 L 105.67965,92.783569 L 104.59032,91.738449 L 104.83268,90.188329 C 104.83268,90.188329 103.24883,90.761719 103.24801,90.748549 C 103.24721,90.735389 102.10986,89.785869 102.09716,89.799869 C 102.08455,89.813859 101.8365,91.271739 101.8365,91.271739 L 100.2962,91.895489 z" id="path3687" style="font-size:12px;fill:#fffa00;fill-opacity:1;fill-rule:evenodd;stroke:#ffc700;stroke-width:0.10666667;stroke-miterlimit:4;stroke-dasharray:none;stroke-opacity:1"/>
  <path d="M 100.32389,91.907009 L 105.66543,92.771319 L 104.33608,93.315899 L 103.05247,92.401779 C 103.05247,92.401779 104.19883,94.819949 104.18461,94.807609 C 104.17038,94.795259 102.96979,93.915699 102.92703,93.878669 L 103.03905,92.402599 C 103.03905,92.402599 101.33537,94.545299 101.33456,94.532129 C 101.33375,94.518879 101.5823,92.849189 101.5823,92.849189 L 100.32389,91.907009 z" id="path3689" style="font-size:12px;fill:#ffc500;fill-rule:evenodd;stroke-width:1pt"/>
  <path d="M 101.81958,91.303169 L 103.05758,92.352489 L 102.09208,89.804139 L 101.81958,91.303169 z" id="path3691" style="font-size:12px;fill:#ffc700;fill-opacity:1;fill-rule:evenodd;stroke-width:1pt"/>
  <path d="M 103.23046,90.801709 C 103.24468,90.814179 103.04097,92.350569 103.05439,92.349739 C 103.17907,92.181619 104.82764,90.221649 104.81431,90.222479 C 104.8008,90.223319 103.2581,90.813349 103.23046,90.801709 z" id="path3693" style="font-size:12px;fill:#ffc700;fill-opacity:1;fill-rule:evenodd;stroke-width:1pt"/>
  <path d="M 151.19511,89.740509 L 151.50901,91.271769 L 150.21677,92.421339 L 151.87988,92.926989 L 152.21535,94.473979 L 153.37311,93.391059 L 154.71822,93.829279 L 154.57409,92.339599 L 155.77771,91.306729 C 155.77771,91.306729 154.19263,90.742579 154.20065,90.731989 C 154.20869,90.721399 153.96509,89.274489 153.94619,89.277149 C 153.92736,89.279869 152.78003,90.238549 152.78003,90.238549 L 151.19511,89.740509 z" id="path3695" style="font-size:12px;fill:#fffa00;fill-opacity:1;fill-rule:evenodd;stroke:#ffc700;stroke-width:0.08536354pt;stroke-opacity:1"/>
  <path d="M 151.20865,89.766859 L 154.71543,93.810889 L 153.34345,93.385859 L 152.96499,91.873409 C 152.96499,91.873409 152.25028,94.450019 152.24755,94.431569 C 152.24481,94.413109 151.90698,92.979689 151.89869,92.924269 L 152.95421,91.865539 C 152.95421,91.865539 150.2464,92.426519 150.25442,92.415939 C 150.26252,92.405279 151.54945,91.284829 151.54945,91.284829 L 151.20865,89.766859 z" id="path3697" style="font-size:12px;fill:#ffc700;fill-opacity:1;fill-rule:evenodd;stroke:none;stroke-width:1pt"/>
  <path d="M 152.76926,90.230659 L 153.02403,91.817689 L 153.96227,89.255979 L 152.76926,90.230659 z" id="path3699" style="font-size:12px;fill:#ffc700;fill-opacity:1;fill-rule:evenodd;stroke-width:1pt"/>
  <path d="M 154.18185,90.734829 C 154.18461,90.753279 153.02939,91.788579 153.04019,91.796449 C 153.24468,91.748009 155.77777,91.306669 155.76705,91.298849 C 155.7562,91.290929 154.1954,90.761149 154.18185,90.734829 z" id="path3701" style="font-size:12px;fill:#ffc700;fill-opacity:1;fill-rule:evenodd;stroke-width:1pt"/>
  <path d="M 109.10039,89.830619 C 110.94954,88.946699 113.025,88.257089 115.21379,87.956369 C 117.31751,87.655509 119.42298,87.629449 121.58342,87.634069 C 121.58342,87.634069 121.86644,90.942829 121.86644,90.970639 C 120.16828,90.984509 118.90276,90.952969 115.90713,91.340469 C 112.9283,91.753599 111.70123,92.107619 109.88983,92.801799 L 109.10039,89.830619 z" id="path3703" style="font-size:12px;fill:#de1818;fill-opacity:1;fill-rule:evenodd;stroke:#e61717;stroke-width:0.08536398pt;stroke-opacity:1"/>
  <path d="M 110.68384,95.687969 C 110.65548,95.687969 111.61936,99.188159 111.61936,99.188159 C 113.39775,98.739279 115.20441,98.401409 117.01107,98.146909 C 118.81772,97.892409 120.7391,97.747399 122.48913,97.631739 L 122.17931,94.217869 C 120.3349,94.106769 118.2328,94.106769 116.33177,94.356619 C 114.43074,94.606549 112.58487,95.049359 110.68384,95.687969 z" id="path3705" style="font-size:12px;fill:#de1818;fill-opacity:1;fill-rule:evenodd;stroke:#e61717;stroke-width:0.0853636pt;stroke-opacity:1"/>
  <path d="M 102.19527,106.49648 L 153.80802,106.49648 L 153.80802,139.5918 C 152.49615,152.48062 140.10834,162.11495 128.78879,162.04147 C 116.56963,162.57457 103.05731,152.57253 102.08282,139.48147 L 102.19527,106.49648 z" id="path3707" style="font-size:12px;fill:#ffffff;fill-rule:evenodd;stroke:#de1818;stroke-width:0.34145436;stroke-opacity:1"/>
  <path d="M 103.26857,107.65457 L 152.73001,107.65457 L 152.73001,139.37051 C 151.47279,151.72213 139.60137,160.95491 128.7536,160.8845 C 117.04379,161.39538 104.09468,151.81021 103.16081,139.26477 L 103.26857,107.65457 z" id="path3709" style="font-size:12px;fill:#de1818;fill-opacity:1;fill-rule:evenodd;stroke:#de1818;stroke-width:0.32722238;stroke-opacity:1"/>
  <rect height="10.572071" id="rect3711" ry="0" style="font-size:12px;fill:#ffffff;fill-rule:evenodd;stroke-width:1pt" width="9.8360281" x="113.22971" y="107.82338"/>
  <use height="600" id="use2942" transform="matrix(-1,0,0,1,255.93143,1.4070927e-2)" width="1200" x="0" xlink:href="#path3719" y="0"/>
  <use height="600" id="use2944" transform="matrix(-1,0,0,1,255.9993,9.2651368e-7)" width="1200" x="0" xlink:href="#path3717" y="0"/>
  <path d="M 113.29803,150.16039 L 113.31851,155.76771 C 116.66924,158.13296 120.49591,159.56898 123.04439,160.10123 L 123.01153,150.16411 L 113.29803,150.16039 z" id="path3717" style="font-size:12px;fill:#ffffff;fill-rule:evenodd;stroke:#ffffff;stroke-width:0.08677579pt"/>
  <path d="M 103.44743,139.59879 C 103.7599,143.69226 105.60042,147.35955 107.43857,149.9275 L 113.17493,150.04701 L 113.17598,139.59433 L 103.44743,139.59879 z" id="path3719" style="font-size:12px;fill:#ffffff;fill-rule:evenodd;stroke:#ffffff;stroke-width:0.08747194pt"/>
  <use height="600" id="use2781" transform="translate(-9.8360416,10.572089)" width="1200" x="0" xlink:href="#rect3711" y="0"/>
  <use height="600" id="use2783" transform="translate(9.8360277,10.572069)" width="1200" x="0" xlink:href="#rect3711" y="0"/>
  <use height="600" id="use2779" transform="translate(19.67207,-9.2651368e-7)" width="1200" x="0" xlink:href="#rect3711" y="0"/>
  <use height="600" id="use2785" transform="translate(29.508098,10.572069)" width="1200" x="0" xlink:href="#rect3711" y="0"/>
  <use height="600" id="use2936" transform="translate(0,21.144169)" width="1200" x="0" xlink:href="#rect3711" y="0"/>
  <use height="600" id="use2938" transform="translate(19.67207,21.144169)" width="1200" x="0" xlink:href="#rect3711" y="0"/>
  <use height="600" id="use2940" transform="translate(9.8360676,31.716259)" width="1200" x="0" xlink:href="#rect3711" y="0"/>
  <path d="M 137.72033,95.327679 C 137.68755,95.367119 137.61018,94.863989 137.58413,94.780509 C 137.55021,94.645219 137.48002,94.406659 137.39808,94.093629 C 137.64508,94.470159 137.77105,94.938419 137.72033,95.327679 z" id="path7132" style="font-size:12px;fill:#cca300;fill-opacity:1;fill-rule:evenodd;stroke:#cca300;stroke-width:0.0853636pt;stroke-opacity:1"/>
</svg>
