<?xml version="1.0" encoding="UTF-8" standalone="no"?>
<svg
   xmlns:dc="http://purl.org/dc/elements/1.1/"
   xmlns:cc="http://creativecommons.org/ns#"
   xmlns:rdf="http://www.w3.org/1999/02/22-rdf-syntax-ns#"
   xmlns:svg="http://www.w3.org/2000/svg"
   xmlns="http://www.w3.org/2000/svg"
   xmlns:sodipodi="http://sodipodi.sourceforge.net/DTD/sodipodi-0.dtd"
   xmlns:inkscape="http://www.inkscape.org/namespaces/inkscape"
   height="256"
   id="svg2739"
   inkscape:output_extension="org.inkscape.output.svg.inkscape"
   inkscape:version="0.48.4 r9939"
   sodipodi:docname="flag-gb.svg"
   sodipodi:version="0.32"
   version="1.0"
   viewBox="0 0 60 30"
   width="256">
  <metadata
     id="metadata7622">
    <rdf:RDF>
      <cc:Work
         rdf:about="">
        <dc:title />
        <dc:description />
        <dc:subject>
          <rdf:Bag>
            <rdf:li>unsorted</rdf:li>
          </rdf:Bag>
        </dc:subject>
        <dc:publisher>
          <cc:Agent
             rdf:about="http://www.openclipart.org/">
            <dc:title>Open Clip Art Library, Source: Wikimedia Commons</dc:title>
          </cc:Agent>
        </dc:publisher>
        <dc:creator>
          <cc:Agent>
            <dc:title />
          </cc:Agent>
        </dc:creator>
        <dc:rights>
          <cc:Agent>
            <dc:title />
          </cc:Agent>
        </dc:rights>
        <dc:date />
        <dc:format>image/svg+xml</dc:format>
        <dc:type
           rdf:resource="http://purl.org/dc/dcmitype/StillImage" />
        <cc:license
           rdf:resource="http://web.resource.org/cc/PublicDomain" />
        <dc:language>en</dc:language>
      </cc:Work>
      <cc:License
         rdf:about="http://web.resource.org/cc/PublicDomain">
        <cc:permits
           rdf:resource="http://web.resource.org/cc/Reproduction" />
        <cc:permits
           rdf:resource="http://web.resource.org/cc/Distribution" />
        <cc:permits
           rdf:resource="http://web.resource.org/cc/DerivativeWorks" />
      </cc:License>
    </rdf:RDF>
  </metadata>
  <defs
     id="defs2755">
    <inkscape:perspective
       id="perspective2759"
       inkscape:persp3d-origin="600 : 200 : 1"
       inkscape:vp_x="0 : 300 : 1"
       inkscape:vp_y="0 : 1000 : 0"
       inkscape:vp_z="1200 : 300 : 1"
       sodipodi:type="inkscape:persp3d" />
  </defs>
  <sodipodi:namedview
     bordercolor="#666666"
     borderopacity="1.0"
     gridtolerance="10.0"
     guidetolerance="10.0"
     id="base"
     inkscape:current-layer="svg2739"
     inkscape:cx="110.77307"
     inkscape:cy="116.68896"
     inkscape:pageopacity="0"
     inkscape:pageshadow="2"
     inkscape:window-height="709"
     inkscape:window-width="1366"
     inkscape:window-x="0"
     inkscape:window-y="27"
     inkscape:zoom="2.32"
     objecttolerance="10.0"
     pagecolor="#ffffff"
     showgrid="false"
     inkscape:window-maximized="1" />
  <clipPath
     id="t">
    <path
       d="M 30,15 L 60,15 L 60,30 L 30,15 z M 30,15 L 30,30 L 0,30 L 30,15 z M 30,15 L 0,15 L 0,0 L 30,15 z M 30,15 L 30,0 L 60,0 L 30,15 z"
       id="path2742" />
  </clipPath>
  <path
     style="fill:#00247d"
     d="M 227.3125 64 L 28.6875 64 L 128 113.59375 L 227.3125 64 z "
     id="path8157"
     transform="matrix(0.234375,0,0,0.234375,0,-15)" />
  <path
     style="fill:#00247d"
     d="M 256 177.6875 L 256 78.3125 L 156.65625 128 L 256 177.6875 z "
     id="path8155"
     transform="matrix(0.234375,0,0,0.234375,0,-15)" />
  <path
     style="fill:#00247d"
     d="M 28.6875 192 L 227.3125 192 L 128 142.40625 L 28.6875 192 z "
     id="path8153"
     transform="matrix(0.234375,0,0,0.234375,0,-15)" />
  <path
     style="fill:#00247d"
     d="M 0 78.3125 L 0 177.6875 L 99.34375 128 L 0 78.3125 z "
     id="path8151"
     transform="matrix(0.234375,0,0,0.234375,0,-15)" />
  <path
     style="fill:#ffffff;fill-opacity:1"
     d="M 0 64 L 0 78.3125 L 99.34375 128 L 0 177.6875 L 0 192 L 28.6875 192 L 128 142.40625 L 227.3125 192 L 256 192 L 256 177.6875 L 156.65625 128 L 256 78.3125 L 256 64 L 227.3125 64 L 128 113.59375 L 28.6875 64 L 0 64 z "
     id="path2744"
     transform="matrix(0.234375,0,0,0.234375,0,-15)" />
  <path
     clip-path="url(#t)"
     d="M 0,0 L 60,30 M 60,0 L 0,30"
     id="path2748"
     style="stroke:#cf142b;stroke-width:4" />
  <path
     d="M 30,3.9889385 30,26.011061 M 3.9889391,15 56.011061,15"
     id="path2750"
     style="stroke:#ffffff;stroke-width:7.97787714000000037;stroke-linecap:square;fill:#ffffff;fill-opacity:1"
     inkscape:connector-curvature="0" />
  <path
     style="font-size:medium;font-style:normal;font-variant:normal;font-weight:normal;font-stretch:normal;text-indent:0;text-align:start;text-decoration:none;line-height:normal;letter-spacing:normal;word-spacing:normal;text-transform:none;direction:ltr;block-progression:tb;writing-mode:lr-tb;text-anchor:start;baseline-shift:baseline;color:#000000;fill:#cf142b;fill-opacity:1;fill-rule:nonzero;stroke:none;stroke-width:5.21173;marker:none;visibility:visible;display:inline;overflow:visible;enable-background:accumulate;font-family:Sans;-inkscape-font-specification:Sans"
     d="M 27.40625,0 27.40625,2.59375 27.40625,12.40625 2.59375,12.40625 0,12.40625 0,17.59375 2.59375,17.59375 27.40625,17.59375 27.40625,27.40625 27.40625,30 32.59375,30 32.59375,27.40625 32.59375,17.59375 57.40625,17.59375 60,17.59375 60,12.40625 57.40625,12.40625 32.59375,12.40625 32.59375,2.59375 32.59375,0 27.40625,0 z"
     id="path2752"
     inkscape:connector-curvature="0" />
</svg>
