<?xml version="1.0" encoding="UTF-8" standalone="no"?>
<!-- Created with Inkscape (http://www.inkscape.org/) --><svg height="256" id="Kazakhstan_svg" inkscape:output_extension="org.inkscape.output.svg.inkscape" inkscape:version="0.46" sodipodi:docname="Flag_of_Kazakhstan.svg" sodipodi:version="0.32" version="1.0" width="256" xmlns="http://www.w3.org/2000/svg" xmlns:cc="http://creativecommons.org/ns#" xmlns:dc="http://purl.org/dc/elements/1.1/" xmlns:inkscape="http://www.inkscape.org/namespaces/inkscape" xmlns:rdf="http://www.w3.org/1999/02/22-rdf-syntax-ns#" xmlns:sodipodi="http://sodipodi.sourceforge.net/DTD/sodipodi-0.dtd" xmlns:svg="http://www.w3.org/2000/svg" xmlns:xlink="http://www.w3.org/1999/xlink">
  <metadata>
    <rdf:RDF xmlns:cc="http://web.resource.org/cc/" xmlns:dc="http://purl.org/dc/elements/1.1/" xmlns:rdf="http://www.w3.org/1999/02/22-rdf-syntax-ns#">
      <cc:Work rdf:about="">
        <dc:title></dc:title>
        <dc:description></dc:description>
        <dc:subject>
          <rdf:Bag>
            <rdf:li>unsorted</rdf:li>
          </rdf:Bag>
        </dc:subject>
        <dc:publisher>
          <cc:Agent rdf:about="http://www.openclipart.org/">
            <dc:title>Open Clip Art Library, Source: Wikimedia Commons</dc:title>
          </cc:Agent>
        </dc:publisher>
        <dc:creator>
          <cc:Agent>
            <dc:title></dc:title>
          </cc:Agent>
        </dc:creator>
        <dc:rights>
          <cc:Agent>
            <dc:title></dc:title>
          </cc:Agent>
        </dc:rights>
        <dc:date></dc:date>
        <dc:format>image/svg+xml</dc:format>
        <dc:type rdf:resource="http://purl.org/dc/dcmitype/StillImage"/>
        <cc:license rdf:resource="http://web.resource.org/cc/PublicDomain"/>
        <dc:language>en</dc:language>
      </cc:Work>
      <cc:License rdf:about="http://web.resource.org/cc/PublicDomain">
        <cc:permits rdf:resource="http://web.resource.org/cc/Reproduction"/>
        <cc:permits rdf:resource="http://web.resource.org/cc/Distribution"/>
        <cc:permits rdf:resource="http://web.resource.org/cc/DerivativeWorks"/>
      </cc:License>
    </rdf:RDF>
  </metadata>
  <sodipodi:namedview bordercolor="#666666" borderopacity="1.0" gridtolerance="10.0" guidetolerance="10.0" id="base" inkscape:current-layer="Kazakhstan_svg" inkscape:cx="1000" inkscape:cy="500" inkscape:pageopacity="0.0" inkscape:pageshadow="2" inkscape:window-height="752" inkscape:window-width="808" inkscape:window-x="46" inkscape:window-y="46" inkscape:zoom="0.272" objecttolerance="10.0" pagecolor="#ffffff" showgrid="false"/>
  <desc id="desc4286">Flag of the Republic of Kazakhstan</desc>
  <defs id="defs4288">
    <inkscape:perspective id="perspective66" inkscape:persp3d-origin="1000 : 333.33333 : 1" inkscape:vp_x="0 : 500 : 1" inkscape:vp_y="0 : 1000 : 0" inkscape:vp_z="2000 : 500 : 1" sodipodi:type="inkscape:persp3d"/>
    <path d="M 0,-76.45 C 4,-76.5 5.5,-79 5.5,-82 C 5.5,-86 0,-105.05 0,-105.05 C 0,-105.05 -5.5,-86 -5.5,-82 C -5.5,-79 -4,-76.45 0,-76.45 L 0,-76.45 z" id="be"/>
    <path d="M -1,15 C -1,5 8,-0.14 15.072121,-0.14 C 24.6,-0.14 29.67324,5.5429809 29.67324,12.982057 C 29.67324,17.199 28.89871,19.84505 26.949517,23.881429 C 26.949517,23.881429 11.232327,56.486937 5.1137557,69.098798 C 4.3506632,70.671717 4.1044619,72.462248 4.1044619,75.087275 C 4.1044619,79.141224 8.0460365,82.454615 12.178813,82.556049 C 15.946272,82.650047 20.051305,79.052198 20.051305,74.952702 C 20.051305,69.973065 17.461945,67.753072 14.802977,67.753072 C 11.531226,67.753072 10.227511,69.094843 10.227511,71.38653 C 10.227511,72.983378 11.000593,73.674263 12.111527,73.674263 C 14.91779,73.674263 14.130114,69.906232 14.130114,69.906232 C 15.523896,70.210636 16.668963,71.631261 16.01413,73.405118 C 17.033704,73.631586 17.988792,74.165521 18.739224,75.019988 C 17.986945,75.74755 17.124043,76.309176 16.01413,76.500286 C 16.67135,78.664697 15.793133,79.722271 13.894613,80.167388 C 14.277724,79.334786 14.290906,78.568919 14.163757,77.846011 C 11.174887,78.693888 6.5940534,77.344608 6.5940534,72.193965 C 6.5940534,67.08021 10.151694,62.774364 16.821565,63.850469 C 15.234698,63.093596 14.427615,61.544954 14.264687,59.813294 C 15.475839,60.284298 16.821565,60.351584 16.821565,60.351584 C 16.041676,58.979728 14.958426,57.79719 15.004835,55.103255 C 16.241582,55.664112 17.389899,56.702686 18.974725,56.045263 C 16.487428,51.162666 19.543319,44.446508 27.318221,42.857157 C 24.472701,46.184414 23.079188,49.777263 23.079188,53.353813 C 23.079188,64.945481 26.308927,66.893455 26.308927,74.952702 C 26.308927,78.32444 24.571421,81.965678 21.127885,84.440065 L 21.127885,84.305492 C 23.404326,84.912519 24.861687,86.031471 25.7,87.55 C 20.49988,89.02142 12.941391,88.993633 8.8817862,87.40066 C 4.2161824,86.86237 0.95971684,83.290648 0,81.479469 C -0.95971684,79.66829 -2.8236958,73.114579 0,67.214782 C 3.0903362,60.75787 17.661431,29.937676 22.204465,20.248974 C 23.168066,18.19395 23.752049,16.014637 23.752049,13.65492 C 23.752049,7.7199823 18.301863,5.6478554 15.206695,5.6478554 C 11.50595,5.6478554 7.7379198,8.4603205 7.7379198,11.972764 C 7.7379198,14.198379 8.9490725,15.538935 10.698515,15.538935 C 14.881836,15.538935 14.627762,11.98893 13.793683,9.7523172 C 16.397163,10.919875 17.910448,13.004341 17.494428,15.202504 C 18.968382,15.403909 20.371469,16.101382 21.666175,17.557523 C 20.647466,18.840724 19.405016,19.810686 17.494428,19.845256 C 18.328868,23.25524 16.040174,24.697462 13.793683,25.497302 C 14.504358,22.994613 14.970869,20.114401 10.698515,20.114401 C 7.5835529,20.114401 5.1305772,19.576111 3.7007442,17.557523 C 3.6166365,20.248973 3.3643129,30.880202 3.3643129,30.880202 C 3.184883,34.875197 8.7247852,34.760959 12.2461,33.571652 C 10.917154,38.173425 8.1918319,40.661436 1.8840153,40.031134 C 3.4147776,40.670353 5.0464694,42.107348 5.0464694,44.875744 C 5.0464694,48.622585 2,52.772886 0,54 L -1,15 z" id="orn"/>
    <path d="M 0,-35.598637 C 0,-35.598637 4.7530782,-39.583055 6.3671251,-37.584572 C 8.9631893,-34.370174 -1.6148703,-18.359773 -1.6148703,-12.721308 C -1.6148703,-3.4663271 4.5753036,-0.9495749 12.219049,0.37164156 C 17.347761,1.258136 25.7,0 25.7,0 C 24.127458,-2.1078802 23.104712,-2.7289755 20.455023,-2.8975143 C 23.404894,-4.4252648 26.408867,-7.7416056 26.408867,-12.90486 C 26.408867,-20.866568 23.123385,-24.147608 23.123385,-33.123391 C 23.123385,-38.102574 27.216302,-44.441008 27.216302,-44.441008 C 19.982003,-43.718733 16.396176,-37.036315 18.436436,-31.696034 C 17.284843,-31.530555 16.239265,-31.78914 15.341267,-32.638042 C 14.811816,-31.157744 15.647621,-29.439553 16.767224,-27.959255 C 15.865491,-27.478574 15.203266,-27.766834 13.767214,-28.062576 C 13.903389,-26.537421 14.81955,-24.917108 17.060859,-23.391953 C 10.556777,-25.076417 6.5546382,-20.554385 6.5546382,-15.820438 C 6.5546382,-12.244602 9.0665766,-9.6818822 11.521697,-9.6818822 C 12.315163,-9.6818822 13.480714,-10.007886 14.138278,-10.497481 C 14.601801,-9.5133367 14.362949,-8.1961425 13.885459,-7.2119982 C 15.685071,-7.686535 16.827225,-8.7527235 16.01413,-10.971863 C 17.396346,-11.098529 18.495865,-11.564431 19.243871,-12.452148 C 18.486057,-13.420288 17.336466,-13.977953 16.01413,-13.932434 C 17.020519,-16.004247 15.898976,-17.164115 14.264687,-18.104209 C 14.264687,-18.104209 15.304002,-13.932461 12.649817,-13.932461 C 11.456315,-13.932461 10.368847,-14.320046 10.368847,-16.074657 C 10.368847,-17.602563 11.707809,-19.71908 14.802977,-19.584507 C 17.898145,-19.449935 20.407444,-17.455622 20.407444,-12.526793 C 20.407444,-7.9800039 16.731198,-5.7186754 11.886919,-5.5726384 C 7.5180943,-5.4380659 4.2207273,-7.7989729 4.2207273,-12.294502 C 4.2207273,-18.277988 12.879547,-31.9162 12.879547,-37.248961 C 12.879547,-41.249522 9.273139,-43.482674 5.7444019,-43.482674 C 1.1689361,-43.482674 -2.6914504,-38.96295 -2.6914504,-38.96295 L 0,-35.598637 z" id="uorn"/>
  </defs>
  <rect height="128" id="rect4293" style="fill:#00afca;fill-opacity:1" width="256" x="-3.469447e-18" y="64"/>
  <use height="500" id="use3938" style="fill:#fec50c;fill-opacity:1" transform="matrix(0.2509615,4.9919347e-2,-4.9919347e-2,0.2509615,138.30036,117.76)" width="1000" x="0" xlink:href="#be" y="0"/>
  <use height="500" id="use3940" style="fill:#fec50c;fill-opacity:1" transform="matrix(0.2364006,9.7920333e-2,-9.7920333e-2,0.2364006,138.30036,117.76)" width="1000" x="0" xlink:href="#be" y="0"/>
  <use height="500" id="use3942" style="fill:#fec50c;fill-opacity:1" transform="matrix(0.2127549,0.1421583,-0.1421583,0.2127549,138.30036,117.76)" width="1000" x="0" xlink:href="#be" y="0"/>
  <use height="500" id="use3944" style="fill:#fec50c;fill-opacity:1" transform="matrix(0.1809332,0.1809332,-0.1809332,0.1809332,138.30036,117.76)" width="1000" x="0" xlink:href="#be" y="0"/>
  <use height="500" id="use3946" style="fill:#fec50c;fill-opacity:1" transform="matrix(0.1421583,0.2127549,-0.2127549,0.1421583,138.30036,117.76)" width="1000" x="0" xlink:href="#be" y="0"/>
  <use height="500" id="use3948" style="fill:#fec50c;fill-opacity:1" transform="matrix(9.7920333e-2,0.2364006,-0.2364006,9.7920333e-2,138.30036,117.76)" width="1000" x="0" xlink:href="#be" y="0"/>
  <use height="500" id="use3950" style="fill:#fec50c;fill-opacity:1" transform="matrix(4.9919347e-2,0.2509615,-0.2509615,4.9919347e-2,138.30036,117.76)" width="1000" x="0" xlink:href="#be" y="0"/>
  <use height="500" id="use3952" style="fill:#fec50c;fill-opacity:1" transform="matrix(0,0.2558782,-0.2558782,0,138.30036,117.76)" width="1000" x="0" xlink:href="#be" y="0"/>
  <use height="500" id="use3954" style="fill:#fec50c;fill-opacity:1" transform="matrix(-4.9919347e-2,0.2509615,-0.2509615,-4.9919347e-2,138.30036,117.76)" width="1000" x="0" xlink:href="#be" y="0"/>
  <use height="500" id="use3956" style="fill:#fec50c;fill-opacity:1" transform="matrix(-9.7920333e-2,0.2364006,-0.2364006,-9.7920333e-2,138.30036,117.76)" width="1000" x="0" xlink:href="#be" y="0"/>
  <use height="500" id="use3958" style="fill:#fec50c;fill-opacity:1" transform="matrix(-0.1421583,0.2127549,-0.2127549,-0.1421583,138.30036,117.76)" width="1000" x="0" xlink:href="#be" y="0"/>
  <use height="500" id="use3960" style="fill:#fec50c;fill-opacity:1" transform="matrix(-0.1809332,0.1809332,-0.1809332,-0.1809332,138.30036,117.76)" width="1000" x="0" xlink:href="#be" y="0"/>
  <use height="500" id="use3962" style="fill:#fec50c;fill-opacity:1" transform="matrix(-0.2127549,0.1421583,-0.1421583,-0.2127549,138.30036,117.76)" width="1000" x="0" xlink:href="#be" y="0"/>
  <use height="500" id="use3964" style="fill:#fec50c;fill-opacity:1" transform="matrix(-0.2364006,9.7920333e-2,-9.7920333e-2,-0.2364006,138.30036,117.76)" width="1000" x="0" xlink:href="#be" y="0"/>
  <use height="500" id="use3974" style="fill:#fec50c;fill-opacity:1" transform="matrix(-0.2127549,-0.1421583,0.1421583,-0.2127549,138.30036,117.76)" width="1000" x="0" xlink:href="#be" y="0"/>
  <use height="500" id="use3976" style="fill:#fec50c;fill-opacity:1" transform="matrix(-0.1809332,-0.1809332,0.1809332,-0.1809332,138.30036,117.76)" width="1000" x="0" xlink:href="#be" y="0"/>
  <use height="500" id="use3978" style="fill:#fec50c;fill-opacity:1" transform="matrix(-0.1421583,-0.2127549,0.2127549,-0.1421583,138.30036,117.76)" width="1000" x="0" xlink:href="#be" y="0"/>
  <use height="500" id="use3980" style="fill:#fec50c;fill-opacity:1" transform="matrix(-9.7920333e-2,-0.2364006,0.2364006,-9.7920333e-2,138.30036,117.76)" width="1000" x="0" xlink:href="#be" y="0"/>
  <use height="500" id="use3982" style="fill:#fec50c;fill-opacity:1" transform="matrix(-4.9919347e-2,-0.2509615,0.2509615,-4.9919347e-2,138.30036,117.76)" width="1000" x="0" xlink:href="#be" y="0"/>
  <use height="500" id="use3984" style="fill:#fec50c;fill-opacity:1" transform="matrix(0,-0.2558782,0.2558782,0,138.30036,117.76)" width="1000" x="0" xlink:href="#be" y="0"/>
  <use height="500" id="use3986" style="fill:#fec50c;fill-opacity:1" transform="matrix(4.9919347e-2,-0.2509615,0.2509615,4.9919347e-2,138.30036,117.76)" width="1000" x="0" xlink:href="#be" y="0"/>
  <use height="500" id="use3988" style="fill:#fec50c;fill-opacity:1" transform="matrix(9.7920333e-2,-0.2364006,0.2364006,9.7920333e-2,138.30036,117.76)" width="1000" x="0" xlink:href="#be" y="0"/>
  <use height="500" id="use3990" style="fill:#fec50c;fill-opacity:1" transform="matrix(0.1421583,-0.2127549,0.2127549,0.1421583,138.30036,117.76)" width="1000" x="0" xlink:href="#be" y="0"/>
  <use height="500" id="use3992" style="fill:#fec50c;fill-opacity:1" transform="matrix(0.1809332,-0.1809332,0.1809332,0.1809332,138.30036,117.76)" width="1000" x="0" xlink:href="#be" y="0"/>
  <circle cx="0" cy="0" id="circle3934" r="68.699997" sodipodi:cx="0" sodipodi:cy="0" sodipodi:rx="68.699997" sodipodi:ry="68.699997" style="fill:#fec50c;fill-opacity:1" transform="matrix(0.2506894,0,0,0.2506894,138.27846,117.7819)"/>
  <use height="500" id="use3936" style="fill:#fec50c;fill-opacity:1" transform="matrix(0.2558782,0,0,0.2558782,138.30036,117.76)" width="1000" x="0" xlink:href="#be" y="0"/>
  <use height="500" id="use3966" style="fill:#fec50c;fill-opacity:1" transform="matrix(-0.2509615,4.9919347e-2,-4.9919347e-2,-0.2509615,138.30036,117.76)" width="1000" x="0" xlink:href="#be" y="0"/>
  <use height="500" id="use3968" style="fill:#fec50c;fill-opacity:1" transform="matrix(-0.2558782,0,0,-0.2558782,138.30036,117.76)" width="1000" x="0" xlink:href="#be" y="0"/>
  <use height="500" id="use3970" style="fill:#fec50c;fill-opacity:1" transform="matrix(-0.2509615,-4.9919347e-2,4.9919347e-2,-0.2509615,138.30036,117.76)" width="1000" x="0" xlink:href="#be" y="0"/>
  <use height="500" id="use3972" style="fill:#fec50c;fill-opacity:1" transform="matrix(-0.2364006,-9.7920333e-2,9.7920333e-2,-0.2364006,138.30036,117.76)" width="1000" x="0" xlink:href="#be" y="0"/>
  <use height="500" id="use3994" style="fill:#fec50c;fill-opacity:1" transform="matrix(0.2127549,-0.1421583,0.1421583,0.2127549,138.30036,117.76)" width="1000" x="0" xlink:href="#be" y="0"/>
  <use height="500" id="use3996" style="fill:#fec50c;fill-opacity:1" transform="matrix(0.2364006,-9.7920333e-2,9.7920333e-2,0.2364006,138.30036,117.76)" width="1000" x="0" xlink:href="#be" y="0"/>
  <use height="500" id="use3998" style="fill:#fec50c;fill-opacity:1" transform="matrix(0.2509615,-4.9919347e-2,4.9919347e-2,0.2509615,138.30036,117.76)" width="1000" x="0" xlink:href="#be" y="0"/>
  <path d="M 137.70063,147.8337 L 137.40347,148.42804 L 137.07328,149.18747 L 136.87517,149.55067 L 136.71008,149.88086 L 136.57801,150.145 L 136.41292,150.3101 L 136.01669,149.97991 L 135.58744,149.68274 L 135.12518,149.45161 L 134.62991,149.2535 L 134.10161,149.12143 L 133.57331,148.98935 L 133.04502,148.8903 L 132.4837,148.82426 L 131.32805,148.72521 L 130.1724,148.69219 L 129.04977,148.62615 L 127.99317,148.49407 L 127.39884,148.39502 L 126.83752,148.26295 L 126.54035,148.16389 L 126.24318,148.06483 L 125.97903,147.93276 L 125.74791,147.80068 L 125.3847,147.56955 L 125.0215,147.30541 L 124.62527,147.00824 L 124.26207,146.67805 L 123.50264,145.95164 L 122.74321,145.22523 L 121.98378,144.53184 L 121.29039,143.90449 L 120.96021,143.67336 L 120.63002,143.44223 L 120.33285,143.31015 L 120.03569,143.2111 L 119.47437,143.07902 L 118.97909,142.91393 L 118.48381,142.74884 L 117.98853,142.51771 L 117.55929,142.3196 L 117.13005,142.05545 L 116.73383,141.7913 L 116.37062,141.52715 L 115.9744,141.22998 L 115.64421,140.93282 L 115.31403,140.60263 L 114.98384,140.27244 L 114.35649,139.57905 L 113.76215,138.85264 L 112.57348,137.30077 L 111.31878,135.71588 L 110.59237,134.95645 L 109.83294,134.19702 L 109.4037,133.8008 L 108.97446,133.43759 L 108.51219,133.10741 L 108.01692,132.7442 L 107.91786,132.77722 L 107.8188,132.87628 L 107.71975,133.00835 L 107.65371,133.17344 L 107.55465,133.47061 L 107.52164,133.60269 L 107.29051,133.50363 L 107.09239,133.40457 L 106.86126,133.30552 L 106.66315,133.23948 L 106.23391,133.23948 L 106.00278,133.30552 L 105.77165,133.40457 L 106.00278,133.70174 L 106.29995,134.09796 L 106.59711,134.56023 L 106.86126,135.0555 L 107.12541,135.5838 L 107.32353,136.07908 L 107.38956,136.34323 L 107.4556,136.54134 L 107.48862,136.77247 L 107.48862,136.97058 L 107.12541,136.97058 L 105.70561,136.97058 L 105.96976,137.36681 L 106.26693,137.76303 L 106.59711,138.15925 L 106.96032,138.52246 L 107.32353,138.88566 L 107.68673,139.24887 L 108.04993,139.54603 L 108.38012,139.77716 L 108.01692,139.81018 L 107.52164,139.8432 L 107.02636,139.90924 L 106.66315,139.94226 L 106.96032,140.20641 L 107.32353,140.47055 L 107.71975,140.76772 L 108.14899,141.06489 L 108.57823,141.32904 L 109.00747,141.56017 L 109.4037,141.69224 L 109.7669,141.7913 L 109.93199,141.82432 L 110.06407,141.85734 L 110.16312,141.89036 L 110.22916,141.95639 L 110.26218,141.98941 L 110.26218,142.12148 L 110.22916,142.18752 L 110.16312,142.38563 L 110.13011,142.58375 L 110.09709,142.71582 L 110.09709,142.81488 L 110.13011,142.97997 L 110.16312,143.11204 L 110.22916,143.17808 L 110.32822,143.24412 L 110.46029,143.31015 L 110.62538,143.34317 L 110.79048,143.40921 L 110.95557,143.47525 L 111.12066,143.54129 L 111.25274,143.64034 L 111.28576,143.67336 L 111.28576,143.7394 L 111.25274,143.77241 L 111.12066,143.87147 L 110.98859,143.97053 L 110.85651,144.1026 L 110.72444,144.26769 L 110.72444,144.39977 L 110.69142,144.53184 L 110.72444,144.69694 L 110.75746,144.89505 L 111.31878,145.09316 L 111.91311,145.29127 L 112.17726,145.35731 L 112.44141,145.45636 L 112.63952,145.55542 L 112.80461,145.65448 L 111.715,146.51296 L 112.01217,146.77711 L 112.37537,146.97522 L 112.83763,147.20635 L 113.29989,147.37144 L 113.82819,147.53654 L 114.32347,147.63559 L 114.75271,147.73465 L 115.14893,147.73465 L 114.78573,147.9988 L 114.32347,148.29596 L 113.82819,148.56011 L 113.46498,148.82426 L 113.79517,149.05539 L 114.25743,149.28652 L 114.78573,149.55067 L 115.41308,149.84784 L 116.8659,150.47519 L 118.45079,151.10254 L 120.10172,151.69688 L 121.71964,152.22518 L 122.44604,152.45631 L 123.10642,152.6214 L 123.70075,152.78649 L 124.22905,152.88555 L 123.17245,152.78649 L 122.1819,152.65442 L 121.19134,152.48933 L 120.26682,152.29121 L 119.3423,152.02707 L 118.45079,151.76292 L 117.59231,151.46575 L 116.76685,151.13556 L 115.14893,150.47519 L 113.63008,149.81482 L 112.90367,149.51765 L 112.17726,149.22048 L 111.48387,148.95634 L 110.79048,148.69219 L 110.95557,148.59313 L 111.15368,148.52709 L 111.41783,148.42804 L 111.715,148.362 L 112.34235,148.16389 L 112.90367,147.96578 L 111.91311,147.80068 L 110.55935,147.53654 L 109.89898,147.33842 L 109.33766,147.17333 L 109.10653,147.07428 L 108.90842,146.97522 L 108.74332,146.87616 L 108.64427,146.77711 L 108.64427,146.74409 L 108.67729,146.71107 L 108.77634,146.67805 L 108.8754,146.61202 L 109.13955,146.51296 L 109.50275,146.4139 L 110.2952,146.18277 L 110.95557,145.95164 L 109.33766,145.65448 L 108.08295,145.45636 L 107.62069,145.35731 L 107.25749,145.22523 L 107.12541,145.1592 L 106.99334,145.06014 L 106.89428,144.9941 L 106.82825,144.89505 L 106.9273,144.82901 L 107.22447,144.76297 L 107.65371,144.69694 L 108.14899,144.59788 L 108.67729,144.53184 L 109.13955,144.39977 L 109.37068,144.33373 L 109.56879,144.26769 L 109.70086,144.16864 L 109.83294,144.06958 L 109.56879,143.97053 L 109.30464,143.87147 L 108.97446,143.80543 L 108.64427,143.7394 L 107.88484,143.64034 L 107.12541,143.54129 L 106.72919,143.44223 L 106.36599,143.37619 L 106.00278,143.24412 L 105.63958,143.11204 L 105.30939,142.94695 L 105.01222,142.71582 L 104.74807,142.48469 L 104.54996,142.18752 L 104.616,142.1545 L 104.74807,142.12148 L 104.91317,142.12148 L 105.17732,142.1545 L 105.77165,142.18752 L 106.43202,142.22054 L 107.15843,142.28658 L 108.08295,142.28658 L 108.3471,142.25356 L 108.54521,142.18752 L 108.67729,142.12148 L 107.88484,141.7913 L 106.82825,141.32904 L 106.23391,141.03187 L 105.60656,140.7347 L 104.9792,140.40452 L 104.35185,140.07433 L 103.75752,139.71113 L 103.1962,139.3149 L 102.6679,138.91868 L 102.20564,138.52246 L 102.00753,138.29133 L 101.80942,138.09322 L 101.67734,137.8951 L 101.54527,137.66397 L 101.41319,137.46586 L 101.34716,137.23473 L 101.31414,137.03662 L 101.28112,136.80549 L 101.51225,136.80549 L 101.7764,136.83851 L 102.04055,136.93756 L 102.3047,137.03662 L 102.83299,137.36681 L 103.42733,137.69699 L 103.69148,137.86209 L 103.98865,138.02718 L 104.28581,138.15925 L 104.54996,138.25831 L 104.84713,138.32435 L 105.11128,138.35736 L 105.40845,138.35736 L 105.6726,138.25831 L 104.88015,137.66397 L 103.98865,136.90455 L 102.96507,136.01304 L 101.94149,135.02249 L 100.91792,133.96589 L 99.960376,132.9093 L 99.531135,132.34798 L 99.101893,131.81968 L 98.738688,131.29138 L 98.408502,130.7961 L 98.342465,130.66403 L 98.342465,130.4329 L 98.375483,130.33384 L 98.408502,130.23479 L 98.507558,130.16875 L 98.606614,130.06969 L 98.705669,130.00366 L 98.837743,129.97064 L 98.969819,129.93762 L 99.233967,129.93762 L 99.39906,129.97064 L 99.531135,130.00366 L 99.663209,130.10271 L 99.762264,130.20177 L 100.3566,130.7961 L 101.04999,131.4895 L 101.7764,132.24892 L 102.56885,133.00835 L 103.36129,133.70174 L 104.15374,134.36211 L 104.54996,134.62626 L 104.91317,134.85739 L 105.30939,135.0555 L 105.6726,135.18758 L 105.40845,135.02249 L 105.11128,134.72532 L 104.71506,134.32909 L 104.28581,133.83382 L 103.32827,132.67816 L 102.27168,131.3244 L 101.74338,130.59799 L 101.2481,129.87158 L 100.78584,129.14517 L 100.32358,128.45178 L 99.927357,127.79141 L 99.597171,127.19708 L 99.366042,126.63576 L 99.16793,126.1735 L 99.134911,126.00841 L 99.134911,125.74426 L 99.16793,125.6452 L 99.233967,125.54615 L 99.300004,125.44709 L 99.366042,125.38105 L 99.465097,125.31502 L 99.696228,125.24898 L 99.894339,125.18294 L 100.3566,125.18294 L 100.48867,125.21596 L 100.58773,125.24898 L 100.7198,125.31502 L 100.81886,125.41407 L 101.08301,125.6452 L 101.34716,125.97539 L 101.94149,126.73482 L 102.56885,127.69236 L 103.29526,128.71593 L 104.05468,129.77253 L 104.45091,130.26781 L 104.84713,130.76309 L 105.27637,131.19233 L 105.73863,131.58855 L 105.17732,130.49894 L 104.54996,129.24423 L 104.21978,128.55084 L 103.92261,127.85745 L 103.62544,127.13104 L 103.36129,126.40463 L 103.13016,125.6452 L 102.89903,124.91879 L 102.73394,124.19238 L 102.60186,123.46598 L 102.53583,122.77258 L 102.50281,122.11221 L 102.53583,121.78203 L 102.56885,121.48486 L 102.60186,121.18769 L 102.6679,120.89052 L 102.73394,120.79147 L 102.76696,120.69241 L 102.86601,120.59336 L 102.93205,120.52732 L 103.16318,120.42826 L 103.39431,120.36223 L 103.62544,120.36223 L 103.82355,120.39524 L 103.92261,120.42826 L 103.98865,120.46128 L 104.02166,120.52732 L 104.05468,120.62637 L 104.38487,121.68297 L 104.68204,122.8056 L 104.9792,123.96125 L 105.27637,125.08389 L 105.57354,126.20652 L 105.96976,127.26311 L 106.16787,127.75839 L 106.399,128.25367 L 106.66315,128.71593 L 106.96032,129.17819 L 106.76221,128.22065 L 106.63013,127.36217 L 106.49806,126.56972 L 106.43202,125.84331 L 106.36599,125.21596 L 106.33297,124.65464 L 106.36599,124.19238 L 106.399,123.79616 L 106.46504,123.46598 L 106.5641,123.20183 L 106.63013,123.10277 L 106.69617,123.00371 L 106.76221,122.93768 L 106.86126,122.87164 L 106.96032,122.83862 L 107.25749,122.83862 L 107.52164,122.93768 L 107.78579,123.06975 L 108.01692,124.12635 L 108.24805,125.14992 L 108.51219,126.10746 L 108.80936,127.03198 L 109.13955,127.9565 L 109.50275,128.88103 L 109.89898,129.83857 L 110.36124,130.7961 L 110.69142,131.42346 L 111.02161,132.05081 L 111.38481,132.67816 L 111.74802,133.30552 L 112.14424,133.89985 L 112.54046,134.49419 L 112.96971,135.08852 L 113.39895,135.68286 L 114.19139,136.67342 L 115.01686,137.59794 L 115.87534,138.52246 L 116.76685,139.38094 L 117.69137,140.23942 L 118.6489,141.03187 L 119.63946,141.7913 L 120.66304,142.51771 L 121.35643,142.97997 L 122.08284,143.40921 L 122.84227,143.83845 L 123.56868,144.23468 L 124.72433,144.79599 L 125.84696,145.32429 L 127.03563,145.78655 L 128.22429,146.21579 L 129.34693,146.579 L 130.50258,146.87616 L 131.69125,147.14031 L 132.8469,147.37144 L 134.0686,147.53654 L 135.25727,147.66861 L 136.47895,147.76767 L 137.70063,147.8337" id="path13" style="fill:#fec50c;fill-opacity:1;fill-rule:evenodd;stroke:none"/>
  <path d="M 140.70533,157.87136 L 141.26665,157.9374 L 141.5308,158.03645 L 141.59684,158.06947 L 141.59684,158.10249 L 141.5308,158.10249 L 141.46476,158.13551 L 140.93646,158.23456 L 140.50723,158.23456 L 139.12044,158.13551 L 137.43649,158.10249 L 135.62047,158.06947 L 133.73841,158.10249 L 132.8469,158.13551 L 131.9554,158.20154 L 131.16296,158.26758 L 130.40353,158.33362 L 129.77618,158.43267 L 129.21486,158.56475 L 129.01674,158.63079 L 128.81864,158.69682 L 128.65354,158.76286 L 128.52147,158.86192 L 128.58751,158.53173 L 128.71958,158.20154 L 128.48845,158.26758 L 128.25732,158.33362 L 128.05921,158.43267 L 127.8611,158.53173 L 127.696,158.63079 L 127.56393,158.76286 L 127.46487,158.92795 L 127.43185,159.09305 L 127.3328,158.86192 L 127.26676,158.6638 L 127.23374,158.43267 L 127.20072,158.23456 L 127.23374,158.06947 L 127.26676,157.87136 L 127.29978,157.70627 L 127.39884,157.54117 L 127.46487,157.4091 L 127.59695,157.24401 L 127.72902,157.11193 L 127.8611,156.97986 L 128.22429,156.74873 L 128.62052,156.5176 C 128.83447,156.64737 129.07502,156.74141 129.31392,156.81476 C 129.52106,156.84225 129.76753,156.80867 130.00731,156.74873 C 130.41025,157.10357 130.94913,157.0599 131.29503,156.68269 C 131.35816,156.61384 131.43436,156.50837 131.46012,156.41854 C 131.51474,156.2281 131.50422,155.97865 131.46012,155.75817 L 131.85635,155.72515 L 132.3186,155.65911 L 132.81389,155.52704 L 133.34218,155.39496 L 133.87048,155.29591 L 134.36576,155.16383 L 134.82802,155.0978 L 135.22424,155.06478 L 135.05915,155.19685 L 134.66292,155.49402 L 134.20067,155.85722 L 133.87048,156.08835 L 134.29972,156.18741 L 134.66292,156.25345 L 134.39878,156.55061 L 134.13463,156.84778 L 133.87048,157.14495 L 133.67237,157.4091 L 133.93651,157.50815 L 134.20067,157.57419 L 134.49783,157.64023 L 135.09217,157.64023 L 135.38934,157.57419 L 135.6865,157.50815 L 135.91763,157.37608 L 136.18179,157.50815 L 136.44593,157.60721 L 136.71008,157.67325 L 136.97423,157.73928 L 137.56856,157.80532 L 138.19592,157.87136 L 140.70533,157.87136" id="path17" style="fill:#fec50c;fill-opacity:1;fill-rule:evenodd;stroke:none"/>
  <path d="M 130.56863,155.9893 L 130.66767,156.02232 L 130.76673,156.05534 L 130.79976,156.15439 L 130.83277,156.25345 L 130.79976,156.3525 L 130.76673,156.45156 L 130.66767,156.5176 L 130.43654,156.5176 L 130.37051,156.45156 L 130.30447,156.3525 L 130.27145,156.25345 L 130.30447,156.15439 L 130.37051,156.05534 L 130.43654,156.02232 L 130.56863,155.9893" id="path21" style="fill:#fec50c;fill-opacity:1;fill-rule:evenodd;stroke:none"/>
  <path d="M 130.5356,156.12137 L 130.60164,156.15439 L 130.63466,156.22043 L 130.60164,156.28647 L 130.5356,156.31948 L 130.46957,156.28647 L 130.43654,156.22043 L 130.46957,156.15439 L 130.5356,156.12137" id="path25" style="fill:#fec50c;fill-opacity:1;fill-rule:evenodd;stroke:none"/>
  <path d="M 130.55716,156.57619 C 130.38991,156.57631 130.25427,156.44076 130.25427,156.27352 C 130.25427,156.10628 130.38991,155.97073 130.55716,155.97085 C 130.72439,155.97073 130.86003,156.10628 130.86003,156.27352 C 130.86003,156.44076 130.72439,156.57631 130.55716,156.57619 z" id="path3166" style="fill:#fec50c;fill-opacity:1;stroke:none;stroke-opacity:1"/>
  <path d="M 155.16748,159.48927 L 154.93635,159.58833 L 154.70522,159.62134 L 154.50711,159.65436 L 154.34202,159.62134 L 154.17692,159.58833 L 154.01183,159.52229 L 153.87976,159.45625 L 153.71466,159.3572 L 153.45051,159.15908 L 153.18637,158.96097 L 153.05428,158.86192 L 152.88919,158.79588 L 152.75712,158.76286 L 152.59203,158.76286 L 152.29486,159.39021 L 151.89864,160.18266 L 151.76657,160.38077 L 151.63448,160.54586 L 151.50241,160.64492 L 151.37034,160.74398 L 151.20525,160.81001 L 151.04015,160.81001 L 150.87506,160.74398 L 150.67695,160.64492 L 150.61092,160.54586 L 150.54487,160.44681 L 150.47884,160.31474 L 150.4128,160.14964 L 150.34676,159.85247 L 150.31374,159.65436 L 150.11564,159.81946 L 149.91752,160.05059 L 149.75244,160.31474 L 149.55432,160.6119 L 149.32319,160.90907 L 149.09206,161.1402 L 148.95999,161.27227 L 148.79489,161.37133 L 148.6298,161.43737 L 148.43168,161.5034 L 148.33263,161.5034 L 148.16754,161.53642 L 148.00244,161.5034 L 147.87037,161.43737 L 147.47415,160.97511 L 147.0449,160.51285 L 146.74774,160.97511 L 146.41755,161.37133 L 146.25245,161.53642 L 146.08736,161.70152 L 145.92227,161.83359 L 145.75718,161.93265 L 145.6251,161.99868 L 145.46001,162.0317 L 145.29491,162.0317 L 145.16284,161.99868 L 145.03077,161.93265 L 144.93171,161.83359 L 144.79964,161.6685 L 144.73361,161.47039 L 144.66756,161.27227 L 144.53549,160.94209 L 144.50248,160.777 L 144.43643,160.64492 L 144.37039,160.57888 L 144.30436,160.57888 L 143.41285,162.0317 L 143.28078,162.16378 L 143.04965,162.26283 L 142.7855,162.32887 L 142.52136,162.39491 L 142.22419,162.39491 L 141.99306,162.32887 L 141.92701,162.29585 L 141.82797,162.19679 L 141.79494,162.13076 L 141.79494,161.99868 L 141.92701,160.54586 L 141.82797,160.57888 L 141.69588,160.64492 L 141.56381,160.71096 L 141.43174,160.84303 L 141.16759,161.1402 L 140.87043,161.47039 L 140.57326,161.83359 L 140.21005,162.13076 L 140.04495,162.26283 L 139.87987,162.39491 L 139.68175,162.49396 L 139.51666,162.52698 L 139.28553,162.56 L 139.12044,162.52698 L 139.0544,162.49396 L 138.98836,162.42793 L 138.95534,162.32887 L 138.95534,162.22981 L 138.98836,161.80057 L 139.0544,161.37133 L 139.08742,161.1402 L 139.0544,160.94209 L 139.02139,160.74398 L 138.88931,160.51285 L 138.6912,160.81001 L 138.36101,161.23926 L 137.96479,161.6685 L 137.53555,162.09774 L 137.30441,162.26283 L 137.07328,162.42793 L 136.87517,162.49396 L 136.71008,162.56 L 136.64404,162.52698 L 136.54499,162.52698 L 136.47895,162.46094 L 136.44593,162.42793 L 136.37989,162.32887 L 136.34688,162.22981 L 136.34688,162.09774 L 136.31386,161.93265 L 136.34688,160.67794 L 135.52141,161.23926 L 134.53085,161.86661 L 134.29972,161.96567 L 134.03557,162.09774 L 133.80444,162.16378 L 133.5403,162.22981 L 133.30917,162.29585 L 133.07803,162.29585 L 132.8469,162.26283 L 132.64879,162.19679 L 132.74785,161.93265 L 132.8469,161.70152 L 132.94596,161.47039 L 133.07803,161.27227 L 133.21011,161.07416 L 133.34218,160.87605 L 133.50728,160.71096 L 133.67237,160.54586 L 134.03557,160.28172 L 134.46482,160.01757 L 134.89405,159.81946 L 135.38934,159.65436 L 135.88462,159.52229 L 136.44593,159.42323 L 137.00724,159.32418 L 137.56856,159.25814 L 138.79026,159.1921 L 140.04495,159.15908 L 142.55437,159.15908 L 143.18172,159.12606 L 143.77606,159.09305 L 144.37039,159.06003 L 144.93171,158.99399 L 145.49303,158.89494 L 145.98831,158.79588 L 146.48358,158.6638 L 146.94584,158.46569 L 147.37509,158.26758 L 147.73829,158.00343 L 148.1015,157.73928 L 148.39867,157.37608 L 148.06848,156.71571 L 148.33263,156.68269 L 148.59677,156.61665 L 148.86093,156.48458 L 149.09206,156.31948 L 149.19112,156.25345 L 149.29016,156.15439 L 149.35621,156.02232 L 149.42225,155.92326 L 149.45526,155.79119 L 149.45526,155.56006 L 149.38922,155.42798 L 149.95054,155.32893 L 150.54487,155.26289 L 151.17222,155.22987 L 151.8326,155.22987 L 153.18637,155.29591 L 154.57315,155.39496 L 155.99295,155.56006 L 157.37972,155.69213 L 158.73349,155.8242 L 159.9882,155.89024 L 159.9882,156.3525 L 159.95517,156.55061 L 159.88914,156.74873 L 159.8231,156.94684 L 159.75707,157.11193 L 159.65801,157.24401 L 159.52594,157.4091 L 159.29481,157.64023 L 158.99763,157.83834 L 158.70047,157.97041 L 158.37028,158.03645 L 158.00708,158.10249 L 157.64388,158.06947 L 157.31369,158.03645 L 156.95049,157.9374 L 156.6203,157.7723 L 156.29011,157.60721 L 156.02596,157.37608 L 155.76182,157.11193 L 155.76182,157.67325 L 155.66276,158.39966 L 155.59672,158.76286 L 155.49766,159.09305 L 155.43163,159.22512 L 155.33257,159.32418 L 155.26653,159.42323 L 155.16748,159.48927 M 128.62052,156.38552 L 129.37996,156.71571 L 129.57806,156.55061 L 129.84221,156.3525 L 130.13938,156.18741 L 130.40353,156.02232 L 131.39409,155.62609 L 132.25257,155.22987 L 132.68182,155.06478 L 133.04502,154.86666 L 133.40822,154.66855 L 133.70538,154.47044 L 134.46482,153.97516 L 135.22424,153.47988 L 135.95066,153.01762 L 136.61102,152.55536 L 137.1063,152.15914 L 137.50253,151.79594 L 137.93176,151.39971 L 138.39404,150.97047 L 138.55912,150.80538 L 138.75724,150.6733 L 138.98836,150.54123 L 139.25252,150.40915 L 139.81382,150.145 L 140.37514,149.94689 L 141.13458,149.74878 L 141.96004,149.55067 L 142.81852,149.38558 L 143.77606,149.22048 L 144.93171,149.08841 L 146.08736,148.92332 L 147.27603,148.79124 L 148.43168,148.59313 L 148.8279,148.52709 L 149.19112,148.42804 L 149.58734,148.32898 L 149.98356,148.22993 L 150.37978,147.73465 L 151.00713,147.04126 L 151.43638,146.61202 L 151.93166,146.21579 L 152.49298,145.78655 L 153.15334,145.35731 L 154.1439,144.76297 L 155.2005,144.23468 L 156.29011,143.67336 L 157.34671,143.17808 L 158.33727,142.6828 L 159.26179,142.22054 L 160.02121,141.82432 L 160.61555,141.42809 L 160.78065,140.93282 L 161.01178,140.43754 L 161.30894,139.94226 L 161.67214,139.44698 L 162.06836,138.91868 L 162.56365,138.39038 L 163.09194,137.79605 L 163.75232,137.1687 L 164.34665,136.6404 L 164.974,136.1121 L 165.30419,135.88097 L 165.63438,135.64984 L 165.99758,135.45173 L 166.36078,135.25362 L 166.72399,135.08852 L 167.08719,134.95645 L 167.48342,134.85739 L 167.84662,134.75834 L 168.24284,134.72532 L 168.60605,134.6923 L 169.00228,134.72532 L 169.36548,134.79135 L 169.33245,135.18758 L 169.23341,135.5838 L 169.10132,135.98002 L 168.93624,136.40927 L 168.7051,136.83851 L 168.40794,137.26775 L 168.04474,137.73001 L 167.61549,138.19227 L 167.94568,138.15925 L 168.24284,138.09322 L 168.47397,138.02718 L 168.7051,137.92812 L 168.90322,137.86209 L 169.13435,137.79605 L 169.43151,137.76303 L 169.7617,137.73001 L 169.79473,137.96114 L 169.79473,138.19227 L 169.7617,138.4234 L 169.69567,138.62151 L 169.59661,138.81962 L 169.46454,139.01774 L 169.33245,139.18283 L 169.16737,139.34792 L 168.47397,140.00829 L 167.78058,140.63565 L 168.17681,140.66867 L 168.60605,140.80074 L 169.03529,140.93282 L 169.36548,140.99885 L 168.96925,141.29602 L 168.507,141.59319 L 168.04474,141.89036 L 167.51644,142.18752 L 166.98813,142.48469 L 166.45984,142.81488 L 165.93155,143.17808 L 165.43626,143.5743 L 165.66739,143.60732 L 165.96456,143.7394 L 166.09664,143.77241 L 166.22871,143.83845 L 166.32777,143.87147 L 166.42683,143.83845 L 165.76645,144.20166 L 164.94099,144.59788 L 164.54477,144.79599 L 164.21458,144.9941 L 164.04948,145.09316 L 163.95043,145.19222 L 163.88439,145.29127 L 163.81836,145.39033 L 163.85137,145.5224 L 163.91741,145.62146 L 164.04948,145.72051 L 164.14854,145.81957 L 164.11552,145.95164 L 164.04948,146.0507 L 163.91741,146.14975 L 163.78533,146.24881 L 163.48817,146.4139 L 163.09194,146.579 L 162.69572,146.71107 L 162.33252,146.84314 L 162.06836,146.97522 L 161.87026,147.07428 L 162.53062,147.73465 L 162.29949,147.96578 L 162.06836,148.13087 L 161.87026,148.22993 L 161.63913,148.32898 L 161.17687,148.39502 L 160.54952,148.39502 L 160.61555,148.69219 L 160.71461,148.98935 L 160.78065,149.31954 L 160.84668,149.64973 L 160.28536,150.07897 L 159.59197,150.57425 L 158.83255,151.06953 L 157.97407,151.56481 L 157.47878,151.82895 L 156.9835,152.06008 L 156.45521,152.2582 L 155.89389,152.45631 L 155.29956,152.65442 L 154.6722,152.78649 L 154.01183,152.91857 L 153.31844,153.01762 L 154.54012,153.05064 L 155.59672,153.05064 L 156.58728,152.95159 L 157.47878,152.85253 L 158.30424,152.68744 L 159.03066,152.48933 L 159.75707,152.22518 L 160.45046,151.96103 L 161.37498,151.53179 L 162.26648,151.03651 L 163.12497,150.50821 L 164.01646,149.97991 L 163.48817,149.71576 L 162.95987,149.55067 L 162.69572,149.45161 L 162.43158,149.31954 L 162.1344,149.18747 L 161.83724,149.02237 L 162.10139,148.82426 L 162.39855,148.69219 L 162.76175,148.56011 L 163.15798,148.46106 L 163.95043,148.29596 L 164.7759,148.19691 L 165.5023,148.09785 L 166.16268,148.03181 L 166.42683,147.96578 L 166.65796,147.89974 L 166.79003,147.8337 L 166.88909,147.73465 L 166.85606,147.70163 L 166.79003,147.63559 L 166.69097,147.60257 L 166.5589,147.53654 L 166.1957,147.4705 L 165.73343,147.40446 L 165.27117,147.37144 L 164.80891,147.30541 L 164.41268,147.20635 L 164.14854,147.10729 L 165.04004,146.90918 L 165.93155,146.71107 L 166.72399,146.54598 L 167.38436,146.38088 L 167.94568,146.21579 L 168.44096,146.01768 L 168.67209,145.91862 L 168.83718,145.81957 L 169.00228,145.72051 L 169.13435,145.58844 L 169.10132,145.55542 L 169.03529,145.48938 L 168.90322,145.45636 L 168.73812,145.42334 L 168.30889,145.39033 L 167.81361,145.39033 L 167.28531,145.35731 L 166.79003,145.32429 L 166.36078,145.25825 L 166.09664,145.19222 L 166.32777,145.09316 L 166.5589,144.9941 L 167.35135,144.76297 L 168.04474,144.56486 L 168.67209,144.39977 L 169.26642,144.20166 L 169.89377,144.00355 L 170.52113,143.7394 L 170.81829,143.5743 L 171.08244,143.40921 L 171.1815,143.31015 L 171.28056,143.17808 L 171.37961,143.07902 L 171.41263,142.97997 L 171.37961,142.88091 L 171.28056,142.81488 L 171.1815,142.78186 L 170.25699,142.78186 L 169.82774,142.81488 L 169.23341,142.81488 L 169.06831,142.78186 L 168.93624,142.71582 L 168.80416,142.64978 L 170.1249,141.7913 L 171.3466,140.99885 L 172.43621,140.30546 L 173.39375,139.64509 L 173.78998,139.3149 L 174.15318,138.98472 L 174.45034,138.65453 L 174.7145,138.32435 L 174.9126,137.96114 L 175.0777,137.59794 L 175.17676,137.20171 L 175.17676,136.77247 L 174.94563,136.77247 L 174.7145,136.80549 L 174.45034,136.90455 L 174.18619,137.0036 L 173.65789,137.33379 L 173.09658,137.66397 L 172.79941,137.82907 L 172.53527,137.99416 L 172.23809,138.12623 L 171.94093,138.22529 L 171.67679,138.29133 L 171.41263,138.32435 L 171.11547,138.32435 L 170.85132,138.22529 L 171.64376,137.63096 L 172.53527,136.87153 L 173.55884,135.98002 L 174.58241,134.98947 L 175.60599,133.93287 L 176.56353,132.87628 L 176.99278,132.31496 L 177.42202,131.78666 L 177.78523,131.25836 L 178.1154,130.76309 L 178.18144,130.63101 L 178.21446,130.53196 L 178.18144,130.39988 L 178.14843,130.30083 L 178.1154,130.20177 L 178.01636,130.13573 L 177.9173,130.03668 L 177.81824,130.00366 L 177.68617,129.93762 L 177.55409,129.9046 L 177.28995,129.9046 L 177.15788,129.93762 L 176.99278,129.97064 L 176.89372,130.06969 L 176.76165,130.16875 L 176.16731,130.76309 L 175.47392,131.45648 L 174.74751,132.2159 L 173.95506,132.97533 L 173.16262,133.66872 L 172.37018,134.32909 L 171.97395,134.59324 L 171.61074,134.82437 L 171.21452,135.02249 L 170.88434,135.18758 L 171.11547,134.98947 L 171.41263,134.6923 L 171.80886,134.29608 L 172.23809,133.8008 L 173.19564,132.64515 L 174.25224,131.29138 L 174.78053,130.56497 L 175.27581,129.83857 L 175.77108,129.14517 L 176.20033,128.41876 L 176.59656,127.75839 L 176.92673,127.16406 L 177.19089,126.60274 L 177.35598,126.14048 L 177.389,125.97539 L 177.389,125.71124 L 177.35598,125.61218 L 177.28995,125.51313 L 177.22391,125.41407 L 177.15788,125.34803 L 177.05882,125.31502 L 176.8607,125.21596 L 176.62957,125.14992 L 176.16731,125.14992 L 176.03524,125.18294 L 175.93618,125.21596 L 175.80411,125.282 L 175.70505,125.38105 L 175.4409,125.61218 L 175.17676,125.94237 L 174.58241,126.7018 L 173.95506,127.65934 L 173.26167,128.68291 L 172.50225,129.73951 L 172.073,130.23479 L 171.67679,130.73007 L 171.24754,131.15931 L 170.78528,131.55553 L 171.37961,130.46592 L 171.97395,129.21121 L 172.30414,128.51782 L 172.60131,127.82443 L 172.89847,127.09802 L 173.16262,126.37161 L 173.39375,125.61218 L 173.62488,124.88577 L 173.78998,124.15937 L 173.92205,123.43296 L 173.98808,122.73956 L 174.02111,122.07919 L 173.98808,121.74901 L 173.95506,121.45184 L 173.92205,121.15467 L 173.85601,120.85751 L 173.82299,120.75845 L 173.75695,120.65939 L 173.65789,120.56034 L 173.59186,120.4943 L 173.36073,120.39524 L 173.1296,120.32921 L 172.89847,120.32921 L 172.70035,120.36223 L 172.63432,120.39524 L 172.53527,120.42826 L 172.50225,120.4943 L 172.46922,120.59336 L 172.13905,121.68297 L 171.84187,122.77258 L 171.5447,123.92824 L 171.24754,125.05087 L 170.95037,126.1735 L 170.55415,127.2301 L 170.35603,127.75839 L 170.1249,128.22065 L 169.86076,128.71593 L 169.56358,129.14517 L 169.7617,128.18764 L 169.89377,127.32915 L 170.02586,126.5367 L 170.09189,125.8103 L 170.15793,125.18294 L 170.19094,124.62163 L 170.15793,124.15937 L 170.1249,123.76314 L 170.05887,123.43296 L 169.95981,123.16881 L 169.89377,123.06975 L 169.82774,122.9707 L 169.7617,122.90466 L 169.66264,122.87164 L 169.56358,122.83862 L 169.46454,122.8056 L 169.36548,122.8056 L 169.26642,122.83862 L 169.00228,122.90466 L 168.73812,123.03673 L 168.507,124.09333 L 168.27587,125.1169 L 168.01171,126.07444 L 167.71455,126.99896 L 167.38436,127.92349 L 167.02116,128.84801 L 166.62493,129.80555 L 166.16268,130.76309 L 165.83249,131.39044 L 165.5023,132.01779 L 165.1391,132.64515 L 164.7759,133.2725 L 164.37967,133.86683 L 163.98345,134.46117 L 163.5542,135.0555 L 163.12497,135.64984 L 162.33252,136.6404 L 161.50705,137.56492 L 160.64856,138.48944 L 159.75707,139.34792 L 158.83255,140.20641 L 157.87501,140.99885 L 156.88444,141.75828 L 155.86086,142.48469 L 155.16748,142.94695 L 154.44108,143.40921 L 153.71466,143.83845 L 152.98825,144.26769 L 151.8326,144.79599 L 150.67695,145.32429 L 149.48828,145.75353 L 148.29961,146.18277 L 147.30906,146.47994 L 146.31849,146.77711 L 145.29491,147.00824 L 144.27135,147.23937 L 143.24777,147.40446 L 142.19117,147.53654 L 141.16759,147.66861 L 140.111,147.73465 L 140.01194,147.76767 L 139.91288,147.80068 L 139.71478,147.89974 L 139.48365,148.06483 L 139.15346,148.362 L 138.72421,148.75822 L 138.19592,149.28652 L 137.56856,149.97991 L 136.97423,150.6733 L 136.28084,151.43273 L 135.91763,151.79594 L 135.55443,152.15914 L 135.12518,152.48933 L 134.69595,152.81951 L 134.36576,153.05064 L 134.03557,153.24875 L 133.67237,153.41385 L 133.30917,153.57894 L 132.51672,153.90913 L 131.72428,154.20629 L 130.93183,154.50346 L 130.23844,154.76761 L 129.94127,154.89968 L 129.6441,155.06478 L 129.37996,155.19685 L 129.18184,155.32893 L 128.98373,155.52704 L 128.81864,155.69213 L 128.71958,155.85722 L 128.65354,156.02232 L 128.62052,156.25345 L 128.62052,156.38552" id="path29" style="fill:#fec50c;fill-opacity:1;fill-rule:evenodd;stroke:none"/>
  <path d="M 130.53359,156.34792 C 130.46537,156.34797 130.41004,156.29268 130.41004,156.22445 C 130.41004,156.15623 130.46537,156.10094 130.53359,156.10099 C 130.60182,156.10094 130.65714,156.15623 130.65714,156.22445 C 130.65714,156.29268 130.60182,156.34797 130.53359,156.34792 z" id="path3938" style="fill:#fec50c;fill-opacity:1;stroke:#00ff00;stroke-width:0.04880306;stroke-miterlimit:4;stroke-dasharray:none;stroke-opacity:1"/>
  <use height="500" id="use4309" style="fill:#fec50c;fill-opacity:1" transform="matrix(0.258819,0,0,0.2564282,15.36,150.33269)" width="1000" x="0" xlink:href="#orn" y="0"/>
  <use height="500" id="use4325" style="fill:#fec50c;fill-opacity:1" transform="matrix(0.258819,0,0,-0.2738039,15.36,172.79189)" width="1000" x="0" xlink:href="#uorn" y="0"/>
  <use height="500" id="use4315" style="fill:#fec50c;fill-opacity:1" transform="matrix(0.258819,0,0,-0.2564282,15.36,150.45599)" width="1000" x="0" xlink:href="#orn" y="0"/>
  <use height="1000" id="use2526" transform="matrix(-1,0,0,1,30.720001,0)" width="2000" x="0" xlink:href="#use4325" y="0"/>
  <use height="1000" id="use2528" transform="matrix(-1,0,0,1,30.72,0)" width="2000" x="0" xlink:href="#use4309" y="0"/>
  <use height="1000" id="use2530" transform="matrix(-1,0,0,1,30.72,0)" width="2000" x="0" xlink:href="#use4315" y="0"/>
  <g id="use2633" transform="matrix(0.128,0,0,-0.1300684,0,193.9546)">
    <use height="500" id="use2673" style="fill:#fec50c;fill-opacity:1" transform="matrix(2.0220238,0,0,1.9714881,120,678.776)" width="1000" x="0" xlink:href="#orn" y="0"/>
    <use height="500" id="use2675" style="fill:#fec50c;fill-opacity:1" transform="matrix(2.0220238,0,0,-2.1050769,120,851.44827)" width="1000" x="0" xlink:href="#uorn" y="0"/>
    <use height="500" id="use2677" style="fill:#fec50c;fill-opacity:1" transform="matrix(2.0220238,0,0,-1.9714881,120,679.72399)" width="1000" x="0" xlink:href="#orn" y="0"/>
    <use height="1000" id="use2679" transform="matrix(-1,0,0,1,240.00001,808)" width="2000" x="0" xlink:href="#use4325" y="0"/>
    <use height="1000" id="use2681" transform="matrix(-1,0,0,1,240,808)" width="2000" x="0" xlink:href="#use4309" y="0"/>
    <use height="1000" id="use2683" transform="matrix(-1,0,0,1,240,808)" width="2000" x="0" xlink:href="#use4315" y="0"/>
  </g>
</svg>
