<?xml version="1.0" encoding="UTF-8" standalone="no"?>
<!-- Generator: Adobe Illustrator 13.0.2, SVG Export Plug-In . SVG Version: 6.00 Build 14948)  --><svg height="256" id="Layer_1" inkscape:output_extension="org.inkscape.output.svg.inkscape" inkscape:version="0.46" sodipodi:docname="Flag_of_the_United_States_Virgin_Islands.svg" sodipodi:version="0.32" space="preserve" version="1.0" viewBox="0 0 744 496" width="256" x="0px" xmlns="http://www.w3.org/2000/svg" xmlns:cc="http://creativecommons.org/ns#" xmlns:dc="http://purl.org/dc/elements/1.1/" xmlns:inkscape="http://www.inkscape.org/namespaces/inkscape" xmlns:rdf="http://www.w3.org/1999/02/22-rdf-syntax-ns#" xmlns:sodipodi="http://sodipodi.sourceforge.net/DTD/sodipodi-0.dtd" xmlns:svg="http://www.w3.org/2000/svg" y="0px">
  <metadata>
    <rdf:RDF xmlns:cc="http://web.resource.org/cc/" xmlns:dc="http://purl.org/dc/elements/1.1/" xmlns:rdf="http://www.w3.org/1999/02/22-rdf-syntax-ns#">
      <cc:Work rdf:about="">
        <dc:title></dc:title>
        <dc:description></dc:description>
        <dc:subject>
          <rdf:Bag>
            <rdf:li>unsorted</rdf:li>
          </rdf:Bag>
        </dc:subject>
        <dc:publisher>
          <cc:Agent rdf:about="http://www.openclipart.org/">
            <dc:title>Open Clip Art Library, Source: Wikimedia Commons</dc:title>
          </cc:Agent>
        </dc:publisher>
        <dc:creator>
          <cc:Agent>
            <dc:title></dc:title>
          </cc:Agent>
        </dc:creator>
        <dc:rights>
          <cc:Agent>
            <dc:title></dc:title>
          </cc:Agent>
        </dc:rights>
        <dc:date></dc:date>
        <dc:format>image/svg+xml</dc:format>
        <dc:type rdf:resource="http://purl.org/dc/dcmitype/StillImage"/>
        <cc:license rdf:resource="http://web.resource.org/cc/PublicDomain"/>
        <dc:language>en</dc:language>
      </cc:Work>
      <cc:License rdf:about="http://web.resource.org/cc/PublicDomain">
        <cc:permits rdf:resource="http://web.resource.org/cc/Reproduction"/>
        <cc:permits rdf:resource="http://web.resource.org/cc/Distribution"/>
        <cc:permits rdf:resource="http://web.resource.org/cc/DerivativeWorks"/>
      </cc:License>
    </rdf:RDF>
  </metadata>
  <defs id="defs2937">
    <inkscape:perspective id="perspective2941" inkscape:persp3d-origin="372 : 165.33333 : 1" inkscape:vp_x="0 : 248 : 1" inkscape:vp_y="0 : 1000 : 0" inkscape:vp_z="744 : 248 : 1" sodipodi:type="inkscape:persp3d"/>
  </defs>
  <sodipodi:namedview bordercolor="#666666" borderopacity="1.0" gridtolerance="10.0" guidetolerance="10.0" id="base" inkscape:current-layer="Layer_1" inkscape:cx="372" inkscape:cy="248" inkscape:pageopacity="0.0" inkscape:pageshadow="2" inkscape:window-height="688" inkscape:window-width="981" inkscape:window-x="51" inkscape:window-y="179" inkscape:zoom="0.75134409" objecttolerance="10.0" pagecolor="#ffffff" showgrid="false"/>
  <rect height="496" id="rect2836" style="fill:#ffffff" width="744" x="0" y="0"/>
  <path d="M 437.962,178.594 C 437.962,175.174 436.851,168.533 433.236,166.234 C 428.594,163.82 428.594,162.335 428.223,159.179 C 427.852,156.023 436.02,150.083 436.02,150.083 C 436.02,150.083 428.594,146.741 425.81,147.112 C 423.026,147.484 417.642,148.04 416.9,148.783 C 416.157,149.526 412.073,135.417 414.672,133.189 C 417.271,130.961 422.653,138.387 422.653,138.387 C 422.653,138.387 426.18,130.219 413.743,114.625 C 418.013,84.18 389.61,77.125 383.113,77.311 C 377.73,76.569 363.807,81.581 361.58,88.264 C 354.525,90.677 354.154,96.804 354.154,96.804 C 354.154,96.804 339.675,99.403 337.818,112.027 C 346.357,104.973 351.926,112.77 351.926,112.77 C 351.926,112.77 359.352,117.968 363.25,118.154 C 367.147,118.34 359.537,131.149 357.31,133.377 C 355.082,135.605 345.8,144.145 346.171,144.701 C 346.542,145.257 353.411,147.3 353.04,150.456 C 352.668,153.612 331.877,163.266 332.991,165.679 C 338.375,164.008 342.572,165.295 342.572,165.295 C 343.322,170.566 341.222,176.635 337.64,178.6 L 437.962,178.594 z" id="path592" style="fill:#ffd600;stroke:#000000;stroke-width:1.4835"/>
  <path d="M 432.459,317.705 C 432.459,317.705 433.404,328.865 428.676,333.594 C 449.671,334.918 461.02,356.293 461.209,361.401 C 461.397,366.507 454.777,370.479 454.777,370.479 C 454.777,370.479 457.048,379.559 448.346,381.072 C 448.535,389.773 442.483,389.773 442.483,389.773 C 442.483,389.773 440.213,396.961 433.215,396.583 C 431.134,406.986 420.353,406.797 420.353,406.797 C 420.353,406.797 414.111,421.93 404.843,416.066 C 398.98,428.928 383.47,428.361 377.606,416.066 C 374.391,415.878 367.204,420.227 362.853,407.365 C 353.207,409.068 349.424,396.773 349.424,396.773 C 349.424,396.773 342.992,396.205 340.533,389.774 C 332.968,388.261 334.292,380.695 334.292,380.695 C 334.292,380.695 326.727,378.615 326.915,370.292 C 320.862,366.697 321.43,360.267 321.43,360.267 C 321.43,360.267 326.159,337.948 353.585,333.218 C 349.234,326.977 349.802,317.897 349.802,317.897 L 432.459,317.705 z" id="path661" style="fill:#ffd600;stroke:#000000;stroke-width:1.4835;stroke-linecap:round;stroke-linejoin:round"/>
  <g id="g638" transform="matrix(-1.48352,0,0,1.48359,758.85,27.3985)">
    <path d="M 308.578,109.376 C 308.578,109.376 318.655,120.217 323.694,112.125 C 328.733,104.033 316.671,101.742 316.518,101.589 C 316.365,101.437 309.494,99.299 308.884,86.626 C 308.273,73.953 324,65.708 328.428,64.639 C 332.856,63.57 345.834,63.57 345.834,63.57 C 345.834,63.57 393.319,52.119 398.205,48.607 C 403.091,45.095 447.981,36.85 447.981,36.85 C 447.981,36.85 455.157,35.934 454.546,42.347 C 453.935,48.76 447.981,49.523 447.981,49.523 C 447.981,49.523 453.02,53.493 452.409,57.005 C 451.798,60.517 447.981,66.166 440.041,65.25 C 440.957,77.77 423.551,79.755 423.551,79.755 C 423.551,79.755 421.719,97.772 405.686,96.856 C 401.869,109.223 387.517,109.682 387.517,109.682 C 387.517,109.682 380.799,118.08 371.027,118.69 C 365.378,132.737 353.163,128.767 353.163,128.767 C 353.163,128.767 354.079,137.623 348.43,137.623 C 351.331,147.7 340.491,149.074 336.368,147.089 C 335.299,149.226 331.635,155.792 323.237,151.67 C 318.199,159.152 309.953,155.64 309.953,155.64 C 309.953,155.64 308.121,161.595 300.945,159.304 C 293.767,157.013 308.73,109.681 308.578,109.376 z" id="path639" style="fill:#ffd600;stroke:#000000;stroke-linejoin:round"/>
    <path d="M 339.726,72.426 C 339.726,72.426 328.58,73.648 329.954,90.901" id="path640" style="fill:#ffd600;stroke:#000000;stroke-linecap:round;stroke-linejoin:round"/>
    <path d="M 382.172,54.562 C 382.172,54.562 403.548,69.22 363.544,73.8" id="path641" style="fill:#ffd600;stroke:#000000;stroke-linecap:round;stroke-linejoin:round"/>
    <path d="M 376.065,71.815 C 376.217,72.12 386.142,83.877 367.82,87.389 C 376.523,95.634 360.186,98.382 360.186,98.382 C 360.186,98.382 363.545,107.085 353.773,109.375 C 356.979,118.384 346.444,117.926 346.444,117.926 C 346.444,117.926 346.139,128.919 333.618,128.767 C 333.771,136.249 325.068,136.707 325.068,136.707 C 325.068,136.707 322.472,144.799 314.075,142.356 C 313.159,148.005 307.357,146.784 307.357,146.784" id="path642" style="fill:#ffd600;stroke:#000000;stroke-linecap:round;stroke-linejoin:round"/>
    <path d="M 309.799,155.792 C 309.799,155.792 309.341,148.005 311.173,146.478" id="path643" style="fill:#f7f308;stroke:#000000;stroke-linecap:round;stroke-linejoin:round"/>
    <path d="M 323.694,151.517 C 323.541,151.364 320.029,144.341 321.251,143.119" id="path644" style="fill:#f7f308;stroke:#000000;stroke-linecap:round;stroke-linejoin:round"/>
    <path d="M 336.519,147.089 L 327.052,137.775" id="path645" style="fill:#f7f308;stroke:#000000;stroke-linecap:round;stroke-linejoin:round"/>
    <path d="M 348.429,137.928 C 348.276,137.775 334.077,128.92 334.077,128.92" id="path646" style="fill:#f7f308;stroke:#000000;stroke-linecap:round;stroke-linejoin:round"/>
    <path d="M 353.467,128.919 C 353.314,128.766 345.375,125.407 345.069,122.506" id="path647" style="fill:#f7f308;stroke:#000000;stroke-linecap:round;stroke-linejoin:round"/>
    <path d="M 371.026,118.689 C 371.026,118.689 351.788,122.812 348.428,118.384" id="path648" style="fill:#ffd600;stroke:#000000;stroke-linecap:round;stroke-linejoin:round"/>
    <path d="M 387.058,109.528 C 386.295,109.528 358.201,112.582 355.605,109.07" id="path649" style="fill:#ffd600;stroke:#000000;stroke-linecap:round;stroke-linejoin:round"/>
    <path d="M 405.686,96.855 C 405.228,96.702 372.401,102.963 363.087,98.229" id="path650" style="fill:#ffd600;stroke:#000000;stroke-linecap:round;stroke-linejoin:round"/>
    <path d="M 421.412,79.907 C 420.648,79.907 377.744,90.29 371.331,87.083" id="path651" style="fill:#ffd600;stroke:#000000;stroke-linecap:round;stroke-linejoin:round"/>
    <path d="M 437.75,64.944 C 437.445,64.944 386.6,76.854 380.188,71.967" id="path652" style="fill:#ffd600;stroke:#000000;stroke-linecap:round;stroke-linejoin:round"/>
    <path d="M 444.315,50.439 C 444.163,50.439 395.608,66.318 391.486,62.348" id="path653" style="fill:#ffd600;stroke:#000000;stroke-linecap:round;stroke-linejoin:round"/>
  </g>
  <g id="g622" transform="matrix(1.48352,0,0,1.48359,24.0962,27.918)">
    <path d="M 308.577,109.376 C 308.577,109.376 318.655,120.217 323.693,112.125 C 328.732,104.033 316.67,101.742 316.517,101.589 C 316.364,101.437 309.493,99.299 308.882,86.626 C 308.272,73.953 323.998,65.708 328.426,64.639 C 332.854,63.57 345.832,63.57 345.832,63.57 C 345.832,63.57 393.317,52.119 398.203,48.607 C 403.089,45.095 447.978,36.85 447.978,36.85 C 447.978,36.85 455.155,35.934 454.544,42.347 C 453.933,48.76 447.978,49.523 447.978,49.523 C 447.978,49.523 453.017,53.493 452.406,57.005 C 451.795,60.517 447.978,66.166 440.038,65.25 C 440.954,77.77 423.548,79.755 423.548,79.755 C 423.548,79.755 421.715,97.772 405.684,96.856 C 401.867,109.223 387.514,109.682 387.514,109.682 C 387.514,109.682 380.796,118.08 371.024,118.69 C 365.375,132.737 353.16,128.767 353.16,128.767 C 353.16,128.767 354.076,137.623 348.427,137.623 C 351.328,147.7 340.488,149.074 336.365,147.089 C 335.297,149.226 331.631,155.792 323.234,151.67 C 318.196,159.152 309.951,155.64 309.951,155.64 C 309.951,155.64 308.119,161.595 300.943,159.304 C 293.767,157.013 308.73,109.681 308.577,109.376 z" id="path607" style="fill:#ffd600;stroke:#000000;stroke-linejoin:round"/>
    <path d="M 339.726,72.426 C 339.726,72.426 328.58,73.648 329.954,90.901" id="path608" style="fill:#ffd600;stroke:#000000;stroke-linecap:round;stroke-linejoin:round"/>
    <path d="M 382.172,54.562 C 382.172,54.562 403.547,69.22 363.544,73.8" id="path609" style="fill:#ffd600;stroke:#000000;stroke-linecap:round;stroke-linejoin:round"/>
    <path d="M 376.065,71.815 C 376.218,72.12 386.142,83.877 367.819,87.389 C 376.522,95.634 360.185,98.382 360.185,98.382 C 360.185,98.382 363.544,107.085 353.772,109.375 C 356.978,118.384 346.443,117.926 346.443,117.926 C 346.443,117.926 346.138,128.919 333.617,128.767 C 333.77,136.249 325.067,136.707 325.067,136.707 C 325.067,136.707 322.471,144.799 314.073,142.356 C 313.157,148.005 307.355,146.784 307.355,146.784" id="path610" style="fill:#ffd600;stroke:#000000;stroke-linecap:round;stroke-linejoin:round"/>
    <path d="M 309.799,155.792 C 309.799,155.792 309.341,148.005 311.173,146.478" id="path611" style="fill:#f7f308;stroke:#000000;stroke-linecap:round;stroke-linejoin:round"/>
    <path d="M 323.693,151.517 C 323.54,151.364 320.029,144.341 321.25,143.119" id="path612" style="fill:#f7f308;stroke:#000000;stroke-linecap:round;stroke-linejoin:round"/>
    <path d="M 336.519,147.089 L 327.052,137.775" id="path613" style="fill:#f7f308;stroke:#000000;stroke-linecap:round;stroke-linejoin:round"/>
    <path d="M 348.429,137.928 C 348.276,137.775 334.077,128.92 334.077,128.92" id="path614" style="fill:#ffd600;stroke:#000000;stroke-linecap:round;stroke-linejoin:round"/>
    <path d="M 353.467,128.919 C 353.314,128.766 345.375,125.407 345.069,122.506" id="path615" style="fill:#f7f308;stroke:#000000;stroke-linecap:round;stroke-linejoin:round"/>
    <path d="M 371.026,118.689 C 371.026,118.689 351.788,122.812 348.429,118.384" id="path616" style="fill:#ffd600;stroke:#000000;stroke-linecap:round;stroke-linejoin:round"/>
    <path d="M 387.058,109.528 C 386.294,109.528 358.201,112.582 355.605,109.07" id="path617" style="fill:#ffd600;stroke:#000000;stroke-linecap:round;stroke-linejoin:round"/>
    <path d="M 405.686,96.855 C 405.228,96.702 372.4,102.963 363.086,98.229" id="path618" style="fill:#ffd600;stroke:#000000;stroke-linecap:round;stroke-linejoin:round"/>
    <path d="M 421.412,79.907 C 420.649,79.907 377.744,90.289 371.331,87.083" id="path619" style="fill:#ffd600;stroke:#000000;stroke-linecap:round;stroke-linejoin:round"/>
    <path d="M 437.75,64.944 C 437.445,64.944 386.6,76.854 380.187,71.967" id="path620" style="fill:#ffd600;stroke:#000000;stroke-linecap:round;stroke-linejoin:round"/>
    <path d="M 444.315,50.439 C 444.162,50.439 395.608,66.318 391.485,62.348" id="path621" style="fill:#ffd600;stroke:#000000;stroke-linecap:round;stroke-linejoin:round"/>
  </g>
  <path d="M 568.433,217.641 C 568.433,217.641 564.004,280.937 563.789,280.793 C 563.575,280.648 554.552,269.736 554.552,269.736 L 526.705,357.039 L 533.214,376.083 L 517.001,429.246 L 503.63,412.285 L 482.029,420.971 L 499.368,364.979 L 515.387,353.469 L 544.231,267.462 L 528.223,269.466 L 568.433,217.641 z" id="path572" style="fill:#00cede;stroke:#000000;stroke-width:1.4835"/>
  <path d="M 629.973,243.748 C 629.973,243.748 596.292,297.521 596.171,297.293 C 596.049,297.064 593.22,283.189 593.22,283.189 L 537.875,334.529 L 478.777,391.554 L 478.614,379.809 L 458.392,377.312 L 485.139,356.847 L 498.836,354.59 L 585.181,276.327 L 570.111,270.565 L 629.973,243.748 z" id="path571" style="fill:#00cede;stroke:#000000;stroke-width:1.4835"/>
  <path d="M 478.817,379.717 C 479.183,378.953 509.546,353.01 509.546,353.01" id="path574" style="fill:none;stroke:#000000;stroke-width:1.51499999"/>
  <path d="M 611.978,198.259 C 611.978,198.259 595.516,259.537 595.333,259.354 C 595.15,259.172 588.383,246.733 588.383,246.733 L 521.619,361.424 L 524.362,381.362 L 500.401,425.263 L 490.523,406.056 L 467.66,410.447 L 493.267,363.985 L 511.193,355.754 L 578.687,242.525 L 562.591,241.428 L 611.978,198.259 z" id="path570" style="fill:#00cede;stroke:#000000;stroke-width:1.4835"/>
  <path d="M 490.89,405.325 C 490.89,404.96 513.937,364.717 513.937,364.717" id="path573" style="fill:none;stroke:#000000;stroke-width:1.4835"/>
  <path d="M 37.632,186.735 L 77.873,186.918 L 73.849,196.613 L 91.409,266.123 L 112.627,196.796 L 105.127,186.735 L 147.014,186.735 L 138.051,196.43 L 103.481,295.756 L 112.443,308.743 L 72.202,308.743 L 81.165,295.756 L 47.326,196.796 L 37.632,186.735 z" id="path563" style="fill:#00cede;stroke:#000000;stroke-width:1.4835"/>
  <path d="M 654.963,189.113 L 693.192,189.113 L 686.973,197.71 L 686.789,298.865 L 695.387,308.377 L 654.963,308.377 L 663.011,298.134 L 662.828,197.893 L 654.963,189.113 z" id="path566" style="fill:#00cede;stroke:#000000;stroke-width:1.4835"/>
  <path d="M 353.586,97.64 C 353.586,97.64 358.488,103.797 360.313,104.367 C 362.137,104.937 372.398,109.954 371.829,113.374 C 371.259,116.794 364.532,118.505 364.532,118.505" id="path583" style="fill:none;stroke:#000000;stroke-width:1.4835"/>
  <path d="M 361.681,88.519 L 371.942,98.324 C 371.942,98.324 373.766,106.761 381.063,106.077 C 388.36,105.393 387.334,102.314 387.334,102.314 C 387.334,102.314 378.556,96.157 371.601,97.639" id="path584" style="fill:none;stroke:#000000;stroke-width:1.4835"/>
  <path d="M 299.116,397.538 L 312.821,386.155 C 312.821,386.155 309.801,379.883 298.883,380.115 C 288.663,372.915 271.01,355.957 271.01,355.957 L 262.183,332.031 C 262.183,332.031 269.384,329.941 271.01,324.134 C 272.635,318.326 270.545,311.125 269.848,310.429 C 269.151,309.732 261.951,311.59 259.86,314.61 C 257.769,317.631 254.517,329.245 249.639,325.296 C 244.761,321.347 250.336,316.934 250.336,316.934 C 250.336,316.934 255.214,310.895 254.982,307.642 C 254.75,304.39 248.479,294.634 247.781,294.402 C 247.084,294.17 245.691,307.178 243.832,308.572 C 241.974,309.967 239.419,315.773 235.702,312.521 C 231.986,309.269 237.56,304.39 237.56,304.39 C 237.56,304.39 248.013,298.816 237.792,280.464 C 234.772,288.362 228.966,293.472 228.966,293.472 C 228.966,293.472 226.178,298.351 223.623,294.169 C 221.068,289.988 226.643,286.039 226.643,286.039 C 226.643,286.039 235.702,280.696 235.935,272.798 C 236.167,264.901 225.018,255.841 225.018,255.841 C 225.018,255.841 224.322,270.476 220.837,272.334 C 217.352,274.192 215.959,277.212 212.01,273.96 C 208.061,270.708 215.03,263.507 215.03,263.507 C 215.03,263.507 227.109,251.428 226.412,244.459 C 225.715,237.49 225.018,236.329 225.018,236.329 C 225.018,236.329 215.959,241.904 214.798,244.691 C 213.636,247.479 209.92,257.467 205.274,254.447 C 202.022,250.731 208.062,243.53 208.062,243.53 C 208.062,243.53 212.475,238.652 212.243,236.561 C 212.011,234.47 208.527,228.199 201.79,222.159 C 200.861,220.301 200.396,212.867 200.396,212.867 C 200.396,212.867 195.286,218.907 195.519,222.159 C 195.751,225.411 195.054,231.915 195.751,239.116 C 196.448,246.317 190.176,236.793 190.176,236.793 L 191.338,213.564 C 191.338,213.564 182.511,202.878 171.826,198.93 C 175.775,204.737 175.542,210.312 175.542,210.312 C 175.542,210.312 171.129,219.836 171.129,222.391 C 171.129,224.946 176.239,236.096 185.763,243.529 C 171.361,227.966 153.476,233.076 148.133,230.056 C 150.688,233.076 158.354,244.458 157.425,247.478 C 156.496,250.498 171.13,256.77 171.13,256.77 L 186.693,257.002 C 186.693,257.002 194.358,262.344 195.055,265.828 C 195.752,269.313 183.906,259.324 179.26,259.557 C 174.614,259.789 162.303,257.932 162.303,257.932 C 162.303,257.932 169.736,264.9 169.968,267.92 C 170.2,270.94 173.452,277.908 177.866,279.767 C 182.279,281.625 194.125,282.323 194.125,282.323 C 194.125,282.323 199.235,279.302 200.165,282.554 C 201.094,285.806 193.429,288.362 193.429,288.362 C 193.429,288.362 185.532,288.362 182.976,286.271 C 180.42,284.18 179.956,280.696 168.575,279.302 C 167.413,288.826 174.846,298.582 174.846,298.582 C 174.846,298.582 206.204,296.027 205.971,302.764 C 205.739,309.5 179.956,303.46 179.027,301.369 C 178.098,299.279 180.189,314.609 186.228,317.861 C 192.267,321.113 205.74,319.488 207.366,318.791 C 208.992,318.094 215.031,317.397 215.031,320.882 C 215.031,324.367 184.37,327.154 183.906,326.225 C 183.441,325.295 188.552,338.072 200.863,337.375 C 213.174,336.678 218.516,332.961 218.516,332.961 C 218.516,332.961 225.949,331.566 226.645,334.587 C 227.342,337.607 219.212,339 219.212,339 C 219.212,339 199.7,339.465 199.004,338.535 C 198.307,337.606 203.418,350.847 217.122,350.615 C 227.343,349.685 228.039,345.271 230.13,344.575 C 233.15,343.879 239.654,343.879 240.583,344.111 C 241.512,344.343 257.772,355.724 257.772,355.724 L 299.116,397.538 z" id="path585" style="fill:#188400;stroke:#000000;stroke-width:1.4835;stroke-linejoin:round"/>
  <path d="M 179.26,214.028 C 179.26,214.028 178.795,236.328 189.945,243.065" id="path593" style="fill:none;stroke:#000000;stroke-width:1.4835;stroke-linecap:round;stroke-linejoin:round"/>
  <path d="M 202.72,231.682 C 202.72,231.682 210.153,243.064 197.61,247.245" id="path594" style="fill:none;stroke:#000000;stroke-width:1.4835;stroke-linecap:round;stroke-linejoin:round"/>
  <path d="M 164.161,239.348 C 164.161,239.348 163.232,252.123 185.764,251.195" id="path595" style="fill:none;stroke:#000000;stroke-width:1.4835;stroke-linecap:round;stroke-linejoin:round"/>
  <path d="M 219.909,250.498 C 219.909,250.498 216.193,259.557 207.134,259.092" id="path596" style="fill:none;stroke:#000000;stroke-width:1.4835;stroke-linecap:round;stroke-linejoin:round"/>
  <path d="M 228.271,270.939 C 228.271,272.1 229.897,284.412 218.051,284.179" id="path597" style="fill:none;stroke:#000000;stroke-width:1.4835;stroke-linecap:round;stroke-linejoin:round"/>
  <path d="M 171.594,265.828 C 171.594,265.828 186.46,275.121 193.196,274.424" id="path598" style="fill:none;stroke:#000000;stroke-width:1.4835;stroke-linecap:round;stroke-linejoin:round"/>
  <path d="M 174.846,288.361 C 174.846,288.361 181.814,295.795 194.59,293.935" id="path599" style="fill:none;stroke:#000000;stroke-width:1.4835;stroke-linecap:round;stroke-linejoin:round"/>
  <path d="M 236.168,293.471 C 236.168,294.401 233.846,301.602 228.735,302.532" id="path600" style="fill:none;stroke:#000000;stroke-width:1.4835;stroke-linecap:round;stroke-linejoin:round"/>
  <path d="M 186.46,309.965 C 186.46,309.965 192.035,317.165 206.668,313.217" id="path601" style="fill:none;stroke:#000000;stroke-width:1.4835;stroke-linecap:round;stroke-linejoin:round"/>
  <path d="M 250.105,306.944 C 250.105,306.944 247.782,318.326 241.743,318.558" id="path602" style="fill:none;stroke:#000000;stroke-width:1.4835;stroke-linecap:round;stroke-linejoin:round"/>
  <path d="M 264.274,319.256 C 264.274,319.256 259.628,332.961 247.782,330.87" id="path603" style="fill:none;stroke:#000000;stroke-width:1.4835;stroke-linecap:round;stroke-linejoin:round"/>
  <path d="M 209.688,343.646 C 209.688,343.646 214.334,347.828 225.715,342.716" id="path604" style="fill:none;stroke:#000000;stroke-width:1.4835;stroke-linecap:round;stroke-linejoin:round"/>
  <path d="M 196.913,329.709 C 197.842,329.709 203.649,334.587 217.586,327.154" id="path605" style="fill:none;stroke:#000000;stroke-width:1.4835;stroke-linecap:round;stroke-linejoin:round"/>
  <path d="M 299.094,380.467 C 299.094,380.467 290.415,384.353 298.835,397.436" id="path606" style="fill:none;stroke:#000000;stroke-width:1.4835;stroke-linecap:round;stroke-linejoin:round"/>
  <path d="M 469.593,266.324 C 469.593,266.324 478.714,275.081 478.897,276.906 C 479.08,278.73 481.269,287.304 483.64,288.582 C 486.011,289.86 495.316,297.339 496.593,300.258 C 497.869,303.178 506.079,315.583 506.079,315.583 C 506.079,315.583 513.741,331.272 518.849,332.55 C 523.957,333.826 538.37,331.638 541.288,338.571 C 544.206,345.504 543.477,355.538 543.477,355.538 C 543.477,355.538 540.01,358.64 538.369,356.815 C 536.728,354.99 533.808,365.936 528.7,362.835 C 521.742,348.02 503.532,350.438 503.532,350.438 C 503.532,350.438 507.538,344.227 491.302,338.753 C 465.944,343.132 458.464,316.679 458.464,316.679 L 444.03,304.159 L 469.593,266.324 z" id="path654" style="fill:#ffd600;stroke:#000000;stroke-width:1.4835"/>
  <path d="M 454.998,303.906 L 466.309,309.197 L 465.397,299.528" id="path655" style="fill:#ffd600;stroke:#000000;stroke-width:1.4835"/>
  <path d="M 471.052,302.447 L 481.45,307.555 L 477.255,299.163" id="path656" style="fill:#ffd600;stroke:#000000;stroke-width:1.4835"/>
  <path d="M 470.505,288.765 L 480.721,294.238 L 475.978,283.657" id="path657" style="fill:#ffd600;stroke:#000000;stroke-width:1.4835"/>
  <path d="M 486.741,338.935 C 486.741,338.935 475.065,323.61 475.248,323.61 C 475.431,323.61 495.133,327.441 495.133,327.441 L 487.836,311.752 L 505.897,316.495" id="path658" style="fill:#ffd600;stroke:#000000;stroke-width:1.4835"/>
  <path d="M 520.309,341.307 C 520.309,341.307 531.802,343.862 531.437,363.018" id="path659" style="fill:#ffd600;stroke:#000000;stroke-width:1.4835"/>
  <path d="M 526.328,338.388 C 526.328,338.388 538.734,337.659 538.004,356.996" id="path660" style="fill:#ffd600;stroke:#000000;stroke-width:1.4835"/>
  <path d="M 312.38,268.698 C 312.38,268.698 303.258,277.455 303.076,279.279 C 302.893,281.103 299.191,288.543 296.82,289.82 C 294.448,291.097 286.279,299.334 285.002,302.254 C 283.725,305.173 275.894,317.957 275.894,317.957 C 275.894,317.957 266.908,330.998 261.8,332.275 C 255.557,332.796 243.604,334.011 240.685,340.943 C 237.766,347.877 242.279,358.478 245.684,358.478 C 250.791,360.748 253.122,363.092 254.764,361.268 C 257.54,362.091 255.952,364.468 261.061,361.367 C 257.178,356.391 257.593,351.583 261.485,350.322 C 265.367,348.994 271.69,354.902 271.69,354.902 C 271.69,354.902 273.992,344.159 290.229,338.685 C 315.587,343.064 322.401,322.601 324.176,317.72 C 328.174,312.278 334.392,310.829 339.5,307.384 L 312.38,268.698 z" id="path670" style="fill:#ffd600;stroke:#000000;stroke-width:1.4835"/>
  <path d="M 327.418,304.062 L 315.663,310.24 L 316.575,301.902" id="path671" style="fill:none;stroke:#000000;stroke-width:1.4835;stroke-linecap:round;stroke-linejoin:round"/>
  <path d="M 311.808,302.381 L 300.744,307.488 L 305.827,298.875" id="path672" style="fill:none;stroke:#000000;stroke-width:1.4835;stroke-linecap:round;stroke-linejoin:round"/>
  <path d="M 312.133,288.92 L 302.583,293.062 L 305.995,286.03" id="path673" style="fill:none;stroke:#000000;stroke-width:1.4835;stroke-linecap:round;stroke-linejoin:round"/>
  <path d="M 295.675,338.868 C 297.45,335.318 306.463,324.209 306.28,324.209 C 306.098,324.209 287.726,328.041 287.726,328.041 L 293.692,312.572 L 277.628,315.762" id="path674" style="fill:none;stroke:#000000;stroke-width:1.4835;stroke-linecap:round;stroke-linejoin:round"/>
  <path d="M 262.42,341.222 C 262.42,341.222 248.468,343.776 253.94,361.04" id="path675" style="fill:none;stroke:#000000;stroke-width:1.4835;stroke-linecap:round;stroke-linejoin:round"/>
  <path d="M 256.4,338.87 C 256.4,338.87 241.158,339.275 246.427,358.235" id="path676" style="fill:none;stroke:#000000;stroke-width:1.4835"/>
  <path d="M 424.325,324.893 C 424.325,324.704 429.432,337.755 418.462,340.025 C 446.645,337.945 454.589,370.1 454.589,370.1" id="path662" style="fill:none;stroke:#000000;stroke-width:1.85440004;stroke-linecap:round;stroke-linejoin:round"/>
  <path d="M 417.895,329.622 C 417.895,329.622 420.354,339.08 412.221,343.809 C 441.727,350.241 448.536,380.883 448.536,380.883" id="path663" style="fill:none;stroke:#000000;stroke-width:1.4835;stroke-linecap:round;stroke-linejoin:round"/>
  <path d="M 411.652,333.973 C 411.652,334.352 414.49,346.268 405.221,348.16 C 423.569,343.241 442.672,389.773 442.672,389.773" id="path664" style="fill:none;stroke:#000000;stroke-width:1.4835;stroke-linecap:round;stroke-linejoin:round"/>
  <path d="M 402.763,339.269 C 402.763,339.269 407.492,348.347 398.791,351.185 C 415.246,352.887 420.543,406.985 420.543,406.985" id="path665" style="fill:none;stroke:#000000;stroke-width:1.4835;stroke-linecap:round;stroke-linejoin:round"/>
  <path d="M 397.089,342.484 C 397.089,342.484 399.736,352.509 391.226,355.535 C 408.438,346.457 405.222,416.443 405.222,416.443" id="path666" style="fill:none;stroke:#000000;stroke-width:1.4835;stroke-linecap:round;stroke-linejoin:round"/>
  <path d="M 385.74,343.052 C 385.74,343.052 382.146,353.645 390.091,355.725 C 374.392,351.375 377.418,416.444 377.418,416.444" id="path667" style="fill:none;stroke:#000000;stroke-width:1.4835;stroke-linecap:round;stroke-linejoin:round"/>
  <path d="M 378.363,338.891 C 378.363,338.891 375.904,348.537 385.551,353.455 C 369.474,343.241 362.854,407.742 362.854,407.742" id="path668" style="fill:none;stroke:#000000;stroke-width:1.4835;stroke-linecap:round;stroke-linejoin:round"/>
  <path d="M 403.898,347.781 C 403.898,347.781 433.214,375.965 433.026,396.771" id="path669" style="fill:none;stroke:#000000;stroke-width:1.4835;stroke-linecap:round;stroke-linejoin:round"/>
  <path d="M 357.558,325.082 C 357.558,325.271 353.964,340.215 364.368,340.593" id="path677" style="fill:none;stroke:#000000;stroke-width:1.4835;stroke-linecap:round;stroke-linejoin:round"/>
  <path d="M 364.935,330.568 C 364.935,330.946 362.097,343.24 370.419,343.808" id="path678" style="fill:none;stroke:#000000;stroke-width:1.4835;stroke-linecap:round;stroke-linejoin:round"/>
  <path d="M 371.555,334.162 C 371.555,334.162 366.448,346.457 378.931,348.159" id="path679" style="fill:none;stroke:#000000;stroke-width:1.4835;stroke-linecap:round;stroke-linejoin:round"/>
  <path d="M 377.985,348.348 C 377.796,348.348 353.586,370.858 349.802,396.96" id="path680" style="fill:none;stroke:#000000;stroke-width:1.4835;stroke-linecap:round;stroke-linejoin:round"/>
  <path d="M 373.445,346.078 C 373.257,346.078 342.615,365.182 340.534,389.583" id="path681" style="fill:none;stroke:#000000;stroke-width:1.4835;stroke-linecap:round;stroke-linejoin:round"/>
  <path d="M 366.637,342.863 C 366.637,342.863 332.591,362.723 334.104,380.693" id="path682" style="fill:none;stroke:#000000;stroke-width:1.4835;stroke-linecap:round;stroke-linejoin:round"/>
  <path d="M 358.503,338.512 C 358.503,338.512 333.158,343.241 326.916,370.479" id="path683" style="fill:none;stroke:#000000;stroke-width:1.4835;stroke-linecap:round;stroke-linejoin:round"/>
  <path d="M 305.05,164.236 C 305.05,164.236 329.56,177.772 347.12,177.04 C 364.68,176.308 391.019,164.967 391.019,164.967 C 391.019,164.967 414.431,178.137 433.455,176.308 C 452.477,174.479 478.817,164.236 478.817,164.236 C 494.547,242.77 458.697,313.256 391.019,344.962 C 319.195,312.158 284.32,233.258 305.05,164.236 z" id="path689" style="fill:none;stroke:#000000;stroke-width:1.4835"/>
  <g id="g697" transform="matrix(1.48352,0,0,1.48359,24.0962,27.918)">
    <path d="M 189.383,91.884 C 189.383,91.884 205.905,101.008 217.741,100.515 C 229.578,100.022 247.332,92.377 247.332,92.377 C 247.332,92.377 263.114,101.254 275.937,100.022 C 288.76,98.789 306.514,91.884 306.514,91.884 C 317.117,144.819 292.952,192.329 247.332,213.701 C 198.918,191.589 175.41,138.408 189.383,91.884 z" id="path581" style="fill:#ffffff;stroke:#000000"/>
    <path d="M 195.472,130.353 L 195.472,163.45 L 204.859,179.277 L 204.859,130.353 L 195.472,130.353 z" id="path586" style="fill:#c41e3a"/>
    <path d="M 214.246,130.353 L 214.246,190.28 L 223.633,199.017 L 223.633,130.353 L 214.246,130.353 z" id="path587" style="fill:#c41e3a"/>
    <path d="M 233.02,130.353 L 233.02,206.11 L 242.407,211.322 L 242.407,130.353 L 233.02,130.353 z" id="path588" style="fill:#c41e3a"/>
    <path d="M 298.73,130.353 L 298.73,163.459 L 289.343,179.423 L 289.343,130.353 L 298.73,130.353 z" id="path589" style="fill:#c41e3a"/>
    <path d="M 279.956,130.353 L 279.956,190.575 L 270.569,199.135 L 270.569,130.352 L 279.956,130.352 L 279.956,130.353 z" id="path590" style="fill:#c41e3a"/>
    <path d="M 261.182,130.353 L 261.182,205.966 L 251.795,211.558 L 251.795,130.353 L 261.182,130.353 z" id="path591" style="fill:#c41e3a"/>
    <path d="M 189.383,91.884 C 189.383,91.884 193.514,94.165 199.123,96.384 C 204.733,98.604 211.822,100.761 217.74,100.514 C 229.577,100.021 247.331,92.376 247.331,92.376 C 247.331,92.376 263.113,101.253 275.936,100.021 C 288.759,98.788 306.513,91.883 306.513,91.883 C 309.103,107.254 310.397,115.104 308.116,130.352 L 186.085,130.352 C 184.533,115.136 184.616,108.241 189.383,91.884 z" id="path582" style="fill:#002b7f;stroke:#000000"/>
  </g>
  <path d="M 305.05,164.236 C 305.05,164.236 329.56,177.772 347.12,177.04 C 364.68,176.308 391.019,164.967 391.019,164.967 C 391.019,164.967 414.431,178.137 433.455,176.308 C 452.477,174.479 478.817,164.236 478.817,164.236 C 494.547,242.77 458.697,313.256 391.019,344.962 C 319.195,312.158 284.32,233.258 305.05,164.236 z" id="path707" style="fill:none;stroke:#000000;stroke-width:1.4835"/>
</svg>
