<?xml version="1.0" encoding="UTF-8" standalone="no"?>
<!-- Created with Sodipodi ("http://www.sodipodi.com/") --><!--



--><svg height="256" id="svg678" inkscape:output_extension="org.inkscape.output.svg.inkscape" inkscape:version="0.46" sodipodi:docbase="D:\Kuvat\Wikipedia" sodipodi:docname="Flag_of_Eritrea.svg" sodipodi:version="0.32" version="1.0" width="256" xmlns="http://www.w3.org/2000/svg" xmlns:cc="http://creativecommons.org/ns#" xmlns:dc="http://purl.org/dc/elements/1.1/" xmlns:inkscape="http://www.inkscape.org/namespaces/inkscape" xmlns:rdf="http://www.w3.org/1999/02/22-rdf-syntax-ns#" xmlns:sodipodi="http://sodipodi.sourceforge.net/DTD/sodipodi-0.dtd" xmlns:svg="http://www.w3.org/2000/svg">
  <metadata>
    <rdf:RDF xmlns:cc="http://web.resource.org/cc/" xmlns:dc="http://purl.org/dc/elements/1.1/" xmlns:rdf="http://www.w3.org/1999/02/22-rdf-syntax-ns#">
      <cc:Work rdf:about="">
        <dc:title> eritrea</dc:title>
        <dc:description></dc:description>
        <dc:subject>
          <rdf:Bag>
            <rdf:li></rdf:li>
            <rdf:li>united_nations_member</rdf:li>
            <rdf:li>flag</rdf:li>
            <rdf:li>sign</rdf:li>
            <rdf:li>africa</rdf:li>
          </rdf:Bag>
        </dc:subject>
        <dc:publisher>
          <cc:Agent rdf:about="http://www.openclipart.org">
            <dc:title> Andrew Duhan, Source: Wikimedia Commons</dc:title>
          </cc:Agent>
        </dc:publisher>
        <dc:creator>
          <cc:Agent>
            <dc:title>Andrew Duhan</dc:title>
          </cc:Agent>
        </dc:creator>
        <dc:rights>
          <cc:Agent>
            <dc:title> Andrew Duhan</dc:title>
          </cc:Agent>
        </dc:rights>
        <dc:date></dc:date>
        <dc:format>image/svg+xml</dc:format>
        <dc:type rdf:resource="http://purl.org/dc/dcmitype/StillImage"/>
        <cc:license rdf:resource="http://web.resource.org/cc/PublicDomain"/>
        <dc:language>en</dc:language>
      </cc:Work>
      <cc:License rdf:about="http://web.resource.org/cc/PublicDomain">
        <cc:permits rdf:resource="http://web.resource.org/cc/Reproduction"/>
        <cc:permits rdf:resource="http://web.resource.org/cc/Distribution"/>
        <cc:permits rdf:resource="http://web.resource.org/cc/DerivativeWorks"/>
      </cc:License>
    </rdf:RDF>
  </metadata>
  <defs id="defs680">
    <inkscape:perspective id="perspective10" inkscape:persp3d-origin="500 : 166.66667 : 1" inkscape:vp_x="0 : 250 : 1" inkscape:vp_y="0 : 1000 : 0" inkscape:vp_z="1000 : 250 : 1" sodipodi:type="inkscape:persp3d"/>
  </defs>
  <sodipodi:namedview id="base" inkscape:current-layer="svg678" inkscape:cx="896.62565" inkscape:cy="315.5225" inkscape:window-height="968" inkscape:window-width="1278" inkscape:window-x="0" inkscape:window-y="14" inkscape:zoom="1.9024" showgrid="false"/>
  <rect height="128" id="rect686" style="font-size:12px;fill:#ea0437;fill-opacity:1;fill-rule:evenodd;stroke-width:1pt" width="256" x="0" y="64"/>
  <path d="M 58.943892,158.50538 C 56.176484,159.2695 54.589898,161.41655 54.630528,163.44223 L 68.25246,163.38754 C 68.374863,161.21081 66.584092,159.19762 63.857833,158.40485 C 77.194842,158.12931 88.781194,153.13359 90.886569,149.92813 C 88.803069,149.02389 86.394025,150.47921 84.676698,150.14429 C 88.754107,148.25976 100.9702,140.35288 98.9841,131.87615 C 97.440223,136.58434 92.763284,140.47997 90.771461,141.52589 C 95.334845,134.59668 101.56608,127.38256 96.159913,121.79617 C 96.432852,125.03393 94.102454,128.59724 93.073208,128.86497 C 95.720292,121.54355 98.246016,112.35114 92.510664,106.29128 C 93.263846,108.48156 92.959654,114.66018 91.922591,114.93781 C 91.603297,109.95928 90.753748,99.4876 85.51062,99.63657 C 87.175857,101.11899 87.904558,105.16514 87.941542,109.25193 C 86.746657,106.45223 85.388733,104.34425 82.484334,102.27689 C 80.134664,97.7708 75.95412,94.03717 71.773053,91.36247 C 72.24236,94.64242 72.630935,97.23013 77.210468,100.63197 C 74.822779,100.48352 72.435604,95.95711 69.883837,95.83158 C 67.853988,95.73366 66.261151,97.67079 62.94422,96.55612 C 63.311434,97.651 64.858957,98.13593 65.185541,98.94589 C 64.475069,99.43656 62.788477,98.86932 61.386281,98.13906 C 63.31508,100.76635 66.303862,102.31127 68.841047,101.78987 C 71.858476,101.20962 75.093635,101.51641 78.1793,103.27228 C 77.391212,103.677 74.323779,103.6744 72.355395,103.42803 C 74.144599,105.23963 75.344696,106.44025 78.455882,106.42045 C 81.234752,106.40222 82.69164,104.93804 83.405238,105.84489 C 85.148091,107.91016 86.321098,109.97438 87.779028,112.40583 C 84.558459,112.76159 85.52937,108.76335 81.942623,106.7184 C 79.927357,110.88957 84.260516,115.83423 87.210235,117.88961 C 87.249823,121.02475 87.708193,123.64788 89.037983,126.03505 C 89.93441,127.718 91.093361,129.44054 90.656346,133.23876 C 88.890578,131.95272 87.16492,127.61539 87.799864,124.17241 C 85.589791,124.77506 84.725658,128.66131 85.767409,130.61772 C 86.545597,132.1069 87.064909,134.95713 86.167442,136.23119 C 85.292892,137.41827 85.201219,137.28544 85.212677,139.83304 C 85.24393,141.35764 84.3923,143.16039 83.005207,144.41726 C 83.294815,143.34322 83.62505,141.49515 83.304189,140.33985 C 82.207749,142.1999 79.457006,144.12453 78.590792,146.12417 C 77.740201,148.1285 77.524557,151.60014 73.408082,152.40072 C 68.112343,153.45185 66.28459,154.36963 62.877025,155.76401 C 62.49887,153.17578 63.63073,147.77847 65.79497,148.08631 C 67.908157,148.46238 74.314924,145.87884 72.023073,140.48153 C 71.570432,142.18271 70.060416,143.84274 68.427994,143.91618 C 70.191677,141.62798 73.339325,139.25852 71.80639,135.42435 C 70.954237,137.05417 69.614026,139.01006 67.581571,140.11067 C 69.760389,135.93533 67.834716,134.68627 65.247526,138.12509 C 64.270364,139.45176 63.680212,142.11031 63.059328,145.48662 C 62.043103,142.74057 62.110295,139.12569 60.906033,136.19056 C 59.648118,133.01635 62.575437,132.17826 63.953155,132.43297 C 67.326341,133.33356 72.963773,133.33304 72.544988,127.76019 C 71.088102,129.64524 68.533207,130.22758 65.774134,129.54888 C 68.872819,127.2862 71.319373,123.03013 67.866488,120.80807 C 67.751375,123.16451 65.92779,125.80639 63.493217,127.02316 C 62.923382,125.03497 62.923382,122.92491 63.411963,120.6117 C 62.05248,122.04254 61.059692,125.01987 60.270044,128.40452 C 60.210662,125.05893 60.843528,122.64832 61.312835,120.8487 C 62.024351,118.21984 63.792722,119.9304 66.499712,120.12416 C 69.106693,120.27209 72.696046,118.83135 72.010051,115.29617 C 71.119877,116.69472 69.292646,117.23903 67.425828,117.09111 C 69.673405,115.72954 73.589345,113.31007 71.441777,109.58842 C 70.53962,110.99791 70.247409,112.20373 67.63626,112.63606 C 68.320169,111.06301 68.433723,108.83888 70.460449,107.95756 C 66.845053,107.23771 64.775094,109.6103 63.722926,113.32622 C 63.296328,110.74997 62.788477,109.80146 62.687424,107.91693 C 64.641748,105.74644 64.846454,101.50027 60.615386,100.55071 C 60.364321,102.74099 60.438807,103.26291 60.920095,105.04638 C 58.933998,103.8666 56.134815,103.21551 54.271124,104.88387 C 55.533724,106.24648 57.488049,107.44606 60.50027,105.96 C 59.788754,108.28779 57.938084,107.88932 55.395172,107.00175 C 56.949466,109.92125 58.911081,110.44005 61.075837,110.10356 C 62.209262,113.09182 62.259267,115.36232 58.947018,119.71423 C 59.100155,117.00985 58.907955,114.9951 56.759345,112.80847 C 54.918049,111.0052 53.421576,112.88556 56.29889,116.89474 C 54.553436,115.60922 52.577759,113.00015 51.982917,110.39161 C 51.407352,113.61426 51.925622,117.41249 53.709619,119.54183 C 52.865802,120.44346 51.906348,119.44598 50.486963,117.24007 C 51.023987,124.2995 54.035686,125.66159 58.08341,124.08803 C 58.198523,127.96281 58.198523,131.5506 58.428749,136.23119 C 56.068664,132.83612 53.076754,130.30363 51.407352,129.67076 C 50.8896,131.56988 52.846531,134.04403 53.939848,135.42539 C 52.270961,135.08005 48.645148,132.31785 48.645148,132.31785 C 48.280535,135.46394 52.348052,138.3798 54.975869,139.68407 C 51.887596,139.54968 50.524987,138.3798 48.530035,136.46141 C 48.568581,145.18972 57.987046,143.67397 59.752292,142.33116 C 59.98252,146.62838 60.310671,151.59597 60.5409,155.89319 C 57.878185,155.42857 58.087575,154.62798 55.809265,154.41703 C 49.485839,154.17065 44.469814,146.82631 42.808742,141.4238 C 42.33214,142.31293 42.710295,143.24321 42.274324,144.33549 C 41.247677,141.68371 39.936115,138.25896 38.177119,136.66508 C 38.62507,138.21104 38.672471,139.782 38.516728,142.67129 C 37.913034,140.79927 37.351532,140.22526 37.310902,138.02769 C 37.349448,136.34057 38.938637,135.09568 38.850611,132.72257 C 38.7855,130.99014 37.205166,127.23515 36.972854,124.32815 C 36.207688,127.32006 35.727442,130.47396 34.555474,132.32619 C 35.137812,129.13114 34.95113,126.92627 35.936312,124.7761 C 37.074424,122.51238 38.042212,120.49138 37.284339,118.20682 C 36.557716,119.08919 36.807736,119.89081 34.982121,122.03473 C 34.58558,119.70329 37.342676,115.97174 40.018412,114.47162 C 41.905546,113.47727 44.28438,109.92073 42.734776,107.48304 C 40.960156,108.75762 40.163215,110.47963 37.656243,113.42206 C 39.444408,106.43191 44.090614,104.60312 49.653043,104.57916 C 50.883871,104.57343 53.365322,104.12912 54.061732,102.50035 C 52.493898,103.10561 50.640102,103.18269 48.99049,102.85246 C 50.191107,101.08982 52.719437,101.319 55.075354,101.30858 C 56.923418,101.29973 59.808548,101.04919 60.974789,98.41721 C 58.72044,99.39385 55.204531,99.59699 52.990812,98.90526 C 56.511406,97.08116 62.025912,96.88479 64.854267,94.49085 C 61.630572,92.08493 53.563773,95.05131 48.468575,98.54586 C 49.892646,97.24367 52.143345,94.93359 53.385114,93.06886 C 50.598433,91.73281 43.550991,99.54021 41.12319,104.17913 C 38.817275,105.48131 37.894804,107.52263 36.999419,108.94722 C 38.228165,104.79532 38.358382,101.78258 39.383465,98.36356 C 31.478976,101.08461 34.764552,115.68943 33.045194,119.18346 C 33.247555,115.32586 33.083686,110.37025 31.495485,107.81484 C 29.06081,109.67228 28.864338,120.60441 31.150147,129.70566 C 30.324716,127.27005 28.766776,124.99643 28.266947,122.03213 C 24.663634,128.60401 30.379251,136.35724 35.158646,142.48169 C 31.560543,140.60758 28.002964,136.57653 25.666109,133.19709 C 26.311112,144.9595 38.59434,147.40344 40.501263,150.2943 C 37.913034,149.08952 32.964928,146.70547 30.86528,149.20359 C 34.283366,149.99271 37.009838,150.90477 39.206889,152.34499 C 42.394644,156.32499 48.431068,158.06576 58.943892,158.50538 z" id="path687" sodipodi:nodetypes="cccccccccccccccccscccsccsccccsccscsccsscsccccscsscccccccsccccccccccccccccccccccccccccscccccsccsccsccsccscccccccccccccccccc" style="fill:#ffc726;fill-opacity:1;fill-rule:evenodd;stroke:none;stroke-width:1pt;stroke-linecap:butt;stroke-linejoin:miter;stroke-opacity:1"/>
  <path d="M 6.5367186e-10,191.99996 L 256,191.91978 L 255.98403,127.99996 L 6.5367186e-10,191.99996 z" id="path684" style="fill:#4189dd;fill-opacity:1;fill-rule:evenodd;stroke:none;stroke-width:1pt;stroke-linecap:butt;stroke-linejoin:miter;stroke-opacity:1"/>
  <path d="M 6.5367186e-10,64.00009 L 255.9999,64.08027 L 255.98392,128.00006 L 6.5367186e-10,64.00009 z" id="path685" style="fill:#12ad2b;fill-opacity:1;fill-rule:evenodd;stroke:none;stroke-width:1pt;stroke-linecap:butt;stroke-linejoin:miter;stroke-opacity:1"/>
</svg>
