<?xml version="1.0" encoding="UTF-8" standalone="no"?>
<svg height="256" id="svg2382" inkscape:output_extension="org.inkscape.output.svg.inkscape" inkscape:version="0.46" sodipodi:docname="Flag_of_Barbados.svg" sodipodi:version="0.32" version="1.0" width="256" xmlns="http://www.w3.org/2000/svg" xmlns:cc="http://creativecommons.org/ns#" xmlns:dc="http://purl.org/dc/elements/1.1/" xmlns:inkscape="http://www.inkscape.org/namespaces/inkscape" xmlns:rdf="http://www.w3.org/1999/02/22-rdf-syntax-ns#" xmlns:sodipodi="http://sodipodi.sourceforge.net/DTD/sodipodi-0.dtd" xmlns:svg="http://www.w3.org/2000/svg">
  <metadata>
    <rdf:RDF xmlns:cc="http://web.resource.org/cc/" xmlns:dc="http://purl.org/dc/elements/1.1/" xmlns:rdf="http://www.w3.org/1999/02/22-rdf-syntax-ns#">
      <cc:Work rdf:about="">
        <dc:title></dc:title>
        <dc:description></dc:description>
        <dc:subject>
          <rdf:Bag>
            <rdf:li>unsorted</rdf:li>
          </rdf:Bag>
        </dc:subject>
        <dc:publisher>
          <cc:Agent rdf:about="http://www.openclipart.org/">
            <dc:title>Open Clip Art Library, Source: Wikimedia Commons</dc:title>
          </cc:Agent>
        </dc:publisher>
        <dc:creator>
          <cc:Agent>
            <dc:title></dc:title>
          </cc:Agent>
        </dc:creator>
        <dc:rights>
          <cc:Agent>
            <dc:title></dc:title>
          </cc:Agent>
        </dc:rights>
        <dc:date></dc:date>
        <dc:format>image/svg+xml</dc:format>
        <dc:type rdf:resource="http://purl.org/dc/dcmitype/StillImage"/>
        <cc:license rdf:resource="http://web.resource.org/cc/PublicDomain"/>
        <dc:language>en</dc:language>
      </cc:Work>
      <cc:License rdf:about="http://web.resource.org/cc/PublicDomain">
        <cc:permits rdf:resource="http://web.resource.org/cc/Reproduction"/>
        <cc:permits rdf:resource="http://web.resource.org/cc/Distribution"/>
        <cc:permits rdf:resource="http://web.resource.org/cc/DerivativeWorks"/>
      </cc:License>
    </rdf:RDF>
  </metadata>
  <defs id="defs2391">
    <inkscape:perspective id="perspective2395" inkscape:persp3d-origin="750 : 333.33333 : 1" inkscape:vp_x="0 : 500 : 1" inkscape:vp_y="0 : 1000 : 0" inkscape:vp_z="1500 : 500 : 1" sodipodi:type="inkscape:persp3d"/>
  </defs>
  <sodipodi:namedview bordercolor="#666666" borderopacity="1.0" gridtolerance="10.0" guidetolerance="10.0" id="base" inkscape:current-layer="svg2382" inkscape:cx="750" inkscape:cy="500" inkscape:pageopacity="0.0" inkscape:pageshadow="2" inkscape:window-height="679" inkscape:window-width="849" inkscape:window-x="64" inkscape:window-y="244" inkscape:zoom="0.37266667" objecttolerance="10.0" pagecolor="#ffffff" showgrid="false"/>
  <rect height="170.66667" id="rect2384" style="fill:#00267f" width="256" x="0" y="42.333328"/>
  <rect height="170.66667" id="rect2386" style="fill:#ffc726" width="85.333336" x="85.333336" y="42.333328"/>
  <path d="M 128,86.322685 C 125.22609,93.887585 122.4031,101.7538 116.352,107.78934 C 118.22967,107.1687 121.51824,106.61372 123.62133,106.66934 L 123.62133,138.47202 L 114.65067,139.80535 C 114.3252,139.77233 114.21437,139.27039 114.21333,138.58402 C 113.35323,128.71517 111.01523,120.40865 108.33067,111.83201 C 108.14076,110.65504 104.74081,106.17759 107.36,106.96269 C 107.67549,107.00329 111.1927,108.43701 110.63467,107.75202 C 105.85179,102.80607 98.871916,99.244005 92.085333,98.184015 C 91.485669,98.030225 91.134177,98.331365 91.674667,99.026685 C 100.6669,112.88712 108.20094,129.23646 108.13867,148.63735 C 111.64239,148.63735 120.11761,146.57335 123.62133,146.57335 C 123.62133,146.57335 123.62133,169.01069 123.62133,169.01069 L 132.37867,169.01069 C 132.37867,169.01069 132.37867,146.57335 132.37867,146.57335 C 135.88239,146.57335 144.35761,148.63735 147.86133,148.63735 C 147.79906,129.23646 155.3331,112.88712 164.32533,99.026685 C 164.86582,98.331365 164.51433,98.030225 163.91467,98.184015 C 157.12809,99.244005 150.14821,102.80607 145.36533,107.75202 C 144.8073,108.43701 148.32451,107.00329 148.64,106.96269 C 151.25919,106.17759 147.85924,110.65504 147.66933,111.83201 C 144.98477,120.40865 142.64144,128.71517 141.78133,138.58402 C 141.7803,139.27039 141.6748,139.77233 141.34933,139.80535 L 132.37867,138.47202 L 132.37867,106.66934 C 134.48176,106.61372 137.77033,107.1687 139.648,107.78934 C 133.5969,101.7538 130.77391,93.887585 128,86.322685 z" id="path2388" style="fill:#000000"/>
</svg>
