<?xml version="1.0" encoding="UTF-8" standalone="no"?>
<svg height="256" id="svg2761" inkscape:output_extension="org.inkscape.output.svg.inkscape" inkscape:version="0.46" sodipodi:docname="Flag_of_the_United_States.svg" sodipodi:version="0.32" version="1.0" width="256" xmlns="http://www.w3.org/2000/svg" xmlns:cc="http://creativecommons.org/ns#" xmlns:dc="http://purl.org/dc/elements/1.1/" xmlns:inkscape="http://www.inkscape.org/namespaces/inkscape" xmlns:rdf="http://www.w3.org/1999/02/22-rdf-syntax-ns#" xmlns:sodipodi="http://sodipodi.sourceforge.net/DTD/sodipodi-0.dtd" xmlns:svg="http://www.w3.org/2000/svg" xmlns:xlink="http://www.w3.org/1999/xlink">
  <metadata>
    <rdf:RDF xmlns:cc="http://web.resource.org/cc/" xmlns:dc="http://purl.org/dc/elements/1.1/" xmlns:rdf="http://www.w3.org/1999/02/22-rdf-syntax-ns#">
      <cc:Work rdf:about="">
        <dc:title></dc:title>
        <dc:description></dc:description>
        <dc:subject>
          <rdf:Bag>
            <rdf:li>unsorted</rdf:li>
          </rdf:Bag>
        </dc:subject>
        <dc:publisher>
          <cc:Agent rdf:about="http://www.openclipart.org/">
            <dc:title>Open Clip Art Library, Source: Wikimedia Commons</dc:title>
          </cc:Agent>
        </dc:publisher>
        <dc:creator>
          <cc:Agent>
            <dc:title></dc:title>
          </cc:Agent>
        </dc:creator>
        <dc:rights>
          <cc:Agent>
            <dc:title></dc:title>
          </cc:Agent>
        </dc:rights>
        <dc:date></dc:date>
        <dc:format>image/svg+xml</dc:format>
        <dc:type rdf:resource="http://purl.org/dc/dcmitype/StillImage"/>
        <cc:license rdf:resource="http://web.resource.org/cc/PublicDomain"/>
        <dc:language>en</dc:language>
      </cc:Work>
      <cc:License rdf:about="http://web.resource.org/cc/PublicDomain">
        <cc:permits rdf:resource="http://web.resource.org/cc/Reproduction"/>
        <cc:permits rdf:resource="http://web.resource.org/cc/Distribution"/>
        <cc:permits rdf:resource="http://web.resource.org/cc/DerivativeWorks"/>
      </cc:License>
    </rdf:RDF>
  </metadata>
  <sodipodi:namedview bordercolor="#666666" borderopacity="1.0" gridtolerance="10.0" guidetolerance="10.0" id="base" inkscape:current-layer="svg2761" inkscape:cx="617.5" inkscape:cy="325" inkscape:pageopacity="0.0" inkscape:pageshadow="2" inkscape:window-height="700" inkscape:window-width="937" inkscape:window-x="61" inkscape:window-y="89" inkscape:zoom="0.45263158" objecttolerance="10.0" pagecolor="#ffffff" showgrid="false"/>
  <defs id="defs2763">
    <inkscape:perspective id="perspective2833" inkscape:persp3d-origin="617.5 : 216.66667 : 1" inkscape:vp_x="0 : 325 : 1" inkscape:vp_y="0 : 1000 : 0" inkscape:vp_z="1235 : 325 : 1" sodipodi:type="inkscape:persp3d"/>
    <polygon id="pt" points="-0.16245985,0 0,-0.5 0.16245985,0 -0.16245985,0 " style="fill:#ffffff" transform="scale(6.16e-2,6.16e-2)"/>
    <g id="star">
      <use height="650" id="use2767" transform="matrix(-0.809017,-0.5877853,0.5877853,-0.809017,0,0)" width="1235" x="0" xlink:href="#pt" y="0"/>
      <use height="650" id="use2769" transform="matrix(0.309017,-0.9510565,0.9510565,0.309017,0,0)" width="1235" x="0" xlink:href="#pt" y="0"/>
      <use height="650" id="use2771" width="1235" x="0" xlink:href="#pt" y="0"/>
      <use height="650" id="use2773" transform="matrix(0.309017,0.9510565,-0.9510565,0.309017,0,0)" width="1235" x="0" xlink:href="#pt" y="0"/>
      <use height="650" id="use2775" transform="matrix(-0.809017,0.5877853,-0.5877853,-0.809017,0,0)" width="1235" x="0" xlink:href="#pt" y="0"/>
    </g>
    <g id="s5">
      <use height="650" id="use2778" width="1235" x="-0.252" xlink:href="#star" y="0"/>
      <use height="650" id="use2780" width="1235" x="-0.126" xlink:href="#star" y="0"/>
      <use height="650" id="use2782" width="1235" x="0" xlink:href="#star" y="0"/>
      <use height="650" id="use2784" width="1235" x="0.126" xlink:href="#star" y="0"/>
      <use height="650" id="use2786" width="1235" x="0.252" xlink:href="#star" y="0"/>
    </g>
    <g id="s6">
      <use height="650" id="use2789" width="1235" x="-0.063000001" xlink:href="#s5" y="0"/>
      <use height="650" id="use2791" width="1235" x="0.315" xlink:href="#star" y="0"/>
    </g>
    <g id="x4">
      <use height="650" id="use2794" width="1235" x="0" xlink:href="#s6" y="0"/>
      <use height="650" id="use2796" width="1235" x="0" xlink:href="#s5" y="0.054000001"/>
      <use height="650" id="use2798" width="1235" x="0" xlink:href="#s6" y="0.108"/>
      <use height="650" id="use2800" width="1235" x="0" xlink:href="#s5" y="0.162"/>
    </g>
    <g id="u">
      <use height="650" id="use2803" width="1235" x="0" xlink:href="#x4" y="-0.21600001"/>
      <use height="650" id="use2805" width="1235" x="0" xlink:href="#x4" y="0"/>
      <use height="650" id="use2807" width="1235" x="0" xlink:href="#s6" y="0.21600001"/>
    </g>
    <rect height="50" id="stripe" style="fill:#bb133e" width="1235" x="0" y="0"/>
  </defs>
  <rect height="134.73697" id="rect2810" style="fill:#ffffff" width="256" x="0" y="60.263023"/>
  <use height="650" id="use2812" transform="matrix(0.2072874,0,0,0.2072876,0,60.263)" width="1235" x="0" xlink:href="#stripe" y="0"/>
  <use height="650" id="use2814" transform="matrix(0.2072874,0,0,0.2072876,0,60.263)" width="1235" x="0" xlink:href="#stripe" y="100"/>
  <use height="650" id="use2816" transform="matrix(0.2072874,0,0,0.2072876,0,60.263)" width="1235" x="0" xlink:href="#stripe" y="200"/>
  <use height="650" id="use2818" transform="matrix(0.2072874,0,0,0.2072876,0,60.263)" width="1235" x="0" xlink:href="#stripe" y="300"/>
  <use height="650" id="use2820" transform="matrix(0.2072874,0,0,0.2072876,0,60.263)" width="1235" x="0" xlink:href="#stripe" y="400"/>
  <use height="650" id="use2822" transform="matrix(0.2072874,0,0,0.2072876,0,60.263)" width="1235" x="0" xlink:href="#stripe" y="500"/>
  <use height="650" id="use2824" transform="matrix(0.2072874,0,0,0.2072876,0,60.263)" width="1235" x="0" xlink:href="#stripe" y="600"/>
  <rect height="72.550674" id="rect2826" style="fill:#002664" width="102.4" x="0" y="60.263023"/>
  <use height="650" id="use2828" transform="matrix(134.73684,0,0,134.73697,51.2,96.538335)" width="1235" x="0" xlink:href="#u" y="0"/>
</svg>
