<?xml version="1.0" encoding="UTF-8" standalone="no"?>
<svg height="256" id="svg2" inkscape:output_extension="org.inkscape.output.svg.inkscape" inkscape:version="0.46" sodipodi:docbase="C:\Documents and Settings\David Nelson\Archives\Svg" sodipodi:docname="Flag_of_Guam.svg" sodipodi:version="0.32" version="1.0" width="256" xmlns="http://www.w3.org/2000/svg" xmlns:cc="http://creativecommons.org/ns#" xmlns:dc="http://purl.org/dc/elements/1.1/" xmlns:inkscape="http://www.inkscape.org/namespaces/inkscape" xmlns:rdf="http://www.w3.org/1999/02/22-rdf-syntax-ns#" xmlns:sodipodi="http://sodipodi.sourceforge.net/DTD/sodipodi-0.dtd" xmlns:svg="http://www.w3.org/2000/svg">
  <metadata>
    <rdf:RDF xmlns:cc="http://web.resource.org/cc/" xmlns:dc="http://purl.org/dc/elements/1.1/" xmlns:rdf="http://www.w3.org/1999/02/22-rdf-syntax-ns#">
      <cc:Work rdf:about="">
        <dc:title></dc:title>
        <dc:description></dc:description>
        <dc:subject>
          <rdf:Bag>
            <rdf:li>unsorted</rdf:li>
          </rdf:Bag>
        </dc:subject>
        <dc:publisher>
          <cc:Agent rdf:about="http://www.openclipart.org/">
            <dc:title>Open Clip Art Library, Source: Wikimedia Commons</dc:title>
          </cc:Agent>
        </dc:publisher>
        <dc:creator>
          <cc:Agent>
            <dc:title></dc:title>
          </cc:Agent>
        </dc:creator>
        <dc:rights>
          <cc:Agent>
            <dc:title></dc:title>
          </cc:Agent>
        </dc:rights>
        <dc:date></dc:date>
        <dc:format>image/svg+xml</dc:format>
        <dc:type rdf:resource="http://purl.org/dc/dcmitype/StillImage"/>
        <cc:license rdf:resource="http://web.resource.org/cc/PublicDomain"/>
        <dc:language>en</dc:language>
      </cc:Work>
      <cc:License rdf:about="http://web.resource.org/cc/PublicDomain">
        <cc:permits rdf:resource="http://web.resource.org/cc/Reproduction"/>
        <cc:permits rdf:resource="http://web.resource.org/cc/Distribution"/>
        <cc:permits rdf:resource="http://web.resource.org/cc/DerivativeWorks"/>
      </cc:License>
    </rdf:RDF>
  </metadata>
  <sodipodi:namedview bordercolor="#666666" borderopacity="1.0" id="base" inkscape:current-layer="svg2" inkscape:cx="375" inkscape:cy="96.602687" inkscape:pageopacity="0.0" inkscape:pageshadow="2" inkscape:window-height="753" inkscape:window-width="887" inkscape:window-x="7" inkscape:window-y="251" inkscape:zoom="0.82888889" pagecolor="#ffffff" showgrid="false"/>
  <defs id="defs4">
    <inkscape:perspective id="perspective2582" inkscape:persp3d-origin="375 : 150 : 1" inkscape:vp_x="0 : 225 : 1" inkscape:vp_y="0 : 1000 : 0" inkscape:vp_z="750 : 225 : 1" sodipodi:type="inkscape:persp3d"/>
    <marker id="ArrowEnd" markerHeight="3" markerUnits="strokeWidth" markerWidth="4" orient="auto" refX="0" refY="5" viewBox="0 0 10 10">
      <path d="M 0,0 L 10,5 L 0,10 L 0,0 z" id="path7"/>
    </marker>
    <marker id="ArrowStart" markerHeight="3" markerUnits="strokeWidth" markerWidth="4" orient="auto" refX="10" refY="5" viewBox="0 0 10 10">
      <path d="M 10,0 L 0,5 L 10,10 L 10,0 z" id="path10"/>
    </marker>
  </defs>
  <path d="M 0,205 L 0,205 L 0,205 L 0,205" id="path14" style="fill:#000000;stroke:none"/>
  <path d="M 6.7519,198.2482 L 248.91502,198.2482 L 248.91502,58.15181 L 6.7519,58.15181 L 6.7519,198.2482 z" id="path18" style="fill:#d53848;stroke:none"/>
  <path d="M 0,51.4 L 0,205 L 256,205 L 256,51.4 L 0,51.4 z" id="path20" sodipodi:nodetypes="ccccc" style="fill:#d53848;fill-opacity:1;stroke:none;stroke-width:39.58834457;stroke-opacity:1"/>
  <path d="M 12.33788,192.60274 L 243.66212,192.60274 L 243.66212,63.79725 L 12.33788,63.79725 L 12.33788,192.60274 z" id="path22" style="fill:#0050c8;fill-opacity:1;stroke:none"/>
  <g id="g1654" transform="matrix(0.3435971,0,0,0.3435973,-0.44921,51.28547)">
    <path d="M 374.05801,112.24122 C 374.05801,112.24122 305.06446,163.12602 305.06446,223.12602 C 305.06446,283.13562 374.05801,335.46042 374.05801,335.46042 C 374.05801,335.46042 442.60911,287.45082 442.60911,223.12602 C 442.60911,158.80602 374.05801,112.24122 374.05801,112.24122" id="path24" style="fill:#d53848;stroke:none"/>
    <path d="M 432.22639,242.97402 C 433.7398,236.59002 434.59958,229.96122 434.59958,223.12602 C 434.59958,165.52602 374.05801,122.80602 374.05801,122.80602 C 374.05801,122.80602 312.63152,166.97082 312.63152,223.12602 C 312.63152,229.87002 313.50639,236.44122 315.04997,242.80602 L 432.22639,242.97402" id="path26" style="fill:#66afeb;fill-opacity:1;stroke:none"/>
    <path d="M 373.55522,324.41562 C 373.55522,324.41562 421.0392,290.39322 432.20628,242.80602 L 315.00472,242.80602 C 326.34275,289.47642 373.55522,324.41562 373.55522,324.41562" id="path28" style="fill:#013a76;stroke:none"/>
    <path d="M 434.30293,229.85082 C 423.91519,237.85722 365.45519,234.01242 365.45519,234.01242 L 362.18702,242.97402 L 432.22136,242.97402 C 432.51298,241.74522 432.77947,240.51642 433.02081,239.27322 L 434.30293,229.85082" id="path30" style="fill:#e7dede;fill-opacity:1;stroke:none"/>
    <path d="M 370.46303,286.49562 C 369.57308,279.79002 342.23108,272.60922 327.72041,273.19962 C 332.25059,280.88922 337.38413,287.92602 342.54784,294.18042 C 349.91882,285.62202 370.75465,288.70842 370.46303,286.49562" id="path32" style="fill:#fff100;stroke:none"/>
    <path d="M 425.8057,261.56442 C 422.33138,261.69882 416.02633,262.29882 411.70732,264.73242 C 405.47769,268.25082 391.53015,272.09562 385.29549,270.17082 C 379.06585,268.25082 369.2714,274.33242 370.46303,275.60922 C 372.43901,277.74522 386.77873,275.29242 386.77873,289.05402 C 386.77873,300.57402 370.16638,295.45722 363.63507,300.25722 C 359.69818,303.14202 356.95292,306.27642 355.39426,308.29242 C 365.59094,318.50202 373.57533,324.41562 373.57533,324.41562 C 373.57533,324.41562 392.50557,310.85082 409.26876,288.88602 L 417.15259,277.56762 C 420.33026,272.53242 423.27664,267.19002 425.8057,261.56442" id="path34" style="fill:#fff100;stroke:none"/>
    <path d="M 352.03558,258.41562 L 354.54956,258.41562 L 354.54956,229.13562 L 352.03558,229.13562 L 352.03558,258.41562 z" id="path36" style="fill:#000000;stroke:none"/>
    <path d="M 360.20098,263.93562 C 360.20098,263.93562 359.17025,264.13242 357.53114,264.35802 L 357.53114,262.07322 L 355.86186,262.07322 L 355.86186,264.55482 C 354.15235,264.74202 352.08084,264.89562 349.90876,264.89562 C 347.60093,264.89562 345.27299,264.71322 343.35231,264.50202 L 343.35231,262.13562 L 341.51208,262.13562 L 341.51208,264.27642 C 339.92325,264.06042 338.89755,263.87322 338.89755,263.87322 C 338.89755,263.87322 338.39475,266.87322 349.74787,266.87322 C 361.09595,266.87322 360.20601,263.93562 360.20601,263.93562" id="path38" style="fill:#7b4800;stroke:none"/>
    <path d="M 370.27699,172.85082 C 370.27699,172.85082 360.81439,166.85082 347.90764,169.72602 C 335.00088,172.60602 332.2154,181.36122 332.2154,181.36122 L 336.55452,179.20602 L 336.66514,181.12602 L 340.5618,178.48602 L 340.67241,180.40602 L 344.01097,177.05082 L 344.55902,179.20602 L 347.56573,176.32602 L 347.79199,177.88602 L 352.68419,174.52602 L 352.68419,176.68602 L 356.58085,174.76122 L 356.24901,176.80602 L 363.59485,175.37082 C 363.59485,175.37082 346.23333,181.60602 344.01097,196.60602 L 347.34451,192.29562 L 347.68138,194.32602 L 349.79312,189.77082 L 350.35122,191.57082 L 352.24173,187.37082 L 352.79481,189.88602 L 355.68588,185.32602 L 355.91214,187.97082 L 359.24567,183.05082 L 359.24567,185.44122 L 362.81049,181.24122 L 362.69987,184.37082 C 362.69987,184.37082 366.14905,181.24122 367.2552,181.24122 L 363.14233,187.00602 L 364.47977,187.48602 C 364.47977,187.48602 361.58367,190.00602 361.36244,190.48602 C 361.14121,190.96122 363.25797,190.48602 363.25797,190.48602 C 363.25797,190.48602 360.69372,193.36122 360.5831,194.20602 C 360.47249,195.05082 362.25238,194.20602 362.25238,194.20602 C 362.25238,194.20602 359.91439,197.44122 359.58254,198.65082 C 359.24567,199.85082 360.80433,198.88602 360.80433,198.88602 C 360.80433,198.88602 359.36131,202.72602 359.24567,203.80602 C 359.13505,204.87642 360.91495,203.56122 360.91495,203.56122 L 361.92054,210.16122 L 363.70043,202.25082 L 364.81161,204.05082 L 364.81161,198.40602 L 365.81217,199.36122 L 365.70156,195.65082 L 367.03397,197.08602 L 366.37028,192.52602 L 367.8133,194.31642 L 367.59207,190.48602 L 369.03509,192.05082 L 369.03509,187.00602 L 370.37253,188.31642 L 370.59376,184.85082 L 372.15242,185.68602 C 372.15242,185.68602 372.37365,181.48602 374.15857,181.60602 C 375.93344,181.71642 378.16082,183.76122 377.27088,184.71642 L 378.82954,184.25082 L 378.4977,188.31642 L 379.94072,187.36122 L 379.71949,190.36122 L 380.94128,189.76122 L 380.49882,193.59642 L 381.94687,192.65082 L 382.05246,197.31642 L 383.71671,196.00602 L 383.60609,201.51642 L 385.27537,200.08602 L 385.27537,204.64122 L 386.83404,203.45082 L 388.50835,207.88602 L 388.17148,201.28602 L 389.3983,202.36122 L 387.16588,197.68602 L 388.84019,197.44122 L 387.05527,194.31642 L 388.72455,194.45082 L 386.28097,191.32602 L 387.94522,190.97082 L 384.26978,188.08602 L 386.27594,187.25082 L 382.48989,184.60602 L 383.93794,184.00602 L 381.27313,181.00602 L 384.05358,182.20602 L 384.9385,180.28602 L 388.27706,183.17082 L 388.27706,180.28602 L 391.16813,184.60602 L 391.50501,181.96122 L 393.73239,185.32602 L 394.17485,183.77082 L 395.73352,187.12602 L 396.50782,184.61562 L 398.06648,188.21562 L 398.50894,185.68602 L 399.95699,189.65082 L 401.29443,188.08602 L 401.96315,192.17082 L 403.29053,190.60602 L 404.51232,194.20602 L 406.07098,192.88602 L 407.40842,196.97082 C 407.40842,196.97082 411.07882,175.12602 379.58876,174.76122 L 370.2418,172.85082" id="path40" style="fill:#009270;stroke:none"/>
    <path d="M 355.81158,153.40602 L 357.58644,155.79642 L 356.6965,156.52602 L 359.70321,158.32602 L 359.03449,159.64122 L 362.04121,160.84122 L 360.925,161.80602 L 363.59987,163.47642 L 361.81998,164.08602 L 365.0429,165.76122 L 364.60044,167.31642 L 367.38089,168.04122 L 366.1591,169.11642 L 369.38202,171.88602 L 373.05745,174.64122 L 375.61668,173.68602 L 374.61109,168.39642 C 374.61109,168.39642 364.04233,152.79642 355.81158,153.39642" id="path42" style="fill:#009270;stroke:none"/>
    <path d="M 365.49038,138.28602 L 366.7172,141.39642 L 365.0429,141.76122 L 368.82894,145.84122 L 365.82223,145.96122 L 369.49766,149.07642 L 367.71274,149.68602 L 371.05633,153.28602 L 369.2714,154.24122 L 372.72058,157.96122 L 370.38761,158.91642 L 374.28427,162.76122 L 372.05689,162.88602 L 374.38986,166.11642 L 372.27812,166.84122 C 372.27812,166.84122 374.83735,171.99642 374.7217,174.16122 L 379.06083,174.39642 C 379.06083,174.39642 379.72954,160.47642 379.17647,158.67642 L 378.06026,159.51642 L 378.39211,154.47642 L 376.72283,155.56122 L 376.39601,149.56122 L 374.7217,151.47642 L 374.28427,145.59642 L 373.05745,147.64122 L 371.83063,141.87642 L 370.49822,143.67642 L 369.2714,139.96122 L 368.27084,141.39642 L 365.49038,138.27642" id="path44" style="fill:#009270;stroke:none"/>
    <path d="M 376.72786,173.32602 C 377.95468,164.92602 386.07985,152.68602 401.3246,152.20602 L 397.87039,154.12602 L 399.87655,155.08602 L 395.86927,156.65082 L 397.87039,157.96122 L 393.08881,158.32602 L 395.5324,160.12602 L 391.97763,160.60602 L 389.19215,161.20602 L 391.19327,163.24122 L 387.186,163.71642 L 389.75025,165.16122 C 389.75025,165.16122 383.40498,167.56122 382.96252,168.28602 C 382.96252,168.28602 404.33131,162.40602 409.56038,173.31642 L 405.43746,171.39642 L 405.77434,173.44122 L 402.88326,171.16122 L 403.32572,172.84122 L 400.32404,171.16122 L 400.7665,173.19642 L 397.64916,171.27642 L 398.31788,173.08602 L 394.3106,171.04122 L 394.97932,172.96122 L 391.53015,171.76122 L 391.86702,173.79642 L 388.41282,173.56122 L 388.74969,175.96122 L 378.06529,175.71642 L 376.72786,173.31642" id="path46" style="fill:#009270;stroke:none"/>
    <path d="M 373.46472,180.56442 L 375.6921,180.40602 C 374.65131,203.29242 375.62674,236.10522 378.50775,248.25402 C 383.39995,268.88922 397.66425,276.83802 401.05812,278.81562 C 402.98382,279.92922 402.24471,284.57082 398.38325,284.25402 C 394.53183,283.93242 381.07201,273.20922 376.42618,254.00922 C 370.20157,228.24762 373.22337,183.24762 373.46472,180.56442" id="path48" style="fill:#7b4800;stroke:none"/>
    <path d="M 343.72438,215.62842 L 341.0847,215.62842 C 340.87856,214.39962 340.38079,213.53562 339.5914,213.06042 C 339.14894,212.78682 338.66123,212.65722 338.12324,212.65722 C 337.08246,212.65722 336.23776,213.19002 335.57407,214.28922 C 334.90535,215.37402 334.57351,217.02522 334.57351,219.20922 C 334.57351,221.42202 334.93552,222.97722 335.65452,223.90842 C 336.37351,224.81562 337.19307,225.27642 338.11319,225.27642 C 339.01319,225.27642 339.74727,224.91642 340.32548,224.18682 C 340.89867,223.46682 341.25063,222.51162 341.39141,221.32602 L 338.41486,221.32602 L 338.41486,218.33562 L 343.7646,218.33562 L 343.7646,227.96442 L 341.98974,227.96442 L 341.71823,225.72282 C 341.20035,226.57722 340.73778,227.17722 340.32548,227.53242 C 339.61654,228.14202 338.74671,228.44442 337.71095,228.44442 C 336.0115,228.44442 334.61373,227.61882 333.53272,225.96762 C 332.40143,224.31642 331.83327,222.05082 331.83327,219.18042 C 331.83327,216.27642 332.40646,213.93882 333.55283,212.18682 C 334.68915,210.43482 336.20256,209.56122 338.08805,209.56122 C 339.7171,209.56122 341.0294,210.14202 342.0199,211.29882 C 343.00538,212.45082 343.57857,213.89562 343.72438,215.62842" id="path50" style="fill:#d53848;stroke:none"/>
    <path d="M 356.28923,221.05722 L 356.28923,210.02202 L 359.01438,210.02202 L 359.01438,221.05722 C 359.01438,222.28602 359.125,223.18362 359.33114,223.75482 C 359.65796,224.75802 360.36187,225.26682 361.45797,225.26682 C 362.53898,225.26682 363.24792,224.75802 363.57473,223.75482 C 363.78591,223.18362 363.88144,222.28602 363.88144,221.05722 L 363.88144,210.02202 L 366.61162,210.02202 L 366.61162,221.05722 C 366.61162,222.95802 366.40044,224.44122 365.9781,225.51162 C 365.18368,227.45082 363.68032,228.42522 361.45294,228.42522 C 359.23058,228.42522 357.71717,227.46042 356.92275,225.51162 C 356.50041,224.45082 356.28923,222.95802 356.28923,221.05722" id="path52" style="fill:#d53848;stroke:none"/>
    <path d="M 383.33961,227.96442 L 384.22956,224.28282 L 388.96086,224.28282 L 389.78545,227.96442 L 392.6916,227.96442 L 388.14131,210.02202 L 385.11951,210.02202 L 380.53402,227.96442 L 383.33961,227.96442" id="path54" style="fill:#d53848;stroke:none"/>
    <path d="M 409.64586,224.12922 L 411.96374,210.02202 L 415.82018,210.02202 L 415.82018,227.96442 L 413.32129,227.96442 L 413.32129,215.83482 C 413.32129,215.47962 413.32632,214.99002 413.33135,214.36122 C 413.33638,213.73242 413.3414,213.24762 413.3414,212.91162 L 410.90787,227.96442 L 408.3034,227.96442 L 405.88998,212.91162 C 405.88998,213.24762 405.89501,213.73242 405.90003,214.36122 C 405.90506,214.99002 405.91009,215.47962 405.91009,215.83482 L 405.91009,227.96442 L 403.4112,227.96442 L 403.4112,210.02202 L 407.31289,210.02202 L 409.64586,224.12922" id="path56" style="fill:#d53848;stroke:none"/>
    <path d="M 349.42608,258.32922 C 358.62723,258.32922 366.34514,256.73562 366.34514,256.73562 C 366.34514,256.73562 367.5267,263.12922 349.42608,263.12922 C 331.32545,263.12922 332.8087,257.69562 332.8087,257.69562 C 332.8087,257.69562 340.22995,258.32922 349.42608,258.32922" id="path58" style="fill:#7b4800;stroke:none"/>
    <path d="M 341.70817,230.80602 C 341.70817,230.80602 355.95236,236.57082 361.59372,256.73562 C 361.59372,256.73562 348.53613,253.86042 341.11487,257.05722 L 336.96178,257.05722 C 336.96178,257.04762 344.08639,245.85402 341.70817,230.80602" id="path60" style="fill:#ffffff;stroke:none"/>
    <path d="M 377.06473,172.88922 C 378.45244,172.88922 379.58373,174.10842 379.58373,175.60602 C 379.58373,177.10842 378.45244,178.32282 377.06473,178.32282 C 375.67199,178.32282 374.54573,177.10842 374.54573,175.60602 C 374.54573,174.10842 375.67199,172.88922 377.06473,172.88922" id="path62" style="fill:#7b4800;stroke:none"/>
    <path d="M 373.05745,172.10202 C 374.35969,172.10202 375.41556,173.23482 375.41556,174.64122 C 375.41556,176.04762 374.35969,177.19002 373.05745,177.19002 C 371.75521,177.19002 370.69934,176.04762 370.69934,174.64122 C 370.69934,173.23482 371.75521,172.10202 373.05745,172.10202" id="path64" style="fill:#7b4800;stroke:none"/>
    <path d="M 373.05745,176.71482 C 374.27422,176.71482 375.25969,177.77082 375.25969,179.08602 C 375.25969,180.39642 374.27422,181.46682 373.05745,181.46682 C 371.84069,181.46682 370.85521,180.39642 370.85521,179.08602 C 370.85521,177.77082 371.84069,176.71482 373.05745,176.71482" id="path66" style="fill:#7b4800;stroke:none"/>
    <path d="M 376.05914,175.34202 C 377.36641,175.34202 378.42228,176.47962 378.42228,177.88602 C 378.42228,179.29242 377.36641,180.42522 376.05914,180.42522 C 374.7569,180.42522 373.70103,179.29242 373.70103,177.88602 C 373.70103,176.47962 374.7569,175.34202 376.05914,175.34202" id="path68" style="fill:#7b4800;stroke:none"/>
    <path d="M 388.2117,221.18682 L 384.95359,221.18682 L 386.60778,214.12602 L 388.2117,221.18682" id="path70" style="fill:#3796d2;stroke:none"/>
  </g>
</svg>
