<?xml version="1.0" encoding="UTF-8" standalone="no"?>
<!-- Created with Inkscape (http://www.inkscape.org/) --><svg height="256" id="svg9226" inkscape:output_extension="org.inkscape.output.svg.inkscape" inkscape:version="0.46" sodipodi:docbase="C:\Documents and Settings\Zoran\Desktop" sodipodi:docname="Flag_of_Dominica.svg" sodipodi:version="0.32" version="1.0" width="256" xmlns="http://www.w3.org/2000/svg" xmlns:cc="http://creativecommons.org/ns#" xmlns:dc="http://purl.org/dc/elements/1.1/" xmlns:inkscape="http://www.inkscape.org/namespaces/inkscape" xmlns:rdf="http://www.w3.org/1999/02/22-rdf-syntax-ns#" xmlns:sodipodi="http://sodipodi.sourceforge.net/DTD/sodipodi-0.dtd" xmlns:svg="http://www.w3.org/2000/svg">
  <metadata>
    <rdf:RDF xmlns:cc="http://web.resource.org/cc/" xmlns:dc="http://purl.org/dc/elements/1.1/" xmlns:rdf="http://www.w3.org/1999/02/22-rdf-syntax-ns#">
      <cc:Work rdf:about="">
        <dc:title></dc:title>
        <dc:description></dc:description>
        <dc:subject>
          <rdf:Bag>
            <rdf:li>unsorted</rdf:li>
          </rdf:Bag>
        </dc:subject>
        <dc:publisher>
          <cc:Agent rdf:about="http://www.openclipart.org/">
            <dc:title>Open Clip Art Library, Source: Wikimedia Commons</dc:title>
          </cc:Agent>
        </dc:publisher>
        <dc:creator>
          <cc:Agent>
            <dc:title></dc:title>
          </cc:Agent>
        </dc:creator>
        <dc:rights>
          <cc:Agent>
            <dc:title></dc:title>
          </cc:Agent>
        </dc:rights>
        <dc:date></dc:date>
        <dc:format>image/svg+xml</dc:format>
        <dc:type rdf:resource="http://purl.org/dc/dcmitype/StillImage"/>
        <cc:license rdf:resource="http://web.resource.org/cc/PublicDomain"/>
        <dc:language>en</dc:language>
      </cc:Work>
      <cc:License rdf:about="http://web.resource.org/cc/PublicDomain">
        <cc:permits rdf:resource="http://web.resource.org/cc/Reproduction"/>
        <cc:permits rdf:resource="http://web.resource.org/cc/Distribution"/>
        <cc:permits rdf:resource="http://web.resource.org/cc/DerivativeWorks"/>
      </cc:License>
    </rdf:RDF>
  </metadata>
  <defs id="defs9228">
    <inkscape:perspective id="perspective2861" inkscape:persp3d-origin="600 : 200 : 1" inkscape:vp_x="0 : 300 : 1" inkscape:vp_y="0 : 1000 : 0" inkscape:vp_z="1200 : 300 : 1" sodipodi:type="inkscape:persp3d"/>
  </defs>
  <sodipodi:namedview bordercolor="#666666" borderopacity="1.0" id="base" inkscape:current-layer="layer1" inkscape:cx="618.30679" inkscape:cy="286.12053" inkscape:document-units="px" inkscape:pageopacity="0.0" inkscape:pageshadow="2" inkscape:window-height="968" inkscape:window-width="1278" inkscape:window-x="0" inkscape:window-y="9" inkscape:zoom="0.99083333" pagecolor="#ffffff" showgrid="true"/>
  <g id="layer1" inkscape:groupmode="layer" inkscape:label="Layer 1">
    <rect height="128" id="rect10982" style="fill:#006b3f;fill-opacity:1;stroke:none;stroke-opacity:1" width="256" x="2.7755576e-17" y="64"/>
    <rect height="10.666667" id="rect10984" style="fill:#ffffff;fill-opacity:1;stroke:none;stroke-opacity:1" width="256" x="2.7755576e-17" y="133.33337"/>
    <rect height="10.666667" id="rect11859" style="fill:#000000;fill-opacity:1;stroke:none;stroke-opacity:1" width="256" x="2.7755576e-17" y="122.66669"/>
    <rect height="10.666667" id="rect12734" style="fill:#fcd116;fill-opacity:1;stroke:none;stroke-opacity:1" width="256" x="2.7755576e-17" y="112"/>
    <rect height="128" id="rect13609" style="fill:#fcd116;fill-opacity:1;stroke:none;stroke-opacity:1" width="10.666667" x="112" y="64"/>
    <rect height="128" id="rect13611" style="fill:#000000;fill-opacity:1;stroke:none;stroke-opacity:1" width="10.666667" x="122.66666" y="64"/>
    <rect height="128" id="rect14486" style="fill:#ffffff;fill-opacity:1;stroke:none;stroke-opacity:1" width="10.666667" x="133.33333" y="64"/>
    <path d="M 750.8831,300.25232 A 150.37846,150.37846 0 1 1 450.12617,300.25232 A 150.37846,150.37846 0 1 1 750.8831,300.25232 z" id="path15361" sodipodi:cx="600.50464" sodipodi:cy="300.25232" sodipodi:rx="150.37846" sodipodi:ry="150.37846" sodipodi:type="arc" style="fill:#d41c30;fill-opacity:1;stroke:none;stroke-opacity:1" transform="matrix(0.2127964,0,0,0.2127964,0.2147575,64.10741)"/>
    <path d="M 126.97386,102.73978 C 126.97386,102.69257 127.99999,99.8131 127.99999,99.8131 L 128.93283,102.69257 C 128.93283,102.69257 132.05781,102.78698 132.05781,102.73978 C 132.05781,102.69257 129.5858,104.62799 129.5858,104.62799 C 129.5858,104.62799 130.75181,107.93234 130.70522,107.83792 C 130.65858,107.74351 127.99999,105.85529 127.99999,105.85529 C 127.99999,105.85529 125.29481,107.74351 125.34145,107.74351 C 125.3881,107.74351 126.36753,104.62799 126.36753,104.62799 L 123.94219,102.78698 L 126.97386,102.73978 z" id="path601" style="font-size:12px;fill:#006b3f;fill-opacity:1;fill-rule:evenodd;stroke:#000000;stroke-width:0.21333334;stroke-miterlimit:4;stroke-dasharray:none;stroke-opacity:1"/>
    <path d="M 129.02614,153.33317 C 129.02614,153.38038 128.00001,156.25985 128.00001,156.25985 L 127.06717,153.38038 C 127.06717,153.38038 123.94219,153.28596 123.94219,153.33317 C 123.94219,153.38038 126.4142,151.44495 126.4142,151.44495 C 126.4142,151.44495 125.24819,148.1406 125.29478,148.23502 C 125.34142,148.32944 128.00001,150.21765 128.00001,150.21765 C 128.00001,150.21765 130.70519,148.32944 130.65855,148.32944 C 130.6119,148.32944 129.63247,151.44495 129.63247,151.44495 L 132.05781,153.28596 L 129.02614,153.33317 z" id="path16237" style="font-size:12px;fill:#006b3f;fill-opacity:1;fill-rule:evenodd;stroke:#000000;stroke-width:0.21333334;stroke-miterlimit:4;stroke-dasharray:none;stroke-opacity:1"/>
    <path d="M 142.87276,109.96442 C 142.87276,110.01163 141.84663,112.8911 141.84663,112.8911 L 140.91379,110.01163 C 140.91379,110.01163 137.7888,109.91721 137.7888,109.96442 C 137.7888,110.01163 140.26081,108.0762 140.26081,108.0762 C 140.26081,108.0762 139.09481,104.77185 139.14139,104.86627 C 139.18804,104.96069 141.84663,106.8489 141.84663,106.8489 C 141.84663,106.8489 144.55181,104.96069 144.50516,104.96069 C 144.45852,104.96069 143.47909,108.0762 143.47909,108.0762 L 145.90443,109.91721 L 142.87276,109.96442 z" id="path16244" style="font-size:12px;fill:#006b3f;fill-opacity:1;fill-rule:evenodd;stroke:#000000;stroke-width:0.21333334;stroke-miterlimit:4;stroke-dasharray:none;stroke-opacity:1"/>
    <path d="M 151.85329,136.21519 C 151.85329,136.2624 150.82716,139.14187 150.82716,139.14187 L 149.89432,136.2624 C 149.89432,136.2624 146.76934,136.16798 146.76934,136.21519 C 146.76934,136.2624 149.24135,134.32698 149.24135,134.32698 C 149.24135,134.32698 148.07534,131.02263 148.12193,131.11704 C 148.16857,131.21146 150.82716,133.09968 150.82716,133.09968 C 150.82716,133.09968 153.53234,131.21146 153.4857,131.21146 C 153.43905,131.21146 152.45962,134.32698 152.45962,134.32698 L 154.88496,136.16798 L 151.85329,136.21519 z" id="path16246" style="font-size:12px;fill:#006b3f;fill-opacity:1;fill-rule:evenodd;stroke:#000000;stroke-width:0.21333334;stroke-miterlimit:4;stroke-dasharray:none;stroke-opacity:1"/>
    <path d="M 106.195,136.96536 C 106.195,137.01257 105.16886,139.89204 105.16886,139.89204 L 104.23602,137.01257 C 104.23602,137.01257 101.11104,136.91815 101.11104,136.96536 C 101.11104,137.01257 103.58305,135.07715 103.58305,135.07715 C 103.58305,135.07715 102.41704,131.7728 102.46363,131.86721 C 102.51028,131.96163 105.16886,133.84985 105.16886,133.84985 C 105.16886,133.84985 107.87404,131.96163 107.8274,131.96163 C 107.78076,131.96163 106.80132,135.07715 106.80132,135.07715 L 109.22667,136.91815 L 106.195,136.96536 z" id="path16248" style="font-size:12px;fill:#006b3f;fill-opacity:1;fill-rule:evenodd;stroke:#000000;stroke-width:0.21333334;stroke-miterlimit:4;stroke-dasharray:none;stroke-opacity:1"/>
    <path d="M 114.48449,110.27142 C 114.48449,110.31863 113.45836,113.1981 113.45836,113.1981 L 112.52552,110.31863 C 112.52552,110.31863 109.40054,110.22421 109.40054,110.27142 C 109.40054,110.31863 111.87255,108.38321 111.87255,108.38321 C 111.87255,108.38321 110.70654,105.07886 110.75313,105.17328 C 110.79977,105.26769 113.45836,107.15591 113.45836,107.15591 C 113.45836,107.15591 116.16354,105.26769 116.1169,105.26769 C 116.07025,105.26769 115.09082,108.38321 115.09082,108.38321 L 117.51616,110.22421 L 114.48449,110.27142 z" id="path16252" style="font-size:12px;fill:#006b3f;fill-opacity:1;fill-rule:evenodd;stroke:#000000;stroke-width:0.21333334;stroke-miterlimit:4;stroke-dasharray:none;stroke-opacity:1"/>
    <path d="M 103.96105,119.86422 C 103.96105,119.81701 104.98718,116.93754 104.98718,116.93754 L 105.92002,119.81701 C 105.92002,119.81701 109.045,119.91143 109.045,119.86422 C 109.045,119.81701 106.57299,121.75243 106.57299,121.75243 C 106.57299,121.75243 107.739,125.05678 107.69241,124.96237 C 107.64576,124.86795 104.98718,122.97973 104.98718,122.97973 C 104.98718,122.97973 102.282,124.86795 102.32864,124.86795 C 102.37529,124.86795 103.35472,121.75243 103.35472,121.75243 L 100.92937,119.91143 L 103.96105,119.86422 z" id="path16254" style="font-size:12px;fill:#006b3f;fill-opacity:1;fill-rule:evenodd;stroke:#000000;stroke-width:0.21333334;stroke-miterlimit:4;stroke-dasharray:none;stroke-opacity:1"/>
    <path d="M 112.88356,146.0663 C 112.88356,146.01909 113.90969,143.13962 113.90969,143.13962 L 114.84253,146.01909 C 114.84253,146.01909 117.96751,146.11351 117.96751,146.0663 C 117.96751,146.01909 115.4955,147.95451 115.4955,147.95451 C 115.4955,147.95451 116.66151,151.25886 116.61492,151.16445 C 116.56828,151.07003 113.90969,149.18181 113.90969,149.18181 C 113.90969,149.18181 111.20451,151.07003 111.25116,151.07003 C 111.2978,151.07003 112.27723,147.95451 112.27723,147.95451 L 109.85189,146.11351 L 112.88356,146.0663 z" id="path16256" style="font-size:12px;fill:#006b3f;fill-opacity:1;fill-rule:evenodd;stroke:#000000;stroke-width:0.21333334;stroke-miterlimit:4;stroke-dasharray:none;stroke-opacity:1"/>
    <path d="M 149.63851,119.16483 C 149.63851,119.11762 150.66464,116.23815 150.66464,116.23815 L 151.59748,119.11762 C 151.59748,119.11762 154.72247,119.21204 154.72247,119.16483 C 154.72247,119.11762 152.25046,121.05304 152.25046,121.05304 C 152.25046,121.05304 153.41647,124.35739 153.36988,124.26298 C 153.32323,124.16856 150.66464,122.28034 150.66464,122.28034 C 150.66464,122.28034 147.95946,124.16856 148.00611,124.16856 C 148.05275,124.16856 149.03218,121.05304 149.03218,121.05304 L 146.60684,119.21204 L 149.63851,119.16483 z" id="path16258" style="font-size:12px;fill:#006b3f;fill-opacity:1;fill-rule:evenodd;stroke:#000000;stroke-width:0.21333334;stroke-miterlimit:4;stroke-dasharray:none;stroke-opacity:1"/>
    <path d="M 141.32276,145.81973 C 141.32276,145.77252 142.34889,142.89305 142.34889,142.89305 L 143.28173,145.77252 C 143.28173,145.77252 146.40672,145.86694 146.40672,145.81973 C 146.40672,145.77252 143.93471,147.70795 143.93471,147.70795 C 143.93471,147.70795 145.10072,151.0123 145.05413,150.91788 C 145.00748,150.82346 142.34889,148.93525 142.34889,148.93525 C 142.34889,148.93525 139.64372,150.82346 139.69036,150.82346 C 139.737,150.82346 140.71644,147.70795 140.71644,147.70795 L 138.29109,145.86694 L 141.32276,145.81973 z" id="path16260" style="font-size:12px;fill:#006b3f;fill-opacity:1;fill-rule:evenodd;stroke:#000000;stroke-width:0.21333334;stroke-miterlimit:4;stroke-dasharray:none;stroke-opacity:1"/>
    <rect height="0" id="rect600" style="font-size:12px;fill:#009543;fill-rule:evenodd;stroke-width:1pt" width="0.15274958" x="106.46957" y="121.02814"/>
    <rect height="0" id="rect628" style="font-size:12px;fill:#009543;fill-rule:evenodd;stroke-width:1pt" width="0.15274958" x="134.01706" y="140.42126"/>
    <rect height="0" id="rect634" style="font-size:12px;fill:#009543;fill-rule:evenodd;stroke-width:1pt" width="0.15274958" x="125.98863" y="171.20117"/>
    <rect height="0" id="rect640" style="font-size:12px;fill:#009543;fill-rule:evenodd;stroke-width:1pt" width="0.15274958" x="87.474541" y="171.20117"/>
    <rect height="0" id="rect646" style="font-size:12px;fill:#009543;fill-rule:evenodd;stroke-width:1pt" width="0.15274958" x="80.441353" y="139.62671"/>
    <rect height="0" id="rect652" style="font-size:12px;fill:#009543;fill-rule:evenodd;stroke-width:1pt" transform="scale(-1,-1)" width="0.15274958" x="-164.81516" y="-82.366943"/>
    <rect height="0" id="rect599" style="font-size:12px;fill:#009543;fill-rule:evenodd;stroke-width:1pt" transform="scale(-1,-1)" width="0.15274958" x="-175.87352" y="-112.44568"/>
    <rect height="0" id="rect607" style="font-size:12px;fill:#009543;fill-rule:evenodd;stroke-width:1pt" transform="scale(-1,-1)" width="0.15274958" x="-148.44881" y="-134.45184"/>
    <rect height="0" id="rect613" style="font-size:12px;fill:#009543;fill-rule:evenodd;stroke-width:1pt" transform="scale(-1,-1)" width="0.15274958" x="-122.68282" y="-112.44568"/>
    <rect height="0" id="rect619" style="font-size:12px;fill:#009543;fill-rule:evenodd;stroke-width:1pt" transform="scale(-1,-1)" width="0.15274958" x="-132.19299" y="-82.809296"/>
    <g id="g13518" transform="matrix(0.268953,0,0,0.268953,-6.6452373,60.58993)">
      <g id="g1112" style="font-size:12px" transform="translate(7.403947,348.7255)">
        <g id="g1014" transform="matrix(0.163503,-1.627543e-2,1.182242e-2,0.184363,429.835,-215.6278)">
          <ellipse cx="680.20569" cy="586.12573" id="path1011" rx="30.804932" ry="189.82486" sodipodi:cx="680.20569" sodipodi:cy="586.12573" sodipodi:rx="30.804932" sodipodi:ry="189.82486" style="fill:#006b3f;fill-opacity:1;fill-rule:evenodd;stroke:#000000;stroke-width:2.5" transform="matrix(1.405124,-5.812161e-3,8.166948e-3,0.999983,-534.2869,263.7234)"/>
          <ellipse cx="680.20569" cy="586.12573" id="path1012" rx="30.804932" ry="189.82486" sodipodi:cx="680.20569" sodipodi:cy="586.12573" sodipodi:rx="30.804932" sodipodi:ry="189.82486" style="fill:#006b3f;fill-opacity:1;fill-rule:evenodd;stroke:#000000;stroke-width:2.5" transform="matrix(1.486152,-5.812161e-3,8.637901e-3,0.999983,-547.2176,267.0538)"/>
          <ellipse cx="680.20569" cy="586.12573" id="path1013" rx="30.804932" ry="189.82486" sodipodi:cx="680.20569" sodipodi:cy="586.12573" sodipodi:rx="30.804932" sodipodi:ry="189.82486" style="fill:#006b3f;fill-opacity:1;fill-rule:evenodd;stroke:#000000;stroke-width:2.5" transform="matrix(1.18905,-6.423977e-3,6.911065e-3,1.105246,-364.9289,214.0982)"/>
        </g>
        <g id="g1105" transform="translate(72.86526,-9.797035)">
          <path d="M 238.342,971.79 C 268.314,970.125 254.993,955.138 269.979,946.813 C 284.965,938.487 306.612,943.483 313.272,953.473 C 319.933,963.464 314.938,973.455 323.263,973.455 C 331.589,973.455 557.819,960.78 566.144,969.106 C 574.47,977.431 576.135,994.083 567.809,1000.74 C 559.484,1007.4 273.309,1015.08 263.319,1008.42 C 253.328,1001.76 238.342,973.455 238.342,971.79 z" id="path1010" style="fill:#9c4a00;fill-opacity:1;fill-rule:evenodd;stroke:#000000;stroke-width:2.50539994" transform="matrix(0.202443,3.486294e-3,-3.936657e-3,0.21385,340.8638,-247.3115)"/>
          <path d="M 529.59,405.459 C 529.59,445.442 575.152,433.338 576.4,466.708 C 575.676,502.116 499.694,470.175 497.765,405.459 C 499.694,340.743 572.872,307.53 574.47,344.448 C 575.716,375.134 529.59,365.476 529.59,405.459 z" id="path1506" style="fill:#fcd116;fill-opacity:1;fill-rule:evenodd;stroke:#000000;stroke-width:3.85272002" transform="matrix(0.147992,1.951432e-3,-2.754835e-3,0.114586,340.4216,-81.69088)"/>
          <path d="M 529.59,405.459 C 529.59,445.442 575.152,433.338 576.4,466.708 C 575.676,502.116 499.694,470.175 497.765,405.459 C 499.694,340.743 572.872,307.53 574.47,344.448 C 575.716,375.134 529.59,365.476 529.59,405.459 z" id="path1507" style="fill:#fcd116;fill-opacity:1;fill-rule:evenodd;stroke:#000000;stroke-width:3.85272002" transform="matrix(0.147992,1.951432e-3,-2.754835e-3,0.114586,344.4198,-81.63816)"/>
          <path d="M 529.59,405.459 C 529.59,445.442 575.152,433.338 576.4,466.708 C 575.676,502.116 499.694,470.175 497.765,405.459 C 499.694,340.743 572.872,307.53 574.47,344.448 C 575.716,375.134 529.59,365.476 529.59,405.459 z" id="path1508" style="fill:#fcd116;fill-opacity:1;fill-rule:evenodd;stroke:#000000;stroke-width:3.85272002" transform="matrix(0.147992,1.951432e-3,-2.754835e-3,0.114586,348.7088,-81.79968)"/>
          <path d="M 529.59,405.459 C 529.59,445.442 575.152,433.338 576.4,466.708 C 575.676,502.116 499.694,470.175 497.765,405.459 C 499.694,340.743 572.872,307.53 574.47,344.448 C 575.716,375.134 529.59,365.476 529.59,405.459 z" id="path1509" style="fill:#fcd116;fill-opacity:1;fill-rule:evenodd;stroke:#000000;stroke-width:3.85272002" transform="matrix(0.147992,1.951432e-3,-2.754835e-3,0.114586,352.7069,-81.74693)"/>
          <ellipse cx="478.38174" cy="-41.085754" id="path1091" rx="3.533875" ry="3.402977" sodipodi:cx="478.38174" sodipodi:cy="-41.085754" sodipodi:rx="3.533875" sodipodi:ry="3.402977" style="fill:#9c4a00;fill-opacity:1;fill-rule:evenodd;stroke:#000000;stroke-width:0.39908299" transform="matrix(1.094549,1.648336e-2,-2.428555e-2,1.153662,-75.5714,4.677567)"/>
        </g>
        <g id="g1048" transform="matrix(0.994885,-0.101022,0.101022,0.994885,66.68384,66.33841)">
          <ellipse cx="427.1059" cy="904.99817" id="path1049" rx="20.814133" ry="24.144409" sodipodi:cx="427.1059" sodipodi:cy="904.99817" sodipodi:rx="20.814133" sodipodi:ry="24.144409" style="fill:#006b3f;fill-opacity:1;fill-rule:evenodd;stroke:#000000;stroke-width:2.5" transform="matrix(0.166193,-8.072795e-3,1.687537e-3,0.315205,369.7997,-361.6541)"/>
          <ellipse cx="427.1059" cy="904.99817" id="path1050" rx="20.814133" ry="24.144409" sodipodi:cx="427.1059" sodipodi:cy="904.99817" sodipodi:rx="20.814133" sodipodi:ry="24.144409" style="fill:#006b3f;fill-opacity:1;fill-rule:evenodd;stroke:#000000;stroke-width:2.5" transform="matrix(0.166193,-8.072795e-3,1.687537e-3,0.315205,364.0408,-362.7012)"/>
          <ellipse cx="427.1059" cy="904.99817" id="path1052" rx="20.814133" ry="24.144409" sodipodi:cx="427.1059" sodipodi:cy="904.99817" sodipodi:rx="20.814133" sodipodi:ry="24.144409" style="fill:#006b3f;fill-opacity:1;fill-rule:evenodd;stroke:#000000;stroke-width:2.5" transform="matrix(0.166193,-8.072776e-3,1.687537e-3,0.315204,360.6378,-370.5537)"/>
          <ellipse cx="427.1059" cy="904.99817" id="path1053" rx="20.814133" ry="24.144409" sodipodi:cx="427.1059" sodipodi:cy="904.99817" sodipodi:rx="20.814133" sodipodi:ry="24.144409" style="fill:#006b3f;fill-opacity:1;fill-rule:evenodd;stroke:#000000;stroke-width:2.5" transform="matrix(0.159905,-8.905569e-3,1.623691e-3,0.347721,369.2988,-399.3517)"/>
          <ellipse cx="427.1059" cy="904.99817" id="path1054" rx="20.814133" ry="24.144409" sodipodi:cx="427.1059" sodipodi:cy="904.99817" sodipodi:rx="20.814133" sodipodi:ry="24.144409" style="fill:#009543;fill-rule:evenodd;stroke:#000000;stroke-width:2.5" transform="matrix(0.159905,-8.350374e-3,1.623691e-3,0.326043,377.4103,-379.0724)"/>
          <ellipse cx="427.1059" cy="904.99817" id="path1055" rx="20.814133" ry="24.144409" sodipodi:cx="427.1059" sodipodi:cy="904.99817" sodipodi:rx="20.814133" sodipodi:ry="24.144409" style="fill:#009543;fill-rule:evenodd;stroke:#000000;stroke-width:2.5" transform="matrix(0.159905,-8.350374e-3,1.623691e-3,0.326043,373.222,-382.2137)"/>
          <ellipse cx="427.1059" cy="904.99817" id="path1056" rx="20.814133" ry="24.144409" sodipodi:cx="427.1059" sodipodi:cy="904.99817" sodipodi:rx="20.814133" sodipodi:ry="24.144409" style="fill:#009543;fill-rule:evenodd;stroke:#000000;stroke-width:2.5" transform="matrix(0.159905,-8.350374e-3,1.623691e-3,0.326043,367.9866,-386.6638)"/>
          <ellipse cx="427.1059" cy="904.99817" id="path1057" rx="20.814133" ry="24.144409" sodipodi:cx="427.1059" sodipodi:cy="904.99817" sodipodi:rx="20.814133" sodipodi:ry="24.144409" style="fill:#006b3f;fill-opacity:1;fill-rule:evenodd;stroke:#000000;stroke-width:2.5" transform="matrix(0.159905,-8.350374e-3,1.623691e-3,0.326043,363.0129,-389.5432)"/>
        </g>
        <path d="M 173.174,346.347 C 173.174,346.347 118.976,411.24 151.922,555.162 C 185.88,699.752 330.887,744.945 330.887,744.945 C 330.887,744.945 357.383,697.522 332.613,580.904 C 292.65,411.061 216.467,346.347 216.467,346.347 L 173.174,346.347 z" id="path851" style="fill:#9461c9;fill-opacity:1;fill-rule:evenodd;stroke:#000000;stroke-width:2.5" transform="matrix(0.176889,3.219125e-2,-3.142231e-2,0.182359,461.7877,-208.6117)"/>
        <g id="g1026" transform="matrix(0.996961,7.791016e-2,-7.791016e-2,0.996961,60.53158,-11.75977)">
          <ellipse cx="427.1059" cy="904.99817" id="path1025" rx="20.814133" ry="24.144409" sodipodi:cx="427.1059" sodipodi:cy="904.99817" sodipodi:rx="20.814133" sodipodi:ry="24.144409" style="fill:#006b3f;fill-opacity:1;fill-rule:evenodd;stroke:#000000;stroke-width:2.5" transform="matrix(0.166193,-8.072795e-3,1.687537e-3,0.315205,369.7997,-361.6541)"/>
          <ellipse cx="427.1059" cy="904.99817" id="path1017" rx="20.814133" ry="24.144409" sodipodi:cx="427.1059" sodipodi:cy="904.99817" sodipodi:rx="20.814133" sodipodi:ry="24.144409" style="fill:#006b3f;fill-opacity:1;fill-rule:evenodd;stroke:#000000;stroke-width:2.5" transform="matrix(0.166193,-8.072795e-3,1.687537e-3,0.315205,364.0408,-362.7012)"/>
          <ellipse cx="427.1059" cy="904.99817" id="path1016" rx="20.814133" ry="24.144409" sodipodi:cx="427.1059" sodipodi:cy="904.99817" sodipodi:rx="20.814133" sodipodi:ry="24.144409" style="fill:#006b3f;fill-opacity:1;fill-rule:evenodd;stroke:#000000;stroke-width:2.5" transform="matrix(0.166193,-8.072776e-3,1.687537e-3,0.315204,360.6378,-370.5537)"/>
          <ellipse cx="427.1059" cy="904.99817" id="path1018" rx="20.814133" ry="24.144409" sodipodi:cx="427.1059" sodipodi:cy="904.99817" sodipodi:rx="20.814133" sodipodi:ry="24.144409" style="fill:#006b3f;fill-opacity:1;fill-rule:evenodd;stroke:#000000;stroke-width:2.5" transform="matrix(0.159905,-8.905569e-3,1.623691e-3,0.347721,369.2988,-399.3517)"/>
          <ellipse cx="427.1059" cy="904.99817" id="path1020" rx="20.814133" ry="24.144409" sodipodi:cx="427.1059" sodipodi:cy="904.99817" sodipodi:rx="20.814133" sodipodi:ry="24.144409" style="fill:#006b3f;fill-opacity:1;fill-rule:evenodd;stroke:#000000;stroke-width:2.5" transform="matrix(0.159905,-8.350374e-3,1.623691e-3,0.326043,377.4103,-379.0724)"/>
          <ellipse cx="427.1059" cy="904.99817" id="path1019" rx="20.814133" ry="24.144409" sodipodi:cx="427.1059" sodipodi:cy="904.99817" sodipodi:rx="20.814133" sodipodi:ry="24.144409" style="fill:#006b3f;fill-opacity:1;fill-rule:evenodd;stroke:#000000;stroke-width:2.5" transform="matrix(0.159905,-8.350374e-3,1.623691e-3,0.326043,373.222,-382.2137)"/>
          <ellipse cx="427.1059" cy="904.99817" id="path1005" rx="20.814133" ry="24.144409" sodipodi:cx="427.1059" sodipodi:cy="904.99817" sodipodi:rx="20.814133" sodipodi:ry="24.144409" style="fill:#006b3f;fill-opacity:1;fill-rule:evenodd;stroke:#000000;stroke-width:2.5" transform="matrix(0.159905,-8.350374e-3,1.623691e-3,0.326043,367.9866,-386.6638)"/>
          <ellipse cx="427.1059" cy="904.99817" id="path988" rx="20.814133" ry="24.144409" sodipodi:cx="427.1059" sodipodi:cy="904.99817" sodipodi:rx="20.814133" sodipodi:ry="24.144409" style="fill:#006b3f;fill-opacity:1;fill-rule:evenodd;stroke:#000000;stroke-width:2.5" transform="matrix(0.159905,-8.350374e-3,1.623691e-3,0.326043,363.0129,-389.5432)"/>
        </g>
        <ellipse cx="624.42383" cy="606.1073" id="path985" rx="58.279541" ry="186.49458" sodipodi:cx="624.42383" sodipodi:cy="606.1073" sodipodi:rx="58.279541" sodipodi:ry="186.49458" style="fill:#d41c30;fill-opacity:1;fill-rule:evenodd;stroke:#000000;stroke-width:1pt" transform="matrix(0.156948,-6.062813e-2,6.364226e-2,0.148405,369.6128,-145.0546)"/>
        <g id="g1072" transform="matrix(0.999842,1.780211e-2,-1.780211e-2,0.999842,-34.81445,-4.628464)">
          <ellipse cx="218.13208" cy="356.75403" id="path872" rx="10.823341" ry="12.90477" sodipodi:cx="218.13208" sodipodi:cy="356.75403" sodipodi:rx="10.823341" sodipodi:ry="12.90477" style="fill:#009543;fill-rule:evenodd;stroke:#000000;stroke-width:1.46349001" transform="matrix(0.395296,0,0,0.292704,445.0725,-230.5263)"/>
          <ellipse cx="218.13208" cy="356.75403" id="path888" rx="10.823341" ry="12.90477" sodipodi:cx="218.13208" sodipodi:cy="356.75403" sodipodi:rx="10.823341" sodipodi:ry="12.90477" style="fill:#009543;fill-rule:evenodd;stroke:#000000;stroke-width:1.54622996" transform="matrix(0.35412,0,0,0.292704,457.1741,-235.9224)"/>
          <ellipse cx="218.13208" cy="356.75403" id="path887" rx="10.823341" ry="12.90477" sodipodi:cx="218.13208" sodipodi:cy="356.75403" sodipodi:rx="10.823341" sodipodi:ry="12.90477" style="fill:#009543;fill-rule:evenodd;stroke:#000000;stroke-width:1.54622996" transform="matrix(0.35412,0,0,0.292704,452.0043,-235.9224)"/>
          <ellipse cx="218.13208" cy="356.75403" id="path879" rx="10.823341" ry="12.90477" sodipodi:cx="218.13208" sodipodi:cy="356.75403" sodipodi:rx="10.823341" sodipodi:ry="12.90477" style="fill:#006b3f;fill-opacity:1;fill-rule:evenodd;stroke:#000000;stroke-width:1.55999005" transform="matrix(0.370591,0,0,0.274783,449.4811,-233.4606)"/>
          <ellipse cx="218.13208" cy="356.75403" id="path878" rx="10.823341" ry="12.90477" sodipodi:cx="218.13208" sodipodi:cy="356.75403" sodipodi:rx="10.823341" sodipodi:ry="12.90477" style="fill:#006b3f;fill-opacity:1;fill-rule:evenodd;stroke:#000000;stroke-width:1.55999005" transform="matrix(0.370591,0,0,0.274783,448.9463,-237.9316)"/>
          <ellipse cx="218.13208" cy="356.75403" id="path867" rx="10.823341" ry="12.90477" sodipodi:cx="218.13208" sodipodi:cy="356.75403" sodipodi:rx="10.823341" sodipodi:ry="12.90477" style="fill:#006b3f;fill-opacity:1;fill-rule:evenodd;stroke:#000000;stroke-width:1.54622996" transform="matrix(0.35412,0,0,0.292704,447.0128,-238.8517)"/>
          <ellipse cx="218.13208" cy="356.75403" id="path877" rx="10.823341" ry="12.90477" sodipodi:cx="218.13208" sodipodi:cy="356.75403" sodipodi:rx="10.823341" sodipodi:ry="12.90477" style="fill:#006b3f;fill-opacity:1;fill-rule:evenodd;stroke:#000000;stroke-width:1.56226003" transform="matrix(0.35412,0,0,0.28673,448.0824,-241.577)"/>
          <ellipse cx="218.13208" cy="356.75403" id="path876" rx="10.823341" ry="12.90477" sodipodi:cx="218.13208" sodipodi:cy="356.75403" sodipodi:rx="10.823341" sodipodi:ry="12.90477" style="fill:#006b3f;fill-opacity:1;fill-rule:evenodd;stroke:#000000;stroke-width:1.46349001" transform="matrix(0.395296,0,0,0.292704,432.772,-243.4769)"/>
          <ellipse cx="218.13208" cy="356.75403" id="path874" rx="10.823341" ry="12.90477" sodipodi:cx="218.13208" sodipodi:cy="356.75403" sodipodi:rx="10.823341" sodipodi:ry="12.90477" style="fill:#006b3f;fill-opacity:1;fill-rule:evenodd;stroke:#000000;stroke-width:1.55999005" transform="matrix(0.370591,0,0,0.274783,445.9157,-243.4819)"/>
          <ellipse cx="218.13208" cy="356.75403" id="path873" rx="10.823341" ry="12.90477" sodipodi:cx="218.13208" sodipodi:cy="356.75403" sodipodi:rx="10.823341" sodipodi:ry="12.90477" style="fill:#006b3f;fill-opacity:1;fill-rule:evenodd;stroke:#000000;stroke-width:1.56226003" transform="matrix(0.35412,0,0,0.28673,444.1605,-246.9731)"/>
          <ellipse cx="218.13208" cy="356.75403" id="path871" rx="10.823341" ry="12.90477" sodipodi:cx="218.13208" sodipodi:cy="356.75403" sodipodi:rx="10.823341" sodipodi:ry="12.90477" style="fill:#006b3f;fill-opacity:1;fill-rule:evenodd;stroke:#000000;stroke-width:1.54622996" transform="matrix(0.35412,0,0,0.292704,436.1385,-243.1686)"/>
          <ellipse cx="218.13208" cy="356.75403" id="path1070" rx="10.823341" ry="12.90477" sodipodi:cx="218.13208" sodipodi:cy="356.75403" sodipodi:rx="10.823341" sodipodi:ry="12.90477" style="fill:#006b3f;fill-opacity:1;fill-rule:evenodd;stroke:#000000;stroke-width:1.56226003" transform="matrix(0.35412,0,0,0.28673,437.4203,-243.8784)"/>
          <ellipse cx="218.13208" cy="356.75403" id="path869" rx="10.823341" ry="12.90477" sodipodi:cx="218.13208" sodipodi:cy="356.75403" sodipodi:rx="10.823341" sodipodi:ry="12.90477" style="fill:#006b3f;fill-opacity:1;fill-rule:evenodd;stroke:#000000;stroke-width:1.56226003" transform="matrix(0.35412,0,0,0.28673,438.9908,-247.0197)"/>
        </g>
        <g id="g946" transform="matrix(0.179609,-4.521057e-3,4.192619e-3,0.185123,420.9863,-216.8024)">
          <ellipse cx="528.67889" cy="564.479" id="path889" rx="67.437759" ry="205.6436" sodipodi:cx="528.67889" sodipodi:cy="564.479" sodipodi:rx="67.437759" sodipodi:ry="205.6436" style="fill:#006b3f;fill-opacity:1;fill-rule:evenodd;stroke:#000000;stroke-width:2.54485989" transform="matrix(0.97574,-0.307929,0.363045,0.874481,-245.8061,324.3975)"/>
          <ellipse cx="528.67883" cy="646.07043" id="path894" rx="13.321075" ry="40.795685" sodipodi:cx="528.67883" sodipodi:cy="646.07043" sodipodi:rx="13.321075" sodipodi:ry="40.795685" style="fill:#006b3f;fill-opacity:1;fill-rule:evenodd;stroke:#000000;stroke-width:2.5" transform="matrix(0.917882,-0.396852,0.396852,0.917882,-210.4826,304.4884)"/>
          <path d="M 139.87,643.988 C 139.87,701.665 121.115,730.159 105.319,754.303 C 112.836,721.833 118.224,701.666 118.224,643.989 C 118.224,586.312 147.803,558.652 158.603,542 C 154.417,558.652 139.87,586.312 139.87,643.988 z" id="path893" style="fill:#006b3f;fill-opacity:1;fill-rule:evenodd;stroke:#000000;stroke-width:1.53268003" transform="matrix(1.882818,-0.455977,0.953423,1.182187,-352.2551,-10.01956)"/>
          <path d="M 139.87,643.988 C 139.87,701.665 121.115,730.159 105.319,754.303 C 112.836,721.833 118.224,701.666 118.224,643.989 C 118.224,586.312 147.803,558.652 158.603,542 C 154.417,558.652 139.87,586.312 139.87,643.988 z" id="path892" style="fill:#006b3f;fill-opacity:1;fill-rule:evenodd;stroke:#000000;stroke-width:1.53268003" transform="matrix(1.882818,-0.455977,0.953423,1.182187,-348.4234,44.05751)"/>
          <path d="M 139.87,643.988 C 139.87,701.665 121.115,730.159 105.319,754.303 C 112.836,721.833 118.224,701.666 118.224,643.989 C 118.224,586.312 147.803,558.652 158.603,542 C 154.417,558.652 139.87,586.312 139.87,643.988 z" id="path891" style="fill:#006b3f;fill-opacity:1;fill-rule:evenodd;stroke:#000000;stroke-width:1.53268003" transform="matrix(1.87302,-0.494682,0.977582,1.162287,-361.9242,105.7834)"/>
          <ellipse cx="528.67883" cy="646.07043" id="path895" rx="13.321075" ry="40.795685" sodipodi:cx="528.67883" sodipodi:cy="646.07043" sodipodi:rx="13.321075" sodipodi:ry="40.795685" style="fill:#006b3f;fill-opacity:1;fill-rule:evenodd;stroke:#000000;stroke-width:1.38874996" transform="matrix(1.810478,-0.400515,0.699068,1.635286,-915.63,-221.0144)"/>
          <ellipse cx="528.67883" cy="646.07043" id="path896" rx="13.321075" ry="40.795685" sodipodi:cx="528.67883" sodipodi:cy="646.07043" sodipodi:rx="13.321075" sodipodi:ry="40.795685" style="fill:#006b3f;fill-opacity:1;fill-rule:evenodd;stroke:#000000;stroke-width:1.63984001" transform="matrix(1.625675,-0.230684,0.541575,1.352842,-739.4891,-91.77486)"/>
          <ellipse cx="528.67883" cy="646.07043" id="path897" rx="13.321075" ry="40.795685" sodipodi:cx="528.67883" sodipodi:cy="646.07043" sodipodi:rx="13.321075" sodipodi:ry="40.795685" style="fill:#006b3f;fill-opacity:1;fill-rule:evenodd;stroke:#000000;stroke-width:1.63984001" transform="matrix(1.630439,-0.197194,0.512514,1.363529,-750.6206,-91.82552)"/>
          <ellipse cx="528.67883" cy="646.07043" id="path898" rx="13.321075" ry="40.795685" sodipodi:cx="528.67883" sodipodi:cy="646.07043" sodipodi:rx="13.321075" sodipodi:ry="40.795685" style="fill:#006b3f;fill-opacity:1;fill-rule:evenodd;stroke:#000000;stroke-width:2.09662008" transform="matrix(1.31445,-0.200604,0.468889,1.010117,-531.0563,47.56802)"/>
          <ellipse cx="528.67883" cy="646.07043" id="path899" rx="13.321075" ry="40.795685" sodipodi:cx="528.67883" sodipodi:cy="646.07043" sodipodi:rx="13.321075" sodipodi:ry="40.795685" style="fill:#006b3f;fill-opacity:1;fill-rule:evenodd;stroke:#000000;stroke-width:2.09662008" transform="matrix(1.325781,-0.130444,0.403422,1.032739,-517.8685,12.21143)"/>
          <path d="M 145.698,569.474 C 145.698,603.48 138.986,631.084 130.713,631.084 C 122.441,631.084 115.727,603.48 115.727,569.474" id="path945" style="fill:#006b3f;fill-opacity:1;fill-rule:evenodd;stroke:#000000;stroke-width:2.08615994" transform="matrix(1.025425,-0.492771,0.464381,1.177331,12.76656,-14.519)"/>
          <ellipse cx="528.67883" cy="646.07043" id="path902" rx="13.321075" ry="40.795685" sodipodi:cx="528.67883" sodipodi:cy="646.07043" sodipodi:rx="13.321075" sodipodi:ry="40.795685" style="fill:#006b3f;fill-opacity:1;fill-rule:evenodd;stroke:#000000;stroke-width:2.09662008" transform="matrix(1.325781,-0.130444,0.403422,1.032739,-519.5336,-34.41226)"/>
          <ellipse cx="528.67883" cy="646.07043" id="path903" rx="13.321075" ry="40.795685" sodipodi:cx="528.67883" sodipodi:cy="646.07043" sodipodi:rx="13.321075" sodipodi:ry="40.795685" style="fill:#006b3f;fill-opacity:1;fill-rule:evenodd;stroke:#000000;stroke-width:2.09662008" transform="matrix(1.328753,-0.105107,0.379547,1.040012,-533.9751,-40.12073)"/>
          <path d="M 145.698,569.474 C 145.698,603.48 138.986,631.084 130.713,631.084 C 122.441,631.084 115.727,603.48 115.727,569.474" id="path909" style="fill:#006b3f;fill-opacity:1;fill-rule:evenodd;stroke:#000000;stroke-width:2.8796699" transform="matrix(0.672197,-0.471822,0.458936,0.799103,39.48589,143.278)"/>
          <path d="M 145.698,569.474 C 145.698,603.48 138.986,631.084 130.713,631.084 C 122.441,631.084 115.727,603.48 115.727,569.474" id="path906" style="fill:#006b3f;fill-opacity:1;fill-rule:evenodd;stroke:#000000;stroke-width:2.8796699" transform="matrix(0.672197,-0.471822,0.458936,0.799103,51.14178,125.7941)"/>
          <path d="M 145.698,569.474 C 145.698,603.48 138.986,631.084 130.713,631.084 C 122.441,631.084 115.727,603.48 115.727,569.474" id="path907" style="fill:#006b3f;fill-opacity:1;fill-rule:evenodd;stroke:#000000;stroke-width:2.08615994" transform="matrix(0.937396,-0.644677,0.639998,1.091861,-40.19822,-10.74352)"/>
          <path d="M 145.698,569.474 C 145.698,603.48 138.986,631.084 130.713,631.084 C 122.441,631.084 115.727,603.48 115.727,569.474" id="path908" style="fill:#006b3f;fill-opacity:1;fill-rule:evenodd;stroke:#000000;stroke-width:2.74245" transform="matrix(0.672197,-0.520221,0.458936,0.881076,68.62559,71.17856)"/>
        </g>
        <g id="g919" transform="matrix(1.101444,0.275869,-0.265588,0.974374,-85.41525,-157.9016)">
          <path d="M 276.266,345.409 C 263.988,354.583 276.675,370.553 288.288,376.088 C 301.348,383.76 374.891,434.273 424.605,388.087 C 383.81,388.92 305.942,324.904 276.266,345.409 z" id="path875" style="fill:#9461c9;fill-opacity:1;fill-rule:evenodd;stroke:#000000;stroke-width:2.5" transform="matrix(0.134413,-3.04485e-2,4.851113e-2,0.216811,448.7474,-184.9145)"/>
          <path d="M 276.266,345.409 C 263.988,354.583 276.675,370.553 288.288,376.088 C 301.348,383.76 374.891,434.273 424.605,388.087 C 383.81,388.92 305.942,324.904 276.266,345.409 z" id="path870" style="fill:#9461c9;fill-opacity:1;fill-rule:evenodd;stroke:#000000;stroke-width:2.5" transform="matrix(0.134413,-3.04485e-2,4.851113e-2,0.216811,446.2043,-190.218)"/>
          <path d="M 276.266,345.409 C 263.988,354.583 276.675,370.553 288.288,376.088 C 301.348,383.76 374.891,434.273 424.605,388.087 C 383.81,388.92 305.942,324.904 276.266,345.409 z" id="path868" style="fill:#9461c9;fill-opacity:1;fill-rule:evenodd;stroke:#000000;stroke-width:2.5" transform="matrix(0.134413,-3.04485e-2,4.851113e-2,0.216811,443.3872,-195.1923)"/>
          <path d="M 276.266,345.409 C 263.988,354.583 276.675,370.553 288.288,376.088 C 301.348,383.76 374.891,434.273 424.605,388.087 C 383.81,388.92 305.942,324.904 276.266,345.409 z" id="path866" style="fill:#9461c9;fill-opacity:1;fill-rule:evenodd;stroke:#000000;stroke-width:2.5" transform="matrix(0.134413,-3.04485e-2,4.851113e-2,0.216811,438.6063,-200.4414)"/>
        </g>
        <g id="g907" transform="matrix(0.999842,1.780211e-2,-1.780211e-2,0.999842,12.04015,10.60534)">
          <path d="M 211.167,247.301 C 232.94,235.236 267.785,237.552 290.901,258.466 C 310.261,275.409 336.208,333.66 361.223,351.3 C 340.996,351.319 329.925,345.531 318.982,336.12 C 290.215,351.562 280.855,352.844 255.092,351.752 C 219.211,350.418 192.633,334.098 186.914,311.148 C 180.748,289.344 191.839,258.65 211.167,247.301 z" id="path852" style="fill:#9461c9;fill-opacity:1;fill-rule:evenodd;stroke:#000000;stroke-width:2.5" transform="matrix(0.208828,-4.091126e-2,4.730467e-2,0.180604,407.8048,-213.6359)"/>
          <ellipse cx="287.23499" cy="323.03516" id="path1051" rx="14.15361" ry="14.98616" sodipodi:cx="287.23499" sodipodi:cy="323.03516" sodipodi:rx="14.15361" sodipodi:ry="14.98616" style="fill:#d41c30;fill-opacity:1;fill-rule:evenodd;stroke:#000000;stroke-width:2.5" transform="matrix(0.24521,0,0,0.134333,401.8211,-215.1804)"/>
          <ellipse cx="204.57761" cy="348.26199" id="path1062" rx="23.254143" ry="15.895233" sodipodi:cx="204.57761" sodipodi:cy="348.26199" sodipodi:rx="23.254143" sodipodi:ry="15.895233" style="fill:#fcd116;fill-opacity:1;fill-rule:evenodd;stroke:#000000;stroke-width:2.5" transform="matrix(0.19364,-7.598685e-2,6.759024e-2,0.17273,398.6623,-208.0622)"/>
          <ellipse cx="283.90472" cy="333.85846" id="path1059" rx="5.8279572" ry="5.8279419" sodipodi:cx="283.90472" sodipodi:cy="333.85846" sodipodi:rx="5.8279572" sodipodi:ry="5.8279419" style="fill-rule:evenodd;stroke-width:1pt" transform="matrix(0.214119,0,0,0.18518,411.2866,-233.7407)"/>
          <path d="M 516.796,260.294 C 521.221,278.401 510.122,303.377 483.663,312.903 C 456.888,326.076 437.584,354.734 428.022,400.92 C 380.778,297.65 404.915,252.645 448.622,240.574 C 485.999,226.211 509.042,227.203 516.796,260.294 z" id="path1061" style="fill:#fcd116;fill-opacity:1;fill-rule:evenodd;stroke:#000000;stroke-width:6.55976009" transform="matrix(9.228922e-2,8.874689e-4,-3.397048e-3,8.481727e-2,417.8523,-191.4926)"/>
          <ellipse cx="198.98488" cy="362.39093" id="path1113" rx="4.709702" ry="4.709702" sodipodi:cx="198.98488" sodipodi:cy="362.39093" sodipodi:rx="4.709702" sodipodi:ry="4.709702" style="fill-rule:evenodd;stroke-width:1pt" transform="matrix(0.186968,-1.313064e-2,1.398806e-2,0.19143,418.6864,-234.9767)"/>
        </g>
      </g>
    </g>
  </g>
</svg>
