<?xml version="1.0" encoding="UTF-8" standalone="no"?>
<svg height="256" id="svg3289" inkscape:output_extension="org.inkscape.output.svg.inkscape" inkscape:version="0.46" sodipodi:docname="Flag_of_Algeria.svg" sodipodi:version="0.32" version="1.0" viewBox="-30 -20 60 40" width="256" xmlns="http://www.w3.org/2000/svg" xmlns:cc="http://creativecommons.org/ns#" xmlns:dc="http://purl.org/dc/elements/1.1/" xmlns:inkscape="http://www.inkscape.org/namespaces/inkscape" xmlns:rdf="http://www.w3.org/1999/02/22-rdf-syntax-ns#" xmlns:sodipodi="http://sodipodi.sourceforge.net/DTD/sodipodi-0.dtd" xmlns:svg="http://www.w3.org/2000/svg" xmlns:xlink="http://www.w3.org/1999/xlink">
  <metadata>
    <rdf:RDF xmlns:cc="http://web.resource.org/cc/" xmlns:dc="http://purl.org/dc/elements/1.1/" xmlns:rdf="http://www.w3.org/1999/02/22-rdf-syntax-ns#">
      <cc:Work rdf:about="">
        <dc:title></dc:title>
        <dc:description></dc:description>
        <dc:subject>
          <rdf:Bag>
            <rdf:li>unsorted</rdf:li>
          </rdf:Bag>
        </dc:subject>
        <dc:publisher>
          <cc:Agent rdf:about="http://www.openclipart.org/">
            <dc:title>Open Clip Art Library, Source: Wikimedia Commons</dc:title>
          </cc:Agent>
        </dc:publisher>
        <dc:creator>
          <cc:Agent>
            <dc:title></dc:title>
          </cc:Agent>
        </dc:creator>
        <dc:rights>
          <cc:Agent>
            <dc:title></dc:title>
          </cc:Agent>
        </dc:rights>
        <dc:date></dc:date>
        <dc:format>image/svg+xml</dc:format>
        <dc:type rdf:resource="http://purl.org/dc/dcmitype/StillImage"/>
        <cc:license rdf:resource="http://web.resource.org/cc/PublicDomain"/>
        <dc:language>en</dc:language>
      </cc:Work>
      <cc:License rdf:about="http://web.resource.org/cc/PublicDomain">
        <cc:permits rdf:resource="http://web.resource.org/cc/Reproduction"/>
        <cc:permits rdf:resource="http://web.resource.org/cc/Distribution"/>
        <cc:permits rdf:resource="http://web.resource.org/cc/DerivativeWorks"/>
      </cc:License>
    </rdf:RDF>
  </metadata>
  <sodipodi:namedview bordercolor="#666666" borderopacity="1.0" gridtolerance="10.0" guidetolerance="10.0" id="base" inkscape:current-layer="svg3289" inkscape:cx="450" inkscape:cy="300" inkscape:pageopacity="0.0" inkscape:pageshadow="2" inkscape:window-height="674" inkscape:window-width="640" inkscape:window-x="24" inkscape:window-y="241" inkscape:zoom="0.62111111" objecttolerance="10.0" pagecolor="#ffffff" showgrid="false"/>
  <desc id="desc3291">Flag of Algeria</desc>
  <defs id="defs3293">
    <inkscape:perspective id="perspective3320" inkscape:persp3d-origin="450 : 200 : 1" inkscape:vp_x="0 : 300 : 1" inkscape:vp_y="0 : 1000 : 0" inkscape:vp_z="900 : 300 : 1" sodipodi:type="inkscape:persp3d"/>
  </defs>
  <rect height="40" id="rect3295" style="fill:#ffffff" width="60" x="-30" y="-20"/>
  <rect height="40" id="rect3297" style="fill:#007229" width="30" x="-30" y="-20"/>
  <g id="g3299" style="fill:#d21034">
    <!-- sqrt(75) -->
    <path d="M 8.660254,5 C 6.3972256,8.9196802 1.7836447,10.830688 -2.5881905,9.6592583 C -6.9600256,8.4878286 -10,4.5260568 -10,1.2246468e-15 C -10,-4.5260568 -6.9600256,-8.4878286 -2.5881905,-9.6592583 C 1.7836447,-10.830688 6.3972256,-8.9196802 8.660254,-5 C 6.5371707,-7.6517302 2.9709491,-8.6735438 -0.23427373,-7.5485093 C -3.4394966,-6.4234748 -5.584744,-3.3969334 -5.584744,-9.7971744e-16 C -5.584744,3.3969334 -3.4394966,6.4234748 -0.23427373,7.5485093 C 2.9709491,8.6735438 6.5371707,7.6517302 8.660254,5" id="path3301"/>
    <!-- cos(Pi/5) -->
    <g id="g3303" transform="matrix(5,0,0,5,4.045085,0)">
      <g id="cone">
        <polygon id="triangle" points="0,0 -1,0 -1,0.5 0,0 " transform="matrix(0.9510565,0.309017,-0.309017,0.9510565,1,0)"/>
        <use height="40" id="use3307" transform="scale(1,-1)" width="60" x="0" xlink:href="#triangle" y="0"/>
      </g>
      <use height="40" id="use3309" transform="matrix(0.309017,0.9510565,-0.9510565,0.309017,0,0)" width="60" x="0" xlink:href="#cone" y="0"/>
      <use height="40" id="use3311" transform="matrix(0.309017,-0.9510565,0.9510565,0.309017,0,0)" width="60" x="0" xlink:href="#cone" y="0"/>
      <use height="40" id="use3313" transform="matrix(-0.809017,0.5877853,-0.5877853,-0.809017,0,0)" width="60" x="0" xlink:href="#cone" y="0"/>
      <use height="40" id="use3315" transform="matrix(-0.809017,-0.5877853,0.5877853,-0.809017,0,0)" width="60" x="0" xlink:href="#cone" y="0"/>
    </g>
  </g>
</svg>
