<?xml version="1.0" encoding="UTF-8" standalone="no"?>
<!-- Created with Inkscape (http://www.inkscape.org/) --><svg height="256" id="svg559" inkscape:output_extension="org.inkscape.output.svg.inkscape" inkscape:version="0.46" sodipodi:docbase="C:\Documents and Settings\David Nelson\Archives\Svg" sodipodi:docname="Flag_of_the_British_Virgin_Islands.svg" sodipodi:version="0.32" version="1.0" width="256" x="0.00000000" xmlns="http://www.w3.org/2000/svg" xmlns:cc="http://creativecommons.org/ns#" xmlns:dc="http://purl.org/dc/elements/1.1/" xmlns:inkscape="http://www.inkscape.org/namespaces/inkscape" xmlns:rdf="http://www.w3.org/1999/02/22-rdf-syntax-ns#" xmlns:sodipodi="http://sodipodi.sourceforge.net/DTD/sodipodi-0.dtd" xmlns:svg="http://www.w3.org/2000/svg" xmlns:xlink="http://www.w3.org/1999/xlink" y="0.00000000">
  <metadata>
    <rdf:RDF xmlns:cc="http://web.resource.org/cc/" xmlns:dc="http://purl.org/dc/elements/1.1/" xmlns:rdf="http://www.w3.org/1999/02/22-rdf-syntax-ns#">
      <cc:Work rdf:about="">
        <dc:title>British Virgin Islands</dc:title>
        <dc:description></dc:description>
        <dc:subject>
          <rdf:Bag>
            <rdf:li></rdf:li>
            <rdf:li>flags</rdf:li>
            <rdf:li>united_kingdom</rdf:li>
            <rdf:li>america</rdf:li>
            <rdf:li>caribbean</rdf:li>
            <rdf:li>signs_and_symbols</rdf:li>
            <rdf:li>sign</rdf:li>
          </rdf:Bag>
        </dc:subject>
        <dc:publisher>
          <cc:Agent rdf:about="http://www.openclipart.org">
            <dc:title>Tobias Jakobs, Source: Wikimedia Commons</dc:title>
          </cc:Agent>
        </dc:publisher>
        <dc:creator>
          <cc:Agent>
            <dc:title>Tobias Jakobs</dc:title>
          </cc:Agent>
        </dc:creator>
        <dc:rights>
          <cc:Agent>
            <dc:title>Tobias Jakobs</dc:title>
          </cc:Agent>
        </dc:rights>
        <dc:date></dc:date>
        <dc:format>image/svg+xml</dc:format>
        <dc:type rdf:resource="http://purl.org/dc/dcmitype/StillImage"/>
        <cc:license rdf:resource="http://web.resource.org/cc/PublicDomain"/>
        <dc:language>en</dc:language>
      </cc:Work>
      <cc:License rdf:about="http://web.resource.org/cc/PublicDomain">
        <cc:permits rdf:resource="http://web.resource.org/cc/Reproduction"/>
        <cc:permits rdf:resource="http://web.resource.org/cc/Distribution"/>
        <cc:permits rdf:resource="http://web.resource.org/cc/DerivativeWorks"/>
      </cc:License>
    </rdf:RDF>
  </metadata>
  <sodipodi:namedview bordercolor="#666666" borderopacity="1.0" id="base" inkscape:current-layer="svg559" inkscape:cx="500.00024" inkscape:cy="250.00011" inkscape:pageopacity="0.0" inkscape:pageshadow="2" inkscape:window-height="704" inkscape:window-width="868" inkscape:window-x="0" inkscape:window-y="111" inkscape:zoom="0.66499968" pagecolor="#ffffff" showgrid="false">
    <inkscape:grid color="#0000ff" empcolor="#0000ff" empopacity="0.4" empspacing="5" enabled="true" id="GridFromPre046Settings" opacity="0.2" originx="0px" originy="0px" spacingx="20px" spacingy="20px" type="xygrid" visible="true"/>
  </sodipodi:namedview>
  <defs id="defs1574">
    <inkscape:perspective id="perspective3704" inkscape:persp3d-origin="500 : 166.66667 : 1" inkscape:vp_x="0 : 250 : 1" inkscape:vp_y="0 : 1000 : 0" inkscape:vp_z="1000 : 250 : 1" sodipodi:type="inkscape:persp3d"/>
    <linearGradient id="linearGradient570">
      <stop id="stop571" offset="0.00000000" style="stop-color:#ff0000;stop-opacity:1.0000000"/>
      <stop id="stop572" offset="1.0000000" style="stop-color:#ffff00;stop-opacity:1.0000000"/>
    </linearGradient>
    <linearGradient id="linearGradient573" x1="0.96899199" x2="0.023255819" xlink:href="#linearGradient570" y1="0.640625" y2="0.63281202"/>
    <linearGradient gradientTransform="scale(0.665002,1.503755)" gradientUnits="userSpaceOnUse" id="linearGradient574" x1="103.08268" x2="92.551147" xlink:href="#linearGradient570" y1="111.27607" y2="107.76426"/>
    <linearGradient gradientTransform="matrix(0.659766,0,0,1.491914,-3.680038,-0.673233)" gradientUnits="userSpaceOnUse" id="linearGradient2125" inkscape:collect="always" x1="103.08268" x2="92.551147" xlink:href="#linearGradient570" y1="111.27607" y2="107.76426"/>
    <linearGradient gradientTransform="matrix(0.659766,0,0,1.491914,-3.675908,-0.451017)" gradientUnits="userSpaceOnUse" id="linearGradient2127" inkscape:collect="always" x1="103.08268" x2="92.551147" xlink:href="#linearGradient570" y1="111.27607" y2="107.76426"/>
    <linearGradient gradientTransform="matrix(0.659766,0,0,1.491914,-4.456792,-0.24902)" gradientUnits="userSpaceOnUse" id="linearGradient2129" inkscape:collect="always" x1="103.08268" x2="92.551147" xlink:href="#linearGradient570" y1="111.27607" y2="107.76426"/>
    <linearGradient gradientTransform="matrix(0.659766,0,0,1.491914,-3.694081,-3.301848e-2)" gradientUnits="userSpaceOnUse" id="linearGradient2131" inkscape:collect="always" x1="103.08268" x2="92.551147" xlink:href="#linearGradient570" y1="111.27607" y2="107.76426"/>
    <linearGradient gradientTransform="matrix(0.659766,0,0,1.491914,-3.695734,0.179285)" gradientUnits="userSpaceOnUse" id="linearGradient2133" inkscape:collect="always" x1="103.08268" x2="92.551147" xlink:href="#linearGradient570" y1="111.27607" y2="107.76426"/>
    <linearGradient gradientTransform="matrix(0.659766,0,0,1.491914,-3.699763,0.39469)" gradientUnits="userSpaceOnUse" id="linearGradient2135" inkscape:collect="always" x1="103.08268" x2="92.551147" xlink:href="#linearGradient570" y1="111.27607" y2="107.76426"/>
    <linearGradient gradientTransform="matrix(0.659766,0,0,1.491914,-4.462633,0.391186)" gradientUnits="userSpaceOnUse" id="linearGradient2137" inkscape:collect="always" x1="103.08268" x2="92.551147" xlink:href="#linearGradient570" y1="111.27607" y2="107.76426"/>
    <linearGradient gradientTransform="matrix(0.659766,0,0,1.491914,-4.455623,0.17973)" gradientUnits="userSpaceOnUse" id="linearGradient2139" inkscape:collect="always" x1="103.08268" x2="92.551147" xlink:href="#linearGradient570" y1="111.27607" y2="107.76426"/>
    <linearGradient gradientTransform="matrix(0.659766,0,0,1.491914,-4.446278,-3.639848e-2)" gradientUnits="userSpaceOnUse" id="linearGradient2141" inkscape:collect="always" x1="103.08268" x2="92.551147" xlink:href="#linearGradient570" y1="111.27607" y2="107.76426"/>
    <linearGradient gradientTransform="matrix(0.823581,0,0,1.862346,700.8017,106.2668)" gradientUnits="userSpaceOnUse" id="linearGradient2143" inkscape:collect="always" x1="103.08268" x2="92.551147" xlink:href="#linearGradient570" y1="111.27607" y2="107.76426"/>
    <linearGradient gradientTransform="matrix(0.659766,0,0,1.491914,-4.454455,-0.461643)" gradientUnits="userSpaceOnUse" id="linearGradient2145" inkscape:collect="always" x1="103.08268" x2="92.551147" xlink:href="#linearGradient570" y1="111.27607" y2="107.76426"/>
    <linearGradient gradientTransform="matrix(0.659766,0,0,1.491914,-3.833409,-0.262936)" gradientUnits="userSpaceOnUse" id="linearGradient2147" inkscape:collect="always" x1="103.08268" x2="92.551147" xlink:href="#linearGradient570" y1="111.27607" y2="107.76426"/>
    <linearGradient gradientTransform="matrix(0.2125101,0,0,0.4805443,180.82911,91.4202)" gradientUnits="userSpaceOnUse" id="linearGradient2243" inkscape:collect="always" x1="103.08268" x2="92.551147" xlink:href="#linearGradient570" y1="111.27607" y2="107.76426"/>
  </defs>
  <rect height="128" id="rect877" style="font-size:12px;fill:#000066;fill-opacity:1;stroke-width:1pt" width="256" x="4.5308162e-09" y="64"/>
  <path d="M 165.60204,94.734482 L 219.02096,94.536262 L 218.92185,142.10782 C 218.92185,142.10782 220.80488,149.3427 196.52355,160.34361 C 205.245,159.45165 214.75933,150.13554 214.75933,150.13554 C 214.75933,150.13554 218.62452,145.1802 220.50758,147.95519 C 222.3906,150.73017 224.17455,152.11768 225.56206,153.20789 C 226.94956,154.29806 228.03971,157.2713 225.95846,159.45165 C 223.87722,161.632 220.60666,161.92934 219.7147,159.25343 C 218.32719,159.9472 209.80393,170.25438 192.36104,170.74989 C 174.62082,170.45256 164.90829,159.15432 164.90829,159.15432 C 164.90829,159.15432 162.52971,162.92043 159.16006,159.9472 C 155.88951,156.08198 158.3672,153.60429 158.3672,153.60429 C 158.3672,153.60429 161.1422,152.0186 161.93506,150.92839 C 163.22346,149.44177 163.61989,147.45963 165.80025,147.45963 C 168.37705,147.65785 169.36812,149.7391 169.36812,149.7391 C 169.36812,149.7391 178.28779,159.15435 187.90122,160.34361 C 166.19667,149.93732 165.40383,143.49533 165.50293,141.9096 L 165.60204,94.734482 z" id="path824" style="fill:#ffffff;fill-opacity:1;fill-rule:evenodd;stroke:none;stroke-width:1pt;stroke-linecap:butt;stroke-linejoin:miter;stroke-opacity:1"/>
  <path d="M 166.89043,96.022882 L 217.83167,95.725552 L 217.83167,141.5132 C 217.93078,147.45966 207.92094,153.50521 192.26196,161.23557 C 176.10743,152.91052 166.79132,147.85607 166.69222,141.41408 L 166.89043,96.022882 z" id="path779" style="fill:#006129;fill-opacity:1;fill-rule:evenodd;stroke:#000000;stroke-width:0.32209923pt;stroke-linecap:butt;stroke-linejoin:miter;stroke-opacity:1"/>
  <g id="g584" transform="matrix(0.3220993,0,0,0.3220993,150.53771,91.547732)">
    <path d="M 69.78628,170.5296 L 79.12167,156.8187 L 88.50256,170.5583" id="path585" style="fill:none;fill-opacity:1;fill-rule:evenodd;stroke:#f7c600;stroke-width:1pt;stroke-linecap:butt;stroke-linejoin:miter;stroke-opacity:1"/>
    <path d="M 80.922043,156.72391 C 80.922366,157.66609 80.158639,158.43005 79.216423,158.43005 C 78.274207,158.43005 77.51048,157.66609 77.510803,156.72391 C 77.51048,155.78173 78.274207,155.01777 79.216423,155.01777 C 80.158639,155.01777 80.922366,155.78173 80.922043,156.72391 z" id="path586" style="fill:#f7c600;fill-opacity:1;fill-rule:evenodd;stroke:#000000;stroke-width:0.57499999;stroke-linecap:butt;stroke-linejoin:miter;stroke-dasharray:none;stroke-opacity:1" transform="matrix(1.086991,0,0,1.087005,-6.965268,-4.956314)"/>
    <path d="M 71.54115,180.6562 L 86.01395,180.6974 C 86.01395,180.6974 86.24088,178.8191 84.50222,177.6775 C 92.08276,176.6351 90.11343,169.9486 96.4621,169.5696 C 97.69394,169.7591 93.14563,172.4123 93.14563,172.4123 C 93.14563,172.4123 89.31789,175.1135 91.06098,176.4868 C 92.44485,177.5771 93.05087,175.8236 93.24039,174.497 C 93.4299,173.1704 99.39954,172.3176 98.54675,168.5274 C 97.1254,165.4004 88.78683,170.6119 88.78683,170.6119 L 82.83775,170.5789 C 82.46682,169.9112 80.82729,167.2337 79.13412,167.2213 C 77.12537,167.2946 75.71043,170.6119 75.71043,170.6119 L 67.08759,170.6119 L 62.25501,170.6119 C 62.25501,170.6119 61.79369,174.0643 68.61617,174.7276 C 70.15221,176.7337 71.34292,177.2942 72.67823,177.8135 C 71.78802,178.5554 71.53741,179.4529 71.54115,180.6562 z" id="path587" style="fill:#f7c600;fill-opacity:1;fill-rule:evenodd;stroke:#000000;stroke-width:0.625;stroke-linecap:butt;stroke-linejoin:miter;stroke-dasharray:none;stroke-opacity:1"/>
    <path d="M 72.58347,177.7187 L 84.63811,177.6776" id="path588" style="fill:none;fill-opacity:1;fill-rule:evenodd;stroke:#000000;stroke-width:0.625;stroke-linecap:butt;stroke-linejoin:miter;stroke-dasharray:none;stroke-opacity:1"/>
    <path d="M 67.06232,170.6113 C 67.06232,170.6113 68.02671,176.2494 72.47775,177.5847" id="path589" style="fill:none;fill-opacity:1;fill-rule:evenodd;stroke:#000000;stroke-width:0.625;stroke-linecap:butt;stroke-linejoin:miter;stroke-dasharray:none;stroke-opacity:1"/>
    <path d="M 66.32047,170.5373 C 66.76557,168.386 67.5816,168.015 68.47181,165.2702 C 68.62018,162.5996 66.32047,162.8963 66.98813,161.1901 C 68.17507,159.3355 67.5816,157.5551 65.35608,156.1456 C 65.80119,158.5937 62.46291,160.8934 62.46291,162.8963 C 62.46291,164.8993 64.16914,164.4542 63.94659,167.4958 C 64.09496,169.2761 63.50149,168.8311 63.35312,170.5373 L 66.32047,170.5373 z" id="path590" style="fill:url(#linearGradient2125);fill-opacity:1;fill-rule:evenodd;stroke:#000000;stroke-width:0.625;stroke-linecap:butt;stroke-linejoin:miter;stroke-dasharray:none;stroke-opacity:1"/>
    <path d="M 80.922043,156.72391 C 80.922366,157.66609 80.158639,158.43005 79.216423,158.43005 C 78.274207,158.43005 77.51048,157.66609 77.510803,156.72391 C 77.51048,155.78173 78.274207,155.01777 79.216423,155.01777 C 80.158639,155.01777 80.922366,155.78173 80.922043,156.72391 z" id="path591" style="fill:#f7c600;fill-opacity:1;fill-rule:evenodd;stroke:#000000;stroke-width:0.625;stroke-linecap:butt;stroke-linejoin:miter;stroke-dasharray:none;stroke-opacity:1" transform="translate(-7.418633e-2,0.445068)"/>
  </g>
  <g id="g592" transform="matrix(0.3220993,0,0,0.3220993,150.36875,82.457651)">
    <path d="M 69.78628,170.5296 L 79.12167,156.8187 L 88.50256,170.5583" id="path593" style="fill:none;fill-opacity:1;fill-rule:evenodd;stroke:#f7c600;stroke-width:1pt;stroke-linecap:butt;stroke-linejoin:miter;stroke-opacity:1"/>
    <path d="M 80.922043,156.72391 C 80.922366,157.66609 80.158639,158.43005 79.216423,158.43005 C 78.274207,158.43005 77.51048,157.66609 77.510803,156.72391 C 77.51048,155.78173 78.274207,155.01777 79.216423,155.01777 C 80.158639,155.01777 80.922366,155.78173 80.922043,156.72391 z" id="path594" style="fill:#f7c600;fill-opacity:1;fill-rule:evenodd;stroke:#000000;stroke-width:0.57499999;stroke-linecap:butt;stroke-linejoin:miter;stroke-dasharray:none;stroke-opacity:1" transform="matrix(1.086991,0,0,1.087005,-6.965268,-4.956314)"/>
    <path d="M 71.54115,180.6562 L 86.01395,180.6974 C 86.01395,180.6974 86.24088,178.8191 84.50222,177.6775 C 92.08276,176.6351 90.11343,169.9486 96.4621,169.5696 C 97.69394,169.7591 93.14563,172.4123 93.14563,172.4123 C 93.14563,172.4123 89.31789,175.1135 91.06098,176.4868 C 92.44485,177.5771 93.05087,175.8236 93.24039,174.497 C 93.4299,173.1704 99.39954,172.3176 98.54675,168.5274 C 97.1254,165.4004 88.78683,170.6119 88.78683,170.6119 L 82.83775,170.5789 C 82.46682,169.9112 80.82729,167.2337 79.13412,167.2213 C 77.12537,167.2946 75.71043,170.6119 75.71043,170.6119 L 67.08759,170.6119 L 62.25501,170.6119 C 62.25501,170.6119 61.79369,174.0643 68.61617,174.7276 C 70.15221,176.7337 71.34292,177.2942 72.67823,177.8135 C 71.78802,178.5554 71.53741,179.4529 71.54115,180.6562 z" id="path595" style="fill:#f7c600;fill-opacity:1;fill-rule:evenodd;stroke:#000000;stroke-width:0.625;stroke-linecap:butt;stroke-linejoin:miter;stroke-dasharray:none;stroke-opacity:1"/>
    <path d="M 72.58347,177.7187 L 84.63811,177.6776" id="path596" style="fill:none;fill-opacity:1;fill-rule:evenodd;stroke:#000000;stroke-width:0.625;stroke-linecap:butt;stroke-linejoin:miter;stroke-dasharray:none;stroke-opacity:1"/>
    <path d="M 67.06232,170.6113 C 67.06232,170.6113 68.02671,176.2494 72.47775,177.5847" id="path597" style="fill:none;fill-opacity:1;fill-rule:evenodd;stroke:#000000;stroke-width:0.625;stroke-linecap:butt;stroke-linejoin:miter;stroke-dasharray:none;stroke-opacity:1"/>
    <path d="M 66.32047,170.5373 C 66.76557,168.386 67.5816,168.015 68.47181,165.2702 C 68.62018,162.5996 66.32047,162.8963 66.98813,161.1901 C 68.17507,159.3355 67.5816,157.5551 65.35608,156.1456 C 65.80119,158.5937 62.46291,160.8934 62.46291,162.8963 C 62.46291,164.8993 64.16914,164.4542 63.94659,167.4958 C 64.09496,169.2761 63.50149,168.8311 63.35312,170.5373 L 66.32047,170.5373 z" id="path598" style="fill:url(#linearGradient2127);fill-opacity:1;fill-rule:evenodd;stroke:#000000;stroke-width:0.625;stroke-linecap:butt;stroke-linejoin:miter;stroke-dasharray:none;stroke-opacity:1"/>
    <path d="M 80.922043,156.72391 C 80.922366,157.66609 80.158639,158.43005 79.216423,158.43005 C 78.274207,158.43005 77.51048,157.66609 77.510803,156.72391 C 77.51048,155.78173 78.274207,155.01777 79.216423,155.01777 C 80.158639,155.01777 80.922366,155.78173 80.922043,156.72391 z" id="path599" style="fill:#f7c600;fill-opacity:1;fill-rule:evenodd;stroke:#000000;stroke-width:0.625;stroke-linecap:butt;stroke-linejoin:miter;stroke-dasharray:none;stroke-opacity:1" transform="translate(-7.418633e-2,0.445068)"/>
  </g>
  <g id="g600" transform="matrix(0.3220993,0,0,0.3220993,182.31203,74.194691)">
    <path d="M 69.78628,170.5296 L 79.12167,156.8187 L 88.50256,170.5583" id="path601" style="fill:none;fill-opacity:1;fill-rule:evenodd;stroke:#f7c600;stroke-width:1pt;stroke-linecap:butt;stroke-linejoin:miter;stroke-opacity:1"/>
    <path d="M 80.922043,156.72391 C 80.922366,157.66609 80.158639,158.43005 79.216423,158.43005 C 78.274207,158.43005 77.51048,157.66609 77.510803,156.72391 C 77.51048,155.78173 78.274207,155.01777 79.216423,155.01777 C 80.158639,155.01777 80.922366,155.78173 80.922043,156.72391 z" id="path602" style="fill:#f7c600;fill-opacity:1;fill-rule:evenodd;stroke:#000000;stroke-width:0.57499999;stroke-linecap:butt;stroke-linejoin:miter;stroke-dasharray:none;stroke-opacity:1" transform="matrix(1.086991,0,0,1.087005,-6.965268,-4.956314)"/>
    <path d="M 71.54115,180.6562 L 86.01395,180.6974 C 86.01395,180.6974 86.24088,178.8191 84.50222,177.6775 C 92.08276,176.6351 90.11343,169.9486 96.4621,169.5696 C 97.69394,169.7591 93.14563,172.4123 93.14563,172.4123 C 93.14563,172.4123 89.31789,175.1135 91.06098,176.4868 C 92.44485,177.5771 93.05087,175.8236 93.24039,174.497 C 93.4299,173.1704 99.39954,172.3176 98.54675,168.5274 C 97.1254,165.4004 88.78683,170.6119 88.78683,170.6119 L 82.83775,170.5789 C 82.46682,169.9112 80.82729,167.2337 79.13412,167.2213 C 77.12537,167.2946 75.71043,170.6119 75.71043,170.6119 L 67.08759,170.6119 L 62.25501,170.6119 C 62.25501,170.6119 61.79369,174.0643 68.61617,174.7276 C 70.15221,176.7337 71.34292,177.2942 72.67823,177.8135 C 71.78802,178.5554 71.53741,179.4529 71.54115,180.6562 z" id="path603" style="fill:#f7c600;fill-opacity:1;fill-rule:evenodd;stroke:#000000;stroke-width:0.625;stroke-linecap:butt;stroke-linejoin:miter;stroke-dasharray:none;stroke-opacity:1"/>
    <path d="M 72.58347,177.7187 L 84.63811,177.6776" id="path604" style="fill:none;fill-opacity:1;fill-rule:evenodd;stroke:#000000;stroke-width:0.625;stroke-linecap:butt;stroke-linejoin:miter;stroke-dasharray:none;stroke-opacity:1"/>
    <path d="M 67.06232,170.6113 C 67.06232,170.6113 68.02671,176.2494 72.47775,177.5847" id="path605" style="fill:none;fill-opacity:1;fill-rule:evenodd;stroke:#000000;stroke-width:0.625;stroke-linecap:butt;stroke-linejoin:miter;stroke-dasharray:none;stroke-opacity:1"/>
    <path d="M 66.32047,170.5373 C 66.76557,168.386 67.5816,168.015 68.47181,165.2702 C 68.62018,162.5996 66.32047,162.8963 66.98813,161.1901 C 68.17507,159.3355 67.5816,157.5551 65.35608,156.1456 C 65.80119,158.5937 62.46291,160.8934 62.46291,162.8963 C 62.46291,164.8993 64.16914,164.4542 63.94659,167.4958 C 64.09496,169.2761 63.50149,168.8311 63.35312,170.5373 L 66.32047,170.5373 z" id="path606" style="fill:url(#linearGradient2129);fill-opacity:1;fill-rule:evenodd;stroke:#000000;stroke-width:0.625;stroke-linecap:butt;stroke-linejoin:miter;stroke-dasharray:none;stroke-opacity:1"/>
    <path d="M 80.922043,156.72391 C 80.922366,157.66609 80.158639,158.43005 79.216423,158.43005 C 78.274207,158.43005 77.51048,157.66609 77.510803,156.72391 C 77.51048,155.78173 78.274207,155.01777 79.216423,155.01777 C 80.158639,155.01777 80.922366,155.78173 80.922043,156.72391 z" id="path607" style="fill:#f7c600;fill-opacity:1;fill-rule:evenodd;stroke:#000000;stroke-width:0.625;stroke-linecap:butt;stroke-linejoin:miter;stroke-dasharray:none;stroke-opacity:1" transform="translate(-7.418633e-2,0.445068)"/>
  </g>
  <g id="g608" transform="matrix(0.3220993,0,0,0.3220993,151.11217,65.35884)">
    <path d="M 69.78628,170.5296 L 79.12167,156.8187 L 88.50256,170.5583" id="path609" style="fill:none;fill-opacity:1;fill-rule:evenodd;stroke:#f7c600;stroke-width:1pt;stroke-linecap:butt;stroke-linejoin:miter;stroke-opacity:1"/>
    <path d="M 80.922043,156.72391 C 80.922366,157.66609 80.158639,158.43005 79.216423,158.43005 C 78.274207,158.43005 77.51048,157.66609 77.510803,156.72391 C 77.51048,155.78173 78.274207,155.01777 79.216423,155.01777 C 80.158639,155.01777 80.922366,155.78173 80.922043,156.72391 z" id="path610" style="fill:#f7c600;fill-opacity:1;fill-rule:evenodd;stroke:#000000;stroke-width:0.57499999;stroke-linecap:butt;stroke-linejoin:miter;stroke-dasharray:none;stroke-opacity:1" transform="matrix(1.086991,0,0,1.087005,-6.965268,-4.956314)"/>
    <path d="M 71.54115,180.6562 L 86.01395,180.6974 C 86.01395,180.6974 86.24088,178.8191 84.50222,177.6775 C 92.08276,176.6351 90.11343,169.9486 96.4621,169.5696 C 97.69394,169.7591 93.14563,172.4123 93.14563,172.4123 C 93.14563,172.4123 89.31789,175.1135 91.06098,176.4868 C 92.44485,177.5771 93.05087,175.8236 93.24039,174.497 C 93.4299,173.1704 99.39954,172.3176 98.54675,168.5274 C 97.1254,165.4004 88.78683,170.6119 88.78683,170.6119 L 82.83775,170.5789 C 82.46682,169.9112 80.82729,167.2337 79.13412,167.2213 C 77.12537,167.2946 75.71043,170.6119 75.71043,170.6119 L 67.08759,170.6119 L 62.25501,170.6119 C 62.25501,170.6119 61.79369,174.0643 68.61617,174.7276 C 70.15221,176.7337 71.34292,177.2942 72.67823,177.8135 C 71.78802,178.5554 71.53741,179.4529 71.54115,180.6562 z" id="path611" style="fill:#f7c600;fill-opacity:1;fill-rule:evenodd;stroke:#000000;stroke-width:0.625;stroke-linecap:butt;stroke-linejoin:miter;stroke-dasharray:none;stroke-opacity:1"/>
    <path d="M 72.58347,177.7187 L 84.63811,177.6776" id="path612" style="fill:none;fill-opacity:1;fill-rule:evenodd;stroke:#000000;stroke-width:0.625;stroke-linecap:butt;stroke-linejoin:miter;stroke-dasharray:none;stroke-opacity:1"/>
    <path d="M 67.06232,170.6113 C 67.06232,170.6113 68.02671,176.2494 72.47775,177.5847" id="path613" style="fill:none;fill-opacity:1;fill-rule:evenodd;stroke:#000000;stroke-width:0.625;stroke-linecap:butt;stroke-linejoin:miter;stroke-dasharray:none;stroke-opacity:1"/>
    <path d="M 66.32047,170.5373 C 66.76557,168.386 67.5816,168.015 68.47181,165.2702 C 68.62018,162.5996 66.32047,162.8963 66.98813,161.1901 C 68.17507,159.3355 67.5816,157.5551 65.35608,156.1456 C 65.80119,158.5937 62.46291,160.8934 62.46291,162.8963 C 62.46291,164.8993 64.16914,164.4542 63.94659,167.4958 C 64.09496,169.2761 63.50149,168.8311 63.35312,170.5373 L 66.32047,170.5373 z" id="path614" style="fill:url(#linearGradient2131);fill-opacity:1;fill-rule:evenodd;stroke:#000000;stroke-width:0.625;stroke-linecap:butt;stroke-linejoin:miter;stroke-dasharray:none;stroke-opacity:1"/>
    <path d="M 80.922043,156.72391 C 80.922366,157.66609 80.158639,158.43005 79.216423,158.43005 C 78.274207,158.43005 77.51048,157.66609 77.510803,156.72391 C 77.51048,155.78173 78.274207,155.01777 79.216423,155.01777 C 80.158639,155.01777 80.922366,155.78173 80.922043,156.72391 z" id="path615" style="fill:#f7c600;fill-opacity:1;fill-rule:evenodd;stroke:#000000;stroke-width:0.625;stroke-linecap:butt;stroke-linejoin:miter;stroke-dasharray:none;stroke-opacity:1" transform="translate(-7.418633e-2,0.445068)"/>
  </g>
  <g id="g616" transform="matrix(0.3220993,0,0,0.3220993,151.17978,56.67426)">
    <path d="M 69.78628,170.5296 L 79.12167,156.8187 L 88.50256,170.5583" id="path617" style="fill:none;fill-opacity:1;fill-rule:evenodd;stroke:#f7c600;stroke-width:1pt;stroke-linecap:butt;stroke-linejoin:miter;stroke-opacity:1"/>
    <path d="M 80.922043,156.72391 C 80.922366,157.66609 80.158639,158.43005 79.216423,158.43005 C 78.274207,158.43005 77.51048,157.66609 77.510803,156.72391 C 77.51048,155.78173 78.274207,155.01777 79.216423,155.01777 C 80.158639,155.01777 80.922366,155.78173 80.922043,156.72391 z" id="path618" style="fill:#f7c600;fill-opacity:1;fill-rule:evenodd;stroke:#000000;stroke-width:0.57499999;stroke-linecap:butt;stroke-linejoin:miter;stroke-dasharray:none;stroke-opacity:1" transform="matrix(1.086991,0,0,1.087005,-6.965268,-4.956314)"/>
    <path d="M 71.54115,180.6562 L 86.01395,180.6974 C 86.01395,180.6974 86.24088,178.8191 84.50222,177.6775 C 92.08276,176.6351 90.11343,169.9486 96.4621,169.5696 C 97.69394,169.7591 93.14563,172.4123 93.14563,172.4123 C 93.14563,172.4123 89.31789,175.1135 91.06098,176.4868 C 92.44485,177.5771 93.05087,175.8236 93.24039,174.497 C 93.4299,173.1704 99.39954,172.3176 98.54675,168.5274 C 97.1254,165.4004 88.78683,170.6119 88.78683,170.6119 L 82.83775,170.5789 C 82.46682,169.9112 80.82729,167.2337 79.13412,167.2213 C 77.12537,167.2946 75.71043,170.6119 75.71043,170.6119 L 67.08759,170.6119 L 62.25501,170.6119 C 62.25501,170.6119 61.79369,174.0643 68.61617,174.7276 C 70.15221,176.7337 71.34292,177.2942 72.67823,177.8135 C 71.78802,178.5554 71.53741,179.4529 71.54115,180.6562 z" id="path619" style="fill:#f7c600;fill-opacity:1;fill-rule:evenodd;stroke:#000000;stroke-width:0.625;stroke-linecap:butt;stroke-linejoin:miter;stroke-dasharray:none;stroke-opacity:1"/>
    <path d="M 72.58347,177.7187 L 84.63811,177.6776" id="path620" style="fill:none;fill-opacity:1;fill-rule:evenodd;stroke:#000000;stroke-width:0.625;stroke-linecap:butt;stroke-linejoin:miter;stroke-dasharray:none;stroke-opacity:1"/>
    <path d="M 67.06232,170.6113 C 67.06232,170.6113 68.02671,176.2494 72.47775,177.5847" id="path621" style="fill:none;fill-opacity:1;fill-rule:evenodd;stroke:#000000;stroke-width:0.625;stroke-linecap:butt;stroke-linejoin:miter;stroke-dasharray:none;stroke-opacity:1"/>
    <path d="M 66.32047,170.5373 C 66.76557,168.386 67.5816,168.015 68.47181,165.2702 C 68.62018,162.5996 66.32047,162.8963 66.98813,161.1901 C 68.17507,159.3355 67.5816,157.5551 65.35608,156.1456 C 65.80119,158.5937 62.46291,160.8934 62.46291,162.8963 C 62.46291,164.8993 64.16914,164.4542 63.94659,167.4958 C 64.09496,169.2761 63.50149,168.8311 63.35312,170.5373 L 66.32047,170.5373 z" id="path622" style="fill:url(#linearGradient2133);fill-opacity:1;fill-rule:evenodd;stroke:#000000;stroke-width:0.625;stroke-linecap:butt;stroke-linejoin:miter;stroke-dasharray:none;stroke-opacity:1"/>
    <path d="M 80.922043,156.72391 C 80.922366,157.66609 80.158639,158.43005 79.216423,158.43005 C 78.274207,158.43005 77.51048,157.66609 77.510803,156.72391 C 77.51048,155.78173 78.274207,155.01777 79.216423,155.01777 C 80.158639,155.01777 80.922366,155.78173 80.922043,156.72391 z" id="path623" style="fill:#f7c600;fill-opacity:1;fill-rule:evenodd;stroke:#000000;stroke-width:0.625;stroke-linecap:butt;stroke-linejoin:miter;stroke-dasharray:none;stroke-opacity:1" transform="translate(-7.418633e-2,0.445068)"/>
  </g>
  <g id="g624" transform="matrix(0.3220993,0,0,0.3220993,151.34459,47.862809)">
    <path d="M 69.78628,170.5296 L 79.12167,156.8187 L 88.50256,170.5583" id="path625" style="fill:none;fill-opacity:1;fill-rule:evenodd;stroke:#f7c600;stroke-width:1pt;stroke-linecap:butt;stroke-linejoin:miter;stroke-opacity:1"/>
    <path d="M 80.922043,156.72391 C 80.922366,157.66609 80.158639,158.43005 79.216423,158.43005 C 78.274207,158.43005 77.51048,157.66609 77.510803,156.72391 C 77.51048,155.78173 78.274207,155.01777 79.216423,155.01777 C 80.158639,155.01777 80.922366,155.78173 80.922043,156.72391 z" id="path626" style="fill:#f7c600;fill-opacity:1;fill-rule:evenodd;stroke:#000000;stroke-width:0.57499999;stroke-linecap:butt;stroke-linejoin:miter;stroke-dasharray:none;stroke-opacity:1" transform="matrix(1.086991,0,0,1.087005,-6.965268,-4.956314)"/>
    <path d="M 71.54115,180.6562 L 86.01395,180.6974 C 86.01395,180.6974 86.24088,178.8191 84.50222,177.6775 C 92.08276,176.6351 90.11343,169.9486 96.4621,169.5696 C 97.69394,169.7591 93.14563,172.4123 93.14563,172.4123 C 93.14563,172.4123 89.31789,175.1135 91.06098,176.4868 C 92.44485,177.5771 93.05087,175.8236 93.24039,174.497 C 93.4299,173.1704 99.39954,172.3176 98.54675,168.5274 C 97.1254,165.4004 88.78683,170.6119 88.78683,170.6119 L 82.83775,170.5789 C 82.46682,169.9112 80.82729,167.2337 79.13412,167.2213 C 77.12537,167.2946 75.71043,170.6119 75.71043,170.6119 L 67.08759,170.6119 L 62.25501,170.6119 C 62.25501,170.6119 61.79369,174.0643 68.61617,174.7276 C 70.15221,176.7337 71.34292,177.2942 72.67823,177.8135 C 71.78802,178.5554 71.53741,179.4529 71.54115,180.6562 z" id="path627" style="fill:#f7c600;fill-opacity:1;fill-rule:evenodd;stroke:#000000;stroke-width:0.625;stroke-linecap:butt;stroke-linejoin:miter;stroke-dasharray:none;stroke-opacity:1"/>
    <path d="M 72.58347,177.7187 L 84.63811,177.6776" id="path628" style="fill:none;fill-opacity:1;fill-rule:evenodd;stroke:#000000;stroke-width:0.625;stroke-linecap:butt;stroke-linejoin:miter;stroke-dasharray:none;stroke-opacity:1"/>
    <path d="M 67.06232,170.6113 C 67.06232,170.6113 68.02671,176.2494 72.47775,177.5847" id="path629" style="fill:none;fill-opacity:1;fill-rule:evenodd;stroke:#000000;stroke-width:0.625;stroke-linecap:butt;stroke-linejoin:miter;stroke-dasharray:none;stroke-opacity:1"/>
    <path d="M 66.32047,170.5373 C 66.76557,168.386 67.5816,168.015 68.47181,165.2702 C 68.62018,162.5996 66.32047,162.8963 66.98813,161.1901 C 68.17507,159.3355 67.5816,157.5551 65.35608,156.1456 C 65.80119,158.5937 62.46291,160.8934 62.46291,162.8963 C 62.46291,164.8993 64.16914,164.4542 63.94659,167.4958 C 64.09496,169.2761 63.50149,168.8311 63.35312,170.5373 L 66.32047,170.5373 z" id="path630" style="fill:url(#linearGradient2135);fill-opacity:1;fill-rule:evenodd;stroke:#000000;stroke-width:0.625;stroke-linecap:butt;stroke-linejoin:miter;stroke-dasharray:none;stroke-opacity:1"/>
    <path d="M 80.922043,156.72391 C 80.922366,157.66609 80.158639,158.43005 79.216423,158.43005 C 78.274207,158.43005 77.51048,157.66609 77.510803,156.72391 C 77.51048,155.78173 78.274207,155.01777 79.216423,155.01777 C 80.158639,155.01777 80.922366,155.78173 80.922043,156.72391 z" id="path631" style="fill:#f7c600;fill-opacity:1;fill-rule:evenodd;stroke:#000000;stroke-width:0.625;stroke-linecap:butt;stroke-linejoin:miter;stroke-dasharray:none;stroke-opacity:1" transform="translate(-7.418633e-2,0.445068)"/>
  </g>
  <g id="g632" transform="matrix(0.3220993,0,0,0.3220993,182.55098,48.006179)">
    <path d="M 69.78628,170.5296 L 79.12167,156.8187 L 88.50256,170.5583" id="path633" style="fill:none;fill-opacity:1;fill-rule:evenodd;stroke:#f7c600;stroke-width:1pt;stroke-linecap:butt;stroke-linejoin:miter;stroke-opacity:1"/>
    <path d="M 80.922043,156.72391 C 80.922366,157.66609 80.158639,158.43005 79.216423,158.43005 C 78.274207,158.43005 77.51048,157.66609 77.510803,156.72391 C 77.51048,155.78173 78.274207,155.01777 79.216423,155.01777 C 80.158639,155.01777 80.922366,155.78173 80.922043,156.72391 z" id="path634" style="fill:#f7c600;fill-opacity:1;fill-rule:evenodd;stroke:#000000;stroke-width:0.57499999;stroke-linecap:butt;stroke-linejoin:miter;stroke-dasharray:none;stroke-opacity:1" transform="matrix(1.086991,0,0,1.087005,-6.965268,-4.956314)"/>
    <path d="M 71.54115,180.6562 L 86.01395,180.6974 C 86.01395,180.6974 86.24088,178.8191 84.50222,177.6775 C 92.08276,176.6351 90.11343,169.9486 96.4621,169.5696 C 97.69394,169.7591 93.14563,172.4123 93.14563,172.4123 C 93.14563,172.4123 89.31789,175.1135 91.06098,176.4868 C 92.44485,177.5771 93.05087,175.8236 93.24039,174.497 C 93.4299,173.1704 99.39954,172.3176 98.54675,168.5274 C 97.1254,165.4004 88.78683,170.6119 88.78683,170.6119 L 82.83775,170.5789 C 82.46682,169.9112 80.82729,167.2337 79.13412,167.2213 C 77.12537,167.2946 75.71043,170.6119 75.71043,170.6119 L 67.08759,170.6119 L 62.25501,170.6119 C 62.25501,170.6119 61.79369,174.0643 68.61617,174.7276 C 70.15221,176.7337 71.34292,177.2942 72.67823,177.8135 C 71.78802,178.5554 71.53741,179.4529 71.54115,180.6562 z" id="path635" style="fill:#f7c600;fill-opacity:1;fill-rule:evenodd;stroke:#000000;stroke-width:0.625;stroke-linecap:butt;stroke-linejoin:miter;stroke-dasharray:none;stroke-opacity:1"/>
    <path d="M 72.58347,177.7187 L 84.63811,177.6776" id="path636" style="fill:none;fill-opacity:1;fill-rule:evenodd;stroke:#000000;stroke-width:0.625;stroke-linecap:butt;stroke-linejoin:miter;stroke-dasharray:none;stroke-opacity:1"/>
    <path d="M 67.06232,170.6113 C 67.06232,170.6113 68.02671,176.2494 72.47775,177.5847" id="path637" style="fill:none;fill-opacity:1;fill-rule:evenodd;stroke:#000000;stroke-width:0.625;stroke-linecap:butt;stroke-linejoin:miter;stroke-dasharray:none;stroke-opacity:1"/>
    <path d="M 66.32047,170.5373 C 66.76557,168.386 67.5816,168.015 68.47181,165.2702 C 68.62018,162.5996 66.32047,162.8963 66.98813,161.1901 C 68.17507,159.3355 67.5816,157.5551 65.35608,156.1456 C 65.80119,158.5937 62.46291,160.8934 62.46291,162.8963 C 62.46291,164.8993 64.16914,164.4542 63.94659,167.4958 C 64.09496,169.2761 63.50149,168.8311 63.35312,170.5373 L 66.32047,170.5373 z" id="path638" style="fill:url(#linearGradient2137);fill-opacity:1;fill-rule:evenodd;stroke:#000000;stroke-width:0.625;stroke-linecap:butt;stroke-linejoin:miter;stroke-dasharray:none;stroke-opacity:1"/>
    <path d="M 80.922043,156.72391 C 80.922366,157.66609 80.158639,158.43005 79.216423,158.43005 C 78.274207,158.43005 77.51048,157.66609 77.510803,156.72391 C 77.51048,155.78173 78.274207,155.01777 79.216423,155.01777 C 80.158639,155.01777 80.922366,155.78173 80.922043,156.72391 z" id="path639" style="fill:#f7c600;fill-opacity:1;fill-rule:evenodd;stroke:#000000;stroke-width:0.625;stroke-linecap:butt;stroke-linejoin:miter;stroke-dasharray:none;stroke-opacity:1" transform="translate(-7.418633e-2,0.445068)"/>
  </g>
  <g id="g640" transform="matrix(0.3220993,0,0,0.3220993,182.26423,56.65606)">
    <path d="M 69.78628,170.5296 L 79.12167,156.8187 L 88.50256,170.5583" id="path641" style="fill:none;fill-opacity:1;fill-rule:evenodd;stroke:#f7c600;stroke-width:1pt;stroke-linecap:butt;stroke-linejoin:miter;stroke-opacity:1"/>
    <path d="M 80.922043,156.72391 C 80.922366,157.66609 80.158639,158.43005 79.216423,158.43005 C 78.274207,158.43005 77.51048,157.66609 77.510803,156.72391 C 77.51048,155.78173 78.274207,155.01777 79.216423,155.01777 C 80.158639,155.01777 80.922366,155.78173 80.922043,156.72391 z" id="path642" style="fill:#f7c600;fill-opacity:1;fill-rule:evenodd;stroke:#000000;stroke-width:0.57499999;stroke-linecap:butt;stroke-linejoin:miter;stroke-dasharray:none;stroke-opacity:1" transform="matrix(1.086991,0,0,1.087005,-6.965268,-4.956314)"/>
    <path d="M 71.54115,180.6562 L 86.01395,180.6974 C 86.01395,180.6974 86.24088,178.8191 84.50222,177.6775 C 92.08276,176.6351 90.11343,169.9486 96.4621,169.5696 C 97.69394,169.7591 93.14563,172.4123 93.14563,172.4123 C 93.14563,172.4123 89.31789,175.1135 91.06098,176.4868 C 92.44485,177.5771 93.05087,175.8236 93.24039,174.497 C 93.4299,173.1704 99.39954,172.3176 98.54675,168.5274 C 97.1254,165.4004 88.78683,170.6119 88.78683,170.6119 L 82.83775,170.5789 C 82.46682,169.9112 80.82729,167.2337 79.13412,167.2213 C 77.12537,167.2946 75.71043,170.6119 75.71043,170.6119 L 67.08759,170.6119 L 62.25501,170.6119 C 62.25501,170.6119 61.79369,174.0643 68.61617,174.7276 C 70.15221,176.7337 71.34292,177.2942 72.67823,177.8135 C 71.78802,178.5554 71.53741,179.4529 71.54115,180.6562 z" id="path643" style="fill:#f7c600;fill-opacity:1;fill-rule:evenodd;stroke:#000000;stroke-width:0.625;stroke-linecap:butt;stroke-linejoin:miter;stroke-dasharray:none;stroke-opacity:1"/>
    <path d="M 72.58347,177.7187 L 84.63811,177.6776" id="path644" style="fill:none;fill-opacity:1;fill-rule:evenodd;stroke:#000000;stroke-width:0.625;stroke-linecap:butt;stroke-linejoin:miter;stroke-dasharray:none;stroke-opacity:1"/>
    <path d="M 67.06232,170.6113 C 67.06232,170.6113 68.02671,176.2494 72.47775,177.5847" id="path645" style="fill:none;fill-opacity:1;fill-rule:evenodd;stroke:#000000;stroke-width:0.625;stroke-linecap:butt;stroke-linejoin:miter;stroke-dasharray:none;stroke-opacity:1"/>
    <path d="M 66.32047,170.5373 C 66.76557,168.386 67.5816,168.015 68.47181,165.2702 C 68.62018,162.5996 66.32047,162.8963 66.98813,161.1901 C 68.17507,159.3355 67.5816,157.5551 65.35608,156.1456 C 65.80119,158.5937 62.46291,160.8934 62.46291,162.8963 C 62.46291,164.8993 64.16914,164.4542 63.94659,167.4958 C 64.09496,169.2761 63.50149,168.8311 63.35312,170.5373 L 66.32047,170.5373 z" id="path646" style="fill:url(#linearGradient2139);fill-opacity:1;fill-rule:evenodd;stroke:#000000;stroke-width:0.625;stroke-linecap:butt;stroke-linejoin:miter;stroke-dasharray:none;stroke-opacity:1"/>
    <path d="M 80.922043,156.72391 C 80.922366,157.66609 80.158639,158.43005 79.216423,158.43005 C 78.274207,158.43005 77.51048,157.66609 77.510803,156.72391 C 77.51048,155.78173 78.274207,155.01777 79.216423,155.01777 C 80.158639,155.01777 80.922366,155.78173 80.922043,156.72391 z" id="path647" style="fill:#f7c600;fill-opacity:1;fill-rule:evenodd;stroke:#000000;stroke-width:0.625;stroke-linecap:butt;stroke-linejoin:miter;stroke-dasharray:none;stroke-opacity:1" transform="translate(-7.418633e-2,0.445068)"/>
  </g>
  <g id="g648" transform="matrix(0.3220993,0,0,0.3220993,181.88192,65.49707)">
    <path d="M 69.78628,170.5296 L 79.12167,156.8187 L 88.50256,170.5583" id="path649" style="fill:none;fill-opacity:1;fill-rule:evenodd;stroke:#f7c600;stroke-width:1pt;stroke-linecap:butt;stroke-linejoin:miter;stroke-opacity:1"/>
    <path d="M 80.922043,156.72391 C 80.922366,157.66609 80.158639,158.43005 79.216423,158.43005 C 78.274207,158.43005 77.51048,157.66609 77.510803,156.72391 C 77.51048,155.78173 78.274207,155.01777 79.216423,155.01777 C 80.158639,155.01777 80.922366,155.78173 80.922043,156.72391 z" id="path650" style="fill:#f7c600;fill-opacity:1;fill-rule:evenodd;stroke:#000000;stroke-width:0.57499999;stroke-linecap:butt;stroke-linejoin:miter;stroke-dasharray:none;stroke-opacity:1" transform="matrix(1.086991,0,0,1.087005,-6.965268,-4.956314)"/>
    <path d="M 71.54115,180.6562 L 86.01395,180.6974 C 86.01395,180.6974 86.24088,178.8191 84.50222,177.6775 C 92.08276,176.6351 90.11343,169.9486 96.4621,169.5696 C 97.69394,169.7591 93.14563,172.4123 93.14563,172.4123 C 93.14563,172.4123 89.31789,175.1135 91.06098,176.4868 C 92.44485,177.5771 93.05087,175.8236 93.24039,174.497 C 93.4299,173.1704 99.39954,172.3176 98.54675,168.5274 C 97.1254,165.4004 88.78683,170.6119 88.78683,170.6119 L 82.83775,170.5789 C 82.46682,169.9112 80.82729,167.2337 79.13412,167.2213 C 77.12537,167.2946 75.71043,170.6119 75.71043,170.6119 L 67.08759,170.6119 L 62.25501,170.6119 C 62.25501,170.6119 61.79369,174.0643 68.61617,174.7276 C 70.15221,176.7337 71.34292,177.2942 72.67823,177.8135 C 71.78802,178.5554 71.53741,179.4529 71.54115,180.6562 z" id="path651" style="fill:#f7c600;fill-opacity:1;fill-rule:evenodd;stroke:#000000;stroke-width:0.625;stroke-linecap:butt;stroke-linejoin:miter;stroke-dasharray:none;stroke-opacity:1"/>
    <path d="M 72.58347,177.7187 L 84.63811,177.6776" id="path652" style="fill:none;fill-opacity:1;fill-rule:evenodd;stroke:#000000;stroke-width:0.625;stroke-linecap:butt;stroke-linejoin:miter;stroke-dasharray:none;stroke-opacity:1"/>
    <path d="M 67.06232,170.6113 C 67.06232,170.6113 68.02671,176.2494 72.47775,177.5847" id="path653" style="fill:none;fill-opacity:1;fill-rule:evenodd;stroke:#000000;stroke-width:0.625;stroke-linecap:butt;stroke-linejoin:miter;stroke-dasharray:none;stroke-opacity:1"/>
    <path d="M 66.32047,170.5373 C 66.76557,168.386 67.5816,168.015 68.47181,165.2702 C 68.62018,162.5996 66.32047,162.8963 66.98813,161.1901 C 68.17507,159.3355 67.5816,157.5551 65.35608,156.1456 C 65.80119,158.5937 62.46291,160.8934 62.46291,162.8963 C 62.46291,164.8993 64.16914,164.4542 63.94659,167.4958 C 64.09496,169.2761 63.50149,168.8311 63.35312,170.5373 L 66.32047,170.5373 z" id="path654" style="fill:url(#linearGradient2141);fill-opacity:1;fill-rule:evenodd;stroke:#000000;stroke-width:0.625;stroke-linecap:butt;stroke-linejoin:miter;stroke-dasharray:none;stroke-opacity:1"/>
    <path d="M 80.922043,156.72391 C 80.922366,157.66609 80.158639,158.43005 79.216423,158.43005 C 78.274207,158.43005 77.51048,157.66609 77.510803,156.72391 C 77.51048,155.78173 78.274207,155.01777 79.216423,155.01777 C 80.158639,155.01777 80.922366,155.78173 80.922043,156.72391 z" id="path655" style="fill:#f7c600;fill-opacity:1;fill-rule:evenodd;stroke:#000000;stroke-width:0.625;stroke-linecap:butt;stroke-linejoin:miter;stroke-dasharray:none;stroke-opacity:1" transform="translate(-7.418633e-2,0.445068)"/>
  </g>
  <path d="M 204.74234,146.56523 L 207.74926,142.14897 L 210.77084,146.57448" id="path657" style="font-size:12px;fill:none;fill-rule:evenodd;stroke:#f7c600;stroke-width:0.32209924"/>
  <path d="M 208.35306,144.91407 C 208.35317,145.24395 208.08578,145.51143 207.75589,145.51143 C 207.426,145.51143 207.15861,145.24395 207.15872,144.91407 C 207.15861,144.58419 207.426,144.31671 207.75589,144.31671 C 208.08578,144.31671 208.35317,144.58419 208.35306,144.91407 z" id="path658" style="font-size:12px;fill:#f7c600;fill-rule:evenodd;stroke:#000000;stroke-width:0.20131969"/>
  <path d="M 205.30758,149.82701 L 209.96926,149.84028 C 209.96926,149.84028 210.04236,149.23529 209.48233,148.86758 C 211.92402,148.53182 211.2897,146.37809 213.3346,146.25602 C 213.73137,146.31706 212.26637,147.17165 212.26637,147.17165 C 212.26637,147.17165 211.03346,148.04172 211.5949,148.48405 C 212.04065,148.83524 212.23585,148.27044 212.29689,147.84313 C 212.35793,147.41583 214.28075,147.14115 214.00607,145.92033 C 213.54825,144.91312 210.8624,146.59174 210.8624,146.59174 L 208.94621,146.58111 C 208.82673,146.36605 208.29864,145.50363 207.75327,145.49963 C 207.10625,145.52324 206.6505,146.59174 206.6505,146.59174 L 203.87309,146.59174 L 202.31652,146.59174 C 202.31652,146.59174 202.16793,147.70376 204.36545,147.91742 C 204.86021,148.56358 205.24373,148.74412 205.67383,148.91138 C 205.3871,149.15035 205.30638,149.43943 205.30758,149.82701 z" id="path659" style="font-size:12px;fill:#f7c600;fill-rule:evenodd;stroke:#000000;stroke-width:0.20131202"/>
  <path d="M 205.64331,148.88085 L 209.5261,148.86761" id="path660" style="font-size:12px;fill:none;fill-rule:evenodd;stroke:#000000;stroke-width:0.20131202"/>
  <path d="M 203.86495,146.59155 C 203.86495,146.59155 204.17559,148.40759 205.60926,148.83769" id="path661" style="font-size:12px;fill:none;fill-rule:evenodd;stroke:#000000;stroke-width:0.20131202"/>
  <path d="M 203.626,146.56772 C 203.76937,145.87478 204.03222,145.75528 204.31895,144.87118 C 204.36674,144.01099 203.626,144.10655 203.84106,143.55699 C 204.22337,142.95962 204.03222,142.38616 203.31538,141.93216 C 203.45874,142.72069 202.38349,143.46142 202.38349,144.10655 C 202.38349,144.75172 202.93306,144.60835 202.86138,145.58805 C 202.90917,146.16148 202.71801,146.01815 202.67022,146.56772 L 203.626,146.56772 z" id="path662" style="font-size:12px;fill:url(#linearGradient2243);fill-rule:evenodd;stroke:#000000;stroke-width:0.20131202;stroke-dasharray:none"/>
  <path d="M 208.30527,142.26177 C 208.30537,142.56524 208.05937,142.81131 207.75589,142.81131 C 207.4524,142.81131 207.2064,142.56524 207.20651,142.26177 C 207.2064,141.95829 207.4524,141.71222 207.75589,141.71222 C 208.05937,141.71222 208.30537,141.95829 208.30527,142.26177 z" id="path663" style="font-size:12px;fill:#f7c600;fill-rule:evenodd;stroke:#000000;stroke-width:0.20131202"/>
  <g id="g664" transform="matrix(0.3220993,0,0,0.3220993,182.21644,82.892351)">
    <path d="M 69.78628,170.5296 L 79.12167,156.8187 L 88.50256,170.5583" id="path665" style="fill:none;fill-opacity:1;fill-rule:evenodd;stroke:#f7c600;stroke-width:1pt;stroke-linecap:butt;stroke-linejoin:miter;stroke-opacity:1"/>
    <path d="M 80.922043,156.72391 C 80.922366,157.66609 80.158639,158.43005 79.216423,158.43005 C 78.274207,158.43005 77.51048,157.66609 77.510803,156.72391 C 77.51048,155.78173 78.274207,155.01777 79.216423,155.01777 C 80.158639,155.01777 80.922366,155.78173 80.922043,156.72391 z" id="path666" style="fill:#f7c600;fill-opacity:1;fill-rule:evenodd;stroke:#000000;stroke-width:0.57499999;stroke-linecap:butt;stroke-linejoin:miter;stroke-dasharray:none;stroke-opacity:1" transform="matrix(1.086991,0,0,1.087005,-6.965268,-4.956314)"/>
    <path d="M 71.54115,180.6562 L 86.01395,180.6974 C 86.01395,180.6974 86.24088,178.8191 84.50222,177.6775 C 92.08276,176.6351 90.11343,169.9486 96.4621,169.5696 C 97.69394,169.7591 93.14563,172.4123 93.14563,172.4123 C 93.14563,172.4123 89.31789,175.1135 91.06098,176.4868 C 92.44485,177.5771 93.05087,175.8236 93.24039,174.497 C 93.4299,173.1704 99.39954,172.3176 98.54675,168.5274 C 97.1254,165.4004 88.78683,170.6119 88.78683,170.6119 L 82.83775,170.5789 C 82.46682,169.9112 80.82729,167.2337 79.13412,167.2213 C 77.12537,167.2946 75.71043,170.6119 75.71043,170.6119 L 67.08759,170.6119 L 62.25501,170.6119 C 62.25501,170.6119 61.79369,174.0643 68.61617,174.7276 C 70.15221,176.7337 71.34292,177.2942 72.67823,177.8135 C 71.78802,178.5554 71.53741,179.4529 71.54115,180.6562 z" id="path667" style="fill:#f7c600;fill-opacity:1;fill-rule:evenodd;stroke:#000000;stroke-width:0.625;stroke-linecap:butt;stroke-linejoin:miter;stroke-dasharray:none;stroke-opacity:1"/>
    <path d="M 72.58347,177.7187 L 84.63811,177.6776" id="path668" style="fill:none;fill-opacity:1;fill-rule:evenodd;stroke:#000000;stroke-width:0.625;stroke-linecap:butt;stroke-linejoin:miter;stroke-dasharray:none;stroke-opacity:1"/>
    <path d="M 67.06232,170.6113 C 67.06232,170.6113 68.02671,176.2494 72.47775,177.5847" id="path669" style="fill:none;fill-opacity:1;fill-rule:evenodd;stroke:#000000;stroke-width:0.625;stroke-linecap:butt;stroke-linejoin:miter;stroke-dasharray:none;stroke-opacity:1"/>
    <path d="M 66.32047,170.5373 C 66.76557,168.386 67.5816,168.015 68.47181,165.2702 C 68.62018,162.5996 66.32047,162.8963 66.98813,161.1901 C 68.17507,159.3355 67.5816,157.5551 65.35608,156.1456 C 65.80119,158.5937 62.46291,160.8934 62.46291,162.8963 C 62.46291,164.8993 64.16914,164.4542 63.94659,167.4958 C 64.09496,169.2761 63.50149,168.8311 63.35312,170.5373 L 66.32047,170.5373 z" id="path670" style="fill:url(#linearGradient2145);fill-opacity:1;fill-rule:evenodd;stroke:#000000;stroke-width:0.625;stroke-linecap:butt;stroke-linejoin:miter;stroke-dasharray:none;stroke-opacity:1"/>
    <path d="M 80.922043,156.72391 C 80.922366,157.66609 80.158639,158.43005 79.216423,158.43005 C 78.274207,158.43005 77.51048,157.66609 77.510803,156.72391 C 77.51048,155.78173 78.274207,155.01777 79.216423,155.01777 C 80.158639,155.01777 80.922366,155.78173 80.922043,156.72391 z" id="path671" style="fill:#f7c600;fill-opacity:1;fill-rule:evenodd;stroke:#000000;stroke-width:0.625;stroke-linecap:butt;stroke-linejoin:miter;stroke-dasharray:none;stroke-opacity:1" transform="translate(-7.418633e-2,0.445068)"/>
  </g>
  <g id="g576" transform="matrix(0.3220993,0,0,0.3220993,156.8116,74.763961)">
    <path d="M 69.78628,170.5296 L 79.12167,156.8187 L 88.50256,170.5583" id="path563" style="fill:none;fill-opacity:1;fill-rule:evenodd;stroke:#f7c600;stroke-width:1pt;stroke-linecap:butt;stroke-linejoin:miter;stroke-opacity:1"/>
    <path d="M 80.922043,156.72391 C 80.922366,157.66609 80.158639,158.43005 79.216423,158.43005 C 78.274207,158.43005 77.51048,157.66609 77.510803,156.72391 C 77.51048,155.78173 78.274207,155.01777 79.216423,155.01777 C 80.158639,155.01777 80.922366,155.78173 80.922043,156.72391 z" id="path564" style="fill:#f7c600;fill-opacity:1;fill-rule:evenodd;stroke:#000000;stroke-width:0.57499999;stroke-linecap:butt;stroke-linejoin:miter;stroke-dasharray:none;stroke-opacity:1" transform="matrix(1.086991,0,0,1.087005,-6.965268,-4.956314)"/>
    <path d="M 71.54115,180.6562 L 86.01395,180.6974 C 86.01395,180.6974 86.24088,178.8191 84.50222,177.6775 C 92.08276,176.6351 90.11343,169.9486 96.4621,169.5696 C 97.69394,169.7591 93.14563,172.4123 93.14563,172.4123 C 93.14563,172.4123 89.31789,175.1135 91.06098,176.4868 C 92.44485,177.5771 93.05087,175.8236 93.24039,174.497 C 93.4299,173.1704 99.39954,172.3176 98.54675,168.5274 C 97.1254,165.4004 88.78683,170.6119 88.78683,170.6119 L 82.83775,170.5789 C 82.46682,169.9112 80.82729,167.2337 79.13412,167.2213 C 77.12537,167.2946 75.71043,170.6119 75.71043,170.6119 L 67.08759,170.6119 L 62.25501,170.6119 C 62.25501,170.6119 61.79369,174.0643 68.61617,174.7276 C 70.15221,176.7337 71.34292,177.2942 72.67823,177.8135 C 71.78802,178.5554 71.53741,179.4529 71.54115,180.6562 z" id="path565" style="fill:#f7c600;fill-opacity:1;fill-rule:evenodd;stroke:#000000;stroke-width:0.625;stroke-linecap:butt;stroke-linejoin:miter;stroke-dasharray:none;stroke-opacity:1"/>
    <path d="M 72.58347,177.7187 L 84.63811,177.6776" id="path566" style="fill:none;fill-opacity:1;fill-rule:evenodd;stroke:#000000;stroke-width:0.625;stroke-linecap:butt;stroke-linejoin:miter;stroke-dasharray:none;stroke-opacity:1"/>
    <path d="M 67.06232,170.6113 C 67.06232,170.6113 68.02671,176.2494 72.47775,177.5847" id="path568" style="fill:none;fill-opacity:1;fill-rule:evenodd;stroke:#000000;stroke-width:0.625;stroke-linecap:butt;stroke-linejoin:miter;stroke-dasharray:none;stroke-opacity:1"/>
    <path d="M 66.32047,170.5373 C 66.76557,168.386 67.5816,168.015 68.47181,165.2702 C 68.62018,162.5996 66.32047,162.8963 66.98813,161.1901 C 68.17507,159.3355 67.5816,157.5551 65.35608,156.1456 C 65.80119,158.5937 62.46291,160.8934 62.46291,162.8963 C 62.46291,164.8993 64.16914,164.4542 63.94659,167.4958 C 64.09496,169.2761 63.50149,168.8311 63.35312,170.5373 L 66.32047,170.5373 z" id="path569" style="fill:url(#linearGradient2147);fill-opacity:1;fill-rule:evenodd;stroke:#000000;stroke-width:0.625;stroke-linecap:butt;stroke-linejoin:miter;stroke-dasharray:none;stroke-opacity:1"/>
    <path d="M 80.922043,156.72391 C 80.922366,157.66609 80.158639,158.43005 79.216423,158.43005 C 78.274207,158.43005 77.51048,157.66609 77.510803,156.72391 C 77.51048,155.78173 78.274207,155.01777 79.216423,155.01777 C 80.158639,155.01777 80.922366,155.78173 80.922043,156.72391 z" id="path575" style="fill:#f7c600;fill-opacity:1;fill-rule:evenodd;stroke:#000000;stroke-width:0.625;stroke-linecap:butt;stroke-linejoin:miter;stroke-dasharray:none;stroke-opacity:1" transform="translate(-7.418633e-2,0.445068)"/>
  </g>
  <g id="g729" transform="matrix(0.3220993,0,0,0.3220993,150.53771,91.446352)">
    <path d="M 139.2183,183.9001 C 139.2183,183.9001 142.9951,192.6078 147.2965,187.2573 C 151.5979,181.9068 150.0243,179.5987 150.0243,179.5987 L 140.3723,174.3531 L 137.5397,180.3331 L 139.2183,183.9001 z" id="path718" style="fill:#f7c600;fill-opacity:1;fill-rule:evenodd;stroke:#000000;stroke-width:0.625;stroke-linecap:butt;stroke-linejoin:miter;stroke-dasharray:none;stroke-opacity:1"/>
    <path d="M 147.5064,182.746 C 147.5064,182.746 148.1358,182.851 148.6604,181.9068 C 149.185,180.9626 147.5064,180.5428 146.772,179.4937 L 145.9327,181.1724 L 147.5064,182.746 z" id="path678" style="fill:#ffc6b5;fill-opacity:1;fill-rule:evenodd;stroke:#000000;stroke-width:0.625;stroke-linecap:butt;stroke-linejoin:miter;stroke-dasharray:none;stroke-opacity:1"/>
    <path d="M 125.6847,180.438 L 117.1868,185.0541 C 117.1868,185.0541 112.9903,185.8933 112.6756,185.0541 C 112.3608,184.2148 112.7805,183.4804 114.9836,183.3755 C 117.1868,183.2706 123.1668,177.8151 123.1668,177.8151 L 125.6847,180.438 z" id="path675" style="fill:#ffc6b5;fill-opacity:1;fill-rule:evenodd;stroke:#000000;stroke-width:0.625;stroke-linecap:butt;stroke-linejoin:miter;stroke-dasharray:none;stroke-opacity:1"/>
    <path d="M 125.7896,29.4695 C 125.7896,29.4695 125.9994,31.46283 126.1043,32.51195 C 126.2092,33.56107 124.4257,35.76421 124.3208,35.6593 C 124.2159,35.5544 123.3766,35.76421 123.4815,36.39371 C 123.5864,37.02321 124.8454,37.23302 124.8454,37.23302 C 124.8454,37.23302 124.3208,39.43616 124.8454,39.54106 C 125.3699,39.64597 123.4815,42.37378 124.8454,43.10811 C 126.2092,43.84244 128.5173,44.78665 129.5664,44.57684 C 130.6155,44.36703 129.5664,48.66841 129.5664,48.66841 L 126.6289,54.96312 L 142.7853,53.28458 L 139.4281,47.93401 C 139.4281,47.93401 137.8545,46.88489 138.2741,43.84244 C 138.6938,40.79999 138.0643,27.05655 138.0643,27.05655 L 126.524,25.48283 L 125.7896,29.4695 z" id="path674" style="fill:#ffc6b5;fill-opacity:1;fill-rule:evenodd;stroke:#000000;stroke-width:0.625;stroke-linecap:butt;stroke-linejoin:miter;stroke-dasharray:none;stroke-opacity:1"/>
    <path d="M 122.852,53.38951 C 122.852,53.38951 117.6064,55.80254 117.8162,62.30705 C 116.4524,68.60176 115.718,74.89647 115.718,74.89647 C 115.718,74.89647 109.5282,81.92551 107.6398,84.44344 C 105.7514,86.96136 102.9187,92.10197 101.8696,93.46588 C 100.8205,94.82979 96.72894,99.34105 96.83384,101.0196 C 96.93875,102.6981 95.88963,110.147 99.98119,110.9862 C 101.0303,111.4058 104.3875,102.3834 104.3875,102.3834 C 104.3875,102.3834 104.5973,98.50174 103.4433,97.76733 C 102.2893,97.03293 105.9612,94.515 105.9612,94.515 C 105.9612,94.515 112.9903,89.37431 114.564,88.11539 C 116.1377,86.85646 120.4391,82.03049 120.4391,82.03049 L 122.852,53.38951 z" id="path672" style="fill:#ffc6b5;fill-opacity:1;fill-rule:evenodd;stroke:#000000;stroke-width:0.625;stroke-linecap:butt;stroke-linejoin:miter;stroke-dasharray:none;stroke-opacity:1"/>
    <path d="M 128.832,48.45863 C 128.832,48.45863 130.1959,52.13058 133.2383,51.50108 C 136.2808,50.87158 139.8478,48.03902 139.8478,48.03902 C 139.8478,48.03902 142.6804,47.93411 143.1001,48.35373 C 143.5197,48.77335 150.7586,55.80238 150.5488,58.0056 C 150.339,60.20882 147.1916,59.57924 146.0376,61.04805 C 144.8836,62.51686 142.9951,66.18874 143.5197,68.91647 C 144.0443,71.64421 145.6179,75.21126 145.4081,76.57509 C 145.1983,77.93892 144.0443,78.35854 144.0443,79.09294 C 144.0443,79.82735 144.9885,81.08635 144.9885,82.45018 C 144.9885,83.81401 143.7295,85.80727 143.9394,87.17117 C 144.1492,88.53508 144.2541,92.52167 144.2541,92.52167 L 143.9394,110.9862 C 143.9394,110.9862 144.9885,111.6156 145.0934,112.6648 C 145.1983,113.7139 152.2274,144.2433 152.2274,144.2433 C 152.2274,144.2433 151.9127,145.1875 151.1783,145.0826 C 150.4439,144.9777 154.0109,149.8036 154.1158,151.1675 C 154.2207,152.5314 157.7878,163.2325 157.6828,164.7012 C 157.5779,166.1699 157.0534,169.4222 156.7386,169.5271 C 156.4239,169.632 159.0467,176.2415 158.627,177.2906 C 158.2074,178.3397 153.906,178.2348 153.906,178.2348 L 152.752,178.025 C 152.752,178.025 152.8569,179.3889 152.0176,179.4938 C 151.1783,179.5987 144.9885,179.179 144.9885,179.179 C 144.9885,179.179 143.205,181.9067 142.1559,181.8018 C 141.1067,181.6969 139.7429,179.8085 139.4281,180.1233 C 139.1134,180.438 140.3724,182.2214 140.0576,182.746 C 139.7429,183.2706 134.3924,184.4247 133.3432,181.9068 C 132.2941,179.3889 133.9727,180.0183 133.658,179.4938 C 133.3432,178.9692 130.9303,177.6054 130.1959,178.025 C 129.4615,178.4446 132.0843,179.0741 131.9794,180.1233 C 131.8745,181.1724 129.6713,182.746 128.832,182.746 C 127.9927,182.746 125.9994,178.8643 123.0619,179.284 C 120.1243,179.7036 118.2359,180.438 118.2359,180.438 C 118.2359,180.438 114.7738,181.9067 113.305,181.592 C 111.8363,181.2773 111.2068,180.1232 111.2068,179.4938 C 111.2068,178.8643 112.2559,176.1366 112.151,175.2973 C 112.0461,174.458 111.2068,173.6187 111.2068,172.3597 C 111.2068,171.1008 113.6198,166.7994 113.6198,166.7994 L 113.5149,147.4956 C 113.5149,147.4956 111.3117,147.4955 111.2068,146.1317 C 111.1019,144.7679 114.564,115.6023 115.0885,113.7139 C 115.6131,111.8255 116.977,105.1111 116.977,105.1111 C 116.977,105.1111 115.4033,105.8455 115.2984,105.1111 C 115.1935,104.3767 120.0194,87.69577 120.0194,87.69577 C 120.0194,87.69577 120.8587,79.40765 120.8587,77.20451 C 120.8587,75.00137 120.4391,71.95892 120.4391,71.95892 C 120.4391,71.95892 116.1319,70.13557 116.0327,67.34283 C 115.6388,62.89948 120.1243,60.41855 120.6489,58.94981 C 121.1734,57.48108 122.7471,53.0748 122.7471,53.0748 C 122.7471,53.0748 125.0552,49.08813 128.832,48.45863 z" id="path679" style="fill:#ffffff;fill-opacity:1;fill-rule:evenodd;stroke:#000000;stroke-width:0.625;stroke-linecap:butt;stroke-linejoin:miter;stroke-dasharray:none;stroke-opacity:1"/>
    <path d="M 127.2583,181.6969 C 127.2583,181.6969 117.0819,187.0475 115.6131,187.4671 C 114.1443,187.8867 113.2001,185.6836 114.6689,185.2639 C 116.1377,184.8443 118.4457,184.6344 118.4457,184.6344 C 118.4457,184.6344 114.9836,181.9067 115.0885,181.8018 C 115.1935,181.6969 119.8096,180.0184 119.9145,180.0184 C 120.0194,180.0184 121.3833,182.746 122.3275,182.5362 C 123.2717,182.3264 125.9994,180.2282 125.9994,180.2282 C 125.9994,180.2282 127.4682,181.9068 127.2583,181.6969 z" id="path717" style="fill:#f7c600;fill-opacity:1;fill-rule:evenodd;stroke:#000000;stroke-width:0.625;stroke-linecap:butt;stroke-linejoin:miter;stroke-dasharray:none;stroke-opacity:1"/>
    <path d="M 141.5953,184.6344 C 142.5575,185.8753 142.9337,188.0276 145.1369,186.7687 C 147.34,185.5098 144.0083,183.1731 144.0083,183.1731 L 141.5953,184.6344 z" id="path676" style="fill:#ffc6b5;fill-opacity:1;fill-rule:evenodd;stroke:#000000;stroke-width:0.625;stroke-linecap:butt;stroke-linejoin:miter;stroke-dasharray:none;stroke-opacity:1"/>
    <path d="M 145.618,184.4246 C 145.618,184.4246 146.6671,185.2639 147.6113,184.3197 C 148.5555,183.3755 145.7228,181.3822 145.7228,181.3822 L 144.359,182.9559 L 145.618,184.4246 z" id="path677" style="fill:#ffc6b5;fill-opacity:1;fill-rule:evenodd;stroke:#000000;stroke-width:0.625;stroke-linecap:butt;stroke-linejoin:miter;stroke-dasharray:none;stroke-opacity:1"/>
    <path d="M 142.4706,52.55017 C 142.4706,52.55017 133.1334,58.53017 133.3432,60.6284" id="path680" style="fill:none;fill-opacity:1;fill-rule:evenodd;stroke:#000000;stroke-width:0.625;stroke-linecap:butt;stroke-linejoin:miter;stroke-dasharray:none;stroke-opacity:1"/>
    <path d="M 144.5688,53.59929 C 144.5688,53.59929 142.4706,55.90733 142.3657,55.90733" id="path681" style="fill:none;fill-opacity:1;fill-rule:evenodd;stroke:#000000;stroke-width:0.625;stroke-linecap:butt;stroke-linejoin:miter;stroke-dasharray:none;stroke-opacity:1"/>
    <path d="M 147.4015,56.11722 C 147.4015,56.11722 142.7853,59.89407 143.5197,62.30702" id="path682" style="fill:none;fill-opacity:1;fill-rule:evenodd;stroke:#000000;stroke-width:0.625;stroke-linecap:butt;stroke-linejoin:miter;stroke-dasharray:none;stroke-opacity:1"/>
    <path d="M 125.5797,52.02565 C 125.5797,52.02565 124.2159,54.85822 124.5306,55.80243 C 124.8454,56.74664 127.1534,60.31369 127.4682,62.51683 C 127.7829,64.71997 127.4682,66.29369 127.4682,66.29369" id="path683" style="fill:none;fill-opacity:1;fill-rule:evenodd;stroke:#000000;stroke-width:0.625;stroke-linecap:butt;stroke-linejoin:miter;stroke-dasharray:none;stroke-opacity:1"/>
    <path d="M 123.1668,57.27124 C 123.1668,57.27124 123.5864,60.62848 124.2159,61.2579 C 124.8454,61.88733 126.524,64.71997 126.7338,65.87399" id="path684" style="fill:none;fill-opacity:1;fill-rule:evenodd;stroke:#000000;stroke-width:0.625;stroke-linecap:butt;stroke-linejoin:miter;stroke-dasharray:none;stroke-opacity:1"/>
    <path d="M 122.3275,71.22449 C 122.3275,71.22449 125.0552,72.58847 127.5731,67.3428" id="path685" style="fill:none;fill-opacity:1;fill-rule:evenodd;stroke:#000000;stroke-width:0.625;stroke-linecap:butt;stroke-linejoin:miter;stroke-dasharray:none;stroke-opacity:1"/>
    <path d="M 131.6646,63.67085 C 131.5597,63.67085 129.6713,68.81154 133.0285,70.69997 C 136.3857,72.58839 138.9036,72.37851 140.3723,71.85399 C 141.8411,71.32947 143.4148,70.38525 143.4148,70.38525" id="path686" style="fill:none;fill-opacity:1;fill-rule:evenodd;stroke:#000000;stroke-width:0.625;stroke-linecap:butt;stroke-linejoin:miter;stroke-dasharray:none;stroke-opacity:1"/>
    <path d="M 130.1959,69.96556 C 130.1959,69.96556 130.4057,76.88985 140.5822,83.70908" id="path687" style="fill:none;fill-opacity:1;fill-rule:evenodd;stroke:#000000;stroke-width:0.625;stroke-linecap:butt;stroke-linejoin:miter;stroke-dasharray:none;stroke-opacity:1"/>
    <path d="M 130.6155,76.47015 C 130.6155,76.47015 130.5106,82.55498 134.4973,85.28271" id="path688" style="fill:none;fill-opacity:1;fill-rule:evenodd;stroke:#000000;stroke-width:0.625;stroke-linecap:butt;stroke-linejoin:miter;stroke-dasharray:none;stroke-opacity:1"/>
    <path d="M 128.5173,69.33614 C 128.5173,69.33614 125.4748,78.35851 123.0619,79.30272" id="path689" style="fill:none;fill-opacity:1;fill-rule:evenodd;stroke:#000000;stroke-width:0.625;stroke-linecap:butt;stroke-linejoin:miter;stroke-dasharray:none;stroke-opacity:1"/>
    <path d="M 127.5731,75.94556 C 127.5731,75.94556 127.4682,82.45015 126.6289,84.75819" id="path690" style="fill:none;fill-opacity:1;fill-rule:evenodd;stroke:#000000;stroke-width:0.625;stroke-linecap:butt;stroke-linejoin:miter;stroke-dasharray:none;stroke-opacity:1"/>
    <path d="M 125.7896,86.33183 C 125.7896,86.33183 127.8878,88.95467 130.1959,88.74486 C 132.5039,88.53505 133.4481,85.80724 135.0218,86.22693 C 136.5955,86.64662 138.0643,87.90562 141.7362,87.59084" id="path691" style="fill:none;fill-opacity:1;fill-rule:evenodd;stroke:#000000;stroke-width:0.625;stroke-linecap:butt;stroke-linejoin:miter;stroke-dasharray:none;stroke-opacity:1"/>
    <path d="M 136.4906,90.3185 C 136.4906,90.3185 136.4906,95.66899 137.4348,96.19359 C 138.379,96.71819 137.9594,101.649 137.9594,101.649" id="path692" style="fill:none;fill-opacity:1;fill-rule:evenodd;stroke:#000000;stroke-width:0.625;stroke-linecap:butt;stroke-linejoin:miter;stroke-dasharray:none;stroke-opacity:1"/>
    <path d="M 123.6913,87.80064 C 123.6913,87.80064 123.5864,92.8365 122.9569,94.61995 C 122.3275,96.4034 121.0685,99.44592 121.2784,102.0687" id="path693" style="fill:none;fill-opacity:1;fill-rule:evenodd;stroke:#000000;stroke-width:0.625;stroke-linecap:butt;stroke-linejoin:miter;stroke-dasharray:none;stroke-opacity:1"/>
    <path d="M 117.2917,105.0061 C 117.8162,104.7963 119.5998,103.2227 119.5998,103.2227" id="path694" style="fill:none;fill-opacity:1;fill-rule:evenodd;stroke:#000000;stroke-width:0.625;stroke-linecap:butt;stroke-linejoin:miter;stroke-dasharray:none;stroke-opacity:1"/>
    <path d="M 120.544,104.3767 C 120.544,104.3767 116.0327,123.6806 117.2917,135.2209" id="path695" style="fill:none;fill-opacity:1;fill-rule:evenodd;stroke:#000000;stroke-width:0.625;stroke-linecap:butt;stroke-linejoin:miter;stroke-dasharray:none;stroke-opacity:1"/>
    <path d="M 121.5931,105.3209 C 121.5931,105.3209 119.285,119.7988 120.3341,122.5265" id="path696" style="fill:none;fill-opacity:1;fill-rule:evenodd;stroke:#000000;stroke-width:0.625;stroke-linecap:butt;stroke-linejoin:miter;stroke-dasharray:none;stroke-opacity:1"/>
    <path d="M 120.4391,104.9013 C 120.544,104.9013 129.2517,105.5307 129.2517,105.5307" id="path697" style="fill:none;fill-opacity:1;fill-rule:evenodd;stroke:#000000;stroke-width:0.625;stroke-linecap:butt;stroke-linejoin:miter;stroke-dasharray:none;stroke-opacity:1"/>
    <path d="M 130.5106,104.3767 C 130.5106,104.3767 132.9236,105.6357 136.2808,105.4258" id="path698" style="fill:none;fill-opacity:1;fill-rule:evenodd;stroke:#000000;stroke-width:0.625;stroke-linecap:butt;stroke-linejoin:miter;stroke-dasharray:none;stroke-opacity:1"/>
    <path d="M 129.4615,111.4058 C 129.4615,111.4058 129.0418,136.1651 128.4124,141.6205" id="path699" style="fill:none;fill-opacity:1;fill-rule:evenodd;stroke:#000000;stroke-width:0.625;stroke-linecap:butt;stroke-linejoin:miter;stroke-dasharray:none;stroke-opacity:1"/>
    <path d="M 142.3657,117.0711 C 142.3657,117.0711 145.0934,138.7879 146.6671,140.7812" id="path700" style="fill:none;fill-opacity:1;fill-rule:evenodd;stroke:#000000;stroke-width:0.625;stroke-linecap:butt;stroke-linejoin:miter;stroke-dasharray:none;stroke-opacity:1"/>
    <path d="M 137.1201,119.7988 C 137.1201,119.7988 138.7987,138.9977 139.7429,140.6763" id="path701" style="fill:none;fill-opacity:1;fill-rule:evenodd;stroke:#000000;stroke-width:0.625;stroke-linecap:butt;stroke-linejoin:miter;stroke-dasharray:none;stroke-opacity:1"/>
    <path d="M 113.3051,147.3907 C 113.3051,147.3907 116.5573,146.3415 119.4948,143.1942 C 122.8521,147.7054 127.9927,143.4041 127.9927,143.4041 C 127.9927,143.4041 135.966,148.8595 139.5331,142.7746 C 144.9885,146.3416 147.7162,142.25 147.7162,142.25 C 147.7162,142.25 149.7096,145.2924 151.1783,144.9777" id="path702" style="fill:none;fill-opacity:1;fill-rule:evenodd;stroke:#000000;stroke-width:0.625;stroke-linecap:butt;stroke-linejoin:miter;stroke-dasharray:none;stroke-opacity:1"/>
    <path d="M 142.4706,147.0759 C 142.4706,147.0759 146.5622,166.2749 152.6471,171.7303" id="path703" style="fill:none;fill-opacity:1;fill-rule:evenodd;stroke:#000000;stroke-width:0.625;stroke-linecap:butt;stroke-linejoin:miter;stroke-dasharray:none;stroke-opacity:1"/>
    <path d="M 121.3833,145.0826 C 121.3833,145.0826 121.9078,161.1342 122.852,172.4646" id="path704" style="fill:none;fill-opacity:1;fill-rule:evenodd;stroke:#000000;stroke-width:0.625;stroke-linecap:butt;stroke-linejoin:miter;stroke-dasharray:none;stroke-opacity:1"/>
    <path d="M 120.6489,163.2324 C 120.6489,163.2324 120.1243,173.7236 119.4948,174.458" id="path705" style="fill:none;fill-opacity:1;fill-rule:evenodd;stroke:#000000;stroke-width:0.625;stroke-linecap:butt;stroke-linejoin:miter;stroke-dasharray:none;stroke-opacity:1"/>
    <path d="M 114.4591,175.5071 C 114.4591,175.5071 115.6131,180.0184 121.3833,175.8219 C 127.1534,171.6253 127.2583,177.3956 127.4682,178.025 C 127.678,178.6544 128.6222,183.1657 130.8253,179.3889" id="path707" style="fill:none;fill-opacity:1;fill-rule:evenodd;stroke:#000000;stroke-width:0.625;stroke-linecap:butt;stroke-linejoin:miter;stroke-dasharray:none;stroke-opacity:1"/>
    <path d="M 135.4415,173.1991 C 135.4415,173.1991 134.4973,182.5361 142.7853,175.7169 C 151.0734,168.8977 152.4372,175.6121 152.647,177.7103" id="path708" style="fill:none;fill-opacity:1;fill-rule:evenodd;stroke:#000000;stroke-width:0.625;stroke-linecap:butt;stroke-linejoin:miter;stroke-dasharray:none;stroke-opacity:1"/>
    <path d="M 125.4748,28.8401 C 125.4748,28.8401 127.7829,29.15474 129.0418,28.42041 C 130.3008,27.68608 131.7696,27.37137 132.8187,28.8401 C 133.8678,30.30884 134.6022,30.20393 134.6022,30.20393 C 134.6022,30.20393 133.0285,34.08562 134.6022,34.50531 C 136.1759,34.925 136.9102,34.92493 137.0152,35.44952 C 137.1201,35.97412 135.6513,37.12807 136.0709,37.65266 C 136.4906,38.17726 137.225,38.80676 137.3299,39.22638 C 137.4348,39.646 136.3857,41.42944 136.7004,41.84914 C 137.0152,42.26883 137.9594,43.94745 138.5888,43.94745 C 139.2183,43.94745 138.7987,46.57028 140.6871,45.94078 C 142.5755,45.31128 142.4706,43.63266 142.4706,43.63266 C 142.4706,43.63266 144.4639,43.31795 144.9885,41.53442 C 145.513,39.7509 146.772,39.33128 146.772,39.33128 C 146.772,39.33128 149.2899,37.96745 145.9327,35.86922 C 145.9327,21.18149 136.2808,22.7552 136.2808,22.7552 C 136.2808,22.7552 135.1267,20.13229 133.2383,20.44708 C 131.3499,20.76187 131.245,22.96509 129.8811,22.7552 C 128.5173,22.54532 128.2026,21.60118 128.0976,21.70609 C 127.9927,21.81099 126.8387,23.90915 126.8387,24.43375 C 126.8387,24.95834 123.1668,23.69934 123.4815,26.42708 C 123.7962,29.15482 125.5797,29.04991 125.4748,28.8401 z" id="path709" style="fill:#9c5100;fill-opacity:1;fill-rule:evenodd;stroke:#000000;stroke-width:0.625;stroke-linecap:butt;stroke-linejoin:miter;stroke-dasharray:none;stroke-opacity:1"/>
    <path d="M 135.5464,25.27306 C 135.5464,25.27306 134.812,29.88914 139.7429,29.46953 C 139.1134,31.98746 141.0018,32.82677 141.0018,32.82677" id="path710" style="fill:none;fill-opacity:1;fill-rule:evenodd;stroke:#000000;stroke-width:0.625;stroke-linecap:butt;stroke-linejoin:miter;stroke-dasharray:none;stroke-opacity:1"/>
    <path d="M 144.6737,35.6593 C 144.7787,35.6593 146.8769,37.02313 144.5688,38.70175" id="path711" style="fill:none;fill-opacity:1;fill-rule:evenodd;stroke:#000000;stroke-width:0.625;stroke-linecap:butt;stroke-linejoin:miter;stroke-dasharray:none;stroke-opacity:1"/>
    <path d="M 137.5398,39.33121 C 137.5398,39.33121 138.5888,40.59021 139.7429,40.2755 C 140.8969,39.96078 142.7853,41.42952 142.7853,41.42952 C 142.7853,41.42952 144.359,41.95404 144.5688,41.63933" id="path712" style="fill:none;fill-opacity:1;fill-rule:evenodd;stroke:#000000;stroke-width:0.625;stroke-linecap:butt;stroke-linejoin:miter;stroke-dasharray:none;stroke-opacity:1"/>
    <path d="M 131.1401,43.31792 C 131.1401,43.31792 134.7071,44.68182 137.0152,39.01654" id="path713" style="fill:none;fill-opacity:1;fill-rule:evenodd;stroke:#000000;stroke-width:0.625;stroke-linecap:butt;stroke-linejoin:miter;stroke-dasharray:none;stroke-opacity:1"/>
    <path d="M 124.5306,37.33792 L 126.6289,37.44283" id="path714" style="fill:none;fill-opacity:1;fill-rule:evenodd;stroke:#000000;stroke-width:0.625;stroke-linecap:butt;stroke-linejoin:miter;stroke-dasharray:none;stroke-opacity:1"/>
    <path d="M 124.8454,39.43616 L 126.7338,39.43616 L 125.0552,40.17056" id="path715" style="fill:none;fill-opacity:1;fill-rule:evenodd;stroke:#000000;stroke-width:0.625;stroke-linecap:butt;stroke-linejoin:round;stroke-dasharray:none;stroke-opacity:1"/>
    <path d="M 127.4682,33.56107 C 127.7829,33.56107 128.9369,33.14137 129.1468,33.45616 C 129.3566,33.77095 127.8878,33.98076 127.4682,33.56107 z" id="path716" style="fill:none;fill-opacity:1;fill-rule:evenodd;stroke:#000000;stroke-width:1.125;stroke-linecap:butt;stroke-linejoin:round;stroke-dasharray:none;stroke-opacity:1"/>
    <path d="M 150.1292,58.48671 C 150.2341,58.48671 153.5913,68.87306 154.0109,71.49582 C 154.4306,74.11858 155.7944,84.60976 155.2699,86.07857 C 154.7453,87.54738 149.3948,94.57642 148.7653,96.35994 C 148.1358,98.14346 144.359,104.9628 144.359,104.9628 C 144.359,104.9628 143.4148,111.6772 142.9951,111.9919 C 142.5755,112.3067 144.0782,113.9547 143.9394,114.5098 C 143.7312,115.1343 140.8969,118.0768 139.638,117.7621 C 138.379,117.4473 136.3857,115.9785 136.2808,114.6147 C 136.1759,113.2509 136.3857,108.7396 137.3299,107.5856 C 138.2741,106.4316 143.205,94.7863 143.5197,94.0519 C 143.8344,93.31749 148.0309,84.19022 148.1358,82.6165 C 148.2408,81.04279 146.8304,77.40379 145.3467,76.0685 C 142.0447,66.35033 143.3421,60.48973 150.1292,58.48671 z" id="path673" style="fill:#ffc6b5;fill-opacity:1;fill-rule:evenodd;stroke:#000000;stroke-width:0.625;stroke-linecap:butt;stroke-linejoin:miter;stroke-dasharray:none;stroke-opacity:1"/>
    <path d="M 101.2544,103.5006 L 101.4186,108.0983" id="path726" style="fill:none;fill-opacity:1;fill-rule:evenodd;stroke:#000000;stroke-width:0.625;stroke-linecap:butt;stroke-linejoin:miter;stroke-dasharray:none;stroke-opacity:1"/>
    <path d="M 96.94218,103.1597 C 96.94218,103.1597 99.8899,108.0895 99.64359,110.7167" id="path727" style="fill:none;fill-opacity:1;fill-rule:evenodd;stroke:#000000;stroke-width:0.625;stroke-linecap:butt;stroke-linejoin:miter;stroke-dasharray:none;stroke-opacity:1"/>
    <path d="M 136.4511,113.4604 C 136.4511,113.4604 138.6551,113.2288 138.5857,116.9085 C 139.9931,112.3374 142.8549,112.2288 142.8549,112.2288" id="path728" style="fill:none;fill-opacity:1;fill-rule:evenodd;stroke:#000000;stroke-width:0.625;stroke-linecap:butt;stroke-linejoin:round;stroke-dasharray:none;stroke-opacity:1"/>
  </g>
  <path d="M 192.06374,161.83023 C 206.33522,161.43378 215.55218,151.12661 215.45307,151.0275 C 215.35399,150.92839 217.33612,148.15338 218.92185,148.54981 C 220.50758,148.94626 222.78704,153.60429 225.56206,154.59536 C 226.94953,156.77571 225.16562,158.75788 224.57096,159.15432 C 223.97633,159.55076 221.30043,160.64094 220.90399,159.05521 C 220.50758,157.46948 219.7147,157.76681 219.7147,157.76681 C 219.7147,157.76681 207.02895,170.15523 192.36104,169.65972 C 177.19761,169.75883 164.71007,157.76681 164.71007,157.76681 L 163.61989,158.9561 C 163.61989,158.9561 162.4306,160.2445 161.83596,160.14539 C 161.24131,160.04628 158.66452,158.36147 158.4663,156.67664 C 158.26809,154.9918 160.05202,153.90163 160.05202,153.90163 C 160.05202,153.90163 164.41275,150.53195 164.90829,148.74804 C 165.89936,147.75696 167.7824,149.44177 167.7824,149.44177 C 167.7824,149.44177 179.27887,162.62307 192.06374,161.83023 z" id="path780" style="fill:#f7c600;fill-opacity:1;fill-rule:evenodd;stroke:#000000;stroke-width:0.32209923pt;stroke-linecap:butt;stroke-linejoin:miter;stroke-opacity:1"/>
  <path d="M 159.75576,154.16446 C 159.75576,154.16446 160.93505,153.84996 161.36745,154.34135 C 161.79986,154.83272 164.76772,157.74163 164.76772,157.74163" id="path782" style="fill:none;fill-opacity:1;fill-rule:evenodd;stroke:#000000;stroke-width:0.32209923pt;stroke-linecap:butt;stroke-linejoin:miter;stroke-opacity:1"/>
  <path d="M 162.44846,155.5403 L 161.26918,156.42475 C 161.26918,156.42475 164.23704,157.01433 163.56878,158.96019" id="path783" style="fill:none;fill-opacity:1;fill-rule:evenodd;stroke:#000000;stroke-width:0.32209923pt;stroke-linecap:butt;stroke-linejoin:miter;stroke-opacity:1"/>
  <path d="M 224.49839,154.06618 C 224.49839,154.06618 223.90872,153.75169 222.98497,154.43962 C 222.06119,155.12753 219.72227,157.74163 219.72227,157.74163" id="path784" style="fill:none;fill-opacity:1;fill-rule:evenodd;stroke:#000000;stroke-width:0.32209923pt;stroke-linecap:butt;stroke-linejoin:miter;stroke-opacity:1"/>
  <path d="M 221.845,155.46168 L 223.12254,156.4444 C 223.12254,156.4444 220.44951,156.6213 221.03914,159.15677" id="path785" style="fill:none;fill-opacity:1;fill-rule:evenodd;stroke:#000000;stroke-width:0.32209923pt;stroke-linecap:butt;stroke-linejoin:miter;stroke-opacity:1"/>
  <rect height="63.999973" id="rect3207" style="opacity:1;fill:#000066;fill-opacity:1;fill-rule:evenodd;stroke:none;stroke-width:0.25;stroke-linecap:butt;stroke-linejoin:round;stroke-miterlimit:4;stroke-dasharray:none;stroke-dashoffset:0;stroke-opacity:1" width="127.99994" x="4.5308162e-09" y="64.000061"/>
  <g id="g878" style="font-size:12px" transform="matrix(2.1333335,0,0,2.1333349,0,64.00001)">
    <path d="M 0,0 L 0,3.3541 L 53.2918,30 L 60,30 L 60,26.6459 L 6.7082,0 L 0,0 z M 60,0 L 60,3.35405 L 6.7082,30 L 0,30 L 0,26.6458 L 53.2918,0 L 60,0 z" id="path879" style="font-size:12px;fill:#ffffff;stroke-width:1pt"/>
    <path d="M 25,0 L 25,30 L 35,30 L 35,0 L 25,0 z M 0,10 L 0,20 L 60,20 L 60,10 L 0,10 z" id="path880" style="font-size:12px;fill:#ffffff;stroke-width:1pt"/>
    <path d="M 0,12 L 0,18 L 60,18 L 60,12 L 0,12 z M 27,0 L 27,30 L 33,30 L 33,0 L 27,0 z" id="path881" style="font-size:12px;fill:#cc0000;stroke-width:1pt"/>
    <path d="M 0,30 L 20,20 L 24.4721,20 L 4.47214,30 L 0,30 z M 0,0 L 20,10 L 15.5279,10 L 0,2.23607 L 0,0 z M 35.5279,10 L 55.5279,0 L 60,0 L 40,10 L 35.5279,10 z M 60,30 L 40,20 L 44.4721,20 L 60,27.7639 L 60,30 z" id="path882" style="font-size:12px;fill:#cc0000;stroke-width:1pt"/>
  </g>
  <path d="M 174.86174,157.31107 L 174.77581,157.43156 C 174.59656,157.34304 174.3921,157.32661 174.16245,157.38227 C 173.99384,157.4258 173.67621,157.58413 173.20957,157.85728 L 169.28258,160.14658 L 169.17511,160.06993 L 170.16443,155.47927 C 170.28398,154.92585 170.33859,154.58977 170.32828,154.47105 C 170.32013,154.35388 170.23726,154.22437 170.07968,154.0825 L 170.16562,153.96201 L 172.28246,155.47164 L 172.19652,155.59214 L 172.12487,155.54104 C 171.93381,155.40479 171.78651,155.33577 171.68298,155.33399 C 171.60981,155.33094 171.55078,155.3609 171.50588,155.42386 C 171.47801,155.46295 171.4534,155.51582 171.43207,155.58248 C 171.41227,155.64698 171.36948,155.83099 171.30368,156.13452 L 170.67716,159.00398 L 172.94578,157.66915 C 173.21876,157.50682 173.39583,157.39401 173.47701,157.33071 C 173.55818,157.26741 173.61889,157.20753 173.65915,157.15108 C 173.7056,157.08595 173.72926,157.01603 173.73014,156.94132 C 173.73101,156.86661 173.70708,156.79223 173.65837,156.71818 C 173.59132,156.61469 173.48073,156.50798 173.32659,156.39805 L 173.41252,156.27755 L 174.86174,157.31107 M 176.27192,164.13479 L 176.20091,164.26464 L 173.71269,162.90387 L 173.78371,162.77402 L 173.94163,162.86039 C 174.07967,162.93588 174.20424,162.97209 174.31534,162.96902 C 174.39408,162.96954 174.47158,162.93897 174.54784,162.87734 C 174.60428,162.83526 174.69776,162.6949 174.82827,162.45626 L 176.54026,159.32581 C 176.67333,159.08249 176.74363,158.92338 176.75117,158.84847 C 176.75869,158.77357 176.73484,158.69214 176.67961,158.60417 C 176.62798,158.51516 176.5355,158.43419 176.40214,158.36125 L 176.24421,158.27488 L 176.31523,158.14503 L 178.80344,159.5058 L 178.73243,159.63565 L 178.5745,159.54928 C 178.43646,159.47379 178.31189,159.43758 178.2008,159.44065 C 178.12205,159.44014 178.04338,159.47006 177.96478,159.53041 C 177.90833,159.57249 177.81486,159.71285 177.68435,159.95149 L 175.97236,163.08194 C 175.83929,163.32526 175.76899,163.48438 175.76146,163.55928 C 175.75627,163.63547 175.77948,163.71807 175.8311,163.80709 C 175.88633,163.89504 175.98063,163.97549 176.114,164.04842 L 176.27192,164.13479 M 185.36198,162.00277 L 184.72043,163.80392 L 184.58101,163.75426 C 184.58807,163.20195 184.46893,162.73773 184.22359,162.36159 C 183.97823,161.98547 183.65584,161.72627 183.25643,161.584 C 182.87459,161.448 182.51834,161.44283 182.18768,161.56849 C 181.8579,161.69165 181.57181,161.92661 181.3294,162.27337 C 181.087,162.62014 180.89376,162.99574 180.74971,163.40019 C 180.57523,163.89004 180.48,164.34018 180.46402,164.75062 C 180.44805,165.16105 180.5373,165.49857 180.7318,165.76316 C 180.9288,166.02866 181.2044,166.22449 181.55861,166.35065 C 181.6817,166.39449 181.81177,166.42667 181.94884,166.44718 C 182.08931,166.46608 182.23631,166.47456 182.38987,166.47264 L 182.76835,165.41004 C 182.83993,165.20907 182.87219,165.07478 182.86514,165.00716 C 182.85898,164.93702 182.82044,164.86244 182.74952,164.78339 C 182.68111,164.70524 182.58536,164.64424 182.46227,164.6004 L 182.33039,164.55342 L 182.38005,164.414 L 184.86323,165.29848 L 184.81357,165.4379 C 184.62068,165.38335 184.47941,165.36276 184.38973,165.37611 C 184.30346,165.38784 184.22412,165.43176 184.15172,165.50788 C 184.1121,165.54756 184.05919,165.66034 183.99299,165.84624 L 183.6145,166.90884 C 183.23603,166.93822 182.85672,166.92625 182.47658,166.87294 C 182.09804,166.82303 181.71911,166.73053 181.33979,166.59542 C 180.85496,166.42273 180.47504,166.2138 180.20002,165.96865 C 179.92841,165.72187 179.70754,165.44788 179.53742,165.14666 C 179.3707,164.84383 179.26612,164.53342 179.2237,164.21541 C 179.17133,163.80611 179.22165,163.38668 179.37466,162.95712 C 179.64846,162.18843 180.1498,161.63525 180.87869,161.29757 C 181.60758,160.9599 182.38149,160.93691 183.20043,161.22861 C 183.45415,161.31898 183.67559,161.4205 183.86475,161.53317 C 183.96812,161.59264 184.1259,161.71394 184.33809,161.89709 C 184.55367,162.07862 184.68407,162.17743 184.72929,162.19354 C 184.79963,162.21859 184.87389,162.21674 184.95208,162.18797 C 185.03115,162.15669 185.12131,162.0784 185.22256,161.95311 L 185.36198,162.00277 M 189.1916,168.14959 L 189.16943,168.29592 L 186.36542,167.87117 L 186.38759,167.72484 L 186.56555,167.75179 C 186.72111,167.77536 186.85054,167.76665 186.95385,167.72566 C 187.02799,167.69913 187.09031,167.64384 187.1408,167.55978 C 187.17939,167.5009 187.21905,167.33699 187.25979,167.06806 L 187.79418,163.54031 C 187.83572,163.26611 187.84718,163.09253 187.82856,163.01958 C 187.80994,162.94664 187.7596,162.87834 187.67755,162.81466 C 187.59853,162.74875 187.48388,162.70441 187.33359,162.68164 L 187.15562,162.65468 L 187.17779,162.50835 L 189.9818,162.93311 L 189.95963,163.07944 L 189.78166,163.05248 C 189.6261,163.02892 189.49667,163.03763 189.39337,163.07862 C 189.31922,163.10515 189.25559,163.16024 189.20246,163.24389 C 189.16387,163.30278 189.12421,163.46668 189.08347,163.73561 L 188.54908,167.26336 C 188.50754,167.53757 188.49608,167.71114 188.5147,167.78409 C 188.53595,167.85743 188.58609,167.92706 188.66511,167.99297 C 188.74717,168.05665 188.86334,168.09987 189.01362,168.12263 L 189.1916,168.14959 M 196.4701,166.38158 L 196.36339,168.2935 L 191.55365,168.5389 L 191.54611,168.3911 L 191.72587,168.38193 C 191.883,168.37391 192.00808,168.33949 192.1011,168.27867 C 192.16844,168.23785 192.21844,168.17122 192.25111,168.07877 C 192.27714,168.01335 192.28322,167.84483 192.26937,167.57318 L 192.08755,164.00982 C 192.07342,163.73285 192.04994,163.56049 192.01711,163.49274 C 191.98428,163.42499 191.9213,163.36813 191.82817,163.32214 C 191.73757,163.27337 191.61637,163.25285 191.46456,163.26059 L 191.2848,163.26976 L 191.27726,163.12195 L 194.1655,162.97459 L 194.17304,163.1224 L 193.93735,163.13442 C 193.78021,163.14244 193.65514,163.17686 193.56212,163.23767 C 193.49478,163.2785 193.44344,163.3452 193.40812,163.43778 C 193.38208,163.5032 193.376,163.67173 193.38986,163.94337 L 193.56596,167.39488 C 193.58009,167.67185 193.60511,167.84814 193.64101,167.92374 C 193.67677,167.99668 193.74221,168.04941 193.83733,168.08194 C 193.90513,168.10251 194.06686,168.10628 194.32253,168.09323 L 194.77394,168.0702 C 195.06157,168.05552 195.29867,167.99269 195.48526,167.88171 C 195.67185,167.77072 195.82881,167.60251 195.95616,167.37706 C 196.08616,167.15148 196.20288,166.82243 196.30631,166.38993 L 196.4701,166.38158 M 201.73141,165.46877 L 199.89557,166.0172 L 199.82825,166.58837 C 199.80708,166.77838 199.81291,166.92831 199.84573,167.03818 C 199.88924,167.18382 199.98006,167.27358 200.11821,167.30746 C 200.19941,167.32773 200.37848,167.30763 200.65543,167.24716 L 200.69779,167.38897 L 198.96927,167.90534 L 198.92691,167.76353 C 199.10503,167.67971 199.23544,167.55726 199.31813,167.39618 C 199.40005,167.23255 199.47001,166.92638 199.528,166.47768 L 200.148,161.77547 L 200.22082,161.75372 L 203.36816,165.45573 C 203.66761,165.806 203.89047,166.01635 204.03675,166.08675 C 204.14728,166.14001 204.28367,166.14936 204.4459,166.11481 L 204.48827,166.25662 L 201.97406,167.0077 L 201.9317,166.8659 L 202.03518,166.83498 C 202.23702,166.77468 202.37044,166.70422 202.43541,166.62358 C 202.4794,166.5659 202.48996,166.49874 202.46706,166.42209 C 202.45332,166.3761 202.43153,166.33112 202.4017,166.28715 C 202.38972,166.26568 202.32277,166.18131 202.20085,166.03405 L 201.73141,165.46877 M 201.51637,165.22408 L 200.20749,163.66552 L 199.94499,165.69351 L 201.51637,165.22408 M 208.44791,158.16093 L 209.14307,159.4539 L 209.01623,159.52209 C 208.7807,159.26422 208.58241,159.09532 208.42136,159.01538 C 208.25904,158.9331 208.07719,158.89614 207.87581,158.9045 C 207.76382,158.91021 207.59627,158.97305 207.37314,159.09301 L 207.01731,159.28432 L 208.99861,162.96946 C 209.12993,163.21373 209.22493,163.35945 209.2836,163.40663 C 209.34462,163.45254 209.42651,163.47815 209.52927,163.48345 C 209.63312,163.48515 209.75316,163.44937 209.88938,163.37613 L 210.04793,163.29089 L 210.11801,163.42124 L 207.61662,164.7661 L 207.54654,164.63575 L 207.70507,164.55051 C 207.84365,164.47601 207.94195,164.39136 207.99999,164.29658 C 208.04337,164.23087 208.06122,164.14861 208.05352,164.04981 C 208.04904,163.97955 207.98241,163.82464 207.8536,163.58507 L 205.87231,159.89992 L 205.52704,160.08555 C 205.20527,160.25856 205.00819,160.45231 204.93581,160.66683 C 204.83376,160.96694 204.85043,161.30767 204.98583,161.68902 L 204.85195,161.761 L 204.15679,160.46802 L 208.44791,158.16093 M 211.7015,156.23196 L 213.03116,157.99471 L 213.11738,157.92967 C 213.39201,157.72251 213.52603,157.48614 213.51943,157.22056 C 213.51283,156.95498 213.3997,156.64116 213.18003,156.27909 L 213.30138,156.18755 L 215.01164,158.45485 L 214.89029,158.54638 C 214.67846,158.3187 214.47161,158.15741 214.26975,158.06249 C 214.07002,157.96598 213.89579,157.93206 213.74707,157.96073 C 213.59674,157.98728 213.41833,158.07844 213.21182,158.23421 L 214.13199,159.45408 C 214.31184,159.69252 214.43142,159.83112 214.49073,159.86989 C 214.55217,159.90705 214.62341,159.92179 214.70446,159.9141 C 214.7855,159.90641 214.88776,159.856 215.01124,159.76286 L 215.2699,159.56774 C 215.67439,159.26263 215.92733,158.92486 216.02871,158.55445 C 216.13222,158.18243 216.09267,157.76467 215.91006,157.30117 L 216.02821,157.21204 L 216.87162,158.73533 L 213.12898,161.55845 L 213.03986,161.44029 L 213.18356,161.3319 C 213.30916,161.23715 213.39342,161.13852 213.43634,161.036 C 213.46921,160.96444 213.47325,160.88123 213.44845,160.78636 C 213.43333,160.71761 213.34387,160.57465 213.18007,160.3575 L 211.03142,157.50901 C 210.88368,157.31316 210.78762,157.19689 210.74325,157.16021 C 210.66576,157.10176 210.58302,157.07399 210.49502,157.07689 C 210.36916,157.07831 210.23598,157.13201 210.09546,157.23799 L 209.95176,157.34639 L 209.86264,157.22823 L 213.48712,154.49424 L 214.45305,155.77478 L 214.3317,155.86631 C 214.0339,155.59994 213.77719,155.44118 213.56159,155.39003 C 213.3481,155.3373 213.11509,155.35607 212.86254,155.44636 C 212.71441,155.49797 212.47642,155.64743 212.14857,155.89473 L 211.7015,156.23196" id="text2325" style="font-size:32px;font-style:normal;font-variant:normal;font-weight:bold;font-stretch:normal;text-align:center;line-height:100%;writing-mode:lr-tb;text-anchor:middle;fill:#000000;fill-opacity:1;stroke:none;stroke-width:1px;stroke-linecap:butt;stroke-linejoin:miter;stroke-opacity:1;font-family:Times New Roman"/>
  <path d="M 166.10404,157.7181 C 183.8312,172.09678 201.20549,172.36065 218.20711,157.7181" id="path2329" sodipodi:nodetypes="cc" style="fill:none;fill-opacity:0.75;fill-rule:evenodd;stroke:none;stroke-width:1px;stroke-linecap:butt;stroke-linejoin:miter;stroke-opacity:1"/>
</svg>
