<?xml version="1.0" encoding="UTF-8" standalone="no"?>
<!-- Created with Inkscape (http://www.inkscape.org/) --><svg height="256" id="Flag_of_Malta" inkscape:output_extension="org.inkscape.output.svg.inkscape" inkscape:version="0.46" sodipodi:docname="Flag_of_Malta.svg" sodipodi:version="0.32" version="1.0" width="256" xmlns="http://www.w3.org/2000/svg" xmlns:cc="http://creativecommons.org/ns#" xmlns:dc="http://purl.org/dc/elements/1.1/" xmlns:inkscape="http://www.inkscape.org/namespaces/inkscape" xmlns:rdf="http://www.w3.org/1999/02/22-rdf-syntax-ns#" xmlns:sodipodi="http://sodipodi.sourceforge.net/DTD/sodipodi-0.dtd" xmlns:svg="http://www.w3.org/2000/svg">
  <metadata>
    <rdf:RDF xmlns:cc="http://web.resource.org/cc/" xmlns:dc="http://purl.org/dc/elements/1.1/" xmlns:rdf="http://www.w3.org/1999/02/22-rdf-syntax-ns#">
      <cc:Work rdf:about="">
        <dc:title></dc:title>
        <dc:description></dc:description>
        <dc:subject>
          <rdf:Bag>
            <rdf:li>unsorted</rdf:li>
          </rdf:Bag>
        </dc:subject>
        <dc:publisher>
          <cc:Agent rdf:about="http://www.openclipart.org/">
            <dc:title>Open Clip Art Library, Source: Wikimedia Commons</dc:title>
          </cc:Agent>
        </dc:publisher>
        <dc:creator>
          <cc:Agent>
            <dc:title></dc:title>
          </cc:Agent>
        </dc:creator>
        <dc:rights>
          <cc:Agent>
            <dc:title></dc:title>
          </cc:Agent>
        </dc:rights>
        <dc:date></dc:date>
        <dc:format>image/svg+xml</dc:format>
        <dc:type rdf:resource="http://purl.org/dc/dcmitype/StillImage"/>
        <cc:license rdf:resource="http://web.resource.org/cc/PublicDomain"/>
        <dc:language>en</dc:language>
      </cc:Work>
      <cc:License rdf:about="http://web.resource.org/cc/PublicDomain">
        <cc:permits rdf:resource="http://web.resource.org/cc/Reproduction"/>
        <cc:permits rdf:resource="http://web.resource.org/cc/Distribution"/>
        <cc:permits rdf:resource="http://web.resource.org/cc/DerivativeWorks"/>
      </cc:License>
    </rdf:RDF>
  </metadata>
  <sodipodi:namedview bordercolor="#666666" borderopacity="1.0" gridtolerance="10.0" guidetolerance="10.0" id="base" inkscape:current-layer="Flag_of_Malta" inkscape:cx="450" inkscape:cy="300" inkscape:pageopacity="0.0" inkscape:pageshadow="2" inkscape:window-height="808" inkscape:window-width="812" inkscape:window-x="1" inkscape:window-y="87" inkscape:zoom="0.62111111" objecttolerance="10.0" pagecolor="#ffffff" showgrid="false"/>
  <defs id="defs550">
    <inkscape:perspective id="perspective2437" inkscape:persp3d-origin="450 : 200 : 1" inkscape:vp_x="0 : 300 : 1" inkscape:vp_y="0 : 1000 : 0" inkscape:vp_z="900 : 300 : 1" sodipodi:type="inkscape:persp3d"/>
  </defs>
  <rect height="170.66701" id="rect4" style="fill:#cf142b" width="128" x="128" y="42.333"/>
  <rect height="170.66701" id="rect6" style="fill:#ffffff" width="128" x="3.163472e-08" y="42.333"/>
  <path d="M 28.591704,68.356037 C 28.591704,68.637617 28.27302,68.865878 27.879904,68.865878 C 27.486786,68.865878 27.168105,68.637617 27.168105,68.356037 C 27.168105,68.074446 27.486788,67.846196 27.879904,67.846196 C 28.273021,67.846196 28.591704,68.074446 28.591704,68.356037 z" id="path2289" style="fill:#f1eeee;fill-opacity:1;fill-rule:evenodd;stroke:none"/>
  <path d="M 6.3209879,65.892922 L 6.3209879,78.822887 L 19.250347,78.822887 C 19.250347,80.977291 21.405362,83.132415 23.560377,83.132415 L 23.560377,96.06165 L 36.489006,96.06165 L 36.489006,83.132415 C 38.644019,83.132415 40.799036,80.977291 40.799036,78.822887 L 53.728395,78.822887 L 53.728395,65.892922 L 40.799036,65.892922 C 40.799036,63.738518 38.644019,61.583393 36.489006,61.583393 L 36.489006,48.654149 L 23.560377,48.654149 L 23.560377,61.583393 C 21.405362,61.583393 19.250347,63.738518 19.250347,65.892922 L 6.3209879,65.892922 L 6.3209879,65.892922 z" id="path2291" style="font-size:12px;fill:#e60d2e;fill-opacity:1;fill-rule:evenodd;stroke-width:1pt"/>
  <path d="M 7.183222,66.754453 L 7.183222,77.960635 L 20.111852,77.960635 C 20.111852,80.114979 22.266867,82.270103 24.421881,82.270103 L 24.421881,95.199408 L 35.626789,95.199408 L 35.626789,82.270103 C 37.781806,82.270103 39.936819,80.114979 39.936819,77.960635 L 52.865451,77.960635 L 52.865451,66.754453 L 39.936819,66.754453 C 39.936819,64.600049 37.781806,62.444925 35.626789,62.444925 L 35.626789,49.51568 L 24.421881,49.51568 L 24.421881,62.444925 C 22.266867,62.444925 20.111852,64.600049 20.111852,66.754453 L 7.183222,66.754453 L 7.183222,66.754453 z" id="path2295" style="font-size:12px;fill:#96877d;fill-opacity:1;fill-rule:evenodd;stroke-width:1pt"/>
  <path d="M 7.6145169,67.185734 L 7.6145169,77.529284 L 20.543147,77.529284 C 20.543147,79.683698 22.698163,81.839532 24.853177,81.839532 L 24.853177,94.768777 L 35.196225,94.768777 L 35.196225,81.839532 C 37.351239,81.839532 39.506256,79.683698 39.506256,77.529284 L 52.434884,77.529284 L 52.434884,67.185734 L 39.506256,67.185734 C 39.506256,65.0314 37.351239,62.876276 35.196225,62.876276 L 35.196225,49.947031 L 24.853177,49.947031 L 24.853177,62.876276 C 22.698163,62.876276 20.543147,65.0314 20.543147,67.185734 L 7.6145169,67.185734 L 7.6145169,67.185734 z" id="path2297" style="font-size:12px;fill:#cccccc;fill-opacity:1;fill-rule:evenodd;stroke-width:1pt"/>
  <path d="M 24.045708,62.722146 C 24.80308,63.479567 24.598417,64.91219 23.588588,65.922062 C 22.578754,66.931924 21.146153,67.136574 20.38878,66.379223 C 19.631408,65.621871 19.836071,64.189179 20.845901,63.179317 C 21.855733,62.169515 23.288336,61.964804 24.045708,62.722146 L 24.045708,62.722146 z" id="path2301" style="fill:#96877d;fill-opacity:1;fill-rule:evenodd;stroke:none"/>
  <path d="M 20.236349,65.00766 L 20.541057,64.702659 L 21.760082,65.312001 L 21.15053,64.093068 L 21.455296,63.788068 L 22.674274,66.226072 L 20.236349,65.00707 L 20.236349,65.00766 z" id="path2303" style="fill:#d0d0d0;fill-opacity:1;fill-rule:evenodd;stroke:none"/>
  <rect height="2.5858622" id="rect2305" style="font-size:12px;fill:#d0d0d0;fill-opacity:1;fill-rule:evenodd;stroke-width:1pt" transform="matrix(0.7070961,-0.7071175,0.7070961,0.7071175,0,0)" width="0.43097699" x="-29.07126" y="60.276093"/>
  <path d="M 39.660504,66.379093 C 38.903134,67.136514 37.470532,66.931854 36.460698,65.921932 C 35.450869,64.91206 35.246205,63.479437 36.003578,62.722016 C 36.760949,61.964604 38.19355,62.169255 39.203385,63.179187 C 40.213214,64.189049 40.417877,65.621681 39.660504,66.379093 L 39.660504,66.379093 z" id="path2309" style="fill:#96877d;fill-opacity:1;fill-rule:evenodd;stroke:none"/>
  <path d="M 37.374925,62.569715 L 37.679625,62.874716 L 37.070137,64.093778 L 38.289104,63.484437 L 38.593869,63.789438 L 36.155944,65.00844 L 37.374922,62.570435 L 37.374925,62.569715 z" id="path2311" style="fill:#d0d0d0;fill-opacity:1;fill-rule:evenodd;stroke:none"/>
  <rect height="2.5858622" id="rect2313" style="font-size:12px;fill:#d0d0d0;fill-opacity:1;fill-rule:evenodd;stroke-width:1pt" transform="matrix(0.7070961,0.7071175,-0.7070961,0.7071175,0,0)" width="0.43097699" x="73.257248" y="17.814322"/>
  <path d="M 36.00347,81.994373 C 35.2461,81.236951 35.450761,79.804329 36.460592,78.794467 C 37.470421,77.784595 38.903023,77.579944 39.660399,78.337296 C 40.417769,79.094647 40.213109,80.52734 39.203277,81.537142 C 38.193445,82.547004 36.760843,82.751724 36.00347,81.994303 L 36.00347,81.994373 z" id="path2317" style="fill:#96877d;fill-opacity:1;fill-rule:evenodd;stroke:none"/>
  <path d="M 39.812858,79.708858 L 39.50815,80.013859 L 38.289124,79.404518 L 38.898677,80.62352 L 38.593911,80.928511 L 37.374936,78.490506 L 39.812861,79.709508 L 39.812858,79.708858 z" id="path2319" style="fill:#d0d0d0;fill-opacity:1;fill-rule:evenodd;stroke:none"/>
  <rect height="2.5858622" id="rect2321" style="font-size:12px;fill:#d0d0d0;fill-opacity:1;fill-rule:evenodd;stroke-width:1pt" transform="matrix(-0.7070961,0.7071175,-0.7070961,-0.7071175,0,0)" width="0.43097699" x="30.795292" y="-84.514183"/>
  <path d="M 20.388691,78.337426 C 21.146063,77.580074 22.578665,77.784665 23.588498,78.794587 C 24.59833,79.804459 24.80299,81.237081 24.045618,81.994433 C 23.288246,82.751854 21.855644,82.547194 20.845811,81.537272 C 19.835979,80.5274 19.631319,79.094777 20.388691,78.337356 L 20.388691,78.337426 z" id="path2325" style="fill:#96877d;fill-opacity:1;fill-rule:evenodd;stroke:none"/>
  <path d="M 22.674277,82.146803 L 22.369569,81.841812 L 22.979057,80.62274 L 21.760093,81.232081 L 21.455326,80.927081 L 23.893252,79.708078 L 22.674274,82.146083 L 22.674277,82.146803 z" id="path2327" style="fill:#d0d0d0;fill-opacity:1;fill-rule:evenodd;stroke:none"/>
  <rect height="2.5858622" id="rect2329" style="font-size:12px;fill:#d0d0d0;fill-opacity:1;fill-rule:evenodd;stroke-width:1pt" transform="matrix(-0.7070961,-0.7071175,0.7070961,-0.7071175,0,0)" width="0.43097699" x="-71.533218" y="-42.052231"/>
  <path d="M 39.075044,72.358094 C 39.076181,77.357414 35.023855,81.410782 30.02465,81.410782 C 25.025444,81.410782 20.973108,77.357414 20.974254,72.358094 C 20.973116,67.358785 25.025444,63.305407 30.024647,63.305407 C 35.023855,63.305407 39.07619,67.358785 39.075044,72.358094 L 39.075044,72.358094 L 39.075044,72.358094 z" id="path2331" style="fill:none;stroke:#96877d;stroke-width:0.14631911;stroke-linecap:butt;stroke-linejoin:miter;stroke-opacity:1"/>
  <path d="M 36.92007,72.358164 C 36.920923,76.167212 33.833466,79.255527 30.024565,79.255527 C 26.215662,79.255527 23.128182,76.167212 23.129055,72.358164 C 23.128173,68.549177 26.215662,65.460861 30.024565,65.460861 C 33.833466,65.460861 36.920943,68.549177 36.92007,72.358164 L 36.92007,72.358164 L 36.92007,72.358164 z" id="path2333" style="fill:none;stroke:#96877d;stroke-width:0.14631911;stroke-linecap:butt;stroke-linejoin:miter;stroke-opacity:1"/>
  <path d="M 27.007759,79.684798 C 27.007991,79.838919 26.925899,79.981339 26.792462,80.058729 C 26.659025,80.136109 26.494556,80.136109 26.36112,80.058729 C 26.227683,79.981339 26.145588,79.838919 26.145822,79.684798 C 26.145592,79.530678 26.227683,79.388258 26.36112,79.310878 C 26.494556,79.233487 26.659025,79.233487 26.792462,79.310878 C 26.925899,79.388258 27.007987,79.530678 27.007759,79.684798 L 27.007759,79.684798 z" id="path2335" style="fill:#000000;fill-opacity:1;fill-rule:evenodd;stroke:none"/>
  <path d="M 33.90328,79.684798 C 33.903511,79.838919 33.821417,79.981339 33.687982,80.058729 C 33.554546,80.136109 33.390077,80.136109 33.256639,80.058729 C 33.123203,79.981339 33.041115,79.838919 33.041343,79.684798 C 33.041115,79.530678 33.123203,79.388258 33.256639,79.310878 C 33.390077,79.233487 33.554546,79.233487 33.687982,79.310878 C 33.821417,79.388258 33.903508,79.530678 33.90328,79.684798 L 33.90328,79.684798 z" id="path2337" style="fill:#000000;fill-opacity:1;fill-rule:evenodd;stroke:none"/>
  <path d="M 29.737327,79.684868 L 29.737327,80.134229 L 29.16267,80.134229 C 28.588012,80.134229 28.588012,80.58359 29.16267,80.58359 L 29.737327,80.58359 L 29.737327,81.032951 C 29.739318,81.498572 30.238851,81.555152 30.275416,81.071971 L 30.311899,80.58619 L 30.886556,80.58619 C 31.461129,80.58619 31.461129,80.136829 30.886556,80.136829 L 30.311899,80.136829 L 30.311899,79.687468 C 30.311899,79.238107 29.737321,79.238107 29.737321,79.687468 L 29.737327,79.684868 z" id="path2339" style="fill:#000000;fill-opacity:1;fill-rule:evenodd;stroke:none"/>
  <path d="M 34.944074,73.674957 C 35.095293,73.636697 35.344899,73.667677 35.344899,73.667677 C 35.344899,73.667677 35.366773,73.771527 35.301171,73.806137 C 35.374049,73.848047 35.636409,73.835287 35.636409,73.835287 C 35.636409,73.835287 35.534379,73.913637 35.483366,73.944607 C 35.578106,73.953707 35.694709,74.075788 35.694709,74.075788 C 35.694709,74.075788 35.476079,74.112218 35.381336,74.061217 C 35.439639,74.177828 35.432351,74.279858 35.432351,74.279858 C 35.432351,74.279858 35.078895,74.192398 34.951361,73.959197" id="path4942" style="fill:#96877d;fill-opacity:1;fill-rule:evenodd;stroke:#000000;stroke-width:0.05771594px;stroke-linecap:butt;stroke-linejoin:miter;stroke-opacity:1"/>
  <path d="M 34.353766,73.478186 C 34.268137,73.689527 33.639569,73.295986 33.639569,73.295986 C 33.639569,73.295986 33.916504,73.735077 34.331904,73.784267" id="path4944" style="fill:#96877d;fill-opacity:1;fill-rule:evenodd;stroke:#000000;stroke-width:0.05771594px;stroke-linecap:butt;stroke-linejoin:miter;stroke-opacity:1"/>
  <path d="M 26.50488,77.508304 L 33.865489,77.508304 L 34.433931,77.056463 L 33.486527,76.546322 L 32.028982,76.050761 L 31.445962,75.730101 L 30.367377,75.788401 L 29.4637,76.269392 L 28.224785,76.415142 L 27.933276,76.750383 L 27.015021,76.823263 L 25.57205,76.794113 L 27.977002,77.173073 L 25.994739,77.071043 L 26.50488,77.508304 L 26.50488,77.508304 z" id="path4946" style="fill:#96877d;fill-opacity:1;fill-rule:evenodd;stroke:#000000;stroke-width:0.05771594px;stroke-linecap:butt;stroke-linejoin:miter;stroke-opacity:1"/>
  <path d="M 30.469407,75.39486 C 29.547509,74.899289 29.277861,76.119991 28.88068,76.415142 C 29.416329,76.506242 29.820797,76.003391 30.279925,75.759251 C 30.628096,76.707293 31.176317,76.079911 31.176317,76.079911 C 31.176317,76.079911 31.748403,76.987233 32.509972,76.575472 C 32.71767,76.732163 32.947234,76.590042 32.947234,76.590042 C 32.947234,76.590042 33.224169,76.641052 33.282472,76.517162 C 33.428224,76.568182 33.588554,76.385982 33.588554,76.385982 C 33.588554,76.385982 33.90557,76.389622 33.967516,76.225652 C 34.437575,76.309462 35.060676,75.26367 35.060676,75.26367 L 35.250159,74.899289 L 35.527091,74.840979 C 35.527091,74.840979 35.545324,74.658789 35.395911,74.666079 C 35.39227,74.556758 35.297527,74.498458 35.162706,74.520318 C 35.188221,74.454728 35.089829,74.403718 35.089829,74.403718 C 34.827469,74.469308 34.812894,75.13249 34.812894,75.13249 C 34.812894,75.13249 34.353766,75.4823 34.186149,75.56976 C 34.178867,75.19079 33.544829,74.677009 33.676009,74.432868 C 33.807186,74.188728 34.218943,74.808189 34.579686,74.695229 C 34.940427,74.582269 35.117676,74.113028 35.133554,73.747817 C 35.031526,73.500036 34.783744,73.091926 34.783744,73.091926 L 34.550537,73.077356 L 34.346479,72.581795 C 34.346479,72.581795 33.916501,72.862375 33.923792,73.106516 C 33.931073,73.350656 34.375629,73.558357 34.375629,73.558357 C 34.375629,73.558357 34.119285,73.718567 33.880064,73.645807 C 33.85819,73.893587 34.171574,73.846217 34.288176,73.849857 C 34.346479,74.028407 34.521384,74.126798 34.521384,74.126798 C 34.521384,74.126798 34.630702,74.400088 34.346479,74.374578 C 34.062256,74.349068 33.726936,73.694207 33.326197,73.995617 C 32.899866,74.316278 33.515676,74.899299 33.515676,74.899299 C 33.515676,74.899299 33.140361,75.096069 32.918084,75.59892 C 32.010761,74.833709 31.478758,75.19081 30.469407,75.39486 L 30.469407,75.39486 z" id="path4948" style="fill:#96877d;fill-opacity:1;fill-rule:evenodd;stroke:#000000;stroke-width:0.05771594px;stroke-linecap:butt;stroke-linejoin:miter;stroke-opacity:1"/>
  <path d="M 29.14304,74.097638 C 29.522,74.454738 29.257717,75.048319 29.405397,75.16165 C 29.562084,75.2819 29.78436,75.10335 29.78436,75.10335 C 30.181541,75.20903 30.892095,74.986749 30.892095,74.986749 C 31.204801,75.16161 31.081367,74.903569 31.271057,74.913869 C 31.438674,75.34385 31.999829,75.26368 31.999829,75.26368 C 31.999829,75.26368 31.486046,74.738969 31.16903,74.593209 C 30.924891,74.738969 30.214335,74.760829 30.090445,74.738969 C 29.952395,74.714589 30.03943,74.545838 29.97384,74.447458 C 30.235099,74.193148 30.028498,73.561997 29.886387,73.325146 C 29.30725,72.939345 28.615376,73.600417 29.14304,74.097638 L 29.14304,74.097638 z" id="path4950" style="fill:#96877d;fill-opacity:1;fill-rule:evenodd;stroke:#000000;stroke-width:0.05771594px;stroke-linecap:butt;stroke-linejoin:miter;stroke-opacity:1"/>
  <path d="M 26.623586,73.029086 C 26.146915,73.157916 25.319825,72.413274 24.933335,72.699275 C 24.546845,72.985285 24.727207,73.688697 24.984867,74.039117 C 25.2366,74.381468 24.616413,74.505478 24.448934,74.709029 C 24.291485,74.900389 24.500466,75.12129 24.500466,75.12129 L 24.675675,75.23466 L 24.644755,75.49232 L 24.737514,75.801511 C 24.737514,75.801511 24.822541,75.876231 24.850884,75.780891 C 24.930759,75.860761 24.85932,76.091741 25.057012,76.121001 C 24.986222,75.973081 25.108544,75.56446 25.108544,75.56446 C 25.108544,75.56446 25.453809,75.59023 25.541413,75.44078 C 25.629018,75.29134 25.458962,74.966679 25.458962,74.966679 C 25.458962,74.966679 25.562026,74.966679 25.562026,74.966679 C 25.446079,74.886809 25.40743,74.647189 25.40743,74.647189 C 25.40743,74.647189 25.886678,74.495168 25.881525,74.131868 C 25.876371,73.768557 25.103391,73.382066 25.386817,73.193976 C 25.701162,72.985275 26.247402,73.735067 26.716344,73.389796 C 27.180413,73.048126 26.881246,73.379506 26.881246,73.379506 C 26.881246,73.379506 27.093354,72.902125 26.623586,73.029086 L 26.623586,73.029086 z" id="path4952" style="fill:#96877d;fill-opacity:1;fill-rule:evenodd;stroke:#000000;stroke-width:0.05771594px;stroke-linecap:butt;stroke-linejoin:miter;stroke-opacity:1"/>
  <path d="M 29.084737,67.924926 C 28.447061,67.658925 27.144379,67.642525 26.417427,67.283604 C 26.098589,67.303644 25.956478,67.555065 25.943725,67.655275 C 25.610311,67.638875 25.384391,68.163596 25.433584,68.267446 C 24.82688,68.021486 24.54448,68.981648 24.741249,69.178418 C 24.22382,69.200278 24.287588,69.861639 24.238396,70.04566 C 24.0726,70.448301 24.275317,70.583791 24.602782,70.439191 C 24.651975,70.614101 24.583124,70.712071 24.435164,70.745281 C 25.333305,71.773053 25.840911,70.11277 26.628771,70.11853 C 27.612454,69.830559 27.998865,69.346038 27.998865,69.346038 L 28.385115,69.397049 C 28.385115,69.397049 29.084737,67.924926 29.084737,67.924926 L 29.084737,67.924926 z" id="path4954" style="fill:#96877d;fill-opacity:1;fill-rule:evenodd;stroke:#000000;stroke-width:0.05771594px;stroke-linecap:butt;stroke-linejoin:miter;stroke-opacity:1"/>
  <path d="M 30.848367,67.188854 C 30.848367,67.708075 30.427463,68.128976 29.90825,68.128976 C 29.389039,68.128976 28.968132,67.708075 28.968132,67.188854 C 28.968132,66.669643 29.389039,66.248742 29.90825,66.248742 C 30.427463,66.248742 30.848367,66.669643 30.848367,67.188854 L 30.848367,67.188854 z" id="path4956" style="fill:#96877d;fill-opacity:1;fill-rule:nonzero;stroke:#000000;stroke-width:0.05771594;stroke-linecap:round;stroke-miterlimit:4;stroke-dasharray:none;stroke-dashoffset:0;stroke-opacity:1"/>
  <path d="M 28.253936,74.593209 C 27.670917,74.487538 26.705293,73.882657 26.606909,73.091936 C 27.149844,70.960272 29.950529,72.073414 30.192168,70.470111 C 30.130617,69.412339 30.320028,68.365237 30.90667,67.480375 C 31.179961,67.134204 31.533414,67.043104 31.533414,67.043104 C 31.533414,67.043104 31.596723,67.268874 31.504265,67.422065 C 31.967036,67.371055 32.601068,67.629765 33.034687,67.655275 C 33.162223,67.913996 33.151292,68.008736 33.122139,68.165416 C 33.092989,68.322106 32.918084,68.282026 32.918084,68.282026 C 32.804969,68.389327 32.66901,68.498497 32.364217,68.442357 C 32.134653,68.617257 31.65002,68.660987 31.65002,68.660987 C 31.65002,68.660987 32.663014,69.728639 32.495394,70.06023 C 32.706739,70.15862 33.020112,70.628681 33.020112,70.628681 C 33.020112,70.628681 33.712447,70.26429 33.938367,69.92905 C 34.339191,69.92905 34.995086,70.3481 35.323036,70.39547 C 35.723861,70.719771 36.124686,71.051372 36.124686,71.051372 C 36.124686,71.051372 35.64734,71.364742 35.439639,70.949332 C 35.188213,70.971212 34.645276,70.36996 33.894639,70.555801 C 33.872765,71.222632 33.136717,71.692683 33.136717,71.692683 C 33.136717,71.692683 33.823735,71.596543 34.200724,71.823863 C 34.590618,72.151814 35.162706,72.596365 35.162706,72.596365 L 35.672846,73.470896 C 35.672846,73.470896 35.206431,73.551057 35.031526,72.946175 C 34.856619,73.434456 34.849334,72.643735 34.156999,72.275704 C 33.945654,72.301224 33.839983,72.315794 33.661431,72.173674 C 33.162223,72.308504 32.571918,72.600015 31.868649,72.523485 C 31.369441,72.680175 31.005053,73.095576 30.498557,73.325146 C 29.992058,73.554707 29.842662,73.441746 29.842662,73.441746 L 29.434547,73.456306 C 29.37567,73.701997 29.409033,74.075768 29.186765,74.141358 C 29.328876,74.294398 29.084737,74.946649 28.836955,75.059619 C 28.953557,75.47866 29.29515,75.60693 29.65318,75.817541 C 29.65318,75.817541 29.970196,75.671791 30.177897,75.861271 C 30.385596,76.050751 30.600585,76.590042 30.600585,76.590042 C 30.600585,76.590042 30.168306,76.619242 30.032142,76.560892 C 29.895976,76.502532 29.882743,76.360472 29.726057,76.400562 C 28.738569,75.52239 28.217808,75.871681 28.122756,75.671791 C 28.025328,75.46689 28.355964,74.932079 28.253936,74.593199 L 28.253936,74.593209 z" id="path4958" style="fill:#96877d;fill-opacity:1;fill-rule:evenodd;stroke:#000000;stroke-width:0.05771594px;stroke-linecap:butt;stroke-linejoin:miter;stroke-opacity:1"/>
  <path d="M 25.881525,70.679221 C 25.933057,70.614801 26.293781,70.751361 26.293781,70.751361 L 26.953391,71.163622 L 28.293224,72.029364 L 28.76732,72.719885 L 27.911887,72.441614 L 26.72665,71.421282 L 26.087653,71.009022 C 26.087653,71.009022 25.829993,70.743631 25.881525,70.679221 L 25.881525,70.679221 z" id="path4960" style="fill:#96877d;fill-opacity:1;fill-rule:evenodd;stroke:#000000;stroke-width:0.05771594px;stroke-linecap:butt;stroke-linejoin:miter;stroke-opacity:1"/>
  <path d="M 33.807186,72.873305 C 33.344415,72.756695 32.203887,74.141368 32.203887,74.141368 L 33.063839,75.074199 C 33.063839,75.074199 33.089354,73.485476 33.807186,72.873305 z" id="path4962" style="fill:#96877d;fill-opacity:1;fill-rule:evenodd;stroke:#000000;stroke-width:0.05771594px;stroke-linecap:butt;stroke-linejoin:miter;stroke-opacity:1"/>
  <path d="M 28.166483,69.010798 C 27.914116,69.334158 27.891535,69.98607 28.219835,70.249 C 28.250784,70.644691 28.587204,71.442842 28.85153,71.517783 C 29.140318,71.599653 30.2945,71.867593 30.74634,71.794713 C 30.659922,72.527025 31.234569,73.114836 31.766622,73.500046 C 31.762753,73.565767 31.761843,73.645987 31.823306,73.727217 C 31.882857,73.805907 32.162438,73.820327 32.174734,73.776977 C 32.298726,73.951237 32.899302,74.027737 32.942814,73.950117 C 32.985151,73.874597 32.059446,73.230266 31.854074,73.033636 C 31.679625,72.708165 31.349211,71.982943 31.271057,71.401172 C 30.816717,70.860631 30.036713,70.871461 30.036713,70.871461 L 30.061289,69.812449 L 30.105017,68.617257 L 29.68233,68.398627 C 29.68233,68.398627 29.767538,68.359797 29.813507,68.311176 C 29.91616,68.355307 30.10907,68.149076 30.134167,68.090776 C 30.23141,68.125226 30.319448,68.124766 30.336455,68.072816 C 30.351474,68.026926 30.368879,67.822665 30.404332,67.717115 C 30.723211,67.436355 30.357783,66.841034 29.870194,66.831244 C 29.387756,66.821454 29.279545,67.406735 29.288792,67.451225 C 29.33411,67.634845 29.324345,67.727425 29.288792,67.771885 C 29.252449,67.817325 29.084735,67.917636 29.084735,67.917636 C 29.084735,67.917636 28.81509,67.790095 28.48714,67.917636 C 28.159192,68.045176 27.791162,68.216436 27.772943,68.427777 C 27.623544,68.449637 27.379405,68.642767 27.335679,68.806737 C 27.204499,68.781237 27.033238,68.890548 26.75266,69.346038 C 26.249807,69.568309 26.220656,70.643251 26.220656,70.643251 C 26.220656,70.643251 26.084922,70.840931 26.078545,70.945692 C 26.072168,71.050452 26.125915,71.146112 26.191505,71.127892 C 26.198792,71.197122 26.289889,71.259062 26.329972,71.237202 C 26.344547,71.306432 26.444596,71.345152 26.504877,71.335582 C 26.510344,71.382962 26.704379,71.371112 26.719865,71.328302 C 26.736955,71.281052 26.700665,71.044732 26.723506,71.025862 C 26.744459,71.008542 26.9057,71.131542 26.949426,71.098742 C 26.993153,71.065952 26.941074,70.960932 26.916631,70.920191 C 26.894769,70.883751 26.756301,70.843671 26.723506,70.672411 C 26.690712,70.501151 26.810959,70.2643 26.810959,70.2643 C 26.810959,70.2643 27.357539,69.834319 27.419485,69.466289 C 27.831241,69.506369 28.048963,69.146538 28.166477,69.010808 L 28.166483,69.010798 z" id="path4964" style="fill:#96877d;fill-opacity:1;fill-rule:evenodd;stroke:#000000;stroke-width:0.05771594px;stroke-linecap:butt;stroke-linejoin:miter;stroke-opacity:1"/>
  <path d="M 27.215434,67.469435 C 27.340236,67.164264 27.791165,67.192504 27.791165,67.192504 C 27.791165,67.192504 27.952406,66.767993 28.56002,67.021244 C 28.788673,66.844514 29.390822,67.097764 29.390822,67.097764 C 29.390822,67.097764 29.616302,66.797334 29.911896,66.831764 C 30.459386,66.895534 30.550482,67.397475 30.516776,67.484015 C 30.217068,67.559625 29.697857,67.240444 29.30337,67.330975 C 29.072896,67.461245 28.699398,67.598795 28.56002,67.786455 C 28.194723,67.824716 27.80483,67.450305 27.215434,67.469435 L 27.215434,67.469435 z" id="path4966" style="fill:#96877d;fill-opacity:1;fill-rule:evenodd;stroke:#000000;stroke-width:0.05771594px;stroke-linecap:butt;stroke-linejoin:miter;stroke-opacity:1"/>
  <path d="M 28.355964,67.975936 C 28.492609,67.892126 28.82781,67.744795 29.055588,67.924926 C 29.294259,68.181816 29.660467,68.420487 29.660467,68.420487 L 30.07587,68.595397 L 30.26535,68.711997 L 30.141457,70.614101 C 29.756959,70.22068 29.396614,70.15181 29.121178,69.688559 C 28.973599,69.489969 29.086561,69.012618 28.829668,68.697427 C 28.572774,68.382227 28.299484,68.169066 28.355964,67.975936 L 28.355964,67.975936 z" id="path4968" style="fill:#96877d;fill-opacity:1;fill-rule:evenodd;stroke:#000000;stroke-width:0.05771594px;stroke-linecap:butt;stroke-linejoin:miter;stroke-opacity:1"/>
  <path d="M 29.354783,68.525177 C 29.354783,68.525177 29.572508,68.483947 29.633058,68.535477 C 29.709067,68.561247 29.7825,68.583147 29.803113,68.648847 C 29.885565,68.673327 29.942249,68.715837 29.942249,68.777677 C 30.019547,68.798297 30.050466,68.937428 30.050466,68.937428 L 29.978322,69.045648 C 29.978322,69.045648 29.895871,68.968348 29.885565,68.885898 C 29.833398,68.860207 29.718084,68.833077 29.689742,68.757067 C 29.599562,68.748047 29.541589,68.701667 29.524841,68.623087 C 29.441101,68.642407 29.354783,68.525177 29.354783,68.525177 L 29.354783,68.525177 z" id="path4970" style="fill:#96877d;fill-opacity:1;fill-rule:evenodd;stroke:#000000;stroke-width:0.05771594px;stroke-linecap:butt;stroke-linejoin:miter;stroke-opacity:1"/>
  <path d="M 31.19818,67.283604 C 31.074287,67.145134 30.855657,67.247164 30.855657,67.247164 L 30.272637,68.252876 L 30.017567,68.464217 L 29.995694,69.251288 L 30.207036,69.98735 L 30.134158,70.555801 C 30.134158,70.555801 30.427767,70.28035 30.462108,70.12582 C 30.494902,69.97824 30.352791,69.499079 30.352791,69.499079 C 30.352791,69.499079 30.177886,69.200278 30.389231,68.646407 C 30.600573,68.092546 31.081563,67.633415 31.198168,67.283604 L 31.19818,67.283604 z" id="path4972" style="fill:#96877d;fill-opacity:1;fill-rule:evenodd;stroke:#000000;stroke-width:0.05771594px;stroke-linecap:butt;stroke-linejoin:miter;stroke-opacity:1"/>
  <path d="M 32.636843,68.179996 C 32.636843,68.179996 31.726541,69.480859 30.2362,69.94363 C 29.824441,70.04201 29.97384,68.981648 29.97384,68.981648 L 29.871812,69.010798 C 29.871812,69.010798 29.642249,70.0493 30.192472,70.06023 C 31.690101,69.765079 32.813801,68.188406 32.813801,68.188406 L 32.636843,68.179996 z" id="path4974" style="fill:#96877d;fill-opacity:1;fill-rule:evenodd;stroke:#000000;stroke-width:0.05771594px;stroke-linecap:butt;stroke-linejoin:miter;stroke-opacity:1"/>
  <path d="M 33.253319,75.657221 C 33.253319,75.657221 33.114852,75.759251 32.932659,75.657221 C 32.837919,75.43859 32.582849,75.42401 32.582849,75.42401 C 32.582849,75.42401 32.41856,74.952039 32.160159,75.088779 C 32.120078,74.844639 31.839499,74.972169 31.839499,74.972169 C 31.839499,74.972169 31.832218,74.618719 31.504265,74.666089 C 31.613579,74.261618 31.052425,74.287128 31.052425,74.287128 C 31.052425,74.287128 31.03422,73.831637 30.207047,73.922737 C 31.988898,73.124726 33.399074,75.17623 33.399074,75.17623" id="path4976" style="fill:#96877d;fill-opacity:1;fill-rule:evenodd;stroke:#000000;stroke-width:0.05771594px;stroke-linecap:butt;stroke-linejoin:miter;stroke-opacity:1"/>
  <path d="M 34.098697,75.832131 C 34.098697,75.832131 34.510453,76.294902 34.725441,76.298542 C 34.94043,76.302182 34.958649,75.846701 34.958649,75.846701 C 34.958649,75.846701 35.027883,76.043471 35.133554,75.992461 C 35.122631,76.130921 35.264734,76.167362 35.264734,76.167362 C 35.264734,76.167362 34.893059,77.030963 33.836339,76.211092" id="path4978" style="fill:#96877d;fill-opacity:1;fill-rule:evenodd;stroke:#000000;stroke-width:0.05771594px;stroke-linecap:butt;stroke-linejoin:miter;stroke-opacity:1"/>
  <path d="M 30.87752,76.007031 L 30.731765,76.604622 C 30.731765,76.604622 30.545929,76.772243 30.600585,76.808683 C 30.655243,76.845123 30.950397,76.750383 30.950397,76.750383 C 30.950397,76.750383 31.409525,76.695723 31.547989,76.560902 C 31.642732,76.775893 31.854074,76.794113 31.854074,76.794113 C 31.854074,76.794113 31.868638,76.703013 31.839511,76.648352 C 31.941538,76.666583 32.028993,76.633792 32.028993,76.633792 C 32.028993,76.633792 32.087293,76.466172 31.956116,76.400582 C 31.970679,76.276692 32.032634,76.167372 31.810361,76.181952 C 31.646387,76.356852 31.241916,76.557272 31.139888,76.488032 C 31.037861,76.418802 31.540713,76.196522 31.402249,75.905021" id="path4980" style="fill:#96877d;fill-opacity:1;fill-rule:evenodd;stroke:#000000;stroke-width:0.05771594px;stroke-linecap:butt;stroke-linejoin:miter;stroke-opacity:1"/>
  <path d="M 21.604627,74.589469 L 22.197303,74.448188 L 22.131829,74.173528 C 22.116827,74.110518 22.091923,74.067688 22.057132,74.045027 C 22.022352,74.022387 21.962672,74.016037 21.878089,74.025997 L 21.868259,73.984867 L 22.37865,73.863207 L 22.38848,73.904337 C 22.330089,73.919017 22.288912,73.936897 22.264926,73.957877 C 22.240944,73.978867 22.225144,74.003787 22.217527,74.032637 C 22.209909,74.061487 22.212111,74.101108 22.224123,74.151518 L 22.289597,74.426178 L 22.763293,74.313258 C 22.839648,74.295048 22.888908,74.278218 22.911076,74.262758 C 22.927838,74.250928 22.940066,74.231558 22.947756,74.204658 C 22.957771,74.167798 22.958536,74.131578 22.95006,74.095988 L 22.937055,74.041517 L 22.978191,74.031677 L 23.132459,74.678839 L 23.091323,74.688679 L 23.078623,74.635299 C 23.063752,74.573038 23.03484,74.532138 22.991799,74.512628 C 22.963838,74.500478 22.904635,74.505198 22.814195,74.526758 L 21.840117,74.758959 C 21.763762,74.777159 21.714503,74.793999 21.692334,74.809459 C 21.675571,74.821289 21.663256,74.840289 21.655386,74.866449 C 21.645197,74.902559 21.644426,74.938779 21.653082,74.975109 L 21.665782,75.028489 L 21.624646,75.038329 L 21.357195,73.916357 L 21.685115,73.822917 L 21.694391,73.861837 C 21.628562,73.897897 21.582202,73.932657 21.555308,73.966087 C 21.52842,73.999527 21.512022,74.036737 21.506117,74.077698 C 21.500215,74.118668 21.506629,74.178448 21.525362,74.257028 L 21.604617,74.589499 L 21.604627,74.589469 z M 21.222853,71.915123 C 21.234171,71.714253 21.320257,71.544503 21.481106,71.405872 C 21.641957,71.267242 21.836512,71.204352 22.064773,71.217212 C 22.299882,71.230462 22.490866,71.315642 22.637724,71.472753 C 22.784582,71.629873 22.852074,71.813803 22.840199,72.024574 C 22.828196,72.237614 22.742404,72.412344 22.582824,72.548755 C 22.423244,72.685175 22.223236,72.746605 21.9828,72.733065 C 21.737039,72.719215 21.541265,72.624225 21.395478,72.448084 C 21.268993,72.295174 21.211452,72.117514 21.222849,71.915123 L 21.222849,71.915123 L 21.222853,71.915123 z M 21.304947,71.941493 C 21.297147,72.079974 21.342246,72.193954 21.440246,72.283434 C 21.5622,72.394884 21.746438,72.457544 21.992959,72.471434 C 22.245569,72.485654 22.443016,72.442604 22.585299,72.342234 C 22.693451,72.265124 22.751363,72.158474 22.759037,72.022274 C 22.767223,71.876953 22.717305,71.753733 22.609271,71.652613 C 22.501239,71.551503 22.325103,71.494063 22.080863,71.480293 C 21.81608,71.465393 21.615697,71.506383 21.479714,71.603283 C 21.371522,71.681153 21.313266,71.793883 21.304948,71.941493 L 21.304948,71.941493 L 21.304947,71.941493 z M 23.550345,69.110958 L 23.403117,69.497689 L 22.539123,69.730199 C 22.526724,69.767069 22.51618,69.796889 22.507501,69.819679 C 22.503974,69.828939 22.500003,69.838849 22.49558,69.849389 C 22.491157,69.859939 22.486418,69.870779 22.481366,69.881899 L 22.902285,70.04214 C 22.993448,70.07685 23.053865,70.08843 23.083535,70.07689 C 23.125181,70.06177 23.156299,70.02713 23.176906,69.973 L 23.198458,69.91638 L 23.237985,69.93143 L 23.001689,70.552121 L 22.962162,70.537081 L 22.982907,70.482591 C 23.006225,70.42134 23.002954,70.36995 22.973107,70.32841 C 22.956721,70.30505 22.907219,70.27764 22.824605,70.24619 L 21.888756,69.889919 C 21.797594,69.855209 21.737177,69.843629 21.707505,69.855159 C 21.66559,69.870989 21.634201,69.90636 21.613321,69.96119 L 21.592577,70.01568 L 21.55305,70.00063 L 21.753964,69.472879 C 21.812531,69.319038 21.866926,69.209888 21.917152,69.145428 C 21.967379,69.080968 22.032276,69.034728 22.111844,69.006718 C 22.191411,68.978708 22.272861,68.980568 22.35619,69.012288 C 22.445217,69.046178 22.511443,69.104618 22.554869,69.187608 C 22.598295,69.270598 22.610357,69.378138 22.591057,69.510229 L 23.120512,69.369308 C 23.241977,69.337268 23.327739,69.302658 23.377779,69.265428 C 23.427825,69.228218 23.472169,69.171708 23.510812,69.095908 L 23.550338,69.110958 L 23.550345,69.110958 z M 22.414067,69.856279 C 22.419218,69.842739 22.423872,69.831059 22.428022,69.821229 C 22.432177,69.811389 22.435469,69.803269 22.437912,69.796859 C 22.490513,69.658689 22.500254,69.543139 22.467135,69.450209 C 22.434026,69.357278 22.371163,69.293198 22.278575,69.257948 C 22.188125,69.223518 22.103811,69.223828 22.025634,69.258888 C 21.947458,69.293948 21.890611,69.358138 21.855091,69.451429 C 21.839364,69.492739 21.824847,69.551229 21.811536,69.626889 L 22.414068,69.856269 L 22.414067,69.856279 z M 25.712539,64.72128 L 26.012087,65.11018 L 25.978506,65.13193 C 25.87832,65.05154 25.784585,65.00284 25.697299,64.98583 C 25.571432,64.96112 25.447733,64.98813 25.326201,65.06683 C 25.160536,65.17413 25.07699,65.321311 25.075565,65.508361 C 25.074968,65.665831 25.124158,65.821002 25.223173,65.973882 C 25.303541,66.097972 25.400857,66.195652 25.515115,66.266923 C 25.629372,66.338193 25.740791,66.372483 25.84937,66.369803 C 25.95795,66.367133 26.053177,66.339273 26.135051,66.286243 C 26.183021,66.255172 26.225462,66.219062 26.262366,66.177902 C 26.299268,66.136752 26.330844,66.090882 26.357093,66.040282 L 26.113497,65.664181 C 26.07124,65.598931 26.038629,65.559451 26.015667,65.545721 C 25.992698,65.532001 25.967408,65.526591 25.939785,65.529501 C 25.912163,65.532411 25.872131,65.550871 25.819674,65.584821 L 25.796059,65.548361 L 26.299774,65.22211 L 26.323388,65.258571 L 26.299404,65.274111 C 26.249511,65.306421 26.226063,65.345221 26.229056,65.390491 C 26.231588,65.422441 26.255435,65.473281 26.300594,65.543001 L 26.558483,65.941172 C 26.510608,66.028472 26.456859,66.104602 26.397235,66.169552 C 26.337609,66.234502 26.263981,66.295353 26.176351,66.352103 C 25.924973,66.514923 25.681842,66.557983 25.446958,66.481313 C 25.270795,66.423803 25.131549,66.316053 25.029222,66.158062 C 24.955069,66.043572 24.911522,65.916052 24.898594,65.775522 C 24.883054,65.608541 24.910461,65.454591 24.980816,65.313691 C 25.04008,65.19632 25.134635,65.09558 25.264482,65.01148 C 25.311814,64.98082 25.357317,64.9568 25.400986,64.93941 C 25.444652,64.92201 25.510488,64.90347 25.598469,64.88369 C 25.642977,64.8739 25.671318,64.86509 25.683482,64.85724 C 25.695625,64.84935 25.702406,64.83705 25.703786,64.82026 C 25.705179,64.80348 25.696256,64.77815 25.677036,64.74429 L 25.712535,64.7213 L 25.712539,64.72128 z M 28.236548,64.89605 L 27.656566,65.05027 L 27.617796,65.313711 C 27.608227,65.378551 27.607263,65.425331 27.614897,65.454061 C 27.620945,65.476891 27.637167,65.494071 27.663497,65.505601 C 27.689828,65.517131 27.739761,65.515871 27.813309,65.501841 L 27.824166,65.542721 L 27.352447,65.668151 L 27.34159,65.627271 C 27.401254,65.599581 27.43794,65.574441 27.451653,65.551881 C 27.479813,65.506541 27.502331,65.423661 27.519205,65.303261 L 27.718321,63.930258 L 27.75698,63.919958 L 28.609775,65.02744 C 28.678389,65.11644 28.733784,65.1713 28.775964,65.19202 C 28.818139,65.21274 28.870283,65.21682 28.932392,65.20424 L 28.943258,65.245121 L 28.352226,65.402281 L 28.341369,65.361401 C 28.400243,65.342601 28.437918,65.321931 28.454403,65.299401 C 28.470901,65.276881 28.475907,65.253471 28.46945,65.229171 C 28.460831,65.19676 28.432492,65.14949 28.384431,65.08736 L 28.236559,64.89603 L 28.236548,64.89605 z M 28.18388,64.82252 L 27.768811,64.284699 L 27.669076,64.95942 L 28.183879,64.82252 L 28.18388,64.82252 z M 30.920488,64.81448 L 30.957872,64.82394 L 30.809017,65.239141 L 29.609651,65.19248 L 29.611358,65.15021 L 29.669615,65.15249 C 29.735103,65.15505 29.782764,65.13554 29.812599,65.09399 C 29.829552,65.07024 29.839735,65.0142 29.843163,64.92587 L 29.882047,63.926388 C 29.885801,63.829678 29.877495,63.768728 29.857129,63.743528 C 29.828742,63.708868 29.785219,63.690398 29.726583,63.688118 L 29.668326,63.685838 L 29.670033,63.643577 L 30.371379,63.670858 L 30.369673,63.713128 C 30.28746,63.709168 30.229478,63.714548 30.195732,63.729238 C 30.161983,63.743938 30.138544,63.763238 30.125414,63.787128 C 30.112273,63.811028 30.10391,63.869048 30.100326,63.961188 L 30.062467,64.93439 C 30.059907,64.99759 30.064458,65.04124 30.075694,65.06532 C 30.084198,65.08167 30.097823,65.09401 30.11658,65.10237 C 30.135324,65.11073 30.194569,65.11684 30.294326,65.12072 L 30.40741,65.12512 C 30.526205,65.12975 30.609929,65.12424 30.658586,65.10858 C 30.707251,65.09296 30.752236,65.06361 30.793566,65.0206 C 30.834896,64.97759 30.877227,64.90888 30.920559,64.81447 L 30.920559,64.81447 L 30.920488,64.81448 z M 32.984795,65.366871 L 33.018095,65.386311 L 32.760127,65.744071 L 31.620543,65.367241 L 31.633826,65.327081 L 31.689179,65.345391 C 31.751401,65.365961 31.802598,65.360421 31.84277,65.328761 C 31.865611,65.310631 31.890924,65.259601 31.918677,65.17567 L 32.23271,64.226009 C 32.263094,64.134118 32.271986,64.073248 32.259391,64.043398 C 32.241698,64.002228 32.204996,63.972438 32.149285,63.954008 L 32.093932,63.935708 L 32.107216,63.895548 L 32.773601,64.115908 L 32.760317,64.156068 C 32.682414,64.129498 32.625212,64.118608 32.588715,64.123398 C 32.552218,64.128188 32.524359,64.140268 32.505116,64.159568 C 32.485888,64.178888 32.461793,64.232329 32.432842,64.319879 L 32.127064,65.244571 C 32.10721,65.304621 32.099359,65.347781 32.103512,65.374041 C 32.107153,65.392111 32.116853,65.407751 32.132543,65.420961 C 32.148244,65.434181 32.20348,65.456461 32.298263,65.487801 L 32.405709,65.523331 C 32.518582,65.560661 32.600562,65.578541 32.651648,65.576971 C 32.702731,65.575411 32.754088,65.559671 32.805712,65.529801 C 32.857333,65.499911 32.917029,65.445611 32.984801,65.366881 L 32.984801,65.366881 L 32.984795,65.366871 z M 34.648417,66.247872 L 34.158566,65.901152 L 33.931398,66.040072 C 33.875465,66.074242 33.838916,66.103462 33.821747,66.127712 C 33.808094,66.147002 33.805278,66.170442 33.813271,66.198052 C 33.821292,66.225652 33.854217,66.263202 33.912092,66.310713 L 33.887659,66.345233 L 33.489246,66.063242 L 33.51368,66.028712 C 33.573157,66.056802 33.615954,66.068892 33.642072,66.064972 C 33.694928,66.057562 33.772996,66.021792 33.876287,65.957652 L 35.058364,65.231381 L 35.091021,65.254501 L 34.78648,66.618693 C 34.762075,66.728383 34.755396,66.806064 34.766484,66.851724 C 34.777577,66.897394 34.807839,66.940054 34.857264,66.979704 L 34.832831,67.014234 L 34.333648,66.660913 L 34.358081,66.626383 C 34.410223,66.659563 34.450224,66.675263 34.47808,66.673513 C 34.505927,66.671743 34.527121,66.660603 34.541656,66.640083 C 34.561027,66.612713 34.579183,66.560673 34.59613,66.483973 L 34.6484,66.247872 L 34.648417,66.247872 z M 34.671172,66.160332 L 34.818472,65.497121 L 34.23637,65.852582 L 34.671172,66.160332 z M 36.509457,66.499113 L 36.759956,66.837064 L 36.390298,68.290656 L 37.108446,67.758345 C 37.184973,67.701615 37.226374,67.657655 37.232649,67.626435 C 37.24158,67.584735 37.22787,67.539385 37.191578,67.490405 L 37.159589,67.447245 L 37.193569,67.422055 L 37.51486,67.855516 L 37.48088,67.880706 L 37.448206,67.836616 C 37.409178,67.783965 37.365578,67.758415 37.317404,67.759975 C 37.287828,67.761025 37.238135,67.787395 37.168353,67.839156 L 36.118679,68.617207 L 36.09416,68.584147 L 36.488448,67.019814 L 35.721626,67.588195 C 35.645096,67.644925 35.60347,67.688585 35.596743,67.719185 C 35.588267,67.761505 35.601948,67.806855 35.637814,67.855226 L 35.670488,67.899306 L 35.636508,67.924486 L 35.315217,67.491025 L 35.349197,67.465845 L 35.381188,67.509005 C 35.420666,67.562265 35.464494,67.588125 35.512667,67.586565 C 35.542241,67.585515 35.591936,67.559145 35.661722,67.507385 L 36.527724,66.865484 C 36.543198,66.798054 36.550736,66.750003 36.550366,66.721343 C 36.550081,66.692693 36.542231,66.655993 36.527098,66.611243 C 36.519447,66.589413 36.502238,66.560423 36.47546,66.524303 L 36.50944,66.499123 L 36.509457,66.499113 z M 38.463881,70.10087 L 38.126905,70.23829 L 38.112455,70.19733 C 38.170007,70.16807 38.2093,70.14204 38.230335,70.11924 C 38.264124,70.08223 38.284351,70.04172 38.291018,69.99774 C 38.297674,69.95375 38.290449,69.901579 38.269002,69.841229 L 38.196156,69.635399 L 37.079706,70.03042 C 36.989895,70.06217 36.937296,70.09171 36.921887,70.11899 C 36.901379,70.15697 36.901151,70.20433 36.921318,70.26109 L 36.93921,70.31175 L 36.899337,70.32585 L 36.680098,69.706199 L 36.719974,69.692099 L 36.738293,69.743819 C 36.760166,69.805599 36.794337,69.842819 36.840846,69.855469 C 36.869427,69.863139 36.924672,69.852489 37.006572,69.823499 L 38.123022,69.428489 L 38.0609,69.252828 C 38.03675,69.184578 38.014561,69.137858 37.994337,69.112678 C 37.967485,69.080148 37.92993,69.057458 37.881734,69.044598 C 37.833532,69.031748 37.775494,69.034488 37.70762,69.052848 L 37.69317,69.011888 L 38.041964,68.907888 L 38.464048,70.10085 L 38.463881,70.10087 z M 37.236912,72.850295 L 37.215437,72.437044 L 37.911956,71.875433 C 37.9084,71.836693 37.906011,71.805153 37.904731,71.780803 C 37.904162,71.770903 37.903878,71.760263 37.903593,71.748813 C 37.903403,71.737373 37.903334,71.725543 37.903465,71.713333 L 37.453685,71.736713 C 37.356271,71.741773 37.296321,71.755573 37.273836,71.778113 C 37.24185,71.808773 37.227366,71.853023 37.230373,71.910863 L 37.23353,71.971373 L 37.191293,71.973643 L 37.156813,71.310392 L 37.19905,71.308112 L 37.202065,71.366332 C 37.205478,71.431782 37.229201,71.477483 37.273296,71.503423 C 37.297729,71.518183 37.354069,71.523253 37.442352,71.518673 L 38.442374,71.466683 C 38.539787,71.461622 38.599737,71.447822 38.622225,71.425282 C 38.654162,71.393862 38.668615,71.348852 38.665569,71.290252 L 38.662554,71.232032 L 38.704791,71.229762 L 38.734108,71.793703 C 38.742642,71.958083 38.736953,72.079904 38.717042,72.159164 C 38.697131,72.238414 38.656424,72.306924 38.594947,72.364684 C 38.533464,72.422434 38.458203,72.453634 38.369161,72.458264 C 38.274031,72.463214 38.189844,72.436504 38.116602,72.378104 C 38.043361,72.319714 37.988898,72.226204 37.953212,72.097564 L 37.525757,72.440294 C 37.427573,72.518655 37.363103,72.584965 37.332349,72.639215 C 37.301595,72.693475 37.283843,72.763075 37.279101,72.848025 L 37.236864,72.850305 L 37.236912,72.850295 z M 37.975441,71.709593 C 37.976294,71.724043 37.976579,71.736613 37.976863,71.747293 C 37.977045,71.757953 37.977432,71.766713 37.977717,71.773573 C 37.985397,71.921213 38.023142,72.030864 38.090943,72.102504 C 38.158768,72.174144 38.242148,72.207394 38.341086,72.202254 C 38.437737,72.197224 38.514745,72.162894 38.572103,72.099244 C 38.629458,72.035594 38.655548,71.953923 38.650365,71.854223 C 38.64809,71.810083 38.637736,71.750713 38.619355,71.676123 L 37.975506,71.709593 L 37.975441,71.709593 z M 38.400438,74.898239 L 38.263225,75.42124 L 38.222316,75.41051 L 38.229854,75.38177 C 38.234889,75.36259 38.233751,75.33236 38.226469,75.29106 C 38.219187,75.24976 38.203628,75.20984 38.179888,75.1713 C 38.156109,75.13275 38.114287,75.081989 38.054391,75.019009 L 37.579819,74.508048 L 37.203883,74.409408 C 37.11174,74.385228 37.051537,74.380468 37.023272,74.395098 C 36.984963,74.414988 36.957878,74.455158 36.94202,74.515598 L 36.929249,74.564258 L 36.88834,74.553528 L 37.055434,73.916647 L 37.096343,73.927367 L 37.082405,73.980447 C 37.065765,74.043837 37.073132,74.093838 37.104506,74.130428 C 37.123849,74.152838 37.175524,74.175058 37.259554,74.197108 L 37.614484,74.290228 L 38.350436,74.043677 C 38.43691,74.014367 38.491637,73.993477 38.514608,73.980977 C 38.537563,73.968467 38.569122,73.938357 38.609234,73.890577 C 38.62047,73.877777 38.629771,73.857367 38.63711,73.829347 L 38.678022,73.840107 L 38.509767,74.481408 L 38.468858,74.470678 L 38.477562,74.437508 C 38.486636,74.402858 38.486892,74.368858 38.478416,74.335488 C 38.469825,74.302118 38.449331,74.281168 38.416896,74.272668 C 38.390357,74.265698 38.336546,74.275618 38.25546,74.302398 L 37.690166,74.488518 L 38.075182,74.903889 C 38.132864,74.966299 38.178662,75.001949 38.212571,75.010849 C 38.233222,75.016249 38.253039,75.015739 38.272063,75.009429 C 38.291092,75.002999 38.307812,74.991019 38.322247,74.973549 C 38.336697,74.956049 38.349127,74.927409 38.359566,74.887609 L 38.400475,74.898329 L 38.400438,74.898239 z" id="text1930" style="font-size:4px;font-family:Times New Roman"/>
</svg>
