<?xml version="1.0" encoding="UTF-8" standalone="no"?>
<svg height="256" id="svg2" inkscape:output_extension="org.inkscape.output.svg.inkscape" inkscape:version="0.46" sodipodi:docname="Flag_of_Angola.svg" sodipodi:version="0.32" version="1.0" width="256" xmlns="http://www.w3.org/2000/svg" xmlns:cc="http://creativecommons.org/ns#" xmlns:dc="http://purl.org/dc/elements/1.1/" xmlns:inkscape="http://www.inkscape.org/namespaces/inkscape" xmlns:rdf="http://www.w3.org/1999/02/22-rdf-syntax-ns#" xmlns:sodipodi="http://sodipodi.sourceforge.net/DTD/sodipodi-0.dtd" xmlns:svg="http://www.w3.org/2000/svg" xmlns:xlink="http://www.w3.org/1999/xlink">
  <metadata>
    <rdf:RDF xmlns:cc="http://web.resource.org/cc/" xmlns:dc="http://purl.org/dc/elements/1.1/" xmlns:rdf="http://www.w3.org/1999/02/22-rdf-syntax-ns#">
      <cc:Work rdf:about="">
        <dc:title></dc:title>
        <dc:description></dc:description>
        <dc:subject>
          <rdf:Bag>
            <rdf:li>unsorted</rdf:li>
          </rdf:Bag>
        </dc:subject>
        <dc:publisher>
          <cc:Agent rdf:about="http://www.openclipart.org/">
            <dc:title>Open Clip Art Library, Source: Wikimedia Commons</dc:title>
          </cc:Agent>
        </dc:publisher>
        <dc:creator>
          <cc:Agent>
            <dc:title></dc:title>
          </cc:Agent>
        </dc:creator>
        <dc:rights>
          <cc:Agent>
            <dc:title></dc:title>
          </cc:Agent>
        </dc:rights>
        <dc:date></dc:date>
        <dc:format>image/svg+xml</dc:format>
        <dc:type rdf:resource="http://purl.org/dc/dcmitype/StillImage"/>
        <cc:license rdf:resource="http://web.resource.org/cc/PublicDomain"/>
        <dc:language>en</dc:language>
      </cc:Work>
      <cc:License rdf:about="http://web.resource.org/cc/PublicDomain">
        <cc:permits rdf:resource="http://web.resource.org/cc/Reproduction"/>
        <cc:permits rdf:resource="http://web.resource.org/cc/Distribution"/>
        <cc:permits rdf:resource="http://web.resource.org/cc/DerivativeWorks"/>
      </cc:License>
    </rdf:RDF>
  </metadata>
  <defs id="defs27">
    <inkscape:perspective id="perspective31" inkscape:persp3d-origin="225 : 100 : 1" inkscape:vp_x="0 : 150 : 1" inkscape:vp_y="0 : 1000 : 0" inkscape:vp_z="450 : 150 : 1" sodipodi:type="inkscape:persp3d"/>
  </defs>
  <sodipodi:namedview bordercolor="#666666" borderopacity="1.0" gridtolerance="10.0" guidetolerance="10.0" id="base" inkscape:current-layer="svg2" inkscape:cx="225" inkscape:cy="150" inkscape:pageopacity="0.0" inkscape:pageshadow="2" inkscape:window-height="695" inkscape:window-width="878" inkscape:window-x="33" inkscape:window-y="245" inkscape:zoom="1.2422222" objecttolerance="10.0" pagecolor="#ffffff" showgrid="false"/>
  <rect height="170.66699" id="rect4" style="fill:#ce1126" width="256" x="4.0244876e-07" y="42.333"/>
  <rect height="85.333496" id="rect6" style="fill:#000000" width="256" x="4.0244876e-07" y="127.6665"/>
  <path d="M 113.39346,107.55975 L 124.55285,107.55975 L 127.99999,96.946624 L 131.44713,107.55975 L 142.60651,107.55975 L 133.57968,114.11809 L 137.02682,124.73122 L 127.99999,118.17287 L 118.97316,124.73122 L 122.42029,114.11809 L 113.39346,107.55975 z" id="path8" style="fill:#f9d616"/>
  <path d="M 172.15963,123.3173 C 172.44454,126.20987 172.44454,129.12343 172.15963,132.016 L 163.66739,131.17959 C 163.89749,128.84327 163.89749,126.49001 163.66739,124.15371 L 172.15963,123.3173 M 170.46261,140.54758 C 169.61887,143.32898 168.50391,146.02078 167.13376,148.58414 L 159.60802,144.56154 C 160.71468,142.49113 161.61525,140.31701 162.29671,138.07048 L 170.46261,140.54758 M 162.30102,155.81686 C 160.45711,158.06365 158.39692,160.12386 156.15011,161.96776 L 150.73662,155.3714 C 152.55136,153.88209 154.21536,152.21807 155.70466,150.40335 L 162.30102,155.81686 M 148.91741,166.80051 C 146.35405,168.17066 143.66228,169.28563 140.88087,170.12935 L 138.40377,161.96346 C 140.6503,161.28198 142.82442,160.38141 144.89483,159.27477 L 148.91741,166.80051 M 132.34933,171.8264 C 129.45675,172.11129 126.54319,172.11129 123.65062,171.8264 L 124.48704,163.33414 C 126.82334,163.56425 129.1766,163.56425 131.51291,163.33414 L 132.34933,171.8264 M 115.11908,170.12935 C 112.33768,169.28563 109.64589,168.17066 107.08254,166.80051 L 111.10512,159.27477 C 113.17552,160.38141 115.34965,161.28198 117.59617,161.96346 L 115.11908,170.12935 M 140.88087,85.203932 C 143.66228,86.047674 146.35405,87.162646 148.91741,88.532788 L 144.89483,96.058533 C 142.82442,94.95187 140.6503,94.051319 138.40377,93.369847 L 140.88087,85.203932 M 156.15011,93.365527 C 158.39692,95.209441 160.45711,97.269635 162.30102,99.516449 L 155.70466,104.92995 C 154.21536,103.11522 152.55136,101.45121 150.73662,99.9619 L 156.15011,93.365527 M 167.13376,106.74916 C 168.50391,109.31253 169.61887,112.00431 170.46261,114.78573 L 162.29671,117.26282 C 161.61525,115.0163 160.71468,112.84217 159.60802,110.77176 L 167.13376,106.74916 z" id="path10" style="fill:#f9d616"/>
  <path d="M 159.62263,170.25711 L 163.77099,165.39221 C 165.95453,167.50525 168.89474,169.58822 171.02723,171.48078 C 173.15971,173.37335 174.79358,174.9467 176.1161,177.09669 C 178.05439,180.24771 175.87782,183.8164 172.85965,181.72169 C 171.22748,180.58891 170.20192,177.53093 167.70155,175.00039 C 165.84961,173.42384 164.39048,171.77109 159.73576,170.97364 C 159.51228,170.93536 159.44691,170.46319 159.62263,170.25711 z" id="path12" style="fill:#f9d616"/>
  <path d="M 165.77768,168.79546 C 165.77799,169.00031 165.66888,169.18975 165.49151,169.29227 C 165.31416,169.39479 165.09554,169.39479 164.91818,169.29227 C 164.74082,169.18975 164.63171,169.00031 164.63202,168.79546 C 164.63171,168.59061 164.74082,168.40117 164.91818,168.29865 C 165.09554,168.19614 165.31416,168.19614 165.49151,168.29865 C 165.66888,168.40117 165.77799,168.59061 165.77768,168.79546 L 165.77768,168.79546 z" id="path13009" style="fill:#000000"/>
  <path d="M 132.26667,87.150726 L 131.456,94.74541 C 148.18018,96.499413 161.28,110.49789 161.28,127.68413 C 161.28001,146.0547 146.37056,160.96419 128,160.96419 C 119.99035,160.96418 112.75284,158.00387 107.008,153.28418 L 102.144,159.21486 C 109.21314,165.01889 118.14653,168.64422 128,168.64421 C 150.60992,168.64421 168.96,150.29412 168.96,127.68413 C 168.96,106.538 152.84164,89.31774 132.26667,87.150726 z" id="path15" style="fill:#f9d616"/>
  <path d="M 131.61846,154.88506 L 143.13694,161.69602 L 145.64095,171.41162 L 158.86217,170.41001 L 164.6715,163.59908 L 143.13694,148.67509 L 131.61846,154.88506 z" id="path17" style="fill:#000000"/>
  <path d="M 159.09731,169.58766 C 144.28615,159.73789 134.86784,154.41924 120.67346,146.3485 C 115.09745,143.17804 106.43826,135.20854 113.26874,121.87471 C 113.69874,130.62836 148.29451,154.65594 162.91288,165.10332 L 159.09731,169.58766 z" id="path19" style="fill:#f9d616"/>
  <path d="M 122.9287,137.63316 C 134.33251,148.37997 148.6937,157.1471 161.5062,166.8374" id="path11763" style="fill:none;fill-opacity:0.75;fill-rule:evenodd;stroke:#000000;stroke-width:0.85333413;stroke-linecap:round;stroke-linejoin:miter;stroke-miterlimit:4;stroke-opacity:1"/>
  <use height="300" id="use22" transform="translate(4.2209109,3.6782144)" width="450" x="0" xlink:href="#path13009" y="0"/>
  <use height="300" id="use24" transform="translate(7.9292416,7.4469499)" width="450" x="0" xlink:href="#path13009" y="0"/>
</svg>
