<?xml version="1.0" encoding="UTF-8" standalone="no"?>
<!-- Created with Inkscape (http://www.inkscape.org/) --><svg height="256" id="svg2" inkscape:output_extension="org.inkscape.output.svg.inkscape" inkscape:version="0.46" sodipodi:docname="Flag_of_Portugal.svg" sodipodi:version="0.32" version="1.0" width="256" xmlns="http://www.w3.org/2000/svg" xmlns:cc="http://creativecommons.org/ns#" xmlns:dc="http://purl.org/dc/elements/1.1/" xmlns:inkscape="http://www.inkscape.org/namespaces/inkscape" xmlns:rdf="http://www.w3.org/1999/02/22-rdf-syntax-ns#" xmlns:sodipodi="http://sodipodi.sourceforge.net/DTD/sodipodi-0.dtd" xmlns:svg="http://www.w3.org/2000/svg" xmlns:xlink="http://www.w3.org/1999/xlink">
  <metadata>
    <rdf:RDF xmlns:cc="http://web.resource.org/cc/" xmlns:dc="http://purl.org/dc/elements/1.1/" xmlns:rdf="http://www.w3.org/1999/02/22-rdf-syntax-ns#">
      <cc:Work rdf:about="">
        <dc:title></dc:title>
        <dc:description></dc:description>
        <dc:subject>
          <rdf:Bag>
            <rdf:li>unsorted</rdf:li>
          </rdf:Bag>
        </dc:subject>
        <dc:publisher>
          <cc:Agent rdf:about="http://www.openclipart.org/">
            <dc:title>Open Clip Art Library, Source: Wikimedia Commons</dc:title>
          </cc:Agent>
        </dc:publisher>
        <dc:creator>
          <cc:Agent>
            <dc:title></dc:title>
          </cc:Agent>
        </dc:creator>
        <dc:rights>
          <cc:Agent>
            <dc:title></dc:title>
          </cc:Agent>
        </dc:rights>
        <dc:date></dc:date>
        <dc:format>image/svg+xml</dc:format>
        <dc:type rdf:resource="http://purl.org/dc/dcmitype/StillImage"/>
        <cc:license rdf:resource="http://web.resource.org/cc/PublicDomain"/>
        <dc:language>en</dc:language>
      </cc:Work>
      <cc:License rdf:about="http://web.resource.org/cc/PublicDomain">
        <cc:permits rdf:resource="http://web.resource.org/cc/Reproduction"/>
        <cc:permits rdf:resource="http://web.resource.org/cc/Distribution"/>
        <cc:permits rdf:resource="http://web.resource.org/cc/DerivativeWorks"/>
      </cc:License>
    </rdf:RDF>
  </metadata>
  <sodipodi:namedview bordercolor="#666666" borderopacity="1.0" gridtolerance="10.0" guidetolerance="10.0" id="base" inkscape:current-layer="svg2" inkscape:cx="300" inkscape:cy="200" inkscape:pageopacity="0.0" inkscape:pageshadow="2" inkscape:window-height="674" inkscape:window-width="858" inkscape:window-x="33" inkscape:window-y="157" inkscape:zoom="0.93166667" objecttolerance="10.0" pagecolor="#ffffff" showgrid="false"/>
  <defs id="defs267">
    <inkscape:perspective id="perspective3224" inkscape:persp3d-origin="300 : 133.33333 : 1" inkscape:vp_x="0 : 200 : 1" inkscape:vp_y="0 : 1000 : 0" inkscape:vp_z="600 : 200 : 1" sodipodi:type="inkscape:persp3d"/>
  </defs>
  <path d="M 102.4,213 L 256,213 L 256,42.33333 L 102.4,42.33333 L 102.4,213 L 102.4,213 z" id="path1339" style="fill:#dc241f"/>
  <path d="M 0,213 L 102.4,213 L 102.4,42.33333 L 0,42.33333 L 0,213 L 0,213 z" id="path1341" style="fill:#006233"/>
  <path d="M 135.78229,154.13556 C 122.89169,153.74948 63.786027,116.85323 63.380774,110.98112 L 66.644625,105.53799 C 72.507443,114.05696 132.93272,149.93647 138.86703,148.66458 L 135.78229,154.13556" id="path1343" style="fill:#ffe805;fill-rule:evenodd;stroke:none"/>
  <path d="M 65.95942,104.79932 C 64.803486,107.91129 81.383509,118.16161 101.33123,130.29416 C 121.27933,142.42671 138.47909,149.92329 139.75392,148.84821 C 139.83144,148.70936 140.38118,147.7641 140.33076,147.77201 C 140.09145,148.1325 139.50972,148.24539 138.60213,147.98386 C 133.21343,146.42938 119.15674,139.97815 101.74928,129.42115 C 84.342195,118.86415 69.197308,109.13651 66.842923,105.00214 C 66.67962,104.71578 66.562594,104.19386 66.586679,103.78746 L 66.529105,103.78746 L 66.027524,104.66272 L 65.959044,104.80007 L 65.95942,104.79932 z M 136.08821,154.30752 C 135.86921,154.70414 135.46208,154.71806 134.68769,154.63227 C 129.86642,154.09868 115.23628,146.98442 97.925525,136.62159 C 77.781756,124.56317 61.145293,113.57681 62.952567,110.70416 L 63.44361,109.83605 L 63.540314,109.86615 C 61.917419,114.73242 96.37149,134.43192 98.399637,135.68875 C 118.33532,148.03955 135.14149,155.25165 136.6293,153.37694 L 136.08821,154.30752" id="path1345" style="fill:#ffe805;fill-rule:evenodd;stroke:none"/>
  <path d="M 65.95942,104.79932 C 64.80311,107.91129 81.38313,118.16161 101.33123,130.29416 C 121.27896,142.42596 138.47909,149.92329 139.75392,148.84821 C 139.83182,148.70936 140.38118,147.7641 140.33076,147.77163 C 140.09183,148.13175 139.5101,148.24539 138.60251,147.98386 C 133.21343,146.42938 119.15712,139.9774 101.74966,129.42115 C 84.342575,118.86415 69.197683,109.13576 66.843678,105.00214 C 66.679996,104.71578 66.563349,104.19311 66.587055,103.78671 L 66.52986,103.78595 L 66.028655,104.66197 L 65.959795,104.79932 L 65.95942,104.79932 z M 136.08783,154.30828 C 135.86921,154.70489 135.4617,154.71806 134.68769,154.63302 C 129.86642,154.09943 115.23628,146.98517 97.92515,136.62234 C 77.78138,124.56317 61.144917,113.57757 62.952192,110.70492 L 63.443234,109.8368 L 63.539938,109.86691 C 61.917043,114.73317 96.37111,134.43343 98.399262,135.6895 C 118.33495,148.04031 135.14149,155.2524 136.62892,153.37845 L 136.08783,154.30903 L 136.08783,154.30828 z" id="path1347" style="fill:none;stroke:#000000;stroke-width:0.24445035;stroke-linecap:round;stroke-linejoin:round"/>
  <path d="M 102.47136,114.53825 C 115.37249,114.43627 131.29252,112.7753 140.45456,109.12372 L 138.48059,105.91654 C 133.06517,108.91375 117.05748,110.88479 102.36224,111.17943 C 84.981495,111.0195 72.713267,109.40105 66.565982,105.27646 L 64.702643,108.69173 C 76.00233,113.47333 87.581589,114.48896 102.47136,114.53825" id="path1349" style="fill:#ffe805;fill-rule:evenodd;stroke:none"/>
  <path d="M 140.9885,109.19747 C 140.67318,109.70171 134.69785,111.76156 125.89554,113.28217 C 119.92774,114.19206 112.14251,114.96986 102.42696,114.97927 C 93.196817,114.98793 85.656917,114.33091 79.948002,113.55724 C 70.70807,112.1085 65.939098,110.09268 64.175851,109.38111 C 64.344427,109.04582 64.452796,108.80989 64.615347,108.49681 C 69.690611,110.51827 74.481783,111.73672 80.094374,112.60032 C 85.765286,113.36834 93.214502,114.03476 102.39912,114.02536 C 112.06913,114.01632 119.7682,113.17944 125.70176,112.29665 C 134.72796,110.84001 139.65835,108.96643 140.35108,108.09643 L 140.9885,109.19672 L 140.9885,109.19747 z M 139.25536,105.94439 C 138.27703,106.73009 133.40232,108.4588 124.82577,109.82852 C 119.10218,110.6496 111.82417,111.38376 102.52592,111.39279 C 93.692378,111.40144 86.474953,110.80614 80.985404,110.00576 C 72.275277,108.86897 67.64026,106.81702 65.968073,106.21871 C 66.134387,105.93122 66.303714,105.64524 66.477555,105.35887 C 67.778355,106.01363 72.251947,107.83039 81.080977,109.08119 C 86.508442,109.84997 93.736026,110.42345 102.52592,110.41442 C 111.78053,110.40576 118.97537,109.65655 124.66284,108.8415 C 133.28379,107.65541 137.92257,105.45069 138.62697,104.89791 L 139.25536,105.94439" id="path1351" style="fill:#ffe805;fill-rule:evenodd;stroke:none"/>
  <path d="M 140.98813,109.19672 C 140.6728,109.70096 134.69785,111.76156 125.89554,113.28217 C 119.92736,114.19206 112.14251,114.96986 102.42696,114.97927 C 93.196817,114.98793 85.656917,114.33091 79.948378,113.55724 C 70.708446,112.1085 65.939477,110.09268 64.176606,109.38035 C 64.345178,109.04507 64.453547,108.80989 64.616098,108.49681 C 69.691362,110.51752 74.482534,111.73597 80.095125,112.59957 C 85.766042,113.36759 93.215253,114.03401 102.39949,114.02536 C 112.06951,114.01557 119.76857,113.17869 125.70213,112.2959 C 134.72833,110.84001 139.65873,108.96643 140.35146,108.09643 L 140.98888,109.19672 L 140.98813,109.19672 z M 139.25573,105.94439 C 138.27741,106.73009 133.4027,108.4588 124.82615,109.82852 C 119.10256,110.64885 111.82455,111.383 102.5263,111.39203 C 93.692753,111.40069 86.475328,110.80539 80.986155,110.00576 C 72.276028,108.86821 67.640636,106.81627 65.969203,106.21796 C 66.135518,105.93047 66.304845,105.64524 66.478686,105.35887 C 67.77911,106.01363 72.252702,107.82964 81.081732,109.08044 C 86.508817,109.84997 93.737152,110.42345 102.52667,110.41442 C 111.78128,110.40501 118.97613,109.65655 124.6636,108.84074 C 133.28455,107.65466 137.92332,105.44994 138.62735,104.89791 L 139.25573,105.94364 L 139.25573,105.94439 z" id="path1353" style="fill:none;stroke:#000000;stroke-width:0.24454746;stroke-linecap:round;stroke-linejoin:round"/>
  <path d="M 60.109018,130.08043 C 68.044011,134.34838 85.668582,136.49929 102.34644,136.64718 C 117.53196,136.67126 137.31526,134.29984 144.7133,130.37958 L 144.50973,126.10786 C 142.19523,129.72483 120.99487,133.19428 102.182,133.05242 C 83.369135,132.91055 65.899213,130.00479 60.075529,126.24333 L 60.109397,130.07967" id="path1355" style="fill:#ffe805;fill-rule:evenodd;stroke:none"/>
  <path d="M 145.11892,129.46593 L 145.1193,130.48532 C 144.00739,131.81402 137.03568,133.82345 128.29319,135.23832 C 121.63906,136.25846 112.96393,137.02799 102.15453,137.02799 C 91.885103,137.02799 83.696124,136.29647 77.344896,135.32073 C 67.306125,133.85957 60.884531,131.29963 59.595772,130.53537 L 59.601417,129.34778 C 63.473335,131.92127 73.963268,133.80425 77.485999,134.38074 C 83.79546,135.35008 91.936277,136.07671 102.15453,136.07671 C 112.91351,136.07671 121.53972,135.3117 128.15171,134.29833 C 134.4243,133.39221 143.35982,131.03584 145.11892,129.46668 L 145.11892,129.46593 z M 145.12306,125.84257 L 145.12344,126.86196 C 144.01153,128.19066 137.03982,130.20009 128.29733,131.61496 C 121.6432,132.6351 112.96806,133.40463 102.15867,133.40463 C 91.889242,133.40463 83.699887,132.67311 77.349035,131.69737 C 67.310263,130.23621 60.88867,127.67627 59.59991,126.91125 L 59.60518,125.72367 C 63.477478,128.29753 73.967407,130.18089 77.489762,130.75663 C 83.799223,131.72597 91.940041,132.45297 102.1583,132.45297 C 112.91727,132.45297 121.54348,131.68834 128.15585,130.67422 C 134.42844,129.7681 143.36396,127.41173 145.12306,125.84257" id="path1357" style="fill:#ffe805;fill-rule:evenodd;stroke:none"/>
  <path d="M 145.11892,129.46668 L 145.1193,130.48532 C 144.00739,131.81478 137.03568,133.8242 128.29282,135.23907 C 121.63906,136.25921 112.96393,137.02874 102.15453,137.02874 C 91.885103,137.02874 83.695748,136.29647 77.344521,135.32148 C 67.305374,133.85957 60.884156,131.29963 59.595396,130.53537 L 59.601041,129.34702 C 63.47296,131.92127 73.962893,133.80425 77.485623,134.38074 C 83.795085,135.34933 91.935902,136.07596 102.15416,136.07596 C 112.91313,136.07596 121.53935,135.3117 128.15133,134.29833 C 134.42392,133.39221 143.35944,131.03584 145.11855,129.46668 L 145.11892,129.46668 z M 145.12306,125.84332 L 145.12344,126.86196 C 144.01153,128.19066 137.03982,130.20009 128.29696,131.61496 C 121.6432,132.6351 112.96806,133.40463 102.15867,133.40463 C 91.889242,133.40463 83.699887,132.67311 77.348659,131.69737 C 67.309513,130.23621 60.888294,127.67627 59.599535,126.91201 L 59.60518,125.72367 C 63.477099,128.29753 73.967031,130.18089 77.489762,130.75663 C 83.799223,131.72597 91.940041,132.45297 102.1583,132.45297 C 112.91727,132.45297 121.54348,131.68834 128.15547,130.67422 C 134.42806,129.7681 143.36358,127.41173 145.12269,125.84257 L 145.12306,125.84332 z" id="path1359" style="fill:none;stroke:#000000;stroke-width:0.24440409;stroke-linecap:round;stroke-linejoin:round"/>
  <path d="M 102.30918,153.40329 C 84.059985,153.29453 68.422925,148.42864 65.121067,147.6245 L 67.528883,151.39386 C 73.361596,153.84731 88.616358,157.50379 102.48453,157.09889 C 116.3527,156.69437 128.47268,155.62004 137.01386,151.46234 L 139.48263,147.55601 C 133.66196,150.29733 113.85383,153.37544 102.30918,153.40329" id="path1361" style="fill:#ffe805;fill-rule:evenodd;stroke:none"/>
  <path d="M 137.94214,150.58708 C 137.5794,151.14061 137.20952,151.68812 136.83399,152.22096 C 132.80554,153.64073 126.4577,155.13199 123.77934,155.56699 C 118.30823,156.69513 109.84268,157.52787 102.32951,157.53164 C 86.163392,157.29494 72.930005,154.12954 66.704452,151.42999 L 66.202121,150.56638 L 66.284523,150.43656 L 67.136422,150.76695 C 78.207706,154.7271 90.641873,156.30717 102.42057,156.59165 C 109.90327,156.61798 117.39462,155.73406 123.4516,154.65071 C 132.74082,152.78954 136.49685,151.38671 137.64939,150.75077 L 137.94214,150.58633 L 137.94214,150.58708 z M 140.08242,147.05554 C 140.09183,147.06645 140.10123,147.07774 140.11026,147.08865 C 139.83897,147.5466 139.55939,148.01246 139.27304,148.48057 C 137.1241,149.24935 131.29327,150.9551 122.77844,152.14608 C 117.1681,152.90958 113.68112,153.64976 102.52065,153.86726 C 81.607019,153.33517 68.066961,149.24559 64.850522,148.23673 L 64.373777,147.32308 C 76.493751,150.48698 88.873361,152.69547 102.52103,152.92125 C 112.73139,152.70375 117.07516,151.95191 122.63846,151.19405 C 132.56736,149.64935 137.57,148.01472 139.07211,147.54284 C 139.05292,147.51575 139.03072,147.48715 139.00588,147.45818 L 140.08242,147.05629" id="path1363" style="fill:#ffe805;fill-rule:evenodd;stroke:none"/>
  <path d="M 137.94176,150.58633 C 137.57903,151.14061 137.20914,151.68812 136.83399,152.22021 C 132.80554,153.64073 126.4577,155.13199 123.77934,155.56699 C 118.30785,156.69437 109.84231,157.52712 102.32913,157.53088 C 86.162637,157.29419 72.929626,154.12954 66.704077,151.42999 L 66.201745,150.56638 L 66.283772,150.43656 L 67.135671,150.76695 C 78.206955,154.72785 90.641122,156.30792 102.42019,156.59165 C 109.90289,156.61798 117.39387,155.73406 123.4516,154.65071 C 132.74045,152.78954 136.49647,151.38671 137.64902,150.75077 L 137.94214,150.58633 L 137.94176,150.58633 z M 140.08242,147.05554 C 140.09183,147.06645 140.10123,147.07699 140.11026,147.08865 C 139.83897,147.5466 139.55939,148.01246 139.27304,148.48057 C 137.12448,149.24859 131.29365,150.95472 122.77844,152.14532 C 117.1681,152.90958 113.68112,153.64976 102.52065,153.8665 C 81.607394,153.33442 68.067341,149.24521 64.850522,148.23673 L 64.373777,147.32233 C 76.493751,150.48623 88.873737,152.69472 102.52103,152.92049 C 112.73176,152.703 117.07554,151.95116 122.63921,151.19254 C 132.56811,149.6486 137.57075,148.01396 139.07248,147.54209 C 139.05367,147.515 139.03147,147.4864 139.00663,147.45705 L 140.08317,147.05478 L 140.08242,147.05554 z" id="path1365" style="fill:none;stroke:#000000;stroke-width:0.23460366;stroke-linecap:round;stroke-linejoin:round"/>
  <path d="M 102.33214,89.71585 C 123.28867,89.71585 140.20922,106.75531 140.20922,127.71616 C 140.20922,148.67625 123.28829,165.60131 102.33214,165.60131 C 81.375607,165.60131 64.397858,148.61943 64.397858,127.65858 C 64.397858,106.69774 81.375607,89.7166 102.33214,89.7166 L 102.33214,89.71585 z M 102.33214,85.96116 C 125.29349,85.96116 144.02094,104.69207 144.02094,127.65858 C 144.02094,150.62471 125.29349,169.35638 102.33214,169.35638 C 79.370786,169.35638 60.643337,150.62509 60.643337,127.65858 C 60.643337,104.69207 79.370786,85.96116 102.33214,85.96116" id="path1367" style="fill:#ffe805;fill-rule:evenodd;stroke:none"/>
  <path d="M 102.36036,85.45993 C 125.628,85.45993 144.60493,104.4392 144.60493,127.70863 C 144.60493,150.97881 125.628,169.9577 102.36036,169.9577 C 79.092715,169.9577 60.115793,150.97881 60.115793,127.70863 C 60.115793,104.4392 79.092715,85.45993 102.36036,85.45993 z M 102.36036,86.38939 C 125.01504,86.38939 143.67552,104.98446 143.67552,127.70863 C 143.67552,150.43355 125.01466,169.02862 102.36036,169.02862 C 79.706052,169.02862 61.045205,150.43355 61.045205,127.70863 C 61.045205,104.98446 79.705677,86.38939 102.36036,86.38939" id="path1369" style="fill:#ffe805;fill-rule:evenodd;stroke:none"/>
  <path d="M 102.36036,85.45993 C 125.628,85.45993 144.60493,104.4392 144.60493,127.70938 C 144.60493,150.97881 125.62763,169.95808 102.36036,169.95808 C 79.092715,169.95808 60.115793,150.97956 60.115793,127.70938 C 60.115793,104.4392 79.09309,85.45993 102.36036,85.45993 z M 102.36036,86.38939 C 125.01466,86.38939 143.67589,104.98446 143.67589,127.70938 C 143.67589,150.43355 125.01504,169.02862 102.36036,169.02862 C 79.706052,169.02862 61.045205,150.43355 61.045205,127.70938 C 61.045205,104.98521 79.706052,86.38939 102.36036,86.38939 z" id="path1371" style="fill:none;stroke:#000000;stroke-width:0.24440409;stroke-linecap:round;stroke-linejoin:round"/>
  <path d="M 102.39761,88.97153 C 123.61603,88.97153 141.09348,106.38842 141.09348,127.67175 C 141.09348,148.95546 123.61603,166.37159 102.39761,166.37159 C 81.179563,166.37159 63.701739,148.95546 63.701739,127.67175 C 63.701739,106.38842 81.179563,88.97153 102.39761,88.97153 z M 102.39761,89.90099 C 123.10655,89.90099 140.16407,106.89905 140.16407,127.67175 C 140.16407,148.44407 123.10618,165.44214 102.39761,165.44214 C 81.689045,165.44214 64.631151,148.44407 64.631151,127.67175 C 64.631151,106.89905 81.68867,89.90099 102.39761,89.90099 z" id="path1375" style="fill:none;stroke:#000000;stroke-width:0.24440409;stroke-linecap:round;stroke-linejoin:round"/>
  <path d="M 100.65054,170.27078 L 104.32605,170.27078 L 104.32605,85.26125 L 100.65054,85.26125 L 100.65054,170.27078 z" id="path1377" style="fill:#ffe805;fill-rule:evenodd;stroke:none"/>
  <path d="M 101.12879,85.29135 L 103.6969,85.29135" id="path1379" style="fill:none;stroke:#000000;stroke-width:0.24440409;stroke-linecap:round;stroke-linejoin:round"/>
  <path d="M 101.13331,170.18159 L 103.71384,170.18159" id="path1381" style="fill:none;stroke:#000000;stroke-width:0.24440409;stroke-linecap:round;stroke-linejoin:round"/>
  <path d="M 103.73453,84.80631 L 104.65604,84.80631 L 104.66394,170.67341 L 103.74168,170.67341 L 103.73491,84.80631 L 103.73453,84.80631 z M 100.14144,84.80706 L 101.0701,84.80706 L 101.07085,170.67266 L 100.14181,170.67266 L 100.14181,84.80706" id="path1383" style="fill:#ffe805;fill-rule:evenodd;stroke:none"/>
  <path d="M 103.73453,84.80631 L 104.65604,84.80631 L 104.66394,170.67341 L 103.74168,170.67341 L 103.73491,84.80631 L 103.73453,84.80631 z M 100.14144,84.80706 L 101.0701,84.80706 L 101.07122,170.67266 L 100.14181,170.67266 L 100.14181,84.80706 L 100.14144,84.80706 z" id="path1385" style="fill:none;stroke:#000000;stroke-width:0.24446167;stroke-linecap:round;stroke-linejoin:round"/>
  <path d="M 59.964527,125.91031 C 65.262174,121.03313 84.80803,117.87073 102.15002,117.95276 C 119.49201,118.03442 140.02974,121.59757 144.49769,125.80645 L 144.54246,129.44373 C 140.80074,125.92423 124.84459,121.72702 102.18426,121.67998 C 79.523558,121.63294 63.07072,125.94568 59.963776,129.5378 L 59.964527,125.91031" id="path1387" style="fill:#ffe805;fill-rule:evenodd;stroke:none"/>
  <path d="M 59.953993,126.07926 L 59.953993,129.21833" id="path1389" style="fill:none;stroke:#000000;stroke-width:0.24423586;stroke-linecap:round;stroke-linejoin:round"/>
  <path d="M 144.63654,126.20871 L 144.63654,129.34702" id="path1391" style="fill:none;stroke:#000000;stroke-width:0.24423586;stroke-linecap:round;stroke-linejoin:round"/>
  <path d="M 102.38068,121.16747 C 112.35736,121.14903 122.03679,122.11348 129.71515,123.60775 C 137.63811,125.19233 143.21344,127.17353 145.11968,129.39895 L 145.11742,130.49999 C 142.81835,127.73158 135.3157,125.70146 129.53642,124.54096 C 121.91675,123.05798 112.30167,122.10106 102.3803,122.12025 C 91.91069,122.13906 82.162031,123.13136 74.653743,124.59553 C 68.629124,125.79102 60.594419,128.16658 59.591258,130.50828 L 59.591258,129.36095 C 60.142507,127.74024 66.124983,125.31651 74.518281,123.63635 C 82.082261,122.16126 91.849357,121.18741 102.3803,121.16747 L 102.38068,121.16747 z M 102.38482,117.54411 C 112.3615,117.52604 122.04093,118.49012 129.7193,119.98439 C 137.64224,121.56897 143.21758,123.55017 145.12382,125.77559 L 145.12156,126.87664 C 142.82249,124.10822 135.31984,122.0781 129.54056,120.9176 C 121.92089,119.43462 112.30581,118.4777 102.38444,118.49689 C 91.914829,118.5157 82.21283,119.508 74.704542,120.97217 C 68.890641,122.07434 60.527817,124.54322 59.595396,126.88492 L 59.595396,125.73759 C 60.146645,124.13381 66.249907,121.62391 74.522795,120.01299 C 82.086775,118.5379 91.853871,117.56405 102.38482,117.54411" id="path1393" style="fill:#ffe805;fill-rule:evenodd;stroke:none"/>
  <path d="M 102.38068,121.16747 C 112.35736,121.14903 122.03716,122.11272 129.71515,123.60775 C 137.63811,125.19158 143.21344,127.17278 145.12006,129.3982 L 145.11779,130.49999 C 142.81873,127.73083 135.31608,125.70071 129.5368,124.54021 C 121.91751,123.05798 112.30243,122.10106 102.38068,122.1195 C 91.911066,122.13906 82.162406,123.1306 74.654118,124.59553 C 68.6295,125.79102 60.595174,128.16583 59.592009,130.50828 L 59.592009,129.36095 C 60.142882,127.73949 66.125359,125.31651 74.518656,123.63635 C 82.083012,122.16126 91.849732,121.18666 102.38068,121.16747 z M 102.38482,117.54411 C 112.3615,117.52604 122.0413,118.49012 129.7193,119.98439 C 137.64224,121.56897 143.21758,123.54942 145.12419,125.77484 L 145.12194,126.87664 C 142.82287,124.10822 135.32022,122.0781 129.54094,120.9176 C 121.92165,119.43462 112.30656,118.4777 102.38482,118.49689 C 91.915204,118.5157 82.213581,119.508 74.704917,120.97217 C 68.891017,122.07434 60.528572,124.54322 59.595772,126.88567 L 59.595772,125.73759 C 60.146645,124.13381 66.250283,121.62391 74.522795,120.01299 C 82.087151,118.5379 91.853871,117.56405 102.38482,117.54411 z" id="path1395" style="fill:none;stroke:#000000;stroke-width:0.24440409;stroke-linecap:round;stroke-linejoin:round"/>
  <path d="M 102.17749,99.06381 C 117.89959,98.98516 131.61311,101.26213 137.8872,104.47608 L 140.17574,108.4351 C 134.72269,105.49622 119.92774,102.44032 102.20006,102.89751 C 87.755806,102.98632 72.321937,104.48774 64.578095,108.61911 L 67.310263,104.04974 C 73.66563,100.75413 88.65286,99.08224 102.17749,99.06456" id="path1397" style="fill:#ffe805;fill-rule:evenodd;stroke:none"/>
  <path d="M 138.28531,105.11541 L 139.84273,107.6159" id="path1399" style="fill:none;stroke:#000000;stroke-width:0.2449467;stroke-linecap:round;stroke-linejoin:round"/>
  <path d="M 102.38557,102.33307 C 111.3527,102.30861 120.01805,102.81511 126.90924,104.05839 C 133.32669,105.25276 139.44688,107.04468 140.32136,108.01026 L 140.99941,109.20914 C 138.87117,107.81947 133.57541,106.27215 126.7749,104.98257 C 119.94505,103.69903 111.28647,103.27381 102.36902,103.29714 C 92.247462,103.26252 84.384341,103.79611 77.635383,104.97279 C 70.498483,106.30902 65.546641,108.21609 64.324484,109.12297 L 64.989747,107.85597 C 67.363319,106.64505 71.129506,105.1854 77.458155,104.04597 C 84.437018,102.77108 92.384051,102.38801 102.38519,102.33307 L 102.38557,102.33307 z M 102.38181,98.71385 C 110.96362,98.69052 119.43669,99.16879 126.04154,100.35676 C 131.25075,101.37013 136.4024,102.95396 138.28832,104.36206 L 139.28057,105.9395 C 137.59408,104.06366 131.24398,102.28716 125.63854,101.29224 C 119.08412,100.16184 110.96287,99.71442 102.38181,99.64293 C 93.375923,99.66739 85.052612,100.21904 78.594146,101.39572 C 72.432183,102.56826 68.456414,103.95642 66.774063,105.03977 L 67.646656,103.72273 C 69.968303,102.50052 73.719061,101.37803 78.442505,100.461 C 84.949137,99.27642 93.323247,98.73831 102.38181,98.71385" id="path1401" style="fill:#ffe805;fill-rule:evenodd;stroke:none"/>
  <path d="M 102.38557,102.33307 C 111.3527,102.30936 120.01767,102.81511 126.90886,104.05839 C 133.32631,105.25276 139.44651,107.04543 140.32136,108.00951 L 140.99979,109.20838 C 138.87155,107.81872 133.57541,106.27139 126.77528,104.98182 C 119.94618,103.69827 111.28722,103.27306 102.36977,103.29639 C 92.248589,103.26177 84.384717,103.79611 77.636514,104.97279 C 70.499234,106.30827 65.547392,108.21609 64.325611,109.12259 L 64.990498,107.85522 C 67.36407,106.6443 71.130257,105.18464 77.45891,104.04522 C 84.437773,102.77033 92.384802,102.38801 102.38595,102.33307 L 102.38557,102.33307 z M 102.38181,98.7131 C 110.96325,98.69052 119.43669,99.16879 126.04116,100.35601 C 131.25038,101.37013 136.40203,102.95321 138.28832,104.36206 L 139.28057,105.93874 C 137.5937,104.06366 131.24398,102.28679 125.63854,101.29148 C 119.0845,100.16109 110.96325,99.71367 102.38181,99.64218 C 93.375923,99.66739 85.052612,100.21904 78.594146,101.39497 C 72.432563,102.56751 68.456414,103.95566 66.774063,105.03977 L 67.646656,103.72273 C 69.968303,102.50052 73.719061,101.37803 78.442505,100.46024 C 84.948762,99.27566 93.322867,98.73831 102.38181,98.7131 z" id="path1403" style="fill:none;stroke:#000000;stroke-width:0.24454746;stroke-linecap:round;stroke-linejoin:round"/>
  <path d="M 123.37033,145.27189 C 115.59751,143.82089 107.81002,143.61017 102.37127,143.67414 C 76.170901,143.9812 67.707238,149.05405 66.674351,150.59009 L 64.71619,147.39797 C 71.386505,142.56294 85.653909,139.85172 102.51313,140.12867 C 111.26728,140.27204 118.82185,140.85342 125.17722,142.08428 L 123.36995,145.27264" id="path1405" style="fill:#ffe805;fill-rule:evenodd;stroke:none"/>
  <path d="M 65.151168,147.83974 L 66.43654,150.05274" id="path1407" style="fill:none;stroke:#000000;stroke-width:0.24440409;stroke-linecap:round;stroke-linejoin:round"/>
  <path d="M 102.22151,143.22371 C 109.50968,143.33246 116.66426,143.6335 123.569,144.92118 L 123.06892,145.80398 C 116.65561,144.62015 109.81898,144.16709 102.24634,144.20321 C 92.577084,144.12833 82.796817,145.03144 74.282355,147.47511 C 71.595716,148.22206 67.148087,149.95001 66.694293,151.3773 L 66.197227,150.55622 C 66.340215,149.71257 69.028736,147.96241 74.053577,146.55055 C 83.806374,143.75767 92.928905,143.28693 102.22189,143.22296 L 102.22151,143.22371 z M 102.55226,139.55595 C 110.10345,139.69706 117.90147,140.04626 125.48125,141.54769 L 124.96048,142.46735 C 118.11633,141.10817 111.57658,140.65549 102.59704,140.51738 C 92.896922,140.53432 82.607548,141.22671 73.251725,143.94658 C 70.231326,144.82636 65.018342,146.72854 64.844126,148.23372 L 64.347059,147.35244 C 64.459942,145.9846 68.973043,144.2002 73.033105,143.01938 C 82.460796,140.27844 92.777263,139.57363 102.55226,139.55595" id="path1409" style="fill:#ffe805;fill-rule:evenodd;stroke:none"/>
  <path d="M 102.22151,143.22371 C 109.50968,143.33246 116.66389,143.6335 123.569,144.92118 L 123.06892,145.80398 C 116.65561,144.62015 109.81898,144.16709 102.24634,144.20396 C 92.576704,144.12833 82.796817,145.03144 74.281975,147.47511 C 71.595341,148.22281 67.147712,149.95001 66.694293,151.3773 L 66.196851,150.55697 C 66.340215,149.71332 69.028356,147.96241 74.053577,146.55055 C 83.806374,143.75767 92.928905,143.28693 102.22151,143.22296 L 102.22151,143.22371 z M 102.55226,139.55595 C 110.10345,139.69706 117.90147,140.04626 125.48125,141.54769 L 124.96048,142.4666 C 118.11595,141.10779 111.57658,140.65473 102.59666,140.51663 C 92.896542,140.53432 82.606793,141.22595 73.251345,143.94582 C 70.230946,144.8256 65.017967,146.72778 64.844126,148.23372 L 64.346684,147.35244 C 64.459942,145.9846 68.972668,144.2002 73.03273,143.01938 C 82.46042,140.27844 92.776887,139.57363 102.55226,139.55595 z" id="path1411" style="fill:none;stroke:#000000;stroke-width:0.23460366;stroke-linecap:round;stroke-linejoin:round"/>
  <path d="M 66.94339,103.99329 C 79.922035,103.82471 139.86417,140.62199 140.04065,147.39797 L 136.32715,153.09021 C 134.65308,145.2241 73.828937,109.41572 63.795055,110.09042 L 66.94339,103.99329" id="path1419" style="fill:#ffe805;fill-rule:evenodd;stroke:none"/>
  <path d="M 139.76785,147.88113 L 136.61952,152.76621" id="path1421" style="fill:none;stroke:#000000;stroke-width:0.24447031;stroke-linecap:round;stroke-linejoin:round"/>
  <path d="M 66.847061,104.31503 L 63.918477,109.74197" id="path1423" style="fill:none;stroke:#000000;stroke-width:0.24447031;stroke-linecap:round;stroke-linejoin:round"/>
  <path d="M 63.423667,109.87293 C 65.83299,108.23904 83.536205,116.12509 102.06046,127.2947 C 120.53543,138.4963 138.18973,151.15453 136.59619,153.52407 L 136.07165,154.34779 L 135.83121,154.53819 C 135.88276,154.50057 136.14841,154.17657 135.80524,153.2983 C 135.01807,150.70825 122.49547,140.71532 101.71729,128.16959 C 81.461397,116.09047 64.579977,108.81139 62.891985,110.89156 L 63.424047,109.87293 L 63.423667,109.87293 z M 140.41242,147.81415 C 141.9356,144.80604 125.51474,132.43529 105.15612,120.39154 C 84.329028,108.58825 69.318844,101.63918 66.576896,103.71107 L 65.967322,104.81926 C 65.962428,104.88097 65.989521,104.74438 66.118208,104.64428 C 66.617156,104.20928 67.443089,104.23863 67.815983,104.23186 C 72.537545,104.30261 86.020783,110.50774 104.93825,121.35336 C 113.2277,126.18161 139.95523,143.32268 139.85364,148.14341 C 139.86079,148.55771 139.88788,148.64238 139.73172,148.84746 L 140.41167,147.81415" id="path1425" style="fill:#ffe805;fill-rule:evenodd;stroke:none"/>
  <path d="M 63.423667,109.87217 C 65.832614,108.23829 83.536205,116.12509 102.06046,127.2947 C 120.53543,138.4963 138.18935,151.15453 136.59581,153.52332 L 136.07165,154.34779 L 135.83121,154.53744 C 135.88276,154.50057 136.14841,154.17582 135.80524,153.29754 C 135.01807,150.70749 122.49547,140.71456 101.71729,128.16884 C 81.461397,116.09047 64.579601,108.81064 62.891985,110.89156 L 63.424047,109.87217 L 63.423667,109.87217 z M 140.41242,147.81415 C 141.9356,144.80529 125.51474,132.43529 105.15612,120.39154 C 84.329404,108.58749 69.318844,101.63918 66.576896,103.71107 L 65.967697,104.82001 C 65.962428,104.88097 65.989897,104.74438 66.118583,104.64504 C 66.617156,104.21004 67.443469,104.23939 67.816358,104.23261 C 72.537545,104.30336 86.020783,110.50849 104.939,121.35411 C 113.22807,126.18199 139.95599,143.32343 139.85402,148.14416 C 139.86117,148.55846 139.88826,148.64389 139.73248,148.84897 L 140.41242,147.8149 L 140.41242,147.81415 z" id="path1427" style="fill:none;stroke:#000000;stroke-width:0.244482;stroke-linecap:round;stroke-linejoin:round"/>
  <path d="M 77.054784,132.36304 C 77.054784,139.30496 79.897579,145.58422 84.50362,150.17315 C 89.118319,154.77187 95.389022,157.6735 102.34192,157.6735 C 109.33132,157.6735 115.67389,154.83509 120.26865,150.25406 C 124.8634,145.67377 127.71147,139.35237 127.71222,132.38599 L 127.71184,132.38599 L 127.71184,98.5987 L 77.049515,98.5385 L 77.054784,132.36304" id="path1429" style="fill:#ffffff;fill-rule:evenodd;stroke:none"/>
  <path d="M 77.054409,132.36304 C 77.054409,139.30534 79.897203,145.58422 84.502869,150.17315 C 89.117188,154.77187 95.387891,157.6735 102.34117,157.6735 C 109.33057,157.6735 115.67314,154.83509 120.2679,150.25406 C 124.86265,145.67377 127.71034,139.352 127.71147,132.38524 L 127.71071,132.38524 L 127.71071,98.59795 L 77.048388,98.53775 L 77.053653,132.36304 L 77.054409,132.36304 z" id="path1431" style="fill:none;stroke:#000000;stroke-width:0.28602535"/>
  <path d="M 78.003008,132.41083 L 78.003008,132.43002 L 78.003008,132.43002 C 78.003008,139.06752 80.751735,145.11234 85.160606,149.50071 C 89.578133,153.89736 95.662579,156.63116 102.31859,156.63116 C 109.00885,156.63116 115.08088,153.9173 119.47959,149.53759 C 123.87793,145.15788 126.60369,139.11305 126.60445,132.45147 L 126.60369,132.45147 L 126.60369,99.67303 L 78.032734,99.66438 L 78.003008,132.41083 M 116.83886,109.47894 L 116.84074,130.33819 L 116.82268,132.54479 L 116.82305,132.54479 C 116.82305,133.12617 116.78806,133.78807 116.7207,134.35101 C 116.32561,137.64963 114.80883,140.5234 112.56281,142.75974 C 109.93299,145.37839 106.30264,147.00135 102.30279,147.00135 C 98.323251,147.00135 94.776815,145.32119 92.135706,142.692 C 89.426867,139.99622 87.856653,136.29873 87.856653,132.47555 L 87.851008,109.42589 L 116.83923,109.47819" id="path1433" style="fill:#dc241f;fill-rule:evenodd;stroke:none"/>
  <path d="M 78.002633,132.41083 L 78.002633,132.43002 L 78.002633,132.43002 C 78.002633,139.06752 80.75098,145.11234 85.159855,149.50071 C 89.577378,153.89736 95.661824,156.63116 102.31784,156.63116 C 109.00847,156.63116 115.08012,153.9173 119.47921,149.53759 C 123.87717,145.15788 126.60332,139.11305 126.60407,132.45222 L 126.60332,132.45222 L 126.60332,99.67303 L 78.032358,99.66513 L 78.002633,132.41083 M 116.83886,109.47894 L 116.84036,130.33894 L 116.82268,132.54554 L 116.82305,132.54554 C 116.82305,133.12617 116.78806,133.78807 116.72033,134.35177 C 116.32561,137.64963 114.80883,140.52416 112.56244,142.76049 C 109.93262,145.37839 106.30264,147.0021 102.30241,147.0021 C 98.322876,147.0021 94.776439,145.32194 92.13533,142.69276 C 89.426116,139.99622 87.855898,136.29873 87.855898,132.47555 L 87.850253,109.42589 L 116.83811,109.47819 L 116.83886,109.47894 z" id="path1435" style="fill:none;stroke:#000000;stroke-width:0.21646693"/>
  <use height="400" id="use3438" transform="translate(-8.8512299,-1.731e-2)" width="600" x="0" xlink:href="#use3436" y="0"/>
  <use height="400" id="use3434" transform="translate(-2.87872e-2,22.10121)" width="600" x="0" xlink:href="#path1485" y="0"/>
  <use height="400" id="use3440" transform="translate(-8.8741845,2.164e-2)" width="600" x="0" xlink:href="#use3438" y="0"/>
  <use height="400" id="use3436" transform="translate(8.8824619,-10.98353)" width="600" x="0" xlink:href="#use3434" y="0"/>
  <path d="M 99.255676,117.59114 L 99.255676,117.5934 C 99.255676,118.53715 99.618031,119.39699 100.19939,120.02089 C 100.78187,120.64667 101.58409,121.03538 102.46158,121.03538 C 103.34358,121.03538 104.1443,120.64931 104.72415,120.02616 C 105.30362,119.40376 105.66372,118.54468 105.66372,117.59716 L 105.66372,117.59716 L 105.66372,113.00296 L 99.267341,112.99769 L 99.255676,117.59114" id="path1485" style="fill:#002c77"/>
  <use height="400" id="use6346" transform="translate(-12.323166,-14.60313)" width="600" x="0" xlink:href="#use5944" y="0"/>
  <g id="g6250" transform="matrix(0.4266667,0,0,0.4266667,0,42.33333)">
    <use height="400" id="use4364" transform="translate(10.60844,0)" width="600" x="0" xlink:href="#path1539" y="0"/>
    <path d="M 190.19141,154.43388 C 190.32634,148.9129 194.24376,147.60586 194.27198,147.58646 C 194.30021,147.56794 198.50337,148.99404 198.48926,154.48503 L 190.19141,154.43388" id="path1497" style="fill:#ffe805;fill-rule:evenodd;stroke:none"/>
    <path d="M 186.8093,147.68435 L 186.12758,154.03083 L 190.26813,154.03965 C 190.30782,148.79031 194.24288,147.91719 194.33813,147.93659 C 194.4272,147.9313 198.32699,149.09547 198.43105,154.03965 L 202.58218,154.03965 L 201.83168,147.64643 L 186.81018,147.68435" id="path1499" style="fill:#ffe805;fill-rule:evenodd;stroke:none"/>
    <path d="M 186.8093,147.68612 L 186.12758,154.03083 L 190.26813,154.03965 C 190.30782,148.79031 194.242,147.91719 194.33725,147.93659 C 194.42632,147.9313 198.32611,149.09723 198.43017,154.03965 L 202.5813,154.03965 L 201.83168,147.64643 L 186.8093,147.68435 L 186.8093,147.68612 z" id="path1501" style="fill:none;stroke:#000000;stroke-width:0.49936473"/>
    <path d="M 185.85155,154.05994 L 202.79737,154.05994 C 203.15366,154.05994 203.44557,154.41271 203.44557,154.84398 C 203.44557,155.27261 203.15454,155.62539 202.79737,155.62539 L 185.85155,155.62539 C 185.49437,155.62539 185.20246,155.27437 185.20246,154.84398 C 185.20246,154.41271 185.49437,154.05994 185.85155,154.05994" id="path1503" style="fill:#ffe805;fill-rule:evenodd;stroke:none"/>
    <path d="M 185.85066,154.05994 L 202.79649,154.05994 C 203.15366,154.05994 203.44557,154.41271 203.44557,154.84398 L 203.44557,154.84398 C 203.44557,155.27437 203.15366,155.62539 202.79649,155.62539 L 185.85066,155.62539 C 185.49349,155.62539 185.20158,155.27437 185.20158,154.84398 L 185.20158,154.84398 C 185.20158,154.41271 185.49349,154.05994 185.85066,154.05994 z" id="path1505" style="fill:none;stroke:#000000;stroke-width:0.49943003"/>
    <path d="M 192.01431,154.02907 C 192.03283,150.71648 194.27639,149.77897 194.28786,149.78074 C 194.28874,149.78074 196.62932,150.74735 196.64784,154.02907 L 192.01431,154.02907" id="path1507" style="fill:#ffe805;fill-rule:evenodd;stroke:none"/>
    <path d="M 192.01431,154.02907 C 192.03283,150.71648 194.27639,149.77897 194.28786,149.78074 C 194.28874,149.78074 196.6302,150.74735 196.64872,154.02907 L 192.01431,154.02907" id="path1509" style="fill:none;stroke:#000000;stroke-width:0.49703202"/>
    <path d="M 186.20784,145.05616 L 202.45254,145.05616 C 202.79472,145.05616 203.07517,145.37278 203.07517,145.76083 C 203.07517,146.14624 202.79472,146.46551 202.45254,146.46551 L 186.20784,146.46551 C 185.86566,146.46551 185.58521,146.14801 185.58521,145.76083 C 185.58521,145.37278 185.86566,145.05616 186.20784,145.05616" id="path1511" style="fill:#ffe805;fill-rule:evenodd;stroke:none"/>
    <path d="M 186.20784,145.05439 L 202.45254,145.05439 C 202.79472,145.05439 203.07517,145.37278 203.07517,145.75907 L 203.07517,145.75907 C 203.07517,146.14624 202.79472,146.46374 202.45254,146.46374 L 186.20784,146.46374 C 185.86566,146.46374 185.58521,146.14801 185.58521,145.75907 L 185.58521,145.75907 C 185.58521,145.37278 185.86566,145.05439 186.20784,145.05439 z" id="path1513" style="fill:none;stroke:#000000;stroke-width:0.49901107"/>
    <path d="M 186.5509,146.46551 L 202.09008,146.46551 C 202.41727,146.46551 202.68625,146.78213 202.68625,147.1693 C 202.68625,147.55735 202.41815,147.87397 202.09008,147.87397 L 186.5509,147.87397 C 186.22371,147.87397 185.95561,147.55735 185.95561,147.1693 C 185.95561,146.78213 186.22371,146.46551 186.5509,146.46551" id="path1515" style="fill:#ffe805;fill-rule:evenodd;stroke:none"/>
    <path d="M 186.5509,146.46551 L 202.0892,146.46551 C 202.41639,146.46551 202.68449,146.78213 202.68449,147.1693 L 202.68449,147.1693 C 202.68449,147.55735 202.41639,147.87397 202.0892,147.87397 L 186.5509,147.87397 C 186.22371,147.87397 185.95561,147.55735 185.95561,147.1693 L 185.95561,147.1693 C 185.95561,146.78213 186.22371,146.46551 186.5509,146.46551 z" id="path1517" style="fill:none;stroke:#000000;stroke-width:0.49901107"/>
    <use height="400" id="use4658" transform="translate(-5.27909,-3.162655)" width="600" x="0" xlink:href="#use4656" y="0"/>
    <path d="M 191.57159,135.88217 L 192.79832,135.88393 L 192.79832,136.75529 L 193.69345,136.75529 L 193.69345,135.86453 L 194.95017,135.86806 L 194.95017,136.75529 L 195.84795,136.75529 L 195.84795,135.86453 L 197.10555,135.86453 L 197.10378,137.87624 C 197.10378,138.19198 196.8498,138.39659 196.55524,138.39659 L 192.14395,138.39659 C 191.84762,138.39659 191.57423,138.15935 191.57335,137.87007 L 191.57071,135.88217 L 191.57159,135.88217 z" id="path1521" style="fill:none;stroke:#000000;stroke-width:0.50025284"/>
    <path d="M 196.19366,138.5721 L 196.47058,145.02529 L 192.16776,145.00942 L 192.45261,138.55887 L 196.19454,138.57386" id="path1523" style="fill:#ffe805;fill-rule:evenodd;stroke:none"/>
    <path d="M 196.19278,138.57386 L 196.46969,145.02529 L 192.16687,145.00942 L 192.45173,138.55711 L 196.19278,138.57386" id="path1525" style="fill:none;stroke:#000000;stroke-width:0.49897757"/>
    <use height="400" id="use4656" transform="translate(10.60845,0)" width="600" x="0" xlink:href="#path1535" y="0"/>
    <use height="400" id="use4366" transform="translate(10.60889,0)" width="600" x="0" xlink:href="#path1541" y="0"/>
    <use height="400" id="use4660" transform="translate(10.60889,-1.0585e-2)" width="600" x="0" xlink:href="#path1537" y="0"/>
    <path d="M 186.3022,139.04482 L 187.50247,139.04659 L 187.50247,139.91795 L 188.37909,139.91795 L 188.37909,139.02718 L 189.60847,139.03071 L 189.60847,139.91795 L 190.48773,139.91795 L 190.48773,139.02718 L 191.71798,139.02895 L 191.71622,141.04066 C 191.71622,141.35464 191.46752,141.55925 191.18002,141.55925 L 186.86309,141.55925 C 186.57295,141.55925 186.30485,141.32377 186.30485,141.03184 L 186.30308,139.04482" id="path1535" style="fill:#ffde00;fill-rule:evenodd;stroke:none"/>
    <path d="M 186.3022,139.04482 L 187.50159,139.04747 L 187.50159,139.91971 L 188.37909,139.91971 L 188.37909,139.02718 L 189.60847,139.03071 L 189.60847,139.91971 L 190.48773,139.91971 L 190.48773,139.02718 L 191.71798,139.02895 L 191.71622,141.04066 C 191.71622,141.35464 191.46752,141.55925 191.18002,141.55925 L 186.86309,141.55925 C 186.57383,141.55925 186.30485,141.32377 186.30396,141.03361 L 186.30132,139.04482 L 186.3022,139.04482 z" id="path1537" style="fill:none;stroke:#000000;stroke-width:0.50017256;stroke-opacity:1"/>
    <path d="M 190.93926,141.55925 L 191.07067,145.03676 L 186.94423,145.03852 L 187.06064,141.55925 L 190.93926,141.55925" id="path1539" style="fill:#ffde00;fill-rule:evenodd;stroke:none"/>
    <path d="M 190.94014,141.55925 L 191.07155,145.03676 L 186.94599,145.03852 L 187.0624,141.55925 L 190.94103,141.55925 L 190.94014,141.55925 z" id="path1541" style="fill:none;stroke:#000000;stroke-width:0.50127673"/>
    <path d="M 193.89806,140.61027 C 193.8716,139.98321 194.77467,139.97616 194.76409,140.61027 L 194.76409,142.14662 L 193.89806,142.14662 L 193.89806,140.61027" id="path1543" style="fill:#000000;fill-rule:evenodd;stroke:none"/>
    <use height="400" id="use4362" transform="translate(10.64108,0)" width="600" x="0" xlink:href="#path1547" y="0"/>
    <path d="M 188.56605,142.84424 C 188.56341,142.23834 189.40298,142.226 189.3924,142.84424 L 189.3924,144.03134 L 188.56605,144.03134 L 188.56605,142.84424" id="path1547" style="fill:#000000;fill-rule:evenodd;stroke:none"/>
  </g>
  <use height="400" id="use4984" transform="translate(-19.287356,0)" width="600" x="0" xlink:href="#use4982" y="0"/>
  <use height="400" id="use4982" transform="translate(38.792013,-19.76304)" width="600" x="0" xlink:href="#use4980" y="0"/>
  <g id="use4980" transform="matrix(0.4266667,0,0,0.4266667,0,62.09638)">
    <use height="400" id="use5166" transform="translate(10.60844,0)" width="600" x="0" xlink:href="#path1539" y="0"/>
    <path d="M 190.19141,154.43388 C 190.32634,148.9129 194.24376,147.60586 194.27198,147.58646 C 194.30021,147.56794 198.50337,148.99404 198.48926,154.48503 L 190.19141,154.43388" id="path5168" style="fill:#ffe805;fill-rule:evenodd;stroke:none"/>
    <path d="M 186.8093,147.68435 L 186.12758,154.03083 L 190.26813,154.03965 C 190.30782,148.79031 194.24288,147.91719 194.33813,147.93659 C 194.4272,147.9313 198.32699,149.09547 198.43105,154.03965 L 202.58218,154.03965 L 201.83168,147.64643 L 186.81018,147.68435" id="path5170" style="fill:#ffe805;fill-rule:evenodd;stroke:none"/>
    <path d="M 186.8093,147.68612 L 186.12758,154.03083 L 190.26813,154.03965 C 190.30782,148.79031 194.242,147.91719 194.33725,147.93659 C 194.42632,147.9313 198.32611,149.09723 198.43017,154.03965 L 202.5813,154.03965 L 201.83168,147.64643 L 186.8093,147.68435 L 186.8093,147.68612 z" id="path5172" style="fill:none;stroke:#000000;stroke-width:0.49936473"/>
    <path d="M 185.85155,154.05994 L 202.79737,154.05994 C 203.15366,154.05994 203.44557,154.41271 203.44557,154.84398 C 203.44557,155.27261 203.15454,155.62539 202.79737,155.62539 L 185.85155,155.62539 C 185.49437,155.62539 185.20246,155.27437 185.20246,154.84398 C 185.20246,154.41271 185.49437,154.05994 185.85155,154.05994" id="path5174" style="fill:#ffe805;fill-rule:evenodd;stroke:none"/>
    <path d="M 185.85066,154.05994 L 202.79649,154.05994 C 203.15366,154.05994 203.44557,154.41271 203.44557,154.84398 L 203.44557,154.84398 C 203.44557,155.27437 203.15366,155.62539 202.79649,155.62539 L 185.85066,155.62539 C 185.49349,155.62539 185.20158,155.27437 185.20158,154.84398 L 185.20158,154.84398 C 185.20158,154.41271 185.49349,154.05994 185.85066,154.05994 z" id="path5176" style="fill:none;stroke:#000000;stroke-width:0.49943003"/>
    <path d="M 192.01431,154.02907 C 192.03283,150.71648 194.27639,149.77897 194.28786,149.78074 C 194.28874,149.78074 196.62932,150.74735 196.64784,154.02907 L 192.01431,154.02907" id="path5178" style="fill:#ffe805;fill-rule:evenodd;stroke:none"/>
    <path d="M 192.01431,154.02907 C 192.03283,150.71648 194.27639,149.77897 194.28786,149.78074 C 194.28874,149.78074 196.6302,150.74735 196.64872,154.02907 L 192.01431,154.02907" id="path5180" style="fill:none;stroke:#000000;stroke-width:0.49703202"/>
    <path d="M 186.20784,145.05616 L 202.45254,145.05616 C 202.79472,145.05616 203.07517,145.37278 203.07517,145.76083 C 203.07517,146.14624 202.79472,146.46551 202.45254,146.46551 L 186.20784,146.46551 C 185.86566,146.46551 185.58521,146.14801 185.58521,145.76083 C 185.58521,145.37278 185.86566,145.05616 186.20784,145.05616" id="path5182" style="fill:#ffe805;fill-rule:evenodd;stroke:none"/>
    <path d="M 186.20784,145.05439 L 202.45254,145.05439 C 202.79472,145.05439 203.07517,145.37278 203.07517,145.75907 L 203.07517,145.75907 C 203.07517,146.14624 202.79472,146.46374 202.45254,146.46374 L 186.20784,146.46374 C 185.86566,146.46374 185.58521,146.14801 185.58521,145.75907 L 185.58521,145.75907 C 185.58521,145.37278 185.86566,145.05439 186.20784,145.05439 z" id="path5184" style="fill:none;stroke:#000000;stroke-width:0.49901107"/>
    <path d="M 186.5509,146.46551 L 202.09008,146.46551 C 202.41727,146.46551 202.68625,146.78213 202.68625,147.1693 C 202.68625,147.55735 202.41815,147.87397 202.09008,147.87397 L 186.5509,147.87397 C 186.22371,147.87397 185.95561,147.55735 185.95561,147.1693 C 185.95561,146.78213 186.22371,146.46551 186.5509,146.46551" id="path5186" style="fill:#ffe805;fill-rule:evenodd;stroke:none"/>
    <path d="M 186.5509,146.46551 L 202.0892,146.46551 C 202.41639,146.46551 202.68449,146.78213 202.68449,147.1693 L 202.68449,147.1693 C 202.68449,147.55735 202.41639,147.87397 202.0892,147.87397 L 186.5509,147.87397 C 186.22371,147.87397 185.95561,147.55735 185.95561,147.1693 L 185.95561,147.1693 C 185.95561,146.78213 186.22371,146.46551 186.5509,146.46551 z" id="path5188" style="fill:none;stroke:#000000;stroke-width:0.49901107"/>
    <use height="400" id="use5190" transform="translate(-5.27909,-3.162655)" width="600" x="0" xlink:href="#use4656" y="0"/>
    <path d="M 191.57159,135.88217 L 192.79832,135.88393 L 192.79832,136.75529 L 193.69345,136.75529 L 193.69345,135.86453 L 194.95017,135.86806 L 194.95017,136.75529 L 195.84795,136.75529 L 195.84795,135.86453 L 197.10555,135.86453 L 197.10378,137.87624 C 197.10378,138.19198 196.8498,138.39659 196.55524,138.39659 L 192.14395,138.39659 C 191.84762,138.39659 191.57423,138.15935 191.57335,137.87007 L 191.57071,135.88217 L 191.57159,135.88217 z" id="path5192" style="fill:none;stroke:#000000;stroke-width:0.50025284"/>
    <path d="M 196.19366,138.5721 L 196.47058,145.02529 L 192.16776,145.00942 L 192.45261,138.55887 L 196.19454,138.57386" id="path5194" style="fill:#ffe805;fill-rule:evenodd;stroke:none"/>
    <path d="M 196.19278,138.57386 L 196.46969,145.02529 L 192.16687,145.00942 L 192.45173,138.55711 L 196.19278,138.57386" id="path5196" style="fill:none;stroke:#000000;stroke-width:0.49897757"/>
    <use height="400" id="use5198" transform="translate(10.60845,0)" width="600" x="0" xlink:href="#path1535" y="0"/>
    <use height="400" id="use5200" transform="translate(10.60889,0)" width="600" x="0" xlink:href="#path1541" y="0"/>
    <use height="400" id="use5202" transform="translate(10.60889,-1.0585e-2)" width="600" x="0" xlink:href="#path1537" y="0"/>
    <path d="M 186.3022,139.04482 L 187.50247,139.04659 L 187.50247,139.91795 L 188.37909,139.91795 L 188.37909,139.02718 L 189.60847,139.03071 L 189.60847,139.91795 L 190.48773,139.91795 L 190.48773,139.02718 L 191.71798,139.02895 L 191.71622,141.04066 C 191.71622,141.35464 191.46752,141.55925 191.18002,141.55925 L 186.86309,141.55925 C 186.57295,141.55925 186.30485,141.32377 186.30485,141.03184 L 186.30308,139.04482" id="path5204" style="fill:#ffde00;fill-rule:evenodd;stroke:none"/>
    <path d="M 186.3022,139.04482 L 187.50159,139.04747 L 187.50159,139.91971 L 188.37909,139.91971 L 188.37909,139.02718 L 189.60847,139.03071 L 189.60847,139.91971 L 190.48773,139.91971 L 190.48773,139.02718 L 191.71798,139.02895 L 191.71622,141.04066 C 191.71622,141.35464 191.46752,141.55925 191.18002,141.55925 L 186.86309,141.55925 C 186.57383,141.55925 186.30485,141.32377 186.30396,141.03361 L 186.30132,139.04482 L 186.3022,139.04482 z" id="path5206" style="fill:none;stroke:#000000;stroke-width:0.50017256;stroke-opacity:1"/>
    <path d="M 190.93926,141.55925 L 191.07067,145.03676 L 186.94423,145.03852 L 187.06064,141.55925 L 190.93926,141.55925" id="path5208" style="fill:#ffde00;fill-rule:evenodd;stroke:none"/>
    <path d="M 190.94014,141.55925 L 191.07155,145.03676 L 186.94599,145.03852 L 187.0624,141.55925 L 190.94103,141.55925 L 190.94014,141.55925 z" id="path5210" style="fill:none;stroke:#000000;stroke-width:0.50127673"/>
    <path d="M 193.89806,140.61027 C 193.8716,139.98321 194.77467,139.97616 194.76409,140.61027 L 194.76409,142.14662 L 193.89806,142.14662 L 193.89806,140.61027" id="path5212" style="fill:#000000;fill-rule:evenodd;stroke:none"/>
    <use height="400" id="use5214" transform="translate(10.64108,0)" width="600" x="0" xlink:href="#path1547" y="0"/>
    <path d="M 188.56605,142.84424 C 188.56341,142.23834 189.40298,142.226 189.3924,142.84424 L 189.3924,144.03134 L 188.56605,144.03134 L 188.56605,142.84424" id="path5216" style="fill:#000000;fill-rule:evenodd;stroke:none"/>
  </g>
  <g id="use5132" transform="matrix(0.3016989,0.3016989,-0.3016989,0.3016989,102.58909,42.122)">
    <use height="400" id="use5328" transform="translate(10.60844,0)" width="600" x="0" xlink:href="#path1539" y="0"/>
    <path d="M 190.19141,154.43388 C 190.32634,148.9129 194.24376,147.60586 194.27198,147.58646 C 194.30021,147.56794 198.50337,148.99404 198.48926,154.48503 L 190.19141,154.43388" id="path5330" style="fill:#ffe805;fill-rule:evenodd;stroke:none"/>
    <path d="M 186.8093,147.68435 L 186.12758,154.03083 L 190.26813,154.03965 C 190.30782,148.79031 194.24288,147.91719 194.33813,147.93659 C 194.4272,147.9313 198.32699,149.09547 198.43105,154.03965 L 202.58218,154.03965 L 201.83168,147.64643 L 186.81018,147.68435" id="path5332" style="fill:#ffe805;fill-rule:evenodd;stroke:none"/>
    <path d="M 186.8093,147.68612 L 186.12758,154.03083 L 190.26813,154.03965 C 190.30782,148.79031 194.242,147.91719 194.33725,147.93659 C 194.42632,147.9313 198.32611,149.09723 198.43017,154.03965 L 202.5813,154.03965 L 201.83168,147.64643 L 186.8093,147.68435 L 186.8093,147.68612 z" id="path5334" style="fill:none;stroke:#000000;stroke-width:0.49936473"/>
    <path d="M 185.85155,154.05994 L 202.79737,154.05994 C 203.15366,154.05994 203.44557,154.41271 203.44557,154.84398 C 203.44557,155.27261 203.15454,155.62539 202.79737,155.62539 L 185.85155,155.62539 C 185.49437,155.62539 185.20246,155.27437 185.20246,154.84398 C 185.20246,154.41271 185.49437,154.05994 185.85155,154.05994" id="path5336" style="fill:#ffe805;fill-rule:evenodd;stroke:none"/>
    <path d="M 185.85066,154.05994 L 202.79649,154.05994 C 203.15366,154.05994 203.44557,154.41271 203.44557,154.84398 L 203.44557,154.84398 C 203.44557,155.27437 203.15366,155.62539 202.79649,155.62539 L 185.85066,155.62539 C 185.49349,155.62539 185.20158,155.27437 185.20158,154.84398 L 185.20158,154.84398 C 185.20158,154.41271 185.49349,154.05994 185.85066,154.05994 z" id="path5338" style="fill:none;stroke:#000000;stroke-width:0.49943003"/>
    <path d="M 192.01431,154.02907 C 192.03283,150.71648 194.27639,149.77897 194.28786,149.78074 C 194.28874,149.78074 196.62932,150.74735 196.64784,154.02907 L 192.01431,154.02907" id="path5340" style="fill:#ffe805;fill-rule:evenodd;stroke:none"/>
    <path d="M 192.01431,154.02907 C 192.03283,150.71648 194.27639,149.77897 194.28786,149.78074 C 194.28874,149.78074 196.6302,150.74735 196.64872,154.02907 L 192.01431,154.02907" id="path5342" style="fill:none;stroke:#000000;stroke-width:0.49703202"/>
    <path d="M 186.20784,145.05616 L 202.45254,145.05616 C 202.79472,145.05616 203.07517,145.37278 203.07517,145.76083 C 203.07517,146.14624 202.79472,146.46551 202.45254,146.46551 L 186.20784,146.46551 C 185.86566,146.46551 185.58521,146.14801 185.58521,145.76083 C 185.58521,145.37278 185.86566,145.05616 186.20784,145.05616" id="path5344" style="fill:#ffe805;fill-rule:evenodd;stroke:none"/>
    <path d="M 186.20784,145.05439 L 202.45254,145.05439 C 202.79472,145.05439 203.07517,145.37278 203.07517,145.75907 L 203.07517,145.75907 C 203.07517,146.14624 202.79472,146.46374 202.45254,146.46374 L 186.20784,146.46374 C 185.86566,146.46374 185.58521,146.14801 185.58521,145.75907 L 185.58521,145.75907 C 185.58521,145.37278 185.86566,145.05439 186.20784,145.05439 z" id="path5346" style="fill:none;stroke:#000000;stroke-width:0.49901107"/>
    <path d="M 186.5509,146.46551 L 202.09008,146.46551 C 202.41727,146.46551 202.68625,146.78213 202.68625,147.1693 C 202.68625,147.55735 202.41815,147.87397 202.09008,147.87397 L 186.5509,147.87397 C 186.22371,147.87397 185.95561,147.55735 185.95561,147.1693 C 185.95561,146.78213 186.22371,146.46551 186.5509,146.46551" id="path5348" style="fill:#ffe805;fill-rule:evenodd;stroke:none"/>
    <path d="M 186.5509,146.46551 L 202.0892,146.46551 C 202.41639,146.46551 202.68449,146.78213 202.68449,147.1693 L 202.68449,147.1693 C 202.68449,147.55735 202.41639,147.87397 202.0892,147.87397 L 186.5509,147.87397 C 186.22371,147.87397 185.95561,147.55735 185.95561,147.1693 L 185.95561,147.1693 C 185.95561,146.78213 186.22371,146.46551 186.5509,146.46551 z" id="path5350" style="fill:none;stroke:#000000;stroke-width:0.49901107"/>
    <use height="400" id="use5352" transform="translate(-5.27909,-3.162655)" width="600" x="0" xlink:href="#use4656" y="0"/>
    <path d="M 191.57159,135.88217 L 192.79832,135.88393 L 192.79832,136.75529 L 193.69345,136.75529 L 193.69345,135.86453 L 194.95017,135.86806 L 194.95017,136.75529 L 195.84795,136.75529 L 195.84795,135.86453 L 197.10555,135.86453 L 197.10378,137.87624 C 197.10378,138.19198 196.8498,138.39659 196.55524,138.39659 L 192.14395,138.39659 C 191.84762,138.39659 191.57423,138.15935 191.57335,137.87007 L 191.57071,135.88217 L 191.57159,135.88217 z" id="path5354" style="fill:none;stroke:#000000;stroke-width:0.50025284"/>
    <path d="M 196.19366,138.5721 L 196.47058,145.02529 L 192.16776,145.00942 L 192.45261,138.55887 L 196.19454,138.57386" id="path5356" style="fill:#ffe805;fill-rule:evenodd;stroke:none"/>
    <path d="M 196.19278,138.57386 L 196.46969,145.02529 L 192.16687,145.00942 L 192.45173,138.55711 L 196.19278,138.57386" id="path5358" style="fill:none;stroke:#000000;stroke-width:0.49897757"/>
    <use height="400" id="use5360" transform="translate(10.60845,0)" width="600" x="0" xlink:href="#path1535" y="0"/>
    <use height="400" id="use5362" transform="translate(10.60889,0)" width="600" x="0" xlink:href="#path1541" y="0"/>
    <use height="400" id="use5364" transform="translate(10.60889,-1.0585e-2)" width="600" x="0" xlink:href="#path1537" y="0"/>
    <path d="M 186.3022,139.04482 L 187.50247,139.04659 L 187.50247,139.91795 L 188.37909,139.91795 L 188.37909,139.02718 L 189.60847,139.03071 L 189.60847,139.91795 L 190.48773,139.91795 L 190.48773,139.02718 L 191.71798,139.02895 L 191.71622,141.04066 C 191.71622,141.35464 191.46752,141.55925 191.18002,141.55925 L 186.86309,141.55925 C 186.57295,141.55925 186.30485,141.32377 186.30485,141.03184 L 186.30308,139.04482" id="path5366" style="fill:#ffde00;fill-rule:evenodd;stroke:none"/>
    <path d="M 186.3022,139.04482 L 187.50159,139.04747 L 187.50159,139.91971 L 188.37909,139.91971 L 188.37909,139.02718 L 189.60847,139.03071 L 189.60847,139.91971 L 190.48773,139.91971 L 190.48773,139.02718 L 191.71798,139.02895 L 191.71622,141.04066 C 191.71622,141.35464 191.46752,141.55925 191.18002,141.55925 L 186.86309,141.55925 C 186.57383,141.55925 186.30485,141.32377 186.30396,141.03361 L 186.30132,139.04482 L 186.3022,139.04482 z" id="path5368" style="fill:none;stroke:#000000;stroke-width:0.50017256;stroke-opacity:1"/>
    <path d="M 190.93926,141.55925 L 191.07067,145.03676 L 186.94423,145.03852 L 187.06064,141.55925 L 190.93926,141.55925" id="path5370" style="fill:#ffde00;fill-rule:evenodd;stroke:none"/>
    <path d="M 190.94014,141.55925 L 191.07155,145.03676 L 186.94599,145.03852 L 187.0624,141.55925 L 190.94103,141.55925 L 190.94014,141.55925 z" id="path5372" style="fill:none;stroke:#000000;stroke-width:0.50127673"/>
    <path d="M 193.89806,140.61027 C 193.8716,139.98321 194.77467,139.97616 194.76409,140.61027 L 194.76409,142.14662 L 193.89806,142.14662 L 193.89806,140.61027" id="path5374" style="fill:#000000;fill-rule:evenodd;stroke:none"/>
    <use height="400" id="use5376" transform="translate(10.64108,0)" width="600" x="0" xlink:href="#path1547" y="0"/>
    <path d="M 188.56605,142.84424 C 188.56341,142.23834 189.40298,142.226 189.3924,142.84424 L 189.3924,144.03134 L 188.56605,144.03134 L 188.56605,142.84424" id="path5378" style="fill:#000000;fill-rule:evenodd;stroke:none"/>
  </g>
  <g id="use5100" transform="matrix(0.4266667,0,0,0.4266667,38.762662,62.0968)">
    <use height="400" id="use5220" transform="translate(10.60844,0)" width="600" x="0" xlink:href="#path1539" y="0"/>
    <path d="M 190.19141,154.43388 C 190.32634,148.9129 194.24376,147.60586 194.27198,147.58646 C 194.30021,147.56794 198.50337,148.99404 198.48926,154.48503 L 190.19141,154.43388" id="path5222" style="fill:#ffe805;fill-rule:evenodd;stroke:none"/>
    <path d="M 186.8093,147.68435 L 186.12758,154.03083 L 190.26813,154.03965 C 190.30782,148.79031 194.24288,147.91719 194.33813,147.93659 C 194.4272,147.9313 198.32699,149.09547 198.43105,154.03965 L 202.58218,154.03965 L 201.83168,147.64643 L 186.81018,147.68435" id="path5224" style="fill:#ffe805;fill-rule:evenodd;stroke:none"/>
    <path d="M 186.8093,147.68612 L 186.12758,154.03083 L 190.26813,154.03965 C 190.30782,148.79031 194.242,147.91719 194.33725,147.93659 C 194.42632,147.9313 198.32611,149.09723 198.43017,154.03965 L 202.5813,154.03965 L 201.83168,147.64643 L 186.8093,147.68435 L 186.8093,147.68612 z" id="path5226" style="fill:none;stroke:#000000;stroke-width:0.49936473"/>
    <path d="M 185.85155,154.05994 L 202.79737,154.05994 C 203.15366,154.05994 203.44557,154.41271 203.44557,154.84398 C 203.44557,155.27261 203.15454,155.62539 202.79737,155.62539 L 185.85155,155.62539 C 185.49437,155.62539 185.20246,155.27437 185.20246,154.84398 C 185.20246,154.41271 185.49437,154.05994 185.85155,154.05994" id="path5228" style="fill:#ffe805;fill-rule:evenodd;stroke:none"/>
    <path d="M 185.85066,154.05994 L 202.79649,154.05994 C 203.15366,154.05994 203.44557,154.41271 203.44557,154.84398 L 203.44557,154.84398 C 203.44557,155.27437 203.15366,155.62539 202.79649,155.62539 L 185.85066,155.62539 C 185.49349,155.62539 185.20158,155.27437 185.20158,154.84398 L 185.20158,154.84398 C 185.20158,154.41271 185.49349,154.05994 185.85066,154.05994 z" id="path5230" style="fill:none;stroke:#000000;stroke-width:0.49943003"/>
    <path d="M 192.01431,154.02907 C 192.03283,150.71648 194.27639,149.77897 194.28786,149.78074 C 194.28874,149.78074 196.62932,150.74735 196.64784,154.02907 L 192.01431,154.02907" id="path5232" style="fill:#ffe805;fill-rule:evenodd;stroke:none"/>
    <path d="M 192.01431,154.02907 C 192.03283,150.71648 194.27639,149.77897 194.28786,149.78074 C 194.28874,149.78074 196.6302,150.74735 196.64872,154.02907 L 192.01431,154.02907" id="path5234" style="fill:none;stroke:#000000;stroke-width:0.49703202"/>
    <path d="M 186.20784,145.05616 L 202.45254,145.05616 C 202.79472,145.05616 203.07517,145.37278 203.07517,145.76083 C 203.07517,146.14624 202.79472,146.46551 202.45254,146.46551 L 186.20784,146.46551 C 185.86566,146.46551 185.58521,146.14801 185.58521,145.76083 C 185.58521,145.37278 185.86566,145.05616 186.20784,145.05616" id="path5236" style="fill:#ffe805;fill-rule:evenodd;stroke:none"/>
    <path d="M 186.20784,145.05439 L 202.45254,145.05439 C 202.79472,145.05439 203.07517,145.37278 203.07517,145.75907 L 203.07517,145.75907 C 203.07517,146.14624 202.79472,146.46374 202.45254,146.46374 L 186.20784,146.46374 C 185.86566,146.46374 185.58521,146.14801 185.58521,145.75907 L 185.58521,145.75907 C 185.58521,145.37278 185.86566,145.05439 186.20784,145.05439 z" id="path5238" style="fill:none;stroke:#000000;stroke-width:0.49901107"/>
    <path d="M 186.5509,146.46551 L 202.09008,146.46551 C 202.41727,146.46551 202.68625,146.78213 202.68625,147.1693 C 202.68625,147.55735 202.41815,147.87397 202.09008,147.87397 L 186.5509,147.87397 C 186.22371,147.87397 185.95561,147.55735 185.95561,147.1693 C 185.95561,146.78213 186.22371,146.46551 186.5509,146.46551" id="path5240" style="fill:#ffe805;fill-rule:evenodd;stroke:none"/>
    <path d="M 186.5509,146.46551 L 202.0892,146.46551 C 202.41639,146.46551 202.68449,146.78213 202.68449,147.1693 L 202.68449,147.1693 C 202.68449,147.55735 202.41639,147.87397 202.0892,147.87397 L 186.5509,147.87397 C 186.22371,147.87397 185.95561,147.55735 185.95561,147.1693 L 185.95561,147.1693 C 185.95561,146.78213 186.22371,146.46551 186.5509,146.46551 z" id="path5242" style="fill:none;stroke:#000000;stroke-width:0.49901107"/>
    <use height="400" id="use5244" transform="translate(-5.27909,-3.162655)" width="600" x="0" xlink:href="#use4656" y="0"/>
    <path d="M 191.57159,135.88217 L 192.79832,135.88393 L 192.79832,136.75529 L 193.69345,136.75529 L 193.69345,135.86453 L 194.95017,135.86806 L 194.95017,136.75529 L 195.84795,136.75529 L 195.84795,135.86453 L 197.10555,135.86453 L 197.10378,137.87624 C 197.10378,138.19198 196.8498,138.39659 196.55524,138.39659 L 192.14395,138.39659 C 191.84762,138.39659 191.57423,138.15935 191.57335,137.87007 L 191.57071,135.88217 L 191.57159,135.88217 z" id="path5246" style="fill:none;stroke:#000000;stroke-width:0.50025284"/>
    <path d="M 196.19366,138.5721 L 196.47058,145.02529 L 192.16776,145.00942 L 192.45261,138.55887 L 196.19454,138.57386" id="path5248" style="fill:#ffe805;fill-rule:evenodd;stroke:none"/>
    <path d="M 196.19278,138.57386 L 196.46969,145.02529 L 192.16687,145.00942 L 192.45173,138.55711 L 196.19278,138.57386" id="path5250" style="fill:none;stroke:#000000;stroke-width:0.49897757"/>
    <use height="400" id="use5252" transform="translate(10.60845,0)" width="600" x="0" xlink:href="#path1535" y="0"/>
    <use height="400" id="use5254" transform="translate(10.60889,0)" width="600" x="0" xlink:href="#path1541" y="0"/>
    <use height="400" id="use5256" transform="translate(10.60889,-1.0585e-2)" width="600" x="0" xlink:href="#path1537" y="0"/>
    <path d="M 186.3022,139.04482 L 187.50247,139.04659 L 187.50247,139.91795 L 188.37909,139.91795 L 188.37909,139.02718 L 189.60847,139.03071 L 189.60847,139.91795 L 190.48773,139.91795 L 190.48773,139.02718 L 191.71798,139.02895 L 191.71622,141.04066 C 191.71622,141.35464 191.46752,141.55925 191.18002,141.55925 L 186.86309,141.55925 C 186.57295,141.55925 186.30485,141.32377 186.30485,141.03184 L 186.30308,139.04482" id="path5258" style="fill:#ffde00;fill-rule:evenodd;stroke:none"/>
    <path d="M 186.3022,139.04482 L 187.50159,139.04747 L 187.50159,139.91971 L 188.37909,139.91971 L 188.37909,139.02718 L 189.60847,139.03071 L 189.60847,139.91971 L 190.48773,139.91971 L 190.48773,139.02718 L 191.71798,139.02895 L 191.71622,141.04066 C 191.71622,141.35464 191.46752,141.55925 191.18002,141.55925 L 186.86309,141.55925 C 186.57383,141.55925 186.30485,141.32377 186.30396,141.03361 L 186.30132,139.04482 L 186.3022,139.04482 z" id="path5260" style="fill:none;stroke:#000000;stroke-width:0.50017256;stroke-opacity:1"/>
    <path d="M 190.93926,141.55925 L 191.07067,145.03676 L 186.94423,145.03852 L 187.06064,141.55925 L 190.93926,141.55925" id="path5262" style="fill:#ffde00;fill-rule:evenodd;stroke:none"/>
    <path d="M 190.94014,141.55925 L 191.07155,145.03676 L 186.94599,145.03852 L 187.0624,141.55925 L 190.94103,141.55925 L 190.94014,141.55925 z" id="path5264" style="fill:none;stroke:#000000;stroke-width:0.50127673"/>
    <path d="M 193.89806,140.61027 C 193.8716,139.98321 194.77467,139.97616 194.76409,140.61027 L 194.76409,142.14662 L 193.89806,142.14662 L 193.89806,140.61027" id="path5266" style="fill:#000000;fill-rule:evenodd;stroke:none"/>
    <use height="400" id="use5268" transform="translate(10.64108,0)" width="600" x="0" xlink:href="#path1547" y="0"/>
    <path d="M 188.56605,142.84424 C 188.56341,142.23834 189.40298,142.226 189.3924,142.84424 L 189.3924,144.03134 L 188.56605,144.03134 L 188.56605,142.84424" id="path5270" style="fill:#000000;fill-rule:evenodd;stroke:none"/>
  </g>
  <use height="400" id="use5274" transform="matrix(0.3016989,-0.3016989,0.3016989,0.3016989,-11.931716,156.15018)" width="600" x="0" xlink:href="#path1539" y="0"/>
  <path d="M 88.840802,148.56273 C 87.215834,146.85635 88.003383,145.28013 88.006046,145.26577 C 88.008973,145.25166 89.707315,144.41383 91.359684,146.07471 L 88.840802,148.56273" id="path5276" style="fill:#ffe805;fill-rule:evenodd;stroke:none"/>
  <path d="M 85.784098,147.54678 L 87.49315,149.66718 L 88.745007,148.42065 C 87.173261,146.82495 88.097045,145.37433 88.131635,145.35145 C 88.156911,145.32297 89.684702,144.49764 91.207753,145.9579 L 92.460143,144.70551 L 90.304892,143.00311 L 85.784363,147.54652" id="path5278" style="fill:#ffe805;fill-rule:evenodd;stroke:none"/>
  <path d="M 85.784631,147.54732 L 87.49315,149.66718 L 88.745007,148.42065 C 87.173261,146.82495 88.096781,145.37459 88.131371,145.35171 C 88.156646,145.32324 89.684971,144.49844 91.207488,145.95817 L 92.459878,144.70577 L 90.304892,143.00311 L 85.784098,147.54678 L 85.784631,147.54732 z" id="path5280" style="fill:none;stroke:#000000;stroke-width:0.21306229"/>
  <path d="M 87.418654,149.75924 L 92.531187,144.64671 C 92.638682,144.53922 92.833178,144.55758 92.963294,144.68769 C 93.092612,144.81701 93.111241,145.01124 93.003482,145.119 L 87.890948,150.23154 C 87.783185,150.3393 87.589214,150.32146 87.459366,150.19162 C 87.329254,150.0615 87.310891,149.867 87.418654,149.75924" id="path5282" style="fill:#ffe805;fill-rule:evenodd;stroke:none"/>
  <path d="M 87.418385,149.75951 L 92.530923,144.64697 C 92.638682,144.53922 92.833178,144.55758 92.963294,144.68769 L 92.963294,144.68769 C 93.093141,144.81754 93.110976,145.01151 93.003217,145.11927 L 87.890679,150.23181 C 87.782921,150.33956 87.588949,150.32173 87.459102,150.19188 L 87.459102,150.19188 C 87.328986,150.06177 87.310626,149.86727 87.418385,149.75951 z" id="path5284" style="fill:none;stroke:#000000;stroke-width:0.21309015"/>
  <path d="M 89.268638,147.89063 C 88.27482,146.88564 88.668855,145.92591 88.672849,145.92299 C 88.673114,145.92272 89.670891,145.5082 90.666569,146.4927 L 89.268638,147.89063" id="path5286" style="fill:#ffe805;fill-rule:evenodd;stroke:none"/>
  <path d="M 89.268638,147.89063 C 88.27482,146.88564 88.668855,145.92591 88.672849,145.92299 C 88.673114,145.92272 89.671155,145.50793 90.666833,146.49244 L 89.268638,147.89063" id="path5288" style="fill:none;stroke:#000000;stroke-width:0.21206699"/>
  <path d="M 84.809715,146.93532 L 89.710724,142.03431 C 89.813956,141.93108 89.994095,141.94199 90.111168,142.05906 C 90.227443,142.17534 90.239155,142.35628 90.135923,142.45951 L 85.234914,147.36052 C 85.131678,147.46376 84.951279,147.45258 84.834466,147.33577 C 84.717393,147.21869 84.706479,147.03856 84.809715,146.93532" id="path5290" style="fill:#ffe805;fill-rule:evenodd;stroke:none"/>
  <path d="M 84.809182,146.93479 L 89.710187,142.03378 C 89.813423,141.93054 89.994095,141.94199 90.110635,142.05853 L 90.110635,142.05853 C 90.227443,142.17534 90.238622,142.35574 90.13539,142.45898 L 85.234381,147.35999 C 85.131145,147.46322 84.951279,147.45258 84.833933,147.33524 L 84.833933,147.33524 C 84.717393,147.21869 84.705946,147.03802 84.809182,146.93479 z" id="path5292" style="fill:none;stroke:#000000;stroke-width:0.21291138"/>
  <path d="M 85.338415,147.25702 L 90.026569,142.56887 C 90.125282,142.47015 90.301956,142.48453 90.418765,142.60134 C 90.535838,142.71841 90.550477,142.89482 90.451499,142.9938 L 85.763345,147.68195 C 85.664631,147.78066 85.488222,147.76602 85.371149,147.64895 C 85.25434,147.53214 85.239701,147.35573 85.338415,147.25702" id="path5294" style="fill:#ffe805;fill-rule:evenodd;stroke:none"/>
  <path d="M 85.338415,147.25702 L 90.026304,142.56913 C 90.125013,142.47042 90.301423,142.48506 90.418231,142.60186 L 90.418231,142.60186 C 90.535309,142.71894 90.549948,142.89535 90.451234,142.99406 L 85.763345,147.68195 C 85.664631,147.78066 85.488222,147.76602 85.371149,147.64895 L 85.371149,147.64895 C 85.25434,147.53214 85.239701,147.35573 85.338415,147.25702 z" id="path5296" style="fill:none;stroke:#000000;stroke-width:0.21291138"/>
  <use height="400" id="use5298" transform="matrix(0.3016989,-0.3016989,0.3016989,0.3016989,-17.679136,159.98927)" width="600" x="0" xlink:href="#use4656" y="0"/>
  <path d="M 83.660169,142.5493 L 84.030805,142.17973 L 84.293692,142.44262 L 84.56375,142.17256 L 84.29501,141.90382 L 84.675226,141.52573 L 84.942903,141.7934 L 85.21376,141.52255 L 84.94502,141.25381 L 85.324437,140.87439 L 85.930833,141.48185 C 86.026091,141.57711 86.011196,141.71547 85.92233,141.80433 L 84.591445,143.13522 C 84.502046,143.22462 84.347989,143.23553 84.260446,143.14852 L 83.659904,142.54956 L 83.660169,142.5493 z" id="path5300" style="fill:none;stroke:#000000;stroke-width:0.21344121"/>
  <path d="M 85.866193,141.96637 L 87.896657,143.82975 L 86.593715,145.12312 L 84.73353,143.09105 L 85.866987,141.96664" id="path5302" style="fill:#ffe805;fill-rule:evenodd;stroke:none"/>
  <path d="M 85.866458,141.96717 L 87.896388,143.83002 L 86.593446,145.12339 L 84.732732,143.09079 L 85.866458,141.96717" id="path5304" style="fill:none;stroke:#000000;stroke-width:0.21289709"/>
  <use height="400" id="use5306" transform="matrix(0.3016989,-0.3016989,0.3016989,0.3016989,-11.931713,156.15018)" width="600" x="0" xlink:href="#path1535" y="0"/>
  <use height="400" id="use5308" transform="matrix(0.3016989,-0.3016989,0.3016989,0.3016989,-11.93158,156.15005)" width="600" x="0" xlink:href="#path1541" y="0"/>
  <use height="400" id="use5310" transform="matrix(0.3016989,-0.3016989,0.3016989,0.3016989,-11.934773,156.14685)" width="600" x="0" xlink:href="#path1537" y="0"/>
  <path d="M 83.024567,145.09324 L 83.387221,144.73165 L 83.650112,144.99454 L 83.914586,144.73007 L 83.645841,144.46132 L 84.017809,144.09148 L 84.285487,144.35916 L 84.550758,144.09389 L 84.282014,143.82515 L 84.653713,143.45452 L 85.260113,144.06198 C 85.354842,144.1567 85.341538,144.29347 85.254801,144.38021 L 83.952388,145.68262 C 83.864853,145.77015 83.712926,145.77999 83.624849,145.69192 L 83.024832,145.09297" id="path5312" style="fill:#ffde00;fill-rule:evenodd;stroke:none"/>
  <path d="M 83.024567,145.09324 L 83.387221,144.73218 L 83.650377,144.99534 L 83.915115,144.73059 L 83.645841,144.46132 L 84.017809,144.09148 L 84.28602,144.35969 L 84.551292,144.09442 L 84.282014,143.82515 L 84.653713,143.45452 L 85.260113,144.06198 C 85.354842,144.1567 85.341538,144.29347 85.254801,144.38021 L 83.952388,145.68262 C 83.865118,145.76989 83.712926,145.77999 83.625114,145.69272 L 83.024303,145.0935 L 83.024567,145.09324 z" id="path5314" style="fill:none;stroke:#000000;stroke-width:0.21340695;stroke-opacity:1"/>
  <path d="M 85.182165,144.45284 L 86.270972,145.46236 L 85.02656,146.70783 L 84.011989,145.62302 L 85.182165,144.45284" id="path5316" style="fill:#ffde00;fill-rule:evenodd;stroke:none"/>
  <path d="M 85.18243,144.45258 L 86.271236,145.46209 L 85.027093,146.7073 L 84.012518,145.62249 L 85.182699,144.45231 L 85.18243,144.45258 z" id="path5318" style="fill:none;stroke:#000000;stroke-width:0.21387807"/>
  <path d="M 85.788527,143.27387 C 85.59136,143.09267 85.861687,142.81809 86.049805,143.01259 L 86.513323,143.4761 L 86.252041,143.73738 L 85.788527,143.27387" id="path5320" style="fill:#000000;fill-rule:evenodd;stroke:none"/>
  <use height="400" id="use5322" transform="matrix(0.3016989,-0.3016989,0.3016989,0.3016989,-11.921868,156.14033)" width="600" x="0" xlink:href="#path1547" y="0"/>
  <path d="M 84.85385,145.55652 C 84.670255,145.37452 84.919829,145.1175 85.103159,145.30721 L 85.461303,145.66536 L 85.211998,145.91466 L 84.85385,145.55652" id="path5324" style="fill:#000000;fill-rule:evenodd;stroke:none"/>
  <use height="400" id="use6358" transform="translate(-8.8828395,10.98391)" width="600" x="0" xlink:href="#use5944" y="0"/>
  <use height="400" id="use6360" transform="translate(-12.344237,10.98824)" width="600" x="0" xlink:href="#use5944" y="0"/>
  <use height="400" id="use6356" transform="translate(-10.656623,9.20534)" width="600" x="0" xlink:href="#use5944" y="0"/>
  <use height="400" id="use6352" transform="translate(-8.8790763,7.5011)" width="600" x="0" xlink:href="#use5944" y="0"/>
  <path d="M 113.12046,128.71428 C 112.77127,128.71428 112.48643,128.99876 112.48643,129.34796 C 112.48643,129.69642 112.77127,129.98164 113.12046,129.98164 C 113.46964,129.98164 113.75449,129.69716 113.75449,129.34796 C 113.75449,128.99876 113.46964,128.71428 113.12046,128.71428" id="use5944" style="fill:#ffffff"/>
  <use height="400" id="use5946" transform="translate(-3.4613995,5.27e-3)" width="600" x="0" xlink:href="#use5944" y="0"/>
  <use height="400" id="use5948" transform="translate(1.687616,-1.78346)" width="600" x="0" xlink:href="#use5946" y="0"/>
  <use height="400" id="use5950" transform="translate(1.7775467,-1.70444)" width="600" x="0" xlink:href="#use5948" y="0"/>
  <use height="400" id="use5952" transform="translate(-3.4726869,-3.01e-3)" width="600" x="0" xlink:href="#use5950" y="0"/>
  <use height="400" id="use5954" transform="translate(-5.3830592,3.4687)" width="600" x="0" xlink:href="#use5952" y="0"/>
  <use height="400" id="use5956" transform="translate(-3.4613995,4.52e-3)" width="600" x="0" xlink:href="#use5954" y="0"/>
  <use height="400" id="use5958" transform="translate(1.6876139,-1.78383)" width="600" x="0" xlink:href="#use5956" y="0"/>
  <use height="400" id="use5960" transform="translate(1.7779243,-1.70368)" width="600" x="0" xlink:href="#use5958" y="0"/>
  <use height="400" id="use5962" transform="translate(-3.4726869,-3.2e-3)" width="600" x="0" xlink:href="#use5960" y="0"/>
  <use height="400" id="use5964" transform="translate(-5.4052608,3.5084)" width="600" x="0" xlink:href="#use5962" y="0"/>
  <use height="400" id="use5966" transform="translate(-3.4613995,4.33e-3)" width="600" x="0" xlink:href="#use5964" y="0"/>
  <use height="400" id="use5968" transform="translate(1.687616,-1.78346)" width="600" x="0" xlink:href="#use5966" y="0"/>
  <use height="400" id="use5970" transform="translate(1.7779221,-1.70387)" width="600" x="0" xlink:href="#use5968" y="0"/>
  <use height="400" id="use6354" transform="translate(-12.351763,7.49809)" width="600" x="0" xlink:href="#use5944" y="0"/>
  <path d="M 91.926114,125.23354 C 91.576934,125.23354 91.292083,125.51802 91.292083,125.86722 C 91.292083,126.21567 91.576934,126.5009 91.926114,126.5009 C 92.275302,126.5009 92.560149,126.21642 92.560149,125.86722 C 92.560149,125.51802 92.275302,125.23354 91.926114,125.23354" id="use6320" style="fill:#ffde00"/>
  <use height="400" id="use6332" transform="translate(-8.8504811,-14.60313)" width="600" x="0" xlink:href="#use5944" y="0"/>
  <use height="400" id="use6334" transform="translate(-10.628403,-12.89587)" width="600" x="0" xlink:href="#use5944" y="0"/>
  <use height="400" id="use6336" transform="translate(-8.8542443,-11.11731)" width="600" x="0" xlink:href="#use5944" y="0"/>
  <use height="400" id="use6338" transform="translate(-12.316019,-11.11241)" width="600" x="0" xlink:href="#use5944" y="0"/>
  <use height="400" id="use6340" transform="translate(-21.194342,-3.48074)" width="600" x="0" xlink:href="#use5944" y="0"/>
</svg>
