<?xml version="1.0" encoding="UTF-8" standalone="no"?>
<svg height="256" id="svg2474" inkscape:output_extension="org.inkscape.output.svg.inkscape" inkscape:version="0.46" sodipodi:docname="Flag_of_Argentina.svg" sodipodi:version="0.32" version="1.0" viewBox="-910 -585 1820 1170" width="256" xmlns="http://www.w3.org/2000/svg" xmlns:cc="http://creativecommons.org/ns#" xmlns:dc="http://purl.org/dc/elements/1.1/" xmlns:inkscape="http://www.inkscape.org/namespaces/inkscape" xmlns:rdf="http://www.w3.org/1999/02/22-rdf-syntax-ns#" xmlns:sodipodi="http://sodipodi.sourceforge.net/DTD/sodipodi-0.dtd" xmlns:svg="http://www.w3.org/2000/svg" xmlns:xlink="http://www.w3.org/1999/xlink">
  <metadata>
    <rdf:RDF xmlns:cc="http://web.resource.org/cc/" xmlns:dc="http://purl.org/dc/elements/1.1/" xmlns:rdf="http://www.w3.org/1999/02/22-rdf-syntax-ns#">
      <cc:Work rdf:about="">
        <dc:title></dc:title>
        <dc:description></dc:description>
        <dc:subject>
          <rdf:Bag>
            <rdf:li>unsorted</rdf:li>
          </rdf:Bag>
        </dc:subject>
        <dc:publisher>
          <cc:Agent rdf:about="http://www.openclipart.org/">
            <dc:title>Open Clip Art Library, Source: Wikimedia Commons</dc:title>
          </cc:Agent>
        </dc:publisher>
        <dc:creator>
          <cc:Agent>
            <dc:title></dc:title>
          </cc:Agent>
        </dc:creator>
        <dc:rights>
          <cc:Agent>
            <dc:title></dc:title>
          </cc:Agent>
        </dc:rights>
        <dc:date></dc:date>
        <dc:format>image/svg+xml</dc:format>
        <dc:type rdf:resource="http://purl.org/dc/dcmitype/StillImage"/>
        <cc:license rdf:resource="http://web.resource.org/cc/PublicDomain"/>
        <dc:language>en</dc:language>
      </cc:Work>
      <cc:License rdf:about="http://web.resource.org/cc/PublicDomain">
        <cc:permits rdf:resource="http://web.resource.org/cc/Reproduction"/>
        <cc:permits rdf:resource="http://web.resource.org/cc/Distribution"/>
        <cc:permits rdf:resource="http://web.resource.org/cc/DerivativeWorks"/>
      </cc:License>
    </rdf:RDF>
  </metadata>
  <defs id="defs2521">
    <inkscape:perspective id="perspective2525" inkscape:persp3d-origin="392 : 168 : 1" inkscape:vp_x="0 : 252 : 1" inkscape:vp_y="0 : 1000 : 0" inkscape:vp_z="784 : 252 : 1" sodipodi:type="inkscape:persp3d"/>
  </defs>
  <sodipodi:namedview bordercolor="#666666" borderopacity="1.0" gridtolerance="10.0" guidetolerance="10.0" id="base" inkscape:current-layer="svg2474" inkscape:cx="392" inkscape:cy="252" inkscape:pageopacity="0.0" inkscape:pageshadow="2" inkscape:window-height="674" inkscape:window-width="640" inkscape:window-x="113" inkscape:window-y="243" inkscape:zoom="0.7130102" objecttolerance="10.0" pagecolor="#ffffff" showgrid="false"/>
  <title id="title2476">Flag of Argentina</title>
  <rect height="1170" id="blue" style="fill:#75aadb" width="1820" x="-910" y="-585"/>
  <rect height="390" id="white" style="fill:#ffffff" width="1820" x="-910" y="-195"/>
  <g id="sun" style="fill:#fcbf49;stroke:#843511;stroke-width:1.5">
    <g id="16rays">
      <g id="8rays">
        <g id="4rays">
          <g id="2rays">
            <path d="M -8,0 L -2,159.5 C -2,159.5 -2,162.5 0,162.5 C 2,162.5 2,159.5 2,159.5 L 8,0" id="path2485"/>
            <path d="M -4,0 L 0,109.5 L 4,0" id="path2487" style="fill:#843511;stroke:none"/>
            <g id="g2489" transform="matrix(0.9799247,0.1993679,-0.1993679,0.9799247,0,0)">
              <path d="M -4.5,53.5 C -9.5,75 1.5,89.5 -4,108.5 C -9.5,127.5 -1,140.5 0,148.5 C 1,156.5 -5,160 -3,161.5 C -1,163 5,158 5.5,147 C 6,136 -1.5,131.25 5,108 C 11.5,84.75 1,77 8,56" id="path2491"/>
              <path d="M -1,58 C -4,79 6,90.5 0,109 C 8,95 -2,81 3,59" id="path2493" style="fill:#843511;stroke:none"/>
            </g>
          </g>
          <use height="1170" id="use2495" transform="scale(-1,-1)" width="1820" x="0" xlink:href="#2rays" y="0"/>
        </g>
        <use height="1170" id="use2497" transform="matrix(0,1,-1,0,0,0)" width="1820" x="0" xlink:href="#4rays" y="0"/>
      </g>
      <use height="1170" id="use2499" transform="matrix(0.7071068,0.7071068,-0.7071068,0.7071068,0,0)" width="1820" x="0" xlink:href="#8rays" y="0"/>
    </g>
    <use height="1170" id="use2501" transform="matrix(0.9238795,0.3826834,-0.3826834,0.9238795,0,0)" width="1820" x="0" xlink:href="#16rays" y="0"/>
    <circle cx="0" cy="0" id="circle2503" r="65" sodipodi:cx="0" sodipodi:cy="0" sodipodi:rx="65" sodipodi:ry="65" style="stroke-width:1"/>
    <g id="face_right" style="fill:#843511;stroke:none">
      <path d="M 41,-14 C 29.5,-24 15,-25.5 7,-18 C 1.1936273,-10.23694 1.7110236,-1.0962716 8.5,8.5 C 8,8.5 7,9 6.5,9.5 C 1.457445,-0.10281648 0.59005143,-9.991103 4,-19 C 15,-28 30,-29 41,-14" id="eyebrow_nose"/>
      <path d="M 23,-17 C 16.5,-17 15,-15.5 12,-13 C 9,-10.5 7.5,-11 7,-10.5 C 6.5,-10 7,-8.5 8,-9 C 9,-9.5 11,-10.5 14,-13 C 17,-15.5 20,-15.5 23,-15.5 C 32,-15.5 37,-8 38,-8.5 C 39,-9 33,-17 23,-17" id="uppalpebra"/>
      <path d="M 34.5,-8.5 C 28,-15.5 16,-16 11,-8 L 13,-8 C 18,-16 30,-12.5 31,-9 L 31,-8" id="upeyecontour"/>
      <circle cx="22" cy="-9" id="pupil" r="4.5" sodipodi:cx="22" sodipodi:cy="-9" sodipodi:rx="4.5" sodipodi:ry="4.5"/>
      <path d="M 11,-8 C 16,-3.5 27,-3 34.5,-8.5 L 31,-9 C 26,-3.5 18,-4 13,-8 L 13,-9" id="loweyecontour"/>
      <path d="M 35,-6 C 26.5,0.5 18,0 13,-3 C 8,-6 8,-7 9,-7 C 10,-7 11,-6 15,-4 C 19,-2 25,-2 35,-6" id="lowpalpebra"/>
      <path d="M 10.5,9 C 11.91609,9.5034893 12.741084,10.977139 12.430035,12.447534 C 12.118986,13.917928 10.767895,14.931246 9.2692225,14.818143 C 7.7705501,14.70504 6.5868446,13.500423 6.5,12 C 6,13 4,16 0,16 L -1,16 L 0,17.5 C 1,17.5 4,17.5 6,16 C 7.1633883,17.669092 9.3019644,18.349966 11.216194,17.660715 C 13.130424,16.971465 14.344072,15.083568 14.176399,13.055952 C 14.008726,11.028336 12.501448,9.3654448 10.5,9" id="nose"/>
      <path d="M 16.5,30 C 12,27 10,22.5 5,22.5 C 4,22.5 2,23 0,24 L -1,24 L 0,25.5 C 2,25.5 5,23 8.5,25 C 12,27 14,29 16.5,30" id="uplip"/>
      <path d="M 15,30 C 5,27 3,29 0,29 L -1,29 L 0,31 C 4,31 6,28 15,30" id="midlip"/>
      <path d="M 16.5,30 C 5.5,29 9,35.5 0,35.5 L -1,35.5 L 0,37 C 11,37 6,31 16.5,30" id="path2515"/>
      <path d="M 9,46 C 9,41.029437 4.9705627,37 5.5109106e-16,37 C -4.9705627,37 -9,41.029437 -9,46 C -8.0103271,41.830032 -4.2858007,38.886001 5.6639914e-16,38.886001 C 4.2858007,38.886001 8.0103271,41.830032 9,46" id="chin"/>
    </g>
    <use height="1170" id="use2518" transform="scale(-1,1)" width="1820" x="0" xlink:href="#face_right" y="0"/>
  </g>
</svg>
