<?xml version="1.0" encoding="UTF-8" standalone="no"?>
<!-- Created with Inkscape (http://www.inkscape.org/) --><svg height="256" id="svg3114" inkscape:output_extension="org.inkscape.output.svg.inkscape" inkscape:version="0.46" sodipodi:docname="Flag_of_Cambodia.svg" sodipodi:version="0.32" version="1.0" width="256" xmlns="http://www.w3.org/2000/svg" xmlns:cc="http://creativecommons.org/ns#" xmlns:dc="http://purl.org/dc/elements/1.1/" xmlns:inkscape="http://www.inkscape.org/namespaces/inkscape" xmlns:rdf="http://www.w3.org/1999/02/22-rdf-syntax-ns#" xmlns:sodipodi="http://sodipodi.sourceforge.net/DTD/sodipodi-0.dtd" xmlns:svg="http://www.w3.org/2000/svg">
  <metadata>
    <rdf:RDF xmlns:cc="http://web.resource.org/cc/" xmlns:dc="http://purl.org/dc/elements/1.1/" xmlns:rdf="http://www.w3.org/1999/02/22-rdf-syntax-ns#">
      <cc:Work rdf:about="">
        <dc:title></dc:title>
        <dc:description></dc:description>
        <dc:subject>
          <rdf:Bag>
            <rdf:li>unsorted</rdf:li>
          </rdf:Bag>
        </dc:subject>
        <dc:publisher>
          <cc:Agent rdf:about="http://www.openclipart.org/">
            <dc:title>Open Clip Art Library, Source: Wikimedia Commons</dc:title>
          </cc:Agent>
        </dc:publisher>
        <dc:creator>
          <cc:Agent>
            <dc:title></dc:title>
          </cc:Agent>
        </dc:creator>
        <dc:rights>
          <cc:Agent>
            <dc:title></dc:title>
          </cc:Agent>
        </dc:rights>
        <dc:date></dc:date>
        <dc:format>image/svg+xml</dc:format>
        <dc:type rdf:resource="http://purl.org/dc/dcmitype/StillImage"/>
        <cc:license rdf:resource="http://web.resource.org/cc/PublicDomain"/>
        <dc:language>en</dc:language>
      </cc:Work>
      <cc:License rdf:about="http://web.resource.org/cc/PublicDomain">
        <cc:permits rdf:resource="http://web.resource.org/cc/Reproduction"/>
        <cc:permits rdf:resource="http://web.resource.org/cc/Distribution"/>
        <cc:permits rdf:resource="http://web.resource.org/cc/DerivativeWorks"/>
      </cc:License>
    </rdf:RDF>
  </metadata>
  <sodipodi:namedview bordercolor="#666666" borderopacity="1.0" gridtolerance="10.0" guidetolerance="10.0" id="base" inkscape:current-layer="svg3114" inkscape:cx="900" inkscape:cy="600" inkscape:pageopacity="0.0" inkscape:pageshadow="2" inkscape:window-height="681" inkscape:window-width="866" inkscape:window-x="81" inkscape:window-y="135" inkscape:zoom="0.31055556" objecttolerance="10.0" pagecolor="#ffffff" showgrid="false"/>
  <defs id="defs3116">
    <inkscape:perspective id="perspective2869" inkscape:persp3d-origin="900 : 400 : 1" inkscape:vp_x="0 : 600 : 1" inkscape:vp_y="0 : 1000 : 0" inkscape:vp_z="1800 : 600 : 1" sodipodi:type="inkscape:persp3d"/>
  </defs>
  <g id="layer1" transform="matrix(0.1422222,0,0,0.1422222,0,42.33336)">
    <rect height="1200" id="rect815" style="font-size:12px;fill:#000099;fill-opacity:1;fill-rule:evenodd;stroke-width:1pt" width="1800" x="0" y="0"/>
    <rect height="600.00006" id="rect837" style="font-size:12px;fill:#cc0000;fill-opacity:1;fill-rule:evenodd;stroke-width:1pt" width="1800" x="0" y="300"/>
    <rect height="113.15208" id="rect1035" style="font-size:12px;fill:#ffffff;fill-rule:evenodd;stroke:#cc0000;stroke-width:3;stroke-miterlimit:4;stroke-dasharray:none" width="699.77319" x="550.11395" y="631.41681"/>
    <path d="M 549.62288,744.5684 L 538.32037,771.19243 L 1261.6815,771.19243 L 1250.3791,744.5684 L 549.62288,744.5684 z" id="path632" style="font-size:12px;fill:#ffffff;fill-rule:evenodd;stroke:#cc0000;stroke-width:3;stroke-miterlimit:4;stroke-dasharray:none"/>
    <path d="M 1108.2662,744.5512 L 1094.9024,771.21154 L 1255.2677,771.21154 L 1241.9039,744.5512 L 1108.2662,744.5512 L 1108.2662,744.5512 z" id="path982" style="font-size:12px;fill:#ffffff;fill-rule:evenodd;stroke:#cc0000;stroke-width:3;stroke-miterlimit:4;stroke-dasharray:none"/>
    <path d="M 1142.0744,744.56937 L 1135.1684,771.19337 L 1218.0416,771.19337 L 1211.1355,744.56937 L 1142.0744,744.56937 L 1142.0744,744.56937 z" id="path983" style="font-size:12px;fill:#ffffff;fill-rule:evenodd;stroke:#cc0000;stroke-width:3;stroke-miterlimit:4;stroke-dasharray:none"/>
    <path d="M 1154.3376,744.56937 L 1149.8742,771.19337 L 1203.4352,771.19337 L 1198.9718,744.56937 L 1154.3376,744.56937 L 1154.3376,744.56937 z" id="path984" style="font-size:12px;fill:#ffffff;fill-rule:evenodd;stroke:#cc0000;stroke-width:3;stroke-miterlimit:4;stroke-dasharray:none"/>
    <path d="M 815.92647,744.56889 L 801.51167,771.19291 L 996.48936,771.19291 L 982.07456,744.56889 L 815.92647,744.56889 z" id="path636" style="font-size:12px;fill:#ffffff;fill-rule:evenodd;stroke:#cc0000;stroke-width:3;stroke-miterlimit:4;stroke-dasharray:none"/>
    <rect height="26.624128" id="rect976" style="font-size:12px;fill:#ffffff;fill-rule:evenodd;stroke:#cc0000;stroke-width:3;stroke-miterlimit:4;stroke-dasharray:none" width="707.6358" x="546.18256" y="629.69617"/>
    <rect height="112.70839" id="rect1001" style="font-size:12px;fill:#ffffff;fill-rule:evenodd;stroke:#cc0000;stroke-width:3;stroke-miterlimit:4;stroke-dasharray:none" width="134.01752" x="1108.0833" y="631.6571"/>
    <rect height="59.882889" id="rect637" style="font-size:12px;fill:#ffffff;fill-rule:evenodd;stroke:#cc0000;stroke-width:3;stroke-miterlimit:4;stroke-dasharray:none" width="13.401703" x="1203.9517" y="684.47607"/>
    <rect height="59.882889" id="rect639" style="font-size:12px;fill:#ffffff;fill-rule:evenodd;stroke:#cc0000;stroke-width:3;stroke-miterlimit:4;stroke-dasharray:none" width="13.402037" x="1144.9833" y="684.47516"/>
    <path d="M 858.80822,744.65728 L 850.66498,771.10449 L 948.38391,771.10449 L 940.24067,744.65728 L 858.80822,744.65728 z" id="path637" style="font-size:12px;fill:#ffffff;fill-rule:evenodd;stroke:#cc0000;stroke-width:3;stroke-miterlimit:4;stroke-dasharray:none"/>
    <path d="M 872.13079,744.43335 L 867.52101,764.61747 L 930.83844,764.61747 L 926.22864,744.43335 L 872.13079,744.43335 z" id="path638" style="font-size:12px;fill:#ffffff;fill-rule:evenodd;stroke:#cc0000;stroke-width:3;stroke-miterlimit:4;stroke-dasharray:none"/>
    <rect height="115.41319" id="rect1003" style="font-size:12px;fill:#ffffff;fill-rule:evenodd;stroke:#cc0000;stroke-width:3;stroke-miterlimit:4;stroke-dasharray:none" width="165.42049" x="816.58398" y="629.02081"/>
    <rect height="59.882893" id="rect683" style="font-size:12px;fill:#ffffff;fill-rule:evenodd;stroke:#cc0000;stroke-width:3;stroke-miterlimit:4;stroke-dasharray:none" width="13.483268" x="949.12018" y="684.46545"/>
    <rect height="59.882893" id="rect686" style="font-size:12px;fill:#ffffff;fill-rule:evenodd;stroke:#cc0000;stroke-width:3;stroke-miterlimit:4;stroke-dasharray:none" width="13.492913" x="838.27924" y="684.46039"/>
    <rect height="140.35507" id="rect687" style="font-size:12px;fill:#ffffff;fill-rule:evenodd;stroke:#cc0000;stroke-width:3;stroke-miterlimit:4;stroke-dasharray:none" width="80.002151" x="859.9798" y="604.10822"/>
    <rect height="59.882893" id="rect684" style="font-size:12px;fill:#ffffff;fill-rule:evenodd;stroke:#cc0000;stroke-width:3;stroke-miterlimit:4;stroke-dasharray:none" width="13.483268" x="919.01495" y="684.46155"/>
    <rect height="59.882893" id="rect685" style="font-size:12px;fill:#ffffff;fill-rule:evenodd;stroke:#cc0000;stroke-width:3;stroke-miterlimit:4;stroke-dasharray:none" width="13.492913" x="866.40161" y="684.46417"/>
    <path d="M 860.59944,627.00195 L 898.85542,683.82548 L 939.36344,627.00195 L 860.59944,627.00195 z" id="path759" style="font-size:12px;fill:#ffffff;fill-rule:evenodd;stroke:#cc0000;stroke-width:3;stroke-miterlimit:4;stroke-dasharray:none"/>
    <rect height="139.77614" id="rect1033" style="font-size:12px;fill:#ffffff;fill-rule:evenodd;stroke:#cc0000;stroke-width:3;stroke-miterlimit:4;stroke-dasharray:none" width="39.313122" x="1156.4006" y="631.41705"/>
    <rect height="139.77615" id="rect1034" style="font-size:12px;fill:#ffffff;fill-rule:evenodd;stroke:#cc0000;stroke-width:3;stroke-miterlimit:4;stroke-dasharray:none" width="26.182514" x="1162.9266" y="631.41681"/>
    <path d="M 559.00748,744.56938 L 545.29376,771.19339 L 709.85832,771.19339 L 696.14461,744.56938 L 559.00748,744.56938 z" id="path635" style="font-size:12px;fill:#ffffff;fill-rule:evenodd;stroke:#cc0000;stroke-width:3;stroke-miterlimit:4;stroke-dasharray:none"/>
    <path d="M 591.95623,744.56938 L 585.50887,771.19339 L 662.87714,771.19339 L 656.42978,744.56938 L 591.95623,744.56938 L 591.95623,744.56938 z" id="path634" style="font-size:12px;fill:#ffffff;fill-rule:evenodd;stroke:#cc0000;stroke-width:3;stroke-miterlimit:4;stroke-dasharray:none"/>
    <path d="M 603.42893,744.56938 L 599.31524,771.19339 L 648.67956,771.19339 L 644.56587,744.56938 L 603.42893,744.56938 z" id="path633" style="font-size:12px;fill:#ffffff;fill-rule:evenodd;stroke:#cc0000;stroke-width:3;stroke-miterlimit:4;stroke-dasharray:none"/>
    <rect height="113.15208" id="rect1000" style="font-size:12px;fill:#ffffff;fill-rule:evenodd;stroke:#cc0000;stroke-width:3;stroke-miterlimit:4;stroke-dasharray:none" width="137.59587" x="557.97656" y="631.41699"/>
    <rect height="59.882889" id="rect635" style="font-size:12px;fill:#ffffff;fill-rule:evenodd;stroke:#cc0000;stroke-width:3;stroke-miterlimit:4;stroke-dasharray:none" width="13.86854" x="584.79675" y="684.48004"/>
    <rect height="59.882889" id="rect638" style="font-size:12px;fill:#ffffff;fill-rule:evenodd;stroke:#cc0000;stroke-width:3;stroke-miterlimit:4;stroke-dasharray:none" width="13.868811" x="648.5932" y="684.48169"/>
    <rect height="139.77614" id="rect986" style="font-size:12px;fill:#ffffff;fill-rule:evenodd;stroke:#cc0000;stroke-width:3;stroke-miterlimit:4;stroke-dasharray:none" width="39.313122" x="605.15228" y="631.4173"/>
    <rect height="139.77615" id="rect987" style="font-size:12px;fill:#ffffff;fill-rule:evenodd;stroke:#cc0000;stroke-width:3;stroke-miterlimit:4;stroke-dasharray:none" width="26.182514" x="611.67828" y="631.41699"/>
    <rect height="26.624128" id="rect726" style="font-size:12px;fill:#ffffff;fill-rule:evenodd;stroke:#cc0000;stroke-width:3;stroke-miterlimit:4;stroke-dasharray:none" width="723.36096" x="538.32001" y="604.78241"/>
    <path d="M 1270.8521,618.88872 L 1272.0344,536.50023 C 1272.0344,536.50023 1268.4861,559.65374 1257.8381,559.65374 C 1247.191,559.65374 553.36175,559.65374 542.71476,559.65374 C 532.06669,559.65374 528.51734,536.50023 528.51734,536.50023 L 529.69974,618.88872 L 1270.8521,618.88872 L 1270.8521,618.88872 z" id="path3989" style="font-size:12px;fill:#ffffff;fill-rule:evenodd;stroke:#cc0000;stroke-width:3;stroke-miterlimit:4;stroke-dasharray:none"/>
    <path d="M 1263.3,602.90336 L 1264.4582,538.48519 C 1264.4582,538.48519 1260.9822,561.64937 1250.5512,561.64937 C 1240.1211,561.64937 560.43194,561.64937 550.00193,561.64937 C 539.57086,561.64937 536.09385,538.48519 536.09385,538.48519 L 537.25215,602.90336 L 1263.3,602.90336 L 1263.3,602.90336 z" id="path2499" style="font-size:12px;fill:#ffffff;fill-rule:evenodd;stroke:#cc0000;stroke-width:3;stroke-miterlimit:4;stroke-dasharray:none"/>
    <rect height="34.230873" id="rect556" style="font-size:12px;fill:#ffffff;fill-rule:evenodd;stroke:#cc0000;stroke-width:3;stroke-miterlimit:4;stroke-dasharray:none" width="760.61749" x="518.23999" y="764.52899"/>
    <rect height="34.230873" id="rect555" style="font-size:12px;fill:#ffffff;fill-rule:evenodd;stroke:#cc0000;stroke-width:3;stroke-miterlimit:4;stroke-dasharray:none" width="783.84241" x="506.6275" y="771.86426"/>
    <rect height="34.230873" id="rect554" style="font-size:12px;fill:#ffffff;fill-rule:evenodd;stroke:#cc0000;stroke-width:3;stroke-miterlimit:4;stroke-dasharray:none" width="827.38916" x="486.30566" y="791.42468"/>
    <rect height="34.230873" id="rect553" style="font-size:12px;fill:#ffffff;fill-rule:evenodd;stroke:#cc0000;stroke-width:3;stroke-miterlimit:4;stroke-dasharray:none" width="885.4516" x="457.27444" y="815.87537"/>
    <rect height="33.850151" id="rect2869" style="fill:#ffffff;fill-opacity:1;stroke:#cc0000;stroke-width:3;stroke-linecap:butt;stroke-linejoin:miter;stroke-miterlimit:4;stroke-dasharray:none;stroke-opacity:1" width="943.13446" x="428.43274" y="850.29761"/>
    <rect height="119.80803" id="rect613" style="font-size:12px;fill:#ffffff;fill-rule:evenodd;stroke:#cc0000;stroke-width:3;stroke-miterlimit:4;stroke-dasharray:none" width="39.313095" x="605.15234" y="764.52856"/>
    <rect height="119.80803" id="rect614" style="font-size:12px;fill:#ffffff;fill-rule:evenodd;stroke:#cc0000;stroke-width:3;stroke-miterlimit:4;stroke-dasharray:none" width="26.208731" x="611.70447" y="764.52856"/>
    <rect height="119.80803" id="rect622" style="font-size:12px;fill:#ffffff;fill-rule:evenodd;stroke:#cc0000;stroke-width:3;stroke-miterlimit:4;stroke-dasharray:none" width="39.313095" x="1155.5358" y="764.52899"/>
    <rect height="119.80803" id="rect623" style="font-size:12px;fill:#ffffff;fill-rule:evenodd;stroke:#cc0000;stroke-width:3;stroke-miterlimit:4;stroke-dasharray:none" width="26.208731" x="1162.0879" y="764.52899"/>
    <rect height="28.619963" id="rect901" ry="14.309981" style="font-size:12px;fill:#ffffff;fill-rule:evenodd;stroke:#cc0000;stroke-width:3;stroke-miterlimit:4;stroke-dasharray:none" width="188.70287" x="805.64899" y="600.18054"/>
    <path d="M 997.07275,617.00754 L 998.28542,522.65609 C 998.28542,522.65609 994.6462,545.79919 983.72536,545.79919 C 972.8056,545.79919 827.20081,545.79919 816.28106,545.79919 C 805.36019,545.79919 801.71991,522.65609 801.71991,522.65609 L 802.9326,617.00754 L 997.07275,617.00754 L 997.07275,617.00754 z" id="path900" style="font-size:12px;fill:#ffffff;fill-rule:evenodd;stroke:#cc0000;stroke-width:3;stroke-miterlimit:4;stroke-dasharray:none"/>
    <path d="M 981.91663,592.54675 L 982.93124,516.93934 C 982.93124,516.93934 979.88639,535.4848 970.74921,535.4848 C 961.61287,535.4848 839.78861,535.4848 830.65231,535.4848 C 821.51506,535.4848 818.46933,516.93934 818.46933,516.93934 L 819.48394,592.54675 L 981.91663,592.54675 L 981.91663,592.54675 z" id="path3304" style="font-size:12px;fill:#ffffff;fill-rule:evenodd;stroke:#cc0000;stroke-width:3;stroke-miterlimit:4;stroke-dasharray:none"/>
    <path d="M 853.93798,591.96741 L 898.6837,630.56574 L 946.06345,591.96741 L 853.93798,591.96741 z" id="path760" style="font-size:12px;fill:#ffffff;fill-rule:evenodd;stroke:#cc0000;stroke-width:3;stroke-miterlimit:4;stroke-dasharray:none"/>
    <path d="M 927.17992,390.13833 L 927.34813,369.78037 C 906.31558,369.78037 911.53612,347.63055 911.53612,339.23819 C 917.73547,330.79326 919.46874,319.01202 902.16692,310.44128 C 885.23234,320.00677 886.56809,330.63271 892.79815,338.52823 C 892.89115,347.85385 899.71391,369.78037 876.6615,369.78037 L 876.82932,390.13833 L 927.17992,390.13833 z" id="path814" style="font-size:12px;fill:#ffffff;fill-rule:evenodd;stroke:#cc0000;stroke-width:3;stroke-miterlimit:4;stroke-dasharray:none"/>
    <path d="M 942.8032,416.20473 L 943.05035,389.35516 C 943.05035,389.35516 949.17563,384.4252 947.19978,377.38951 C 945.2234,370.35392 936.21103,386.26071 936.21103,386.26071 L 867.71136,386.26071 C 867.71136,386.26071 857.34627,370.35392 855.3705,377.38951 C 853.39469,384.4252 860.87202,389.35516 860.87202,389.35516 L 861.11854,416.20473 L 942.8032,416.20473 L 942.8032,416.20473 z" id="path3945" style="font-size:12px;fill:#ffffff;fill-rule:evenodd;stroke:#cc0000;stroke-width:3;stroke-miterlimit:4;stroke-dasharray:none"/>
    <rect height="14.885493" id="rect1979" style="fill:#ffffff;fill-opacity:1;stroke:#cc0000;stroke-width:3;stroke-linecap:butt;stroke-linejoin:miter;stroke-miterlimit:4;stroke-dasharray:none;stroke-opacity:1" width="61.505459" x="871.25208" y="354.21805"/>
    <rect height="14.744735" id="rect3947" style="fill:#ffffff;fill-opacity:1;stroke:#cc0000;stroke-width:3;stroke-linecap:butt;stroke-linejoin:miter;stroke-miterlimit:4;stroke-dasharray:none;stroke-opacity:1" width="69.234467" x="866.6438" y="370.61667"/>
    <path d="M 874.99465,386.15424 L 874.72516,370.83399 C 879.09267,366.86219 880.78604,378.70455 880.78604,378.70455 C 880.78604,378.70455 882.58651,362.12144 901.30327,354.74478 C 920.0193,362.12144 921.8198,379.71107 921.8198,379.71107 C 921.8198,379.71107 923.51387,366.86219 927.88139,370.83399 L 927.61117,386.15424 L 874.99465,386.15424 L 874.99465,386.15424 z" id="path2532" style="font-size:12px;fill:#ffffff;fill-rule:evenodd;stroke:#cc0000;stroke-width:3;stroke-miterlimit:4;stroke-dasharray:none"/>
    <rect height="14.203703" id="rect2867" style="fill:#ffffff;fill-opacity:1;stroke:#cc0000;stroke-width:3;stroke-linecap:butt;stroke-linejoin:miter;stroke-miterlimit:4;stroke-dasharray:none;stroke-opacity:1" width="45.297146" x="879.3562" y="339.6301"/>
    <path d="M 870.79615,418.25113 L 870.48664,400.6564 C 875.50256,396.09495 877.44733,409.69544 877.44733,409.69544 C 877.44733,409.69544 879.51511,390.65034 901.01059,382.17854 C 922.50526,390.65034 924.57304,410.85138 924.57304,410.85138 C 924.57304,410.85138 926.51862,396.09495 931.53456,400.6564 L 931.22423,418.25113 L 870.79615,418.25113 L 870.79615,418.25113 z" id="path2530" style="font-size:12px;fill:#ffffff;fill-rule:evenodd;stroke:#cc0000;stroke-width:3;stroke-miterlimit:4;stroke-dasharray:none"/>
    <path d="M 952.62917,453.04145 L 952.93573,419.7382 C 952.93573,419.7382 960.53329,413.62324 958.08254,404.89642 C 955.6311,396.16972 944.45247,415.89993 944.45247,415.89993 L 859.48791,415.89993 C 859.48791,415.89993 846.63143,396.16972 844.18074,404.89642 C 841.73003,413.62324 851.00464,419.7382 851.00464,419.7382 L 851.31042,453.04145 L 952.62917,453.04145 L 952.62917,453.04145 z" id="path3943" style="font-size:12px;fill:#ffffff;fill-rule:evenodd;stroke:#cc0000;stroke-width:3;stroke-miterlimit:4;stroke-dasharray:none"/>
    <path d="M 867.01698,453.28793 L 866.66247,433.1344 C 872.40785,427.90959 874.63542,443.48797 874.63542,443.48797 C 874.63542,443.48797 877.00394,421.67318 901.6255,411.96934 C 926.24611,421.67318 928.61462,444.81205 928.61462,444.81205 C 928.61462,444.81205 930.84314,427.90959 936.58853,433.1344 L 936.23306,453.28793 L 867.01698,453.28793 L 867.01698,453.28793 z" id="path2528" style="font-size:12px;fill:#ffffff;fill-rule:evenodd;stroke:#cc0000;stroke-width:3;stroke-miterlimit:4;stroke-dasharray:none"/>
    <path d="M 960.76832,496.57591 L 961.12296,457.23024 C 961.12296,457.23024 969.91234,450.00581 967.07714,439.6956 C 964.24116,429.38554 951.30891,452.69555 951.30891,452.69555 L 853.0159,452.69555 C 853.0159,452.69555 838.14259,429.38554 835.30748,439.6956 C 832.47231,450.00581 843.20184,457.23024 843.20184,457.23024 L 843.55561,496.57591 L 960.76832,496.57591 z" id="path3941" style="font-size:12px;fill:#ffffff;fill-rule:evenodd;stroke:#cc0000;stroke-width:3;stroke-miterlimit:4;stroke-dasharray:none"/>
    <path d="M 861.54656,496.22269 L 861.13642,472.90763 C 867.7831,466.86316 870.36014,484.88538 870.36014,484.88538 C 870.36014,484.88538 873.10019,459.64845 901.58424,448.42234 C 930.06718,459.64845 932.80724,486.41716 932.80724,486.41716 C 932.80724,486.41716 935.38535,466.86316 942.03205,472.90763 L 941.62082,496.22269 L 861.54656,496.22269 L 861.54656,496.22269 z" id="path2526" style="font-size:12px;fill:#ffffff;fill-rule:evenodd;stroke:#cc0000;stroke-width:3;stroke-miterlimit:4;stroke-dasharray:none"/>
    <path d="M 965.69665,542.77448 L 966.08741,499.55776 C 966.08741,499.55776 975.77116,491.62252 972.64745,480.29797 C 969.52289,468.97353 955.27466,494.57691 955.27466,494.57691 L 846.97937,494.57691 C 846.97937,494.57691 830.59253,468.97353 827.46893,480.29797 C 824.34524,491.62252 836.16663,499.55776 836.16663,499.55776 L 836.55639,542.77448 L 965.69665,542.77448 z" id="path3939" style="font-size:12px;fill:#ffffff;fill-rule:evenodd;stroke:#cc0000;stroke-width:3;stroke-miterlimit:4;stroke-dasharray:none"/>
    <path d="M 970.05959,560.00525 L 970.47832,525.6503 C 970.47832,525.6503 980.85535,519.34224 977.50802,510.33982 C 974.15974,501.3375 958.89146,521.69082 958.89146,521.69082 L 842.84308,521.69082 C 842.84308,521.69082 825.28308,501.3375 821.93585,510.33982 C 818.58853,519.34224 831.25622,525.6503 831.25622,525.6503 L 831.6739,560.00525 L 970.05959,560.00525 L 970.05959,560.00525 z" id="path807" style="font-size:12px;fill:#ffffff;fill-rule:evenodd;stroke:#cc0000;stroke-width:3;stroke-miterlimit:4;stroke-dasharray:none"/>
    <path d="M 854.04274,540.25025 L 853.56587,513.14132 C 861.29409,506.11328 864.29047,527.06809 864.29047,527.06809 C 864.29047,527.06809 867.47641,497.72458 900.59543,484.67171 C 933.71316,497.72458 936.89907,528.84914 936.89907,528.84914 C 936.89907,528.84914 939.89671,506.11328 947.62498,513.14132 L 947.14682,540.25025 L 854.04274,540.25025 L 854.04274,540.25025 z" id="path2512" style="font-size:12px;fill:#ffffff;fill-rule:evenodd;stroke:#cc0000;stroke-width:3;stroke-miterlimit:4;stroke-dasharray:none"/>
    <path d="M 851.87244,592.19241 L 851.84514,563.62539 C 859.86862,558.44523 864.46279,586.2156 864.46279,586.2156 C 864.46279,586.2156 865.61627,544.38566 900.00063,534.76484 C 934.38366,544.38566 935.53712,586.2156 935.53712,586.2156 C 935.53712,586.2156 940.1326,558.44523 948.15611,563.62539 L 948.12741,592.19241 L 851.87247,592.19241 L 851.87244,592.19241 z" id="path761" style="font-size:12px;fill:#ffffff;fill-rule:evenodd;stroke:#cc0000;stroke-width:3;stroke-miterlimit:4;stroke-dasharray:none"/>
    <path d="M 857.64626,630.95568 L 857.21241,599.51312 C 864.24366,591.36156 866.9698,615.66623 866.9698,615.66623 C 866.9698,615.66623 869.86841,581.63184 900.00058,566.49239 C 930.13159,581.63184 933.03018,617.73199 933.03018,617.73199 C 933.03018,617.73199 935.75747,591.36156 942.78874,599.51312 L 942.35372,630.95568 L 857.64626,630.95568 L 857.64626,630.95568 z" id="path746" style="font-size:12px;fill:#ffffff;fill-rule:evenodd;stroke:#cc0000;stroke-width:3;stroke-miterlimit:4;stroke-dasharray:none"/>
    <rect height="59.882889" id="rect652" style="font-size:12px;fill:#ffffff;fill-rule:evenodd;stroke:#cc0000;stroke-width:3;stroke-miterlimit:4;stroke-dasharray:none" width="13.86843" x="988.52368" y="684.46729"/>
    <rect height="59.882889" id="rect653" style="font-size:12px;fill:#ffffff;fill-rule:evenodd;stroke:#cc0000;stroke-width:3;stroke-miterlimit:4;stroke-dasharray:none" width="13.86843" x="1082.8313" y="684.46442"/>
    <rect height="59.882889" id="rect654" style="font-size:12px;fill:#ffffff;fill-rule:evenodd;stroke:#cc0000;stroke-width:3;stroke-miterlimit:4;stroke-dasharray:none" width="13.86843" x="1035.6775" y="684.46179"/>
    <rect height="59.882889" id="rect655" style="font-size:12px;fill:#ffffff;fill-rule:evenodd;stroke:#cc0000;stroke-width:3;stroke-miterlimit:4;stroke-dasharray:none" width="13.86843" x="1013.4875" y="684.46057"/>
    <rect height="59.882889" id="rect656" style="font-size:12px;fill:#ffffff;fill-rule:evenodd;stroke:#cc0000;stroke-width:3;stroke-miterlimit:4;stroke-dasharray:none" width="13.86843" x="1057.8676" y="684.46051"/>
    <rect height="59.882889" id="rect644" style="font-size:12px;fill:#ffffff;fill-rule:evenodd;stroke:#cc0000;stroke-width:3;stroke-miterlimit:4;stroke-dasharray:none" width="13.86843" x="703.60223" y="684.47064"/>
    <rect height="59.882889" id="rect649" style="font-size:12px;fill:#ffffff;fill-rule:evenodd;stroke:#cc0000;stroke-width:3;stroke-miterlimit:4;stroke-dasharray:none" width="13.86843" x="748.7561" y="684.46515"/>
    <rect height="59.882889" id="rect650" style="font-size:12px;fill:#ffffff;fill-rule:evenodd;stroke:#cc0000;stroke-width:3;stroke-miterlimit:4;stroke-dasharray:none" width="13.86843" x="726.56604" y="684.46393"/>
    <rect height="59.882889" id="rect648" style="font-size:12px;fill:#ffffff;fill-rule:evenodd;stroke:#cc0000;stroke-width:3;stroke-miterlimit:4;stroke-dasharray:none" width="13.86843" x="793.90991" y="684.46777"/>
    <rect height="59.882889" id="rect651" style="font-size:12px;fill:#ffffff;fill-rule:evenodd;stroke:#cc0000;stroke-width:3;stroke-miterlimit:4;stroke-dasharray:none" width="13.86843" x="770.94617" y="684.46387"/>
    <rect height="28.863768" id="rect3991" ry="14.431884" style="font-size:12px;fill:#ffffff;fill-rule:evenodd;stroke:#cc0000;stroke-width:3;stroke-miterlimit:4;stroke-dasharray:none" width="157.93275" x="548.16461" y="603.30847"/>
    <path d="M 705.71024,620.25737 L 706.92291,525.90592 C 706.92291,525.90592 703.28369,549.04902 692.36285,549.04902 C 681.44309,549.04902 569.8383,549.04902 558.91855,549.04902 C 547.99768,549.04902 544.3574,525.90592 544.3574,525.90592 L 545.57009,620.25737 L 705.71024,620.25737 L 705.71024,620.25737 z" id="path3993" style="font-size:12px;fill:#ffffff;fill-rule:evenodd;stroke:#cc0000;stroke-width:3;stroke-miterlimit:4;stroke-dasharray:none"/>
    <path d="M 693.0691,599.11455 L 694.08371,523.50714 C 694.08371,523.50714 685.03886,542.0526 675.90168,542.0526 C 666.76534,542.0526 584.94108,542.0526 575.80478,542.0526 C 566.66753,542.0526 557.6218,523.50714 557.6218,523.50714 L 558.63641,599.11455 L 693.0691,599.11455 L 693.0691,599.11455 z" id="path3997" style="font-size:12px;fill:#ffffff;fill-rule:evenodd;stroke:#cc0000;stroke-width:3;stroke-miterlimit:4;stroke-dasharray:none"/>
    <path d="M 591.79491,583.48636 L 625.56125,612.61371 L 661.3153,583.48636 L 591.79491,583.48636 z" id="path4021" style="font-size:12px;fill:#ffffff;fill-rule:evenodd;stroke:#cc0000;stroke-width:3;stroke-miterlimit:4;stroke-dasharray:none"/>
    <path d="M 647.06527,447.18063 L 647.19221,431.81796 C 631.32047,431.81796 635.26003,415.1031 635.26003,408.76999 C 639.93823,402.39722 641.2462,393.50677 628.18978,387.03906 C 615.41048,394.25744 616.41848,402.27606 621.11985,408.23424 C 621.19005,415.27161 626.33867,431.81796 608.94269,431.81796 L 609.06933,447.18063 L 647.06527,447.18063 L 647.06527,447.18063 z" id="path4023" style="font-size:12px;fill:#ffffff;fill-rule:evenodd;stroke:#cc0000;stroke-width:3;stroke-miterlimit:4;stroke-dasharray:none"/>
    <path d="M 658.85502,466.85104 L 659.04153,446.58963 C 659.04153,446.58963 663.66383,442.86934 662.1728,437.56002 C 660.68137,432.25077 653.88039,444.25447 653.88039,444.25447 L 602.18867,444.25447 C 602.18867,444.25447 594.36689,432.25077 592.87592,437.56002 C 591.38492,442.86934 597.02752,446.58963 597.02752,446.58963 L 597.21355,466.85104 L 658.85502,466.85104 L 658.85502,466.85104 z" id="path4025" style="font-size:12px;fill:#ffffff;fill-rule:evenodd;stroke:#cc0000;stroke-width:3;stroke-miterlimit:4;stroke-dasharray:none"/>
    <rect height="11.232999" id="rect4027" style="fill:#ffffff;fill-opacity:1;stroke:#cc0000;stroke-width:3;stroke-linecap:butt;stroke-linejoin:miter;stroke-miterlimit:4;stroke-dasharray:none;stroke-opacity:1" width="46.413696" x="604.8606" y="420.07419"/>
    <rect height="11.126779" id="rect4029" style="fill:#ffffff;fill-opacity:1;stroke:#cc0000;stroke-width:3;stroke-linecap:butt;stroke-linejoin:miter;stroke-miterlimit:4;stroke-dasharray:none;stroke-opacity:1" width="52.246216" x="601.38306" y="432.44904"/>
    <path d="M 607.68484,444.17412 L 607.48148,432.61305 C 610.77732,429.61582 612.05518,438.55239 612.05518,438.55239 C 612.05518,438.55239 613.41387,426.03832 627.53804,420.47169 C 641.66167,426.03832 643.02038,439.31193 643.02038,439.31193 C 643.02038,439.31193 644.29877,429.61582 647.59462,432.61305 L 647.3907,444.17412 L 607.68484,444.17412 L 607.68484,444.17412 z" id="path4031" style="font-size:12px;fill:#ffffff;fill-rule:evenodd;stroke:#cc0000;stroke-width:3;stroke-miterlimit:4;stroke-dasharray:none"/>
    <rect height="10.718502" id="rect4033" style="fill:#ffffff;fill-opacity:1;stroke:#cc0000;stroke-width:3;stroke-linecap:butt;stroke-linejoin:miter;stroke-miterlimit:4;stroke-dasharray:none;stroke-opacity:1" width="34.182461" x="610.9762" y="409.06573"/>
    <path d="M 604.51654,466.39531 L 604.28298,453.11785 C 608.06813,449.67566 609.5357,459.93896 609.5357,459.93896 C 609.5357,459.93896 611.0961,445.567 627.31718,439.17395 C 643.53764,445.567 645.09805,460.81126 645.09805,460.81126 C 645.09805,460.81126 646.56624,449.67566 650.3514,453.11785 L 650.11722,466.39531 L 604.51654,466.39531 L 604.51654,466.39531 z" id="path4035" style="font-size:12px;fill:#ffffff;fill-rule:evenodd;stroke:#cc0000;stroke-width:3;stroke-miterlimit:4;stroke-dasharray:none"/>
    <path d="M 666.26997,492.64904 L 666.50131,467.5175 C 666.50131,467.5175 672.23463,462.90298 670.38523,456.31749 C 668.53531,449.73208 660.09961,464.62103 660.09961,464.62103 L 595.98303,464.62103 C 595.98303,464.62103 586.28118,449.73208 584.43183,456.31749 C 582.58245,462.90298 589.58133,467.5175 589.58133,467.5175 L 589.81208,492.64904 L 666.26997,492.64904 L 666.26997,492.64904 z" id="path4037" style="font-size:12px;fill:#ffffff;fill-rule:evenodd;stroke:#cc0000;stroke-width:3;stroke-miterlimit:4;stroke-dasharray:none"/>
    <path d="M 601.66468,492.83504 L 601.39715,477.62664 C 605.73277,473.68385 607.41376,485.43972 607.41376,485.43972 C 607.41376,485.43972 609.20111,468.97769 627.78121,461.6549 C 646.36059,468.97769 648.14793,486.43891 648.14793,486.43891 C 648.14793,486.43891 649.82964,473.68385 654.16526,477.62664 L 653.89702,492.83504 L 601.66468,492.83504 z" id="path4039" style="font-size:12px;fill:#ffffff;fill-rule:evenodd;stroke:#cc0000;stroke-width:3;stroke-miterlimit:4;stroke-dasharray:none"/>
    <path d="M 672.41199,523.50133 L 672.67961,493.81001 C 672.67961,493.81001 679.31232,488.35826 677.1728,480.5779 C 675.03269,472.79764 665.27366,490.38801 665.27366,490.38801 L 591.09908,490.38801 C 591.09908,490.38801 579.87527,472.79764 577.73582,480.5779 C 575.59633,488.35826 583.69312,493.81001 583.69312,493.81001 L 583.96009,523.50133 L 672.41199,523.50133 L 672.41199,523.50133 z" id="path4041" style="font-size:12px;fill:#ffffff;fill-rule:evenodd;stroke:#cc0000;stroke-width:3;stroke-miterlimit:4;stroke-dasharray:none"/>
    <path d="M 597.53655,517.23478 L 597.22704,499.6406 C 602.24281,495.07928 604.18751,508.67934 604.18751,508.67934 C 604.18751,508.67934 606.25523,489.63486 627.75007,481.16333 C 649.24408,489.63486 651.3118,509.83526 651.3118,509.83526 C 651.3118,509.83526 653.25731,495.07928 658.27309,499.6406 L 657.96277,517.23478 L 597.53655,517.23478 L 597.53655,517.23478 z" id="path4043" style="font-size:12px;fill:#ffffff;fill-rule:evenodd;stroke:#cc0000;stroke-width:3;stroke-miterlimit:4;stroke-dasharray:none"/>
    <path d="M 676.13105,554.36403 L 676.42592,521.75151 C 676.42592,521.75151 683.73355,515.76337 681.37631,507.21755 C 679.01843,498.67182 668.26633,517.99283 668.26633,517.99283 L 586.54375,517.99283 C 586.54375,517.99283 574.17779,498.67182 571.82064,507.21755 C 569.46342,515.76337 578.38416,521.75151 578.38416,521.75151 L 578.67828,554.36403 L 676.13105,554.36403 z" id="path4045" style="font-size:12px;fill:#ffffff;fill-rule:evenodd;stroke:#cc0000;stroke-width:3;stroke-miterlimit:4;stroke-dasharray:none"/>
    <path d="M 679.42344,565.36684 L 679.73942,539.44166 C 679.73942,539.44166 687.57021,534.68142 685.04423,527.88795 C 682.51752,521.09455 670.99566,536.45372 670.99566,536.45372 L 583.42239,536.45372 C 583.42239,536.45372 570.17114,521.09455 567.64522,527.88795 C 565.11925,534.68142 574.67863,539.44166 574.67863,539.44166 L 574.99382,565.36684 L 679.42344,565.36684 z" id="path4047" style="font-size:12px;fill:#ffffff;fill-rule:evenodd;stroke:#cc0000;stroke-width:3;stroke-miterlimit:4;stroke-dasharray:none"/>
    <path d="M 591.87396,550.45918 L 591.5141,530.00204 C 597.34603,524.69849 599.60718,540.51156 599.60718,540.51156 C 599.60718,540.51156 602.01137,518.36815 627.00389,508.51809 C 651.99543,518.36815 654.39961,541.85559 654.39961,541.85559 C 654.39961,541.85559 656.66171,524.69849 662.49367,530.00204 L 662.13284,550.45918 L 591.87396,550.45918 L 591.87396,550.45918 z" id="path4049" style="font-size:12px;fill:#ffffff;fill-rule:evenodd;stroke:#cc0000;stroke-width:3;stroke-miterlimit:4;stroke-dasharray:none"/>
    <path d="M 590.23619,583.65615 L 590.21559,562.0987 C 596.27033,558.18961 599.73722,579.14588 599.73722,579.14588 C 599.73722,579.14588 600.60766,547.57987 626.55504,540.31974 C 652.50141,547.57987 653.37184,579.14588 653.37184,579.14588 C 653.37184,579.14588 656.83972,558.18961 662.89448,562.0987 L 662.87288,583.65615 L 590.23627,583.65615 L 590.23619,583.65615 z" id="path4051" style="font-size:12px;fill:#ffffff;fill-rule:evenodd;stroke:#cc0000;stroke-width:3;stroke-miterlimit:4;stroke-dasharray:none"/>
    <path d="M 588.62753,631.85366 L 588.24223,603.92942 C 594.48671,596.68999 596.9078,618.27505 596.9078,618.27505 C 596.9078,618.27505 599.48207,588.04899 626.24255,574.60359 C 653.002,588.04899 655.57625,620.10966 655.57625,620.10966 C 655.57625,620.10966 657.99837,596.68999 664.24286,603.92942 L 663.85652,631.85366 L 588.62753,631.85366 L 588.62753,631.85366 z" id="path3995" style="font-size:12px;fill:#ffffff;fill-rule:evenodd;stroke:#cc0000;stroke-width:3;stroke-miterlimit:4;stroke-dasharray:none"/>
    <rect height="28.863768" id="rect4053" ry="14.431884" style="font-size:12px;fill:#ffffff;fill-rule:evenodd;stroke:#cc0000;stroke-width:3;stroke-miterlimit:4;stroke-dasharray:none" width="157.93275" x="1097.0374" y="603.58771"/>
    <path d="M 1254.583,620.53659 L 1255.7957,526.18514 C 1255.7957,526.18514 1252.1565,549.32824 1241.2356,549.32824 C 1230.3159,549.32824 1118.7111,549.32824 1107.7913,549.32824 C 1096.8704,549.32824 1093.2302,526.18514 1093.2302,526.18514 L 1094.4429,620.53659 L 1254.583,620.53659 L 1254.583,620.53659 z" id="path4055" style="font-size:12px;fill:#ffffff;fill-rule:evenodd;stroke:#cc0000;stroke-width:3;stroke-miterlimit:4;stroke-dasharray:none"/>
    <path d="M 1241.9419,599.39377 L 1242.9565,523.78636 C 1242.9565,523.78636 1233.9116,542.33182 1224.7744,542.33182 C 1215.6381,542.33182 1133.8138,542.33182 1124.6775,542.33182 C 1115.5403,542.33182 1106.4946,523.78636 1106.4946,523.78636 L 1107.5092,599.39377 L 1241.9419,599.39377 z" id="path4057" style="font-size:12px;fill:#ffffff;fill-rule:evenodd;stroke:#cc0000;stroke-width:3;stroke-miterlimit:4;stroke-dasharray:none"/>
    <path d="M 1140.6677,583.76558 L 1174.434,612.89293 L 1210.1881,583.76558 L 1140.6677,583.76558 z" id="path4059" style="font-size:12px;fill:#ffffff;fill-rule:evenodd;stroke:#cc0000;stroke-width:3;stroke-miterlimit:4;stroke-dasharray:none"/>
    <path d="M 1195.938,447.45985 L 1196.065,432.09718 C 1180.1932,432.09718 1184.1328,415.38232 1184.1328,409.04921 C 1188.811,402.67644 1190.119,393.78599 1177.0625,387.31828 C 1164.2832,394.53666 1165.2912,402.55528 1169.9926,408.51346 C 1170.0626,415.55083 1175.2114,432.09718 1157.8155,432.09718 L 1157.9421,447.45985 L 1195.938,447.45985 L 1195.938,447.45985 z" id="path4061" style="font-size:12px;fill:#ffffff;fill-rule:evenodd;stroke:#cc0000;stroke-width:3;stroke-miterlimit:4;stroke-dasharray:none"/>
    <path d="M 1207.7278,467.13026 L 1207.9143,446.86885 C 1207.9143,446.86885 1212.5366,443.14856 1211.0456,437.83924 C 1209.5541,432.52999 1202.7532,444.53369 1202.7532,444.53369 L 1151.0614,444.53369 C 1151.0614,444.53369 1143.2397,432.52999 1141.7487,437.83924 C 1140.2577,443.14856 1145.9003,446.86885 1145.9003,446.86885 L 1146.0863,467.13026 L 1207.7278,467.13026 L 1207.7278,467.13026 z" id="path4063" style="font-size:12px;fill:#ffffff;fill-rule:evenodd;stroke:#cc0000;stroke-width:3;stroke-miterlimit:4;stroke-dasharray:none"/>
    <rect height="11.232999" id="rect4065" style="fill:#ffffff;fill-opacity:1;stroke:#cc0000;stroke-width:3;stroke-linecap:butt;stroke-linejoin:miter;stroke-miterlimit:4;stroke-dasharray:none;stroke-opacity:1" width="46.413696" x="1153.7334" y="420.35342"/>
    <rect height="11.126779" id="rect4067" style="fill:#ffffff;fill-opacity:1;stroke:#cc0000;stroke-width:3;stroke-linecap:butt;stroke-linejoin:miter;stroke-miterlimit:4;stroke-dasharray:none;stroke-opacity:1" width="52.246216" x="1150.2559" y="432.72827"/>
    <path d="M 1156.5576,444.45334 L 1156.3542,432.89227 C 1159.6501,429.89504 1160.9279,438.83161 1160.9279,438.83161 C 1160.9279,438.83161 1162.2866,426.31754 1176.4108,420.75091 C 1190.5344,426.31754 1191.8931,439.59115 1191.8931,439.59115 C 1191.8931,439.59115 1193.1715,429.89504 1196.4674,432.89227 L 1196.2635,444.45334 L 1156.5576,444.45334 L 1156.5576,444.45334 z" id="path4069" style="font-size:12px;fill:#ffffff;fill-rule:evenodd;stroke:#cc0000;stroke-width:3;stroke-miterlimit:4;stroke-dasharray:none"/>
    <rect height="10.718502" id="rect4071" style="fill:#ffffff;fill-opacity:1;stroke:#cc0000;stroke-width:3;stroke-linecap:butt;stroke-linejoin:miter;stroke-miterlimit:4;stroke-dasharray:none;stroke-opacity:1" width="34.182461" x="1159.849" y="409.34497"/>
    <path d="M 1153.3893,466.67453 L 1153.1557,453.39707 C 1156.9409,449.95488 1158.4085,460.21818 1158.4085,460.21818 C 1158.4085,460.21818 1159.9689,445.84622 1176.1899,439.45317 C 1192.4104,445.84622 1193.9708,461.09048 1193.9708,461.09048 C 1193.9708,461.09048 1195.439,449.95488 1199.2242,453.39707 L 1198.99,466.67453 L 1153.3893,466.67453 z" id="path4073" style="font-size:12px;fill:#ffffff;fill-rule:evenodd;stroke:#cc0000;stroke-width:3;stroke-miterlimit:4;stroke-dasharray:none"/>
    <path d="M 1215.1427,492.92826 L 1215.3741,467.79672 C 1215.3741,467.79672 1221.1074,463.1822 1219.258,456.59671 C 1217.4081,450.0113 1208.9724,464.90025 1208.9724,464.90025 L 1144.8558,464.90025 C 1144.8558,464.90025 1135.1539,450.0113 1133.3046,456.59671 C 1131.4552,463.1822 1138.4541,467.79672 1138.4541,467.79672 L 1138.6848,492.92826 L 1215.1427,492.92826 L 1215.1427,492.92826 z" id="path4075" style="font-size:12px;fill:#ffffff;fill-rule:evenodd;stroke:#cc0000;stroke-width:3;stroke-miterlimit:4;stroke-dasharray:none"/>
    <path d="M 1150.5374,493.11426 L 1150.2699,477.90586 C 1154.6055,473.96307 1156.2865,485.71894 1156.2865,485.71894 C 1156.2865,485.71894 1158.0739,469.25691 1176.654,461.93412 C 1195.2334,469.25691 1197.0207,486.71813 1197.0207,486.71813 C 1197.0207,486.71813 1198.7024,473.96307 1203.038,477.90586 L 1202.7698,493.11426 L 1150.5374,493.11426 z" id="path4077" style="font-size:12px;fill:#ffffff;fill-rule:evenodd;stroke:#cc0000;stroke-width:3;stroke-miterlimit:4;stroke-dasharray:none"/>
    <path d="M 1221.2848,523.78055 L 1221.5524,494.08923 C 1221.5524,494.08923 1228.1851,488.63748 1226.0456,480.85712 C 1223.9055,473.07686 1214.1464,490.66723 1214.1464,490.66723 L 1139.9718,490.66723 C 1139.9718,490.66723 1128.748,473.07686 1126.6086,480.85712 C 1124.4691,488.63748 1132.5659,494.08923 1132.5659,494.08923 L 1132.8329,523.78055 L 1221.2848,523.78055 L 1221.2848,523.78055 z" id="path4079" style="font-size:12px;fill:#ffffff;fill-rule:evenodd;stroke:#cc0000;stroke-width:3;stroke-miterlimit:4;stroke-dasharray:none"/>
    <path d="M 1146.4093,517.514 L 1146.0998,499.91982 C 1151.1156,495.3585 1153.0603,508.95856 1153.0603,508.95856 C 1153.0603,508.95856 1155.128,489.91408 1176.6228,481.44255 C 1198.1168,489.91408 1200.1846,510.11448 1200.1846,510.11448 C 1200.1846,510.11448 1202.1301,495.3585 1207.1459,499.91982 L 1206.8355,517.514 L 1146.4093,517.514 L 1146.4093,517.514 z" id="path4081" style="font-size:12px;fill:#ffffff;fill-rule:evenodd;stroke:#cc0000;stroke-width:3;stroke-miterlimit:4;stroke-dasharray:none"/>
    <path d="M 1225.0038,554.64325 L 1225.2987,522.03073 C 1225.2987,522.03073 1232.6063,516.04259 1230.2491,507.49677 C 1227.8912,498.95104 1217.1391,518.27205 1217.1391,518.27205 L 1135.4165,518.27205 C 1135.4165,518.27205 1123.0506,498.95104 1120.6934,507.49677 C 1118.3362,516.04259 1127.2569,522.03073 1127.2569,522.03073 L 1127.551,554.64325 L 1225.0038,554.64325 L 1225.0038,554.64325 z" id="path4083" style="font-size:12px;fill:#ffffff;fill-rule:evenodd;stroke:#cc0000;stroke-width:3;stroke-miterlimit:4;stroke-dasharray:none"/>
    <path d="M 1228.2962,565.64606 L 1228.6122,539.72088 C 1228.6122,539.72088 1236.443,534.96064 1233.917,528.16717 C 1231.3903,521.37377 1219.8684,536.73294 1219.8684,536.73294 L 1132.2952,536.73294 C 1132.2952,536.73294 1119.0439,521.37377 1116.518,528.16717 C 1113.992,534.96064 1123.5514,539.72088 1123.5514,539.72088 L 1123.8666,565.64606 L 1228.2962,565.64606 L 1228.2962,565.64606 z" id="path4085" style="font-size:12px;fill:#ffffff;fill-rule:evenodd;stroke:#cc0000;stroke-width:3;stroke-miterlimit:4;stroke-dasharray:none"/>
    <path d="M 1140.7467,550.7384 L 1140.3869,530.28126 C 1146.2188,524.97771 1148.4799,540.79078 1148.4799,540.79078 C 1148.4799,540.79078 1150.8841,518.64737 1175.8767,508.79731 C 1200.8682,518.64737 1203.2724,542.13481 1203.2724,542.13481 C 1203.2724,542.13481 1205.5345,524.97771 1211.3664,530.28126 L 1211.0056,550.7384 L 1140.7467,550.7384 L 1140.7467,550.7384 z" id="path4087" style="font-size:12px;fill:#ffffff;fill-rule:evenodd;stroke:#cc0000;stroke-width:3;stroke-miterlimit:4;stroke-dasharray:none"/>
    <path d="M 1139.109,583.93537 L 1139.088,562.37792 C 1145.1428,558.46883 1148.6096,579.4251 1148.6096,579.4251 C 1148.6096,579.4251 1149.4801,547.85909 1175.4275,540.59896 C 1201.3738,547.85909 1202.2443,579.4251 1202.2443,579.4251 C 1202.2443,579.4251 1205.7121,558.46883 1211.7669,562.37792 L 1211.7449,583.93537 L 1139.1083,583.93537 L 1139.109,583.93537 z" id="path4089" style="font-size:12px;fill:#ffffff;fill-rule:evenodd;stroke:#cc0000;stroke-width:3;stroke-miterlimit:4;stroke-dasharray:none"/>
    <path d="M 1137.5003,632.13288 L 1137.115,604.20864 C 1143.3595,596.96921 1145.7806,618.55427 1145.7806,618.55427 C 1145.7806,618.55427 1148.3548,588.32821 1175.1153,574.88281 C 1201.8748,588.32821 1204.449,620.38888 1204.449,620.38888 C 1204.449,620.38888 1206.8711,596.96921 1213.1156,604.20864 L 1212.7293,632.13288 L 1137.5003,632.13288 L 1137.5003,632.13288 z" id="path4091" style="font-size:12px;fill:#ffffff;fill-rule:evenodd;stroke:#cc0000;stroke-width:3;stroke-miterlimit:4;stroke-dasharray:none"/>
    <rect height="139.77614" id="rect2520" style="font-size:12px;fill:#ffffff;fill-rule:evenodd;stroke:#cc0000;stroke-width:3;stroke-miterlimit:4;stroke-dasharray:none" width="39.313122" x="879.87341" y="631.21399"/>
    <rect height="139.77615" id="rect2522" style="font-size:12px;fill:#ffffff;fill-rule:evenodd;stroke:#cc0000;stroke-width:3;stroke-miterlimit:4;stroke-dasharray:none" width="26.182514" x="886.39941" y="631.21375"/>
    <rect height="119.80803" id="rect2524" style="font-size:12px;fill:#ffffff;fill-rule:evenodd;stroke:#cc0000;stroke-width:3;stroke-miterlimit:4;stroke-dasharray:none" width="39.313095" x="879.32153" y="764.32593"/>
    <rect height="119.80803" id="rect2526" style="font-size:12px;fill:#ffffff;fill-rule:evenodd;stroke:#cc0000;stroke-width:3;stroke-miterlimit:4;stroke-dasharray:none" width="26.208731" x="885.56073" y="764.32593"/>
  </g>
</svg>
