<?xml version="1.0" encoding="UTF-8" standalone="no"?>
<!-- Created with Sodipodi ("http://www.sodipodi.com/") --><svg height="256" id="svg571" inkscape:output_extension="org.inkscape.output.svg.inkscape" inkscape:version="0.46" sodipodi:docbase="C:\Documents and Settings\Zoran\Desktop" sodipodi:docname="Flag_of_Norfolk_Island.svg" sodipodi:version="0.32" version="1.0" width="256" xmlns="http://www.w3.org/2000/svg" xmlns:cc="http://creativecommons.org/ns#" xmlns:dc="http://purl.org/dc/elements/1.1/" xmlns:inkscape="http://www.inkscape.org/namespaces/inkscape" xmlns:rdf="http://www.w3.org/1999/02/22-rdf-syntax-ns#" xmlns:sodipodi="http://sodipodi.sourceforge.net/DTD/sodipodi-0.dtd" xmlns:svg="http://www.w3.org/2000/svg">
  <metadata>
    <rdf:RDF xmlns:cc="http://web.resource.org/cc/" xmlns:dc="http://purl.org/dc/elements/1.1/" xmlns:rdf="http://www.w3.org/1999/02/22-rdf-syntax-ns#">
      <cc:Work rdf:about="">
        <dc:title>Australia - Norfolk Islands</dc:title>
        <dc:description></dc:description>
        <dc:subject>
          <rdf:Bag>
            <rdf:li></rdf:li>
            <rdf:li>australia</rdf:li>
            <rdf:li>oceania</rdf:li>
            <rdf:li>flag</rdf:li>
            <rdf:li>sign</rdf:li>
          </rdf:Bag>
        </dc:subject>
        <dc:publisher>
          <cc:Agent rdf:about="http://www.openclipart.org">
            <dc:title>Tobias Jakobs, Source: Wikimedia Commons</dc:title>
          </cc:Agent>
        </dc:publisher>
        <dc:creator>
          <cc:Agent>
            <dc:title>Tobias Jakobs</dc:title>
          </cc:Agent>
        </dc:creator>
        <dc:rights>
          <cc:Agent>
            <dc:title>Tobias Jakobs</dc:title>
          </cc:Agent>
        </dc:rights>
        <dc:date></dc:date>
        <dc:format>image/svg+xml</dc:format>
        <dc:type rdf:resource="http://purl.org/dc/dcmitype/StillImage"/>
        <cc:license rdf:resource="http://web.resource.org/cc/PublicDomain"/>
        <dc:language>en</dc:language>
      </cc:Work>
      <cc:License rdf:about="http://web.resource.org/cc/PublicDomain">
        <cc:permits rdf:resource="http://web.resource.org/cc/Reproduction"/>
        <cc:permits rdf:resource="http://web.resource.org/cc/Distribution"/>
        <cc:permits rdf:resource="http://web.resource.org/cc/DerivativeWorks"/>
      </cc:License>
    </rdf:RDF>
  </metadata>
  <defs id="defs573">
    <inkscape:perspective id="perspective4451" inkscape:persp3d-origin="500 : 166.66667 : 1" inkscape:vp_x="0 : 250 : 1" inkscape:vp_y="0 : 1000 : 0" inkscape:vp_z="1000 : 250 : 1" sodipodi:type="inkscape:persp3d"/>
  </defs>
  <sodipodi:namedview id="base" inkscape:current-layer="svg571" inkscape:cx="499.42081" inkscape:cy="272.22819" inkscape:window-height="699" inkscape:window-width="893" inkscape:window-x="22" inkscape:window-y="29" inkscape:zoom="0.5" showgrid="false"/>
  <rect height="127.99994" id="rect609" style="font-size:12px;fill:#ffffff;fill-opacity:1;fill-rule:evenodd;stroke-width:1pt" width="100.17829" x="77.915428" y="64.000061"/>
  <path d="M 127.9273,69.7977 C 127.70436,72.224429 127.48097,74.652288 127.25803,77.079026 C 126.44085,77.202856 125.62392,77.326146 124.80673,77.449946 C 124.80672,77.449946 126.50922,78.411386 126.80647,79.377125 C 126.85404,79.531795 126.83503,79.659815 126.76616,79.756105 C 126.74358,79.786235 126.70889,79.819665 126.67746,79.844805 C 126.18428,80.225955 124.72609,80.046395 124.72609,80.046395 C 124.72609,80.046395 126.65785,81.685654 126.80647,82.279974 C 126.80995,82.293904 126.81425,82.306854 126.81454,82.320294 C 126.81435,82.331434 126.81683,82.349804 126.81454,82.360614 C 126.81238,82.369204 126.80186,82.384484 126.79841,82.392864 C 126.78524,82.422014 126.76146,82.454904 126.7339,82.481564 C 126.27974,82.903454 124.13746,83.021814 124.13746,83.021814 C 124.13746,83.021814 126.5127,84.725093 126.66133,85.690832 C 126.79602,86.566052 126.68303,87.078682 126.66133,87.166452 C 126.49534,87.023862 122.66503,83.786643 120.19441,84.731273 C 120.07135,84.795573 119.99853,84.856833 119.96863,84.916733 C 119.9555,84.946643 119.95272,84.983863 119.96057,85.013503 C 120.13366,85.551952 123.62761,86.103582 126.06463,88.222771 C 126.00418,88.753111 119.11865,86.535772 118.86394,87.924421 C 119.0793,88.315981 126.27418,89.358891 126.80647,90.30315 C 124.15675,90.40223 118.6828,89.71667 118.86394,90.59343 C 118.3102,91.605689 124.03405,91.03396 126.43555,91.859399 C 127.13947,92.659299 127.07154,93.331279 125.84692,93.415659 C 123.53237,92.308959 118.35219,91.48661 118.33981,92.899589 C 118.33993,92.901059 118.33952,92.906199 118.33981,92.907659 C 118.34025,92.909089 118.34727,92.914299 118.34787,92.915719 C 118.35015,92.919919 118.35225,92.927809 118.35593,92.931849 C 118.36422,92.939819 118.38257,92.948639 118.39625,92.956039 C 118.98123,93.249479 123.80513,93.106339 125.62114,94.310698 C 123.04624,94.896428 114.3149,93.122469 114.25968,93.988158 C 114.50842,94.392498 115.88999,96.167047 118.26724,96.092737 C 120.64449,96.018417 126.14462,97.059317 126.51619,97.802186 C 126.52779,97.825406 126.52764,97.849226 126.52425,97.866696 C 126.36328,98.384796 119.2814,96.286297 116.55778,97.576417 C 113.73491,98.913796 124.65255,98.103056 126.43555,99.737426 C 128.21856,101.3718 122.87149,99.584226 122.87149,99.584226 C 122.87149,99.584226 115.44643,98.548226 114.33225,99.068156 C 113.21781,99.588356 111.95352,100.77762 111.95352,100.77762 C 111.95352,100.77762 112.69433,102.25994 113.4372,101.96295 C 113.55038,101.91766 113.62773,101.90839 113.67105,101.92263 C 113.67208,101.92306 113.67812,101.92217 113.67911,101.92263 C 113.68006,101.92312 113.68626,101.93017 113.68717,101.93069 C 113.68878,101.93193 113.69378,101.9374 113.69524,101.93876 C 113.69662,101.94017 113.70206,101.94529 113.7033,101.94682 C 113.70381,101.94767 113.71088,101.954 113.71136,101.95488 C 113.71467,101.96235 113.71819,101.97804 113.71943,101.98714 C 113.73693,102.20999 113.21143,102.85799 113.21143,102.85799 C 113.21142,102.858 123.61656,105.37877 125.91949,107.60739 C 128.22242,109.83627 112.69536,104.1159 112.69536,104.1159 C 112.69536,104.1159 106.45474,106.41858 113.06628,106.5672 C 112.32938,107.64531 113.37151,108.30889 113.4372,108.34923 C 113.4372,108.34923 124.43439,110.65442 125.54857,112.43742 C 126.66301,114.22042 118.04591,110.7259 116.11428,109.76034 C 114.25081,108.82849 109.06383,110.25318 108.76844,110.68765 C 108.76637,110.6911 108.7618,110.70045 108.76038,110.70377 C 108.75983,110.7054 108.76076,110.71024 108.76038,110.71184 C 108.75995,110.71495 108.76014,110.72499 108.76038,110.72796 C 108.76067,110.72941 108.76001,110.73457 108.76038,110.73602 C 108.76082,110.73749 108.75986,110.74262 108.76038,110.74409 C 108.76097,110.74556 108.76777,110.75068 108.76844,110.75215 C 108.76918,110.75363 108.76763,110.75873 108.76844,110.76022 C 108.77199,110.76617 108.77988,110.77839 108.78457,110.78441 C 108.78581,110.78592 108.79132,110.79095 108.79263,110.79247 C 109.12492,111.15863 111.44032,111.66289 111.51003,112.29228 C 111.51032,112.29489 111.50984,112.29775 111.51003,112.30034 C 111.51117,112.33394 111.50081,112.37373 111.48584,112.40517 C 111.19419,112.97068 108.43177,113.21124 108.31689,113.74371 C 108.31532,113.75281 108.30882,113.76668 108.30882,113.77596 C 108.30882,114.37047 122.20512,117.26791 125.91949,120.38803 C 129.63386,123.50814 115.00152,116.67076 115.00152,116.67076 C 115.00153,116.67076 115.81871,117.78461 115.00152,118.08187 C 114.18434,118.37886 111.28129,113.92194 106.52679,116.67076 C 105.66084,117.80171 110.67807,118.69934 111.95352,118.82371 C 111.51797,119.94357 111.13814,120.31403 112.92114,121.42822 C 113.11613,121.55011 113.2256,121.62375 113.26787,121.66206 C 113.26921,121.66333 113.27477,121.66894 113.27593,121.67012 C 113.27693,121.67121 113.28317,121.67719 113.284,121.67818 C 113.28449,121.67899 113.28367,121.68553 113.284,121.68625 C 113.28384,121.6867 113.28432,121.69394 113.284,121.69431 C 113.28321,121.69443 113.27687,121.69428 113.27593,121.69431 C 113.27485,121.69426 113.26911,121.69445 113.26787,121.69431 C 112.9917,121.65112 109.78849,120.00496 109.45384,119.93647 C 109.45077,119.93594 109.44019,119.93667 109.43771,119.93647 C 109.43677,119.93653 109.43044,119.93632 109.42965,119.93647 C 109.42965,120.08509 109.80057,121.8717 109.80057,121.8717 C 108.15458,120.53459 106.16503,120.13141 104.30127,121.50079 C 104.29873,121.58001 104.28486,122.86208 106.15587,123.65373 C 105.1013,125.80855 107.34759,125.13954 110.91333,127.14522 C 105.61362,125.7601 105.18941,128.33301 108.97809,128.92725 C 112.76677,129.5215 123.16958,129.89384 125.62114,133.08802 C 126.13827,133.76184 126.27861,134.10067 126.17752,134.20884 C 125.76864,134.57941 122.00671,131.85859 121.46038,131.75754 C 121.45922,131.7583 121.45348,131.7566 121.45232,131.75754 C 121.45115,131.75865 121.44541,131.76432 121.44425,131.7656 C 121.43729,131.77431 121.42698,131.79152 121.42006,131.80592 C 121.28655,132.10147 121.16203,133.38637 121.16203,133.38637 C 119.5772,132.46906 118.12293,131.6462 116.22717,131.2576 C 116.07855,131.5546 116.1097,131.97661 115.96108,132.2736 C 114.24078,131.03298 112.74207,130.16077 110.24406,130.04002 C 110.14498,130.43635 110.0448,130.83708 109.94571,131.23341 C 109.94572,131.23341 107.86307,128.63323 103.77714,131.23341 C 101.49563,132.86907 112.39605,131.82566 114.17905,133.75728 C 115.96205,135.68866 114.54997,135.98281 114.54997,135.98281 C 113.06422,135.4381 111.58467,134.89869 110.09892,134.35398 C 110.09892,134.35399 104.8194,133.3832 103.33365,134.5717 C 101.8479,135.76045 125.02515,138.6586 125.69371,141.85303 C 126.14449,143.58545 120.24821,140.03894 115.14666,138.51474 C 114.94933,139.08183 114.7473,139.64906 114.54997,140.21614 C 114.42899,140.09645 112.45553,138.17693 110.24406,137.84548 C 110.24319,137.84644 110.2366,137.85164 110.236,137.85354 C 110.23567,137.85634 110.23607,137.86599 110.236,137.86967 C 110.23948,138.11348 110.68755,139.85328 110.68755,139.85328 C 110.68755,139.85329 104.97293,137.17588 102.07574,138.58732 C 99.178309,139.99875 112.17614,140.74143 113.36463,142.07881 C 113.49462,142.22506 113.54873,142.33167 113.54203,142.40135 C 113.54006,142.41336 113.53166,142.43175 113.5259,142.44167 C 113.23881,142.86215 109.36279,141.30919 108.97809,142.07881 C 108.53221,142.9703 102.21914,140.44682 102.29346,141.63532 C 102.36777,142.82406 103.18851,143.48991 103.18851,143.48991 C 103.1885,143.48991 116.33767,144.75207 116.78355,146.31213 C 117.22918,147.87219 109.50222,145.42515 109.50222,145.42515 C 109.50222,145.42515 108.75477,146.53404 109.34901,147.05397 C 109.37223,147.07429 109.39075,147.09369 109.3974,147.10235 C 109.39759,147.10289 109.39736,147.10998 109.3974,147.11042 C 109.39654,147.11024 109.39034,147.1107 109.38933,147.11042 C 109.12076,147.02182 104.93413,144.27968 105.34146,146.3847 C 103.70321,145.7324 99.473687,143.71188 100.06793,145.27194 C 100.65344,146.80906 111.6853,148.99782 112.00997,149.06178 C 111.71823,149.08476 107.05266,149.47508 107.26863,150.69867 C 101.01565,146.88917 101.03037,149.17367 101.17263,149.35207 C 101.17292,149.35232 101.17235,149.3599 101.17263,149.36013 C 100.82135,149.30457 93.128486,147.38809 99.245458,150.69867 C 102.52606,152.47397 103.3254,153.16608 103.34171,153.43219 C 103.34182,153.43805 103.34237,153.45095 103.34171,153.45639 C 103.34052,153.46345 103.33609,153.47422 103.33365,153.48058 C 103.33297,153.48212 103.32634,153.48713 103.32559,153.48864 C 103.3231,153.49303 103.32062,153.50075 103.31752,153.50477 C 103.31642,153.50607 103.31062,153.51157 103.30946,153.51283 C 103.30823,153.51405 103.30268,153.51971 103.3014,153.52089 C 103.30005,153.52204 103.29473,153.52785 103.29333,153.52896 C 103.29187,153.53003 103.28679,153.53598 103.28527,153.53702 C 103.15809,153.61837 102.85079,153.58432 102.76114,153.5854 C 102.75724,153.58554 102.74779,153.58506 102.74502,153.5854 C 102.74346,153.58598 102.73719,153.59261 102.73695,153.59346 C 102.73811,153.59463 102.7436,153.59962 102.74502,153.60153 C 102.83229,153.73128 103.31223,155.0415 103.28527,155.27067 C 103.28464,155.27436 103.27815,155.2838 103.2772,155.2868 C 103.27665,155.28812 103.27784,155.29372 103.2772,155.29486 C 103.27682,155.29529 103.26955,155.29448 103.26914,155.29486 C 103.26871,155.2952 103.26959,155.30263 103.26914,155.30293 C 103.26863,155.30307 103.26161,155.30283 103.26108,155.30293 C 103.26038,155.30286 103.25384,155.30306 103.25301,155.30293 C 102.98494,155.2354 98.933442,153.07025 97.544063,152.9242 C 96.132368,152.77557 89.444703,154.77925 96.576444,157.89937 C 103.70819,161.01949 108.08879,157.15514 112.02609,157.60102 C 115.9634,158.04664 117.82413,158.71668 117.45282,159.97975 C 117.08126,161.24256 113.4252,155.8395 109.58286,160.51194 C 105.21206,159.64702 102.24663,159.1465 104.50286,162.35848 C 97.364922,159.69095 93.006059,163.17231 101.99511,164.584 C 110.82831,164.84435 116.25943,162.43105 116.25943,162.43105 C 116.25943,162.43105 117.74956,165.18515 119.90413,163.25353 C 121.95745,161.41269 122.11897,163.75552 122.19416,163.97923 C 122.19537,163.98232 122.20104,163.9854 122.20222,163.9873 C 122.20281,163.98794 122.20164,163.99504 122.20222,163.99536 C 122.2028,163.99536 122.20947,163.99547 122.21028,163.99536 C 122.36893,163.95551 124.2826,163.10032 124.2826,163.10032 C 124.456,163.10033 124.63333,163.10032 124.80673,163.10032 C 124.80672,169.0433 124.80673,174.98571 124.80673,180.92869 C 127.20874,180.95346 129.60541,180.97649 132.00743,181.00127 C 132.00742,181.00127 129.70443,165.47865 130.96724,163.39867 C 132.19083,161.38368 133.34763,161.60119 133.41854,161.61664 C 133.41854,161.61664 138.09956,163.02491 138.61949,162.80197 C 138.62559,162.79936 138.63788,162.79688 138.64368,162.79391 C 138.64748,162.79185 138.65613,162.78806 138.65981,162.78585 C 138.66884,162.78011 138.68376,162.76832 138.69206,162.76166 C 138.69369,162.76029 138.69852,162.755 138.70013,162.75359 C 139.08055,162.40629 138.69292,161.03584 141.07079,161.24572 C 141.80498,160.97866 141.52484,159.8082 141.99809,159.52013 C 142.00644,159.51525 142.02153,159.50834 142.03035,159.50401 C 142.04823,159.49562 142.07495,159.48589 142.09486,159.47981 C 142.12258,159.47188 142.1597,159.46688 142.19162,159.46369 C 142.9345,159.38937 157.2708,163.47182 160.39092,159.60883 C 159.57374,157.45452 156.74725,159.46194 156.00438,159.53626 C 155.33581,159.53626 152.51063,158.19914 150.876,159.53626 C 149.39025,158.42208 142.63511,157.68166 142.63511,157.68166 C 141.7436,156.79016 158.75584,158.12444 159.72165,157.45588 C 161.72733,155.44994 156.00889,155.67456 155.1174,156.34312 C 153.53256,155.37731 151.5412,155.44878 150.32768,156.11734 C 149.74582,154.72551 144.222,155.32834 141.15143,154.932 C 140.16858,154.35556 140.33224,154.0247 140.99822,153.66604 C 147.41186,153.93852 153.79285,154.77596 160.23771,154.48851 C 161.97968,152.21758 158.04476,151.36117 155.63346,153.29512 C 154.21789,150.96715 151.32394,153.21945 149.39232,152.99677 C 147.46095,152.77383 148.35212,150.39993 150.80343,150.77124 C 153.25499,151.14281 157.63849,150.61971 158.45568,149.50528 C 159.27261,148.3911 157.96787,147.26227 153.924,148.31994 C 152.55539,146.9823 149.54584,148.31781 148.13441,148.76343 C 146.25645,147.71583 141.88727,148.61765 140.40152,148.98921 C 138.947,148.08507 148.05378,146.61048 148.05378,146.61048 C 151.56894,146.5483 153.55166,145.94012 154.66584,145.64286 C 159.97975,142.79472 154.59185,142.49218 151.8033,144.56235 C 150.07242,143.21104 148.4285,144.67918 146.86844,145.19937 C 145.40589,145.68681 142.70122,146.04187 142.36901,145.90089 C 142.36511,145.89908 142.35604,145.8948 142.35289,145.89283 C 142.35201,145.89214 142.34562,145.88548 142.34482,145.88477 C 142.34429,145.884 142.33721,145.87749 142.33676,145.8767 C 142.33649,145.87589 142.33694,145.86947 142.33676,145.86864 C 142.33676,145.86777 142.33663,145.86152 142.33676,145.86058 C 142.33791,145.85732 142.34255,145.84833 142.34482,145.84445 C 142.56391,145.50478 146.57009,143.04642 146.57009,143.04642 C 146.57009,143.04642 151.77111,142.67093 152.81124,142.5223 C 153.44506,142.43173 155.66638,141.38014 155.66571,140.99024 C 155.64709,140.74821 154.72156,140.77044 151.91619,141.48211 C 149.39031,141.70505 147.90683,141.561 146.94101,141.63532 C 145.38773,141.47473 144.73331,141.31099 144.6026,141.16764 C 144.59769,141.16159 144.58957,141.14943 144.58647,141.14344 C 144.57563,141.11756 144.58265,141.08765 144.6026,141.06281 C 144.60771,141.0571 144.62022,141.04427 144.62679,141.03862 C 145.00755,140.73451 147.46514,140.51449 147.46514,140.51449 C 147.46514,140.51449 154.96791,139.82643 155.46412,139.43398 C 155.46589,139.43242 155.47065,139.42748 155.47219,139.42592 C 155.4748,139.42283 155.47857,139.41285 155.48025,139.40979 C 155.48085,139.40827 155.48795,139.40324 155.48831,139.40173 C 155.6427,136.33415 149.1232,137.75067 148.94882,137.7729 C 148.96747,135.61592 143.0648,137.74124 142.78831,137.7729 C 142.78776,137.77283 142.78063,137.77305 142.78025,137.7729 C 142.5263,137.62328 142.41562,137.46541 142.3932,137.32135 C 142.38591,137.26643 142.39288,137.20462 142.40933,137.15201 C 142.55718,136.70726 143.44952,136.36179 143.44952,136.36179 C 145.08389,135.96572 147.52752,135.84205 148.16666,135.3216 C 148.16666,135.3216 152.7795,135.28103 153.3273,134.05563 C 152.19532,130.93268 143.56505,134.60847 142.40933,135.1684 C 142.17776,135.1684 142.03595,135.11022 141.96584,135.01519 C 141.58638,134.46075 143.4591,132.63494 143.52209,132.57195 C 143.52267,132.57137 143.52873,132.5645 143.53016,132.56389 C 143.81556,132.48292 150.706,132.13035 153.99657,127.66935 C 154.22881,124.91099 150.06158,129.2256 150.06158,129.2256 C 149.7504,125.64825 145.53016,129.45248 143.0786,129.74973 C 140.6273,130.04672 140.5555,128.63413 142.26419,128.41119 C 143.97262,128.18851 145.90263,128.3343 146.86844,125.73411 C 147.834,123.13392 150.73505,125.88551 151.25498,124.9197 C 151.75867,123.98407 150.3058,123.18651 150.21479,123.13767 C 150.21479,123.13767 152.36768,120.90235 148.87625,120.97666 C 145.41996,121.05022 140.9515,120.54349 140.86114,120.53317 C 141.0779,120.45044 144.5983,119.12264 147.90863,119.19463 C 151.32601,119.26894 149.46792,116.74333 146.19917,116.74333 C 142.93069,116.74332 141.224,115.63057 141.224,115.63057 C 143.08131,114.93723 144.93856,114.24352 146.79587,113.55019 C 146.67201,113.03025 146.5488,112.51386 146.42495,111.99393 C 146.42495,111.99393 149.69228,109.39187 145.08641,109.98612 C 140.48054,110.58063 139.95803,110.65539 139.95803,110.65539 C 139.95803,110.65539 130.89123,112.04479 130.67695,112.0665 C 130.67637,112.0665 130.66975,112.06659 130.66889,112.0665 C 130.58112,112.05276 129.68307,111.77372 129.51581,111.42949 C 129.51066,111.41821 129.5032,111.40059 129.49968,111.38917 C 129.49586,111.37543 129.49288,111.3547 129.49162,111.34079 C 129.49066,111.32452 129.48878,111.30081 129.49162,111.28434 C 129.52902,111.10293 129.80871,110.90678 130.52375,110.72796 C 132.901,110.13372 141.29973,108.42748 142.56254,108.87336 C 142.72536,108.9308 142.8442,108.91782 142.91733,108.85723 C 143.39085,108.42875 141.81548,105.69596 137.95022,105.3093 C 133.49298,104.86368 130.74952,106.42206 130.74952,106.42206 C 130.74952,106.42206 127.84925,105.37832 130.52375,104.48682 C 133.19799,103.59558 137.43416,104.78517 137.43416,104.78517 C 137.43415,104.78517 142.18588,103.37161 138.24857,102.77736 C 134.31126,102.18285 133.06974,103.31187 131.26558,103.37406 C 130.54542,102.47508 137.44699,102.26284 137.87765,101.51945 C 137.14974,100.18183 132.8797,101.51945 130.3786,101.51945 C 129.31474,101.06816 129.24436,100.33387 130.45117,99.882575 C 133.00182,99.783486 135.39958,99.933275 137.95022,99.834196 C 137.87591,98.472296 137.95196,96.857927 137.87765,95.496038 C 134.64245,94.904878 130.84828,95.928947 129.032,95.842767 C 129.51787,94.356758 136.50324,93.973198 137.28095,93.568859 C 138.88591,91.562719 130.5811,93.537879 130.3786,93.568859 C 128.90446,93.351079 128.99374,92.419329 129.92704,91.859399 C 132.08135,91.611689 136.91255,92.175099 136.54717,90.71439 C 136.26722,89.345601 133.19766,90.07847 131.93486,90.37572 C 130.67205,90.67271 128.81428,90.44829 128.81428,90.44829 C 128.00561,89.359521 136.0971,89.80453 136.02304,88.964611 C 135.91752,88.000271 130.89389,88.664521 129.1852,88.738831 C 127.87101,87.832081 135.3637,87.229202 135.71663,87.110002 C 135.71853,87.109122 135.72372,87.102762 135.7247,87.101942 C 136.00466,84.632373 130.52368,87.101942 129.48355,87.101942 C 129.30478,87.101942 129.16946,87.057322 129.07232,86.980992 C 129.0506,86.963332 129.026,86.937042 129.00781,86.916482 C 128.65074,86.499902 128.96749,85.545692 128.96749,85.545692 C 128.96749,85.545692 130.92068,84.668013 131.03981,84.457123 C 131.04066,84.455433 131.04727,84.450643 131.04787,84.449053 C 131.04811,84.448283 131.0477,84.441743 131.04787,84.440993 C 131.04785,84.440313 131.04796,84.433583 131.04787,84.432923 C 131.04729,84.431763 131.04057,84.426073 131.03981,84.424863 C 131.03512,84.418613 131.02453,84.407963 131.01562,84.400673 C 130.78633,84.224113 129.44286,83.778443 129.26584,83.763663 C 129.26451,83.763593 129.25894,83.763663 129.25778,83.763663 C 129.25669,83.763243 129.25076,83.756203 129.24971,83.755593 C 129.24768,83.753983 129.24355,83.749913 129.24165,83.747533 C 129.24073,83.746153 129.23447,83.741033 129.23359,83.739463 C 129.1324,83.531793 129.25778,82.054194 129.25778,82.054194 C 129.25778,82.054194 130.80544,80.894435 130.90273,80.433435 C 130.90344,80.429615 130.90222,80.421035 130.90273,80.417315 C 130.90313,80.413635 130.90254,80.404755 130.90273,80.401185 C 130.90281,80.397665 130.90287,80.388465 130.90273,80.385055 C 130.90248,80.381705 130.9032,80.372175 130.90273,80.368925 C 130.90244,80.367335 130.90308,80.362435 130.90273,80.360865 C 130.90151,80.356255 130.89641,80.349095 130.89466,80.344735 C 130.89409,80.343285 130.8953,80.338095 130.89466,80.336675 C 130.89397,80.335285 130.88734,80.329965 130.8866,80.328615 C 130.88501,80.325965 130.88034,80.323075 130.87854,80.320545 C 130.87569,80.316845 130.87378,80.307855 130.87047,80.304425 C 130.86932,80.303305 130.86361,80.297445 130.86241,80.296355 C 130.85616,80.291085 130.84566,80.284795 130.83822,80.280235 C 130.83515,80.278465 130.82534,80.273825 130.82209,80.272165 C 130.43123,80.084495 128.81428,80.643085 128.81428,80.643085 C 128.81428,80.147825 128.81428,79.654675 128.81428,79.159405 C 128.81428,79.159405 130.22997,79.005515 130.3786,78.336936 C 130.38731,78.297756 130.38289,78.259246 130.3786,78.224046 C 130.37656,78.210066 130.37446,78.189026 130.37054,78.175666 C 130.36136,78.146916 130.34744,78.112946 130.33022,78.086966 C 130.32748,78.082996 130.31701,78.074736 130.31409,78.070836 C 129.99017,77.652686 128.66914,77.595086 128.66914,77.595086 C 128.42143,74.995007 128.17501,72.397779 127.9273,69.7977 z M 126.60489,95.262188 L 126.60489,96.286257 C 126.60489,96.286257 124.9389,96.200927 124.62933,95.939527 C 124.6279,95.938247 124.62263,95.932737 124.62127,95.931467 C 124.61996,95.930177 124.61444,95.924697 124.6132,95.923397 C 124.61204,95.922097 124.60624,95.916647 124.60514,95.915337 C 124.60411,95.914017 124.59805,95.908597 124.59708,95.907267 C 124.59439,95.903257 124.59107,95.895237 124.58901,95.891147 C 124.5884,95.889767 124.58955,95.884467 124.58901,95.883077 C 124.58855,95.881687 124.58134,95.876417 124.58095,95.875017 C 124.58063,95.873607 124.58119,95.868367 124.58095,95.866957 C 124.58062,95.864097 124.58098,95.853717 124.58095,95.850827 C 124.58101,95.849377 124.58081,95.844227 124.58095,95.842767 C 124.58117,95.841287 124.58065,95.836177 124.58095,95.834697 C 124.58248,95.828747 124.58616,95.816607 124.58901,95.810507 C 124.58981,95.808977 124.5962,95.803987 124.59708,95.802447 C 124.60095,95.796237 124.60794,95.784607 124.6132,95.778257 C 124.61461,95.776657 124.61977,95.771797 124.62127,95.770197 C 124.62444,95.766957 124.63386,95.757337 124.6374,95.754067 C 124.64856,95.744197 124.66313,95.732017 124.67771,95.721807 C 125.23664,95.330488 126.35262,95.339718 126.57263,95.278318 C 126.57441,95.277778 126.57906,95.278878 126.5807,95.278318 C 126.5822,95.277748 126.5874,95.270838 126.58876,95.270258 C 126.58998,95.269658 126.59575,95.270868 126.59682,95.270258 C 126.59775,95.269628 126.60411,95.262828 126.60489,95.262188 z M 128.96749,96.624917 C 129.02506,96.624917 132.2861,96.652997 132.57187,97.076477 C 132.57407,97.080077 132.57817,97.088947 132.57994,97.092607 C 132.58226,97.098137 132.58667,97.111137 132.588,97.116797 C 132.58866,97.120597 132.58779,97.129057 132.588,97.132927 C 132.58796,97.138757 132.5891,97.151147 132.588,97.157107 C 132.58654,97.163127 132.58248,97.175157 132.57994,97.181307 C 132.33093,97.710267 129.032,98.027976 129.032,98.027966 L 128.96749,96.624917 z M 128.78203,98.648856 C 128.783,98.649346 128.78891,98.648376 128.79009,98.648856 C 128.79148,98.649336 128.79657,98.648386 128.79816,98.648856 C 128.99175,98.699976 130.34236,98.743786 130.50762,98.971396 C 130.50905,98.973526 130.51446,98.977306 130.51568,98.979456 C 130.51624,98.980546 130.51517,98.986426 130.51568,98.987526 C 130.51659,98.989736 130.52305,98.993346 130.52375,98.995586 C 130.52403,98.996716 130.52351,99.002516 130.52375,99.003646 C 130.52387,99.004806 130.52368,99.010556 130.52375,99.011716 C 130.52376,99.012886 130.52379,99.018596 130.52375,99.019776 C 130.52364,99.020966 130.52391,99.026646 130.52375,99.027846 C 130.52352,99.029046 130.52402,99.034686 130.52375,99.035906 C 130.52334,99.037136 130.51614,99.042726 130.51568,99.043966 C 130.51516,99.045226 130.51627,99.050766 130.51568,99.052036 C 130.51374,99.055846 130.51012,99.064266 130.50762,99.068156 C 130.50672,99.069466 130.50052,99.074906 130.49955,99.076226 C 130.49852,99.077546 130.50065,99.082946 130.49955,99.084286 C 130.21959,99.426436 128.97323,99.519716 128.91105,99.519716 C 128.91056,99.519606 128.90347,99.519926 128.90298,99.519716 C 128.9025,99.519406 128.90347,99.512066 128.90298,99.511656 C 128.90201,99.510246 128.89589,99.505366 128.89492,99.503586 C 128.83794,99.387916 128.78203,98.648856 128.78203,98.648856 z M 118.83974,101.34206 C 119.90445,101.28676 122.01735,101.53748 125.984,102.63222 C 125.984,102.71663 126.06432,103.74517 126.03238,103.91431 C 126.03209,103.91564 126.02462,103.92118 126.02431,103.92237 C 126.02397,103.9233 126.02467,103.92965 126.02431,103.93044 C 126.02349,103.93116 126.01715,103.93838 126.01625,103.9385 C 125.95407,103.90728 118.79962,101.85135 118.14628,101.88231 C 118.12843,101.88317 118.10683,101.8839 118.08984,101.88231 C 118.07541,101.88067 118.05498,101.8775 118.04146,101.87425 C 118.02366,101.86958 118.00069,101.85723 117.98502,101.85006 C 117.97925,101.84726 117.96623,101.8451 117.96082,101.84199 C 117.95906,101.84092 117.95448,101.83503 117.95276,101.83393 C 117.931,101.81919 117.90949,101.7968 117.89632,101.77749 C 117.89536,101.77598 117.88915,101.77095 117.88825,101.76942 C 117.88658,101.76632 117.88162,101.75647 117.88019,101.7533 C 117.87954,101.75169 117.88078,101.74686 117.88019,101.74523 C 117.87914,101.74194 117.87291,101.73246 117.87212,101.72911 C 117.8718,101.72741 117.87238,101.72275 117.87212,101.72104 C 117.87176,101.7176 117.87221,101.70841 117.87212,101.70491 C 117.87219,101.7014 117.87177,101.69235 117.87212,101.68879 C 117.8734,101.67984 117.87694,101.66568 117.88019,101.65653 C 117.88897,101.63453 117.90707,101.60614 117.92857,101.58396 C 118.03797,101.47696 118.31194,101.36947 118.83974,101.34206 z M 122.54895,104.38199 C 123.68936,104.34108 126.42173,104.99846 126.57263,104.96257 C 126.57263,105.18044 126.69354,106.21026 126.55651,106.42206 C 126.55524,106.42382 126.54975,106.4285 126.54844,106.43012 C 126.54709,106.43161 126.54177,106.43683 126.54038,106.43818 C 126.53894,106.4394 126.53379,106.44518 126.53232,106.44625 C 126.52927,106.44809 126.51941,106.45306 126.51619,106.45431 C 126.51453,106.45479 126.50983,106.45399 126.50812,106.45431 C 126.50462,106.45464 126.49569,106.45462 126.492,106.45431 C 126.4901,106.45399 126.48588,106.4548 126.48394,106.45431 C 126.25171,106.39626 122.21948,105.11556 122.06514,104.59165 C 122.0631,104.58298 122.06496,104.56762 122.06514,104.55939 C 122.06684,104.54113 122.07569,104.51882 122.08933,104.50295 C 122.091,104.50122 122.09557,104.49658 122.0974,104.49488 C 122.09922,104.49318 122.10353,104.48848 122.10546,104.48682 C 122.18286,104.42546 122.34259,104.3894 122.54895,104.38199 z M 133.77333,107.20422 C 134.86238,107.18293 135.63128,107.27616 135.34571,107.60739 C 134.568,108.50947 129.19327,109.25234 129.19327,109.25234 L 129.09651,107.60739 C 129.21193,107.5904 131.9428,107.24 133.77333,107.20422 z M 118.38819,112.3326 C 119.30213,112.28394 121.43043,112.78587 126.16946,114.79196 L 126.20171,115.97729 C 126.20172,115.97729 118.17628,113.54328 117.89632,113.13895 C 117.75852,112.93994 117.50237,112.37976 118.38819,112.3326 z M 134.112,114.0985 C 134.35616,114.08609 134.52803,114.1108 134.58774,114.17107 C 134.58916,114.17272 134.59455,114.17743 134.59581,114.17914 C 134.59911,114.18443 134.60201,114.19748 134.60387,114.20333 C 134.60524,114.20936 134.61206,114.22091 134.61193,114.22752 C 134.60876,114.26149 134.5831,114.30732 134.53936,114.35653 C 133.79262,115.19668 129.7819,116.03374 129.7819,116.03374 C 129.7819,116.03374 129.7819,114.97639 129.7819,114.94517 C 129.78256,114.94523 129.78914,114.94516 129.78997,114.94517 C 129.9728,114.93893 132.91687,114.15927 134.112,114.0985 z M 116.51746,114.24364 C 117.71559,114.18011 120.42096,114.81559 126.48394,117.68676 C 126.48393,117.71651 126.5379,118.70674 126.51619,118.79952 C 126.51574,118.7994 126.50891,118.79975 126.50812,118.79952 C 126.14867,118.68366 115.59822,114.97742 115.59822,114.97742 C 115.587,114.93679 115.42825,114.3014 116.51746,114.24364 z M 136.60362,118.88015 C 136.91021,118.86733 137.11136,118.89378 137.16,118.96079 C 137.16446,118.96852 137.16747,118.98414 137.16806,118.99304 C 137.16667,119.02525 137.14017,119.06636 137.08743,119.114 C 136.1307,119.97805 130.03091,121.02485 129.81416,121.04117 C 129.81318,121.04117 129.80703,121.04129 129.80609,121.04117 C 129.80523,121.04081 129.79885,121.04164 129.79803,121.04117 C 129.79728,121.04047 129.79068,121.03391 129.78997,121.03311 C 129.78802,121.03005 129.78355,121.02096 129.7819,121.01698 C 129.78138,121.01555 129.78239,121.01043 129.7819,121.00892 C 129.78099,121.00568 129.77463,120.99639 129.77384,120.99279 C 129.73512,120.79252 129.86134,120.09116 129.8706,119.99292 C 129.87069,119.99149 129.8706,119.98582 129.8706,119.98485 C 129.87097,119.98521 129.87806,119.98454 129.87867,119.98485 C 129.87975,119.98504 129.8854,119.99278 129.88673,119.99292 C 129.88829,119.99299 129.893,119.99289 129.89479,119.99292 C 130.28521,119.98643 134.95993,118.94889 136.60362,118.88015 z M 118.67041,121.58142 C 120.4863,121.48762 125.98853,124.01063 126.25816,124.08916 C 126.25898,124.0893 126.26567,124.08914 126.26622,124.08916 C 126.23793,124.20187 126.23326,125.11278 126.20978,125.25836 C 126.20894,125.26247 126.21066,125.27232 126.20978,125.27449 C 126.20955,125.27491 126.20194,125.2742 126.20171,125.27449 C 126.05338,125.19505 118.5124,122.06531 118.17854,122.31519 C 117.97052,121.82224 118.18617,121.60644 118.67041,121.58142 z M 134.89416,122.24262 C 135.27201,122.22595 135.54858,122.2428 135.636,122.291 C 135.64657,122.29766 135.65632,122.3071 135.66019,122.31519 C 135.66064,122.31658 135.65993,122.32183 135.66019,122.32325 C 135.66025,122.32472 135.66032,122.3298 135.66019,122.33132 C 135.65953,122.33443 135.66165,122.34417 135.66019,122.34744 C 135.65925,122.34913 135.65327,122.35378 135.65212,122.35551 C 135.64674,122.36258 135.63668,122.37192 135.62793,122.3797 C 135.06801,122.87744 129.8706,123.9037 129.8706,123.9037 C 129.8706,123.9037 129.84641,122.94079 129.84641,122.84738 C 129.99402,122.81585 133.34915,122.31078 134.89416,122.24262 z M 134.47486,125.57284 C 134.84054,125.5607 135.09981,125.58152 135.16025,125.64541 C 135.16131,125.64673 135.16742,125.65212 135.16831,125.65347 C 135.16979,125.65626 135.16748,125.66667 135.16831,125.6696 C 135.16857,125.67111 135.17629,125.67612 135.17638,125.67767 C 135.1763,125.67925 135.16856,125.68411 135.16831,125.68573 C 135.1675,125.68905 135.16981,125.69837 135.16831,125.70186 C 135.1674,125.70364 135.16135,125.7081 135.16025,125.70992 C 135.15588,125.71721 135.15064,125.72657 135.14412,125.73411 C 135.13885,125.73981 135.12637,125.75247 135.11994,125.7583 C 134.55897,126.24249 130.15282,127.16941 130.15282,127.16941 C 130.15282,127.16941 130.03187,126.11206 130.03187,126.08084 C 130.1541,126.08346 133.09989,125.61848 134.47486,125.57284 z M 115.88044,125.83894 C 116.94354,125.77172 119.57778,126.20979 126.08076,128.57246 L 126.29847,129.84649 C 126.29848,129.84649 115.47118,126.35138 115.16279,126.24211 C 115.16328,126.24211 115.16257,126.23492 115.16279,126.23405 C 115.16306,126.22735 115.1612,126.21096 115.16279,126.19373 C 115.16663,126.16175 115.18286,126.11134 115.21924,126.06471 C 115.29554,125.97117 115.46987,125.8649 115.88044,125.83894 z M 130.14476,128.60471 C 130.27524,128.63258 132.09075,128.69286 132.42673,128.97563 C 132.42824,128.97697 132.43335,128.98235 132.43479,128.9837 C 132.43617,128.98506 132.44154,128.99039 132.44286,128.99176 C 132.4441,128.99314 132.44974,128.99844 132.45092,128.99982 C 132.45424,129.00402 132.4563,129.01166 132.45898,129.01595 C 132.4598,129.01739 132.46629,129.02256 132.46704,129.02402 C 132.46976,129.02986 132.47359,129.04219 132.47511,129.04821 C 132.47541,129.04972 132.47488,129.05474 132.47511,129.05627 C 132.47526,129.05781 132.47504,129.06279 132.47511,129.06433 C 132.47509,129.06745 132.47544,129.0773 132.47511,129.08046 C 132.47486,129.08205 132.47544,129.08692 132.47511,129.08852 C 132.47428,129.09175 132.4682,129.10138 132.46704,129.10465 C 132.46638,129.10629 132.46779,129.11106 132.46704,129.11272 C 132.46538,129.11605 132.461,129.12546 132.45898,129.12884 C 132.17902,129.5644 130.28184,129.72554 130.28184,129.72554 C 130.28184,129.72554 130.18863,128.87203 130.14476,128.60471 z M 134.53936,131.08827 C 134.96212,131.07814 135.26554,131.1265 135.32958,131.24954 C 135.36566,131.33292 135.29625,131.45608 135.09574,131.62046 C 133.54033,132.89591 130.15282,133.14446 130.15282,133.14446 C 130.15282,133.14446 130.15282,131.77237 130.15282,131.74141 C 130.15361,131.74148 130.15933,131.74152 130.16089,131.74141 C 130.35332,131.71854 133.13579,131.12191 134.53936,131.08827 z M 138.85333,132.39455 C 139.39028,132.37421 139.62164,132.46422 139.69193,132.58808 C 139.6976,132.59907 139.7048,132.61685 139.70806,132.6284 C 139.71312,132.64937 139.71787,132.67862 139.71613,132.70097 C 139.69882,132.86078 139.52576,133.05228 139.39359,133.17671 C 138.86462,133.67446 130.43505,136.34567 130.43505,136.34567 C 130.43505,136.34567 130.37157,134.57383 130.40279,134.41849 C 135.33128,132.92489 137.74176,132.43667 138.85333,132.39455 z M 133.40241,137.41005 C 133.93833,137.39006 134.35739,137.42172 134.48292,137.54713 C 134.49057,137.55544 134.50199,137.57022 134.50711,137.57938 C 134.50987,137.58498 134.51336,137.59766 134.51517,137.60357 C 134.51667,137.60959 134.51465,137.62142 134.51517,137.62776 C 134.51549,137.63852 134.51766,137.65639 134.51517,137.66808 C 134.50906,137.69182 134.49284,137.72106 134.47486,137.74871 C 133.75366,138.45649 130.24958,138.56313 130.24958,138.56313 L 130.24958,137.68421 C 130.90759,137.66198 132.37233,137.44846 133.40241,137.41005 z M 136.91003,138.85341 C 137.07662,138.84933 137.17821,138.87654 137.19225,138.92598 C 137.19282,138.92981 137.19265,138.93795 137.19225,138.94211 C 137.18382,138.98324 137.13488,139.04562 137.03098,139.11951 C 135.63116,140.11474 130.37054,141.13538 130.37054,141.13538 C 130.37054,141.13538 130.43572,140.43986 130.4673,140.27259 C 130.61362,140.27022 135.65133,138.88423 136.91003,138.85341 z M 139.86127,139.95811 C 140.48115,139.95226 140.95428,140.04373 141.224,140.24033 C 141.22449,140.24033 141.23162,140.2402 141.23206,140.24033 C 141.23226,140.2411 141.23191,140.24751 141.23206,140.2484 C 141.23216,140.2494 141.23202,140.25534 141.23206,140.25646 C 141.23194,140.25917 141.23241,140.26942 141.23206,140.27259 C 141.20569,140.46541 140.81159,141.3725 139.42584,141.76433 C 137.69748,141.60996 130.36229,143.77848 130.21733,143.81245 C 130.21692,143.81202 130.2096,143.8133 130.20927,143.81245 C 130.20874,143.80993 130.20953,143.80038 130.20927,143.79632 C 130.20537,143.65741 130.30603,142.90934 130.30603,142.90934 C 132.83453,141.39723 137.42942,139.98104 139.86127,139.95811 z M 121.0814,144.21562 C 121.09761,144.21529 121.11255,144.21557 121.12978,144.21562 C 124.30279,144.55777 125.4878,145.74555 125.82273,146.22343 C 125.19006,147.33367 120.17556,144.84376 120.70241,144.31239 C 120.76272,144.2585 120.88688,144.21968 121.0814,144.21562 z M 139.26457,144.42528 C 139.39059,144.42047 139.50567,144.44625 139.58711,144.49785 C 139.62039,144.52011 139.6532,144.55204 139.67581,144.58655 C 139.70638,144.63607 139.72673,144.70308 139.73225,144.78007 C 139.4008,145.29225 137.68653,145.06867 137.5793,145.05423 C 137.66566,145.02343 138.65547,144.44849 139.26457,144.42528 z M 132.46704,147.87645 C 132.70231,147.86677 132.89777,147.89054 133.0073,147.95708 C 133.02055,147.96565 133.03714,147.97924 133.04762,147.98934 C 133.05095,147.99279 133.06073,148.00183 133.06374,148.00547 C 133.06802,148.01105 133.07635,148.02366 133.07987,148.02966 C 133.08313,148.03579 133.08545,148.04729 133.08793,148.05385 C 133.10791,148.11411 133.10011,148.19732 133.04762,148.29575 C 132.54987,149.22905 130.37054,148.88438 130.37054,148.88439 L 130.37054,148.23124 C 130.37097,148.23143 130.37808,148.23109 130.3786,148.23124 C 130.50135,148.24166 131.70244,147.90789 132.46704,147.87645 z M 119.62997,150.33581 C 120.30046,150.30198 120.88651,150.74181 121.5007,151.09378 C 122.8693,150.81382 125.67758,151.3115 125.67759,151.3115 C 125.67759,151.3115 125.67758,152.45987 125.67759,152.55327 C 125.67759,152.55425 125.67122,152.56047 125.66952,152.56134 C 125.66826,152.56175 125.66313,152.56095 125.66146,152.56134 C 125.40584,152.60585 122.11493,152.46205 121.37974,151.99689 C 120.78024,151.99689 119.08313,151.10122 118.95263,150.64223 C 118.95164,150.63835 118.94534,150.62991 118.94457,150.6261 C 118.9436,150.62044 118.94501,150.60743 118.94457,150.60191 C 118.94439,150.59827 118.9445,150.58936 118.94457,150.58578 C 118.94476,150.58225 118.94413,150.57312 118.94457,150.56966 C 118.94485,150.56794 118.94423,150.56329 118.94457,150.56159 C 118.94538,150.55824 118.95156,150.54874 118.95263,150.54547 C 118.95323,150.54385 118.95197,150.539 118.95263,150.5374 C 119.18717,150.41242 119.41568,150.34663 119.62997,150.33581 z M 134.0233,150.94864 C 134.5381,150.9209 134.75635,151.08006 134.3539,151.65017 C 133.23404,153.23654 130.33828,152.58553 130.33828,152.58553 L 130.21733,151.60178 C 131.23873,151.64162 133.10561,150.99809 134.0233,150.94864 z M 123.20209,154.16597 C 124.37302,154.11139 125.64533,154.57721 125.64533,154.57721 C 125.67533,154.63697 126.27464,155.8184 125.74209,156.2141 C 125.72227,156.22834 125.70055,156.24239 125.67759,156.25442 C 125.02425,156.59657 121.90161,155.98703 121.71841,154.73042 C 122.08586,154.34256 122.63024,154.19263 123.20209,154.16597 z M 111.13105,154.7788 C 112.20192,154.71454 113.39808,155.37423 113.53397,155.44001 C 113.53577,155.44082 113.54101,155.43964 113.54203,155.44001 C 113.54203,155.47716 113.50171,156.6334 113.50171,156.6334 C 113.50171,156.6334 111.38185,156.04244 110.71174,154.85137 C 110.84611,154.81474 110.98961,154.78729 111.13105,154.7788 z M 131.52362,154.94007 C 132.71797,154.93249 134.16089,155.21306 134.37003,155.6174 C 134.40952,155.70009 134.39782,155.79126 134.32165,155.8835 C 133.7305,156.59876 130.37054,155.948 130.37054,155.94801 L 130.37054,155.07715 C 130.66947,154.9897 131.08126,154.94288 131.52362,154.94007 z" id="path575" style="fill:#007a3d;fill-opacity:1;fill-rule:evenodd;stroke:#198200;stroke-width:0.32000005;stroke-linecap:round;stroke-linejoin:round;stroke-dasharray:none;stroke-opacity:1"/>
  <rect height="127.99994" id="rect608" style="font-size:12px;fill:#007a3d;fill-opacity:1;fill-rule:evenodd;stroke-width:1pt" width="77.915428" x="-3.8218637e-08" y="64.000031"/>
  <rect height="127.99994" id="rect610" style="font-size:12px;fill:#007a3d;fill-opacity:1;fill-rule:evenodd;stroke-width:1pt" width="77.906288" x="178.09372" y="64"/>
</svg>
