<svg width="24" height="24" viewBox="0 0 24 24" fill="none" xmlns="http://www.w3.org/2000/svg">
<path fill-rule="evenodd" clip-rule="evenodd" d="M20.5069 3.47137C18.1924 1.15688 15.3491 0 11.9786 0C8.664 0 5.85037 1.15687 3.53587 3.47175C1.179 5.87175 0 8.71463 0 12C0 15.2857 1.179 18.1065 3.53587 20.4637C5.92125 22.821 8.73525 24 11.9786 24C15.2782 24 18.1421 22.8071 20.5706 20.421C22.8566 18.1785 24 15.3716 24 12C24 8.643 22.8349 5.80013 20.5069 3.47137ZM5.1 5.03587C6.98588 3.12187 9.29288 2.1645 12.0214 2.1645C14.7356 2.1645 17.0501 3.1215 18.9641 5.0355C20.8778 6.95025 21.8351 9.27113 21.8351 11.9996C21.8351 14.7712 20.8924 17.064 19.0065 18.8783C17.0209 20.8361 14.6917 21.8137 12.0206 21.8137C9.33488 21.8137 7.02075 20.8429 5.07788 18.8996C3.13538 16.9579 2.16412 14.6576 2.16412 12.0004C2.16412 9.35775 3.1425 7.03613 5.1 5.03587ZM15.2359 9.02137V13.9282H13.8649V19.7565H10.1359V13.9286H8.76487V9.02137C8.76487 8.80687 8.83988 8.625 8.9895 8.475C9.13988 8.32538 9.32213 8.25 9.53588 8.25H14.4649C14.6648 8.25 14.8436 8.325 15.0004 8.475C15.1567 8.625 15.2359 8.80725 15.2359 9.02137ZM12 4.24312C10.8851 4.24312 10.3282 4.80787 10.3282 5.93587C10.3282 7.05 10.8859 7.60725 12 7.60725C13.1141 7.60725 13.6714 7.05 13.6714 5.93587C13.6714 4.80713 13.1149 4.24312 12 4.24312Z" fill="black"/>
</svg>
