<svg width="24" height="24" viewBox="0 0 24 24" fill="none" xmlns="http://www.w3.org/2000/svg">
<path fill-rule="evenodd" clip-rule="evenodd" d="M20.5492 3.5145C18.1924 1.17187 15.3345 0 11.9779 0C8.64938 0 5.8425 1.16475 3.55687 3.49275C2.4 4.65 1.51762 5.96062 0.9105 7.425C0.303375 8.88937 0 10.4141 0 12C0 13.6001 0.3 15.1211 0.9 16.5641C1.5 18.0071 2.37487 19.3039 3.525 20.4536C4.67512 21.6034 5.97525 22.482 7.425 23.0887C8.87512 23.6966 10.3931 23.9996 11.9786 23.9996C13.5641 23.9996 15.1001 23.6925 16.5855 23.0782C18.0716 22.464 19.4002 21.5779 20.5714 20.421C21.6994 19.3211 22.5532 18.0529 23.1319 16.6174C23.7097 15.1822 23.9996 13.6429 23.9996 12C23.9996 10.3714 23.706 8.83237 23.1206 7.38225C22.5349 5.9325 21.6772 4.64287 20.5492 3.5145ZM5.09963 5.03587C6.97125 3.12187 9.27862 2.1645 12.0214 2.1645C14.7356 2.1645 17.0565 3.129 18.9862 5.05762C19.914 5.98687 20.6216 7.04362 21.1065 8.22937C21.5921 9.41512 21.8351 10.6721 21.8351 12.0007C21.8351 14.7585 20.8999 17.0512 19.0286 18.8797C18.0566 19.8225 16.9684 20.5432 15.7612 21.0439C14.5526 21.5441 13.3069 21.7935 12.0214 21.7935C10.7212 21.7935 9.47812 21.5471 8.29275 21.0544C7.10625 20.5609 6.04238 19.8472 5.09963 18.9112C4.1565 17.9756 3.432 16.9114 2.92462 15.7177C2.41687 14.5256 2.16375 13.2862 2.16375 12.0004C2.16375 10.7002 2.41687 9.45375 2.92462 8.26087C3.43162 7.068 4.1565 5.99325 5.09963 5.03587ZM11.871 10.0076L10.2634 10.8435C10.0916 10.4869 9.88125 10.2364 9.6315 10.0935C9.38137 9.951 9.14925 9.87937 8.93475 9.87937C7.86375 9.87937 7.3275 10.5862 7.3275 12.0007C7.3275 12.6435 7.46325 13.1573 7.73437 13.5431C8.00587 13.929 8.406 14.1221 8.93475 14.1221C9.63487 14.1221 10.1276 13.779 10.4137 13.0935L11.892 13.8435C11.5778 14.4296 11.142 14.8901 10.5848 15.2257C10.0282 15.5618 9.41362 15.7294 8.742 15.7294C7.67062 15.7294 6.80587 15.4012 6.14887 14.7435C5.49187 14.0865 5.16337 13.1722 5.16337 12.0011C5.16337 10.8581 5.49563 9.95138 6.15975 9.27975C6.82387 8.6085 7.66312 8.2725 8.67787 8.2725C10.164 8.27175 11.2279 8.85037 11.871 10.0076ZM17.2065 10.8435L18.7924 10.0076C18.1642 8.85037 17.1064 8.27175 15.6206 8.2725C14.6062 8.2725 13.767 8.6085 13.1032 9.27975C12.4384 9.95138 12.1065 10.8581 12.1065 12.0011C12.1065 13.1722 12.4312 14.0865 13.0822 14.7435C13.7317 15.4012 14.5991 15.7294 15.6851 15.7294C16.3421 15.7294 16.9492 15.5618 17.5065 15.2257C18.063 14.8901 18.5062 14.4296 18.8344 13.8435L17.3344 13.0935C17.049 13.779 16.5559 14.1221 15.8565 14.1221C15.327 14.1221 14.9272 13.929 14.6561 13.5431C14.385 13.1573 14.2489 12.6435 14.2489 12.0007C14.2489 10.5862 14.7851 9.87937 15.8565 9.87937C16.0841 9.87937 16.3237 9.951 16.5742 10.0935C16.824 10.2364 17.0351 10.4869 17.2065 10.8435Z" fill="black"/>
</svg>
