<svg width="38" height="32" viewBox="0 0 38 32" fill="none" xmlns="http://www.w3.org/2000/svg">
<path d="M17.1 28.7536C17.1 26.9616 17.7384 25.5072 18.525 25.5072H36.575C37.3616 25.5072 38 26.9616 38 28.7536C38 30.5456 37.3616 32 36.575 32H18.525C17.7384 32 17.1 30.5456 17.1 28.7536ZM0 16C0 14.208 0.6384 12.7536 1.425 12.7536H36.575C37.3616 12.7536 38 14.208 38 16C38 17.792 37.3616 19.2464 36.575 19.2464H1.425C0.6384 19.2464 0 17.792 0 16ZM7.6 3.24638C7.6 1.45438 8.2384 0 9.025 0H36.575C37.3616 0 38 1.45438 38 3.24638C38 5.03838 37.3616 6.49275 36.575 6.49275H9.025C8.2384 6.49275 7.6 5.03838 7.6 3.24638Z" fill="black"/>
</svg>
